<svg width="14" height="14" viewBox="0 0 14 14" fill="none" xmlns="http://www.w3.org/2000/svg">
<path d="M6.70898 12.8333H1.45898V11.6667H6.70898V12.8333Z" fill="#007DFA"/>
<path d="M12.5173 9.16245L11.1068 10.5729L12.5173 11.9834L11.6924 12.8083L10.2819 11.3978L8.87142 12.8083L8.04655 11.9834L9.45703 10.5729L8.04655 9.16245L8.87142 8.33758L10.2819 9.74806L11.6924 8.33758L12.5173 9.16245Z" fill="#007DFA"/>
<path fill-rule="evenodd" clip-rule="evenodd" d="M7.81698 1.42645C8.15868 1.08474 8.71257 1.08474 9.05428 1.42645L10.6835 3.05539C11.0252 3.3971 11.0252 3.95128 10.6835 4.29298L4.71887 10.2573C4.57963 10.3966 4.39749 10.4848 4.2019 10.5077L2.43823 10.7142C1.89171 10.7782 1.42258 10.3278 1.46411 9.77911L1.60339 7.93882C1.61919 7.73019 1.70925 7.5342 1.85718 7.38625L7.81698 1.42645ZM2.75838 8.1345L2.65413 9.5145L3.96578 9.36098L7.77368 5.55279L6.55689 4.33599L2.75838 8.1345ZM7.38204 3.51112L8.59855 4.72792L9.65243 3.67433L8.43563 2.45753L7.38204 3.51112Z" fill="#007DFA"/>
</svg>
