<svg width="16" height="16" viewBox="0 0 16 16" fill="none" xmlns="http://www.w3.org/2000/svg">
    <path d="M7.95964 7.47811L6.6263 11.1448L5.37305 10.689L6.70638 7.02238L7.95964 7.47811Z" fill="currentColor" />
    <path
        d="M5.52018 7.66659L4.51986 8.91691L5.52018 10.1672L4.47917 10.9999L2.8125 8.91691L4.47917 6.8339L5.52018 7.66659Z"
        fill="currentColor" />
    <path
        d="M10.8535 8.91691L9.18685 10.9999L8.14583 10.1672L9.14616 8.91691L8.14583 7.66659L9.18685 6.8339L10.8535 8.91691Z"
        fill="currentColor" />
    <path fill-rule="evenodd" clip-rule="evenodd"
        d="M13.666 1.33325C14.1184 1.33325 14.6676 1.66691 14.6676 2.2867V11.7499C14.6676 12.1181 14.3691 12.4166 14.001 12.4166H12.4176V14.0002C12.4176 14.3683 12.119 14.6668 11.751 14.6669H1.99967C1.63152 14.6669 1.33306 14.3684 1.33301 14.0002V4.25024C1.33301 3.88205 1.63148 3.58358 1.99967 3.58358H3.95801V1.99992C3.95801 1.63182 4.25661 1.3334 4.62467 1.33325H13.666ZM2.66634 13.3336H11.0843V4.91691H2.66634V13.3336ZM5.29134 3.58358H11.751C12.1191 3.5837 12.4176 3.88213 12.4176 4.25024V11.0833H13.3343V2.66659H5.29134V3.58358Z"
        fill="currentColor" />
</svg>