<svg width="32" height="32" viewBox="0 0 32 32" fill="none" xmlns="http://www.w3.org/2000/svg">
<mask id="path-1-inside-1_7072_103431" fill="white">
<path d="M0 4C0 1.79086 1.79086 0 4 0H32V32H4C1.79086 32 0 30.2091 0 28V4Z"/>
</mask>
<path d="M0 4C0 1.79086 1.79086 0 4 0H32V32H4C1.79086 32 0 30.2091 0 28V4Z" fill="white"/>
<path d="M-1 4C-1 1.23858 1.23858 -1 4 -1H32V1H4C2.34315 1 1 2.34315 1 4H-1ZM32 33H4C1.23858 33 -1 30.7614 -1 28H1C1 29.6569 2.34315 31 4 31H32V33ZM4 33C1.23858 33 -1 30.7614 -1 28V4C-1 1.23858 1.23858 -1 4 -1V1C2.34315 1 1 2.34315 1 4V28C1 29.6569 2.34315 31 4 31V33ZM32 0V32V0Z" fill="#E2E8F0" mask="url(#path-1-inside-1_7072_103431)"/>
<rect width="12" height="12" transform="translate(10 10)" fill="white"/>
<path d="M14.125 12.3855L14.3481 12.4106C15.36 12.5243 16.125 13.3798 16.125 14.3979V14.4377H15.125V14.3979C15.125 13.8889 14.7425 13.4611 14.2366 13.4043L14.125 13.3916V15.7485L14.8311 15.9683C15.6006 16.2076 16.125 16.9199 16.125 17.7258C16.125 18.441 15.7106 19.0915 15.0625 19.3938L14.8552 19.4907C14.6201 19.6004 14.3751 19.6827 14.125 19.7375V20.5H13.125V19.8088C12.9033 19.7929 12.6821 19.7568 12.4648 19.6982L12.3545 19.6685C11.4816 19.4332 10.875 18.6414 10.875 17.7373V17.3525H11.875V17.7373C11.875 18.1893 12.1783 18.5852 12.6147 18.7029L12.7251 18.7327C12.8569 18.7682 12.9907 18.7919 13.125 18.8054V16.4849L12.5847 16.3169C11.7485 16.0568 11.1785 15.283 11.1785 14.4072V14.344C11.1785 13.6579 11.5303 13.0195 12.1104 12.6531L12.1807 12.6086C12.4663 12.4282 12.7914 12.3239 13.125 12.3032V11.5H14.125V12.3855ZM18.625 15.2498C18.3489 15.2498 18.1251 15.4737 18.125 15.7498V16.7986C18.125 16.9638 18.0704 17.1216 17.9739 17.2498C18.0704 17.3779 18.125 17.5357 18.125 17.7009V18.7498C18.125 19.0259 18.3489 19.2497 18.625 19.2498V20.2498C17.7966 20.2497 17.125 19.5782 17.125 18.7498V17.8394L16.8938 17.6951C16.565 17.4894 16.5649 17.0101 16.8938 16.8044L17.125 16.6599V15.7498C17.1251 14.9214 17.7967 14.2498 18.625 14.2498V15.2498ZM19.49 14.2498C20.2263 14.2498 20.8232 14.8467 20.8233 15.583V16.687L21.0134 16.8298C21.2933 17.0398 21.2933 17.4597 21.0134 17.6697L20.8233 17.8123V18.9165C20.8232 19.6528 20.2264 20.2498 19.49 20.2498V19.2498C19.6741 19.2498 19.8232 19.1006 19.8233 18.9165V17.6873C19.8233 17.5283 19.874 17.3758 19.9646 17.2498C19.8741 17.1237 19.8233 16.9712 19.8233 16.8123V15.583C19.8232 15.399 19.674 15.2498 19.49 15.2498V14.2498ZM14.125 18.7036C14.2295 18.6708 14.3322 18.6312 14.4324 18.5845L14.6399 18.4875C14.9358 18.3495 15.125 18.0524 15.125 17.7258C15.125 17.3578 14.8854 17.0326 14.5339 16.9233L14.125 16.7959V18.7036ZM13.125 13.3076C12.98 13.3257 12.8397 13.3751 12.7146 13.4541L12.6445 13.4985C12.3545 13.6818 12.1785 14.0009 12.1785 14.344V14.4072C12.1785 14.8451 12.4635 15.232 12.8816 15.3621L13.125 15.4375V13.3076Z" fill="#334155"/>
</svg>
