<svg width="40" height="48" viewBox="0 0 40 48" fill="none" xmlns="http://www.w3.org/2000/svg">
    <g filter="url(#filter0_d_4050_62469)">
        <path d="M8 10C8 7.79086 9.79086 6 12 6H40V38H12C9.79086 38 8 36.2091 8 34V10Z" fill="white" />
        <path d="M12 6.5H39.5V37.5H12C10.067 37.5 8.5 35.933 8.5 34V10C8.5 8.067 10.067 6.5 12 6.5Z" stroke="#E2E8F0" />
        <rect width="12" height="12" transform="translate(18 16)" fill="white" />
        <path
            d="M22.125 18.3855L22.3481 18.4106C23.36 18.5243 24.125 19.3798 24.125 20.3979V20.4377H23.125V20.3979C23.125 19.8889 22.7425 19.4611 22.2366 19.4043L22.125 19.3916V21.7485L22.8311 21.9683C23.6006 22.2076 24.125 22.9199 24.125 23.7258C24.125 24.441 23.7106 25.0915 23.0625 25.3938L22.8552 25.4907C22.6201 25.6004 22.3751 25.6827 22.125 25.7375V26.5H21.125V25.8088C20.9033 25.7929 20.6821 25.7568 20.4648 25.6982L20.3545 25.6685C19.4816 25.4332 18.875 24.6414 18.875 23.7373V23.3525H19.875V23.7373C19.875 24.1893 20.1783 24.5852 20.6147 24.7029L20.7251 24.7327C20.8569 24.7682 20.9907 24.7919 21.125 24.8054V22.4849L20.5847 22.3169C19.7485 22.0568 19.1785 21.283 19.1785 20.4072V20.344C19.1785 19.6579 19.5303 19.0195 20.1104 18.6531L20.1807 18.6086C20.4663 18.4282 20.7914 18.3239 21.125 18.3032V17.5H22.125V18.3855ZM26.625 21.2498C26.3489 21.2498 26.1251 21.4737 26.125 21.7498V22.7986C26.125 22.9638 26.0704 23.1216 25.9739 23.2498C26.0704 23.3779 26.125 23.5357 26.125 23.7009V24.7498C26.125 25.0259 26.3489 25.2497 26.625 25.2498V26.2498C25.7966 26.2497 25.125 25.5782 25.125 24.7498V23.8394L24.8938 23.6951C24.565 23.4894 24.5649 23.0101 24.8938 22.8044L25.125 22.6599V21.7498C25.1251 20.9214 25.7967 20.2498 26.625 20.2498V21.2498ZM27.49 20.2498C28.2263 20.2498 28.8232 20.8467 28.8233 21.583V22.687L29.0134 22.8298C29.2933 23.0398 29.2933 23.4597 29.0134 23.6697L28.8233 23.8123V24.9165C28.8232 25.6528 28.2264 26.2498 27.49 26.2498V25.2498C27.6741 25.2498 27.8232 25.1006 27.8233 24.9165V23.6873C27.8233 23.5283 27.874 23.3758 27.9646 23.2498C27.8741 23.1237 27.8233 22.9712 27.8233 22.8123V21.583C27.8232 21.399 27.674 21.2498 27.49 21.2498V20.2498ZM22.125 24.7036C22.2295 24.6708 22.3322 24.6312 22.4324 24.5845L22.6399 24.4875C22.9358 24.3495 23.125 24.0524 23.125 23.7258C23.125 23.3578 22.8854 23.0326 22.5339 22.9233L22.125 22.7959V24.7036ZM21.125 19.3076C20.98 19.3257 20.8397 19.3751 20.7146 19.4541L20.6445 19.4985C20.3545 19.6818 20.1785 20.0009 20.1785 20.344V20.4072C20.1785 20.8451 20.4635 21.232 20.8816 21.3621L21.125 21.4375V19.3076Z"
            fill="#334155" />
    </g>
    <defs>
        <filter id="filter0_d_4050_62469" x="0" y="0" width="48" height="48" filterUnits="userSpaceOnUse"
            color-interpolation-filters="sRGB">
            <feFlood flood-opacity="0" result="BackgroundImageFix" />
            <feColorMatrix in="SourceAlpha" type="matrix" values="0 0 0 0 0 0 0 0 0 0 0 0 0 0 0 0 0 0 127 0"
                result="hardAlpha" />
            <feOffset dy="2" />
            <feGaussianBlur stdDeviation="4" />
            <feColorMatrix type="matrix" values="0 0 0 0 0 0 0 0 0 0 0 0 0 0 0 0 0 0 0.08 0" />
            <feBlend mode="normal" in2="BackgroundImageFix" result="effect1_dropShadow_4050_62469" />
            <feBlend mode="normal" in="SourceGraphic" in2="effect1_dropShadow_4050_62469" result="shape" />
        </filter>
    </defs>
</svg>