<svg width="28" height="28" viewBox="0 0 28 28" fill="none" xmlns="http://www.w3.org/2000/svg">
    <path
        d="M21.2 19.8496C21.1998 20.595 20.4827 21.1999 19.5994 21.2002H8.39917C7.51594 21.1998 6.79967 20.5949 6.79956 19.8496V9.5H21.2V19.8496ZM15.5994 15.6025C15.5917 15.6046 14.394 15.9244 13.5603 17.3193C13.6191 17.3347 15.1384 18.8809 15.1384 18.8809C15.5265 19.2574 16.1606 19.2576 16.5486 18.8809L17.1111 18.334C17.4992 17.9569 17.4991 17.344 17.1111 16.9668L15.5994 15.6025ZM14.4187 17.0566C14.5171 16.9638 14.6753 16.9638 14.7683 17.0566L15.9304 18.1641C16.0233 18.2515 16.0234 18.4045 15.9304 18.5029C15.832 18.5956 15.6738 18.5957 15.5808 18.5029L14.4187 17.3955C14.3203 17.3025 14.3204 17.1496 14.4187 17.0566ZM15.9148 11.002C15.3301 10.9802 14.7287 11.1876 14.2751 11.6357C13.8927 12.0183 13.6797 12.5048 13.6414 13.002C13.6195 13.3026 13.6523 13.6035 13.7507 13.8877C13.7508 13.893 13.7555 13.8986 13.7556 13.9092C13.7829 14.0076 13.7889 14.1283 13.6687 14.2539C13.51 14.407 10.788 16.8962 10.7664 16.916C10.3783 17.2496 10.4056 17.8672 10.7664 18.2334C11.1326 18.594 11.7448 18.6155 12.0837 18.2275C12.1158 18.1921 14.5553 15.4992 14.7458 15.3086C14.8442 15.2105 14.9481 15.1941 15.03 15.2051C15.0846 15.2215 15.1287 15.2379 15.1833 15.2598C15.4456 15.3417 15.7301 15.3695 15.9978 15.3477C16.495 15.3039 16.9869 15.0954 17.364 14.7129C17.8121 14.2701 18.025 13.6632 17.9978 13.0674C17.9978 13.0457 17.9983 13.0236 17.9929 13.002H17.0193L16.6316 13.3906L16.0359 13.9863L15.2263 13.7734L15.0076 12.9639L15.9919 11.9795V11.0068C15.9701 11.0068 15.9368 11.002 15.9148 11.002ZM11.2146 17.3428C11.3403 17.2171 11.5313 17.2171 11.657 17.3428C11.7121 17.4031 11.7428 17.4817 11.7429 17.5635C11.7429 17.6454 11.7123 17.7247 11.657 17.7852C11.5313 17.9107 11.3403 17.9107 11.2146 17.7852C11.0889 17.6595 11.089 17.4685 11.2146 17.3428ZM15.2058 16.2852C15.3042 16.1927 15.4625 16.1926 15.5554 16.2852L16.7175 17.3936C16.8213 17.481 16.8218 17.634 16.7234 17.7324C16.625 17.8251 16.4668 17.825 16.3738 17.7324L15.2058 16.625C15.1074 16.532 15.1075 16.3781 15.2058 16.2852ZM9.99976 13.1133L11.3259 14.3799L11.6765 14.041L12.4998 14.8594L13.2048 14.1699L12.3816 13.3574L12.7312 13.0137L11.4099 11.7471L9.99976 13.1133Z"
        fill="currentColor" />
    <path opacity="0.32"
        d="M19.7601 6.80005C20.5551 6.80024 21.1995 7.44468 21.1998 8.23969V9.60023H6.7998V8.23969C6.80002 7.44468 7.44445 6.80024 8.23945 6.80005H19.7601ZM8.1999 7.59985C7.86869 7.59996 7.59971 7.86893 7.59961 8.20014C7.59977 8.53131 7.86873 8.79945 8.1999 8.79955C8.53102 8.79939 8.79915 8.53127 8.79931 8.20014C8.7992 7.86896 8.53105 7.60002 8.1999 7.59985ZM9.99989 7.59985C9.66869 7.59996 9.39971 7.86893 9.3996 8.20014C9.39977 8.5313 9.66873 8.79945 9.99989 8.79955C10.331 8.79937 10.5991 8.53125 10.5993 8.20014C10.5992 7.86897 10.331 7.60003 9.99989 7.59985ZM11.799 7.59985C11.468 7.60015 11.1997 7.86904 11.1996 8.20014C11.1998 8.53118 11.468 8.79926 11.799 8.79955C12.1303 8.79955 12.3991 8.53137 12.3993 8.20014C12.3992 7.86886 12.1303 7.59985 11.799 7.59985Z"
        fill="currentColor" />
</svg>