<svg width="28" height="28" viewBox="0 0 28 28" fill="none" xmlns="http://www.w3.org/2000/svg">
    <path opacity="0.32"
        d="M19.7601 6.80005C20.5551 6.80024 21.1995 7.44468 21.1998 8.23969V9.60023H6.7998V8.23969C6.80002 7.44468 7.44445 6.80024 8.23945 6.80005H19.7601ZM8.1999 7.59985C7.86869 7.59996 7.59971 7.86893 7.59961 8.20014C7.59977 8.53131 7.86873 8.79945 8.1999 8.79955C8.53102 8.79939 8.79915 8.53127 8.79931 8.20014C8.7992 7.86896 8.53105 7.60002 8.1999 7.59985ZM9.99989 7.59985C9.66869 7.59996 9.39971 7.86893 9.3996 8.20014C9.39977 8.5313 9.66873 8.79945 9.99989 8.79955C10.331 8.79937 10.5991 8.53125 10.5993 8.20014C10.5992 7.86897 10.331 7.60003 9.99989 7.59985ZM11.799 7.59985C11.468 7.60015 11.1997 7.86904 11.1996 8.20014C11.1998 8.53118 11.468 8.79926 11.799 8.79955C12.1303 8.79955 12.3991 8.53137 12.3993 8.20014C12.3992 7.86886 12.1303 7.59985 11.799 7.59985Z"
        fill="currentColor" />
    <path
        d="M13.4998 12.3C14.7148 12.3 15.6998 13.285 15.6998 14.5C15.6998 15.715 14.7148 16.7 13.4998 16.7C12.2848 16.7 11.2998 15.715 11.2998 14.5C11.2998 13.285 12.2848 12.3 13.4998 12.3Z"
        fill="currentColor" />
    <path fill-rule="evenodd" clip-rule="evenodd"
        d="M21.1998 19.85C21.1997 20.5954 20.4831 21.1997 19.5998 21.2H8.39902C7.51579 21.1996 6.79991 20.5953 6.7998 19.85V9.5H21.1998V19.85ZM13.3193 11.0047C11.53 11.0956 10.0954 12.5302 10.0045 14.3195L9.9998 14.5C9.9998 16.3725 11.4702 17.9014 13.3193 17.9953L13.4998 18C14.2315 18 14.91 17.7745 15.4717 17.3906L16.9646 18.8836L17.8834 17.9641L16.3904 16.4719C16.7743 15.9102 16.9998 15.2317 16.9998 14.5C16.9998 12.567 15.4328 11 13.4998 11L13.3193 11.0047Z"
        fill="currentColor" />
</svg>