<svg width="14" height="14" viewBox="0 0 14 14" fill="none" xmlns="http://www.w3.org/2000/svg">
    <g clip-path="url(#clip0_7077_11803)">
        <path
            d="M11.083 1.45831C11.7273 1.45831 12.25 1.98097 12.25 2.62531V7.00031H11.083V2.62531H2.91699V11.6663H8.45801V12.8333H2.91699L2.79785 12.8275C2.20932 12.7679 1.75 12.2705 1.75 11.6663V2.62531C1.75 2.02108 2.20932 1.5237 2.79785 1.46417L2.91699 1.45831H11.083ZM13.1162 10.2581L12.292 11.0833L11.2256 10.1087V12.8333H10.0586V10.1077L8.99121 11.0833L8.16699 10.2581L10.6416 7.87531L13.1162 10.2581ZM8.16602 9.62433H4.95801V8.45831H8.16602V9.62433ZM9.23242 4.41144L7.44434 7.03644L6.95215 7.76007L6.47363 7.02667L4.76172 4.40167L5.73828 3.76495L6.97266 5.65656L8.26758 3.75519L9.23242 4.41144Z"
            fill="currentColor" />
    </g>
    <defs>
        <clipPath id="clip0_7077_11803">
            <rect width="14" height="14" fill="white" />
        </clipPath>
    </defs>
</svg>