<svg width="28" height="28" viewBox="0 0 28 28" fill="none" xmlns="http://www.w3.org/2000/svg">
    <path
        d="M0 4C0 1.79086 1.79086 0 4 0H24C26.2091 0 28 1.79086 28 4V24C28 26.2091 26.2091 28 24 28H4C1.79086 28 0 26.2091 0 24V4Z"
        fill="transparent" />
    <path opacity="0.32"
        d="M19.2256 14.6C19.9233 14.7442 20.5561 15.1172 21.0272 15.6617L20.9975 15.6836C20.7403 15.8944 20.6769 16.268 20.8498 16.5547C21.0228 16.8414 21.3783 16.9518 21.6788 16.8125C21.791 17.1544 21.8479 17.5128 21.8475 17.8734C21.8479 18.2344 21.791 18.5936 21.6788 18.9359C21.3726 18.7961 21.0123 18.9147 20.8444 19.2109C20.6765 19.5071 20.755 19.8849 21.0264 20.0859C20.5553 20.6302 19.9231 21.0033 19.2256 21.1476C19.1921 20.8064 18.9102 20.5462 18.5741 20.5461C18.2378 20.5461 17.9561 20.8063 17.9225 21.1476C17.2247 21.0033 16.592 20.6298 16.1209 20.0851C16.3955 19.8855 16.4763 19.5056 16.3077 19.2078C16.1389 18.9099 15.7753 18.7919 15.4686 18.9351C15.3563 18.593 15.2994 18.2342 15.2998 17.8734C15.2999 17.5022 15.359 17.1456 15.4686 16.8117C15.7746 16.9514 16.135 16.8326 16.303 16.5367C16.4709 16.2405 16.3923 15.8627 16.1209 15.6617C16.5921 15.1173 17.2248 14.7443 17.9225 14.6C17.956 14.9412 18.2372 15.2013 18.5733 15.2015C18.9096 15.2016 19.192 14.9413 19.2256 14.6ZM14.328 18.6C14.4092 19.3345 14.6671 20.0155 15.0584 20.6H10.7655C10.4092 20.5999 10.2308 20.1691 10.4827 19.9172L11.7998 18.6H14.328ZM18.5741 16.8711C18.0316 16.8711 17.592 17.3201 17.592 17.8734C17.5921 18.4267 18.0317 18.875 18.5741 18.875C19.1164 18.8749 19.556 18.4267 19.5561 17.8734C19.5561 17.3201 19.1164 16.8711 18.5741 16.8711Z"
        fill="currentColor" />
    <path
        d="M14.5576 16.5996C14.3917 17.0689 14.2998 17.5735 14.2998 18.0996C14.2998 18.2685 14.31 18.4355 14.3281 18.5996H8.0498C7.35961 18.5994 6.7998 18.0399 6.7998 17.3496V8.59961C6.80002 8.04762 7.24781 7.59979 7.7998 7.59961H19.7998C20.352 7.59961 20.7996 8.0475 20.7998 8.59961V14.0684C20.1973 13.769 19.5182 13.5996 18.7998 13.5996C18.6739 13.5996 18.5491 13.6051 18.4258 13.6152L18.5303 13.498V12.7012L16.46 10.374L15.5635 11.1729L17.2793 13.0996L15.8516 14.7012C15.2703 15.2064 14.8197 15.8586 14.5576 16.5996ZM9.35156 12.7012V13.498L11.4229 15.8252L12.3193 15.0264L10.6035 13.0996L12.3193 11.1729L11.4229 10.374L9.35156 12.7012ZM12.8379 15.2949L14.0098 15.5566L15.0449 10.9043L13.873 10.6426L12.8379 15.2949Z"
        fill="currentColor" />
</svg>