<?xml version="1.0" encoding="UTF-8"?>
<svg width="16px" height="16px" viewBox="0 0 16 16" version="1.1" xmlns="http://www.w3.org/2000/svg"
    xmlns:xlink="http://www.w3.org/1999/xlink">
    <defs>
        <linearGradient x1="50%" y1="0%" x2="73.9362395%" y2="83.627366%" id="linearGradient-1">
            <stop stop-color="#2162FF" offset="0%"></stop>
            <stop stop-color="#12C6FB" offset="100%"></stop>
        </linearGradient>
    </defs>
    <g id="4.数据展示/图标/自动生成" stroke="none" stroke-width="1" fill="none" fill-rule="evenodd">
        <rect id="矩形" x="0" y="0" width="16" height="16"></rect>
        <path
            d="M13.010959,11.2986468 C13.0910652,11.3337351 13.1550255,11.3976954 13.1901138,11.4778016 L13.474262,12.1265086 C13.5056852,12.1982474 13.5603865,12.2572905 13.6295211,12.2940909 L14.1367677,12.5640994 C14.3064412,12.6544169 14.3707718,12.8651813 14.2804543,13.0348547 C14.2479186,13.0959773 14.1978903,13.1460056 14.1367677,13.1785413 L13.6295211,13.4485498 C13.5603865,13.4853502 13.5056852,13.5443933 13.474262,13.616132 L13.1901138,14.2648391 C13.1129935,14.4409039 12.9077464,14.5211142 12.7316817,14.4439939 C12.6515755,14.4089056 12.5876152,14.3449453 12.5525269,14.2648391 L12.2683787,13.616132 C12.2369555,13.5443933 12.1822541,13.4853502 12.1131196,13.4485498 L11.605873,13.1785413 C11.4361995,13.0882238 11.3718688,12.8774594 11.4621864,12.707786 C11.4947221,12.6466634 11.5447504,12.5966351 11.605873,12.5640994 L12.1131196,12.2940909 C12.1822541,12.2572905 12.2369555,12.1982474 12.2683787,12.1265086 L12.5525269,11.4778016 C12.6296472,11.3017368 12.8348943,11.2215265 13.010959,11.2986468 Z M8.27967276,2.1645023 C8.46078634,2.24383411 8.60539533,2.3884431 8.68472715,2.56955668 L10.0257967,5.63120236 C10.0968419,5.79339778 10.2205172,5.92688948 10.3768248,6.01009234 L12.8010685,7.30052236 C13.1846865,7.50472299 13.3301329,7.98124409 13.1259323,8.36486202 C13.0523717,8.50305524 12.9392617,8.61616524 12.8010685,8.68972578 L10.3768248,9.9801558 C10.2205172,10.0633587 10.0968419,10.1968504 10.0257967,10.3590458 L8.68472715,13.4206915 C8.51036437,13.8187596 8.04631743,14.0001086 7.6482493,13.8257458 C7.46713572,13.746414 7.32252673,13.601805 7.24319492,13.4206915 L5.90212539,10.3590458 C5.83108016,10.1968504 5.70740483,10.0633587 5.55109723,9.9801558 L3.12685353,8.68972578 C2.7432356,8.48552515 2.59778914,8.00900405 2.80198977,7.62538612 C2.87555031,7.4871929 2.98866031,7.3740829 3.12685353,7.30052236 L5.55109723,6.01009234 C5.70740483,5.92688948 5.83108016,5.79339778 5.90212539,5.63120236 L7.24319492,2.56955668 C7.41755769,2.17148854 7.88160463,1.99013952 8.27967276,2.1645023 Z M3.26095902,1.54864683 C3.3410652,1.58373514 3.40502547,1.64769541 3.44011377,1.72780159 L3.72426202,2.37650864 C3.75568519,2.44824736 3.81038654,2.50729047 3.87952109,2.54409093 L4.38676771,2.81409938 C4.55644117,2.90441691 4.62077185,3.11518126 4.53045431,3.28485471 C4.49791863,3.3459773 4.4478903,3.39600563 4.38676771,3.42854131 L3.87952109,3.69854976 C3.81038654,3.73535022 3.75568519,3.79439333 3.72426202,3.86613204 L3.44011377,4.5148391 C3.36299346,4.69090385 3.15774642,4.77111417 2.98168167,4.69399385 C2.90157549,4.65890555 2.83761522,4.59494528 2.80252692,4.5148391 L2.51837866,3.86613204 C2.4869555,3.79439333 2.43225414,3.73535022 2.3631196,3.69854976 L1.85587297,3.42854131 C1.68619952,3.33822377 1.62186884,3.12745943 1.71218637,2.95778598 C1.74472206,2.89666339 1.79475038,2.84663506 1.85587297,2.81409938 L2.3631196,2.54409093 C2.43225414,2.50729047 2.4869555,2.44824736 2.51837866,2.37650864 L2.80252692,1.72780159 C2.87964723,1.55173684 3.08489427,1.47152652 3.26095902,1.54864683 Z"
            id="形状结合" fill="url(#linearGradient-1)"></path>
    </g>
</svg>