<?xml version="1.0" encoding="UTF-8"?>
<svg width="28px" height="27px" viewBox="0 0 28 27" version="1.1" xmlns="http://www.w3.org/2000/svg" xmlns:xlink="http://www.w3.org/1999/xlink">
    <title>形状</title>
    <g id="Appforge-MVP-工作流-0425" stroke="none" stroke-width="1" fill="none" fill-rule="evenodd">
        <g id="工作流顶栏&amp;工具栏" transform="translate(-209.000000, -3082.000000)" fill="#CBD5E1">
            <g id="编组-16备份" transform="translate(40.000000, 2850.000000)">
                <g id="编组-4备份-6" transform="translate(20.000000, 128.000000)">
                    <g id="编组" transform="translate(127.000000, 104.000000)">
                        <path d="M35.602,1.125 L35.602,3.375 C35.602,3.99632 36.1057,4.5 36.727,4.5 C37.3483,4.5 37.852,3.99632 37.852,3.375 L37.852,1.125 C37.852,0.50368 37.3483,0 36.727,0 C36.1057,0 35.602,0.50368 35.602,1.125 Z M32.60216,4.31251 C32.06408,4.62317 31.37604,4.43881 31.06538,3.90073 L29.94038,1.95218 C29.62972,1.4141 29.81408,0.726058 30.35216,0.415398 C30.89024,0.104738 31.57828,0.289097 31.88894,0.827176 L33.0139,2.77573 C33.3246,3.31381 33.1402,4.00185 32.60216,4.31251 Z M40.8518,4.31251 C41.3899,4.62317 42.078,4.43881 42.3886,3.90073 L43.5136,1.95218 C43.8243,1.4141 43.6399,0.726058 43.1018,0.415398 C42.5638,0.104738 41.8757,0.289097 41.5651,0.827176 L40.4401,2.77573 C40.1294,3.31381 40.3138,4.00185 40.8518,4.31251 Z M22.852,16.5 L22.852,24.75 C22.852,25.915 23.737374,26.8732 24.87195,26.9884 C24.94759,26.9961 25.02434,27 25.102,27 L47.602,27 C48.8446,27 49.852,25.9926 49.852,24.75 L49.852,16.5 L44.4998,7.13369 C44.0992,6.43264 43.3537,6 42.5463,6 L30.15773,6 C29.3503,6 28.60478,6.43264 28.20418,7.13369 L22.852,16.5 Z M40.102,15 L46.4034,15 L42.5463,8.25 L30.15773,8.25 L26.30058,15 L33.352,15 L33.352,18 C33.352,18.4142 33.6878,18.75 34.102,18.75 L39.352,18.75 C39.7662,18.75 40.102,18.4142 40.102,18 L40.102,15 Z M25.102,24.75 L25.102,17.25 L31.102,17.25 L31.102,18 C31.102,18.8284 31.3948467,19.5355 31.98054,20.1213 C32.5663133,20.7071 33.2734667,21 34.102,21 L39.352,21 C40.1804,21 40.8875667,20.7071 41.4735,20.1213 C42.0592333,19.5355 42.3520667,18.8284 42.352,18 L42.352,17.25 L47.602,17.25 L47.602,24.75 L25.102,24.75 Z" id="形状"></path>
                    </g>
                </g>
            </g>
        </g>
    </g>
</svg>