<?xml version="1.0" encoding="UTF-8"?>
<svg width="28px" height="28px" viewBox="0 0 28 28" version="1.1" xmlns="http://www.w3.org/2000/svg"
    xmlns:xlink="http://www.w3.org/1999/xlink">
    <g id="4.数据展示/图标/知识库icon" stroke="none" stroke-width="1" fill="none" fill-rule="evenodd">
        <rect id="矩形" fill="#E6E8FF" x="0" y="0" width="28" height="28" rx="6"></rect>
        <g id="编组-23" transform="translate(6.000000, 6.000000)">
            <rect id="矩形" x="0" y="0" width="16" height="16"></rect>
            <g id="编组-25" transform="translate(2.000000, 2.000000)">
                <path
                    d="M2.31224399,4.08473568 L10.4703543,4.08473568 C11.3151543,4.08473568 12,4.76958138 12,5.61438137 L12,10.4703543 C12,11.3151543 11.3151543,12 10.4703543,12 L2.31224399,12 C1.46744401,12 0.782598307,11.3151543 0.782598307,10.4703543 L0.782598307,5.61438137 C0.782598307,4.76958138 1.46744401,4.08473568 2.31224399,4.08473568 Z"
                    id="矩形备份-7" fill="#A985FF"></path>
                <path
                    d="M2.03952758,0 L8.15811032,0 C9.2845103,2.3717289e-16 10.1976379,0.913127601 10.1976379,2.03952758 L10.1976379,12 L10.1976379,12 L2.03952758,12 C0.913127601,12 1.37944213e-16,11.0868724 0,9.96047242 L0,2.03952758 C-1.37944213e-16,0.913127601 0.913127601,2.06916319e-16 2.03952758,0 Z"
                    id="矩形备份-8" fill="#7733FF"></path>
                <rect id="矩形" fill="#FFFFFF" x="1.93801371" y="3.58473568" width="5.6105807" height="1" rx="0.5"></rect>
                <rect id="矩形备份-9" fill="#FFFFFF" x="1.93801371" y="6.39071115" width="4.3193147" height="1" rx="0.5">
                </rect>
            </g>
        </g>
    </g>
</svg>