<?xml version="1.0" encoding="UTF-8"?>
<svg width="16px" height="16px" viewBox="0 0 16 16" version="1.1" xmlns="http://www.w3.org/2000/svg"
    xmlns:xlink="http://www.w3.org/1999/xlink">
    <g id="4.数据展示/图标/变量" stroke="none" stroke-width="1" fill="none" fill-rule="evenodd">
        <path
            d="M9.32642211,5.84126 C9.73902494,5.36076667 10.3422199,5.08333333 10.9781761,5.08333333 L11.0383277,5.08333333 C11.4091064,5.08333333 11.7096633,5.38181333 11.7096633,5.75 C11.7096633,6.11818667 11.4091064,6.41666667 11.0383277,6.41666667 L10.9781761,6.41666667 C10.7367638,6.41666667 10.5064957,6.52192667 10.3481277,6.70633333 L8.77713538,8.53593333 L9.27452788,10.2738 C9.28520211,10.3110667 9.31789615,10.3333333 9.3511944,10.3333333 L10.2871033,10.3333333 C10.6578819,10.3333333 10.9584388,10.6318 10.9584388,11 C10.9584388,11.3682 10.6578819,11.6666667 10.2871033,11.6666667 L9.3511944,11.6666667 C8.71362704,11.6666667 8.15668707,11.2449333 7.98301257,10.6383333 L7.73025474,9.7552 L6.73983342,10.9087333 C6.3272306,11.3892667 5.72401548,11.6666667 5.08809289,11.6666667 L5.02788752,11.6666667 C4.65712233,11.6666667 4.35655199,11.3682 4.35655199,11 C4.35655199,10.6318 4.65712233,10.3333333 5.02788752,10.3333333 L5.08809289,10.3333333 C5.32947159,10.3333333 5.5597531,10.2280667 5.71812116,10.0436667 L7.28918729,8.21393333 L6.79179479,6.47622 C6.78112056,6.43892667 6.74849365,6.41666667 6.71512828,6.41666667 L5.77924626,6.41666667 C5.40848107,6.41666667 5.10791072,6.11818667 5.10791072,5.75 C5.10791072,5.38181333 5.40848107,5.08333333 5.77924626,5.08333333 L6.71512828,5.08333333 C7.35269564,5.08333333 7.90970273,5.50504 8.0833101,6.11169333 L8.33606793,6.99473333 L9.32642211,5.84126 Z M3.57334509,2 C2.35468312,2 1.36733652,2.98047333 1.36733652,4.19066667 L1.36733652,6.96186667 L0.796627466,7.5286 C0.670731912,7.6536 0.6,7.8232 0.6,8 C0.6,8.1768 0.670731912,8.3464 0.796627466,8.4714 L1.36733652,9.03813333 L1.36733652,11.8093333 C1.36733652,13.0195333 2.35468312,14 3.57334509,14 C3.94411029,14 4.24468063,13.7015333 4.24468063,13.3333333 C4.24468063,12.9651333 3.94411029,12.6666667 3.57334509,12.6666667 C3.0962135,12.6666667 2.71000759,12.2831333 2.71000759,11.8093333 L2.71000759,8.762 C2.71000759,8.5852 2.63927568,8.4156 2.51338013,8.2906 L2.22074497,8 L2.51338013,7.7094 C2.63927568,7.5844 2.71000759,7.4148 2.71000759,7.238 L2.71000759,4.19066667 C2.71000759,3.71685333 3.0962135,3.33333333 3.57334509,3.33333333 C3.94411029,3.33333333 4.24468063,3.03485333 4.24468063,2.66666667 C4.24468063,2.29848 3.94411029,2 3.57334509,2 Z M12.3959025,2 C12.0251238,2 11.7245669,2.29848 11.7245669,2.66666667 C11.7245669,3.03485333 12.0251238,3.33333333 12.3959025,3.33333333 C12.8730206,3.33333333 13.25924,3.71686 13.25924,4.19066667 L13.25924,7.238 C13.25924,7.4148 13.3299987,7.5844 13.4558741,7.7094 L13.7485093,8 L13.4558741,8.2906 C13.3299987,8.4156 13.25924,8.5852 13.25924,8.762 L13.25924,11.8093333 C13.25924,12.2829333 12.8725507,12.6666667 12.3959025,12.6666667 C12.0251238,12.6666667 11.7245669,12.9651333 11.7245669,13.3333333 C11.7245669,13.7015333 12.0251238,14 12.3959025,14 C13.6137051,14 14.601911,13.0197333 14.601911,11.8093333 L14.601911,9.03813333 L15.1726134,8.4714 C15.4347699,8.21106667 15.4347699,7.78893333 15.1726134,7.5286 L14.601911,6.96186667 L14.601911,4.19066667 C14.601911,2.98047333 13.6145779,2 12.3959025,2 Z"
            id="形状结合" fill="#334155" fill-rule="nonzero"></path>
    </g>
</svg>