<?xml version="1.0" encoding="UTF-8"?>
<svg width="16px" height="16px" viewBox="0 0 16 16" version="1.1" xmlns="http://www.w3.org/2000/svg" xmlns:xlink="http://www.w3.org/1999/xlink">
    <title>4.数据展示/图标/定位</title>
    <g id="4.数据展示/图标/定位" stroke="none" stroke-width="1" fill="none" fill-rule="evenodd">
        <g id="编组" transform="translate(1.000000, 1.000000)" fill="#334155" fill-rule="nonzero">
            <path d="M7,8.75 C7.966525,8.75 8.75,7.966525 8.75,7 C8.75,6.033475 7.966525,5.25 7,5.25 C6.033475,5.25 5.25,6.033475 5.25,7 C5.25,7.966525 6.033475,8.75 7,8.75 Z" id="路径"></path>
            <path d="M6.41666667,0.583333333 C6.41666667,0.261167667 6.677825,0 7,0 C7.322175,0 7.58333333,0.261167083 7.58333333,0.583333333 L7.58333333,1.19547167 C10.3392333,1.46909 12.5309333,3.660755 12.8045167,6.41666667 L13.4166667,6.41666667 C13.7388417,6.41666667 14,6.677825 14,7 C14,7.322175 13.7388417,7.58333333 13.4166667,7.58333333 L12.8045167,7.58333333 C12.5309333,10.3392333 10.3392333,12.5309333 7.58333333,12.8045167 L7.58333333,13.4166667 C7.58333333,13.7388417 7.322175,14 7,14 C6.677825,14 6.41666667,13.7388417 6.41666667,13.4166667 L6.41666667,12.8045167 C3.660755,12.5309333 1.46909,10.3392333 1.19547167,7.58333333 L0.583333333,7.58333333 C0.261167667,7.58333333 0,7.322175 0,7 C0,6.677825 0.261167083,6.41666667 0.583333333,6.41666667 L1.19547167,6.41666667 C1.46909,3.660755 3.660755,1.46909 6.41666667,1.19547167 L6.41666667,0.583333333 Z M7,11.6666667 C9.57734167,11.6666667 11.6666667,9.57734167 11.6666667,7 C11.6666667,4.42267 9.57734167,2.33333333 7,2.33333333 C4.42267,2.33333333 2.33333333,4.42267 2.33333333,7 C2.33333333,9.57734167 4.42267,11.6666667 7,11.6666667 Z" id="形状"></path>
        </g>
    </g>
</svg>