<?xml version="1.0" encoding="UTF-8"?>
<svg width="16px" height="16px" viewBox="0 0 16 16" version="1.1" xmlns="http://www.w3.org/2000/svg" xmlns:xlink="http://www.w3.org/1999/xlink">
    <title>4.数据展示/图标/异常2</title>
    <g id="4.数据展示/图标/异常2" stroke="none" stroke-width="1" fill="none" fill-rule="evenodd">
        <rect id="矩形" x="0" y="0" width="16" height="16"></rect>
        <path d="M8,2 C11.3137085,2 14,4.6862915 14,8 C14,11.3137085 11.3137085,14 8,14 C4.6862915,14 2,11.3137085 2,8 C2,4.6862915 4.6862915,2 8,2 Z" id="路径" fill="#FFEDD5" fill-rule="nonzero"></path>
        <path d="M8,4.25 C8.37969577,4.25 8.69349096,4.53215388 8.74315338,4.89822944 L8.75,5 L8.75,8 C8.75,8.41421356 8.41421356,8.75 8,8.75 C7.62030423,8.75 7.30650904,8.46784612 7.25684662,8.10177056 L7.25,8 L7.25,5 C7.25,4.58578644 7.58578644,4.25 8,4.25 Z M8,10 C7.58578644,10 7.25,10.3357864 7.25,10.75 C7.25,11.1642136 7.58578644,11.5 8,11.5 C8.41421356,11.5 8.75,11.1642136 8.75,10.75 C8.75,10.3357864 8.41421356,10 8,10 Z" id="形状结合" fill="#FB923C" fill-rule="nonzero"></path>
    </g>
</svg>