<svg width="20" height="20" viewBox="0 0 20 20" fill="none" xmlns="http://www.w3.org/2000/svg">
<path d="M0 4C0 1.79086 1.79086 0 4 0H16C18.2091 0 20 1.79086 20 4V16C20 18.2091 18.2091 20 16 20H4C1.79086 20 0 18.2091 0 16V4Z" fill="#733FF5"/>
<path d="M14.4769 7.43248C14.4511 7.40624 14.3983 7.35238 14.3712 7.35238L8.6583 4.13444C8.60543 4.08058 8.55256 4.05434 8.50104 4.08058H8.47528C8.42241 4.08058 8.36954 4.13444 8.34378 4.16068C8.29091 4.21455 8.26515 4.26841 8.26515 4.34851C8.26515 6.35937 8.26515 8.4241 8.29091 10.4336C7.92352 10.3535 7.52766 10.3797 7.10604 10.4874C6.58003 10.6476 6.15977 10.8907 5.86966 11.265C5.8439 11.2912 5.8439 11.3189 5.8439 11.3189C5.52802 11.7221 5.42228 12.1503 5.55514 12.5784C5.66088 12.9817 5.951 13.3021 6.44989 13.5162C6.89726 13.6764 7.3704 13.6764 7.92352 13.5162C8.44952 13.3822 8.86979 13.1129 9.1599 12.7662C9.18782 12.7394 9.30264 12.6046 9.30264 12.5784C9.43414 12.4182 9.49393 12.0903 9.50924 12.0492C9.51914 12.0227 9.52729 11.9953 9.52729 11.9638V11.8022V6.27307L13.2378 8.36404L13.2636 13.2496C12.8948 13.1695 12.5003 13.1958 12.1058 13.3035C11.5527 13.4637 11.1595 13.7068 10.8423 14.1073C10.4993 14.5105 10.3949 14.9387 10.5264 15.3668C10.6322 15.7963 10.9223 16.1168 11.4212 16.306C11.8686 16.4662 12.3688 16.4938 12.8948 16.3598C13.4208 16.1996 13.8411 15.9565 14.1312 15.5823C14.157 15.556 14.157 15.5284 14.157 15.5284C14.3928 15.2342 14.4986 14.9387 14.4986 14.6169V7.56782C14.5027 7.51396 14.4769 7.48772 14.4769 7.43248Z" fill="white"/>
</svg>
