<svg width="29" height="29" viewBox="0 0 29 29" fill="none" xmlns="http://www.w3.org/2000/svg">
<g clip-path="url(#clip0_2775_101756)">
<path opacity="0.32" d="M19.2621 14.8486C19.8874 14.9779 20.4545 15.312 20.8767 15.7998L20.8502 15.8196C20.6199 16.0086 20.5636 16.3426 20.7185 16.5994C20.8736 16.8561 21.1915 16.9557 21.4608 16.8311C21.5613 17.1374 21.6126 17.4584 21.6123 17.7815C21.6126 18.1049 21.5614 18.4266 21.4608 18.7333C21.1864 18.6081 20.864 18.7145 20.7134 18.9797C20.5629 19.2451 20.6334 19.5838 20.8767 19.7639C20.4545 20.2515 19.8872 20.5849 19.2621 20.7143C19.2319 20.4087 18.9792 20.176 18.678 20.1758C18.3767 20.1758 18.1242 20.4086 18.094 20.7143C17.4685 20.5849 16.9016 20.251 16.4793 19.7631C16.7253 19.5843 16.7975 19.2436 16.6463 18.9768C16.495 18.71 16.1693 18.6044 15.8945 18.7326C15.7939 18.4261 15.7426 18.1047 15.743 17.7815C15.743 17.4487 15.7962 17.1288 15.8945 16.8296C16.1689 16.9547 16.4921 16.8485 16.6426 16.5832C16.793 16.3179 16.7225 15.9791 16.4793 15.799C16.9016 15.3114 17.4687 14.9779 18.094 14.8486C18.1241 15.1543 18.3767 15.387 18.678 15.3871C18.9792 15.3869 19.2319 15.1543 19.2621 14.8486ZM18.678 16.8833C18.1918 16.8833 17.7975 17.2857 17.7975 17.7815C17.7976 18.2771 18.1919 18.6789 18.678 18.6789C19.1639 18.6786 19.5576 18.2769 19.5578 17.7815C19.5578 17.2859 19.1639 16.8836 18.678 16.8833ZM14.121 7.3125C18.0522 7.3125 20.47 8.11784 20.8436 9.32582C20.0966 10.5338 18.0523 11.3391 14.121 11.3391C10.1898 11.3391 7.77192 10.5338 7.39844 9.32582C7.77197 8.11783 10.1899 7.31251 14.121 7.3125Z" fill="currentColor"/>
<path d="M7.39844 16.5507C7.8309 17.8261 10.4804 18.5463 14.0555 18.5463C14.3572 18.5463 14.6497 18.5389 14.9331 18.5287C15.1306 19.664 15.7693 20.6312 16.6507 21.2151C15.9035 21.3283 15.0595 21.3982 14.121 21.3982C9.7233 21.3982 7.39844 20.0535 7.39844 19.5401V16.5507ZM7.42933 12.9191C7.86189 14.1944 10.5114 14.9147 14.0864 14.9147C14.7965 14.9147 15.456 14.8846 16.0637 14.8294C15.3347 15.5585 14.8762 16.5973 14.8684 17.7519C14.636 17.7609 14.3972 17.7666 14.1519 17.7666C9.75429 17.7666 7.42944 16.4219 7.42933 15.9085V12.9191ZM20.8745 14.6587C20.5111 14.378 20.096 14.1198 19.6446 13.9526C20.2181 13.6608 20.6309 13.313 20.8745 12.9191V14.6587ZM20.8436 12.1496C20.8436 12.663 18.5187 14.1732 14.121 14.1732C9.72333 14.1732 7.39844 12.8285 7.39844 12.3151V9.32568C7.83083 10.6012 10.4803 11.3213 14.0555 11.3213C17.7646 11.3213 20.0966 10.5337 20.8436 9.32568V12.1496Z" fill="currentColor"/>
</g>
<defs>
<clipPath id="clip0_2775_101756">
<rect width="16.5714" height="16.5714" fill="white" transform="translate(6.21436 6.21436)"/>
</clipPath>
</defs>
</svg>
