<svg width="29" height="29" viewBox="0 0 29 29" fill="currentColor" xmlns="http://www.w3.org/2000/svg">
<path fill-rule="evenodd" clip-rule="evenodd" d="M18.1929 8.14276C18.5119 8.14276 18.7705 8.40723 18.7705 8.73347V10.5056C18.7705 10.8318 18.5119 11.0963 18.1929 11.0963H7.79611C7.47711 11.0963 7.21851 10.8318 7.21851 10.5056V8.73347C7.21851 8.40723 7.47711 8.14276 7.79611 8.14276H18.1929ZM8.66252 10.1118C8.69412 10.1118 8.72542 10.1087 8.75641 10.1023C8.78741 10.096 8.81751 10.0867 8.84671 10.0743C8.87591 10.062 8.90365 10.0468 8.92993 10.0288C8.95621 10.0109 8.98052 9.99048 9.00287 9.96763C9.02521 9.94477 9.04517 9.91991 9.06273 9.89303C9.08029 9.86616 9.09511 9.83779 9.10721 9.80793C9.1193 9.77807 9.12843 9.74728 9.1346 9.71558C9.14076 9.68388 9.14385 9.65187 9.14385 9.61955C9.14385 9.58723 9.14076 9.55521 9.1346 9.52351C9.12843 9.49181 9.1193 9.46103 9.10721 9.43117C9.09511 9.40131 9.08029 9.37294 9.06273 9.34606C9.04517 9.31919 9.02521 9.29432 9.00287 9.27147C8.98052 9.24861 8.95621 9.22821 8.92993 9.21025C8.90365 9.19229 8.87591 9.17713 8.84671 9.16476C8.81751 9.15239 8.78741 9.14305 8.75641 9.13675C8.72542 9.13044 8.69412 9.12729 8.66252 9.12729C8.63091 9.12729 8.59961 9.13044 8.56861 9.13675C8.53761 9.14305 8.50751 9.15239 8.47831 9.16476C8.44911 9.17713 8.42138 9.19229 8.3951 9.21025C8.36882 9.22821 8.34451 9.24861 8.32216 9.27147C8.29981 9.29432 8.27986 9.31919 8.2623 9.34606C8.24474 9.37294 8.22992 9.40131 8.21782 9.43117C8.20573 9.46103 8.1966 9.49181 8.19043 9.52351C8.18426 9.55521 8.18118 9.58723 8.18118 9.61955C8.18118 9.65187 8.18426 9.68388 8.19043 9.71558C8.1966 9.74728 8.20573 9.77807 8.21782 9.80793C8.22992 9.83779 8.24474 9.86616 8.2623 9.89303C8.27986 9.91991 8.29981 9.94477 8.32216 9.96763C8.34451 9.99048 8.36882 10.0109 8.3951 10.0288C8.42138 10.0468 8.44911 10.062 8.47831 10.0743C8.50751 10.0867 8.53761 10.096 8.56861 10.1023C8.59961 10.1087 8.63091 10.1118 8.66252 10.1118ZM18.1929 12.0808C18.5119 12.0808 18.7705 12.3453 18.7705 12.6715V14.4437C18.7705 14.4774 18.7678 14.5104 18.7625 14.5425C18.1404 14.1891 17.4095 14.0087 16.6455 14.0578L16.4512 14.0753C15.6385 14.1691 14.9065 14.5167 14.3398 15.0348L7.79611 15.0344C7.47711 15.0344 7.21851 14.7699 7.21851 14.4437V12.6715C7.21851 12.3453 7.47711 12.0808 7.79611 12.0808H18.1929ZM8.66252 14.0499C8.69412 14.0499 8.72542 14.0467 8.75641 14.0404C8.78741 14.0341 8.81751 14.0248 8.84671 14.0124C8.87591 14 8.90365 13.9849 8.92993 13.9669C8.95621 13.949 8.98052 13.9286 9.00287 13.9057C9.02521 13.8828 9.04517 13.858 9.06273 13.8311C9.08029 13.8042 9.09511 13.7759 9.10721 13.746C9.1193 13.7161 9.12843 13.6854 9.1346 13.6537C9.14076 13.622 9.14385 13.5899 9.14385 13.5576C9.14385 13.5253 9.14076 13.4933 9.1346 13.4616C9.12843 13.4299 9.1193 13.3991 9.10721 13.3692C9.09511 13.3394 9.08029 13.311 9.06273 13.2841C9.04517 13.2573 9.02521 13.2324 9.00287 13.2095C8.98052 13.1867 8.95621 13.1663 8.92993 13.1483C8.90365 13.1304 8.87591 13.1152 8.84671 13.1028C8.81751 13.0905 8.78741 13.0811 8.75641 13.0748C8.72542 13.0685 8.69412 13.0654 8.66252 13.0654C8.63091 13.0654 8.59961 13.0685 8.56861 13.0748C8.53761 13.0811 8.50751 13.0905 8.47831 13.1028C8.44911 13.1152 8.42138 13.1304 8.3951 13.1483C8.36882 13.1663 8.34451 13.1867 8.32216 13.2095C8.29981 13.2324 8.27986 13.2573 8.2623 13.2841C8.24474 13.311 8.22992 13.3394 8.21782 13.3692C8.20573 13.3991 8.1966 13.4299 8.19043 13.4616C8.18426 13.4933 8.18118 13.5253 8.18118 13.5576C8.18118 13.5899 8.18426 13.622 8.19043 13.6537C8.1966 13.6854 8.20573 13.7161 8.21782 13.746C8.22992 13.7759 8.24474 13.8042 8.2623 13.8311C8.27986 13.858 8.29981 13.8828 8.32216 13.9057C8.34451 13.9286 8.36882 13.949 8.3951 13.9669C8.42138 13.9849 8.44911 14 8.47831 14.0124C8.50751 14.0248 8.53761 14.0341 8.56861 14.0404C8.59961 14.0467 8.63091 14.0499 8.66252 14.0499ZM7.79611 16.0189L13.5748 16.0189C13.4469 16.2589 13.3454 16.5146 13.274 16.7822L13.2506 16.8794L13.2202 16.8886C11.9237 17.3124 11.0054 18.5401 11.0726 19.9635C11.1083 20.7282 11.4222 21.411 11.9117 21.9264L7.79611 21.926C7.47711 21.926 7.21851 21.6615 7.21851 21.3353V16.6096C7.21851 16.2834 7.47711 16.0189 7.79611 16.0189Z" fill="currentColor"/>
<path opacity="0.32" fill-rule="evenodd" clip-rule="evenodd" d="M19.2691 21.924H14.3134C13.1093 21.9765 12.0886 21.0779 12.0343 19.9162C11.9795 18.7547 12.9114 17.7703 14.1155 17.7176C14.1123 16.3062 15.2459 15.1346 16.706 15.0406C18.166 14.9467 19.4509 15.9624 19.6421 17.3619C20.8728 17.5448 21.7491 18.6124 21.6512 19.8097C21.5533 21.0072 20.5144 21.9293 19.2691 21.924Z" fill="currentColor"/>
</svg>
