<svg width="12" height="12" viewBox="0 0 12 12" fill="none" xmlns="http://www.w3.org/2000/svg">
    <g clip-path="url(#clip0_6588_4662)">
        <path
            d="M8.26758 10.0537C8.51204 9.92551 8.81406 10.0192 8.94238 10.2637C9.07047 10.508 8.97648 10.81 8.73242 10.9385C7.94691 11.3508 7.0449 11.5849 6.08887 11.585C5.24845 11.5849 4.44985 11.4039 3.73535 11.0801C3.48404 10.9661 3.3727 10.6703 3.48633 10.4189C3.60029 10.1675 3.89601 10.0561 4.14746 10.1699C4.73386 10.4357 5.3925 10.5849 6.08887 10.585C6.88077 10.5849 7.62348 10.3918 8.26758 10.0537ZM6 0C6.82823 0.000132151 7.49987 0.671769 7.5 1.5C7.5 2.15282 7.08219 2.70695 6.5 2.91309V3.54199C7.91864 3.78014 8.99988 5.01371 9 6.5C9 6.73223 8.96986 6.95774 8.91992 7.1748L9.72656 7.71289C9.95256 7.57645 10.2168 7.49609 10.5 7.49609C11.3282 7.49623 11.9999 8.16786 12 8.99609C12 9.82444 11.3283 10.496 10.5 10.4961C9.67157 10.4961 9 9.82452 9 8.99609C9.00003 8.81807 9.03192 8.64768 9.08887 8.48926L8.52539 8.11328C7.99237 8.94614 7.06217 9.49991 6 9.5C5.00373 9.5 4.12276 9.01308 3.57715 8.26562C3.45564 8.32633 3.33925 8.38516 3.22266 8.44336C3.12954 8.48984 3.03603 8.53623 2.94043 8.58398C2.97788 8.71507 2.99998 8.85299 3 8.99609C3 9.82444 2.32831 10.496 1.5 10.4961C0.671573 10.4961 0 9.82452 0 8.99609C0.000130918 8.16778 0.671654 7.49609 1.5 7.49609C1.81583 7.49614 2.10889 7.594 2.35059 7.76074C2.49791 7.68713 2.63734 7.61822 2.77637 7.54883C2.89224 7.49099 3.00826 7.43233 3.12891 7.37207C3.04522 7.09613 3 6.80327 3 6.5C3.00012 5.01354 4.08112 3.77994 5.5 3.54199V2.91309C4.91759 2.70707 4.5 2.15298 4.5 1.5C4.50013 0.671687 5.17166 0 6 0ZM1.5 8.49609C1.22394 8.49609 1.00013 8.72006 1 8.99609C1 9.27224 1.22386 9.49609 1.5 9.49609C1.77603 9.49596 2 9.27215 2 8.99609C1.99987 8.72015 1.77595 8.49623 1.5 8.49609ZM10.5 8.49609C10.2239 8.49609 10.0001 8.72006 10 8.99609C10 9.27224 10.2239 9.49609 10.5 9.49609C10.776 9.49596 11 9.27215 11 8.99609C10.9999 8.72015 10.7759 8.49623 10.5 8.49609ZM6 4.5C4.89551 4.5 4.00013 5.39555 4 6.5C4 7.60457 4.89543 8.5 6 8.5C7.10445 8.49987 8 7.60449 8 6.5C7.99987 5.39563 7.10437 4.50013 6 4.5ZM2.98926 1.9834C3.21774 1.82842 3.52953 1.88873 3.68457 2.11719C3.83915 2.34545 3.77963 2.65544 3.55176 2.81055C3.01905 3.17206 2.54796 3.65602 2.18457 4.25C1.77138 4.92558 1.5487 5.65987 1.50098 6.38574C1.48279 6.66108 1.24507 6.87044 0.969727 6.85254C0.694206 6.83445 0.484891 6.59582 0.50293 6.32031C0.561081 5.43504 0.832233 4.54414 1.33105 3.72852C1.76959 3.01159 2.34018 2.42395 2.98926 1.9834ZM8.37109 2.11719C8.52613 1.88873 8.83792 1.82844 9.06641 1.9834C9.71548 2.42395 10.2861 3.01159 10.7246 3.72852C11.2234 4.54414 11.4946 5.43504 11.5527 6.32031C11.5708 6.59582 11.3615 6.83445 11.0859 6.85254C10.8106 6.87043 10.5729 6.66107 10.5547 6.38574C10.507 5.65987 10.2843 4.92558 9.87109 4.25C9.5077 3.65603 9.03661 3.17206 8.50391 2.81055C8.27605 2.65544 8.21653 2.34544 8.37109 2.11719ZM6 1C5.72394 1 5.50013 1.22397 5.5 1.5C5.5 1.77614 5.72386 2 6 2C6.27603 1.99987 6.5 1.77606 6.5 1.5C6.49987 1.22405 6.27595 1.00013 6 1Z"
            fill="currentColor" />
    </g>
    <defs>
        <clipPath id="clip0_6588_4662">
            <rect width="12" height="12" fill="white" />
        </clipPath>
    </defs>
</svg>