<svg width="16" height="16" viewBox="0 0 16 16" fill="none" xmlns="http://www.w3.org/2000/svg">
    <g clip-path="url(#clip0_4695_130959)">
        <path
            d="M14.3838 0.00976562C15.2916 0.10184 16 0.868725 16 1.80078V14.2002L15.9902 14.3838C15.9043 15.2311 15.2311 15.9043 14.3838 15.9902L14.2002 16H1.7998L1.61621 15.9902C0.768981 15.9043 0.0958438 15.231 0.00976562 14.3838L0 14.2002V1.7998C0.000126455 0.805863 0.805862 0.000105133 1.7998 0H14.2002L14.3838 0.00976562ZM1.33301 14.2002C1.33327 14.4576 1.54232 14.6659 1.7998 14.666L14.2002 14.667C14.4577 14.6669 14.6669 14.4578 14.667 14.2002V5.16699H1.33301V14.2002ZM11.916 7.70996C12.3267 7.71038 12.6087 8.12627 12.46 8.5127L11.2871 11.5557C11.1398 11.9322 10.9911 12.247 10.8438 12.498C10.7021 12.7536 10.5329 12.9543 10.3369 13.1006C10.146 13.2521 9.91652 13.3601 9.64941 13.4229C9.50367 13.457 9.3399 13.4823 9.16016 13.498C8.89284 13.5213 8.6748 13.2972 8.6748 13.0264C8.67522 12.756 8.89543 12.5498 9.1582 12.4971C9.28924 12.4709 9.39579 12.4304 9.47656 12.3789C9.64006 12.2795 9.75582 12.1224 9.82129 11.9082L8.44238 8.54297C8.28022 8.146 8.5696 7.70996 8.99512 7.70996C9.24926 7.71016 9.47603 7.87197 9.55957 8.11426L10.459 10.7305H10.5088L11.3604 8.11523C11.4391 7.87307 11.6635 7.70996 11.916 7.70996ZM5.44141 6.5C5.86679 6.50004 6.22216 6.53622 6.50586 6.60938C6.79492 6.67736 7.02516 6.7879 7.19434 6.93945C7.36864 7.08583 7.49158 7.27766 7.5625 7.5127C7.63879 7.74274 7.67672 8.02331 7.67676 8.35254C7.67672 8.70791 7.63643 9.00914 7.55469 9.25488C7.4728 9.49551 7.34124 9.693 7.16113 9.84473C6.98123 9.9961 6.74903 10.1058 6.46582 10.1738C6.18211 10.2366 5.83959 10.2666 5.44141 10.2666H4.74512V11.3193C4.74495 11.6661 4.4647 11.9473 4.12109 11.9473C3.77809 11.9465 3.50017 11.6657 3.5 11.3193V6.96875C3.5 6.71041 3.70795 6.50008 3.96387 6.5H5.44141ZM4.74512 9.30957H5.27734C5.48994 9.30955 5.66776 9.2976 5.80957 9.27148C5.95135 9.24012 6.06601 9.18642 6.15332 9.11328C6.24595 9.04006 6.31242 8.94603 6.35059 8.83105C6.38867 8.71095 6.40716 8.55953 6.40723 8.37695C6.40723 8.20427 6.38881 8.05591 6.35059 7.93555C6.31233 7.81553 6.24595 7.71862 6.15332 7.64551C6.06607 7.57249 5.94878 7.52061 5.80176 7.48926C5.6599 7.45788 5.48463 7.44241 5.27734 7.44238H4.74512V9.30957ZM1.7998 1.33301C1.54224 1.33311 1.33313 1.54224 1.33301 1.7998V3.83398H14.667V1.7998C14.6667 1.54236 14.4577 1.33409 14.2002 1.33398L1.7998 1.33301ZM2.82422 1.87402C3.1913 1.86791 3.49366 2.16032 3.5 2.52734C3.50612 2.89447 3.21376 3.19782 2.84668 3.2041C2.47946 3.21023 2.17605 2.91702 2.16992 2.5498C2.16386 2.18264 2.45704 1.88015 2.82422 1.87402ZM4.98926 1.83789C5.35617 1.83195 5.65867 2.12432 5.66504 2.49121C5.67116 2.85843 5.37796 3.16184 5.01074 3.16797C4.64369 3.17389 4.34108 2.88077 4.33496 2.51367C4.32894 2.14654 4.6221 1.84401 4.98926 1.83789ZM7.48828 1.7959C7.8555 1.78977 8.15891 2.08298 8.16504 2.4502C8.17105 2.81732 7.87789 3.11985 7.51074 3.12598C7.14353 3.13209 6.84108 2.83889 6.83496 2.47168C6.8291 2.10478 7.12136 1.80218 7.48828 1.7959Z"
            fill="currentColor" />
    </g>
    <defs>
        <clipPath id="clip0_4695_130959">
            <rect width="16" height="16" fill="white" />
        </clipPath>
    </defs>
</svg>