<svg width="16" height="16" viewBox="0 0 16 16" fill="none" xmlns="http://www.w3.org/2000/svg">
<path fill-rule="evenodd" clip-rule="evenodd" d="M1.33301 3.33301C1.33301 2.74533 1.82592 2.33301 2.35262 2.33301H6.86411C7.18753 2.33301 7.50431 2.48483 7.70063 2.76113L8.34381 3.66634H13.2938C14.0154 3.66634 14.6663 4.22791 14.6663 4.99967V11.9997C14.6663 12.3365 14.5358 12.7076 14.3579 12.9916C14.2 13.2438 13.8498 13.6663 13.2938 13.6663H2.70556C1.98393 13.6663 1.33301 13.1048 1.33301 12.333V3.33301ZM2.66634 4.99967V12.3216C2.67255 12.3265 2.68516 12.333 2.70556 12.333H13.1935C13.2034 12.3206 13.2151 12.3044 13.2279 12.2839C13.261 12.2311 13.2899 12.1683 13.3096 12.1071C13.3192 12.0772 13.3254 12.0513 13.3291 12.0308C13.3327 12.0106 13.333 12.0003 13.333 11.9997L13.333 5.01109C13.3268 5.00622 13.3142 4.99967 13.2938 4.99967H2.66634Z" fill="#0F172A"/>
</svg>
