<svg width="20" height="20" viewBox="0 0 20 20" fill="none" xmlns="http://www.w3.org/2000/svg">
<path d="M0 4C0 1.79086 1.79086 0 4 0H16C18.2091 0 20 1.79086 20 4V16C20 18.2091 18.2091 20 16 20H4C1.79086 20 0 18.2091 0 16V4Z" fill="#2FCC9F"/>
<g clip-path="url(#clip0_5243_41681)">
<path d="M8.625 9.65625H5.53125C4.98125 9.65625 4.5 9.175 4.5 8.625V5.53125C4.5 4.98125 4.98125 4.5 5.53125 4.5H8.625C9.175 4.5 9.65625 4.98125 9.65625 5.53125V8.625C9.65625 9.175 9.175 9.65625 8.625 9.65625Z" fill="white"/>
<path d="M8.625 15.5H5.53125C4.98125 15.5 4.5 15.0188 4.5 14.4688V11.375C4.5 10.825 4.98125 10.3438 5.53125 10.3438H8.625C9.175 10.3438 9.65625 10.825 9.65625 11.375V14.4C9.65625 15.0187 9.175 15.5 8.625 15.5Z" fill="white"/>
<path d="M12.9563 15.4999C11.5125 15.4999 10.3438 14.3312 10.3438 12.9562C10.3438 11.5124 11.5125 10.4124 12.8875 10.4124C14.3312 10.4124 15.4312 11.5812 15.4312 12.9562C15.5 14.3312 14.3313 15.4999 12.9563 15.4999Z" fill="white"/>
<path d="M14.4688 9.65625H11.375C10.825 9.65625 10.3438 9.175 10.3438 8.625V5.53125C10.3438 4.98125 10.825 4.5 11.375 4.5H14.4C15.0187 4.5 15.5 4.98125 15.5 5.53125V8.625C15.5 9.175 15.0188 9.65625 14.4688 9.65625Z" fill="white"/>
</g>
<defs>
<clipPath id="clip0_5243_41681">
<rect width="11" height="11" fill="white" transform="translate(4.5 4.5)"/>
</clipPath>
</defs>
</svg>
