<svg width="20" height="20" viewBox="0 0 20 20" fill="none" xmlns="http://www.w3.org/2000/svg">
<path d="M0 4C0 1.79086 1.79086 0 4 0H16C18.2091 0 20 1.79086 20 4V16C20 18.2091 18.2091 20 16 20H4C1.79086 20 0 18.2091 0 16V4Z" fill="#F5A041"/>
<g clip-path="url(#clip0_5243_41678)">
<path fill-rule="evenodd" clip-rule="evenodd" d="M5.24902 6.75214C5.24902 6.47599 5.47288 6.25214 5.74902 6.25214H14.249C14.5252 6.25214 14.749 6.47599 14.749 6.75214V13.7521C14.749 14.0283 14.5252 14.2521 14.249 14.2521H5.74902C5.47288 14.2521 5.24902 14.0283 5.24902 13.7521V6.75214Z" stroke="white" stroke-linecap="round" stroke-linejoin="round"/>
<path fill-rule="evenodd" clip-rule="evenodd" d="M7.62402 8.75781C7.83112 8.75781 7.99902 8.58991 7.99902 8.38281C7.99902 8.17571 7.83112 8.00781 7.62402 8.00781C7.41692 8.00781 7.24902 8.17571 7.24902 8.38281C7.24902 8.58991 7.41692 8.75781 7.62402 8.75781Z" fill="white" stroke="white" stroke-linecap="round" stroke-linejoin="round"/>
<path d="M7.74902 10.2578L8.99902 11.2578L10.499 9.50781L14.749 12.7578V13.7578C14.749 14.034 14.5252 14.2578 14.249 14.2578H5.74902C5.47288 14.2578 5.24902 14.034 5.24902 13.7578V12.7578L7.74902 10.2578Z" fill="white" stroke="white" stroke-linejoin="round"/>
</g>
<defs>
<clipPath id="clip0_5243_41678">
<rect width="12" height="12" fill="white" transform="translate(3.99902 4.25781)"/>
</clipPath>
</defs>
</svg>
