<svg width="28" height="28" viewBox="0 0 28 28" fill="none" xmlns="http://www.w3.org/2000/svg">
    <g clip-path="url(#clip0_6700_16578)">
        <path
            d="M21.2008 20.1879C21.2007 20.9333 20.4842 21.5377 19.6008 21.5379H8.4C7.51677 21.5375 6.80089 20.9332 6.80078 20.1879V9.83789H21.2008V20.1879ZM9.72187 18.4738C9.43462 18.4739 9.20124 18.6669 9.20078 18.9051C9.20078 19.1436 9.43433 19.3378 9.72187 19.3379H13.5961C13.8835 19.3376 14.1172 19.1435 14.1172 18.9051C14.1167 18.667 13.8832 18.4741 13.5961 18.4738H9.72187ZM9.72187 16.3379C9.43448 16.338 9.20102 16.5315 9.20078 16.7699C9.20086 17.0084 9.43438 17.2018 9.72187 17.202H15.6805C15.9676 17.2015 16.2007 17.0082 16.2008 16.7699C16.2005 16.5317 15.9675 16.3383 15.6805 16.3379H9.72187ZM13.3297 11.1379C13.0387 11.1381 12.8456 11.4395 12.9664 11.7043L13.9484 13.8574C13.9883 13.9448 13.9993 14.0458 13.9562 14.1316C13.9058 14.2319 13.8372 14.31 13.75 14.3652C13.6927 14.4034 13.6182 14.4329 13.5273 14.4535C13.3188 14.5009 13.1422 14.663 13.1422 14.877C13.1423 15.0909 13.3167 15.2672 13.5297 15.2465C13.6582 15.234 13.7753 15.2152 13.8805 15.1895C14.0831 15.1398 14.2576 15.0546 14.4023 14.9348C14.5509 14.8191 14.6786 14.6602 14.7859 14.4582C14.8976 14.2599 15.0102 14.0119 15.1219 13.7145L16.0008 11.698C16.116 11.4338 15.9218 11.1379 15.6336 11.1379H15.5508C15.3857 11.138 15.2378 11.2395 15.1781 11.3934L14.5391 13.0449C14.5348 13.0555 14.5247 13.0621 14.5133 13.0621C14.5019 13.0621 14.4918 13.0554 14.4875 13.0449L13.8086 11.3863C13.7471 11.236 13.6007 11.1379 13.4383 11.1379H13.3297ZM9.60078 11.1379C9.37987 11.1379 9.20078 11.317 9.20078 11.5379V14.8645C9.20088 15.0853 9.37993 15.2645 9.60078 15.2645H9.67891C9.89976 15.2645 10.0788 15.0853 10.0789 14.8645V13.9918H10.5711C10.852 13.9918 11.0928 13.9682 11.293 13.9207C11.4932 13.8692 11.6573 13.7856 11.7844 13.6707C11.9114 13.5558 12.004 13.4068 12.0617 13.2246C12.1194 13.0384 12.1484 12.8103 12.1484 12.541C12.1484 12.2914 12.1211 12.0794 12.0672 11.9051C12.0171 11.7268 11.931 11.5817 11.8078 11.4707C11.6884 11.3557 11.5253 11.273 11.3211 11.2215C11.121 11.1661 10.8711 11.1379 10.5711 11.1379H9.60078ZM10.4555 11.8512C10.6016 11.8512 10.725 11.8634 10.825 11.8871C10.9288 11.9109 11.0119 11.9505 11.0734 12.0059C11.1388 12.0613 11.1848 12.1351 11.2117 12.2262C11.2387 12.3173 11.2523 12.4283 11.2523 12.559C11.2523 12.6976 11.2386 12.8124 11.2117 12.9035C11.1848 12.9907 11.1389 13.0629 11.0734 13.1184C11.0118 13.1738 10.9306 13.2133 10.8305 13.2371C10.7305 13.2569 10.6054 13.2668 10.4555 13.2668H10.0789V11.8512H10.4555Z"
            fill="currentColor" />
        <path opacity="0.32"
            d="M19.7611 6.80078C20.5561 6.80097 21.2005 7.44541 21.2007 8.24042V9.60097H6.80078V8.24042C6.80099 7.44541 7.44543 6.80097 8.24042 6.80078H19.7611ZM8.20087 7.60058C7.86967 7.60069 7.60069 7.86966 7.60058 8.20087C7.60075 8.53204 7.8697 8.80018 8.20087 8.80029C8.53199 8.80012 8.80012 8.532 8.80029 8.20087C8.80018 7.8697 8.53203 7.60075 8.20087 7.60058ZM10.0009 7.60058C9.66966 7.60069 9.40068 7.86966 9.40058 8.20087C9.40075 8.53203 9.6697 8.80018 10.0009 8.80029C10.332 8.80011 10.6001 8.53199 10.6003 8.20087C10.6002 7.8697 10.332 7.60076 10.0009 7.60058ZM11.8 7.60058C11.4689 7.60088 11.2007 7.86978 11.2006 8.20087C11.2007 8.53192 11.469 8.79999 11.8 8.80029C12.1312 8.80029 12.4001 8.5321 12.4003 8.20087C12.4002 7.86959 12.1313 7.60058 11.8 7.60058Z"
            fill="currentColor" />
    </g>
    <defs>
        <clipPath id="clip0_6700_16578">
            <rect width="16" height="16" fill="white" transform="translate(6 6)" />
        </clipPath>
    </defs>
</svg>