<svg width="29" height="29" viewBox="0 0 29 29" fill="currentColor" xmlns="http://www.w3.org/2000/svg">
<path opacity="0.32" d="M8.92034 17.7783C9.14186 17.7786 9.32256 17.9572 9.32478 18.1788L9.33189 18.9876C9.33384 19.2122 9.15198 19.395 8.92745 19.3952H8.13595C7.91403 19.3952 7.73352 19.2167 7.73152 18.9947L7.72441 18.1859C7.72268 17.9614 7.90425 17.7783 8.12884 17.7783H8.92034ZM8.91323 14.1383C9.13503 14.1384 9.31556 14.317 9.31767 14.5388L9.32478 15.3477C9.32674 15.5724 9.14509 15.7553 8.92034 15.7553H8.12884C7.90692 15.7553 7.72641 15.5767 7.72441 15.3548L7.7173 14.5459C7.71547 14.3213 7.89708 14.1384 8.12174 14.1383H8.91323ZM8.92034 10.4984C9.14185 10.4988 9.32256 10.6774 9.32478 10.8989L9.33189 11.7078C9.33384 11.9323 9.15198 12.1151 8.92745 12.1154H8.13595C7.91404 12.1153 7.73352 11.9368 7.73152 11.7149L7.72441 10.906C7.72265 10.6815 7.90422 10.4984 8.12884 10.4984H8.92034Z" fill="currentColor"/>
<path d="M20.1876 8.07184C20.7245 8.07239 21.1599 8.50202 21.16 9.03159C21.1234 12.7329 21.126 16.4347 21.1269 20.1362C21.127 20.8062 20.5834 21.3498 19.9135 21.3495C16.4423 21.3469 12.9704 21.3354 9.4993 21.3637C8.96194 21.3637 8.52613 20.934 8.52612 20.404V19.8005H9.33579C9.55873 19.8001 9.74011 19.6191 9.74022 19.3961V17.7783C9.74011 17.5553 9.55873 17.3743 9.33579 17.3739H8.52612V16.1606H9.335C9.55818 16.1604 9.73943 15.9794 9.73943 15.7561V14.1384C9.73943 13.9152 9.55818 13.7342 9.335 13.734H8.52612V12.5206H9.33579C9.55871 12.5202 9.74008 12.3392 9.74022 12.1162V10.4985C9.74011 10.2754 9.55873 10.0944 9.33579 10.094H8.52612V9.08293C8.52644 8.55324 8.96213 8.12404 9.4993 8.12397L20.1876 8.07184ZM12.2339 14.2498C11.9028 14.2498 11.6338 14.5183 11.6335 14.8493C11.6335 15.1805 11.9026 15.4496 12.2339 15.4497H15.5436C15.8746 15.4493 16.1432 15.1803 16.1432 14.8493C16.1429 14.5185 15.8744 14.2501 15.5436 14.2498H12.2339ZM12.2339 11.2852C11.9028 11.2852 11.6338 11.5538 11.6335 11.8848C11.6335 12.216 11.9026 12.4851 12.2339 12.4851H17.9434C18.2743 12.4847 18.543 12.2157 18.543 11.8848C18.5427 11.554 18.2742 11.2856 17.9434 11.2852H12.2339Z" fill="currentColor"/>
</svg>
