<svg width="14" height="14" viewBox="0 0 14 14" fill="none" xmlns="http://www.w3.org/2000/svg">
<path d="M7 1.16699C10.2217 1.16699 12.833 3.77834 12.833 7C12.833 10.2217 10.2217 12.833 7 12.833C3.77834 12.833 1.16699 10.2217 1.16699 7C1.16699 3.77834 3.77834 1.16699 7 1.16699ZM7 2.33301C4.42267 2.33301 2.33301 4.42267 2.33301 7C2.33301 9.57733 4.42267 11.667 7 11.667C9.57733 11.667 11.667 9.57733 11.667 7C11.667 4.42267 9.57733 2.33301 7 2.33301ZM8.16699 4.95801C8.64998 4.95818 9.04182 5.35002 9.04199 5.83301V8.16699C9.04182 8.64998 8.64998 9.04182 8.16699 9.04199H5.83301C5.35002 9.04182 4.95818 8.64998 4.95801 8.16699V5.83301C4.95818 5.35002 5.35002 4.95818 5.83301 4.95801H8.16699Z" fill="#007DFA"/>
</svg>
