<svg width="20" height="20" viewBox="0 0 20 20" fill="none" xmlns="http://www.w3.org/2000/svg">
<path d="M0 4C0 1.79086 1.79086 0 4 0H16C18.2091 0 20 1.79086 20 4V16C20 18.2091 18.2091 20 16 20H4C1.79086 20 0 18.2091 0 16V4Z" fill="#F28518"/>
<path d="M4.50663 11.7185C4.50663 10.7298 4.52315 9.73982 4.50027 8.75109C4.48629 8.13091 5.0137 7.69755 5.62625 7.70518C7.24659 7.72678 8.86821 7.7128 10.4898 7.7128C11.1456 7.7128 11.5777 8.11058 11.5777 8.72059C11.5789 10.7235 11.5789 12.7263 11.5777 14.7292C11.5777 15.3329 11.143 15.7421 10.4898 15.7434C8.85804 15.7472 7.22626 15.7472 5.59321 15.7434C4.93745 15.7421 4.50663 15.3354 4.50663 14.7292C4.50536 13.7265 4.50663 12.7225 4.50663 11.7185Z" fill="white"/>
<path d="M14.697 11.7777V4.99386H8.95022C8.95022 5.15145 8.95657 5.29887 8.94895 5.44756C8.94005 5.6331 8.81678 5.77417 8.64775 5.80721C8.46475 5.8428 8.28683 5.77798 8.20804 5.63438C8.17754 5.57973 8.16102 5.51237 8.15974 5.4501C8.15466 5.17687 8.15593 4.90363 8.15847 4.6304C8.16102 4.40673 8.30335 4.26947 8.54481 4.25549C8.59311 4.25295 8.6414 4.25422 8.68969 4.25422H14.955C15.3795 4.25422 15.5002 4.36733 15.5002 4.75875V12.0509C15.5002 12.4182 15.3769 12.5313 14.9817 12.5326C14.697 12.5326 14.4124 12.5339 14.1277 12.5326C13.8773 12.53 13.707 12.3839 13.7058 12.1729C13.7045 11.9645 13.8735 11.8133 14.1226 11.8057C14.2993 11.8006 14.4772 11.8006 14.6538 11.798C14.6627 11.7955 14.6729 11.7891 14.697 11.7777Z" fill="white"/>
<path d="M12.821 13.5041V6.69232C12.7524 6.6885 12.6889 6.68342 12.6266 6.68342C10.8436 6.68342 9.06057 6.68596 7.27756 6.67961C7.10599 6.67961 7.06279 6.72917 7.07804 6.87405C7.08693 6.96682 7.08058 7.06341 7.06151 7.15618C7.02339 7.34935 6.85182 7.465 6.6434 7.44975C6.43879 7.4345 6.2901 7.28962 6.28756 7.09391C6.28375 6.83592 6.28502 6.57667 6.28756 6.31868C6.2901 6.11153 6.4299 5.97555 6.65357 5.95776C6.69042 5.95522 6.72855 5.95522 6.76668 5.95522C8.88774 5.95522 11.0101 5.95395 13.1311 5.95903C13.2519 5.95903 13.3853 5.99716 13.4895 6.05435C13.6204 6.12678 13.6255 6.26785 13.6255 6.40129C13.6242 8.82227 13.6242 11.2445 13.6242 13.6655C13.6242 13.7354 13.6268 13.8053 13.623 13.8739C13.6115 14.0887 13.4641 14.2285 13.2341 14.231C12.8846 14.2349 12.5364 14.2349 12.1869 14.231C11.9569 14.2285 11.8005 14.0785 11.7993 13.8739C11.798 13.6693 11.9492 13.5168 12.1793 13.5079C12.3864 13.4978 12.5948 13.5041 12.821 13.5041Z" fill="white"/>
</svg>
