<svg width="20" height="20" viewBox="0 0 20 20" fill="none" xmlns="http://www.w3.org/2000/svg">
<path d="M0 4C0 1.79086 1.79086 0 4 0H16C18.2091 0 20 1.79086 20 4V16C20 18.2091 18.2091 20 16 20H4C1.79086 20 0 18.2091 0 16V4Z" fill="#16D916"/>
<g clip-path="url(#clip0_5935_83772)">
<path d="M13.2615 7.98194L15.5931 5.65027C15.75 5.48731 15.8376 5.26991 15.8376 5.04372C15.8376 4.81754 15.75 4.60014 15.5931 4.43718C15.435 4.27647 15.22 4.18438 14.9946 4.18077C14.7692 4.17717 14.5514 4.26235 14.3882 4.41792L12.0565 6.77351H11.9708C11.5543 6.49455 11.0549 6.36672 10.5557 6.41132C10.0564 6.45591 9.58754 6.67024 9.22714 7.01858C9.21611 7.03072 9.21 7.04653 9.21 7.06293C9.21 7.07932 9.21611 7.09514 9.22714 7.10727L12.9347 10.8428C12.9598 10.8662 12.9989 10.8662 13.024 10.8428C13.374 10.4728 13.5868 9.99423 13.6272 9.48651C13.6675 8.9788 13.5329 8.47257 13.2457 8.05196C13.2438 8.02223 13.2438 7.99241 13.2457 7.96268L13.2615 7.98194ZM7.0151 6.08556C7.01718 6.24157 7.0681 6.393 7.16071 6.51857C7.25332 6.64413 7.38295 6.73752 7.53138 6.78559C7.67981 6.83366 7.83958 6.83401 7.98821 6.78657C8.13685 6.73914 8.26688 6.64631 8.36003 6.52115C8.45318 6.39598 8.50475 6.24477 8.50751 6.08877C8.51026 5.93278 8.46405 5.77984 8.37538 5.65146C8.28671 5.52309 8.16004 5.42573 8.01317 5.37308C7.8663 5.32043 7.70662 5.31513 7.55658 5.35794C7.23274 5.45013 7.01101 5.7483 7.0151 6.08556ZM11.4888 14.3012C11.4893 14.4232 11.5138 14.5439 11.561 14.6564C11.6081 14.769 11.6769 14.8711 11.7635 14.957C11.8502 15.0429 11.9528 15.1109 12.0657 15.1571C12.1786 15.2033 12.2995 15.2269 12.4215 15.2264C12.5435 15.2259 12.6642 15.2014 12.7767 15.1542C12.8892 15.1071 12.9914 15.0382 13.0773 14.9516C13.1632 14.865 13.2312 14.7623 13.2774 14.6494C13.3236 14.5365 13.3472 14.4156 13.3467 14.2937C13.3456 14.0473 13.2467 13.8114 13.0717 13.638C12.8967 13.4646 12.66 13.3677 12.4136 13.3688C12.1673 13.3699 11.9314 13.4688 11.758 13.6438C11.5845 13.8188 11.4877 14.0555 11.4888 14.3018V14.3012ZM13.5485 13.3186C13.5444 13.3861 13.5538 13.4536 13.576 13.5174C13.5983 13.5812 13.633 13.64 13.6782 13.6902C13.7234 13.7404 13.7781 13.7812 13.8392 13.8101C13.9002 13.839 13.9665 13.8554 14.0339 13.8585C14.1014 13.8615 14.1689 13.8511 14.2323 13.8279C14.2957 13.8046 14.3539 13.769 14.4034 13.723C14.453 13.6771 14.4929 13.6217 14.5208 13.5602C14.5487 13.4987 14.5642 13.4323 14.5662 13.3647C14.5674 13.2329 14.5174 13.1056 14.4268 13.0099C14.3362 12.9141 14.2119 12.8572 14.0802 12.8511C13.9484 12.8451 13.8195 12.8903 13.7204 12.9774C13.6214 13.0645 13.56 13.1866 13.5491 13.318L13.5485 13.3186ZM8.54737 7.69836L12.2473 11.4217C12.258 11.4363 12.2638 11.454 12.2638 11.4721C12.2638 11.4903 12.258 11.508 12.2473 11.5226C11.4664 12.8311 10.9637 14.2865 10.7705 15.7979C10.7756 15.8003 10.7799 15.8042 10.7827 15.8091C10.7856 15.814 10.7868 15.8197 10.7863 15.8253C10.7826 15.8271 10.7786 15.828 10.7746 15.828C10.7706 15.828 10.7666 15.8271 10.7629 15.8253L9.50664 15.0481C9.50256 15.0432 9.50033 15.037 9.50033 15.0306C9.50033 15.0242 9.50256 15.018 9.50664 15.0131C9.62334 14.7645 10.7542 12.3815 10.638 12.4982C10.0977 13.0657 9.60003 13.6722 9.14895 14.3129L8.81052 14.7797C8.17165 14.3697 7.5823 13.8873 7.05419 13.342V13.3186C7.3226 12.9878 8.72183 11.1614 8.72183 11.1614L6.3429 12.5957C6.33864 12.5994 6.33314 12.6015 6.32744 12.6015C6.32174 12.6015 6.31625 12.5994 6.31198 12.5957C5.89648 12.1472 5.51571 11.6677 5.17299 11.1614C5.67622 10.7386 6.17765 10.3136 6.67725 9.88648L4.88182 10.505C4.8772 10.5082 4.8717 10.51 4.86607 10.51C4.86043 10.51 4.85493 10.5082 4.85031 10.505L4.17812 9.21721C4.17499 9.21506 4.17243 9.21219 4.17066 9.20884C4.16889 9.20548 4.16797 9.20175 4.16797 9.19795C4.16797 9.19416 4.16889 9.19042 4.17066 9.18707C4.17243 9.18371 4.17499 9.18084 4.17812 9.1787C4.51655 9.12793 7.15922 8.57594 8.45342 7.6861C8.46774 7.67294 8.48649 7.66564 8.50594 7.66564C8.52539 7.66564 8.54413 7.67294 8.55845 7.6861L8.54678 7.69777L8.54737 7.69836Z" fill="white"/>
</g>
<defs>
<clipPath id="clip0_5935_83772">
<rect width="11.67" height="11.67" fill="white" transform="translate(4.16797 4.16406)"/>
</clipPath>
</defs>
</svg>
