<svg width="20" height="20" viewBox="0 0 20 20" fill="none" xmlns="http://www.w3.org/2000/svg">
<path d="M0 4C0 1.79086 1.79086 0 4 0H16C18.2091 0 20 1.79086 20 4V16C20 18.2091 18.2091 20 16 20H4C1.79086 20 0 18.2091 0 16V4Z" fill="#F24F18"/>
<path d="M16.0666 14.6629L15.0713 13.6676C15.3658 13.2004 15.5182 12.6723 15.5182 12.0832C15.5182 10.4176 14.1674 9.07695 12.5119 9.07695C10.8565 9.07695 9.49552 10.4176 9.49552 12.0832C9.49552 13.7488 10.8463 15.0895 12.5018 15.0895C13.1315 15.0895 13.7104 14.8965 14.1979 14.5816L15.1729 15.577C15.2947 15.6988 15.4471 15.7496 15.6197 15.7496C15.9752 15.7496 16.2494 15.4754 16.2494 15.1199C16.2393 14.9371 16.1783 14.7848 16.0666 14.6629ZM12.5018 13.9418C11.4658 13.9418 10.633 13.0988 10.633 12.0832C10.633 11.0473 11.476 10.2246 12.5018 10.2246C13.5275 10.2246 14.3705 11.0676 14.3705 12.0832C14.3604 13.0988 13.5377 13.9418 12.5018 13.9418ZM9.49552 8.61992C12.4916 8.61992 14.594 7.8582 14.594 6.93398V5.91836C14.594 4.98398 12.5018 4.23242 9.49552 4.23242C6.48927 4.23242 4.74239 5.0043 4.74239 5.92852V6.94414C4.72208 7.8582 6.47911 8.61992 9.49552 8.61992ZM8.77442 12.8449C6.72286 12.7637 5.60567 12.1238 4.98614 11.4941C4.8338 11.6465 4.75255 11.8293 4.75255 12.002V13.3527C4.75255 14.2871 6.50958 15.0387 9.50567 15.0387C9.8002 15.0387 10.0947 15.0387 10.3893 15.0184C9.58692 14.4699 8.92677 13.8199 8.77442 12.8449ZM8.80489 11.9816C8.80489 11.0777 9.14005 10.2652 9.66817 9.63555H9.4752C7.04786 9.63555 5.66661 9.14805 4.97598 8.44727C4.82364 8.59961 4.74239 8.78242 4.74239 8.95508V10.3059C4.72208 11.1691 6.2252 11.8902 8.80489 11.9816Z" fill="white"/>
</svg>
