<svg width="20" height="20" viewBox="0 0 20 20" fill="none" xmlns="http://www.w3.org/2000/svg">
<path d="M0 4C0 1.79086 1.79086 0 4 0H16C18.2091 0 20 1.79086 20 4V16C20 18.2091 18.2091 20 16 20H4C1.79086 20 0 18.2091 0 16V4Z" fill="#8518F2"/>
<path d="M11.8236 4.16016C12.2131 4.16016 12.5865 4.31608 12.8603 4.59292L15.4076 7.16819C15.6782 7.4412 15.83 7.80994 15.8302 8.19428V14.9188C15.8302 15.1605 15.7341 15.3924 15.5632 15.5634C15.3922 15.7343 15.1603 15.8304 14.9185 15.8304H5.07176C4.82999 15.8304 4.59812 15.7343 4.42716 15.5634C4.2562 15.3924 4.16016 15.1605 4.16016 14.9188V5.07297C4.16016 4.8312 4.2562 4.59933 4.42716 4.42837C4.59812 4.25741 4.82999 4.16136 5.07176 4.16136L11.8236 4.16016ZM12.6083 10.481H7.38126C7.34134 10.481 7.30182 10.4889 7.26495 10.5042C7.22808 10.5195 7.19458 10.5419 7.16637 10.5701C7.13815 10.5983 7.11578 10.6318 7.10052 10.6687C7.08527 10.7056 7.07743 10.7451 7.07745 10.785V15.8296H8.04942V11.4532H11.9391V15.8296H12.9114V10.7862C12.9114 10.6321 12.7962 10.5026 12.6431 10.4845L12.6083 10.481ZM8.10978 6.80383H6.40788C6.39188 6.80383 6.37652 6.81019 6.36521 6.82151C6.35389 6.83283 6.34753 6.84818 6.34753 6.86419V7.65428C6.34753 7.67028 6.35389 7.68564 6.36521 7.69695C6.37652 7.70827 6.39188 7.71463 6.40788 7.71463H8.10978C8.12578 7.71463 8.14114 7.70827 8.15246 7.69695C8.16377 7.68564 8.17013 7.67028 8.17013 7.65428V6.86419C8.17013 6.84818 8.16377 6.83283 8.15246 6.82151C8.14114 6.81019 8.12578 6.80383 8.10978 6.80383Z" fill="white"/>
</svg>
