<svg width="20" height="20" viewBox="0 0 20 20" fill="none" xmlns="http://www.w3.org/2000/svg">
<path d="M0 4C0 1.79086 1.79086 0 4 0H16C18.2091 0 20 1.79086 20 4V16C20 18.2091 18.2091 20 16 20H4C1.79086 20 0 18.2091 0 16V4Z" fill="#F2BC18"/>
<path d="M15.1684 4.64258H14.6901V5.50348H13.3509V4.64258H6.36805V5.50348H5.02887V4.64258H4.64625C4.35928 4.64258 4.16797 4.83389 4.16797 5.12086V14.8777C4.16797 15.1647 4.35928 15.356 4.64625 15.356H5.12453V14.8777H6.46371V15.356H13.5422V14.8777H14.8814V15.356H15.3597C15.6467 15.356 15.838 15.1647 15.838 14.8777V5.12086C15.6467 4.83389 15.4553 4.64258 15.1684 4.64258ZM6.36805 13.4429H5.02887V12.1037H6.36805V13.4429ZM6.36805 10.8602H5.02887V9.52102H6.36805V10.8602ZM6.36805 8.18184H5.02887V6.84266H6.36805V8.18184ZM11.9161 10.1906L9.04641 11.9124H8.66379C8.56813 11.8168 8.47248 11.7211 8.47248 11.6254V8.2775C8.47248 8.18184 8.56813 8.08619 8.66379 7.99053C8.75944 7.89487 8.8551 7.89487 8.95076 7.99053L11.8204 9.61668C11.9161 9.71233 12.0117 9.80799 12.0117 9.90364C12.1074 10.095 12.0117 10.1906 11.9161 10.1906ZM14.7858 13.4429H13.4466V12.1037H14.7858V13.4429ZM14.7858 10.8602H13.4466V9.52102H14.7858V10.8602ZM14.7858 8.18184H13.4466V6.84266H14.7858V8.18184Z" fill="white"/>
</svg>
