<svg width="20" height="20" viewBox="0 0 20 20" fill="none" xmlns="http://www.w3.org/2000/svg">
<path d="M0 4C0 1.79086 1.79086 0 4 0H16C18.2091 0 20 1.79086 20 4V16C20 18.2091 18.2091 20 16 20H4C1.79086 20 0 18.2091 0 16V4Z" fill="#8F5CFF"/>
<path d="M7.5143 4.16699H14.6817C14.9995 4.16699 15.2709 4.27937 15.4956 4.50412C15.7203 4.72882 15.8327 5.00009 15.8327 5.31796V12.6423C15.8327 12.9313 15.5985 13.1655 15.3095 13.1655C15.0206 13.1655 14.7863 12.9313 14.7863 12.6423V5.31796C14.7863 5.24823 14.7514 5.21333 14.6817 5.21333H7.5143C7.22535 5.21333 6.99113 4.97911 6.99113 4.69016C6.99113 4.40121 7.22535 4.16699 7.5143 4.16699ZM4.79382 5.89345H13.4261C13.7728 5.89345 14.0539 6.17455 14.0539 6.52125V15.2059C14.0539 15.5526 13.7728 15.8337 13.4261 15.8337H4.79382C4.44711 15.8337 4.16602 15.5526 4.16602 15.2059V6.52125C4.16602 6.17455 4.44711 5.89345 4.79382 5.89345ZM11.6735 9.24173C11.5347 9.24173 11.4017 9.29685 11.3036 9.39497L9.45002 11.2485L8.45522 10.2537C8.33264 10.1311 8.18469 10.0698 8.01131 10.0698C7.83793 10.0698 7.68998 10.1311 7.5674 10.2537L6.20266 11.6184C6.10455 11.7165 6.04943 11.8496 6.04942 11.9884C5.98853 12.0492 5.94358 12.1241 5.91857 12.2065C5.89355 12.2888 5.88924 12.3761 5.90601 12.4605C5.92278 12.5449 5.96012 12.6239 6.01472 12.6905C6.06931 12.757 6.13948 12.8091 6.219 12.842C6.29853 12.8749 6.38495 12.8878 6.47061 12.8793C6.55627 12.8709 6.63852 12.8414 6.71008 12.7936C6.78163 12.7457 6.84028 12.681 6.88083 12.6051C6.92138 12.5291 6.94257 12.4444 6.94253 12.3583L8.01131 11.2895L9.00611 12.2843C9.12869 12.4069 9.27664 12.4682 9.45002 12.4682C9.6234 12.4682 9.77135 12.4069 9.89393 12.2843L12.0434 10.1348C12.1166 10.0617 12.1664 9.96844 12.1865 9.86696C12.2067 9.76549 12.1963 9.66031 12.1567 9.56472C12.1172 9.46914 12.0501 9.38744 11.9641 9.32995C11.8781 9.27246 11.777 9.24176 11.6735 9.24173Z" fill="white"/>
</svg>
