<svg width="20" height="20" viewBox="0 0 20 20" fill="none" xmlns="http://www.w3.org/2000/svg">
<path d="M0 4C0 1.79086 1.79086 0 4 0H16C18.2091 0 20 1.79086 20 4V16C20 18.2091 18.2091 20 16 20H4C1.79086 20 0 18.2091 0 16V4Z" fill="#18BCF2"/>
<path d="M7.51625 4.16699H14.6837C15.0015 4.16699 15.2728 4.27937 15.4975 4.50412C15.7223 4.72882 15.8346 5.00009 15.8346 5.31796V12.6423C15.8346 12.9313 15.6004 13.1655 15.3115 13.1655C15.0225 13.1655 14.7883 12.9313 14.7883 12.6423V5.31796C14.7883 5.24823 14.7534 5.21333 14.6837 5.21333H7.51625C7.2273 5.21333 6.99308 4.97911 6.99308 4.69016C6.99308 4.40121 7.2273 4.16699 7.51625 4.16699ZM4.79577 5.89345H13.4281C13.7748 5.89345 14.0559 6.17455 14.0559 6.52125V15.2059C14.0559 15.5526 13.7748 15.8337 13.4281 15.8337H4.79577C4.44907 15.8337 4.16797 15.5526 4.16797 15.2059V6.52125C4.16797 6.17455 4.44907 5.89345 4.79577 5.89345ZM11.6754 9.24173C11.5367 9.24173 11.4036 9.29685 11.3055 9.39497L9.45197 11.2485L8.45717 10.2537C8.33459 10.1311 8.18664 10.0698 8.01326 10.0698C7.83988 10.0698 7.69193 10.1311 7.56935 10.2537L6.20461 11.6184C6.1065 11.7165 6.05138 11.8496 6.05138 11.9884C5.99048 12.0492 5.94554 12.1241 5.92052 12.2065C5.8955 12.2888 5.89119 12.3761 5.90796 12.4605C5.92473 12.5449 5.96207 12.6239 6.01667 12.6905C6.07127 12.757 6.14144 12.8091 6.22096 12.842C6.30048 12.8749 6.3869 12.8878 6.47256 12.8793C6.55822 12.8709 6.64047 12.8414 6.71203 12.7936C6.78359 12.7457 6.84224 12.681 6.88278 12.6051C6.92333 12.5291 6.94452 12.4444 6.94448 12.3583L8.01326 11.2895L9.00807 12.2843C9.13064 12.4069 9.2786 12.4682 9.45197 12.4682C9.62535 12.4682 9.7733 12.4069 9.89588 12.2843L12.0454 10.1348C12.1185 10.0617 12.1683 9.96844 12.1885 9.86696C12.2087 9.76549 12.1983 9.66031 12.1587 9.56472C12.1191 9.46914 12.0521 9.38744 11.9661 9.32995C11.88 9.27246 11.7789 9.24176 11.6754 9.24173Z" fill="white"/>
</svg>
