<svg width="29" height="29" viewBox="0 0 29 29" fill="currentColor" xmlns="http://www.w3.org/2000/svg">
<g clip-path="url(#clip0_6343_15844)">
<path opacity="0.32" d="M10.6701 20.1931C11.7038 21.0716 13.0058 21.5515 14.3496 21.5495C15.7181 21.5495 16.9759 21.0613 17.9644 20.2463C18.1759 20.579 18.4536 20.8614 18.7793 21.0753C17.5376 22.139 15.9691 22.7208 14.3496 22.7181C12.6216 22.7181 11.041 22.0692 9.82958 20.9964C10.1624 20.7928 10.4489 20.5189 10.6701 20.1931ZM17.065 9.14432C19.5319 10.2241 21.2604 12.7298 21.2604 15.6483C21.2604 15.8178 21.2547 15.9868 21.2433 16.1534C20.8831 16.0074 20.4965 15.9422 20.1096 15.9622C20.1717 14.7699 19.8789 13.5863 19.2698 12.5678C18.6607 11.5493 17.764 10.7437 16.6981 10.2574C16.8971 9.91764 17.0222 9.53799 17.065 9.14432ZM11.6684 9.1297C11.709 9.52324 11.8317 9.90327 12.0284 10.244C10.9741 10.7183 10.0826 11.5046 9.46883 12.5017C8.85504 13.4988 8.54702 14.6611 8.58443 15.8388C8.19704 15.8172 7.80963 15.881 7.44843 16.0259C7.44215 15.8996 7.43872 15.774 7.43872 15.6483C7.43872 12.7164 9.18329 10.2007 11.6684 9.1297Z" fill="currentColor"/>
<path d="M14.4387 6.71796C14.9278 6.7193 15.4001 6.90067 15.7692 7.22889C16.1384 7.55724 16.3795 8.01083 16.4489 8.50624C16.5182 9.00163 16.4115 9.50619 16.1473 9.92733C15.8831 10.3485 15.4789 10.6582 15.0098 10.8V12.3203C16.4768 12.589 17.5887 13.8733 17.5887 15.418C17.5887 15.6408 17.5648 15.8582 17.5208 16.068L19.077 17.1414C19.3726 16.8823 19.7345 16.7153 20.12 16.6601C20.5054 16.605 20.8983 16.6635 21.252 16.8297C21.6057 16.9959 21.9058 17.2625 22.1161 17.5976C22.3264 17.9328 22.4382 18.3228 22.4387 18.7211C22.4385 19.2734 22.2236 19.8032 21.8418 20.1937C21.4601 20.5842 20.9426 20.8037 20.4028 20.8039C20.0854 20.8037 19.7723 20.7279 19.4887 20.582C19.2052 20.4362 18.9586 20.2246 18.7692 19.9641C18.5798 19.7035 18.4531 19.401 18.3981 19.0812C18.3432 18.7615 18.3617 18.4328 18.4528 18.1219L17.0614 17.1609C16.4969 18.0086 15.5335 18.568 14.4387 18.568C13.3437 18.5679 12.3798 18.0088 11.8153 17.1609L10.4247 18.1219C10.5157 18.4328 10.5344 18.7615 10.4793 19.0812C10.4243 19.4009 10.2968 19.7029 10.1075 19.9633C9.91801 20.2238 9.67152 20.4354 9.38794 20.5812C9.10437 20.727 8.79124 20.803 8.47388 20.8031C7.93434 20.8027 7.41717 20.5832 7.0356 20.193C6.654 19.8026 6.43917 19.2732 6.43872 18.7211C6.43927 18.323 6.5512 17.9334 6.76138 17.5984C6.97167 17.2633 7.27171 16.9967 7.62544 16.8305C7.97912 16.6643 8.37203 16.605 8.75747 16.6601C9.14296 16.7153 9.50487 16.8831 9.80044 17.1422L11.3559 16.068C11.3119 15.8582 11.2887 15.6408 11.2887 15.418C11.2887 13.8733 12.4007 12.589 13.8676 12.3203V10.8008C13.3981 10.6594 12.994 10.3493 12.7293 9.92811C12.4647 9.50682 12.3568 9.00197 12.4262 8.50624C12.4956 8.01049 12.7371 7.55651 13.1067 7.22811C13.4762 6.89977 13.9493 6.71883 14.4387 6.71796Z" fill="currentColor"/>
</g>
<defs>
<clipPath id="clip0_6343_15844">
<rect width="16" height="16" fill="white" transform="translate(6.43872 6.71796)"/>
</clipPath>
</defs>
</svg>
