<svg width="20" height="20" viewBox="0 0 20 20" fill="none" xmlns="http://www.w3.org/2000/svg">
<path d="M0 4C0 1.79086 1.79086 0 4 0H16C18.2091 0 20 1.79086 20 4V16C20 18.2091 18.2091 20 16 20H4C1.79086 20 0 18.2091 0 16V4Z" fill="#4F18F2"/>
<g clip-path="url(#clip0_5935_83779)">
<path d="M4.89844 5.2972C4.89844 4.95293 5.27771 4.67285 5.73868 4.67285C6.20548 4.67285 6.57892 4.95293 6.57892 5.2972V14.8841C6.57892 15.2284 6.19964 15.5084 5.73868 15.5084C5.27188 15.5084 4.89844 15.2284 4.89844 14.8841V5.2972Z" fill="white"/>
<path d="M7.50781 6.66861C7.50781 5.98008 8.06797 5.41992 8.7565 5.41992H13.6521C14.3406 5.41992 14.9008 5.98008 14.9008 6.66861C14.9008 7.35714 14.3406 7.9173 13.6521 7.9173H8.7565C8.06797 7.9173 7.50781 7.35714 7.50781 6.66861ZM7.50781 10.0004C7.50781 9.31187 8.06797 8.75171 8.7565 8.75171H15.315C16.0036 8.75171 16.5637 9.31187 16.5637 10.0004C16.5637 10.6889 16.0036 11.2491 15.315 11.2491H8.7565C8.06797 11.2491 7.50781 10.6889 7.50781 10.0004ZM8.7565 12.0835C8.06797 12.0835 7.50781 12.6437 7.50781 13.3322C7.50781 14.0207 8.06797 14.5809 8.7565 14.5809H11.1489C11.8374 14.5809 12.3975 14.0207 12.3975 13.3322C12.3975 12.6437 11.8374 12.0835 11.1489 12.0835H8.7565Z" fill="white"/>
</g>
<defs>
<clipPath id="clip0_5935_83779">
<rect width="11.67" height="11.67" fill="white" transform="translate(4.89844 4.16406)"/>
</clipPath>
</defs>
</svg>
