<svg width="20" height="20" viewBox="0 0 20 20" fill="none" xmlns="http://www.w3.org/2000/svg">
<path d="M0 4C0 1.79086 1.79086 0 4 0H16C18.2091 0 20 1.79086 20 4V16C20 18.2091 18.2091 20 16 20H4C1.79086 20 0 18.2091 0 16V4Z" fill="#4073F5"/>
<path d="M14.999 6.8643C14.999 7.01486 14.877 7.13691 14.7264 7.13691H11.3134V15.2168C11.3134 15.3674 11.1914 15.4894 11.0408 15.4894H8.97045C8.81989 15.4894 8.69783 15.3674 8.69783 15.2168V7.13691H5.27164C5.12108 7.13691 4.99902 7.01486 4.99902 6.8643V5.29593C4.99902 5.14536 5.12108 5.02331 5.27164 5.02331H14.7264C14.877 5.02331 14.999 5.14536 14.999 5.29593V6.8643Z" fill="white"/>
</svg>
