<svg width="20" height="20" viewBox="0 0 20 20" fill="none" xmlns="http://www.w3.org/2000/svg">
<path d="M0 4C0 1.79086 1.79086 0 4 0H16C18.2091 0 20 1.79086 20 4V16C20 18.2091 18.2091 20 16 20H4C1.79086 20 0 18.2091 0 16V4Z" fill="#F54094"/>
<rect opacity="0.01" x="4" y="4.25781" width="12" height="12" fill="#D8D8D8"/>
<path fill-rule="evenodd" clip-rule="evenodd" d="M12.5283 6.75781C12.7039 6.758 12.8457 6.90056 12.8457 7.07617V8.35938L14.3779 7.29883C14.5889 7.1528 14.8777 7.30409 14.8779 7.56055V12.9551C14.8777 13.2115 14.5889 13.3628 14.3779 13.2168L12.8457 12.1553V13.4395C12.8457 13.6151 12.7039 13.7576 12.5283 13.7578H5.20996C5.03423 13.7578 4.8916 13.6152 4.8916 13.4395V7.07617C4.8916 6.90044 5.03423 6.75781 5.20996 6.75781H12.5283ZM6.80078 8.34863C6.44933 8.34863 6.16406 8.6339 6.16406 8.98535C6.16421 9.33668 6.44942 9.62109 6.80078 9.62109C7.15211 9.62105 7.43736 9.33665 7.4375 8.98535C7.4375 8.63393 7.15219 8.34868 6.80078 8.34863Z" fill="white"/>
</svg>
