<svg width="24" height="24" viewBox="0 0 24 24" fill="none" xmlns="http://www.w3.org/2000/svg">
<g id="8. &#229;&#155;&#190;&#230;&#160;&#135;/&#233;&#153;&#132;&#228;&#187;&#182;/PDF">
<g id="&#231;&#188;&#150;&#231;&#187;&#132;">
<path id="&#229;&#189;&#162;&#231;&#138;&#182;&#231;&#187;&#147;&#229;&#144;&#136;" d="M15 1L21 7V21C21 22.1046 20.1046 23 19 23H5C3.89543 23 3 22.1046 3 21V3C3 1.89543 3.89543 1 5 1H15Z" fill="#F25788"/>
<mask id="mask0_330139_333" style="mask-type:luminance" maskUnits="userSpaceOnUse" x="3" y="1" width="18" height="22">
<path id="&#229;&#189;&#162;&#231;&#138;&#182;&#231;&#187;&#147;&#229;&#144;&#136;_2" d="M15 1L21 7V21C21 22.1046 20.1046 23 19 23H5C3.89543 23 3 22.1046 3 21V3C3 1.89543 3.89543 1 5 1H15Z" fill="white"/>
</mask>
<g mask="url(#mask0_330139_333)">
<path id="&#231;&#159;&#169;&#229;&#189;&#162;" fill-rule="evenodd" clip-rule="evenodd" d="M15 1L21 7H17C15.8954 7 15 6.10457 15 5V1Z" fill="#FFADC5"/>
</g>
</g>
<g id="&#229;&#189;&#162;&#231;&#138;&#182;&#231;&#187;&#147;&#229;&#144;&#136;_3" filter="url(#filter0_d_330139_333)">
<path d="M11.4648 9.00322C11.7395 9.00322 12.0208 9.13822 12.1895 9.35869C12.5516 9.84891 12.5201 10.8847 12.0518 12.4105C12.4951 13.2255 13.0764 13.9612 13.7695 14.5862C14.3501 14.476 14.937 14.3958 15.5176 14.3958C16.8287 14.4203 17.0229 15.0211 16.998 15.3704C16.998 16.2957 16.0797 16.2962 15.6113 16.2962C14.8621 16.241 14.1436 15.9709 13.5566 15.4808C12.4203 15.7259 11.3403 16.0819 10.2539 16.5169C9.39214 18.012 8.58574 18.7776 7.89258 18.7776C7.75527 18.7776 7.5869 18.753 7.47461 18.6673C7.16865 18.5325 7 18.2322 7 17.9319C7.00003 17.6867 7.05696 17.0069 9.69141 15.8919C10.3034 14.8011 10.772 13.6854 11.1592 12.5149C10.8282 11.8592 10.1039 10.2538 10.6035 9.43877C10.7721 9.1386 11.1028 8.97268 11.4648 9.00322ZM8.83594 17.2024C8.42379 17.3618 8.08671 17.6322 7.83691 17.9876L7.91797 17.9632C8.30511 17.8284 8.61114 17.5517 8.83594 17.2024ZM11.6963 13.8206L11.6709 13.7962C11.4212 14.4211 11.1467 15.0464 10.8408 15.6468L10.8965 15.6214V15.6771C11.5085 15.4565 12.1712 15.266 12.7832 15.1312L12.7578 15.1067H12.8389C12.4144 14.6902 12.0276 14.2305 11.7217 13.7649L11.6963 13.8206ZM15.499 15.2112C15.2495 15.2112 15.0249 15.2119 14.7754 15.2669C15.0499 15.4015 15.3309 15.456 15.6055 15.4866C15.799 15.5111 15.9926 15.487 16.1611 15.4319C16.1611 15.3461 16.0547 15.2112 15.499 15.2112ZM11.4463 9.81865C11.4213 9.81865 11.3652 9.81867 11.334 9.84307C11.2216 10.3088 11.3093 10.7996 11.5029 11.2347C11.6653 10.769 11.6647 10.2782 11.5273 9.81865H11.4463Z" fill="white"/>
</g>
</g>
<defs>
<filter id="filter0_d_330139_333" x="7" y="8.99963" width="10" height="10.778" filterUnits="userSpaceOnUse" color-interpolation-filters="sRGB">
<feFlood flood-opacity="0" result="BackgroundImageFix"/>
<feColorMatrix in="SourceAlpha" type="matrix" values="0 0 0 0 0 0 0 0 0 0 0 0 0 0 0 0 0 0 127 0" result="hardAlpha"/>
<feOffset dy="1"/>
<feColorMatrix type="matrix" values="0 0 0 0 0.6 0 0 0 0 0.0588235 0 0 0 0 0.27451 0 0 0 0.3 0"/>
<feBlend mode="normal" in2="BackgroundImageFix" result="effect1_dropShadow_330139_333"/>
<feBlend mode="normal" in="SourceGraphic" in2="effect1_dropShadow_330139_333" result="shape"/>
</filter>
</defs>
</svg>
