<svg width="28" height="28" viewBox="0 0 28 28" fill="none" xmlns="http://www.w3.org/2000/svg">
<g clip-path="url(#clip0_5211_38721)">
<path opacity="0.32" d="M18.7726 20.6031C18.9018 20.6033 18.9912 20.711 18.971 20.8445L18.9468 21.007C18.9279 21.1406 18.8278 21.25 18.7249 21.25H18.3507C18.2478 21.25 18.1491 21.1422 18.1288 21.0086L18.1046 20.8453C18.0859 20.7118 18.1754 20.6031 18.3038 20.6031H18.7726ZM18.9921 19.0391C19.1255 19.0391 19.2193 19.1485 19.1992 19.282L19.1445 19.6609C19.1242 19.7944 19.0001 19.9038 18.8663 19.9039H18.2101C18.0762 19.9039 17.9523 19.7945 17.932 19.6609L17.8773 19.282C17.8571 19.1485 17.9504 19.0391 18.0843 19.0391H18.9921ZM19.221 17.4758C19.3543 17.4759 19.4481 17.5846 19.4281 17.718L19.3734 18.0969C19.3532 18.2304 19.229 18.3397 19.0952 18.3398H17.9812C17.8473 18.3398 17.7233 18.2304 17.703 18.0969L17.6484 17.718C17.6283 17.5845 17.7216 17.4758 17.8554 17.4758H19.221ZM18.3968 11.582C18.4745 11.4729 18.6011 11.473 18.6788 11.582L21.5 15.5516C21.5777 15.6625 21.5323 15.7516 21.3984 15.7516H19.9585C19.8247 15.7516 19.7008 15.8603 19.6804 15.9938L19.6007 16.5352C19.5803 16.6686 19.4564 16.7773 19.3226 16.7773H17.7538C17.62 16.7773 17.4961 16.6686 17.4757 16.5352L17.3968 15.9938C17.3765 15.8603 17.2524 15.7517 17.1187 15.7516H15.6772C15.5441 15.7514 15.4981 15.6606 15.5757 15.5516L18.3968 11.582ZM13.0288 6.5C16.8242 6.5 19.1586 7.27754 19.5195 8.44375C18.7983 9.61011 16.8245 10.3875 13.0288 10.3875C9.23319 10.3875 6.89868 9.6101 6.53809 8.44375C6.89887 7.2775 9.2334 6.50002 13.0288 6.5Z" fill="#6E7B8D"/>
<path d="M6.53823 16.5C6.95571 17.7315 9.51401 18.4268 12.966 18.4268C14.3632 18.4267 15.5577 18.3091 16.5382 18.0986V20.7959C15.5873 21.0225 14.4153 21.1806 13.0294 21.1807C8.78441 21.1807 6.5393 19.8827 6.53823 19.3867V16.5ZM6.53823 12.5C6.95571 13.7315 9.51401 14.4268 12.966 14.4268C13.8445 14.4267 14.643 14.3803 15.3585 14.2939L14.2384 15.8682C14.05 16.1329 14.2388 16.4997 14.5636 16.5H16.1378C16.324 16.5 16.4789 16.6276 16.5236 16.7998C15.5753 17.0245 14.4081 17.1806 13.0294 17.1807C8.78441 17.1807 6.5393 15.8827 6.53823 15.3867V12.5ZM19.5197 10.5H18.5753C18.252 10.5001 17.9484 10.6565 17.7609 10.9199L16.4005 12.8301C15.4749 13.0391 14.3489 13.1806 13.0294 13.1807C8.78441 13.1807 6.5393 11.8827 6.53823 11.3867V8.5C6.95571 9.73149 9.51401 10.4268 12.966 10.4268C16.547 10.4267 18.7985 9.66629 19.5197 8.5V10.5Z" fill="#6E7B8D"/>
</g>
<defs>
<clipPath id="clip0_5211_38721">
<rect width="16" height="16" fill="white" transform="translate(6 6)"/>
</clipPath>
</defs>
</svg>
