<svg width="28" height="28" viewBox="0 0 28 28" fill="none" xmlns="http://www.w3.org/2000/svg">
<path fill-rule="evenodd" clip-rule="evenodd" d="M17.7542 7.4248C18.0732 7.4248 18.3318 7.68928 18.3318 8.01552V9.78765C18.3318 10.1139 18.0732 10.3784 17.7542 10.3784H7.35739C7.03839 10.3784 6.77979 10.1139 6.77979 9.78765V8.01552C6.77979 7.68928 7.03839 7.4248 7.35739 7.4248H17.7542ZM8.22379 9.39385C8.2554 9.39385 8.2867 9.3907 8.31769 9.38439C8.34869 9.37808 8.37879 9.36875 8.40799 9.35638C8.43719 9.34401 8.46493 9.32885 8.49121 9.31089C8.51749 9.29293 8.5418 9.27252 8.56415 9.24967C8.58649 9.22682 8.60645 9.20195 8.62401 9.17507C8.64157 9.1482 8.65639 9.11983 8.66849 9.08997C8.68058 9.06011 8.68971 9.02933 8.69588 8.99763C8.70204 8.96592 8.70513 8.93391 8.70513 8.90159C8.70513 8.86927 8.70204 8.83726 8.69588 8.80555C8.68971 8.77386 8.68058 8.74307 8.66849 8.71321C8.65639 8.68335 8.64157 8.65498 8.62401 8.62811C8.60645 8.60123 8.58649 8.57636 8.56415 8.55351C8.5418 8.53065 8.51749 8.51025 8.49121 8.49229C8.46493 8.47434 8.43719 8.45917 8.40799 8.4468C8.37879 8.43443 8.34869 8.4251 8.31769 8.41879C8.2867 8.41249 8.2554 8.40933 8.22379 8.40933C8.19219 8.40933 8.16089 8.41249 8.12989 8.41879C8.09889 8.4251 8.06879 8.43443 8.03959 8.4468C8.01039 8.45917 7.98265 8.47434 7.95638 8.49229C7.9301 8.51025 7.90579 8.53065 7.88344 8.55351C7.86109 8.57636 7.84114 8.60123 7.82358 8.62811C7.80602 8.65498 7.7912 8.68335 7.7791 8.71321C7.76701 8.74307 7.75788 8.77386 7.75171 8.80555C7.74554 8.83726 7.74246 8.86927 7.74246 8.90159C7.74246 8.93391 7.74554 8.96592 7.75171 8.99763C7.75788 9.02933 7.76701 9.06011 7.7791 9.08997C7.7912 9.11983 7.80602 9.1482 7.82358 9.17507C7.84114 9.20195 7.86109 9.22682 7.88344 9.24967C7.90579 9.27252 7.9301 9.29293 7.95638 9.31089C7.98265 9.32885 8.01039 9.34401 8.03959 9.35638C8.06879 9.36875 8.09889 9.37808 8.12989 9.38439C8.16089 9.3907 8.19219 9.39385 8.22379 9.39385ZM17.7542 11.3629C18.0732 11.3629 18.3318 11.6273 18.3318 11.9536V13.7257C18.3318 13.7594 18.3291 13.7924 18.3237 13.8246C17.7017 13.4712 16.9708 13.2908 16.2068 13.3399L16.0125 13.3573C15.1998 13.4511 14.4678 13.7988 13.9011 14.3168L7.35739 14.3164C7.03839 14.3164 6.77979 14.052 6.77979 13.7257V11.9536C6.77979 11.6273 7.03839 11.3629 7.35739 11.3629H17.7542ZM8.22379 13.3319C8.2554 13.3319 8.2867 13.3288 8.31769 13.3225C8.34869 13.3162 8.37879 13.3068 8.40799 13.2944C8.43719 13.2821 8.46493 13.2669 8.49121 13.249C8.51749 13.231 8.5418 13.2106 8.56415 13.1877C8.58649 13.1649 8.60645 13.14 8.62401 13.1131C8.64157 13.0863 8.65639 13.0579 8.66849 13.028C8.68058 12.9982 8.68971 12.9674 8.69588 12.9357C8.70204 12.904 8.70513 12.872 8.70513 12.8397C8.70513 12.8073 8.70204 12.7753 8.69588 12.7436C8.68971 12.7119 8.68058 12.6811 8.66849 12.6513C8.65639 12.6214 8.64157 12.5931 8.62401 12.5662C8.60645 12.5393 8.58649 12.5144 8.56415 12.4916C8.5418 12.4687 8.51749 12.4483 8.49121 12.4304C8.46493 12.4124 8.43719 12.3972 8.40799 12.3849C8.37879 12.3725 8.34869 12.3632 8.31769 12.3569C8.2867 12.3506 8.2554 12.3474 8.22379 12.3474C8.19219 12.3474 8.16089 12.3506 8.12989 12.3569C8.09889 12.3632 8.06879 12.3725 8.03959 12.3849C8.01039 12.3972 7.98265 12.4124 7.95638 12.4304C7.9301 12.4483 7.90579 12.4687 7.88344 12.4916C7.86109 12.5144 7.84114 12.5393 7.82358 12.5662C7.80602 12.5931 7.7912 12.6214 7.7791 12.6513C7.76701 12.6811 7.75788 12.7119 7.75171 12.7436C7.74554 12.7753 7.74246 12.8073 7.74246 12.8397C7.74246 12.872 7.74554 12.904 7.75171 12.9357C7.75788 12.9674 7.76701 12.9982 7.7791 13.028C7.7912 13.0579 7.80602 13.0863 7.82358 13.1131C7.84114 13.14 7.86109 13.1649 7.88344 13.1877C7.90579 13.2106 7.9301 13.231 7.95638 13.249C7.98265 13.2669 8.01039 13.2821 8.03959 13.2944C8.06879 13.3068 8.09889 13.3162 8.12989 13.3225C8.16089 13.3288 8.19219 13.3319 8.22379 13.3319ZM7.35739 15.3009L13.1361 15.301C13.0082 15.541 12.9067 15.7966 12.8353 16.0642L12.8119 16.1614L12.7814 16.1706C11.485 16.5945 10.5667 17.8222 10.6339 19.2455C10.6696 20.0103 10.9835 20.6931 11.473 21.2085L7.35739 21.2081C7.03839 21.2081 6.77979 20.9436 6.77979 20.6173V15.8917C6.77979 15.5654 7.03839 15.3009 7.35739 15.3009Z" fill="#6E7B8D"/>
<path opacity="0.32" fill-rule="evenodd" clip-rule="evenodd" d="M18.8304 21.2059H13.8747C12.6706 21.2583 11.6498 20.3598 11.5956 19.1981C11.5407 18.0366 12.4727 17.0522 13.6768 16.9995C13.6736 15.588 14.8072 14.4165 16.2672 14.3224C17.7273 14.2286 19.0122 15.2443 19.2034 16.6438C20.434 16.8266 21.3104 17.8943 21.2125 19.0915C21.1146 20.289 20.0757 21.2111 18.8304 21.2059Z" fill="#6E7B8D"/>
</svg>
