<svg width="12" height="12" viewBox="0 0 12 12" fill="none" xmlns="http://www.w3.org/2000/svg">
    <path fill-rule="evenodd" clip-rule="evenodd"
        d="M2.5 2V10H9.5V3.9401L7.77547 2H7.5V5.25C7.5 5.66421 7.16421 6 6.75 6H3.75C3.33579 6 3 5.66421 3 5.25V2H2.5ZM2.25 1C1.83579 1 1.5 1.33579 1.5 1.75V10.25C1.5 10.6642 1.83579 11 2.25 11H9.75C10.1642 11 10.5 10.6642 10.5 10.25V3.84505C10.5 3.66137 10.4326 3.48407 10.3106 3.34678L8.44829 1.25173C8.30596 1.09161 8.10196 1 7.88773 1H2.25ZM4 2V5H4.75V3.25H5.75V5H6.5V2H4Z"
        fill="#1E293B" />
</svg>