<svg width="14" height="14" viewBox="0 0 14 14" fill="none" xmlns="http://www.w3.org/2000/svg">
<g clip-path="url(#clip0_5646_2382)">
<path d="M11.083 1.45825C11.7273 1.45825 12.25 1.98091 12.25 2.62524V7.00024H11.083V2.62524H2.91699V11.6663H8.45801V12.8333H2.91699L2.79785 12.8274C2.20932 12.7679 1.75 12.2705 1.75 11.6663V2.62524C1.75 2.02102 2.20932 1.52363 2.79785 1.46411L2.91699 1.45825H11.083ZM13.1162 10.2581L12.292 11.0833L11.2256 10.1086V12.8333H10.0586V10.1077L8.99121 11.0833L8.16699 10.2581L10.6416 7.87524L13.1162 10.2581ZM8.16602 9.62427H4.95801V8.45825H8.16602V9.62427ZM9.23242 4.41138L7.44434 7.03638L6.95215 7.76001L6.47363 7.02661L4.76172 4.40161L5.73828 3.76489L6.97266 5.65649L8.26758 3.75513L9.23242 4.41138Z" fill="#007DFA"/>
</g>
<defs>
<clipPath id="clip0_5646_2382">
<rect width="14" height="14" fill="white"/>
</clipPath>
</defs>
</svg>
