<svg width="11" height="12" viewBox="0 0 11 12" fill="none" xmlns="http://www.w3.org/2000/svg">
<path fill-rule="evenodd" clip-rule="evenodd" d="M1.16667 1.16667V10.5H9.33333V3.43012L7.32138 1.16667H7V4.95833C7 5.44158 6.60825 5.83333 6.125 5.83333H2.625C2.14175 5.83333 1.75 5.44158 1.75 4.95833V1.16667H1.16667ZM0.875 0C0.39175 0 0 0.391751 0 0.875V10.7917C0 11.2749 0.391751 11.6667 0.875 11.6667H9.625C10.1082 11.6667 10.5 11.2749 10.5 10.7917V3.31923C10.5 3.10493 10.4214 2.89808 10.279 2.73791L8.10634 0.293681C7.94029 0.106879 7.70229 0 7.45236 0H0.875ZM2.91667 1.16667V4.66667H3.79167V2.625H4.95833V4.66667H5.83333V1.16667H2.91667Z" fill="#007DFA"/>
</svg>
