<svg width="16" height="16" viewBox="0 0 16 16" fill="none" xmlns="http://www.w3.org/2000/svg">
<path d="M14.374 0.00976562C15.2818 0.10184 15.9902 0.868724 15.9902 1.80078L15.9999 14.2002L15.9901 14.3838C15.9041 15.2311 15.2309 15.9043 14.3837 15.9902L14.2001 16H1.79968L1.61608 15.9902C0.768852 15.9043 0.0957149 15.231 0.00963681 14.3838L-0.000128813 14.2002L-0.00976562 1.7998C-0.00964027 0.805862 0.796096 0.000105133 1.79004 0H14.1904L14.374 0.00976562ZM1.33288 14.2002C1.33314 14.4576 1.54219 14.6659 1.79968 14.666L14.2001 14.667C14.4576 14.6669 14.6667 14.4578 14.6669 14.2002L14.6572 5.16699H1.32324L1.33288 14.2002ZM8.65137 7.5C9.02407 7.50005 9.35972 7.58539 9.6582 7.75586C9.95824 7.92515 10.1957 8.17169 10.3691 8.49512C10.5439 8.81851 10.6308 9.2109 10.6309 9.67188C10.6309 10.1328 10.5438 10.5252 10.3691 10.8486C10.2588 11.0543 10.1215 11.2282 9.95996 11.3721L10.1436 11.6025C10.3141 11.8165 10.1181 11.9996 9.8446 12C9.7464 12 9.69681 12.0888 9.63477 12.0127L9.39062 11.7139C9.16288 11.7996 8.91674 11.8437 8.65137 11.8438C8.27574 11.8437 7.93825 11.7585 7.63965 11.5879C7.34106 11.4173 7.10504 11.17 6.93164 10.8467C6.75823 10.5232 6.6709 10.1316 6.6709 9.67188C6.67091 9.21084 6.75824 8.81854 6.93164 8.49512C7.10504 8.17179 7.34106 7.92512 7.63965 7.75586C7.93823 7.58531 8.27576 7.50001 8.65137 7.5ZM4.51367 7.5C4.82726 7.50005 5.10111 7.55386 5.33496 7.66113C5.57025 7.76846 5.75304 7.91814 5.88379 8.10938C5.93153 8.17922 5.97109 8.25313 6.00195 8.33105C6.09349 8.56248 5.88262 8.77417 5.63379 8.77441C5.4047 8.77438 5.22937 8.57167 5.05859 8.41895C5.0456 8.40733 5.03104 8.39637 5.0166 8.38574C4.8914 8.29374 4.7213 8.24805 4.50684 8.24805C4.36115 8.24808 4.23807 8.26835 4.1377 8.30957C4.03732 8.34945 3.95991 8.40508 3.90625 8.47656C3.85396 8.54813 3.82812 8.62988 3.82812 8.7207C3.82542 8.79629 3.84064 8.86258 3.875 8.91895C3.91073 8.97527 3.95969 9.02419 4.02148 9.06543C4.08337 9.10531 4.1552 9.14063 4.23633 9.1709C4.31752 9.1998 4.40488 9.22447 4.49707 9.24512L4.87695 9.33594C5.06122 9.37721 5.23073 9.43222 5.38477 9.50098C5.53878 9.56976 5.67237 9.65448 5.78516 9.75488C5.89794 9.85532 5.98496 9.97416 6.04688 10.1104C6.11006 10.2464 6.14311 10.4022 6.14453 10.5781C6.14316 10.8369 6.07704 11.062 5.94629 11.252C5.81695 11.4404 5.62958 11.5868 5.38477 11.6914C5.14116 11.7946 4.84699 11.8457 4.50293 11.8457C4.16176 11.8457 3.86449 11.794 3.61133 11.6895C3.35948 11.5849 3.16226 11.4297 3.02051 11.2246C2.95516 11.1285 2.90457 11.0216 2.86816 10.9043C2.79471 10.6675 3.00398 10.459 3.25195 10.459H3.28418C3.49823 10.4591 3.65723 10.6425 3.78613 10.8135C3.85907 10.9071 3.95703 10.9782 4.07812 11.0264C4.2004 11.073 4.33839 11.0966 4.49219 11.0967C4.64353 11.0967 4.77526 11.0743 4.88672 11.0303C4.99956 10.9862 5.08748 10.9251 5.14941 10.8467C5.21121 10.7683 5.24219 10.6779 5.24219 10.5762C5.24213 10.4813 5.2136 10.4015 5.15723 10.3369C5.10222 10.2723 5.02121 10.2172 4.91406 10.1719C4.80809 10.1265 4.67756 10.085 4.52344 10.0479L4.06348 9.93262C3.70703 9.84591 3.42519 9.70981 3.21875 9.52539C3.01242 9.34098 2.90976 9.09261 2.91113 8.78027C2.90977 8.52439 2.97771 8.30063 3.11523 8.10938C3.25424 7.91808 3.44529 7.76849 3.6875 7.66113C3.92969 7.55382 4.20544 7.50001 4.51367 7.5ZM11.7402 7.55762C11.9871 7.55762 12.1875 7.75804 12.1875 8.00488V9.31787V10.6309C12.1876 10.8618 12.3745 11.0488 12.6055 11.0488H13.6318C13.8351 11.0491 14 11.2146 14 11.418C13.9998 11.6211 13.835 11.7859 13.6318 11.7861H11.918C11.573 11.7861 11.293 11.5061 11.293 11.1611V8.00488C11.293 7.75807 11.4934 7.55766 11.7402 7.55762ZM8.65137 8.29102C8.43531 8.29103 8.24598 8.34423 8.08496 8.4502C7.92428 8.5561 7.79932 8.71136 7.70996 8.91602C7.62189 9.12107 7.57716 9.37325 7.57715 9.67188C7.57715 9.97053 7.62188 10.2227 7.70996 10.4277C7.79939 10.6326 7.92406 10.7886 8.08496 10.8945C8.24598 11.0005 8.43531 11.0527 8.65137 11.0527C8.73226 11.0527 8.80866 11.0422 8.88184 11.0273L8.71094 10.8027C8.55958 10.6029 8.70159 10.3168 8.95215 10.3164C9.04585 10.3164 9.13487 10.3596 9.19238 10.4336L9.41211 10.7168C9.48169 10.6345 9.54286 10.5394 9.59082 10.4277C9.68028 10.2227 9.72461 9.97053 9.72461 9.67188C9.7246 9.37324 9.68028 9.12107 9.59082 8.91602C9.50279 8.71112 9.37766 8.55615 9.2168 8.4502C9.05586 8.34429 8.86729 8.29107 8.65137 8.29102ZM1.79004 1.33301C1.53247 1.33311 1.32337 1.54224 1.32324 1.7998V3.83398H14.6572V1.7998C14.657 1.54236 14.4479 1.33409 14.1904 1.33398L1.79004 1.33301ZM2.81445 1.87402C3.18153 1.86791 3.4839 2.16031 3.49023 2.52734C3.49636 2.89447 3.204 3.19782 2.83691 3.2041C2.4697 3.21023 2.16628 2.91702 2.16016 2.5498C2.1541 2.18264 2.44727 1.88015 2.81445 1.87402ZM4.97949 1.83789C5.34641 1.83195 5.6489 2.12432 5.65527 2.49121C5.6614 2.85843 5.36819 3.16184 5.00098 3.16797C4.63392 3.17389 4.33132 2.88077 4.3252 2.51367C4.31917 2.14654 4.61234 1.84401 4.97949 1.83789ZM7.47852 1.7959C7.84573 1.78977 8.14915 2.08298 8.15527 2.4502C8.16128 2.81732 7.86812 3.11985 7.50098 3.12598C7.13376 3.13209 6.83132 2.83889 6.8252 2.47168C6.81934 2.10478 7.1116 1.80218 7.47852 1.7959Z" fill="#334155"/>
</svg>
