<svg width="24" height="24" viewBox="0 0 24 24" fill="none" xmlns="http://www.w3.org/2000/svg">
    <g clip-path="url(#clip0_1134_19763)">
        <path
            d="M18.374 4.00977C19.2818 4.10184 19.9902 4.86872 19.9902 5.80078L19.9999 18.2002L19.9901 18.3838C19.9041 19.2311 19.2309 19.9043 18.3837 19.9902L18.2001 20H5.79968L5.61608 19.9902C4.76885 19.9043 4.09571 19.231 4.00964 18.3838L3.99987 18.2002L3.99023 5.7998C3.99036 4.80586 4.7961 4.00011 5.79004 4H18.1904L18.374 4.00977ZM5.33288 18.2002C5.33314 18.4576 5.54219 18.6659 5.79968 18.666L18.2001 18.667C18.4576 18.6669 18.6667 18.4578 18.6669 18.2002L18.6572 9.16699H5.32324L5.33288 18.2002ZM12.6514 11.5C13.0241 11.5001 13.3597 11.5854 13.6582 11.7559C13.9582 11.9251 14.1957 12.1717 14.3691 12.4951C14.5439 12.8185 14.6308 13.2109 14.6309 13.6719C14.6309 14.1328 14.5438 14.5252 14.3691 14.8486C14.2588 15.0543 14.1215 15.2282 13.96 15.3721L14.1436 15.6025C14.3141 15.8165 14.1181 15.9996 13.8446 16C13.7464 16 13.6968 16.0888 13.6348 16.0127L13.3906 15.7139C13.1629 15.7996 12.9167 15.8437 12.6514 15.8438C12.2757 15.8437 11.9382 15.7585 11.6396 15.5879C11.3411 15.4173 11.105 15.17 10.9316 14.8467C10.7582 14.5232 10.6709 14.1316 10.6709 13.6719C10.6709 13.2108 10.7582 12.8185 10.9316 12.4951C11.105 12.1718 11.3411 11.9251 11.6396 11.7559C11.9382 11.5853 12.2758 11.5 12.6514 11.5ZM8.51367 11.5C8.82726 11.5 9.10111 11.5539 9.33496 11.6611C9.57025 11.7685 9.75304 11.9181 9.88379 12.1094C9.93153 12.1792 9.97109 12.2531 10.002 12.3311C10.0935 12.5625 9.88262 12.7742 9.63379 12.7744C9.4047 12.7744 9.22937 12.5717 9.05859 12.4189C9.0456 12.4073 9.03104 12.3964 9.0166 12.3857C8.8914 12.2937 8.7213 12.248 8.50684 12.248C8.36115 12.2481 8.23807 12.2684 8.1377 12.3096C8.03732 12.3495 7.95991 12.4051 7.90625 12.4766C7.85396 12.5481 7.82812 12.6299 7.82812 12.7207C7.82542 12.7963 7.84064 12.8626 7.875 12.9189C7.91073 12.9753 7.95969 13.0242 8.02148 13.0654C8.08337 13.1053 8.1552 13.1406 8.23633 13.1709C8.31752 13.1998 8.40488 13.2245 8.49707 13.2451L8.87695 13.3359C9.06122 13.3772 9.23073 13.4322 9.38477 13.501C9.53878 13.5698 9.67237 13.6545 9.78516 13.7549C9.89794 13.8553 9.98496 13.9742 10.0469 14.1104C10.1101 14.2464 10.1431 14.4022 10.1445 14.5781C10.1432 14.8369 10.077 15.062 9.94629 15.252C9.81695 15.4404 9.62958 15.5868 9.38477 15.6914C9.14116 15.7946 8.84699 15.8457 8.50293 15.8457C8.16176 15.8457 7.86449 15.794 7.61133 15.6895C7.35948 15.5849 7.16226 15.4297 7.02051 15.2246C6.95516 15.1285 6.90457 15.0216 6.86816 14.9043C6.79471 14.6675 7.00398 14.459 7.25195 14.459H7.28418C7.49823 14.4591 7.65723 14.6425 7.78613 14.8135C7.85907 14.9071 7.95703 14.9782 8.07812 15.0264C8.2004 15.073 8.33839 15.0966 8.49219 15.0967C8.64353 15.0967 8.77526 15.0743 8.88672 15.0303C8.99956 14.9862 9.08748 14.9251 9.14941 14.8467C9.21121 14.7683 9.24219 14.6779 9.24219 14.5762C9.24213 14.4813 9.2136 14.4015 9.15723 14.3369C9.10222 14.2723 9.02121 14.2172 8.91406 14.1719C8.80809 14.1265 8.67756 14.085 8.52344 14.0479L8.06348 13.9326C7.70703 13.8459 7.42519 13.7098 7.21875 13.5254C7.01242 13.341 6.90976 13.0926 6.91113 12.7803C6.90977 12.5244 6.97771 12.3006 7.11523 12.1094C7.25424 11.9181 7.44529 11.7685 7.6875 11.6611C7.92969 11.5538 8.20544 11.5 8.51367 11.5ZM15.7402 11.5576C15.9871 11.5576 16.1875 11.758 16.1875 12.0049V13.3179V14.6309C16.1876 14.8618 16.3745 15.0488 16.6055 15.0488H17.6318C17.8351 15.0491 18 15.2146 18 15.418C17.9998 15.6211 17.835 15.7859 17.6318 15.7861H15.918C15.573 15.7861 15.293 15.5061 15.293 15.1611V12.0049C15.293 11.7581 15.4934 11.5577 15.7402 11.5576ZM12.6514 12.291C12.4353 12.291 12.246 12.3442 12.085 12.4502C11.9243 12.5561 11.7993 12.7114 11.71 12.916C11.6219 13.1211 11.5772 13.3733 11.5771 13.6719C11.5771 13.9705 11.6219 14.2227 11.71 14.4277C11.7994 14.6326 11.9241 14.7886 12.085 14.8945C12.246 15.0005 12.4353 15.0527 12.6514 15.0527C12.7323 15.0527 12.8087 15.0422 12.8818 15.0273L12.7109 14.8027C12.5596 14.6029 12.7016 14.3168 12.9521 14.3164C13.0458 14.3164 13.1349 14.3596 13.1924 14.4336L13.4121 14.7168C13.4817 14.6345 13.5429 14.5394 13.5908 14.4277C13.6803 14.2227 13.7246 13.9705 13.7246 13.6719C13.7246 13.3732 13.6803 13.1211 13.5908 12.916C13.5028 12.7111 13.3777 12.5561 13.2168 12.4502C13.0559 12.3443 12.8673 12.2911 12.6514 12.291ZM5.79004 5.33301C5.53247 5.33311 5.32337 5.54224 5.32324 5.7998V7.83398H18.6572V5.7998C18.657 5.54236 18.4479 5.33409 18.1904 5.33398L5.79004 5.33301ZM6.81445 5.87402C7.18153 5.86791 7.4839 6.16031 7.49023 6.52734C7.49636 6.89447 7.204 7.19782 6.83691 7.2041C6.4697 7.21023 6.16628 6.91702 6.16016 6.5498C6.1541 6.18264 6.44727 5.88015 6.81445 5.87402ZM8.97949 5.83789C9.34641 5.83195 9.6489 6.12432 9.65527 6.49121C9.6614 6.85843 9.36819 7.16184 9.00098 7.16797C8.63392 7.17389 8.33132 6.88077 8.3252 6.51367C8.31917 6.14654 8.61234 5.84401 8.97949 5.83789ZM11.4785 5.7959C11.8457 5.78977 12.1491 6.08298 12.1553 6.4502C12.1613 6.81732 11.8681 7.11985 11.501 7.12598C11.1338 7.13209 10.8313 6.83889 10.8252 6.47168C10.8193 6.10478 11.1116 5.80218 11.4785 5.7959Z"
            fill="currentColor" />
    </g>
    <defs>
        <clipPath id="clip0_1134_19763">
            <rect width="16" height="16" fill="white" transform="translate(4 4)" />
        </clipPath>
    </defs>
</svg>