<svg width="14" height="14" viewBox="0 0 14 14" fill="none" xmlns="http://www.w3.org/2000/svg">
    <path
        d="M7 1.16797C10.2217 1.16797 12.833 3.77932 12.833 7.00098C12.833 10.2226 10.2217 12.834 7 12.834C3.77834 12.834 1.16699 10.2226 1.16699 7.00098C1.16699 3.77932 3.77834 1.16797 7 1.16797ZM7 2.33398C4.42267 2.33398 2.33301 4.42365 2.33301 7.00098C2.33301 9.57831 4.42267 11.668 7 11.668C9.57733 11.668 11.667 9.57831 11.667 7.00098C11.667 4.42365 9.57733 2.33398 7 2.33398ZM8.16699 4.95898C8.64998 4.95916 9.04182 5.35099 9.04199 5.83398V8.16797C9.04182 8.65096 8.64998 9.04279 8.16699 9.04297H5.83301C5.35002 9.04279 4.95818 8.65096 4.95801 8.16797V5.83398C4.95818 5.35099 5.35002 4.95916 5.83301 4.95898H8.16699Z"
        fill="currentColor" />
</svg>