<svg width="28" height="28" viewBox="0 0 28 28" fill="none" xmlns="http://www.w3.org/2000/svg">
<g clip-path="url(#clip0_5211_42532)">
<path d="M21.2002 19.8506C21.1999 20.5958 20.4837 21.1999 19.6006 21.2002H8.39941C7.51623 21.1999 6.80013 20.5958 6.7998 19.8506V9.5H21.2002V19.8506ZM9.52148 18.1357C9.23404 18.1357 9.00033 18.329 9 18.5674C9 18.806 9.23384 19 9.52148 19H13.3955C13.6829 18.9997 13.916 18.8058 13.916 18.5674C13.9157 18.3292 13.6827 18.136 13.3955 18.1357H9.52148ZM9.52148 16C9.23409 16 9.00041 16.1933 9 16.4316C9 16.6702 9.23384 16.8643 9.52148 16.8643H15.4795C15.7668 16.8639 16 16.67 16 16.4316C15.9996 16.1935 15.7665 16.0003 15.4795 16H9.52148ZM14.0059 11C13.6815 11 13.3897 11.0734 13.1318 11.2207C12.8741 11.3669 12.6702 11.5802 12.5205 11.8594C12.3709 12.1385 12.2959 12.4772 12.2959 12.875C12.2959 13.2719 12.3708 13.6104 12.5205 13.8896C12.6702 14.1687 12.8742 14.382 13.1318 14.5293C13.3897 14.6766 13.6815 14.75 14.0059 14.75C14.235 14.75 14.4469 14.7107 14.6436 14.6367L14.8555 14.8955C14.909 14.9613 14.9894 15 15.0742 15C15.3104 14.9997 15.4413 14.7267 15.2939 14.542L15.1357 14.3438C15.2752 14.2196 15.393 14.0692 15.4883 13.8916C15.6392 13.6123 15.7148 13.2731 15.7148 12.875C15.7148 12.477 15.6392 12.1386 15.4883 11.8594C15.3386 11.5802 15.1349 11.3669 14.876 11.2207C14.6182 11.0734 14.3278 11 14.0059 11ZM10.4336 11C10.1676 11 9.92973 11.0461 9.7207 11.1387C9.5117 11.2313 9.34655 11.3603 9.22656 11.5254C9.10776 11.6906 9.04862 11.8845 9.0498 12.1055C9.04869 12.375 9.13731 12.5899 9.31543 12.749C9.49366 12.9082 9.7372 13.0247 10.0449 13.0996L10.4424 13.1992C10.5754 13.2313 10.6878 13.2674 10.7793 13.3066C10.8719 13.3458 10.9417 13.3935 10.9893 13.4492C11.038 13.5051 11.0625 13.5743 11.0625 13.6562C11.0624 13.7441 11.0358 13.822 10.9824 13.8896C10.929 13.9573 10.8532 14.0099 10.7559 14.0479C10.6597 14.0858 10.5465 14.1054 10.416 14.1055C10.2831 14.1055 10.1633 14.0852 10.0576 14.0449C9.95313 14.0033 9.86862 13.9421 9.80566 13.8613C9.69428 13.7135 9.55712 13.5547 9.37207 13.5547H9.34473C9.13081 13.5548 8.94969 13.7342 9.0127 13.9385C9.04414 14.0399 9.08806 14.1328 9.14453 14.2158C9.26684 14.3927 9.43706 14.5259 9.6543 14.6162C9.87292 14.7065 10.1301 14.7519 10.4248 14.752C10.7217 14.7519 10.9753 14.7072 11.1855 14.6182C11.397 14.5279 11.5592 14.402 11.6709 14.2393C11.7838 14.0753 11.8406 13.8806 11.8418 13.6572C11.8406 13.5053 11.8124 13.3705 11.7578 13.2529C11.7043 13.1354 11.6286 13.033 11.5312 12.9463C11.4339 12.8597 11.3185 12.7869 11.1855 12.7275C11.0525 12.6681 10.9063 12.6206 10.7471 12.585L10.4189 12.5059C10.3395 12.4881 10.2643 12.4673 10.1943 12.4424C10.1243 12.4163 10.0622 12.386 10.0088 12.3516C9.95543 12.316 9.91367 12.2732 9.88281 12.2246C9.85316 12.176 9.83947 12.1189 9.8418 12.0537C9.8418 11.9753 9.86405 11.9046 9.90918 11.8428C9.9555 11.7811 10.0227 11.7337 10.1094 11.6992C10.196 11.6636 10.302 11.6456 10.4277 11.6455C10.613 11.6455 10.76 11.6851 10.8682 11.7646C10.8806 11.7738 10.8931 11.7839 10.9043 11.7939C11.0516 11.9257 11.2029 12.0995 11.4004 12.0996C11.6154 12.0996 11.7978 11.9177 11.7188 11.7178C11.6921 11.6504 11.6585 11.5858 11.6172 11.5254C11.5043 11.3603 11.3457 11.2313 11.1426 11.1387C10.9407 11.0461 10.7043 11 10.4336 11ZM16.6729 11.0498C16.4598 11.0499 16.2872 11.2225 16.2871 11.4355V14.1611C16.2871 14.4589 16.5284 14.7001 16.8262 14.7002H18.3057C18.4814 14.7002 18.624 14.5576 18.624 14.3818C18.6238 14.2063 18.4813 14.0645 18.3057 14.0645H17.4199C17.2206 14.0644 17.0587 13.9024 17.0586 13.7031V11.4355C17.0585 11.2225 16.8859 11.0498 16.6729 11.0498ZM14.0059 11.6826C14.1923 11.6826 14.3552 11.7289 14.4941 11.8203C14.633 11.9118 14.7404 12.0458 14.8164 12.2227C14.8936 12.3997 14.9326 12.6172 14.9326 12.875C14.9326 13.1328 14.8936 13.3503 14.8164 13.5273C14.775 13.6237 14.7231 13.7063 14.6631 13.7773L14.4727 13.5322C14.423 13.4686 14.3464 13.4316 14.2656 13.4316C14.0493 13.432 13.9269 13.6791 14.0576 13.8516L14.2041 14.0459C14.1412 14.0586 14.0754 14.0674 14.0059 14.0674C13.8195 14.0674 13.6565 14.022 13.5176 13.9307C13.3786 13.8392 13.2696 13.7044 13.1924 13.5273C13.1164 13.3504 13.0791 13.1327 13.0791 12.875C13.0791 12.6173 13.1164 12.3997 13.1924 12.2227C13.2696 12.0456 13.3786 11.9118 13.5176 11.8203C13.6566 11.7289 13.8194 11.6826 14.0059 11.6826Z" fill="#6E7B8D"/>
<path opacity="0.32" d="M19.7601 6.7998C20.5551 6.8 21.1995 7.44444 21.1998 8.23945V9.59999H6.7998V8.23945C6.80002 7.44444 7.44445 6.79999 8.23945 6.7998H19.7601ZM8.1999 7.59961C7.86869 7.59971 7.59971 7.86868 7.59961 8.1999C7.59977 8.53107 7.86873 8.7992 8.1999 8.79931C8.53102 8.79914 8.79915 8.53103 8.79931 8.1999C8.7992 7.86872 8.53105 7.59977 8.1999 7.59961ZM9.99989 7.59961C9.66869 7.59971 9.39971 7.86868 9.3996 8.1999C9.39977 8.53106 9.66873 8.7992 9.99989 8.79931C10.331 8.79913 10.5991 8.53101 10.5993 8.1999C10.5992 7.86873 10.331 7.59979 9.99989 7.59961ZM11.799 7.59961C11.468 7.5999 11.1997 7.8688 11.1996 8.1999C11.1998 8.53094 11.468 8.79902 11.799 8.79931C12.1303 8.79931 12.3991 8.53112 12.3993 8.1999C12.3992 7.86862 12.1303 7.59961 11.799 7.59961Z" fill="#6E7B8D"/>
</g>
<defs>
<clipPath id="clip0_5211_42532">
<rect width="16" height="16" fill="white" transform="translate(6 6)"/>
</clipPath>
</defs>
</svg>
