<svg
  width="14"
  height="14"
  viewBox="0 0 14 14"
  fill="none"
  xmlns="http://www.w3.org/2000/svg"
>
  <path
    d="M10.2077 1.16699C10.5298 1.16699 10.791 1.42816 10.791 1.75033V3.79199H12.8327V4.95866H10.791V9.04199H12.8327V10.2087H10.791V12.2503C10.791 12.5725 10.5298 12.8337 10.2077 12.8337H6.99935C3.77769 12.8337 1.16602 10.222 1.16602 7.00033C1.16602 3.77866 3.77769 1.16699 6.99935 1.16699H10.2077ZM6.99935 2.33366C4.42202 2.33366 2.33268 4.423 2.33268 7.00033C2.33268 9.57765 4.42202 11.667 6.99935 11.667H9.62435V2.33366H6.99935ZM8.45768 8.45866H7.29102V5.54199H8.45768V8.45866Z"
    fill="#646C85"
  />
</svg>
