<svg
  width="14"
  height="14"
  viewBox="0 0 14 14"
  fill="none"
  xmlns="http://www.w3.org/2000/svg"
>
  <path
    d="M11.0839 1.39355C11.7279 1.39392 12.2508 1.91634 12.2508 2.56045V7.34355H11.0839V2.56045H2.21768V9.67666H3.67578V10.7595L5.09082 9.85918L5.37793 9.67666H7.00078V10.8436H5.71768L2.95732 12.5997C2.76315 12.7233 2.50889 12.5838 2.50889 12.3536V10.8436H2.21768L2.09805 10.8374C1.50981 10.7776 1.05078 10.2807 1.05078 9.67666V2.56045C1.05078 1.95643 1.50981 1.45951 2.09805 1.39971L2.21768 1.39355H11.0839ZM10.2096 10.5517C10.6924 10.552 11.0843 10.9438 11.0846 11.4267C11.0846 11.9097 10.6925 12.3013 10.2096 12.3017C9.72633 12.3016 9.33457 11.9099 9.33457 11.4267C9.33484 10.9437 9.7265 10.5517 10.2096 10.5517ZM8.75146 12.0098H7.87646V10.8436H8.75146V12.0098ZM13.1265 12.0098H11.6684V10.8436H13.1265V12.0098ZM10.7927 8.21855C11.2757 8.2188 11.6677 8.61046 11.6677 9.09355C11.6677 9.57665 11.2757 9.96831 10.7927 9.96855C10.3094 9.96854 9.91768 9.5768 9.91768 9.09355C9.91768 8.61031 10.3094 8.21857 10.7927 8.21855ZM9.33457 9.67666H7.87646V8.51045H9.33457V9.67666ZM13.1265 9.67666H12.2515V8.51045H13.1265V9.67666ZM4.84268 6.35166H3.67578V5.18545H4.84268V6.35166ZM9.91699 6.35166H5.71699V5.18545H9.91699V6.35166Z"
    fill="#646C85"
  />
</svg>
