<svg
  width="14"
  height="14"
  viewBox="0 0 14 14"
  fill="none"
  xmlns="http://www.w3.org/2000/svg"
>
  <path d="M6.24089 8.28353H3.32422V7.11686H6.24089V8.28353Z" fill="#646C85" />
  <path d="M7.99089 5.36686H3.32422V4.2002H7.99089V5.36686Z" fill="#646C85" />
  <path
    fill-rule="evenodd"
    clip-rule="evenodd"
    d="M9.15755 0.700195C9.80188 0.700196 10.3242 1.22253 10.3242 1.86686V2.4502H11.868C12.4651 2.45024 12.9492 2.93429 12.9492 3.53141V11.869L12.9478 11.9245C12.9188 12.4958 12.4465 12.9502 11.868 12.9502H1.86589C1.22155 12.9502 0.699219 12.4279 0.699219 11.7835V1.86686C0.699219 1.22253 1.22155 0.700197 1.86589 0.700195H9.15755ZM1.86589 11.7835H9.15755V1.86686H1.86589V11.7835ZM10.3242 11.7835H11.7826V3.61686H10.3242V11.7835Z"
    fill="#646C85"
  />
</svg>
