<svg
  width="14"
  height="14"
  viewBox="0 0 14 14"
  fill="none"
  xmlns="http://www.w3.org/2000/svg"
>
  <path
    d="M5.24971 1.45801C5.89404 1.45801 6.41637 1.98035 6.41638 2.62467V5.0426C6.60129 4.98754 6.7972 4.95801 7 4.95801C8.12758 4.95801 9.04167 5.87209 9.04167 6.99967C9.04167 8.12726 8.12758 9.04134 7 9.04134C6.79714 9.04134 6.60134 9.01127 6.41638 8.95618L6.41667 11.3747C6.41667 12.019 5.89432 12.5413 5.25 12.5413H2.04167C1.39733 12.5413 0.875 12.019 0.875 11.3747V2.62467C0.875 1.98034 1.39733 1.45801 2.04167 1.45801H5.24971ZM11.958 1.45801C12.6024 1.45801 13.1247 1.98035 13.1247 2.62467L13.125 11.3747C13.125 12.019 12.6027 12.5413 11.9583 12.5413H8.45833C7.814 12.5413 7.29167 12.019 7.29167 11.3747V9.90153C8.76553 9.75517 9.91667 8.51205 9.91667 6.99967C9.91667 5.48729 8.76555 4.24388 7.29167 4.09753V2.62467C7.29167 1.98034 7.814 1.45801 8.45833 1.45801H11.958ZM8.45833 3.18551C9.99343 3.77273 11.0833 5.25809 11.0833 6.99967C11.0833 8.74128 9.99325 10.2258 8.45833 10.813V11.3747H11.9583L11.958 2.62467H8.45833V3.18551ZM2.04167 11.3747H5.25L5.24943 8.17375C5.24939 7.78347 5.62534 7.50325 5.99939 7.61462L6.74935 7.83793C6.82932 7.86175 6.91311 7.87467 7 7.87467C7.48325 7.87467 7.875 7.48292 7.875 6.99967C7.875 6.51643 7.48325 6.12467 7 6.12467C6.911 6.12467 6.82722 6.13766 6.74935 6.16085L5.99939 6.38416C5.62544 6.49539 5.24977 6.21518 5.24971 5.82503V2.62467H2.04167V11.3747ZM3.94377 8.16634H2.7771V5.83301H3.94377V8.16634Z"
    fill="#646C85"
  />
</svg>
