<svg
  width="14"
  height="14"
  viewBox="0 0 14 14"
  fill="none"
  xmlns="http://www.w3.org/2000/svg"
>
  <path d="M9.04102 13.4163H4.95768V12.2497H9.04102V13.4163Z" fill="#646C85" />
  <path
    d="M8.74935 6.41634H7.58268V8.16634H6.41602V6.41634H5.24935V5.24967H8.74935V6.41634Z"
    fill="#646C85"
  />
  <path
    fill-rule="evenodd"
    clip-rule="evenodd"
    d="M6.99935 0.583008C9.73775 0.583017 11.9577 2.80294 11.9577 5.54134C11.9577 7.18189 11.1608 8.63618 9.93311 9.53866L9.84367 9.60929C9.64154 9.78106 9.48462 10.0018 9.41614 10.2587L9.27201 10.8002L9.24268 10.8942C9.08872 11.3233 8.69728 11.6242 8.24292 11.6624L8.14465 11.6663H5.85404L5.75578 11.6624C5.30138 11.6242 4.91001 11.3234 4.75602 10.8942L4.72668 10.8005L4.58228 10.2584C4.51375 10.0016 4.35682 9.781 4.15474 9.60929L4.06559 9.53866C2.83796 8.63616 2.04103 7.18185 2.04102 5.54134C2.04102 2.80293 4.26094 0.583008 6.99935 0.583008ZM6.99935 1.74967C4.90527 1.74967 3.20768 3.44726 3.20768 5.54134C3.20769 6.79492 3.81505 7.90654 4.75659 8.59871C5.16629 8.89994 5.54846 9.35469 5.70935 9.95793L5.85404 10.4997H8.14465L8.28906 9.95821C8.44993 9.35476 8.83225 8.89972 9.24211 8.59843C10.1837 7.90624 10.791 6.79485 10.791 5.54134C10.791 3.44727 9.09342 1.74968 6.99935 1.74967Z"
    fill="#646C85"
  />
</svg>
