<svg
  width="14"
  height="14"
  viewBox="0 0 14 14"
  fill="none"
  xmlns="http://www.w3.org/2000/svg"
>
  <path
    d="M5.88269 7.5231C6.1622 8.11251 6.86098 8.37986 7.45646 8.11858C7.609 8.05636 7.74725 7.9637 7.86277 7.84626C7.9783 7.72882 8.06868 7.58906 8.12838 7.43552C8.18809 7.28199 8.21588 7.11789 8.21005 6.95326C8.20422 6.78862 8.16489 6.6269 8.09448 6.47797C8.02464 6.32874 7.92508 6.19533 7.8019 6.08591C7.67872 5.97648 7.5345 5.89335 7.37808 5.84159C7.22166 5.78982 7.05632 5.77053 6.89218 5.78487C6.72804 5.79922 6.56856 5.84691 6.42349 5.92503C5.84016 6.22277 5.60318 6.9337 5.88269 7.5231Z"
    fill="#646C85"
  />
  <path
    d="M11.551 6.98782C12.6326 5.0434 12.742 3.07467 11.8183 2.15107C10.8947 1.23354 8.91386 1.34291 6.96944 2.4245C5.03109 1.36114 3.06844 1.25785 2.15091 2.17537C1.23338 3.0929 1.33668 5.04947 2.40612 6.98782C1.33668 8.9201 1.23338 10.8828 2.15091 11.7942C2.4365 12.0798 2.82538 12.2803 3.27503 12.3775C4.2837 12.5902 5.59011 12.2985 6.96336 11.5451C8.34876 12.3107 9.6734 12.6145 10.6882 12.4018C11.1317 12.3046 11.5267 12.1041 11.8123 11.8185C12.0979 11.5329 12.3045 11.144 12.3956 10.7005C12.6143 9.68571 12.3105 8.36715 11.5449 6.98782H11.551ZM3.01982 3.03821C3.39048 2.66755 4.07103 2.6311 5.04932 2.92276C5.29237 2.99568 5.53542 3.08682 5.77848 3.19012C5.29237 3.54862 4.83057 3.94966 4.39307 4.38716C3.94343 4.83073 3.53631 5.30468 3.17173 5.79686C3.06844 5.55381 2.97729 5.31076 2.90437 5.06163C2.60663 4.08334 2.64309 3.40279 3.01982 3.03213V3.03821ZM5.04932 11.0468C4.06495 11.3446 3.39048 11.302 3.01982 10.9314C2.64917 10.5607 2.61271 9.88623 2.90437 8.90187C2.97729 8.65881 3.06844 8.41576 3.17173 8.17271C3.90659 9.16404 4.78279 10.0423 5.7724 10.7795C5.52935 10.8828 5.2863 10.9739 5.04324 11.0468H5.04932ZM5.25591 8.71958C4.68474 8.1484 4.20471 7.57115 3.8219 6.98175C4.20471 6.39234 4.68474 5.81509 5.25591 5.24392C5.82101 4.67882 6.39219 4.21094 6.96944 3.82813C7.55884 4.21094 8.14217 4.69097 8.71334 5.26215C9.27844 5.82725 9.7524 6.39842 10.1352 6.97567C9.7524 7.55292 9.27844 8.1241 8.71334 8.6892C8.13609 9.26037 7.55884 9.7404 6.96944 10.1232C6.39219 9.7404 5.82101 9.27252 5.25591 8.70742V8.71958ZM10.9494 10.9557C10.5788 11.3263 9.89823 11.3628 8.91994 11.0711C8.66473 10.9921 8.40953 10.901 8.15432 10.7916C8.65258 10.427 9.12653 10.0199 9.57618 9.57026C10.0198 9.13277 10.4208 8.66489 10.7793 8.17878C10.8887 8.42791 10.9798 8.68312 11.0588 8.93833C11.3565 9.91662 11.3201 10.5972 10.9434 10.9678L10.9494 10.9557ZM11.0649 5.0434C10.9859 5.2986 10.8947 5.55381 10.7854 5.80294C10.4269 5.31683 10.0198 4.84896 9.57618 4.40538C9.12653 3.95574 8.65258 3.54862 8.15432 3.18404C8.40953 3.07467 8.66473 2.97745 8.91994 2.89845C9.9043 2.60071 10.5788 2.64325 10.9494 3.0139C11.3201 3.38456 11.3565 4.05903 11.0649 5.0434Z"
    fill="#646C85"
  />
</svg>
