<svg
  width="14"
  height="14"
  viewBox="0 0 14 14"
  fill="none"
  xmlns="http://www.w3.org/2000/svg"
>
  <g clip-path="url(#clip0_12910_39525)">
    <path
      d="M9.96167 0.876139C10.424 0.899563 10.7917 1.28184 10.7917 1.75V2.1875H11.0833C12.2109 2.1875 13.125 3.10159 13.125 4.22917V5.6875C13.125 6.81508 12.2109 7.72917 11.0833 7.72917H10.7917V8.16667L10.7905 8.21167C10.7679 8.6591 10.4091 9.01786 9.96167 9.04053L9.91667 9.04167H4.08333C3.60008 9.04167 3.20833 8.64992 3.20833 8.16667V7.58333H2.91667C2.43342 7.58333 2.04167 7.97508 2.04167 8.45833V10.2083C2.04167 10.6916 2.43342 11.0833 2.91667 11.0833H3.20833V10.5C3.20833 10.0168 3.60008 9.625 4.08333 9.625H9.91667L9.96167 9.62614C10.424 9.64956 10.7917 10.0318 10.7917 10.5V12.5417L10.7905 12.5867C10.7679 13.0341 10.4091 13.3929 9.96167 13.4155L9.91667 13.4167H4.08333C3.60008 13.4167 3.20833 13.0249 3.20833 12.5417V12.25H2.91667C1.78909 12.25 0.875 11.3359 0.875 10.2083V8.45833C0.875 7.33075 1.78909 6.41667 2.91667 6.41667H3.20833V6.125C3.20833 5.64175 3.60008 5.25 4.08333 5.25H9.91667L9.96167 5.25114C10.424 5.27456 10.7917 5.65684 10.7917 6.125V6.5625H11.0833C11.5666 6.5625 11.9583 6.17075 11.9583 5.6875V4.22917C11.9583 3.74592 11.5666 3.35417 11.0833 3.35417H10.7917V3.79167L10.7905 3.83667C10.7679 4.2841 10.4091 4.64286 9.96167 4.66553L9.91667 4.66667H4.08333C3.60008 4.66667 3.20833 4.27492 3.20833 3.79167V1.75C3.20833 1.26675 3.60008 0.875 4.08333 0.875H9.91667L9.96167 0.876139ZM4.375 12.25H9.625V10.7917H4.375V12.25ZM4.375 7.875H9.625V6.41667H4.375V7.875ZM4.375 3.5H9.625V2.04167H4.375V3.5Z"
      fill="#646C85"
    />
  </g>
  <defs>
    <clipPath id="clip0_12910_39525">
      <rect width="14" height="14" fill="white" />
    </clipPath>
  </defs>
</svg>
