<svg width="24" height="24" viewBox="0 0 24 24" fill="none" xmlns="http://www.w3.org/2000/svg">
<g id="8. &#229;&#155;&#190;&#230;&#160;&#135;/&#233;&#153;&#132;&#228;&#187;&#182;/APK">
<g id="&#231;&#188;&#150;&#231;&#187;&#132;">
<path id="&#229;&#189;&#162;&#231;&#138;&#182;&#231;&#187;&#147;&#229;&#144;&#136;" d="M15 1L21 7V21C21 22.1046 20.1046 23 19 23H5C3.89543 23 3 22.1046 3 21V3C3 1.89543 3.89543 1 5 1H15Z" fill="#54CC39"/>
<mask id="mask0_330139_438" style="mask-type:luminance" maskUnits="userSpaceOnUse" x="3" y="1" width="18" height="22">
<path id="&#229;&#189;&#162;&#231;&#138;&#182;&#231;&#187;&#147;&#229;&#144;&#136;_2" d="M15 1L21 7V21C21 22.1046 20.1046 23 19 23H5C3.89543 23 3 22.1046 3 21V3C3 1.89543 3.89543 1 5 1H15Z" fill="white"/>
</mask>
<g mask="url(#mask0_330139_438)">
<path id="&#231;&#159;&#169;&#229;&#189;&#162;" fill-rule="evenodd" clip-rule="evenodd" d="M15 1L21 7H17C15.8954 7 15 6.10457 15 5V1Z" fill="#A5E693"/>
</g>
</g>
<g id="&#229;&#189;&#162;&#231;&#138;&#182;" filter="url(#filter0_d_330139_438)">
<path d="M15.1895 15.9023C15.1894 16.1845 14.944 16.4043 14.6328 16.4043H14V17.8057C13.9997 18.1611 13.6774 18.4531 13.2891 18.4531C12.8892 18.4531 12.5784 18.1611 12.5781 17.8057V16.4043H11.4668V17.8057C11.4665 18.161 11.1445 18.4529 10.7559 18.4531C10.356 18.4531 10.0452 18.1611 10.0449 17.8057V16.4043H9.41113C9.1002 16.4043 8.85557 16.1741 8.85547 15.9023V11.29H15.1895V15.9023ZM7.71094 11.2705C8.11086 11.2705 8.42175 11.5626 8.42188 11.918V14.4385C8.42171 14.794 8.11083 15.0869 7.71094 15.0869C7.31098 15.0869 7.00002 14.7939 7 14.4385V11.918C7 11.5628 7.32247 11.2696 7.71094 11.2695V11.2705ZM16.2891 11.2705C16.6777 11.2705 16.9889 11.5627 17 11.918V14.4385C16.9998 14.794 16.6777 15.0869 16.2891 15.0869C15.8891 15.0869 15.5781 14.7939 15.5781 14.4385V11.918C15.5781 11.5626 15.9001 11.2695 16.2891 11.2695V11.2705ZM9.94434 8.01758C9.98875 7.98628 10.0553 7.99682 10.0889 8.04883L10.6895 8.83301C11.0893 8.68677 11.5334 8.61328 12 8.61328C12.4468 8.61456 12.8901 8.68912 13.3105 8.83301L13.9111 8.04883C13.9447 8.0071 14.0112 7.98625 14.0557 8.01758C14.111 8.03853 14.1108 8.10112 14.0889 8.15332L13.5 8.90625C14.4332 9.29327 15.0777 10.0252 15.1777 10.8828H8.85547C8.93347 10.0254 9.58879 9.29305 10.5107 8.90625L9.92188 8.15332C9.88955 8.10976 9.89948 8.04959 9.94434 8.01758ZM10.667 9.47168C10.478 9.47168 10.3223 9.60721 10.3223 9.78516C10.3224 9.96276 10.4671 10.0986 10.667 10.0986C10.8556 10.0985 11.0106 9.96268 11.0107 9.78516C11.0107 9.60728 10.8669 9.47179 10.667 9.47168ZM13.3779 9.47168C13.1892 9.47168 13.0332 9.60721 13.0332 9.78516C13.0333 9.96276 13.178 10.0986 13.3779 10.0986C13.5668 10.0986 13.7225 9.9627 13.7227 9.78516C13.7227 9.60726 13.5778 9.47176 13.3779 9.47168Z" fill="white"/>
</g>
</g>
<defs>
<filter id="filter0_d_330139_438" x="7" y="8" width="12" height="12.4531" filterUnits="userSpaceOnUse" color-interpolation-filters="sRGB">
<feFlood flood-opacity="0" result="BackgroundImageFix"/>
<feColorMatrix in="SourceAlpha" type="matrix" values="0 0 0 0 0 0 0 0 0 0 0 0 0 0 0 0 0 0 127 0" result="hardAlpha"/>
<feOffset dx="1" dy="1"/>
<feGaussianBlur stdDeviation="0.5"/>
<feColorMatrix type="matrix" values="0 0 0 0 0.207843 0 0 0 0 0.686275 0 0 0 0 0.117647 0 0 0 0.429713 0"/>
<feBlend mode="normal" in2="BackgroundImageFix" result="effect1_dropShadow_330139_438"/>
<feBlend mode="normal" in="SourceGraphic" in2="effect1_dropShadow_330139_438" result="shape"/>
</filter>
</defs>
</svg>
