<svg width="16" height="16" viewBox="0 0 16 16" fill="none" xmlns="http://www.w3.org/2000/svg">
<g clip-path="url(#clip0_488_7160)">
<path d="M10 0.666626L14 4.66663V13.3336C13.9998 14.438 13.1045 15.3336 12 15.3336H4C2.89554 15.3336 2.00018 14.438 2 13.3336V2.66663C2 1.56206 2.89543 0.666626 4 0.666626H10Z" fill="#F25788"/>
<mask id="mask0_488_7160" style="mask-type:luminance" maskUnits="userSpaceOnUse" x="2" y="0" width="12" height="16">
<path d="M10 0.666626L14 4.66663V13.3336C13.9998 14.438 13.1045 15.3336 12 15.3336H4C2.89554 15.3336 2.00018 14.438 2 13.3336V2.66663C2 1.56206 2.89543 0.666626 4 0.666626H10Z" fill="white"/>
</mask>
<g mask="url(#mask0_488_7160)">
<path fill-rule="evenodd" clip-rule="evenodd" d="M10 0.666626L14 4.66663H12C10.8954 4.66663 10 3.7712 10 2.66663V0.666626Z" fill="#FFADC5"/>
</g>
<g filter="url(#filter0_d_488_7160)">
<path d="M10.3134 7.32577C10.2981 7.31022 10.2668 7.2783 10.2507 7.2783L6.86533 5.37138C6.834 5.33946 6.80266 5.32391 6.77214 5.33946H6.75687C6.72554 5.33946 6.69421 5.37138 6.67895 5.38693C6.64761 5.41885 6.63235 5.45076 6.63235 5.49823C6.63235 6.68985 6.63235 7.9134 6.64761 9.1042C6.4299 9.05673 6.19532 9.07228 5.94547 9.13612C5.63376 9.23105 5.38472 9.3751 5.2128 9.59689C5.19753 9.61244 5.19753 9.62881 5.19753 9.62881C5.01035 9.86779 4.94769 10.1215 5.02642 10.3752C5.08908 10.6142 5.261 10.8041 5.55664 10.9309C5.82175 11.0259 6.10213 11.0259 6.4299 10.9309C6.74161 10.8515 6.99065 10.6919 7.16257 10.4865C7.17912 10.4706 7.24716 10.3908 7.24716 10.3752C7.32508 10.2803 7.36051 10.0859 7.36959 10.0616C7.37546 10.0459 7.38029 10.0296 7.38029 10.011V9.91526V6.63871L9.57911 7.8778L9.59437 10.773C9.37585 10.7255 9.14207 10.741 8.90829 10.8049C8.58052 10.8998 8.34754 11.0439 8.15955 11.2812C7.9563 11.5202 7.89444 11.7739 7.97237 12.0276C8.03503 12.2821 8.20695 12.472 8.50259 12.5841C8.7677 12.6791 9.06415 12.6954 9.37585 12.616C9.68756 12.5211 9.93661 12.3771 10.1085 12.1553C10.1238 12.1397 10.1238 12.1234 10.1238 12.1234C10.2636 11.949 10.3262 11.7739 10.3262 11.5832V7.40597C10.3286 7.37406 10.3134 7.35851 10.3134 7.32577Z" fill="white"/>
</g>
</g>
<defs>
<filter id="filter0_d_488_7160" x="4.99316" y="5.33337" width="5.33301" height="8.33337" filterUnits="userSpaceOnUse" color-interpolation-filters="sRGB">
<feFlood flood-opacity="0" result="BackgroundImageFix"/>
<feColorMatrix in="SourceAlpha" type="matrix" values="0 0 0 0 0 0 0 0 0 0 0 0 0 0 0 0 0 0 127 0" result="hardAlpha"/>
<feOffset dy="1"/>
<feColorMatrix type="matrix" values="0 0 0 0 0.6 0 0 0 0 0.0588235 0 0 0 0 0.27451 0 0 0 0.3 0"/>
<feBlend mode="normal" in2="BackgroundImageFix" result="effect1_dropShadow_488_7160"/>
<feBlend mode="normal" in="SourceGraphic" in2="effect1_dropShadow_488_7160" result="shape"/>
</filter>
<clipPath id="clip0_488_7160">
<rect width="16" height="16" fill="white"/>
</clipPath>
</defs>
</svg>
