<svg width="24" height="24" viewBox="0 0 24 24" fill="none" xmlns="http://www.w3.org/2000/svg">
<path d="M15 1L21 7V21C21 22.1046 20.1046 23 19 23H5C3.89543 23 3 22.1046 3 21V3C3 1.89543 3.89543 1 5 1H15Z" fill="#7073FF"/>
<mask id="mask0_330575_1273" style="mask-type:luminance" maskUnits="userSpaceOnUse" x="3" y="1" width="18" height="22">
<path d="M15 1L21 7V21C21 22.1046 20.1046 23 19 23H5C3.89543 23 3 22.1046 3 21V3C3 1.89543 3.89543 1 5 1H15Z" fill="white"/>
</mask>
<g mask="url(#mask0_330575_1273)">
<path fill-rule="evenodd" clip-rule="evenodd" d="M15 1L21 7H17C15.8954 7 15 6.10457 15 5V1Z" fill="#B8BBFF"/>
</g>
<g filter="url(#filter0_d_330575_1273)">
<path d="M15.4696 10.9886C15.4467 10.9653 15.3997 10.9174 15.3756 10.9174L10.2975 8.057C10.2505 8.00913 10.2035 7.9858 10.1577 8.00913H10.1348C10.0878 8.00913 10.0408 8.057 10.0179 8.08033C9.97093 8.12821 9.94804 8.17609 9.94804 8.24729C9.94804 10.0347 9.94804 11.87 9.97093 13.6562C9.64436 13.585 9.29249 13.6084 8.91772 13.7041C8.45016 13.8465 8.07659 14.0626 7.81871 14.3953C7.79581 14.4186 7.79581 14.4432 7.79581 14.4432C7.51504 14.8016 7.42104 15.1822 7.53914 15.5628C7.63313 15.9212 7.89101 16.206 8.33447 16.3963C8.73214 16.5387 9.1527 16.5387 9.64436 16.3963C10.1119 16.2772 10.4855 16.0378 10.7434 15.7297C10.7682 15.7058 10.8702 15.5861 10.8702 15.5628C10.9871 15.4203 11.0403 15.1288 11.0539 15.0924C11.0627 15.0688 11.0699 15.0444 11.0699 15.0165V14.8728V9.95801L14.3682 11.8166L14.3911 16.1594C14.0633 16.0882 13.7126 16.1115 13.362 16.2073C12.8703 16.3497 12.5208 16.5657 12.2388 16.9217C11.934 17.2802 11.8412 17.6608 11.9581 18.0413C12.0521 18.4231 12.3099 18.7079 12.7534 18.8761C13.1511 19.0185 13.5957 19.0431 14.0633 18.924C14.5309 18.7816 14.9044 18.5655 15.1623 18.2329C15.1852 18.2095 15.1852 18.185 15.1852 18.185C15.3949 17.9235 15.4889 17.6608 15.4889 17.3747V11.1089C15.4925 11.061 15.4696 11.0377 15.4696 10.9886Z" fill="white"/>
</g>
<defs>
<filter id="filter0_d_330575_1273" x="6.48926" y="7" width="10" height="13" filterUnits="userSpaceOnUse" color-interpolation-filters="sRGB">
<feFlood flood-opacity="0" result="BackgroundImageFix"/>
<feColorMatrix in="SourceAlpha" type="matrix" values="0 0 0 0 0 0 0 0 0 0 0 0 0 0 0 0 0 0 127 0" result="hardAlpha"/>
<feOffset/>
<feGaussianBlur stdDeviation="0.5"/>
<feColorMatrix type="matrix" values="0 0 0 0 0.6 0 0 0 0 0.0588235 0 0 0 0 0.27451 0 0 0 0.3 0"/>
<feBlend mode="normal" in2="BackgroundImageFix" result="effect1_dropShadow_330575_1273"/>
<feBlend mode="normal" in="SourceGraphic" in2="effect1_dropShadow_330575_1273" result="shape"/>
</filter>
</defs>
</svg>
