<svg width="24" height="24" viewBox="0 0 24 24" fill="none" xmlns="http://www.w3.org/2000/svg">
<path d="M15 1L21 7V21C21 22.1046 20.1046 23 19 23H5C3.89543 23 3 22.1046 3 21V3C3 1.89543 3.89543 1 5 1H15Z" fill="#528EFF"/>
<mask id="mask0_332185_570" style="mask-type:luminance" maskUnits="userSpaceOnUse" x="3" y="1" width="18" height="22">
<path d="M15 1L21 7V21C21 22.1046 20.1046 23 19 23H5C3.89543 23 3 22.1046 3 21V3C3 1.89543 3.89543 1 5 1H15Z" fill="white"/>
</mask>
<g mask="url(#mask0_332185_570)">
<path fill-rule="evenodd" clip-rule="evenodd" d="M15 1L21 7H17C15.8954 7 15 6.10457 15 5V1Z" fill="#A8CAFF"/>
</g>
<g filter="url(#filter0_d_332185_570)">
<path d="M12.1016 10.2053C12.921 10.1715 13.7266 10.4271 14.376 10.928C14.9578 11.4053 15.3327 12.0891 15.4238 12.8362L15.4502 13.0032C15.4681 13.1174 15.3803 13.2209 15.2646 13.2209H13.8438C13.7588 13.2209 13.6834 13.1642 13.6611 13.0823L13.6318 12.9739C13.5668 12.6443 13.3804 12.3502 13.1094 12.1516C12.8008 11.9633 12.4421 11.8729 12.0811 11.8928C11.4451 11.8928 10.9784 12.1231 10.6816 12.5159C10.3849 12.9086 10.2354 13.46 10.2354 14.2141C10.2354 14.968 10.3685 15.5369 10.6709 15.926C10.9735 16.3152 11.457 16.5149 12.1133 16.5149C12.4811 16.5317 12.844 16.4271 13.1465 16.217C13.4487 15.9499 13.6549 15.5912 13.7334 15.1956L13.7617 15.0862C13.7833 15.0033 13.8587 14.9456 13.9443 14.9456H15.3613C15.4794 14.9457 15.5681 15.0533 15.5459 15.1692L15.5127 15.343C15.3798 16.1808 14.9432 16.9402 14.2871 17.4778C13.6737 17.9605 12.9122 18.2165 12.1318 18.2014C10.8465 18.2014 9.873 17.7862 9.23047 16.967C8.68705 16.2835 8.41016 15.3424 8.41016 14.2131C8.4102 13.084 8.70922 12.1506 9.26465 11.4465C9.91404 10.6255 10.8696 10.2053 12.1016 10.2053Z" fill="white"/>
</g>
<defs>
<filter id="filter0_d_332185_570" x="8.41016" y="10.2023" width="8.75983" height="9.62036" filterUnits="userSpaceOnUse" color-interpolation-filters="sRGB">
<feFlood flood-opacity="0" result="BackgroundImageFix"/>
<feColorMatrix in="SourceAlpha" type="matrix" values="0 0 0 0 0 0 0 0 0 0 0 0 0 0 0 0 0 0 127 0" result="hardAlpha"/>
<feOffset dx="0.810334" dy="0.810334"/>
<feGaussianBlur stdDeviation="0.405167"/>
<feColorMatrix type="matrix" values="0 0 0 0 0.0784314 0 0 0 0 0.294118 0 0 0 0 0.8 0 0 0 0.3 0"/>
<feBlend mode="normal" in2="BackgroundImageFix" result="effect1_dropShadow_332185_570"/>
<feBlend mode="normal" in="SourceGraphic" in2="effect1_dropShadow_332185_570" result="shape"/>
</filter>
</defs>
</svg>