<svg width="12" height="16" viewBox="0 0 12 16" fill="none" xmlns="http://www.w3.org/2000/svg">
<path d="M8 0.666016L12 4.66602V13.999C12 14.7353 11.4032 15.3328 10.667 15.333H1.33301C0.596778 15.3328 0 14.7353 0 13.999V1.99902C0.000176141 1.2629 0.596886 0.666191 1.33301 0.666016H8Z" fill="#E2E8F0"/>
<mask id="mask0_5857_40728" style="mask-type:luminance" maskUnits="userSpaceOnUse" x="0" y="0" width="12" height="16">
<path d="M8 0.666016L12 4.66602V13.999C12 14.7353 11.4032 15.3328 10.667 15.333H1.33301C0.596778 15.3328 0 14.7353 0 13.999V1.99902C0.000176141 1.2629 0.596886 0.666191 1.33301 0.666016H8Z" fill="white"/>
</mask>
<g mask="url(#mask0_5857_40728)">
<path fill-rule="evenodd" clip-rule="evenodd" d="M8 0.666016L12 4.66602H9.33333C8.59695 4.66602 8 4.06906 8 3.33268V0.666016Z" fill="#CBD5E1"/>
</g>
</svg>
