<svg width="14" height="14" viewBox="0 0 14 14" fill="none" xmlns="http://www.w3.org/2000/svg">
<path d="M8.75 0.583313L12.25 4.08331V11.4163C12.25 12.5209 11.3546 13.4163 10.25 13.4163H3.75C2.64543 13.4163 1.75 12.5209 1.75 11.4163V2.58331C1.75 1.47874 2.64543 0.583313 3.75 0.583313H8.75Z" fill="#54CC39"/>
<mask id="mask0_2675_580" style="mask-type:luminance" maskUnits="userSpaceOnUse" x="1" y="0" width="12" height="14">
<path d="M8.75 0.583313L12.25 4.08331V11.4163C12.25 12.5209 11.3546 13.4163 10.25 13.4163H3.75C2.64543 13.4163 1.75 12.5209 1.75 11.4163V2.58331C1.75 1.47874 2.64543 0.583313 3.75 0.583313H8.75Z" fill="white"/>
</mask>
<g mask="url(#mask0_2675_580)">
<path fill-rule="evenodd" clip-rule="evenodd" d="M8.75 0.583313L12.25 4.08331H10.75C9.64543 4.08331 8.75 3.18788 8.75 2.08331V0.583313Z" fill="#A5E693"/>
</g>
<g filter="url(#filter0_d_2675_580)">
<path d="M6.5755 9.91699C6.68581 9.91699 6.77545 10.006 6.7757 10.1162V10.5918C6.77563 10.7022 6.68591 10.792 6.5755 10.792H4.28351C4.17309 10.792 4.08338 10.7022 4.08331 10.5918V10.1162C4.08356 10.006 4.1732 9.91699 4.28351 9.91699H6.5755ZM9.7171 9.91699C9.8272 9.91724 9.91607 10.0061 9.91632 10.1162V10.5918C9.91625 10.702 9.82731 10.7917 9.7171 10.792H7.42413C7.31381 10.7919 7.22401 10.7021 7.22394 10.5918V10.1162C7.22418 10.006 7.31392 9.9171 7.42413 9.91699H9.7171ZM6.5755 8.45801C6.68591 8.45801 6.77563 8.54781 6.7757 8.6582V9.13379C6.77545 9.24404 6.68581 9.33301 6.5755 9.33301H4.28351C4.1732 9.33301 4.08356 9.24404 4.08331 9.13379V8.6582C4.08338 8.54781 4.17309 8.45801 4.28351 8.45801H6.5755ZM9.7171 8.45801C9.82731 8.45825 9.91625 8.54796 9.91632 8.6582V9.13379C9.91607 9.24388 9.8272 9.33276 9.7171 9.33301H7.42413C7.31392 9.3329 7.22418 9.24397 7.22394 9.13379V8.6582C7.22401 8.54787 7.31381 8.45812 7.42413 8.45801H9.7171ZM6.5755 7C6.68596 7 6.7757 7.08974 6.7757 7.2002V7.6748C6.7757 7.78526 6.68596 7.875 6.5755 7.875H4.28351C4.17305 7.875 4.08331 7.78526 4.08331 7.6748V7.2002C4.08331 7.08974 4.17305 7 4.28351 7H6.5755ZM9.7171 7C9.82735 7.00025 9.91632 7.08989 9.91632 7.2002V7.6748C9.91632 7.78511 9.82735 7.87475 9.7171 7.875H7.42413C7.31377 7.87489 7.22394 7.78519 7.22394 7.6748V7.2002C7.22394 7.08981 7.31377 7.00011 7.42413 7H9.7171Z" fill="white"/>
</g>
<defs>
<filter id="filter0_d_2675_580" x="4.08331" y="7" width="7.83301" height="5.79199" filterUnits="userSpaceOnUse" color-interpolation-filters="sRGB">
<feFlood flood-opacity="0" result="BackgroundImageFix"/>
<feColorMatrix in="SourceAlpha" type="matrix" values="0 0 0 0 0 0 0 0 0 0 0 0 0 0 0 0 0 0 127 0" result="hardAlpha"/>
<feOffset dx="1" dy="1"/>
<feGaussianBlur stdDeviation="0.5"/>
<feColorMatrix type="matrix" values="0 0 0 0 0.207843 0 0 0 0 0.686275 0 0 0 0 0.117647 0 0 0 0.429713 0"/>
<feBlend mode="normal" in2="BackgroundImageFix" result="effect1_dropShadow_2675_580"/>
<feBlend mode="normal" in="SourceGraphic" in2="effect1_dropShadow_2675_580" result="shape"/>
</filter>
</defs>
</svg>
