<svg width="24" height="24" viewBox="0 0 24 24" fill="none" xmlns="http://www.w3.org/2000/svg">
<path d="M2.84831 4.27679H20.7232C21.4284 4.27679 22 4.84843 22 5.55357V18.3214C22 19.0265 21.4284 19.5981 20.7232 19.5981H2.84831C2.14317 19.5981 1.57153 19.0265 1.57153 18.3214V5.55357C1.57153 4.84843 2.14317 4.27679 2.84831 4.27679Z" fill="#BADAFB"/>
<path fill-rule="evenodd" clip-rule="evenodd" d="M2.84831 3H9.7199C10.2035 3 10.6456 3.27323 10.8619 3.70579L12.1387 7.53613C12.454 8.16682 12.1984 8.93375 11.5677 9.24911C11.3904 9.33774 11.1949 9.3839 10.9967 9.3839H2.84831C2.14317 9.3839 1.57153 8.81226 1.57153 8.10712V4.27678C1.57153 3.57163 2.14317 3 2.84831 3Z" fill="#5CA3EE"/>
<path fill-rule="evenodd" clip-rule="evenodd" d="M18.1698 19.5981L9.22721 19.5981L4.12518 14.487L4.12518 6.83032C4.12518 6.12516 4.6968 5.55354 5.40196 5.55354L18.1698 5.55354C18.8749 5.55354 19.4465 6.12516 19.4465 6.83032L19.4465 18.3213C19.4465 19.0265 18.8749 19.5981 18.1698 19.5981Z" fill="white"/>
<path d="M2.84831 7.94751H20.7232C21.4284 7.94751 22 8.51914 22 9.22429V19.5981C22 20.3033 21.4284 20.8749 20.7232 20.8749H2.84831C2.14317 20.8749 1.57153 20.3033 1.57153 19.5981V9.22429C1.57153 8.51914 2.14317 7.94751 2.84831 7.94751Z" fill="#79B7F8"/>
</svg>
