<svg width="24" height="24" viewBox="0 0 24 24" fill="none" xmlns="http://www.w3.org/2000/svg">
<g id="8. &#229;&#155;&#190;&#230;&#160;&#135;/&#233;&#153;&#132;&#228;&#187;&#182;/DMG">
<g id="&#231;&#188;&#150;&#231;&#187;&#132;">
<path id="&#229;&#189;&#162;&#231;&#138;&#182;&#231;&#187;&#147;&#229;&#144;&#136;" d="M15 1L21 7V21C21 22.1046 20.1046 23 19 23H5C3.89543 23 3 22.1046 3 21V3C3 1.89543 3.89543 1 5 1H15Z" fill="#54CC39"/>
<mask id="mask0_330139_494" style="mask-type:luminance" maskUnits="userSpaceOnUse" x="3" y="1" width="18" height="22">
<path id="&#229;&#189;&#162;&#231;&#138;&#182;&#231;&#187;&#147;&#229;&#144;&#136;_2" d="M15 1L21 7V21C21 22.1046 20.1046 23 19 23H5C3.89543 23 3 22.1046 3 21V3C3 1.89543 3.89543 1 5 1H15Z" fill="white"/>
</mask>
<g mask="url(#mask0_330139_494)">
<path id="&#231;&#159;&#169;&#229;&#189;&#162;" fill-rule="evenodd" clip-rule="evenodd" d="M15 1L21 7H17C15.8954 7 15 6.10457 15 5V1Z" fill="#A5E693"/>
</g>
</g>
<g id="&#229;&#189;&#162;&#231;&#138;&#182;&#231;&#187;&#147;&#229;&#144;&#136;_3" filter="url(#filter0_d_330139_494)">
<path d="M16.7998 13.4287C16.9103 13.4287 17 13.5184 17 13.6289V17.7998C17 17.9103 16.9103 18 16.7998 18H7.2002C7.08974 18 7 17.9103 7 17.7998V13.6289C7 13.5184 7.08974 13.4287 7.2002 13.4287H16.7998ZM8.95215 15.1426C8.79446 15.1427 8.66699 15.271 8.66699 15.4287C8.66707 15.5864 8.79451 15.7137 8.95215 15.7139H15.0479C15.2055 15.7137 15.3329 15.5864 15.333 15.4287C15.333 15.271 15.2055 15.1427 15.0479 15.1426H8.95215ZM16.7998 10C16.9103 10 17 10.0897 17 10.2002V12.6572C17 12.7676 16.9102 12.8574 16.7998 12.8574H7.2002C7.08977 12.8574 7.00005 12.7676 7 12.6572V10.2002C7 10.0897 7.08974 10 7.2002 10H16.7998ZM8.94434 10.8574C8.63756 10.8575 8.38867 11.1132 8.38867 11.4287C8.38875 11.7442 8.63761 11.9999 8.94434 12C9.25112 12 9.49993 11.7442 9.5 11.4287C9.5 11.1131 9.25116 10.8574 8.94434 10.8574ZM10.6191 11.1426C10.4613 11.1426 10.333 11.2709 10.333 11.4287C10.3331 11.5864 10.4614 11.7139 10.6191 11.7139H15.0479C15.2055 11.7137 15.3329 11.5864 15.333 11.4287C15.333 11.271 15.2055 11.1427 15.0479 11.1426H10.6191Z" fill="white"/>
</g>
<ellipse id="&#230;&#164;&#173;&#229;&#156;&#134;&#229;&#189;&#162;" cx="8.94447" cy="11.4286" rx="0.555556" ry="0.571429" fill="#4DC932"/>
<rect id="&#231;&#159;&#169;&#229;&#189;&#162;_2" x="10.3333" y="11.1429" width="5" height="0.571429" rx="0.285714" fill="#4DC932"/>
<rect id="&#231;&#159;&#169;&#229;&#189;&#162;_3" x="8.66675" y="15.1429" width="6.66667" height="0.571429" rx="0.285714" fill="#4DC932"/>
</g>
<defs>
<filter id="filter0_d_330139_494" x="7" y="10" width="12" height="10" filterUnits="userSpaceOnUse" color-interpolation-filters="sRGB">
<feFlood flood-opacity="0" result="BackgroundImageFix"/>
<feColorMatrix in="SourceAlpha" type="matrix" values="0 0 0 0 0 0 0 0 0 0 0 0 0 0 0 0 0 0 127 0" result="hardAlpha"/>
<feOffset dx="1" dy="1"/>
<feGaussianBlur stdDeviation="0.5"/>
<feColorMatrix type="matrix" values="0 0 0 0 0.207843 0 0 0 0 0.686275 0 0 0 0 0.117647 0 0 0 0.429713 0"/>
<feBlend mode="normal" in2="BackgroundImageFix" result="effect1_dropShadow_330139_494"/>
<feBlend mode="normal" in="SourceGraphic" in2="effect1_dropShadow_330139_494" result="shape"/>
</filter>
</defs>
</svg>
