<svg width="24" height="24" viewBox="0 0 24 24" fill="none" xmlns="http://www.w3.org/2000/svg">
<g id="8. &#229;&#155;&#190;&#230;&#160;&#135;/&#233;&#153;&#132;&#228;&#187;&#182;/DOC">
<g id="&#231;&#188;&#150;&#231;&#187;&#132;">
<path id="&#229;&#189;&#162;&#231;&#138;&#182;&#231;&#187;&#147;&#229;&#144;&#136;" d="M15 1L21 7V21C21 22.1046 20.1046 23 19 23H5C3.89543 23 3 22.1046 3 21V3C3 1.89543 3.89543 1 5 1H15Z" fill="#528EFF"/>
<mask id="mask0_330139_169" style="mask-type:luminance" maskUnits="userSpaceOnUse" x="3" y="1" width="18" height="22">
<path id="&#229;&#189;&#162;&#231;&#138;&#182;&#231;&#187;&#147;&#229;&#144;&#136;_2" d="M15 1L21 7V21C21 22.1046 20.1046 23 19 23H5C3.89543 23 3 22.1046 3 21V3C3 1.89543 3.89543 1 5 1H15Z" fill="white"/>
</mask>
<g mask="url(#mask0_330139_169)">
<path id="&#231;&#159;&#169;&#229;&#189;&#162;" fill-rule="evenodd" clip-rule="evenodd" d="M15 1L21 7H17C15.8954 7 15 6.10457 15 5V1Z" fill="#A8CAFF"/>
</g>
</g>
<g id="W">
<g id="&#232;&#183;&#175;&#229;&#190;&#132;" filter="url(#filter0_d_330139_169)">
<path d="M9.16959 18C9.07702 18 8.99655 17.9365 8.97506 17.8464L7.36157 11.0882C7.33156 10.9625 7.42687 10.8418 7.5561 10.8418H8.62136C8.7153 10.8418 8.79657 10.9072 8.81671 10.9989L9.86133 15.7588L11.1304 10.9904C11.1537 10.9028 11.233 10.8418 11.3237 10.8418H12.7327C12.8244 10.8418 12.9043 10.9042 12.9266 10.9931L14.1436 15.8418L15.2077 10.9989C15.2278 10.9071 15.3091 10.8418 15.403 10.8418H16.4429C16.5724 10.8418 16.6678 10.9631 16.6372 11.089L14.9961 17.8472C14.9743 17.9369 14.894 18 14.8017 18H13.5795C13.4888 18 13.4095 17.9391 13.3862 17.8515L12 12.6484L10.6186 17.8513C10.5953 17.939 10.516 18 10.4253 18H9.16959Z" fill="white"/>
</g>
</g>
</g>
<defs>
<filter id="filter0_d_330139_169" x="7.35596" y="10.8418" width="11.2871" height="9.1582" filterUnits="userSpaceOnUse" color-interpolation-filters="sRGB">
<feFlood flood-opacity="0" result="BackgroundImageFix"/>
<feColorMatrix in="SourceAlpha" type="matrix" values="0 0 0 0 0 0 0 0 0 0 0 0 0 0 0 0 0 0 127 0" result="hardAlpha"/>
<feOffset dx="1" dy="1"/>
<feGaussianBlur stdDeviation="0.5"/>
<feColorMatrix type="matrix" values="0 0 0 0 0.0784314 0 0 0 0 0.294118 0 0 0 0 0.8 0 0 0 0.3 0"/>
<feBlend mode="normal" in2="BackgroundImageFix" result="effect1_dropShadow_330139_169"/>
<feBlend mode="normal" in="SourceGraphic" in2="effect1_dropShadow_330139_169" result="shape"/>
</filter>
</defs>
</svg>
