<?xml version="1.0" encoding="UTF-8"?><svg version="1.1" width="24px" height="24px" viewBox="0 0 24.0 24.0" xmlns="http://www.w3.org/2000/svg" xmlns:xlink="http://www.w3.org/1999/xlink"><defs><clipPath id="i0"><path d="M12,0 L18,6 L18,20 C18,21.1045695 17.1045695,22 16,22 L2,22 C0.8954305,22 1.3527075e-16,21.1045695 0,20 L0,2 C-1.3527075e-16,0.8954305 0.8954305,2.02906125e-16 2,0 L12,0 Z"></path></clipPath><clipPath id="i1"><path d="M0,0 L6,6 L2,6 C0.8954305,6 1.3527075e-16,5.1045695 0,4 L0,0 Z"></path></clipPath><filter id="i2" x="-26.1072111%" y="-32.7575176%" filterUnits="userSpaceOnUse" width="153.159316%" height="165.515035%"><feGaussianBlur stdDeviation="0.5" in="SourceAlpha" result="i3"></feGaussianBlur><feOffset dx="1" dy="1" in="i3" result="i4"></feOffset><feColorMatrix values="0 0 0 0.07843137254901951 0 0 0 0 0.2941176470588234 0 0 0 0 0.8 0 0 0 0 0.3 0" type="matrix" in="i4"></feColorMatrix></filter><clipPath id="i5"><path d="M1.31862514,0 C1.41256193,1.04996673e-17 1.4938395,0.0653744126 1.51397599,0.157127571 L2.55859375,4.91699219 L3.82764937,0.148563045 C3.85096238,0.060965286 3.9302749,-1.63857007e-16 4.02092182,0 L5.42993007,0 C5.52163509,6.12450761e-16 5.60159044,0.0623681429 5.62391392,0.151314604 L6.84082031,5 L7.90493879,0.157078595 C7.92509425,0.0653488378 8.00636088,-1.53855193e-15 8.10027888,0 L9.14015117,0 C9.25060812,9.8851977e-16 9.34015117,0.0895430514 9.34015117,0.200000003 C9.34015117,0.215900564 9.33825499,0.231744394 9.33450278,0.247195892 L7.69335659,7.00539901 C7.67158105,7.09507021 7.59128227,7.15820312 7.49900498,7.15820312 L6.27673867,7.15820312 C6.18611163,7.15820312 6.10681129,7.09726406 6.08347998,7.00969175 L4.69726562,1.80664062 L3.31584231,7.00952705 C3.29256937,7.09718046 3.21323022,7.15820312 3.12253982,7.15820312 L1.86685633,7.15820312 C1.77429016,7.15820312 1.69381917,7.09468257 1.67232359,7.00464682 L0.0588371721,0.246443698 C0.0331870277,0.139006236 0.0994887486,0.0311174139 0.206926211,0.0054672695 C0.222140383,0.00183496361 0.237728144,-1.35904533e-16 0.253369906,0 L1.31862514,0 Z"></path></clipPath></defs><g transform="translate(-0.1568542494925822 -0.3137084989843757)"><g transform="translate(3.1568542494925964 1.313708498984397)"><g clip-path="url(#i0)"><polygon points="0,0 18,0 18,22 0,22 0,0" stroke="none" fill="#528EFF"></polygon><g transform="translate(12.0 0.0)"><g clip-path="url(#i1)"><polygon points="0,0 6,0 6,6 0,6 0,0" stroke="none" fill="#A8CAFF"></polygon></g></g></g></g><g transform="translate(7.459588624492596 11.155505373984397)"><path d="M1.67232359,7.00464682 L0.0588371721,0.246443698 C0.0331870277,0.139006236 0.0994887486,0.0311174139 0.206926211,0.0054672695 C0.222140383,0.00183496361 0.237728144,-1.35904533e-16 0.253369906,0 L1.31862514,0 C1.41256193,1.04996673e-17 1.4938395,0.0653744126 1.51397599,0.157127571 L2.55859375,4.91699219 L2.55859375,4.91699219 L3.82764937,0.148563045 C3.85096238,0.060965286 3.9302749,-1.63857007e-16 4.02092182,0 L5.42993007,0 C5.52163509,6.12450761e-16 5.60159044,0.0623681429 5.62391392,0.151314604 L6.84082031,5 L6.84082031,5 L7.90493879,0.157078595 C7.92509425,0.0653488378 8.00636088,-1.53855193e-15 8.10027888,0 L9.14015117,0 C9.25060812,9.8851977e-16 9.34015117,0.0895430514 9.34015117,0.200000003 C9.34015117,0.215900564 9.33825499,0.231744394 9.33450278,0.247195892 L7.69335659,7.00539901 C7.67158105,7.09507021 7.59128227,7.15820312 7.49900498,7.15820312 L6.27673867,7.15820312 C6.18611163,7.15820312 6.10681129,7.09726406 6.08347998,7.00969175 L4.69726562,1.80664062 L4.69726562,1.80664062 L3.31584231,7.00952705 C3.29256937,7.09718046 3.21323022,7.15820312 3.12253982,7.15820312 L1.86685633,7.15820312 C1.77429016,7.15820312 1.69381917,7.09468257 1.67232359,7.00464682 Z" stroke="none" fill="#000000" filter="url(#i2)"></path><g clip-path="url(#i5)"><polygon points="0.0533242794,0 9.34015117,0 9.34015117,7.15820312 0.0533242794,7.15820312 0.0533242794,0" stroke="none" fill="#FFFFFF"></polygon></g></g></g></svg>