<svg width="16" height="16" viewBox="0 0 16 16" fill="none" xmlns="http://www.w3.org/2000/svg">
<g clip-path="url(#clip0_488_7154)">
<path d="M10 0.666626L14 4.66663V13.3336C13.9998 14.438 13.1045 15.3336 12 15.3336H4C2.89554 15.3336 2.00018 14.438 2 13.3336V2.66663C2 1.56206 2.89543 0.666626 4 0.666626H10Z" fill="#528EFF"/>
<mask id="mask0_488_7154" style="mask-type:luminance" maskUnits="userSpaceOnUse" x="2" y="0" width="12" height="16">
<path d="M10 0.666626L14 4.66663V13.3336C13.9998 14.438 13.1045 15.3336 12 15.3336H4C2.89554 15.3336 2.00018 14.438 2 13.3336V2.66663C2 1.56206 2.89543 0.666626 4 0.666626H10Z" fill="white"/>
</mask>
<g mask="url(#mask0_488_7154)">
<path fill-rule="evenodd" clip-rule="evenodd" d="M10 0.666626L14 4.66663H12C10.8954 4.66663 10 3.7712 10 2.66663V0.666626Z" fill="#A8CAFF"/>
</g>
<g filter="url(#filter0_d_488_7154)">
<path d="M9.76338 6C10.2376 6.00017 10.647 6.33339 10.7429 6.79785L11.2097 9.06543C11.2735 9.37548 11.0369 9.66676 10.7204 9.66699H8.50069V12.3135H9.61397C9.72417 12.3138 9.81319 12.4034 9.81319 12.5137V13.1133C9.81312 13.2235 9.72413 13.3132 9.61397 13.3135H6.3874C6.27699 13.3135 6.18728 13.2237 6.18721 13.1133V12.5137C6.18721 12.4032 6.27695 12.3135 6.3874 12.3135H7.50069V9.66699H5.28096C4.96424 9.66699 4.7268 9.37563 4.79073 9.06543L5.2585 6.79785C5.35441 6.33333 5.76363 6 6.23799 6H9.76338ZM8.00069 6.97754C7.47482 6.97754 7.04873 7.36065 7.04854 7.83301C7.04854 8.30552 7.4747 8.68848 8.00069 8.68848C8.52647 8.68826 8.95283 8.30539 8.95283 7.83301C8.95264 7.36078 8.52635 6.97775 8.00069 6.97754Z" fill="white"/>
</g>
</g>
<defs>
<filter id="filter0_d_488_7154" x="4.78027" y="6" width="8.43945" height="9.31348" filterUnits="userSpaceOnUse" color-interpolation-filters="sRGB">
<feFlood flood-opacity="0" result="BackgroundImageFix"/>
<feColorMatrix in="SourceAlpha" type="matrix" values="0 0 0 0 0 0 0 0 0 0 0 0 0 0 0 0 0 0 127 0" result="hardAlpha"/>
<feOffset dx="1" dy="1"/>
<feGaussianBlur stdDeviation="0.5"/>
<feColorMatrix type="matrix" values="0 0 0 0 0.0784314 0 0 0 0 0.294118 0 0 0 0 0.8 0 0 0 0.3 0"/>
<feBlend mode="normal" in2="BackgroundImageFix" result="effect1_dropShadow_488_7154"/>
<feBlend mode="normal" in="SourceGraphic" in2="effect1_dropShadow_488_7154" result="shape"/>
</filter>
<clipPath id="clip0_488_7154">
<rect width="16" height="16" fill="white"/>
</clipPath>
</defs>
</svg>
