<svg width="24" height="24" viewBox="0 0 24 24" fill="none" xmlns="http://www.w3.org/2000/svg">
<path d="M15 1L21 7V21C21 22.1046 20.1046 23 19 23H5C3.89543 23 3 22.1046 3 21V3C3 1.89543 3.89543 1 5 1H15Z" fill="#528EFF"/>
<mask id="mask0_330644_875" style="mask-type:luminance" maskUnits="userSpaceOnUse" x="3" y="1" width="18" height="22">
<path d="M15 1L21 7V21C21 22.1046 20.1046 23 19 23H5C3.89543 23 3 22.1046 3 21V3C3 1.89543 3.89543 1 5 1H15Z" fill="white"/>
</mask>
<g mask="url(#mask0_330644_875)">
<g filter="url(#filter0_d_330644_875)">
<path fill-rule="evenodd" clip-rule="evenodd" d="M15.5 11C15.5 11.0491 15.4976 11.0981 15.4928 11.147C15.488 11.1959 15.4808 11.2445 15.4712 11.2926C15.4616 11.3408 15.4497 11.3884 15.4354 11.4354C15.4211 11.4824 15.4046 11.5286 15.3858 11.574C15.367 11.6194 15.346 11.6638 15.3229 11.7071C15.2997 11.7504 15.2745 11.7925 15.2472 11.8334C15.2199 11.8742 15.1907 11.9136 15.1595 11.9516C15.1283 11.9896 15.0954 12.0259 15.0606 12.0607C15.0259 12.0954 14.9896 12.1283 14.9516 12.1595C14.9136 12.1907 14.8742 12.2199 14.8334 12.2472C14.7925 12.2745 14.7504 12.2997 14.7071 12.3229C14.6638 12.346 14.6194 12.367 14.574 12.3858C14.5286 12.4046 14.4824 12.4211 14.4354 12.4354C14.3884 12.4497 14.3408 12.4616 14.2927 12.4712C14.2445 12.4808 14.1959 12.488 14.147 12.4928C14.0981 12.4976 14.0491 12.5 14 12.5C13.9509 12.5 13.9019 12.4976 13.853 12.4928C13.8041 12.488 13.7555 12.4808 13.7073 12.4712C13.6592 12.4616 13.6116 12.4497 13.5645 12.4354C13.5175 12.4211 13.4714 12.4046 13.426 12.3858C13.3806 12.367 13.3362 12.346 13.2929 12.3229C13.2496 12.2997 13.2075 12.2745 13.1666 12.2472C13.1258 12.2199 13.0864 12.1907 13.0484 12.1595C13.0104 12.1283 12.9741 12.0954 12.9394 12.0607C12.9046 12.0259 12.8717 11.9896 12.8405 11.9516C12.8093 11.9136 12.7801 11.8742 12.7528 11.8334C12.7255 11.7925 12.7003 11.7504 12.6771 11.7071C12.654 11.6638 12.633 11.6194 12.6142 11.574C12.5954 11.5286 12.5789 11.4824 12.5646 11.4354C12.5503 11.3884 12.5384 11.3408 12.5288 11.2926C12.5192 11.2445 12.512 11.1959 12.5072 11.147C12.5024 11.0981 12.5 11.0491 12.5 11C12.5 10.9509 12.5024 10.9019 12.5072 10.853C12.512 10.8041 12.5192 10.7555 12.5288 10.7074C12.5384 10.6592 12.5503 10.6116 12.5646 10.5646C12.5789 10.5176 12.5954 10.4714 12.6142 10.426C12.633 10.3806 12.654 10.3362 12.6771 10.2929C12.7003 10.2496 12.7255 10.2075 12.7528 10.1666C12.7801 10.1258 12.8093 10.0864 12.8405 10.0484C12.8717 10.0104 12.9046 9.97408 12.9394 9.93934C12.9741 9.9046 13.0104 9.87165 13.0484 9.84049C13.0864 9.80932 13.1258 9.78009 13.1666 9.75279C13.2075 9.7255 13.2496 9.70028 13.2929 9.67712C13.3362 9.65396 13.3806 9.63298 13.426 9.61418C13.4714 9.59538 13.5175 9.57885 13.5645 9.56459C13.6116 9.55033 13.6592 9.53841 13.7073 9.52882C13.7555 9.51924 13.8041 9.51204 13.853 9.50723C13.9019 9.50241 13.9509 9.5 14 9.5C14.0491 9.5 14.0981 9.50241 14.147 9.50723C14.1959 9.51204 14.2445 9.51924 14.2927 9.52882C14.3408 9.53841 14.3884 9.55033 14.4354 9.56459C14.4824 9.57885 14.5286 9.59538 14.574 9.61418C14.6194 9.63298 14.6638 9.65396 14.7071 9.67712C14.7504 9.70028 14.7925 9.7255 14.8334 9.75279C14.8742 9.78009 14.9136 9.80932 14.9516 9.84049C14.9896 9.87165 15.0259 9.9046 15.0606 9.93934C15.0954 9.97408 15.1283 10.0104 15.1595 10.0484C15.1907 10.0864 15.2199 10.1258 15.2472 10.1666C15.2745 10.2075 15.2997 10.2496 15.3229 10.2929C15.346 10.3362 15.367 10.3806 15.3858 10.426C15.4046 10.4714 15.4211 10.5176 15.4354 10.5646C15.4497 10.6116 15.4616 10.6592 15.4712 10.7074C15.4808 10.7555 15.488 10.8041 15.4928 10.853C15.4976 10.9019 15.5 10.9509 15.5 11Z" fill="white" fill-opacity="0.32"/>
<path fill-rule="evenodd" clip-rule="evenodd" d="M16 8H8C7.44772 8 7 8.44772 7 9V16C7 15.8516 7.06592 15.7109 7.17992 15.6159L10.1801 13.1159C10.3702 12.9575 10.6475 12.9619 10.8324 13.1263L12.7618 14.8414L14.1817 13.6208C14.3804 13.45 14.6774 13.4616 14.8622 13.6474L16.8545 15.6505C16.9473 15.7439 16.9997 15.8702 17 16.0017V9C17 8.44772 16.5523 8 16 8ZM15.5 11C15.5 11.0491 15.4976 11.0981 15.4928 11.147C15.488 11.1959 15.4808 11.2445 15.4712 11.2926C15.4616 11.3408 15.4497 11.3884 15.4354 11.4354C15.4211 11.4824 15.4046 11.5286 15.3858 11.574C15.367 11.6194 15.346 11.6638 15.3229 11.7071C15.2997 11.7504 15.2745 11.7925 15.2472 11.8334C15.2199 11.8742 15.1907 11.9136 15.1595 11.9516C15.1283 11.9896 15.0954 12.0259 15.0606 12.0607C15.0259 12.0954 14.9896 12.1283 14.9516 12.1595C14.9136 12.1907 14.8742 12.2199 14.8334 12.2472C14.7925 12.2745 14.7504 12.2997 14.7071 12.3229C14.6638 12.346 14.6194 12.367 14.574 12.3858C14.5286 12.4046 14.4824 12.4212 14.4354 12.4354C14.3884 12.4497 14.3408 12.4616 14.2927 12.4712C14.2445 12.4808 14.1959 12.488 14.147 12.4928C14.0981 12.4976 14.0491 12.5 14 12.5C13.9509 12.5 13.9019 12.4976 13.853 12.4928C13.8041 12.488 13.7555 12.4808 13.7073 12.4712C13.6592 12.4616 13.6116 12.4497 13.5645 12.4354C13.5175 12.4212 13.4714 12.4046 13.426 12.3858C13.3806 12.367 13.3362 12.346 13.2929 12.3229C13.2496 12.2997 13.2075 12.2745 13.1666 12.2472C13.1258 12.2199 13.0864 12.1907 13.0484 12.1595C13.0104 12.1283 12.9741 12.0954 12.9394 12.0607C12.9046 12.0259 12.8717 11.9896 12.8405 11.9516C12.8093 11.9136 12.7801 11.8742 12.7528 11.8334C12.7255 11.7925 12.7003 11.7504 12.6771 11.7071C12.654 11.6638 12.633 11.6194 12.6142 11.574C12.5954 11.5286 12.5789 11.4824 12.5646 11.4354C12.5503 11.3884 12.5384 11.3408 12.5288 11.2926C12.5192 11.2445 12.512 11.1959 12.5072 11.147C12.5024 11.0981 12.5 11.0491 12.5 11C12.5 10.9509 12.5024 10.9019 12.5072 10.853C12.512 10.8041 12.5192 10.7555 12.5288 10.7074C12.5384 10.6592 12.5503 10.6116 12.5646 10.5646C12.5789 10.5176 12.5954 10.4714 12.6142 10.426C12.633 10.3806 12.654 10.3362 12.6771 10.2929C12.7003 10.2496 12.7255 10.2075 12.7528 10.1666C12.7801 10.1258 12.8093 10.0864 12.8405 10.0484C12.8717 10.0104 12.9046 9.97408 12.9394 9.93934C12.9741 9.9046 13.0104 9.87165 13.0484 9.84049C13.0864 9.80932 13.1258 9.78009 13.1666 9.75279C13.2075 9.7255 13.2496 9.70028 13.2929 9.67712C13.3362 9.65396 13.3806 9.63298 13.426 9.61418C13.4714 9.59538 13.5175 9.57885 13.5645 9.56459C13.6116 9.55033 13.6592 9.53841 13.7073 9.52882C13.7555 9.51924 13.8041 9.51204 13.853 9.50723C13.9019 9.50241 13.9509 9.5 14 9.5C14.0491 9.5 14.0981 9.50241 14.147 9.50723C14.1959 9.51204 14.2445 9.51924 14.2927 9.52882C14.3408 9.53841 14.3884 9.55033 14.4354 9.56459C14.4824 9.57885 14.5286 9.59538 14.574 9.61418C14.6194 9.63298 14.6638 9.65396 14.7071 9.67712C14.7504 9.70028 14.7925 9.7255 14.8334 9.75279C14.8742 9.78009 14.9136 9.80932 14.9516 9.84049C14.9896 9.87165 15.0259 9.9046 15.0606 9.93934C15.0954 9.97408 15.1283 10.0104 15.1595 10.0484C15.1907 10.0864 15.2199 10.1258 15.2472 10.1666C15.2745 10.2075 15.2997 10.2496 15.3229 10.2929C15.346 10.3362 15.367 10.3806 15.3858 10.426C15.4046 10.4714 15.4211 10.5176 15.4354 10.5646C15.4497 10.6116 15.4616 10.6592 15.4712 10.7074C15.4808 10.7555 15.488 10.8041 15.4928 10.853C15.4976 10.9019 15.5 10.9509 15.5 11Z" fill="white"/>
<path fill-rule="evenodd" clip-rule="evenodd" d="M7.17992 15.6159L10.1801 13.1159C10.3702 12.9575 10.6475 12.9619 10.8324 13.1263L12.7618 14.8413L14.1817 13.6208C14.3804 13.45 14.6774 13.4616 14.8622 13.6474L16.8545 15.6506C16.9477 15.7442 17 15.871 17 16.0032V17C17 17.5523 16.5523 18 16 18H15H14.9988H8C7.44772 18 7 17.5523 7 17V16C7 15.8516 7.06592 15.7109 7.17992 15.6159Z" fill="white" fill-opacity="0.32"/>
</g>
<path fill-rule="evenodd" clip-rule="evenodd" d="M15 1L21 7H17C15.8954 7 15 6.10457 15 5V1Z" fill="#A8CAFF"/>
</g>
<defs>
<filter id="filter0_d_330644_875" x="7" y="8" width="12" height="12" filterUnits="userSpaceOnUse" color-interpolation-filters="sRGB">
<feFlood flood-opacity="0" result="BackgroundImageFix"/>
<feColorMatrix in="SourceAlpha" type="matrix" values="0 0 0 0 0 0 0 0 0 0 0 0 0 0 0 0 0 0 127 0" result="hardAlpha"/>
<feOffset dx="1" dy="1"/>
<feGaussianBlur stdDeviation="0.5"/>
<feColorMatrix type="matrix" values="0 0 0 0 0.0784314 0 0 0 0 0.294118 0 0 0 0 0.8 0 0 0 0.1 0"/>
<feBlend mode="normal" in2="BackgroundImageFix" result="effect1_dropShadow_330644_875"/>
<feBlend mode="normal" in="SourceGraphic" in2="effect1_dropShadow_330644_875" result="shape"/>
</filter>
</defs>
</svg>
