<svg width="24" height="24" viewBox="0 0 24 24" fill="none" xmlns="http://www.w3.org/2000/svg">
<path d="M15 1L21 7V21C21 22.1046 20.1046 23 19 23H5C3.89543 23 3 22.1046 3 21V3C3 1.89543 3.89543 1 5 1H15Z" fill="#54CC39"/>
<mask id="mask0_330644_874" style="mask-type:luminance" maskUnits="userSpaceOnUse" x="3" y="1" width="18" height="22">
<path d="M15 1L21 7V21C21 22.1046 20.1046 23 19 23H5C3.89543 23 3 22.1046 3 21V3C3 1.89543 3.89543 1 5 1H15Z" fill="white"/>
</mask>
<g mask="url(#mask0_330644_874)">
<path fill-rule="evenodd" clip-rule="evenodd" d="M15 1L21 7H17C15.8954 7 15 6.10457 15 5V1Z" fill="#A5E693"/>
</g>
<g filter="url(#filter0_d_330644_874)">
<path d="M7.91681 10.0004H9.08362V11.1115H7.91681V13.8891C7.91681 14.1838 7.79388 14.4664 7.57506 14.6748C7.35624 14.8831 7.05946 15.0002 6.75 15.0002C7.05946 15.0002 7.35624 15.1173 7.57506 15.3256C7.79388 15.534 7.91681 15.8166 7.91681 16.1113V18.8889H9.08362V20H7.91681C7.2925 19.85 6.75 19.5001 6.75 18.8889V16.6671C6.75 16.3724 6.62707 16.0898 6.40825 15.8814C6.18943 15.673 5.89265 15.556 5.58319 15.556H5V14.4449H5.58319C5.73642 14.4449 5.88814 14.4161 6.02971 14.3603C6.17127 14.3044 6.2999 14.2226 6.40825 14.1194C6.5166 14.0162 6.60254 13.8938 6.66118 13.759C6.71982 13.6241 6.75 13.4797 6.75 13.3338V11.1119C6.75 10.8173 6.87293 10.5346 7.09175 10.3263C7.31057 10.1179 7.60735 10.0004 7.91681 10.0004ZM16.0832 10.0004C16.3926 10.0004 16.6894 10.1175 16.9082 10.3259C17.1271 10.5342 17.25 10.8168 17.25 11.1115V13.3333C17.25 13.628 17.3729 13.9106 17.5918 14.119C17.8106 14.3274 18.1074 14.4444 18.4168 14.4444H19V15.5556H18.4168C18.2636 15.5556 18.1119 15.5843 17.9703 15.6401C17.8287 15.696 17.7001 15.7778 17.5918 15.881C17.4834 15.9842 17.3975 16.1067 17.3388 16.2415C17.2802 16.3763 17.25 16.5208 17.25 16.6667V18.8885C17.25 19.1832 17.1271 19.4658 16.9082 19.6741C16.6894 19.8825 16.3926 19.9996 16.0832 19.9996H14.9164V18.8885H16.0832V16.1109C16.0832 15.965 16.1134 15.8205 16.172 15.6857C16.2306 15.5509 16.3166 15.4284 16.4249 15.3252C16.5333 15.2221 16.6619 15.1402 16.8035 15.0844C16.945 15.0285 17.0968 14.9998 17.25 14.9998C16.9405 14.9998 16.6438 14.8827 16.4249 14.6744C16.2061 14.466 16.0832 14.1834 16.0832 13.8887V11.1111H14.9164V10L16.0832 10.0004ZM12 16.6662C12.1547 16.6662 12.303 16.7248 12.4124 16.8289C12.5217 16.9331 12.5832 17.0743 12.5832 17.2216C12.5832 17.3689 12.5217 17.5101 12.4124 17.6143C12.303 17.7184 12.1547 17.7769 12 17.7769C11.8453 17.7769 11.697 17.7184 11.5876 17.6143C11.4783 17.5101 11.4168 17.3689 11.4168 17.2216C11.4168 17.0743 11.4783 16.9331 11.5876 16.8289C11.697 16.7248 11.8453 16.6662 12 16.6662ZM9.66681 16.6662C9.82148 16.6662 9.96982 16.7248 10.0792 16.8289C10.1886 16.9331 10.25 17.0743 10.25 17.2216C10.25 17.3689 10.1886 17.5101 10.0792 17.6143C9.96982 17.7184 9.82148 17.7769 9.66681 17.7769C9.51214 17.7769 9.36381 17.7184 9.25444 17.6143C9.14507 17.5101 9.08362 17.3689 9.08362 17.2216C9.08362 17.0743 9.14507 16.9331 9.25444 16.8289C9.36381 16.7248 9.51214 16.6662 9.66681 16.6662ZM14.3332 16.6662C14.4879 16.6662 14.6362 16.7248 14.7456 16.8289C14.8549 16.9331 14.9164 17.0743 14.9164 17.2216C14.9164 17.3689 14.8549 17.5101 14.7456 17.6143C14.6362 17.7184 14.4879 17.7769 14.3332 17.7769C14.1785 17.7769 14.0302 17.7184 13.9208 17.6143C13.8114 17.5101 13.75 17.3689 13.75 17.2216C13.75 17.0743 13.8114 16.9331 13.9208 16.8289C14.0302 16.7248 14.1785 16.6662 14.3332 16.6662Z" fill="white"/>
</g>
<defs>
<filter id="filter0_d_330644_874" x="5" y="10" width="16" height="12" filterUnits="userSpaceOnUse" color-interpolation-filters="sRGB">
<feFlood flood-opacity="0" result="BackgroundImageFix"/>
<feColorMatrix in="SourceAlpha" type="matrix" values="0 0 0 0 0 0 0 0 0 0 0 0 0 0 0 0 0 0 127 0" result="hardAlpha"/>
<feOffset dx="1" dy="1"/>
<feGaussianBlur stdDeviation="0.5"/>
<feColorMatrix type="matrix" values="0 0 0 0 0.207843 0 0 0 0 0.686275 0 0 0 0 0.117647 0 0 0 0.429713 0"/>
<feBlend mode="normal" in2="BackgroundImageFix" result="effect1_dropShadow_330644_874"/>
<feBlend mode="normal" in="SourceGraphic" in2="effect1_dropShadow_330644_874" result="shape"/>
</filter>
</defs>
</svg>
