<svg width="24" height="24" viewBox="0 0 24 24" fill="none" xmlns="http://www.w3.org/2000/svg">
<g id="8. &#229;&#155;&#190;&#230;&#160;&#135;/&#233;&#153;&#132;&#228;&#187;&#182;/&#232;&#167;&#134;&#233;&#162;&#145;">
<g id="&#231;&#188;&#150;&#231;&#187;&#132; 2">
<g id="Icon-1">
<path id="&#229;&#189;&#162;&#231;&#138;&#182;&#231;&#187;&#147;&#229;&#144;&#136;" d="M16.875 1.5L21 5.625V21C21 21.8284 20.3284 22.5 19.5 22.5H4.5C3.67157 22.5 3 21.8284 3 21V3C3 2.17157 3.67157 1.5 4.5 1.5H16.875Z" fill="#7073FF"/>
<mask id="mask0_330139_45" style="mask-type:luminance" maskUnits="userSpaceOnUse" x="3" y="1" width="18" height="22">
<path id="&#229;&#189;&#162;&#231;&#138;&#182;&#231;&#187;&#147;&#229;&#144;&#136;_2" d="M16.875 1.5L21 5.625V21C21 21.8284 20.3284 22.5 19.5 22.5H4.5C3.67157 22.5 3 21.8284 3 21V3C3 2.17157 3.67157 1.5 4.5 1.5H16.875Z" fill="white"/>
</mask>
<g mask="url(#mask0_330139_45)">
<path id="&#232;&#183;&#175;&#229;&#190;&#132;" fill-rule="evenodd" clip-rule="evenodd" d="M21 5.625H18.375C17.5466 5.625 16.875 4.95343 16.875 4.125V1.5L21 5.625Z" fill="#B8BBFF"/>
</g>
</g>
<g id="&#231;&#188;&#150;&#231;&#187;&#132;">
<rect id="&#231;&#159;&#169;&#229;&#189;&#162;" opacity="0.01" x="6" y="7.5" width="12" height="12" fill="#D8D8D8"/>
<g id="&#229;&#189;&#162;&#231;&#138;&#182;&#231;&#187;&#147;&#229;&#144;&#136;_3" filter="url(#filter0_d_330139_45)">
<path d="M14.5283 10C14.7039 10.0002 14.8457 10.1428 14.8457 10.3184V11.6016L16.3779 10.541C16.5889 10.395 16.8777 10.5463 16.8779 10.8027V16.1973C16.8777 16.4537 16.5889 16.605 16.3779 16.459L14.8457 15.3975V16.6816C14.8457 16.8572 14.7039 16.9998 14.5283 17H7.20996C7.03423 17 6.8916 16.8574 6.8916 16.6816V10.3184C6.8916 10.1426 7.03423 10 7.20996 10H14.5283ZM8.80078 11.5908C8.44933 11.5908 8.16406 11.8761 8.16406 12.2275C8.16421 12.5789 8.44942 12.8633 8.80078 12.8633C9.15211 12.8632 9.43736 12.5788 9.4375 12.2275C9.4375 11.8761 9.15219 11.5909 8.80078 11.5908Z" fill="white"/>
</g>
</g>
</g>
</g>
<defs>
<filter id="filter0_d_330139_45" x="5.8916" y="9" width="11.9863" height="9" filterUnits="userSpaceOnUse" color-interpolation-filters="sRGB">
<feFlood flood-opacity="0" result="BackgroundImageFix"/>
<feColorMatrix in="SourceAlpha" type="matrix" values="0 0 0 0 0 0 0 0 0 0 0 0 0 0 0 0 0 0 127 0" result="hardAlpha"/>
<feOffset/>
<feGaussianBlur stdDeviation="0.5"/>
<feColorMatrix type="matrix" values="0 0 0 0 0.6 0 0 0 0 0.0588235 0 0 0 0 0.27451 0 0 0 0.3 0"/>
<feBlend mode="normal" in2="BackgroundImageFix" result="effect1_dropShadow_330139_45"/>
<feBlend mode="normal" in="SourceGraphic" in2="effect1_dropShadow_330139_45" result="shape"/>
</filter>
</defs>
</svg>
