<svg width="16" height="16" viewBox="0 0 16 16" fill="none" xmlns="http://www.w3.org/2000/svg">
<g clip-path="url(#clip0_488_7148)">
<path d="M10 0.666626L14 4.66663V13.3336C13.9998 14.438 13.1045 15.3336 12 15.3336H4C2.89554 15.3336 2.00018 14.438 2 13.3336V2.66663C2 1.56206 2.89543 0.666626 4 0.666626H10Z" fill="#F25788"/>
<mask id="mask0_488_7148" style="mask-type:luminance" maskUnits="userSpaceOnUse" x="2" y="0" width="12" height="16">
<path d="M10 0.666626L14 4.66663V13.3336C13.9998 14.438 13.1045 15.3336 12 15.3336H4C2.89554 15.3336 2.00018 14.438 2 13.3336V2.66663C2 1.56206 2.89543 0.666626 4 0.666626H10Z" fill="white"/>
</mask>
<g mask="url(#mask0_488_7148)">
<path fill-rule="evenodd" clip-rule="evenodd" d="M10 0.666626L14 4.66663H12C10.8954 4.66663 10 3.7712 10 2.66663V0.666626Z" fill="#FFADC5"/>
</g>
<g filter="url(#filter0_d_488_7148)">
<path d="M7.64355 6.00215C7.82674 6.00215 8.01455 6.09238 8.12695 6.23946C8.36822 6.56636 8.34727 7.25674 8.03516 8.27364C8.33069 8.81688 8.71769 9.30718 9.17969 9.72383C9.56687 9.6503 9.95852 9.59785 10.3457 9.59785C11.2199 9.61422 11.3487 10.0144 11.332 10.2473C11.3319 10.8638 10.7204 10.8635 10.4082 10.8635C9.90862 10.8267 9.42943 10.6473 9.03809 10.3205C8.28048 10.4839 7.56025 10.7209 6.83594 11.0109C6.26156 12.0075 5.72473 12.5185 5.2627 12.5188C5.1711 12.5188 5.05834 12.5017 4.9834 12.4445C4.77949 12.3546 4.66699 12.1544 4.66699 11.9543C4.66705 11.7906 4.70568 11.3368 6.46094 10.5939C6.86891 9.86678 7.18134 9.12324 7.43945 8.34297C7.21873 7.90563 6.73636 6.8354 7.06934 6.29219C7.18176 6.09221 7.40225 5.9818 7.64355 6.00215ZM5.89062 11.4689C5.61616 11.5751 5.39103 11.7547 5.22461 11.9914L5.27832 11.9758C5.53629 11.886 5.74077 11.7016 5.89062 11.4689ZM7.79785 9.21407L7.78125 9.19746C7.61482 9.61389 7.43138 10.0308 7.22754 10.4309L7.26465 10.4152V10.4514C7.67237 10.3044 8.11373 10.1779 8.52148 10.0881L8.50488 10.0715H8.55957C8.27653 9.79374 8.01843 9.48738 7.81445 9.17696L7.79785 9.21407ZM10.333 10.1408C10.1666 10.1408 10.0161 10.1412 9.84961 10.1779C10.0326 10.2677 10.2203 10.305 10.4033 10.3254C10.5323 10.3417 10.6621 10.325 10.7744 10.2883C10.7744 10.2311 10.7034 10.1408 10.333 10.1408ZM7.63086 6.5461C7.61403 6.5461 7.57633 6.54647 7.55566 6.5627C7.48101 6.87282 7.53915 7.19972 7.66797 7.48946C7.77611 7.17914 7.77702 6.85234 7.68555 6.5461H7.63086Z" fill="white"/>
</g>
</g>
<defs>
<filter id="filter0_d_488_7148" x="4.66699" y="5.99976" width="6.66602" height="7.51904" filterUnits="userSpaceOnUse" color-interpolation-filters="sRGB">
<feFlood flood-opacity="0" result="BackgroundImageFix"/>
<feColorMatrix in="SourceAlpha" type="matrix" values="0 0 0 0 0 0 0 0 0 0 0 0 0 0 0 0 0 0 127 0" result="hardAlpha"/>
<feOffset dy="1"/>
<feColorMatrix type="matrix" values="0 0 0 0 0.6 0 0 0 0 0.0588235 0 0 0 0 0.27451 0 0 0 0.3 0"/>
<feBlend mode="normal" in2="BackgroundImageFix" result="effect1_dropShadow_488_7148"/>
<feBlend mode="normal" in="SourceGraphic" in2="effect1_dropShadow_488_7148" result="shape"/>
</filter>
<clipPath id="clip0_488_7148">
<rect width="16" height="16" fill="white"/>
</clipPath>
</defs>
</svg>
