<svg xmlns="http://www.w3.org/2000/svg" xmlns:xlink="http://www.w3.org/1999/xlink" fill="none" version="1.1" width="16" height="16" viewBox="0 0 16 16"><g><g><g><path d="" fill="#D8D8D8" fill-opacity="0"/></g><g><path d="M13.333520816421508,4.800097791023255L13.333520816421508,13.942927791023255C13.333520816421508,14.574127791023255,12.821820816421509,15.085827791023254,12.190620816421509,15.085827791023254L3.0477808164215086,15.085827791023254C2.4165958164215087,15.085827791023254,1.9049208164215088,14.574127791023255,1.9049208164215088,13.942927791023255L1.9049208164215088,2.514387791023254C1.9049206638335088,1.8832027910232543,2.4165958164215087,1.3715276384352544,3.0477808164215086,1.3715277910232544L9.91086081642151,1.3715277910232544" fill="#FFE67D" fill-opacity="1"/></g><g><path d="M1.1428495216369177,6.323784828186035L14.095049445343017,6.323784828186035L14.095049445343017,12.266644828186035C14.095049445343017,12.771584828186036,13.685749445343017,13.180924828186036,13.180749445343018,13.180924828186036L2.0571354453430177,13.180924828186036C1.5521894453430176,13.180924828186036,1.1428495216369177,12.771584828186036,1.1428494453430176,12.266644828186035L1.1428495216369177,6.323784828186035Z" fill="#FFAD57" fill-opacity="1"/></g><g><path d="M1.9049064453430176,5.476996421813965L1.9049064453430176,6.334139421813965L1.1428494453430176,6.334139421813965L1.9049064453430176,5.476996421813965ZM13.333449445343017,5.476996421813965L13.333449445343017,6.334139421813965L14.095049445343017,6.334139421813965L13.333449445343017,5.476996421813965Z" fill="#FB923C" fill-opacity="1"/></g><g><path d="M9.90492057800293,1.3715277910232544L13.33349057800293,4.800097791023255L10.81920657800293,4.800097791023255C10.31426057800293,4.800097791023255,9.90492057800293,4.390757791023255,9.90492057800293,3.8858177910232543L9.90492057800293,1.3715277910232544Z" fill="#FFF7ED" fill-opacity="1"/></g></g><g><path d="M4.9039328125,10.117186875C5.7449128125,10.117186875,6.1297628125,9.778666875,6.1297628125,9.128905875C6.1297628125,8.600097875,5.7628228125,8.185546875,4.9646028125,8.185546875L3.6923828125,8.185546875L3.6923828125,11.185546875L4.3908688125,11.185546875L4.3908688125,10.117186875L4.9039328125,10.117186875ZM4.8469228125,8.707030875C5.2246528125000005,8.707030875,5.3992928125,8.890642875,5.3992928125,9.153319875C5.3992928125,9.443616875,5.1997128125,9.602536875,4.8469228125,9.602536875L4.3908688125,9.602536875L4.3908688125,8.707030875L4.8469228125,8.707030875ZM7.4946328125,11.185546875C8.6705728125,11.185546875,9.1373328125,10.725796875,9.1373328125,9.647456875C9.1373328125,8.766094875,8.620622812499999,8.185546875,7.4482428125,8.185546875L6.4932828125,8.185546875L6.4932828125,11.185546875L7.4946328125,11.185546875ZM7.4340828125,8.738280875C8.096882812499999,8.738280875,8.4033228125,9.119035875,8.4033228125,9.658206875C8.4033228125,10.283796875,8.1146828125,10.635746875,7.4376228125,10.635746875L7.1953128125,10.635746875L7.1953128125,8.738280875L7.4340828125,8.738280875ZM11.6923828125,8.738280875L11.6923828125,8.185546875L9.4937728125,8.185546875L9.4937728125,11.185546875L10.1921428125,11.185546875L10.1921428125,9.999996875L11.5000028125,9.999996875L11.5000028125,9.454096875L10.1921428125,9.454096875L10.1921428125,8.738280875L11.6923828125,8.738280875Z" fill="#FFFFFF" fill-opacity="1"/></g></g></svg>