<?xml version="1.0" encoding="UTF-8"?><svg version="1.1" width="24px" height="24px" viewBox="0 0 24.0 24.0" xmlns="http://www.w3.org/2000/svg" xmlns:xlink="http://www.w3.org/1999/xlink"><defs><clipPath id="i0"><path d="M12,0 L18,6 L18,20 C18,21.1045695 17.1045695,22 16,22 L2,22 C0.8954305,22 1.3527075e-16,21.1045695 0,20 L0,2 C-1.3527075e-16,0.8954305 0.8954305,2.02906125e-16 2,0 L12,0 Z"></path></clipPath><clipPath id="i1"><path d="M0,0 L6,6 L2,6 C0.8954305,6 1.3527075e-16,5.1045695 0,4 L0,0 Z"></path></clipPath><clipPath id="i2"><path d="M4.46506675,0.0036203952 C4.73984009,0.0036203952 5.02085827,0.138436364 5.18946918,0.359044291 C5.55167041,0.849284155 5.52044615,1.88491588 5.05208251,3.41078747 C5.49546676,4.22581126 6.07623768,4.96117107 6.76941588,5.5862269 C7.3501868,5.47592293 7.93720258,5.39625894 8.51797348,5.39625894 C9.82939169,5.42077094 10.022982,6.02131478 9.9980026,6.37061068 C9.9980026,7.29593844 9.08000986,7.29593844 8.61164621,7.29593844 C7.86226438,7.24078646 7.14410679,6.97115453 6.55709103,6.48091465 C5.42052859,6.72603459 4.34016977,7.08145849 3.25356611,7.51654638 C2.39177701,9.01177799 1.58619154,9.77777778 0.893013344,9.77777778 C0.75562667,9.77777778 0.587015758,9.75326578 0.474608498,9.66747381 C0.168610912,9.53265784 0,9.23238593 0,8.932114 C0,8.68699406 0.0562036374,8.00678625 2.69152974,6.89149055 C3.3035249,5.80070684 3.77188854,4.68541114 4.15906917,3.51496346 C3.82809219,2.85926764 3.10368975,1.25373206 3.60327765,0.438708274 C3.77188856,0.13843635 4.10286553,-0.0270196062 4.46506675,0.0036203952 Z M1.83598549,8.2028822 C1.42382548,8.36221016 1.08660366,8.63184209 0.836809707,8.98726599 L0.917992744,8.96275399 C1.30517335,8.82793802 1.61117094,8.5521781 1.83598549,8.2028822 Z M4.72110554,4.76507512 L4.69612614,4.82022711 L4.67114676,4.79571511 C4.42135281,5.42077094 4.14657947,6.04582678 3.84058189,6.64637061 L3.89678552,6.62185863 L3.89678552,6.67701061 C4.50878068,6.45640267 5.17073464,6.26643472 5.7827298,6.13161875 L5.75775041,6.10710676 L5.83893343,6.10710676 C5.41428373,5.69040288 5.02710311,5.230803 4.72110554,4.76507512 Z M8.49923894,6.21128273 C8.24944499,6.21128273 8.02463044,6.21128273 7.7748365,6.26643472 C8.04960984,6.40125069 8.33062802,6.45640267 8.60540137,6.48704266 C8.79899168,6.51155466 8.99258198,6.48704266 9.16119289,6.43189067 C9.16119289,6.3460987 9.05503047,6.21128273 8.49923894,6.21128273 Z M4.52751523,0.818644168 L4.44633221,0.818644168 C4.42135281,0.818644168 4.36514917,0.818644168 4.33392493,0.843156166 C4.22151766,1.30888405 4.30894553,1.79912391 4.50253584,2.23421179 C4.6649019,1.76848391 4.6649019,1.27824404 4.52751523,0.818644168 Z"></path></clipPath></defs><g transform="translate(-0.1568542494925822 -0.3137084989843757)"><g transform="translate(3.1568542494925964 1.313708498984397)"><g clip-path="url(#i0)"><polygon points="0,0 18,0 18,22 0,22 0,0" stroke="none" fill="#F25788"></polygon><g transform="translate(12.0 0.0)"><g clip-path="url(#i1)"><polygon points="0,0 6,0 6,6 0,6 0,0" stroke="none" fill="#FFADC5"></polygon></g></g></g></g><g transform="translate(7.156854249492597 9.313708498984397)"><g transform="translate(0.0 1.0)"><path d="M4.46506675,0.0036203952 C4.73984009,0.0036203952 5.02085827,0.138436364 5.18946918,0.359044291 C5.55167041,0.849284155 5.52044615,1.88491588 5.05208251,3.41078747 C5.49546676,4.22581126 6.07623768,4.96117107 6.76941588,5.5862269 C7.3501868,5.47592293 7.93720258,5.39625894 8.51797348,5.39625894 C9.82939169,5.42077094 10.022982,6.02131478 9.9980026,6.37061068 C9.9980026,7.29593844 9.08000986,7.29593844 8.61164621,7.29593844 C7.86226438,7.24078646 7.14410679,6.97115453 6.55709103,6.48091465 C5.42052859,6.72603459 4.34016977,7.08145849 3.25356611,7.51654638 C2.39177701,9.01177799 1.58619154,9.77777778 0.893013344,9.77777778 C0.75562667,9.77777778 0.587015758,9.75326578 0.474608498,9.66747381 C0.168610912,9.53265784 0,9.23238593 0,8.932114 C0,8.68699406 0.0562036374,8.00678625 2.69152974,6.89149055 C3.3035249,5.80070684 3.77188854,4.68541114 4.15906917,3.51496346 C3.82809219,2.85926764 3.10368975,1.25373206 3.60327765,0.438708274 C3.77188856,0.13843635 4.10286553,-0.0270196062 4.46506675,0.0036203952 Z M1.83598549,8.2028822 C1.42382548,8.36221016 1.08660366,8.63184209 0.836809707,8.98726599 L0.917992744,8.96275399 C1.30517335,8.82793802 1.61117094,8.5521781 1.83598549,8.2028822 Z M4.72110554,4.76507512 L4.69612614,4.82022711 L4.67114676,4.79571511 C4.42135281,5.42077094 4.14657947,6.04582678 3.84058189,6.64637061 L3.89678552,6.62185863 L3.89678552,6.67701061 C4.50878068,6.45640267 5.17073464,6.26643472 5.7827298,6.13161875 L5.75775041,6.10710676 L5.83893343,6.10710676 C5.41428373,5.69040288 5.02710311,5.230803 4.72110554,4.76507512 Z M8.49923894,6.21128273 C8.24944499,6.21128273 8.02463044,6.21128273 7.7748365,6.26643472 C8.04960984,6.40125069 8.33062802,6.45640267 8.60540137,6.48704266 C8.79899168,6.51155466 8.99258198,6.48704266 9.16119289,6.43189067 C9.16119289,6.3460987 9.05503047,6.21128273 8.49923894,6.21128273 Z M4.52751523,0.818644168 L4.44633221,0.818644168 C4.42135281,0.818644168 4.36514917,0.818644168 4.33392493,0.843156166 C4.22151766,1.30888405 4.30894553,1.79912391 4.50253584,2.23421179 C4.6649019,1.76848391 4.6649019,1.27824404 4.52751523,0.818644168 Z" stroke="none" fill="rgba(153, 14, 70, 0.3)"></path></g><g clip-path="url(#i2)"><polygon points="0,-1.66533454e-16 10,-1.66533454e-16 10,9.77777778 0,9.77777778 0,-1.66533454e-16" stroke="none" fill="#FFFFFF"></polygon></g></g></g></svg>