<svg width="24" height="24" viewBox="0 0 24 24" fill="none" xmlns="http://www.w3.org/2000/svg">
<g id="8. &#229;&#155;&#190;&#230;&#160;&#135;/&#233;&#153;&#132;&#228;&#187;&#182;/PPT">
<g id="&#231;&#188;&#150;&#231;&#187;&#132; 2">
<g id="&#231;&#188;&#150;&#231;&#187;&#132;">
<path id="&#229;&#189;&#162;&#231;&#138;&#182;&#231;&#187;&#147;&#229;&#144;&#136;" d="M15 1L21 7V21C21 22.1046 20.1046 23 19 23H5C3.89543 23 3 22.1046 3 21V3C3 1.89543 3.89543 1 5 1H15Z" fill="#528EFF"/>
<mask id="mask0_330139_143" style="mask-type:luminance" maskUnits="userSpaceOnUse" x="3" y="1" width="18" height="22">
<path id="&#229;&#189;&#162;&#231;&#138;&#182;&#231;&#187;&#147;&#229;&#144;&#136;_2" d="M15 1L21 7V21C21 22.1046 20.1046 23 19 23H5C3.89543 23 3 22.1046 3 21V3C3 1.89543 3.89543 1 5 1H15Z" fill="white"/>
</mask>
<g mask="url(#mask0_330139_143)">
<path id="&#231;&#159;&#169;&#229;&#189;&#162;" fill-rule="evenodd" clip-rule="evenodd" d="M15 1L21 7H17C15.8954 7 15 6.10457 15 5V1Z" fill="#A8CAFF"/>
</g>
</g>
<g id="P">
<g id="&#229;&#189;&#162;&#231;&#138;&#182;" filter="url(#filter0_d_330139_143)">
<path d="M11.4932 10.4102C12.5479 10.4102 13.2354 10.4531 13.5557 10.5391C14.0479 10.668 14.46 10.9482 14.792 11.3799C15.124 11.8115 15.29 12.3691 15.29 13.0527C15.29 13.5801 15.1943 14.0234 15.0029 14.3828C14.8115 14.7422 14.5684 15.0244 14.2734 15.2295C13.9785 15.4346 13.6787 15.5703 13.374 15.6367C12.96 15.7188 12.3604 15.7598 11.5752 15.7598H10.4443V18.7998C10.4443 18.9103 10.3546 19 10.2441 19H8.91016C8.7997 19 8.70996 18.9103 8.70996 18.7998V10.6104C8.70996 10.4999 8.7997 10.4102 8.91016 10.4102H11.4932ZM10.4443 14.3008H11.3936C12.0771 14.3008 12.5342 14.2559 12.7646 14.166C12.9951 14.0762 13.1758 13.9355 13.3066 13.7441C13.4375 13.5527 13.5029 13.3301 13.5029 13.0762C13.5029 12.7637 13.4111 12.5059 13.2275 12.3027C13.0439 12.0996 12.8115 11.9727 12.5303 11.9219C12.3232 11.8828 11.9072 11.8633 11.2822 11.8633H10.4443V14.3008Z" fill="white"/>
</g>
</g>
</g>
</g>
<defs>
<filter id="filter0_d_330139_143" x="8.70996" y="10.4102" width="8.58008" height="10.5898" filterUnits="userSpaceOnUse" color-interpolation-filters="sRGB">
<feFlood flood-opacity="0" result="BackgroundImageFix"/>
<feColorMatrix in="SourceAlpha" type="matrix" values="0 0 0 0 0 0 0 0 0 0 0 0 0 0 0 0 0 0 127 0" result="hardAlpha"/>
<feOffset dx="1" dy="1"/>
<feGaussianBlur stdDeviation="0.5"/>
<feColorMatrix type="matrix" values="0 0 0 0 0.0784314 0 0 0 0 0.294118 0 0 0 0 0.8 0 0 0 0.3 0"/>
<feBlend mode="normal" in2="BackgroundImageFix" result="effect1_dropShadow_330139_143"/>
<feBlend mode="normal" in="SourceGraphic" in2="effect1_dropShadow_330139_143" result="shape"/>
</filter>
</defs>
</svg>
