<svg width="16" height="16" viewBox="0 0 16 16" fill="none" xmlns="http://www.w3.org/2000/svg">
<path fill-rule="evenodd" clip-rule="evenodd" d="M2.66668 7.99992C2.66668 5.0544 5.05449 2.66659 8.00001 2.66659C10.9455 2.66659 13.3333 5.0544 13.3333 7.99992C13.3333 10.9454 10.9455 13.3333 8.00001 13.3333C5.05449 13.3333 2.66668 10.9454 2.66668 7.99992ZM8.00001 1.33325C4.31811 1.33325 1.33334 4.31802 1.33334 7.99992C1.33334 11.6818 4.31811 14.6666 8.00001 14.6666C11.6819 14.6666 14.6667 11.6818 14.6667 7.99992C14.6667 4.31802 11.6819 1.33325 8.00001 1.33325ZM6.86668 6.65945V6.50573C6.86749 6.32282 6.9329 6.11993 7.07884 5.96739C7.21364 5.82651 7.47636 5.66659 7.99618 5.66659C8.48432 5.66659 8.82377 5.89964 8.99688 6.16424C9.18174 6.4468 9.14532 6.68389 9.05758 6.80234C8.94816 6.95007 8.81229 7.08651 8.64809 7.23433C8.59814 7.2793 8.53657 7.33288 8.47055 7.39032L8.47053 7.39034C8.35248 7.49307 8.22021 7.60817 8.11474 7.70852C7.74024 8.06486 7.33347 8.5622 7.33347 9.33325L7.33564 9.67087L8.66894 9.6623L8.66682 9.33143C8.66731 9.10341 8.76078 8.93428 9.03384 8.67446C9.12563 8.58712 9.20814 8.51574 9.30255 8.43406L9.30259 8.43402C9.37241 8.37362 9.44875 8.30758 9.54016 8.22528C9.73029 8.05413 9.94185 7.84862 10.129 7.59597C10.6344 6.91365 10.5162 6.05112 10.1126 5.43426C9.6973 4.79943 8.94163 4.33325 7.99618 4.33325C7.17802 4.33325 6.54372 4.59802 6.11545 5.04563C5.69858 5.48133 5.53487 6.0303 5.53335 6.50235V6.65945H6.86668ZM7.33562 10.3333V11.6692H8.66896V10.3333H7.33562Z" fill="#7F8C9F"/>
</svg>
