<svg width="24" height="24" viewBox="0 0 24 24" fill="none" xmlns="http://www.w3.org/2000/svg">
<g id="8. &#229;&#155;&#190;&#230;&#160;&#135;/&#233;&#153;&#132;&#228;&#187;&#182;/TORRENT">
<g id="&#231;&#188;&#150;&#231;&#187;&#132; 2">
<g id="&#231;&#188;&#150;&#231;&#187;&#132;">
<path id="&#229;&#189;&#162;&#231;&#138;&#182;&#231;&#187;&#147;&#229;&#144;&#136;" d="M15 1L21 7V21C21 22.1046 20.1046 23 19 23H5C3.89543 23 3 22.1046 3 21V3C3 1.89543 3.89543 1 5 1H15Z" fill="#54CC39"/>
<mask id="mask0_330139_409" style="mask-type:luminance" maskUnits="userSpaceOnUse" x="3" y="1" width="18" height="22">
<path id="&#229;&#189;&#162;&#231;&#138;&#182;&#231;&#187;&#147;&#229;&#144;&#136;_2" d="M15 1L21 7V21C21 22.1046 20.1046 23 19 23H5C3.89543 23 3 22.1046 3 21V3C3 1.89543 3.89543 1 5 1H15Z" fill="white"/>
</mask>
<g mask="url(#mask0_330139_409)">
<path id="&#231;&#159;&#169;&#229;&#189;&#162;" fill-rule="evenodd" clip-rule="evenodd" d="M15 1L21 7H17C15.8954 7 15 6.10457 15 5V1Z" fill="#A5E693"/>
</g>
</g>
<g id="BT">
<g id="&#229;&#189;&#162;&#231;&#138;&#182;" filter="url(#filter0_d_330139_409)">
<path d="M8.9834 10.8418C9.5498 10.8418 9.97266 10.8659 10.251 10.9131C10.5291 10.9603 10.7785 11.0584 10.998 11.208C11.2176 11.3577 11.4005 11.5577 11.5469 11.8066C11.6932 12.0556 11.7666 12.3345 11.7666 12.6436C11.7666 12.9788 11.6767 13.2865 11.4961 13.5664C11.3154 13.8464 11.07 14.0563 10.7607 14.1963C11.1969 14.3232 11.5322 14.5397 11.7666 14.8457C12.001 15.1517 12.1182 15.5114 12.1182 15.9248C12.1182 16.2503 12.043 16.5674 11.8916 16.875C11.7403 17.1825 11.5334 17.4284 11.2715 17.6123C11.0094 17.7962 10.6859 17.9089 10.3018 17.9512C10.0609 17.9772 9.47982 17.9935 8.55859 18H6.32227C6.21181 18 6.12207 17.9103 6.12207 17.7998V11.042C6.12207 10.9315 6.21181 10.8418 6.32227 10.8418H8.9834ZM7.56738 16.7939H8.90527C9.42611 16.7939 9.75651 16.7793 9.89648 16.75C10.1113 16.7109 10.2868 16.6162 10.4219 16.4648C10.557 16.3135 10.624 16.1104 10.624 15.8564C10.624 15.6416 10.5719 15.4593 10.4678 15.3096C10.3637 15.1599 10.2133 15.0508 10.0166 14.9824C9.81966 14.9141 9.39193 14.8799 8.73438 14.8799H7.56738V16.7939ZM7.56738 13.6885H8.51465C9.0778 13.6885 9.42773 13.6803 9.56445 13.6641C9.81185 13.6348 10.0068 13.5498 10.1484 13.4082C10.29 13.2666 10.3604 13.0798 10.3604 12.8486C10.3604 12.6276 10.2995 12.4478 10.1777 12.3096C10.0557 12.1712 9.8737 12.0869 9.63281 12.0576C9.48958 12.0413 9.0778 12.0332 8.39746 12.0332H7.56738V13.6885Z" fill="white"/>
</g>
<g id="&#232;&#183;&#175;&#229;&#190;&#132;" filter="url(#filter1_d_330139_409)">
<path d="M14.5137 18C14.4033 18 14.3137 17.9105 14.3137 17.8V12.0527H12.3897C12.2792 12.0527 12.1897 11.9632 12.1897 11.8527V11.0418C12.1897 10.9313 12.2792 10.8418 12.3897 10.8418H17.6782C17.7886 10.8418 17.8782 10.9313 17.8782 11.0418V11.8527C17.8782 11.9632 17.7886 12.0527 17.6782 12.0527H15.759V17.8C15.759 17.9105 15.6695 18 15.559 18H14.5137Z" fill="white"/>
</g>
</g>
</g>
</g>
<defs>
<filter id="filter0_d_330139_409" x="6.12207" y="10.8418" width="7.99609" height="9.1582" filterUnits="userSpaceOnUse" color-interpolation-filters="sRGB">
<feFlood flood-opacity="0" result="BackgroundImageFix"/>
<feColorMatrix in="SourceAlpha" type="matrix" values="0 0 0 0 0 0 0 0 0 0 0 0 0 0 0 0 0 0 127 0" result="hardAlpha"/>
<feOffset dx="1" dy="1"/>
<feGaussianBlur stdDeviation="0.5"/>
<feColorMatrix type="matrix" values="0 0 0 0 0.207843 0 0 0 0 0.686275 0 0 0 0 0.117647 0 0 0 0.429713 0"/>
<feBlend mode="normal" in2="BackgroundImageFix" result="effect1_dropShadow_330139_409"/>
<feBlend mode="normal" in="SourceGraphic" in2="effect1_dropShadow_330139_409" result="shape"/>
</filter>
<filter id="filter1_d_330139_409" x="12.1897" y="10.8418" width="7.68848" height="9.1582" filterUnits="userSpaceOnUse" color-interpolation-filters="sRGB">
<feFlood flood-opacity="0" result="BackgroundImageFix"/>
<feColorMatrix in="SourceAlpha" type="matrix" values="0 0 0 0 0 0 0 0 0 0 0 0 0 0 0 0 0 0 127 0" result="hardAlpha"/>
<feOffset dx="1" dy="1"/>
<feGaussianBlur stdDeviation="0.5"/>
<feColorMatrix type="matrix" values="0 0 0 0 0.207843 0 0 0 0 0.686275 0 0 0 0 0.117647 0 0 0 0.429713 0"/>
<feBlend mode="normal" in2="BackgroundImageFix" result="effect1_dropShadow_330139_409"/>
<feBlend mode="normal" in="SourceGraphic" in2="effect1_dropShadow_330139_409" result="shape"/>
</filter>
</defs>
</svg>
