<svg xmlns="http://www.w3.org/2000/svg" xmlns:xlink="http://www.w3.org/1999/xlink" fill="none" version="1.1" width="22" height="22" viewBox="0 0 22 22"><defs><clipPath id="master_svg0_327_98151"><rect x="0" y="0" width="22" height="22" rx="0"/></clipPath></defs><g><g clip-path="url(#master_svg0_327_98151)"><g><path d="" fill="#D8D8D8" fill-opacity="0"/></g><g><path d="M18.333440625,6.60100875L18.333440625,19.17241875C18.333440625,20.04031875,17.629840625,20.74381875,16.762040624999997,20.74381875L4.190570625,20.74381875C3.322692625,20.74381875,2.619140625,20.04031875,2.619140625,19.17241875L2.619140625,3.4581487500000003C2.619140415192,2.59027075,3.322692625,1.886718540192,4.190570625,1.88671875L13.627340625,1.88671875" fill="#D0EAE0" fill-opacity="1"/></g><g><path d="M1.570312604904,8.6953125L19.3796125,8.6953125L19.3796125,16.8667425C19.3796125,17.5610425,18.8168125,18.1238825,18.1225125,18.1238825L2.8274524999999997,18.1238825C2.1331545,18.1238825,1.570312604904,17.5610425,1.5703125,16.8667425L1.570312604904,8.6953125Z" fill="#34D399" fill-opacity="1"/></g><g><path d="M8.25933875,12.34553625L8.25933875,11.61328125L4.88671875,11.61328125L4.88671875,12.34553625L6.13418875,12.34553625L6.13418875,15.58550125L7.01632875,15.58550125L7.01632875,12.34553625L8.25933875,12.34553625ZM12.32697875,15.58550125L10.919118749999999,13.59939125L12.188868750000001,11.61328125L11.16861875,11.61328125L10.53596875,12.79399125C10.51814875,12.82606125,10.42458875,12.99993125,10.35330875,13.13265125C10.29538875,13.022791250000001,10.23746875,12.91300125,10.17509875,12.80313125L9.52016875,11.61328125L8.48655875,11.61328125L9.76075875,13.59482125L8.406358749999999,15.58550125L9.413248750000001,15.58550125L10.188458749999999,14.30415125C10.219648750000001,14.24928125,10.290928749999999,14.11656125,10.33102875,14.03420125C10.38003875,14.13485125,10.43349875,14.23550125,10.47359875,14.29957125L11.24435875,15.58550125L12.32697875,15.58550125ZM15.88671875,12.34553625L15.88671875,11.61328125L12.514098749999999,11.61328125L12.514098749999999,12.34553625L13.76156875,12.34553625L13.76156875,15.58550125L14.64370875,15.58550125L14.64370875,12.34553625L15.88671875,12.34553625Z" fill="#FFFFFF" fill-opacity="1"/></g><g><path d="M2.6181425000000003,7.53125L2.6181425000000003,8.70982L1.5703125,8.70982L2.6181425000000003,7.53125ZM18.3324125,7.53125L18.3324125,8.70982L19.3796125,8.70982L18.3324125,7.53125Z" fill="#10B981" fill-opacity="1"/></g><g><path d="M13.619140625,1.88671875L18.333430625,6.60100875L14.876280625,6.60100875C14.181982625,6.60100875,13.619140625,6.03815875,13.619140625,5.34385875L13.619140625,1.88671875Z" fill="#EEFFF8" fill-opacity="1"/></g></g></g></svg>