<?xml version="1.0" encoding="UTF-8"?><svg version="1.1" width="24px" height="24px" viewBox="0 0 24.0 24.0" xmlns="http://www.w3.org/2000/svg" xmlns:xlink="http://www.w3.org/1999/xlink"><defs><clipPath id="i0"><path d="M12,0 L18,6 L18,20 C18,21.1045695 17.1045695,22 16,22 L2,22 C0.8954305,22 1.3527075e-16,21.1045695 0,20 L0,2 C-1.3527075e-16,0.8954305 0.8954305,2.02906125e-16 2,0 L12,0 Z"></path></clipPath><clipPath id="i1"><path d="M0,0 L6,6 L2,6 C0.8954305,6 1.3527075e-16,5.1045695 0,4 L0,0 Z"></path></clipPath><filter id="i2" x="-32.1328064%" y="-30.9974961%" filterUnits="userSpaceOnUse" width="164.265613%" height="161.994992%"><feGaussianBlur stdDeviation="0.5" in="SourceAlpha" result="i3"></feGaussianBlur><feOffset dx="1" dy="1" in="i3" result="i4"></feOffset><feColorMatrix values="0 0 0 0.07843137254901951 0 0 0 0 0.2941176470588234 0 0 0 0 0.8 0 0 0 0 0.3 0" type="matrix" in="i4"></feColorMatrix></filter><clipPath id="i5"><path d="M7.13625268,0 C7.24670963,-4.83062441e-16 7.33625268,0.0895430514 7.33625268,0.200000003 L7.33625268,1.35059502 C7.33625268,1.46105197 7.24670963,1.55059502 7.13625268,1.55059502 L4.63240262,1.55059502 L4.63240262,7.47820108 C4.63240262,7.58865803 4.54285957,7.67820108 4.43240262,7.67820108 L2.91354129,7.67820108 C2.80308434,7.67820108 2.71354128,7.58865803 2.71354128,7.47820108 L2.71354128,1.55059502 L0.200000003,1.55059502 C0.0895430514,1.55059502 4.12826508e-17,1.46105197 0,1.35059502 L0,0.200000003 C-1.35270752e-17,0.0895430514 0.0895430514,-6.2976114e-17 0.200000003,0 L7.13625268,0 Z"></path></clipPath></defs><g transform="translate(-0.1568542494925822 -0.3137084989843757)"><g transform="translate(0.1568542494925964 0.313708498984397)"><g transform="translate(3.0 1.0)"><g clip-path="url(#i0)"><polygon points="0,0 18,0 18,22 0,22 0,0" stroke="none" fill="#528EFF"></polygon><g transform="translate(12.0 0.0)"><g clip-path="url(#i1)"><polygon points="0,0 6,0 6,6 0,6 0,0" stroke="none" fill="#A8CAFF"></polygon></g></g></g></g><g transform="translate(8.331873657608138 11.00016897723692)"><path d="M7.13625268,1.55059502 L4.63240262,1.55059502 L4.63240262,1.55059502 L4.63240262,7.47820108 C4.63240262,7.58865803 4.54285957,7.67820108 4.43240262,7.67820108 L2.91354129,7.67820108 C2.80308434,7.67820108 2.71354128,7.58865803 2.71354128,7.47820108 L2.71354128,1.55059502 L2.71354128,1.55059502 L0.200000003,1.55059502 C0.0895430514,1.55059502 4.12826508e-17,1.46105197 0,1.35059502 L0,0.200000003 C-1.35270752e-17,0.0895430514 0.0895430514,-6.2976114e-17 0.200000003,0 L7.13625268,0 C7.24670963,-4.83062441e-16 7.33625268,0.0895430514 7.33625268,0.200000003 L7.33625268,1.35059502 C7.33625268,1.46105197 7.24670963,1.55059502 7.13625268,1.55059502 Z" stroke="none" fill="#000000" filter="url(#i2)"></path><g clip-path="url(#i5)"><polygon points="0,0 7.33625268,0 7.33625268,7.67820108 0,7.67820108 0,0" stroke="none" fill="#FFFFFF"></polygon></g></g></g></g></svg>