<svg width="48" height="48" viewBox="0 0 48 48" fill="none" xmlns="http://www.w3.org/2000/svg">
<rect opacity="0.01" x="0.5" y="0.5" width="47" height="47" fill="#D8D8D8" stroke="#979797"/>
<path d="M28.3834 28.501H25.3717V37.501H22.3717V28.501H19.3805L23.8717 22.4971L28.3834 28.501ZM23.8717 7.49902C30.3427 7.49906 35.8176 11.6425 37.9176 17.3965C41.8745 18.3415 44.8355 21.887 44.8356 26.1289C44.8356 31.0909 40.7976 35.1289 35.8356 35.1289C34.7916 35.1289 33.8017 34.916 32.8717 34.583V31.2676C33.6097 31.6936 34.423 32.0001 35.317 32.0781C35.4909 32.0902 35.6587 32.1289 35.8356 32.1289C39.1446 32.1289 41.8356 29.4379 41.8356 26.1289C41.8355 23.867 40.5636 21.9165 38.7096 20.8936C37.8516 20.4226 36.8825 20.1289 35.8356 20.1289C35.7666 20.1289 35.7034 20.1474 35.6344 20.1504C35.4274 19.1244 35.0589 18.1669 34.6119 17.252C32.659 13.271 28.5997 10.4991 23.8717 10.499C19.1467 10.499 15.0934 13.2682 13.1344 17.2432C12.6845 18.158 12.316 19.1149 12.109 20.1406C12.073 20.1406 12.0366 20.1289 12.0006 20.1289C10.9147 20.1289 9.90691 20.4442 9.02795 20.9512C7.22799 21.9862 6.00065 23.909 6.00061 26.1289C6.00061 29.4379 8.69161 32.1289 12.0006 32.1289C12.1475 32.1289 12.2854 32.096 12.4323 32.084C13.3203 32.021 14.1307 31.7272 14.8717 31.3252V34.6104C13.9657 34.9253 13.0116 35.1289 12.0006 35.1289C7.03861 35.1289 3.00061 31.0909 3.00061 26.1289C3.00066 21.926 5.91112 18.4127 9.81409 17.4287C11.9052 11.6599 17.3889 7.49902 23.8717 7.49902Z" fill="#151B26"/>
</svg>
