<svg width="16" height="16" viewBox="0 0 16 16" fill="none" xmlns="http://www.w3.org/2000/svg">
<g clip-path="url(#clip0_488_7166)">
<path d="M11.25 1L14 3.75V13.5C14 14.3284 13.3284 15 12.5 15H3.5C2.67157 15 2 14.3284 2 13.5V2.5C2 1.67157 2.67157 1 3.5 1H11.25Z" fill="#7073FF"/>
<mask id="mask0_488_7166" style="mask-type:luminance" maskUnits="userSpaceOnUse" x="2" y="1" width="12" height="14">
<path d="M11.25 1L14 3.75V13.5C14 14.3284 13.3284 15 12.5 15H3.5C2.67157 15 2 14.3284 2 13.5V2.5C2 1.67157 2.67157 1 3.5 1H11.25Z" fill="white"/>
</mask>
<g mask="url(#mask0_488_7166)">
<path fill-rule="evenodd" clip-rule="evenodd" d="M14 3.75H12.75C11.9216 3.75 11.25 3.07843 11.25 2.25V1L14 3.75Z" fill="#B8BBFF"/>
</g>
<rect opacity="0.01" x="4" y="5" width="8" height="8" fill="#D8D8D8"/>
<g filter="url(#filter0_d_488_7166)">
<path d="M9.5791 6.66663C9.75483 6.66663 9.89746 6.80926 9.89746 6.98499V7.73499L10.7529 7.14319C10.964 6.99709 11.252 7.14824 11.252 7.40491V10.5953C11.252 10.852 10.9639 11.003 10.7529 10.8571L9.89746 10.2643V11.0153C9.89738 11.1909 9.75478 11.3336 9.5791 11.3336H4.91309C4.73741 11.3336 4.59481 11.1909 4.59473 11.0153V6.98499C4.59473 6.80926 4.73736 6.66663 4.91309 6.66663H9.5791ZM5.86719 7.72717C5.63317 7.72732 5.44362 7.91701 5.44336 8.151C5.44336 8.38521 5.63301 8.57566 5.86719 8.57581C6.10149 8.57581 6.29199 8.3853 6.29199 8.151C6.29174 7.91692 6.10133 7.72717 5.86719 7.72717Z" fill="white"/>
</g>
</g>
<defs>
<filter id="filter0_d_488_7166" x="3.59473" y="5.66663" width="8.65723" height="6.66699" filterUnits="userSpaceOnUse" color-interpolation-filters="sRGB">
<feFlood flood-opacity="0" result="BackgroundImageFix"/>
<feColorMatrix in="SourceAlpha" type="matrix" values="0 0 0 0 0 0 0 0 0 0 0 0 0 0 0 0 0 0 127 0" result="hardAlpha"/>
<feOffset/>
<feGaussianBlur stdDeviation="0.5"/>
<feColorMatrix type="matrix" values="0 0 0 0 0.6 0 0 0 0 0.0588235 0 0 0 0 0.27451 0 0 0 0.3 0"/>
<feBlend mode="normal" in2="BackgroundImageFix" result="effect1_dropShadow_488_7166"/>
<feBlend mode="normal" in="SourceGraphic" in2="effect1_dropShadow_488_7166" result="shape"/>
</filter>
<clipPath id="clip0_488_7166">
<rect width="16" height="16" fill="white"/>
</clipPath>
</defs>
</svg>
