<svg width="16" height="16" viewBox="0 0 16 16" fill="none" xmlns="http://www.w3.org/2000/svg">
<path d="M12.4502 6.66553C12.7364 6.66561 12.9877 6.85663 13.0645 7.13232L13.2461 7.78857C13.2655 7.85853 13.3379 7.90036 13.4082 7.88232L14.0674 7.7124C14.3446 7.64086 14.6361 7.76242 14.7793 8.01025L15.6807 9.5708C15.8238 9.81877 15.7836 10.1321 15.583 10.3364L15.1055 10.8228C15.0551 10.8746 15.0549 10.9575 15.1055 11.0093L15.583 11.4956C15.7833 11.6998 15.8235 12.0124 15.6807 12.2603L14.7793 13.8208C14.6361 14.0688 14.3446 14.1912 14.0674 14.1196L13.4082 13.9497C13.3379 13.9316 13.2656 13.9726 13.2461 14.0425L13.0645 14.6987C12.9878 14.9745 12.7364 15.1654 12.4502 15.1655H10.6484C10.3621 15.1655 10.1109 14.9746 10.0342 14.6987L9.85156 14.0425C9.832 13.9726 9.75973 13.9316 9.68945 13.9497L9.03027 14.1196C8.75312 14.191 8.46246 14.0687 8.31934 13.8208L7.41797 12.2603C7.27499 12.0123 7.31516 11.6999 7.51562 11.4956L7.99219 11.0093C8.04303 10.9574 8.04301 10.8746 7.99219 10.8228L7.51562 10.3364C7.31504 10.1321 7.27484 9.81878 7.41797 9.5708L8.31934 8.01025C8.46254 7.76256 8.75321 7.641 9.03027 7.7124L9.68945 7.88232C9.7598 7.90047 9.83209 7.85857 9.85156 7.78857L10.0342 7.13232C10.111 6.85662 10.3622 6.66553 10.6484 6.66553H12.4502ZM11.999 1.3335C12.5512 1.33367 12.999 1.78132 12.999 2.3335V4.99951H11.666V2.6665H1.66602V5.3335H9.33203V6.6665H1.66602V9.3335H6.66602V10.6665H1.66602V13.3335H7.33203V14.6665H1.33301C0.780832 14.6665 0.333184 14.2186 0.333008 13.6665V2.3335C0.333008 1.78121 0.780723 1.3335 1.33301 1.3335H11.999ZM10.9756 8.10107C10.7859 8.78376 10.0845 9.18911 9.39844 9.01221L9.12793 8.94189L8.62891 9.80615L8.8252 10.0054C9.32133 10.511 9.32148 11.3211 8.8252 11.8267L8.62891 12.0259L9.12793 12.8892L9.39844 12.8198L9.46289 12.8052C10.0138 12.6921 10.5637 12.9475 10.8408 13.4146V13.4155C10.8872 13.4939 10.9263 13.578 10.9561 13.6675L10.9756 13.731L11.0498 13.9995H12.0479L12.1221 13.731L12.1416 13.6675C12.349 13.0439 12.992 12.6729 13.6357 12.8052L13.7002 12.8198L13.9697 12.8892L14.4688 12.0259L14.2734 11.8267C13.777 11.321 13.7771 10.5111 14.2734 10.0054L14.4688 9.80615L13.9697 8.94189L13.7002 9.01221C13.014 9.1893 12.3117 8.78388 12.1221 8.10107L12.0479 7.83252H11.0498L10.9756 8.10107ZM11.583 9.08252C12.5953 9.08272 13.4159 9.90326 13.416 10.9155C13.4159 11.9279 12.5953 12.7493 11.583 12.7495C10.5705 12.7495 9.74909 11.928 9.74902 10.9155C9.74917 9.90313 10.5706 9.08252 11.583 9.08252ZM3.67285 12.6733H2.33301V11.3335H3.67285V12.6733ZM11.583 10.2495C11.2149 10.2495 10.9162 10.5475 10.916 10.9155C10.9161 11.2837 11.2149 11.5825 11.583 11.5825C11.951 11.5823 12.249 11.2835 12.249 10.9155C12.2489 10.5476 11.9509 10.2497 11.583 10.2495ZM3.67285 8.67334H2.33301V7.3335H3.67285V8.67334ZM3.67285 4.67334H2.33301V3.3335H3.67285V4.67334Z" fill="#1E293B"/>
</svg>
