<svg width="16" height="16" viewBox="0 0 16 16" fill="none" xmlns="http://www.w3.org/2000/svg">
<g clip-path="url(#clip0_1396_59883)">
<path d="M12.2842 5.33333C12.5704 5.33342 12.8214 5.52433 12.8981 5.80013L13.0804 6.45638C13.0998 6.52636 13.1719 6.56788 13.2422 6.5498L13.9017 6.37956C14.179 6.30799 14.4701 6.43007 14.6133 6.67806L15.5143 8.23861C15.6574 8.48658 15.6176 8.79959 15.417 9.00391L14.9398 9.48991C14.8889 9.54177 14.8889 9.62491 14.9398 9.67676L15.417 10.1628C15.6176 10.3671 15.6575 10.6801 15.5143 10.9281L14.6133 12.4886C14.4701 12.7366 14.179 12.8587 13.9017 12.7871L13.2422 12.6169C13.1719 12.5988 13.0998 12.6403 13.0804 12.7103L12.8981 13.3665C12.8214 13.6423 12.5704 13.8332 12.2842 13.8333H10.4821C10.1958 13.8333 9.94453 13.6424 9.86784 13.3665L9.68555 12.7103C9.6661 12.6403 9.59413 12.5987 9.52376 12.6169L8.86458 12.7871C8.58732 12.8587 8.29618 12.7366 8.15299 12.4886L7.25195 10.9281C7.1088 10.6801 7.14871 10.3671 7.34928 10.1628L7.8265 9.67676C7.87734 9.62492 7.87732 9.54176 7.8265 9.48991L7.34928 9.00391C7.1487 8.79959 7.10882 8.48659 7.25195 8.23861L8.15299 6.67806C8.29618 6.43007 8.58731 6.30797 8.86458 6.37956L9.52376 6.5498C9.59411 6.56795 9.66607 6.52637 9.68555 6.45638L9.86784 5.80013C9.94451 5.52425 10.1958 5.33333 10.4821 5.33333H12.2842ZM6.33333 12.6667H0.5V11.3333H6.33333V12.6667ZM10.8096 6.76855C10.6199 7.45139 9.91828 7.85649 9.2321 7.67936L8.96224 7.60937L8.46322 8.47331L8.65885 8.67253C9.15535 9.17821 9.15535 9.98846 8.65885 10.4941L8.46322 10.693L8.96224 11.557L9.2321 11.4873L9.29655 11.4723C9.84766 11.3591 10.3977 11.6151 10.6748 12.0824L10.7187 12.0703L10.6751 12.0827C10.7216 12.1611 10.7606 12.2454 10.7904 12.335L10.8096 12.3981L10.8841 12.6667H11.8818L11.9564 12.3981L11.9756 12.3346C12.183 11.7111 12.826 11.34 13.4697 11.4723L13.5339 11.4873L13.8037 11.557L14.3027 10.693L14.1074 10.4941C13.6109 9.98846 13.6109 9.17822 14.1074 8.67253L14.3027 8.47331L13.8037 7.60937L13.5339 7.67936C12.8477 7.85645 12.1461 7.45136 11.9564 6.76855L11.8818 6.5H10.8841L10.8096 6.76855ZM11.4167 7.75C12.4291 7.75006 13.25 8.57085 13.25 9.58333C13.2499 10.5958 12.4291 11.4166 11.4167 11.4167C10.4042 11.4167 9.5834 10.5958 9.58333 9.58333C9.58333 8.57081 10.4041 7.75 11.4167 7.75ZM11.4167 8.91667C11.0485 8.91667 10.75 9.21514 10.75 9.58333C10.7501 9.95146 11.0485 10.25 11.4167 10.25C11.7848 10.2499 12.0833 9.95143 12.0833 9.58333C12.0833 9.21518 11.7848 8.91672 11.4167 8.91667ZM6.33333 8H0.5V6.66667H6.33333V8ZM13.1667 3.33333H0.5V2H13.1667V3.33333Z" fill="#1E293B"/>
</g>
<defs>
<clipPath id="clip0_1396_59883">
<rect width="16" height="16" fill="white"/>
</clipPath>
</defs>
</svg>
