<svg width="16" height="16" viewBox="0 0 16 16" fill="none" xmlns="http://www.w3.org/2000/svg">
    <path fill-rule="evenodd" clip-rule="evenodd"
        d="M2.14307 1.3335C1.59078 1.3335 1.14307 1.78121 1.14307 2.3335V5.3335V6.66683V9.3335V10.6668V13.6668C1.14307 14.2191 1.59078 14.6668 2.14307 14.6668H13.8574C14.4096 14.6668 14.8574 14.2191 14.8574 13.6668V10.6668V9.3335V6.66683V5.3335V2.3335C14.8574 1.78121 14.4096 1.3335 13.8574 1.3335L2.14307 1.3335ZM13.524 9.3335L2.4764 9.3335V6.66683L13.524 6.66683V9.3335ZM2.4764 13.3335V10.6668L13.524 10.6668V13.3335L2.4764 13.3335ZM13.524 5.3335V2.66683L2.4764 2.66683V5.3335L13.524 5.3335Z"
        fill="currentColor" />
    <path d="M5.71436 5.71436L5.71436 13.7144" stroke="currentColor" stroke-width="1.33333" />
    <path d="M10.2856 5.71436L10.2856 13.7144" stroke="currentColor" stroke-width="1.33333" />
</svg>