<svg width="14" height="14" viewBox="0 0 14 14" fill="none" xmlns="http://www.w3.org/2000/svg">
<path d="M4.37524 2.91528H3.20825V4.0813H4.37524V2.91528Z" fill="#334155"/>
<path fill-rule="evenodd" clip-rule="evenodd" d="M7.87524 11.6663H2.62524V9.3313H7.87524V8.16528H2.62524V5.8313H11.3752V7.58228H12.5422V2.33228C12.5421 1.68815 12.0194 1.16644 11.3752 1.16626H2.62524C1.98113 1.16644 1.45934 1.68815 1.45923 2.33228V11.6663C1.4594 12.3103 1.98122 12.832 2.62524 12.8323H7.87524V11.6663ZM2.62524 4.66528V2.33228H11.3752V4.66528H2.62524Z" fill="#334155"/>
<path d="M4.37524 6.41528H3.20825V7.5813H4.37524V6.41528Z" fill="#334155"/>
<path d="M11.0833 11.3733H12.5413V10.2073H11.0833V8.74829H9.91724V10.2073H8.45825V11.3733H9.91724V12.8313H11.0833V11.3733Z" fill="#334155"/>
<path d="M4.37524 9.91528H3.20825V11.0813H4.37524V9.91528Z" fill="#334155"/>
</svg>
