<svg width="12" height="12" viewBox="0 0 12 12" fill="none" xmlns="http://www.w3.org/2000/svg">
<path d="M7.25098 6.99976C8.21746 6.03343 9.78428 6.03338 10.7507 6.99976C11.6398 7.8889 11.7104 9.28587 10.9636 10.2563L11.4792 10.772L10.772 11.479L10.2048 10.9116C9.26297 11.4368 8.05134 11.3 7.25098 10.4998C6.28454 9.53325 6.2845 7.96624 7.25098 6.99976ZM10 1.00488C10.5523 1.00488 11 1.4526 11 2.00488V6.00122H10V2.00488H1.75V9.75488H6V10.7549H1.75C1.19772 10.7549 0.75 10.3072 0.75 9.75488V2.00488C0.75 1.4526 1.19771 1.00488 1.75 1.00488H10ZM10.0437 7.70679C9.46777 7.13094 8.53397 7.13098 7.95801 7.70679C7.38206 8.28274 7.38211 9.2165 7.95801 9.79248C8.53399 10.3684 9.46774 10.3684 10.0437 9.79248C10.6195 9.21651 10.6196 8.28272 10.0437 7.70679ZM4.73267 4.06323L5.57104 5.73999L6.40942 4.06323L6.54785 3.78687H9.42871V4.78687H7.16577L5.57104 7.97632L4.2854 5.40503L3.7373 6.50122H2.57104V5.50122H3.11914L3.83813 4.06323L4.2854 3.16895L4.73267 4.06323Z" fill="#1E293B"/>
</svg>
