<svg width="14" height="14" viewBox="0 0 14 14" fill="none" xmlns="http://www.w3.org/2000/svg">
<path fill-rule="evenodd" clip-rule="evenodd" d="M4.92043 1.8075C5.02563 1.42878 5.37046 1.16669 5.76351 1.16669H8.2368C8.62985 1.16669 8.97467 1.42878 9.07987 1.8075L9.37814 2.88127L10.4573 2.60267C10.8378 2.50442 11.2372 2.672 11.4338 3.01239L12.6704 5.15432C12.8669 5.49472 12.8124 5.92439 12.537 6.20485L11.7562 7.00002L12.537 7.79519C12.8124 8.07566 12.8669 8.50533 12.6704 8.84573L11.4338 10.9877C11.2372 11.328 10.8378 11.4956 10.4573 11.3974L9.37814 11.1188L9.07987 12.1925C8.97467 12.5713 8.62985 12.8334 8.2368 12.8334H5.76351C5.37045 12.8334 5.02563 12.5713 4.92043 12.1925L4.62218 11.1188L3.54328 11.3974C3.1627 11.4956 2.76331 11.328 2.56678 10.9877L1.33014 8.84573C1.13361 8.50533 1.18818 8.07566 1.46356 7.79519L2.24431 7.00002L1.46356 6.20485C1.18818 5.92439 1.13361 5.49472 1.33014 5.15432L2.56678 3.01239C2.76331 2.672 3.1627 2.50442 3.54328 2.60267L4.62218 2.88121L4.92043 1.8075ZM4.54553 10.8429L4.54564 10.8433ZM5.9852 2.33335L5.66964 3.46939C5.54197 3.929 5.0697 4.20166 4.60783 4.08242L3.4663 3.78772L2.45135 5.54566L3.27742 6.38699C3.61162 6.72736 3.61162 7.27269 3.27742 7.61305L2.45135 8.45438L3.4663 10.2123L4.60783 9.91762C5.0697 9.79838 5.54197 10.071 5.66964 10.5307L5.9852 11.6667H8.0151L8.33069 10.5306C8.45835 10.071 8.93063 9.79832 9.39249 9.91756L10.5343 10.2123L11.5492 8.45438L10.7231 7.61305C10.3889 7.27269 10.3889 6.72736 10.7231 6.38699L11.5492 5.54566L10.5342 3.78772L9.39249 4.08248C8.93062 4.20172 8.45835 3.92906 8.33069 3.46945L8.0151 2.33335H5.9852ZM7.00015 5.83335C6.35582 5.83335 5.83349 6.35569 5.83349 7.00002C5.83349 7.64435 6.35582 8.16669 7.00015 8.16669C7.64449 8.16669 8.16682 7.64435 8.16682 7.00002C8.16682 6.35569 7.64449 5.83335 7.00015 5.83335ZM4.66682 7.00002C4.66682 5.71136 5.71149 4.66669 7.00015 4.66669C8.28882 4.66669 9.33349 5.71136 9.33349 7.00002C9.33349 8.28869 8.28882 9.33335 7.00015 9.33335C5.71149 9.33335 4.66682 8.28869 4.66682 7.00002Z" fill="#1E293B"/>
</svg>
