<svg width="14" height="14" viewBox="0 0 14 14" fill="none" xmlns="http://www.w3.org/2000/svg">
<path d="M9.04171 9.91817C9.04181 10.2402 9.30297 10.5015 9.62504 10.5015H12.8838L11.7675 11.5164L10.1634 12.9747L9.37838 12.1117L9.86629 11.6682H9.62504C8.65863 11.6681 7.87514 10.8846 7.87504 9.91817H9.04171ZM11.0828 1.16675C11.7271 1.16678 12.2494 1.68913 12.2495 2.33341V6.70841H11.0828V2.33341H2.3328V11.6667H6.7078V12.8334H2.3328C1.68851 12.8334 1.1662 12.311 1.16614 11.6667V2.33341C1.16618 1.68912 1.6885 1.16675 2.3328 1.16675H11.0828ZM11.33 7.72469L10.8421 8.16817H11.0834C12.0499 8.16819 12.8334 8.95169 12.8334 9.91817H11.6667C11.6667 9.59602 11.4055 9.33486 11.0834 9.33484H7.82463L8.94088 8.31999L10.545 6.86165L11.33 7.72469ZM7.72835 7.29118V8.45784H3.79085V7.29118H7.72835ZM9.62419 4.08284V5.24951H3.79085V4.08284H9.62419Z" fill="#334155"/>
</svg>
