<svg width="16" height="16" viewBox="0 0 16 16" fill="none" xmlns="http://www.w3.org/2000/svg">
<g clip-path="url(#clip0_5308_175231)">
<path d="M12.4512 6.66406C12.7374 6.66415 12.9888 6.85507 13.0654 7.13086L13.248 7.78711C13.2675 7.8569 13.339 7.89863 13.4092 7.88086L14.0693 7.70996C14.3464 7.63858 14.6371 7.76101 14.7803 8.00879L15.6816 9.56934C15.8248 9.81731 15.7846 10.1306 15.584 10.335L15.1074 10.8203C15.0566 10.8722 15.0566 10.956 15.1074 11.0078L15.584 11.4932C15.7845 11.6975 15.8248 12.0108 15.6816 12.2588L14.7803 13.8193C14.6371 14.0671 14.3464 14.1895 14.0693 14.1182L13.4092 13.9473C13.339 13.9295 13.2675 13.9712 13.248 14.041L13.0654 14.6973C12.9887 14.973 12.7374 15.164 12.4512 15.1641H10.6494C10.3631 15.164 10.1118 14.9731 10.0352 14.6973L9.85254 14.041C9.83307 13.9712 9.76164 13.9293 9.69141 13.9473L9.03223 14.1182C8.75496 14.1897 8.4635 14.0673 8.32031 13.8193L7.41895 12.2588C7.27591 12.0108 7.31607 11.6974 7.5166 11.4932L7.99414 11.0078C8.04499 10.956 8.04497 10.8722 7.99414 10.8203L7.5166 10.335C7.31606 10.1307 7.27593 9.81729 7.41895 9.56934L8.32031 8.00879C8.4635 7.7608 8.75496 7.63838 9.03223 7.70996L9.69141 7.88086C9.76162 7.89879 9.83305 7.85694 9.85254 7.78711L10.0352 7.13086C10.1118 6.85501 10.3631 6.6641 10.6494 6.66406H12.4512ZM12.001 1.33203C12.5531 1.33221 13.001 1.77986 13.001 2.33203V5H11.667V2.66504H1.66699V5.33203H9.33301V6.66504H1.66699V9.33203H6.66602V10.665H1.66699V13.332H7.33203L7.33301 13.333V14.665H1.33398C0.781701 14.665 0.333984 14.2173 0.333984 13.665V2.33203C0.333984 1.77975 0.7817 1.33203 1.33398 1.33203H12.001ZM10.9766 8.09961C10.7867 8.7822 10.0855 9.18686 9.39941 9.00977L9.12988 8.94043L8.63086 9.80371L8.82617 10.0029C9.32266 10.5086 9.32267 11.3195 8.82617 11.8252L8.63086 12.0234L9.12988 12.8877L9.39941 12.8184L9.46387 12.8027C10.0149 12.6896 10.5647 12.9459 10.8418 13.4131H10.8428C10.8892 13.4915 10.9282 13.5764 10.958 13.666L10.9766 13.7285L11.0518 13.9971H12.0488L12.124 13.7285L12.1426 13.665C12.35 13.0417 12.9932 12.6707 13.6367 12.8027L13.7012 12.8184L13.9707 12.8877L14.4697 12.0234L14.2744 11.8252C13.7779 11.3195 13.778 10.5086 14.2744 10.0029L14.4697 9.80371L13.9707 8.94043L13.7012 9.00977C13.0151 9.18683 12.3138 8.78219 12.124 8.09961L12.0488 7.83105H11.0518L10.9766 8.09961ZM11.584 9.08105C12.5965 9.08111 13.417 9.90158 13.417 10.9141C13.4169 11.9265 12.5964 12.747 11.584 12.7471C10.5715 12.747 9.75104 11.9265 9.75098 10.9141C9.75098 9.90157 10.5715 9.0811 11.584 9.08105ZM3.67383 12.6719H2.33398V11.332H3.67383V12.6719ZM11.584 10.2471C11.2158 10.2471 10.917 10.5459 10.917 10.9141C10.9171 11.2822 11.2159 11.581 11.584 11.5811C11.9521 11.581 12.2509 11.2822 12.251 10.9141C12.251 10.5459 11.9521 10.2471 11.584 10.2471ZM3.67383 8.67188H2.33398V7.33203H3.67383V8.67188ZM3.67383 4.67188H2.33398V3.33203H3.67383V4.67188Z" fill="#1E293B"/>
</g>
<defs>
<clipPath id="clip0_5308_175231">
<rect width="16" height="16" fill="white"/>
</clipPath>
</defs>
</svg>
