<svg width="24" height="24" viewBox="0 0 24 24" fill="none" xmlns="http://www.w3.org/2000/svg">
<path fill-rule="evenodd" clip-rule="evenodd" d="M5.33301 7.33301C5.33301 6.74533 5.82592 6.33301 6.35262 6.33301H10.8641C11.1875 6.33301 11.5043 6.48483 11.7006 6.76113L12.3438 7.66634H17.2938C18.0154 7.66634 18.6663 8.22791 18.6663 8.99967V15.9997C18.6663 16.3365 18.5358 16.7076 18.3579 16.9916C18.2 17.2438 17.8498 17.6663 17.2938 17.6663H6.70556C5.98393 17.6663 5.33301 17.1048 5.33301 16.333V7.33301ZM6.66634 8.99967V16.3216C6.67255 16.3265 6.68516 16.333 6.70556 16.333H17.1935C17.2034 16.3206 17.2151 16.3044 17.2279 16.2839C17.261 16.2311 17.2899 16.1683 17.3096 16.1071C17.3192 16.0772 17.3254 16.0513 17.3291 16.0308C17.3327 16.0106 17.333 16.0003 17.333 15.9997L17.333 9.01109C17.3268 9.00622 17.3142 8.99967 17.2938 8.99967H6.66634Z" fill="#0F172A"/>
</svg>
