<svg width="24" height="24" viewBox="0 0 24 24" fill="none" xmlns="http://www.w3.org/2000/svg">
<path d="M6 12V9.1604C6 9.12932 6.0032 9.09855 6.00961 9.06807C6.01601 9.03759 6.0255 9.008 6.03806 8.97929C6.05062 8.95058 6.06603 8.92331 6.08426 8.89747C6.1025 8.87163 6.12323 8.84772 6.14645 8.82575C6.16966 8.80378 6.19492 8.78416 6.22221 8.76689C6.24951 8.74963 6.27833 8.73505 6.30866 8.72316C6.33899 8.71127 6.37026 8.70229 6.40246 8.69623C6.43465 8.69017 6.46717 8.68713 6.5 8.68713H17.5C17.5328 8.68713 17.5653 8.69017 17.5975 8.69623C17.6297 8.70229 17.661 8.71127 17.6913 8.72316C17.7216 8.73505 17.7505 8.74963 17.7778 8.76689C17.8051 8.78416 17.8303 8.80378 17.8536 8.82575C17.8768 8.84772 17.8975 8.87163 17.9157 8.89747C17.934 8.92331 17.9494 8.95058 17.9619 8.97929C17.9745 9.008 17.984 9.03759 17.9904 9.06807C17.9968 9.09855 18 9.12932 18 9.1604V12C18 12.0311 17.9968 12.0618 17.9904 12.0923C17.984 12.1228 17.9745 12.1524 17.9619 12.1811C17.9494 12.2098 17.934 12.2371 17.9157 12.2629C17.8975 12.2888 17.8768 12.3127 17.8536 12.3346C17.8303 12.3566 17.8051 12.3762 17.7778 12.3935C17.7505 12.4108 17.7216 12.4253 17.6913 12.4372C17.661 12.4491 17.6297 12.4581 17.5975 12.4642C17.5653 12.4702 17.5328 12.4733 17.5 12.4733H6.5C6.46717 12.4733 6.43465 12.4702 6.40246 12.4642C6.37026 12.4581 6.33899 12.4491 6.30866 12.4372C6.27833 12.4253 6.24951 12.4108 6.22221 12.3935C6.19492 12.3762 6.16966 12.3566 6.14645 12.3346C6.12323 12.3127 6.1025 12.2888 6.08426 12.2629C6.06603 12.2371 6.05062 12.2098 6.03806 12.1811C6.0255 12.1524 6.01601 12.1228 6.00961 12.0923C6.0032 12.0618 6 12.0311 6 12ZM7 9.63366V11.5267H17V9.63366H7Z" fill="#B8BABF"/>
<path fill-rule="evenodd" clip-rule="evenodd" d="M7.00581 11.928L6.00581 18.0805C6.00194 18.1043 6 18.1283 6 18.1524C6 18.1835 6.0032 18.2143 6.00961 18.2448C6.01601 18.2752 6.0255 18.3048 6.03806 18.3336C6.05062 18.3623 6.06603 18.3895 6.08426 18.4154C6.1025 18.4412 6.12323 18.4651 6.14645 18.4871C6.16966 18.5091 6.19492 18.5287 6.22221 18.5459C6.24951 18.5632 6.27833 18.5778 6.30866 18.5897C6.33899 18.6016 6.37026 18.6105 6.40246 18.6166C6.43465 18.6227 6.46717 18.6257 6.5 18.6257H17.5C17.5255 18.6257 17.5508 18.6239 17.576 18.6202C17.6085 18.6155 17.6401 18.6078 17.671 18.5972C17.7019 18.5866 17.7313 18.5732 17.7594 18.5571C17.7875 18.5409 17.8136 18.5224 17.8378 18.5014C17.862 18.4804 17.8838 18.4574 17.9032 18.4323C17.9226 18.4073 17.9392 18.3806 17.9531 18.3525C17.967 18.3243 17.9779 18.2951 17.9857 18.265C17.9935 18.2348 17.9981 18.2042 17.9995 18.1731C18.001 18.1421 17.9992 18.1112 17.9942 18.0805L16.9942 11.928C16.9897 11.9003 16.9826 11.8732 16.973 11.8467C16.9634 11.8202 16.9514 11.7946 16.9371 11.7701C16.9227 11.7456 16.9061 11.7225 16.8874 11.7008C16.8687 11.6791 16.8481 11.6591 16.8256 11.6408C16.8031 11.6226 16.779 11.6063 16.7535 11.5921C16.728 11.5779 16.7013 11.5659 16.6736 11.5562C16.6458 11.5464 16.6173 11.5391 16.5882 11.5341C16.559 11.5292 16.5296 11.5267 16.5 11.5267H7.5C7.47038 11.5267 7.44099 11.5292 7.41183 11.5341C7.38267 11.5391 7.3542 11.5464 7.32642 11.5562C7.29864 11.5659 7.27199 11.5779 7.24646 11.5921C7.22092 11.6063 7.19692 11.6226 7.17443 11.6408C7.15195 11.6591 7.13135 11.6791 7.11262 11.7008C7.09389 11.7225 7.07733 11.7456 7.06294 11.7701C7.04855 11.7946 7.03656 11.8202 7.02697 11.8467C7.01737 11.8732 7.01032 11.9003 7.00581 11.928ZM7.08281 17.6792H16.9172L16.071 12.4733H7.92896L7.08281 17.6792Z" fill="#B8BABF"/>
<path d="M10.5 9.16039V5.84753C10.5 5.81646 10.5032 5.78568 10.5096 5.7552C10.516 5.72472 10.5255 5.69513 10.5381 5.66642C10.5506 5.63771 10.566 5.61044 10.5843 5.5846C10.6025 5.55876 10.6232 5.53486 10.6464 5.51288C10.6697 5.49091 10.6949 5.47129 10.7222 5.45403C10.7495 5.43676 10.7783 5.42218 10.8087 5.41029C10.839 5.3984 10.8703 5.38942 10.9025 5.38336C10.9347 5.3773 10.9672 5.37427 11 5.37427H13C13.0328 5.37427 13.0653 5.3773 13.0975 5.38336C13.1297 5.38942 13.161 5.3984 13.1913 5.41029C13.2217 5.42218 13.2505 5.43676 13.2778 5.45403C13.3051 5.47129 13.3303 5.49091 13.3535 5.51288C13.3768 5.53486 13.3975 5.55876 13.4157 5.5846C13.434 5.61044 13.4494 5.63771 13.4619 5.66642C13.4745 5.69513 13.484 5.72472 13.4904 5.7552C13.4968 5.78568 13.5 5.81646 13.5 5.84753V9.16039C13.5 9.19147 13.4968 9.22224 13.4904 9.25271C13.484 9.28319 13.4745 9.31279 13.4619 9.3415C13.4494 9.37021 13.434 9.39748 13.4157 9.42332C13.3975 9.44916 13.3768 9.47306 13.3535 9.49503C13.3303 9.51701 13.3051 9.53663 13.2778 9.55389C13.2505 9.57115 13.2217 9.58573 13.1913 9.59763C13.161 9.60952 13.1297 9.61849 13.0975 9.62456C13.0653 9.63062 13.0328 9.63365 13 9.63365H11C10.9672 9.63365 10.9347 9.63062 10.9025 9.62456C10.8703 9.61849 10.839 9.60952 10.8087 9.59763C10.7783 9.58573 10.7495 9.57115 10.7222 9.55389C10.6949 9.53663 10.6697 9.51701 10.6464 9.49503C10.6232 9.47306 10.6025 9.44916 10.5843 9.42332C10.566 9.39748 10.5506 9.37021 10.5381 9.3415C10.5255 9.31279 10.516 9.28319 10.5096 9.25271C10.5032 9.22224 10.5 9.19147 10.5 9.16039ZM11.5 6.3208V8.68712H12.5V6.3208H11.5Z" fill="#B8BABF"/>
<path fill-rule="evenodd" clip-rule="evenodd" d="M9.9873 15.6302V18.0934C9.9873 18.1245 9.99051 18.1553 9.99691 18.1858C10.0033 18.2162 10.0128 18.2458 10.0254 18.2745C10.0379 18.3033 10.0533 18.3305 10.0716 18.3564C10.0898 18.3822 10.1105 18.4061 10.1338 18.4281C10.157 18.4501 10.1822 18.4697 10.2095 18.4869C10.2368 18.5042 10.2656 18.5188 10.296 18.5307C10.3263 18.5426 10.3576 18.5515 10.3898 18.5576C10.422 18.5637 10.4545 18.5667 10.4873 18.5667C10.5201 18.5667 10.5527 18.5637 10.5849 18.5576C10.6171 18.5515 10.6483 18.5426 10.6786 18.5307C10.709 18.5188 10.7378 18.5042 10.7651 18.4869C10.7924 18.4697 10.8176 18.4501 10.8409 18.4281C10.8641 18.4061 10.8848 18.3822 10.903 18.3564C10.9213 18.3305 10.9367 18.3033 10.9492 18.2745C10.9618 18.2458 10.9713 18.2162 10.9777 18.1858C10.9841 18.1553 10.9873 18.1245 10.9873 18.0934V15.6302C10.9873 15.5991 10.9841 15.5683 10.9777 15.5379C10.9713 15.5074 10.9618 15.4778 10.9492 15.4491C10.9367 15.4204 10.9213 15.3931 10.903 15.3673C10.8848 15.3414 10.8641 15.3175 10.8409 15.2955C10.8176 15.2736 10.7924 15.2539 10.7651 15.2367C10.7378 15.2194 10.709 15.2048 10.6786 15.1929C10.6483 15.1811 10.6171 15.1721 10.5849 15.166C10.5527 15.16 10.5201 15.1569 10.4873 15.1569C10.4545 15.1569 10.422 15.16 10.3898 15.166C10.3576 15.1721 10.3263 15.1811 10.296 15.1929C10.2656 15.2048 10.2368 15.2194 10.2095 15.2367C10.1822 15.2539 10.157 15.2736 10.1338 15.2955C10.1105 15.3175 10.0898 15.3414 10.0716 15.3673C10.0533 15.3931 10.0379 15.4204 10.0254 15.4491C10.0128 15.4778 10.0033 15.5074 9.99691 15.5379C9.99051 15.5683 9.9873 15.5991 9.9873 15.6302Z" fill="#B8BABF"/>
<path fill-rule="evenodd" clip-rule="evenodd" d="M13.0527 15.6302V18.0934C13.0527 18.1245 13.0559 18.1553 13.0623 18.1858C13.0687 18.2162 13.0782 18.2458 13.0908 18.2745C13.1034 18.3033 13.1188 18.3305 13.137 18.3564C13.1552 18.3822 13.176 18.4061 13.1992 18.4281C13.2224 18.4501 13.2477 18.4697 13.275 18.4869C13.3022 18.5042 13.3311 18.5188 13.3614 18.5307C13.3917 18.5426 13.423 18.5515 13.4552 18.5576C13.4874 18.5637 13.5199 18.5667 13.5527 18.5667C13.5856 18.5667 13.6181 18.5637 13.6503 18.5576C13.6825 18.5515 13.7137 18.5426 13.7441 18.5307C13.7744 18.5188 13.8032 18.5042 13.8305 18.4869C13.8578 18.4697 13.8831 18.4501 13.9063 18.4281C13.9295 18.4061 13.9502 18.3822 13.9685 18.3564C13.9867 18.3305 14.0021 18.3033 14.0147 18.2745C14.0272 18.2458 14.0367 18.2162 14.0431 18.1858C14.0495 18.1553 14.0527 18.1245 14.0527 18.0934V15.6302C14.0527 15.5991 14.0495 15.5683 14.0431 15.5379C14.0367 15.5074 14.0272 15.4778 14.0147 15.4491C14.0021 15.4204 13.9867 15.3931 13.9685 15.3673C13.9502 15.3414 13.9295 15.3175 13.9063 15.2955C13.8831 15.2736 13.8578 15.2539 13.8305 15.2367C13.8032 15.2194 13.7744 15.2048 13.7441 15.1929C13.7137 15.1811 13.6825 15.1721 13.6503 15.166C13.6181 15.16 13.5856 15.1569 13.5527 15.1569C13.5199 15.1569 13.4874 15.16 13.4552 15.166C13.423 15.1721 13.3917 15.1811 13.3614 15.1929C13.3311 15.2048 13.3022 15.2194 13.275 15.2367C13.2477 15.2539 13.2224 15.2736 13.1992 15.2955C13.176 15.3175 13.1552 15.3414 13.137 15.3673C13.1188 15.3931 13.1034 15.4204 13.0908 15.4491C13.0782 15.4778 13.0687 15.5074 13.0623 15.5379C13.0559 15.5683 13.0527 15.5991 13.0527 15.6302Z" fill="#B8BABF"/>
</svg>
