<svg width="16" height="16" viewBox="0 0 16 16" fill="none" xmlns="http://www.w3.org/2000/svg">
<path fill-rule="evenodd" clip-rule="evenodd" d="M12.3633 7.26813H5.1633C5.11208 7.26813 5.06137 7.27286 5.01114 7.28231C4.96091 7.29177 4.91212 7.30578 4.86481 7.32433C4.81749 7.34288 4.77257 7.36562 4.72998 7.39255C4.6874 7.41949 4.64797 7.45009 4.61176 7.48437C4.57554 7.51865 4.54322 7.55594 4.51477 7.59625C4.48632 7.63655 4.46229 7.6791 4.44269 7.72389C4.42309 7.76868 4.40831 7.81484 4.39832 7.86239C4.38832 7.90993 4.3833 7.95794 4.3833 8.00642C4.3833 8.0549 4.38832 8.10291 4.39832 8.15046C4.40831 8.198 4.42309 8.24417 4.44269 8.28895C4.46229 8.33374 4.48632 8.37629 4.51477 8.41659C4.54322 8.4569 4.57554 8.49419 4.61176 8.52847C4.64797 8.56275 4.6874 8.59336 4.72998 8.62029C4.77257 8.64723 4.81749 8.66997 4.86481 8.68852C4.91212 8.70706 4.96091 8.72107 5.01114 8.73053C5.06137 8.73998 5.11208 8.74471 5.1633 8.74471H12.3633C12.4145 8.74471 12.4652 8.73998 12.5155 8.73053C12.5657 8.72107 12.6145 8.70706 12.6618 8.68852C12.7091 8.66997 12.7541 8.64723 12.7967 8.62029C12.8392 8.59336 12.8786 8.56275 12.9149 8.52847C12.9511 8.49419 12.9834 8.4569 13.0119 8.41659C13.0403 8.37629 13.0643 8.33374 13.0839 8.28895C13.1035 8.24417 13.1183 8.198 13.1283 8.15046C13.1383 8.10291 13.1433 8.0549 13.1433 8.00642C13.1433 7.95794 13.1383 7.90993 13.1283 7.86239C13.1183 7.81484 13.1035 7.76868 13.084 7.72389C13.0644 7.6791 13.0403 7.63655 13.0119 7.59625C12.9834 7.55594 12.9511 7.51865 12.9149 7.48437C12.8786 7.45009 12.8392 7.41949 12.7967 7.39255C12.7541 7.36562 12.7091 7.34288 12.6618 7.32433C12.6145 7.30578 12.5657 7.29177 12.5155 7.28231C12.4652 7.27286 12.4145 7.26813 12.3633 7.26813Z" fill="white"/>
<path fill-rule="evenodd" clip-rule="evenodd" d="M13.4344 9.84399L4.57327 14.7777C3.06207 15.6191 2.27757 16.0509 1.76417 15.9486C1.34047 15.8644 0.971369 15.5946 0.778069 15.228C0.543869 14.7836 0.786768 13.956 1.26467 12.3593L2.56757 8.00668L1.26467 3.65402C0.786768 2.05733 0.543869 1.22978 0.778069 0.785427C0.971369 0.418722 1.34047 0.149005 1.76417 0.0646973C2.27757 -0.0374522 3.06207 0.394223 4.57327 1.23564L13.4344 6.16937C14.52 6.7738 15.0785 7.08869 15.2547 7.48425C15.4027 7.81651 15.4027 8.19685 15.2547 8.52908C15.0785 8.92473 14.52 9.23953 13.4344 9.84399Z" fill="url(#paint0_linear_311_632)"/>
<g opacity="0.8">
<path fill-rule="evenodd" clip-rule="evenodd" d="M14.6714 9.1547L10.1433 11.6759C7.54518 13.0991 4.21801 11.9975 3.12361 9.35167L2.56711 8.00637L0.69031 1.73651C0.344311 0.580631 1.66411 -0.384123 2.75811 0.224997L14.6714 6.85807C15.5965 7.37319 15.5965 8.63958 14.6714 9.1547Z" fill="#4E47FF"/>
</g>
<defs>
<linearGradient id="paint0_linear_311_632" x1="8.0268" y1="23.0433" x2="8.0268" y2="1.60859" gradientUnits="userSpaceOnUse">
<stop stop-color="#4AFFFD"/>
<stop offset="1" stop-color="#2468F2"/>
</linearGradient>
</defs>
</svg>
