<svg width="24" height="24" viewBox="0 0 24 24" fill="none" xmlns="http://www.w3.org/2000/svg">
<path d="M12 2C17.5228 2 22 6.47715 22 12C22 17.5228 17.5228 22 12 22C6.47715 22 2 17.5228 2 12C2 6.47715 6.47715 2 12 2ZM12 4C7.58172 4 4 7.58172 4 12C4 16.4183 7.58172 20 12 20C16.4183 20 20 16.4183 20 12C20 7.58172 16.4183 4 12 4ZM14 8.5C14.8284 8.5 15.5 9.17157 15.5 10V14C15.5 14.8284 14.8284 15.5 14 15.5H10C9.17157 15.5 8.5 14.8284 8.5 14V10C8.5 9.17157 9.17157 8.5 10 8.5H14Z" fill="#4E5969"/>
</svg>
