<svg width="72" height="40" viewBox="0 0 72 40" fill="none" xmlns="http://www.w3.org/2000/svg">
<g clip-path="url(#clip0_15_1133)">
<path d="M0 12C0 5.37258 5.37258 0 12 0H60C66.6274 0 72 5.37258 72 12V28C72 34.6274 66.6274 40 60 40H12C5.37258 40 0 34.6274 0 28V12Z" fill="#EEF6FF"/>
<circle cx="22" cy="20" r="4" transform="rotate(180 22 20)" fill="#2D2D2D"/>
<circle cx="36" cy="20" r="4" transform="rotate(180 36 20)" fill="#D9D9D9"/>
<circle cx="50" cy="20" r="4" transform="rotate(180 50 20)" fill="#D9D9D9"/>
</g>
<defs>
<clipPath id="clip0_15_1133">
<path d="M0 12C0 5.37258 5.37258 0 12 0H60C66.6274 0 72 5.37258 72 12V28C72 34.6274 66.6274 40 60 40H12C5.37258 40 0 34.6274 0 28V12Z" fill="white"/>
</clipPath>
</defs>
</svg>
