<svg width="40" height="40" viewBox="0 0 40 40" fill="none" xmlns="http://www.w3.org/2000/svg">
<path d="M0 20C0 8.95431 8.95431 0 20 0C31.0457 0 40 8.95431 40 20C40 31.0457 31.0457 40 20 40C8.95431 40 0 31.0457 0 20Z" fill="#FFDFEE"/>
<circle cx="20" cy="20" r="10.5" fill="#FF3366"/>
<path d="M16.5195 16.1445C17.2444 16.1445 17.832 15.5569 17.832 14.832C17.832 14.1072 17.2444 13.5195 16.5195 13.5195C15.7947 13.5195 15.207 14.1072 15.207 14.832C15.207 15.5569 15.7947 16.1445 16.5195 16.1445Z" fill="white"/>
<path d="M13.7773 17.2695L13.3203 18.9453H14.8203C14.5195 20.168 13.8898 22.7398 13.7773 23.2461C13.6367 23.8789 13.6132 25.6836 15.5117 25.6836C16.8368 25.6836 17.682 24.8276 18.1534 24.1286L17.7969 25.5547H19.9297L21.043 21.0485C21.2012 20.2988 21.5735 18.8516 22.918 18.8516C24.5169 18.8516 23.9303 20.745 23.6428 21.6729C23.6311 21.7107 23.6199 21.7469 23.6094 21.7812C23.3937 22.4844 23.1641 23.3047 23.1641 23.8672C23.1641 24.5 23.457 25.6836 25.0977 25.6836C26.7383 25.6836 27.4375 24.0586 27.582 23.2461L26.75 22.9062C26.6914 23.3398 26.1641 24.2773 25.6719 24.2773C24.9981 24.2773 25.3365 23.1414 25.6978 21.929C25.858 21.3913 26.0227 20.8386 26.1055 20.3633C26.3149 19.1616 26.1055 17.1172 24.0195 17.1172C22.724 17.1172 21.7067 18.2716 21.2227 19.0731L21.6289 17.2695H18.3828L17.9375 18.9453H19.4492C19.4492 18.9453 18.5521 22.6012 18.4941 22.7158C17.8848 23.9199 16.9631 24.3241 16.2734 24.2773C15.7203 24.2398 15.7852 23.5742 15.8867 23.2461L17.3867 17.2695H13.7773Z" fill="white"/>
</svg>
