<svg width="16" height="16" viewBox="0 0 16 16" fill="none" xmlns="http://www.w3.org/2000/svg">
<path fill-rule="evenodd" clip-rule="evenodd" d="M12.6667 2.66665L6.66667 2.66665V1.33331L12.6667 1.33331C13.403 1.33331 14 1.93027 14 2.66665L14 9.99998H12.6667L12.6667 2.66665ZM2 5.33331C2 4.59693 2.59695 3.99998 3.33333 3.99998L10 3.99998C10.735 3.99998 11.3333 4.59446 11.3333 5.33224L11.3333 13.3362C11.3333 14.0751 10.7347 14.6666 10.0009 14.6666L3.33184 14.6666C2.59351 14.6666 2 14.0677 2 13.3333L2 5.33331ZM10 5.33331L3.33333 5.33331L3.33333 13.3333L10 13.3333L10 5.33331Z" fill="#1E293B"/>
</svg>
