<svg width="14" height="14" viewBox="0 0 14 14" fill="none" xmlns="http://www.w3.org/2000/svg">
<path d="M7 1C10.3137 1 13 3.68629 13 7C13 10.3137 10.3137 13 7 13C3.68629 13 1 10.3137 1 7C1 3.68629 3.68629 1 7 1Z" fill="#EF4D29"/>
<path d="M7 1V1.5C10.0376 1.5 12.5 3.96243 12.5 7H13H13.5C13.5 3.41015 10.5899 0.5 7 0.5V1ZM13 7H12.5C12.5 10.0376 10.0376 12.5 7 12.5V13V13.5C10.5899 13.5 13.5 10.5899 13.5 7H13ZM7 13V12.5C3.96243 12.5 1.5 10.0376 1.5 7H1H0.5C0.5 10.5899 3.41015 13.5 7 13.5V13ZM1 7H1.5C1.5 3.96243 3.96243 1.5 7 1.5V1V0.5C3.41015 0.5 0.5 3.41015 0.5 7H1Z" fill="#EF4D29"/>
<path d="M5.241 9.02048L8.87762 5.38387" stroke="white" stroke-width="1.2" stroke-linecap="round" stroke-linejoin="round"/>
<path d="M5.24097 5.38385L8.87758 9.02047" stroke="white" stroke-width="1.2" stroke-linecap="round" stroke-linejoin="round"/>
</svg>
