<svg width="16" height="16" viewBox="0 0 16 16" fill="none" xmlns="http://www.w3.org/2000/svg">
<path fill-rule="evenodd" clip-rule="evenodd" d="M4.48752 2.99996L2.57843 8.99996L6.63562 8.99996L5.8333 11.0967C5.61904 11.6566 5.80485 12.2907 6.28744 12.6464L6.86986 13.0758L10.0051 8.99996L10.6667 8.99996L10.6667 2.99996L4.48752 2.99996ZM3.29086 2.36342C3.42289 1.94844 3.8083 1.66663 4.24378 1.66663L12 1.66663L12 10.3333L10.6616 10.3333L7.72758 14.1476C7.39571 14.579 6.77973 14.6658 6.3416 14.3428L5.49629 13.7197C4.53112 13.0082 4.1595 11.7401 4.58802 10.6202L4.6978 10.3333L2.57843 10.3333C1.67602 10.3333 1.03425 9.45561 1.30786 8.59569L3.29086 2.36342ZM14.3334 1.66663L14.3334 10.3333L13 10.3333L13 1.66663L14.3334 1.66663Z" fill="#1E293B"/>
</svg>
