<svg width="16" height="16" viewBox="0 0 16 16" fill="none" xmlns="http://www.w3.org/2000/svg">
<path fill-rule="evenodd" clip-rule="evenodd" d="M9.65853 1.65703C9.22039 1.33406 8.60442 1.42083 8.27255 1.85226L5.33848 5.66654L4.00008 5.66654L4.00008 14.3332L11.7563 14.3332C12.1918 14.3332 12.5772 14.0514 12.7093 13.6364L14.6923 7.40415C14.9659 6.54422 14.3241 5.66654 13.4217 5.66653L10.0151 5.68609L10.1227 5.40479C10.1775 5.2616 10.2446 5.11195 10.3222 4.93884L10.3222 4.93875C10.3468 4.88396 10.3724 4.82682 10.399 4.76679C10.5029 4.53245 10.6181 4.26197 10.6982 3.9902C10.7768 3.72339 10.8392 3.39985 10.7918 3.06952C10.7413 2.71738 10.5694 2.38802 10.2463 2.14284L9.67381 1.66829L9.65853 1.65703ZM1.66675 5.66654L1.66675 14.3332H3.00008L3.00008 5.66654H1.66675Z" fill="#1E293B"/>
</svg>
