<svg width="16" height="16" viewBox="0 0 16 16" fill="none" xmlns="http://www.w3.org/2000/svg">
<path fill-rule="evenodd" clip-rule="evenodd" d="M11.4455 13.138L13.3546 7.138L9.29737 7.138L10.0997 5.04128C10.3139 4.48134 10.1281 3.84725 9.64555 3.49151L9.06312 3.06218L5.92788 7.138H5.26628L5.26627 13.138H11.4455ZM12.6421 13.7745C12.5101 14.1895 12.1247 14.4713 11.6892 14.4713H3.93294L3.93294 5.80467H5.27134L8.20541 1.99038C8.53728 1.55895 9.15326 1.47218 9.59139 1.79515L10.4367 2.41826C11.4019 3.12973 11.7735 4.39791 11.345 5.51778L11.2352 5.80467L13.3546 5.80467C14.257 5.80467 14.8987 6.68235 14.6251 7.54227L12.6421 13.7745ZM1.59961 14.4713V5.80467H2.93294V14.4713H1.59961Z" fill="#1E293B"/>
</svg>
