<svg width="22" height="22" viewBox="0 0 22 22" fill="none" xmlns="http://www.w3.org/2000/svg">
<g id="&#229;&#183;&#165;&#228;&#189;&#156;&#230;&#181;&#129;">
<g id="&#231;&#187;&#132; 6847">
<path id="&#231;&#159;&#169;&#229;&#189;&#162;&#229;&#164;&#135;&#228;&#187;&#189; 7" d="M6.90869 4.63647C6.90869 4.08419 7.35641 3.63647 7.90869 3.63647H14.0905C14.6428 3.63647 15.0905 4.08419 15.0905 4.63647V6.72738C15.0905 7.27967 14.6428 7.72738 14.0905 7.72738H7.90869C7.35641 7.72738 6.90869 7.27967 6.90869 6.72738V4.63647Z" fill="#5E6673"/>
<path id="&#231;&#159;&#169;&#229;&#189;&#162;&#229;&#164;&#135;&#228;&#187;&#189; 10" d="M6.90869 10.3635C6.90869 9.81124 7.35641 9.36353 7.90869 9.36353H14.0905C14.6428 9.36353 15.0905 9.81124 15.0905 10.3635V12.4544C15.0905 13.0067 14.6428 13.4544 14.0905 13.4544H7.90869C7.35641 13.4544 6.90869 13.0067 6.90869 12.4544V10.3635Z" fill="#5E6673"/>
<path id="&#231;&#159;&#169;&#229;&#189;&#162;&#229;&#164;&#135;&#228;&#187;&#189; 9" d="M6.90869 16.0908C6.90869 15.5385 7.35641 15.0908 7.90869 15.0908H14.0905C14.6428 15.0908 15.0905 15.5385 15.0905 16.0908V18.1817C15.0905 18.734 14.6428 19.1817 14.0905 19.1817H7.90869C7.35641 19.1817 6.90869 18.734 6.90869 18.1817V16.0908Z" fill="#5E6673"/>
<path id="&#232;&#183;&#175;&#229;&#190;&#132; 3&#239;&#188;&#136;&#232;&#190;&#185;&#230;&#161;&#134;&#239;&#188;&#137;" d="M15.0907 12.0227H15.4998C16.9401 12.0227 17.9586 11.0042 17.9586 11.0042C18.9771 9.98572 18.9771 8.54539 18.9771 8.54539C18.9771 7.10505 17.9586 6.08658 17.9586 6.08658C16.9401 5.06812 15.4998 5.06812 15.4998 5.06812L15.0907 5.06812V6.29539H15.4998C16.4318 6.29539 17.0908 6.9544 17.0908 6.9544C17.7498 7.61341 17.7498 8.54539 17.7498 8.54539C17.7498 9.47737 17.0908 10.1364 17.0908 10.1364C16.4318 10.7954 15.4998 10.7954 15.4998 10.7954H15.0907V12.0227Z" fill="#5E6673" fill-opacity="0.32"/>
<path id="&#232;&#183;&#175;&#229;&#190;&#132; 4&#239;&#188;&#136;&#232;&#190;&#185;&#230;&#161;&#134;&#239;&#188;&#137;" d="M6.90882 17.75H6.49973C5.0594 17.75 4.04093 16.7315 4.04093 16.7315C3.02246 15.713 3.02246 14.2727 3.02246 14.2727C3.02246 12.8323 4.04093 11.8139 4.04093 11.8139C5.0594 10.7954 6.49973 10.7954 6.49973 10.7954H6.90882V12.0227H6.49973C5.56775 12.0227 4.90874 12.6817 4.90874 12.6817C4.24973 13.3407 4.24973 14.2727 4.24973 14.2727C4.24973 15.2047 4.90874 15.8637 4.90874 15.8637C5.56775 16.5227 6.49973 16.5227 6.49973 16.5227H6.90882V17.75Z" fill="#5E6673" fill-opacity="0.32"/>
</g>
</g>
</svg>
