<svg xmlns="http://www.w3.org/2000/svg" xmlns:xlink="http://www.w3.org/1999/xlink" fill="none" version="1.1" width="24" height="24" viewBox="0 0 24 24"><defs><clipPath id="master_svg0_57_4052"><rect x="3" y="3" width="18" height="18" rx="0"/></clipPath></defs><g><g><g><g><rect x="0" y="0" width="24" height="24" rx="4" fill="#D1FAE5" fill-opacity="1"/></g></g><g clip-path="url(#master_svg0_57_4052)"><g><path d="M16.42857,16L8.57143,16C7.704943,16,7,15.3271,7,14.5L7,8.5C7,7.6729,7.704943,7,8.57143,7L16.42857,7C17.295099999999998,7,18,7.6729,18,8.5L18,14.5C18,15.3271,17.295099999999998,16,16.42857,16Z" fill="#86D8BD" fill-opacity="1" style="mix-blend-mode:passthrough"/></g><g><path d="M7.57143,8L15.42857,8C16.2965,8,17,8.671588,17,9.5L17,15.5C17,16.32845,16.2965,17,15.42857,17L7.57143,17C6.703568,17,6,16.32845,6,15.5L6,9.5C6,8.671588,6.703568,8,7.57143,8Z" fill="#10B981" fill-opacity="1" style="mix-blend-mode:passthrough"/></g><g><path d="M10.069451611175538,14.402409112091064C10.169171611175537,14.476999112091065,10.286141611175537,14.513029112091065,10.402161611175536,14.513029112091065C10.575821611175538,14.513289112091066,10.739481611175536,14.432569112091064,10.843971611175537,14.295139112091064L13.055951611175537,11.391055112091065C13.239911611175536,11.149487112091064,13.191431611175538,10.805910112091064,12.947671611175537,10.623629112091065C12.703911611175538,10.441348512091064,12.357071611175538,10.489404112091064,12.173141611175538,10.730899112091064L9.961171611175537,13.634979112091065C9.777211611175538,13.876549112091064,9.825691611175538,14.220129112091065,10.069451611175538,14.402409112091064ZM15.345591611175537,12.910529112091064L14.408081611175536,13.839449112091064C14.304501611175537,13.942379112091064,14.163781611175537,14.000129112091065,14.017081611175538,13.999939112091065C13.870381611175537,14.000129112091065,13.729661611175537,13.942379112091064,13.626081611175536,13.839449112091064C13.410081611175537,13.625429112091064,13.410081611175537,13.278539112091064,13.626081611175536,13.064549112091065L14.173511611175538,12.522109112091064L13.626081611175536,11.979649112091064C13.410081611175537,11.765699112091065,13.410081611175537,11.418801112091064,13.626081611175536,11.204776112091064C13.842001611175537,10.990824112091065,14.192151611175536,10.990824112091065,14.408111611175537,11.204776112091064L15.346561611175538,12.134629112091064L15.346581611175537,12.134649112091065C15.460471611175537,12.247479112091064,15.514301611175537,12.397299112091064,15.508071611175538,12.545099112091064C15.502491611175536,12.677579112091065,15.448661611175538,12.808419112091064,15.346581611175537,12.909549112091064L15.345591611175537,12.910529112091064ZM8.609001611175538,11.204806112091065L7.670532611175537,12.134679112091064C7.454571111175537,12.348629112091064,7.454571111175537,12.695579112091064,7.670532611175537,12.909609112091065L7.671382611175537,12.910449112091065L8.609001611175538,13.839479112091064C8.712581611175537,13.942409112091065,8.853301611175537,14.000189112091064,9.000001611175538,13.999999112091064C9.146711611175537,14.000179112091065,9.287441611175538,13.942409112091065,9.391041611175536,13.839479112091064C9.606961611175537,13.625529112091066,9.606961611175537,13.278569112091064,9.391041611175536,13.064579112091064L8.843601611175536,12.522139112091065L9.391041611175536,11.979709112091065C9.606961611175537,11.765719112091064,9.606961611175537,11.418758112091064,9.391041611175536,11.204806112091065C9.175081611175537,10.990818112091064,8.824921611175537,10.990818112091064,8.609001611175538,11.204806112091065Z" fill-rule="evenodd" fill="#DFECFD" fill-opacity="1" style="mix-blend-mode:passthrough"/></g></g></g></g></svg>