<svg xmlns="http://www.w3.org/2000/svg" xmlns:xlink="http://www.w3.org/1999/xlink" fill="none" version="1.1" width="24" height="24" viewBox="0 0 24 24"><defs><clipPath id="master_svg0_57_4085"><rect x="3.2727274894714355" y="3.2727274894714355" width="17.454545974731445" height="17.454545974731445" rx="0"/></clipPath></defs><g><g><g><rect x="0" y="0" width="24" height="24" rx="4" fill="#F4FAE5" fill-opacity="1"/></g><g clip-path="url(#master_svg0_57_4085)"><g><path d="M7.60994562423706,6.5113749504089355L14.63437562423706,6.5113749504089355Q15.93749562423706,6.5113749504089355,15.93749562423706,7.814504950408935L15.93749562423706,16.424154950408933Q15.93749562423706,17.727274950408933,14.63437562423706,17.727274950408933L7.60994562423706,17.727274950408933Q6.3068156242370605,17.727274950408933,6.3068156242370605,16.424154950408933L6.3068156242370605,7.814504950408935Q6.3068156242370605,6.5113749504089355,7.60994562423706,6.5113749504089355Z" fill="#9FDB1D" fill-opacity="1"/></g><g><path d="M9.06818435470581,8.556846141815186L13.278409354705811,8.556846141815186Q13.85795935470581,8.556846141815186,13.85795935470581,9.136391141815185Q13.85795935470581,9.715936141815185,13.278409354705811,9.715936141815185L9.06818435470581,9.715936141815185Q8.48863935470581,9.715936141815185,8.48863935470581,9.136391141815185Q8.48863935470581,8.556846141815186,9.06818435470581,8.556846141815186Z" fill="#10B981" fill-opacity="1"/></g><g><path d="M9.06818435470581,10.687522411346436L11.04545935470581,10.687522411346436Q11.62499935470581,10.687522411346436,11.62499935470581,11.267067411346435Q11.62499935470581,11.846612411346435,11.04545935470581,11.846612411346435L9.06818435470581,11.846612411346435Q8.48863935470581,11.846612411346435,8.48863935470581,11.267067411346435Q8.48863935470581,10.687522411346436,9.06818435470581,10.687522411346436Z" fill="#10B981" fill-opacity="1"/></g><g><path d="M12.146476411346436,13.792907152557373L13.707052411346435,12.146461152557373C13.902312411346436,11.951198852557374,14.219062411346435,11.951198852557374,14.414332411346436,12.146461152557373C14.609592411346435,12.341723152557373,14.609592411346435,12.658291152557373,14.414332411346436,12.853553152557373L13.707132411346436,13.646467152557372L18.292992411346436,13.646457152557373L17.500022411346436,12.853553152557373C17.304762411346434,12.658291152557373,17.304762411346434,12.341723152557373,17.500022411346436,12.146461152557373C17.593792411346435,12.052692852557373,17.721172411346437,12.000007152557373,17.853782411346437,12.000007152557373C17.986392411346436,12.000007152557373,18.113532411346434,12.052692852557373,18.207302411346436,12.146461152557373L19.853542411346435,13.792917152557372C19.947312411346434,13.886687152557373,20.000022411346436,14.013857152557373,20.000022411346436,14.146457152557373C20.000022411346436,14.279067152557372,19.947302411346435,14.406257152557373,19.853542411346435,14.500027152557372L18.207302411346436,16.207127152557373C18.113532411346434,16.300897152557372,17.986392411346436,16.353567152557375,17.853782411346437,16.353567152557375C17.721172411346437,16.353567152557375,17.593792411346435,16.300897152557372,17.500022411346436,16.207127152557373C17.304762411346434,16.01186715255737,17.304762411346434,15.695287152557373,17.500022411346436,15.500027152557372L18.292992411346436,14.646457152557373L13.707132411346436,14.646467152557372L14.414332411346436,15.646457152557373C14.609592411346435,15.841727152557374,14.609592411346435,16.158307152557374,14.414332411346436,16.353567152557375C14.219062411346435,16.548827152557372,13.902312411346436,16.548827152557372,13.707052411346435,16.353567152557375L12.146476411346436,14.500017152557373C11.976026211346436,14.329567152557374,11.951456411346436,14.061767152557373,12.088045511346435,13.863147152557373C12.105338411346436,13.837997152557373,12.124897411346435,13.814487152557373,12.146476411346436,13.792907152557373Z" fill-rule="evenodd" fill="#10B981" fill-opacity="1"/></g></g></g></g></svg>