<svg width="16" height="16" viewBox="0 0 16 16" fill="none" xmlns="http://www.w3.org/2000/svg">
<g clip-path="url(#clip0_1661_13796)">
<path fill-rule="evenodd" clip-rule="evenodd" d="M9.26625 1.63005C9.65677 1.23953 10.2899 1.23953 10.6805 1.63005L12.5424 3.49195C12.9329 3.88247 12.9329 4.51564 12.5424 4.90616L5.72573 11.7228C5.5666 11.8819 5.35844 11.9827 5.13491 12.0089L3.11926 12.2449C2.49464 12.318 1.95836 11.8033 2.00583 11.1762L2.16504 9.07285C2.18309 8.8344 2.28599 8.61031 2.45508 8.44122L9.26625 1.63005ZM8.76919 4.01273L10.1597 5.40322L11.3638 4.19905L9.97336 2.80856L8.76919 4.01273ZM9.21688 6.34603L7.82638 4.95554L3.48524 9.29667L3.36588 10.8736L4.86483 10.6981L9.21688 6.34603ZM14 14.6666L2 14.6666V13.3333L14 13.3333V14.6666Z" fill="#1E293B"/>
</g>
<defs>
<clipPath id="clip0_1661_13796">
<rect width="16" height="16" fill="white"/>
</clipPath>
</defs>
</svg>
