<svg xmlns="http://www.w3.org/2000/svg" xmlns:xlink="http://www.w3.org/1999/xlink" fill="none" version="1.1" width="24" height="24" viewBox="0 0 24 24"><defs><clipPath id="master_svg0_57_4169"><rect x="20" y="4" width="16" height="16" rx="0"/></clipPath></defs><g><g><g><rect x="0" y="0" width="24" height="24" rx="4" fill="#FEF2F2" fill-opacity="1"/></g></g><g transform="matrix(-1,0,0,1,40,0)" clip-path="url(#master_svg0_57_4169)"><g><path d="M28.0000440234375,18.666643505859376C24.3181440234375,18.666643505859376,21.3333740234375,15.681943505859374,21.3333740234375,12.000013505859375C21.3333740234375,8.318113505859376,24.3181440234375,5.333343505859375,28.0000440234375,5.333343505859375L28.0000440234375,6.666673505859375C25.0545040234375,6.666673505859375,22.6667040234375,9.054473505859375,22.6667040234375,12.000013505859375C22.6667040234375,14.945543505859375,25.0545040234375,17.333343505859375,28.0000440234375,17.333343505859375L28.0000440234375,18.666643505859376ZM28.000004023437498,13.999973505859375C28.9319240234375,13.999973505859375,29.7149740234375,13.362583505859375,29.9369940234375,12.499973505859375L33.9999740234375,12.499973505859375L33.9999740234375,11.499973505859375L29.9369940234375,11.499973505859375C29.7149740234375,10.637353505859375,28.9319240234375,9.999973505859375,28.000004023437498,9.999973505859375C26.8954340234375,9.999973505859375,26.000004023437498,10.895403505859374,26.000004023437498,11.999973505859375C26.000004023437498,13.104543505859375,26.8954340234375,13.999973505859375,28.000004023437498,13.999973505859375Z" fill-rule="evenodd" fill="#FB923C" fill-opacity="1"/></g></g></g></svg>