<svg xmlns="http://www.w3.org/2000/svg" xmlns:xlink="http://www.w3.org/1999/xlink" fill="none" version="1.1" width="24" height="24" viewBox="0 0 24 24"><defs><clipPath id="master_svg0_57_3584"><rect x="3.2727274894714355" y="3.2727274894714355" width="17.454545974731445" height="17.454545974731445" rx="0"/></clipPath><clipPath id="master_svg1_57_3596"><rect x="4" y="3.50048828125" width="16" height="16" rx="0"/></clipPath></defs><g><g><g><rect x="0" y="0" width="24" height="24" rx="4" fill="#D9EAFF" fill-opacity="1"/></g><g clip-path="url(#master_svg0_57_3584)"><g><path d="M17.608801317596438,14.129750614471435Q17.608801317596438,14.285360614471436,17.593551317596436,14.440220614471436Q17.578301317596434,14.595090614471435,17.547951317596436,14.747710614471435Q17.517601317596437,14.900330614471436,17.472441317596434,15.049240614471437Q17.427271317596436,15.198160614471435,17.367741317596437,15.341920614471436Q17.308201317596435,15.485690614471435,17.234861317596437,15.622930614471436Q17.161521317596435,15.760170614471436,17.075091317596435,15.889550614471435Q16.988651317596435,16.018940614471436,16.889951317596434,16.139230614471437Q16.791261317596437,16.259520614471434,16.681241317596434,16.369560614471435Q16.571231317596435,16.479590614471434,16.450971317596434,16.578310614471434Q16.330711317596435,16.677030614471434,16.201351317596433,16.763480614471437Q16.071991317596435,16.849940614471436,15.934781317596435,16.923290614471433Q15.797571317596436,16.996650614471434,15.653841317596434,17.056200614471436Q15.510101317596437,17.115750614471438,15.361221317596435,17.160920614471436Q15.212341317596437,17.206090614471435,15.059751317596437,17.236450614471437Q14.907161317596437,17.266810614471435,14.752331317596436,17.282060614471437Q14.597501317596436,17.297320614471435,14.441921317596435,17.297320614471435Q14.286351317596436,17.297320614471435,14.131521317596436,17.282060614471437Q13.976691317596435,17.266810614471435,13.824101317596435,17.236450614471437Q13.671511317596435,17.206090614471435,13.522631317596435,17.160920614471436Q13.373751317596437,17.115750614471438,13.230011317596436,17.056200614471436Q13.086281317596436,16.996650614471434,12.949071317596436,16.923290614471433Q12.811861317596435,16.849940614471436,12.682501317596437,16.763480614471437Q12.553141317596435,16.677030614471434,12.432881317596436,16.578310614471434Q12.312611317596435,16.479590614471434,12.202605317596436,16.369560614471435Q12.092594317596436,16.259520614471434,11.993896317596436,16.139230614471437Q11.895198317596435,16.018940614471436,11.808763317596435,15.889550614471435Q11.722328317596435,15.760170614471436,11.648989317596435,15.622930614471436Q11.575650317596436,15.485690614471435,11.516112317596436,15.341920614471436Q11.456575317596435,15.198160614471435,11.411413317596436,15.049240614471437Q11.366250917596435,14.900330614471436,11.335899017596436,14.747710614471435Q11.305547117596436,14.595090614471435,11.290297717596436,14.440220614471436Q11.275048378596436,14.285360614471436,11.275048378596436,14.129750614471435Q11.275048378596436,13.974140614471436,11.290297717596436,13.819270614471435Q11.305547117596436,13.664410614471436,11.335899017596436,13.511790614471435Q11.366250917596435,13.359160614471435,11.411413317596436,13.210250614471436Q11.456575317596435,13.061340614471435,11.516112317596436,12.917570614471435Q11.575650317596436,12.773810614471437,11.648989317596435,12.636570614471436Q11.722328317596435,12.499330614471436,11.808763317596435,12.369940614471435Q11.895198317596435,12.240550614471436,11.993896317596436,12.120260614471436Q12.092594317596436,11.999970614471435,12.202605317596436,11.889939614471436Q12.312611317596435,11.779905614471435,12.432881317596436,11.681185614471435Q12.553141317596435,11.582465614471435,12.682501317596437,11.496011614471435Q12.811861317596435,11.409558614471436,12.949071317596436,11.336202614471436Q13.086281317596436,11.262847614471436,13.230011317596436,11.203297614471435Q13.373751317596437,11.143746614471436,13.522631317596435,11.098574614471435Q13.671511317596435,11.053403114471436,13.824101317596435,11.023044514471435Q13.976691317596435,10.992686014471435,14.131521317596436,10.977433314471435Q14.286351317596436,10.962180614471436,14.441921317596435,10.962180614471436Q14.597501317596436,10.962180614471436,14.752331317596436,10.977433314471435Q14.907161317596437,10.992686014471435,15.059751317596437,11.023044514471435Q15.212341317596437,11.053403114471436,15.361221317596435,11.098574614471435Q15.510101317596437,11.143746614471436,15.653841317596434,11.203297614471435Q15.797571317596436,11.262847614471436,15.934781317596435,11.336202614471436Q16.071991317596435,11.409558614471436,16.201351317596433,11.496011614471435Q16.330711317596435,11.582465614471435,16.450971317596434,11.681185614471435Q16.571231317596435,11.779905614471435,16.681241317596434,11.889939614471436Q16.791261317596437,11.999970614471435,16.889951317596434,12.120260614471436Q16.988651317596435,12.240550614471436,17.075091317596435,12.369940614471435Q17.161521317596435,12.499330614471436,17.234861317596437,12.636570614471436Q17.308201317596435,12.773810614471437,17.367741317596437,12.917570614471435Q17.427271317596436,13.061340614471435,17.472441317596434,13.210250614471436Q17.517601317596437,13.359160614471435,17.547951317596436,13.511790614471435Q17.578301317596434,13.664410614471436,17.593551317596436,13.819270614471435Q17.608801317596438,13.974140614471436,17.608801317596438,14.129750614471435Z" fill="#3BDBFF" fill-opacity="1"/></g><g><path d="M17.608801317596438,9.889516239471435Q17.608801317596438,10.045126239471436,17.593551317596436,10.199986239471436Q17.578301317596434,10.354856239471435,17.547951317596436,10.507476239471435Q17.517601317596437,10.660096239471436,17.472441317596434,10.809006239471437Q17.427271317596436,10.957926239471435,17.367741317596437,11.101686239471436Q17.308201317596435,11.245456239471435,17.234861317596437,11.382696239471436Q17.161521317596435,11.519936239471436,17.075091317596435,11.649316239471435Q16.988651317596435,11.778706239471436,16.889951317596434,11.898996239471437Q16.791261317596437,12.019286239471436,16.681241317596434,12.129326239471435Q16.571231317596435,12.239356239471435,16.450971317596434,12.338076239471436Q16.330711317596435,12.436796239471436,16.201351317596433,12.523246239471437Q16.071991317596435,12.609706239471436,15.934781317596435,12.683056239471435Q15.797571317596436,12.756416239471434,15.653841317596434,12.815966239471436Q15.510101317596437,12.875516239471436,15.361221317596435,12.920686239471436Q15.212341317596437,12.965856239471435,15.059751317596437,12.996216239471435Q14.907161317596437,13.026576239471435,14.752331317596436,13.041826239471437Q14.597501317596436,13.057086239471435,14.441921317596435,13.057086239471435Q14.286351317596436,13.057086239471435,14.131521317596436,13.041826239471437Q13.976691317596435,13.026576239471435,13.824101317596435,12.996216239471435Q13.671511317596435,12.965856239471435,13.522631317596435,12.920686239471436Q13.373751317596437,12.875516239471436,13.230011317596436,12.815966239471436Q13.086281317596436,12.756416239471434,12.949071317596436,12.683056239471435Q12.811861317596435,12.609706239471436,12.682501317596437,12.523246239471437Q12.553141317596435,12.436796239471436,12.432881317596436,12.338076239471436Q12.312611317596435,12.239356239471435,12.202605317596436,12.129326239471435Q12.092594317596436,12.019286239471436,11.993896317596436,11.898996239471437Q11.895198317596435,11.778706239471436,11.808763317596435,11.649316239471435Q11.722328317596435,11.519936239471436,11.648989317596435,11.382696239471436Q11.575650317596436,11.245456239471435,11.516112317596436,11.101686239471436Q11.456575317596435,10.957926239471435,11.411413317596436,10.809006239471437Q11.366250917596435,10.660096239471436,11.335899017596436,10.507476239471435Q11.305547117596436,10.354856239471435,11.290297717596436,10.199986239471436Q11.275048378596436,10.045126239471436,11.275048378596436,9.889516239471435Q11.275048378596436,9.733906239471436,11.290297717596436,9.579036239471435Q11.305547117596436,9.424176239471436,11.335899017596436,9.271556239471435Q11.366250917596435,9.118926239471435,11.411413317596436,8.970016239471436Q11.456575317596435,8.821106239471435,11.516112317596436,8.677336239471435Q11.575650317596436,8.533576239471437,11.648989317596435,8.396336239471436Q11.722328317596435,8.259096239471436,11.808763317596435,8.129706239471435Q11.895198317596435,8.000316239471436,11.993896317596436,7.8800262394714355Q12.092594317596436,7.759736239471436,12.202605317596436,7.6497052394714355Q12.312611317596435,7.539671239471436,12.432881317596436,7.440951239471436Q12.553141317596435,7.3422312394714355,12.682501317596437,7.255777239471436Q12.811861317596435,7.169324239471435,12.949071317596436,7.095968239471436Q13.086281317596436,7.022613239471435,13.230011317596436,6.963063239471436Q13.373751317596437,6.903512239471436,13.522631317596435,6.858340239471436Q13.671511317596435,6.813168739471435,13.824101317596435,6.782810139471436Q13.976691317596435,6.752451639471436,14.131521317596436,6.737198939471435Q14.286351317596436,6.7219462394714355,14.441921317596435,6.7219462394714355Q14.597501317596436,6.7219462394714355,14.752331317596436,6.737198939471435Q14.907161317596437,6.752451639471436,15.059751317596437,6.782810139471436Q15.212341317596437,6.813168739471435,15.361221317596435,6.858340239471436Q15.510101317596437,6.903512239471436,15.653841317596434,6.963063239471436Q15.797571317596436,7.022613239471435,15.934781317596435,7.095968239471436Q16.071991317596435,7.169324239471435,16.201351317596433,7.255777239471436Q16.330711317596435,7.3422312394714355,16.450971317596434,7.440951239471436Q16.571231317596435,7.539671239471436,16.681241317596434,7.6497052394714355Q16.791261317596437,7.759736239471436,16.889951317596434,7.8800262394714355Q16.988651317596435,8.000316239471436,17.075091317596435,8.129706239471435Q17.161521317596435,8.259096239471436,17.234861317596437,8.396336239471436Q17.308201317596435,8.533576239471437,17.367741317596437,8.677336239471435Q17.427271317596436,8.821106239471435,17.472441317596434,8.970016239471436Q17.517601317596437,9.118926239471435,17.547951317596436,9.271556239471435Q17.578301317596434,9.424176239471436,17.593551317596436,9.579036239471435Q17.608801317596438,9.733906239471436,17.608801317596438,9.889516239471435Z" fill="#1C95FF" fill-opacity="1"/></g><g><path d="M12.877482567596434,14.128200614471435Q12.877482567596434,14.283740614471435,12.862232567596436,14.438530614471436Q12.846992567596436,14.593310614471436,12.816642567596435,14.745860614471436Q12.786302567596437,14.898410614471436,12.741152567596435,15.047250614471436Q12.696002567596436,15.196090614471435,12.636482567596435,15.339790614471436Q12.576952567596436,15.483480614471436,12.503642567596437,15.620650614471437Q12.430322567596436,15.757830614471436,12.343902567596436,15.887150614471436Q12.257492567596437,16.016470614471437,12.158822567596435,16.136710614471436Q12.060152567596436,16.256940614471436,11.950172567596436,16.366920614471436Q11.840192567596436,16.476900614471436,11.719962567596436,16.575570614471435Q11.599722567596435,16.674240614471437,11.470402567596436,16.760650614471437Q11.341082567596436,16.847060614471435,11.203902567596437,16.920380614471433Q11.066732567596436,16.993700614471436,10.923042567596436,17.053220614471435Q10.779342567596435,17.112750614471437,10.630502567596436,17.157900614471437Q10.481662567596436,17.203050614471437,10.329112567596436,17.233390614471435Q10.176562567596436,17.263730614471434,10.021782567596436,17.278980614471436Q9.866992567596435,17.294220614471435,9.711452567596435,17.294220614471435Q9.555922567596436,17.294220614471435,9.401132567596436,17.278980614471436Q9.246342567596436,17.263730614471434,9.093792567596436,17.233390614471435Q8.941242567596436,17.203050614471437,8.792402567596437,17.157900614471437Q8.643562567596435,17.112750614471437,8.499872567596436,17.053220614471435Q8.356172567596435,16.993700614471436,8.219002567596435,16.920380614471433Q8.081832567596436,16.847060614471435,7.952502567596436,16.760650614471437Q7.823182567596436,16.674240614471437,7.702952567596435,16.575570614471435Q7.582722567596436,16.476900614471436,7.472738567596435,16.366920614471436Q7.362757567596436,16.256940614471436,7.2640865675964355,16.136710614471436Q7.165414567596436,16.016470614471437,7.079003567596436,15.887150614471436Q6.992591567596436,15.757830614471436,6.919272567596436,15.620650614471437Q6.845952567596435,15.483480614471436,6.786431567596436,15.339790614471436Q6.726910567596436,15.196090614471435,6.681760567596435,15.047250614471436Q6.6366104675964355,14.898410614471436,6.606266767596436,14.745860614471436Q6.5759230675964355,14.593310614471436,6.560677867596436,14.438530614471436Q6.5454325675964355,14.283740614471435,6.5454325675964355,14.128200614471435Q6.5454325675964355,13.972670614471436,6.560677867596436,13.817880614471436Q6.5759230675964355,13.663090614471436,6.606266767596436,13.510540614471436Q6.6366104675964355,13.357990614471436,6.681760567596435,13.209150614471437Q6.726910567596436,13.060310614471435,6.786431567596436,12.916620614471436Q6.845952567596435,12.772920614471435,6.919272567596436,12.635750614471435Q6.992591567596436,12.498580614471436,7.079003567596436,12.369250614471436Q7.165414567596436,12.239930614471435,7.2640865675964355,12.119700614471435Q7.362757567596436,11.999470614471436,7.472738567596435,11.889486614471435Q7.582722567596436,11.779505614471436,7.702952567596435,11.680834614471436Q7.823182567596436,11.582162614471436,7.952502567596436,11.495751614471436Q8.081832567596436,11.409339614471435,8.219002567596435,11.336020614471435Q8.356172567596435,11.262700614471436,8.499872567596436,11.203179614471436Q8.643572567596436,11.143658614471436,8.792402567596437,11.098508614471436Q8.941242567596436,11.053358514471435,9.093792567596436,11.023014814471436Q9.246342567596436,10.992671114471436,9.401132567596436,10.977425914471436Q9.555922567596436,10.962180614471436,9.711452567596435,10.962180614471436Q9.866992567596435,10.962180614471436,10.021782567596436,10.977425914471436Q10.176562567596436,10.992671114471436,10.329112567596436,11.023014814471436Q10.481662567596436,11.053358514471435,10.630502567596436,11.098508614471436Q10.779342567596435,11.143658614471436,10.923042567596436,11.203179614471436Q11.066732567596436,11.262700614471436,11.203902567596437,11.336020614471435Q11.341082567596436,11.409339614471435,11.470402567596436,11.495751614471436Q11.599722567596435,11.582162614471436,11.719962567596436,11.680834614471436Q11.840192567596436,11.779505614471436,11.950172567596436,11.889486614471435Q12.060152567596436,11.999470614471436,12.158822567596435,12.119700614471435Q12.257492567596437,12.239930614471435,12.343902567596436,12.369250614471436Q12.430322567596436,12.498580614471436,12.503632567596435,12.635750614471435Q12.576952567596436,12.772920614471435,12.636482567596435,12.916620614471436Q12.696002567596436,13.060310614471435,12.741152567596435,13.209150614471437Q12.786302567596437,13.357990614471436,12.816642567596435,13.510540614471436Q12.846992567596436,13.663090614471436,12.862232567596436,13.817880614471436Q12.877482567596434,13.972670614471436,12.877482567596434,14.128200614471435Z" fill="#1C95FF" fill-opacity="1"/></g><g><path d="M12.877482567596434,9.887966239471435Q12.877482567596434,10.043506239471435,12.862232567596436,10.198296239471436Q12.846992567596436,10.353076239471436,12.816642567596435,10.505626239471436Q12.786302567596437,10.658176239471436,12.741152567596435,10.807016239471436Q12.696002567596436,10.955856239471435,12.636482567596435,11.099556239471436Q12.576952567596436,11.243246239471436,12.503642567596437,11.380416239471437Q12.430322567596436,11.517596239471436,12.343902567596436,11.646916239471436Q12.257492567596437,11.776236239471435,12.158822567596435,11.896476239471436Q12.060152567596436,12.016706239471436,11.950172567596436,12.126686239471436Q11.840192567596436,12.236666239471436,11.719962567596436,12.335336239471435Q11.599722567596435,12.434006239471437,11.470402567596436,12.520416239471436Q11.341082567596436,12.606826239471435,11.203902567596437,12.680146239471435Q11.066732567596436,12.753466239471436,10.923042567596436,12.812986239471435Q10.779342567596435,12.872516239471436,10.630502567596436,12.917666239471435Q10.481662567596436,12.962816239471437,10.329112567596436,12.993156239471435Q10.176562567596436,13.023496239471434,10.021782567596436,13.038746239471436Q9.866992567596435,13.053986239471435,9.711452567596435,13.053986239471435Q9.555922567596436,13.053986239471435,9.401132567596436,13.038746239471436Q9.246342567596436,13.023496239471434,9.093792567596436,12.993156239471435Q8.941242567596436,12.962816239471437,8.792402567596437,12.917666239471435Q8.643562567596435,12.872516239471436,8.499872567596436,12.812986239471435Q8.356172567596435,12.753466239471436,8.219002567596435,12.680146239471435Q8.081832567596436,12.606826239471435,7.952502567596436,12.520416239471436Q7.823182567596436,12.434006239471437,7.702952567596435,12.335336239471435Q7.582722567596436,12.236666239471436,7.472738567596435,12.126686239471436Q7.362757567596436,12.016706239471436,7.2640865675964355,11.896476239471436Q7.165414567596436,11.776236239471435,7.079003567596436,11.646916239471436Q6.992591567596436,11.517596239471436,6.919272567596436,11.380416239471437Q6.845952567596435,11.243246239471436,6.786431567596436,11.099556239471436Q6.726910567596436,10.955856239471435,6.681760567596435,10.807016239471436Q6.6366104675964355,10.658176239471436,6.606266767596436,10.505626239471436Q6.5759230675964355,10.353076239471436,6.560677867596436,10.198296239471436Q6.5454325675964355,10.043506239471435,6.5454325675964355,9.887966239471435Q6.5454325675964355,9.732436239471436,6.560677867596436,9.577646239471436Q6.5759230675964355,9.422856239471436,6.606266767596436,9.270306239471436Q6.6366104675964355,9.117756239471436,6.681760567596435,8.968916239471437Q6.726910567596436,8.820076239471435,6.786431567596436,8.676386239471436Q6.845952567596435,8.532686239471435,6.919272567596436,8.395516239471435Q6.992591567596436,8.258346239471436,7.079003567596436,8.129016239471436Q7.165414567596436,7.999696239471436,7.2640865675964355,7.879466239471435Q7.362757567596436,7.759236239471436,7.472738567596435,7.649252239471435Q7.582722567596436,7.539271239471436,7.702952567596435,7.4406002394714355Q7.823182567596436,7.341928239471436,7.952502567596436,7.255517239471436Q8.081832567596436,7.169105239471436,8.219002567596435,7.095786239471436Q8.356172567596435,7.022466239471435,8.499872567596436,6.962945239471436Q8.643572567596436,6.903424239471436,8.792402567596437,6.858274239471435Q8.941242567596436,6.8131241394714355,9.093792567596436,6.782780439471436Q9.246342567596436,6.7524367394714355,9.401132567596436,6.737191539471436Q9.555922567596436,6.7219462394714355,9.711452567596435,6.7219462394714355Q9.866992567596435,6.7219462394714355,10.021782567596436,6.737191539471436Q10.176562567596436,6.7524367394714355,10.329112567596436,6.782780439471436Q10.481662567596436,6.8131241394714355,10.630502567596436,6.858274239471435Q10.779342567596435,6.903424239471436,10.923042567596436,6.962945239471436Q11.066732567596436,7.022466239471435,11.203902567596437,7.095786239471436Q11.341082567596436,7.169105239471436,11.470402567596436,7.255517239471436Q11.599722567596435,7.341928239471436,11.719962567596436,7.4406002394714355Q11.840192567596436,7.539271239471436,11.950172567596436,7.649252239471435Q12.060152567596436,7.759236239471436,12.158822567596435,7.879466239471435Q12.257492567596437,7.999696239471436,12.343902567596436,8.129016239471436Q12.430322567596436,8.258346239471436,12.503632567596435,8.395516239471435Q12.576952567596436,8.532686239471435,12.636482567596435,8.676386239471436Q12.696002567596436,8.820076239471435,12.741152567596435,8.968916239471437Q12.786302567596437,9.117756239471436,12.816642567596435,9.270306239471436Q12.846992567596436,9.422856239471436,12.862232567596436,9.577646239471436Q12.877482567596434,9.732436239471436,12.877482567596434,9.887966239471435Z" fill="#3BDBFF" fill-opacity="1"/></g><g><path d="M16.809700145721436,12.008090614471435Q16.809700145721436,12.059470614471437,16.798380145721435,12.110610614471435Q16.787060145721433,12.161740614471436,16.764520145721434,12.212140614471435Q16.741990145721434,12.262530614471435,16.708460145721435,12.311700614471436Q16.674930145721437,12.360870614471436,16.630720145721437,12.408340614471435Q16.586520145721437,12.455810614471435,16.532070145721434,12.501130614471435Q16.477620145721435,12.546440614471436,16.413440145721435,12.589160614471435Q16.349270145721434,12.631890614471436,16.275990145721437,12.671610614471435Q16.202710145721436,12.711330614471436,16.121030145721434,12.747660614471435Q16.039360145721435,12.783990614471435,15.950070145721435,12.816590614471435Q15.860780145721435,12.849180614471436,15.764730145721435,12.877730614471435Q15.668690145721435,12.906280614471436,15.566820145721437,12.930500614471436Q15.464950145721435,12.954720614471436,15.358230145721436,12.974380614471436Q15.251520145721436,12.994050614471435,15.140980145721436,13.008960614471436Q15.030450145721435,13.023880614471436,14.917160145721436,13.033900614471435Q14.803870145721437,13.043930614471435,14.688910145721437,13.048960614471437Q14.573960145721436,13.054000614471436,14.458450145721436,13.054000614471436Q14.342940145721435,13.054000614471436,14.227990145721435,13.048960614471437Q14.113030145721435,13.043930614471435,13.999740145721436,13.033900614471435Q13.886450145721435,13.023880614471436,13.775920145721436,13.008960614471436Q13.665380145721436,12.994050614471435,13.558670145721436,12.974380614471436Q13.451950145721435,12.954720614471436,13.350080145721435,12.930500614471436Q13.248210145721435,12.906280614471436,13.152160145721435,12.877730614471435Q13.056122145721435,12.849180614471436,12.966832145721435,12.816590614471435Q12.877542145721435,12.783990614471435,12.795865145721436,12.747660614471435Q12.714187145721436,12.711330614471436,12.640909145721436,12.671610614471435Q12.567630145721436,12.631890614471436,12.503456145721435,12.589170614471435Q12.439283145721436,12.546440614471436,12.384832145721436,12.501130614471435Q12.330381145721436,12.455810614471435,12.286178145721436,12.408340614471435Q12.241974145721436,12.360870614471436,12.208443145721436,12.311700614471436Q12.174912845721435,12.262530614471435,12.152378045721436,12.212140614471435Q12.129843345721435,12.161740614471436,12.118521345721435,12.110610614471435Q12.107199479883436,12.059470614471437,12.107199479883436,12.008090614471435Q12.107199479883436,11.956707614471435,12.118521345721435,11.905572614471435Q12.129843345721435,11.854437614471436,12.152378045721436,11.804042614471436Q12.174912845721435,11.753647614471436,12.208443145721436,11.704478614471435Q12.241974145721436,11.655308614471435,12.286178145721436,11.607837614471435Q12.330381145721436,11.560366614471436,12.384832145721436,11.515051614471435Q12.439283145721436,11.469736614471435,12.503456145721435,11.427013614471436Q12.567630145721436,11.384290614471436,12.640909145721436,11.344571614471436Q12.714187145721436,11.304852614471436,12.795865145721436,11.268520614471436Q12.877542145721435,11.232187614471435,12.966832145721435,11.199590614471436Q13.056122145721435,11.166994614471436,13.152170145721435,11.138447614471435Q13.248210145721435,11.109901614471436,13.350080145721435,11.085680614471435Q13.451950145721435,11.061458814471436,13.558670145721436,11.041795714471435Q13.665380145721436,11.022132614471435,13.775920145721436,11.007217114471436Q13.886450145721435,10.992301614471435,13.999740145721436,10.982277414471435Q14.113030145721435,10.972253314471436,14.227990145721435,10.967216954471436Q14.342940145721435,10.962180614471436,14.458450145721436,10.962180614471436Q14.573960145721436,10.962180614471436,14.688910145721437,10.967216954471436Q14.803870145721437,10.972253314471436,14.917160145721436,10.982277414471435Q15.030450145721435,10.992301614471435,15.140980145721436,11.007217114471436Q15.251520145721436,11.022132614471435,15.358230145721436,11.041795714471435Q15.464950145721435,11.061458814471436,15.566820145721437,11.085680614471435Q15.668690145721435,11.109901614471436,15.764730145721435,11.138447614471435Q15.860780145721435,11.166994614471436,15.950070145721435,11.199590614471436Q16.039360145721435,11.232187614471435,16.121030145721434,11.268520614471436Q16.202710145721436,11.304852614471436,16.275990145721437,11.344571614471436Q16.349270145721434,11.384290614471436,16.413440145721435,11.427013614471436Q16.477620145721435,11.469736614471435,16.532070145721434,11.515051614471435Q16.586520145721437,11.560366614471436,16.630720145721437,11.607837614471435Q16.674930145721437,11.655308614471435,16.708460145721435,11.704478614471435Q16.741990145721434,11.753647614471436,16.764520145721434,11.804042614471436Q16.787060145721433,11.854437614471436,16.798380145721435,11.905572614471435Q16.809700145721436,11.956707614471435,16.809700145721436,12.008090614471435Z" fill="#0F6AFF" fill-opacity="1"/></g><g><path d="M12.079925536346437,12.008450614471435Q12.079925536346437,12.059850614471436,12.068595536346436,12.111000614471436Q12.057275536346435,12.162160614471436,12.034735536346435,12.212570614471435Q12.012195536346436,12.262980614471436,11.978655536346436,12.312170614471436Q11.945125536346435,12.361350614471435,11.900915536346435,12.408840614471435Q11.856695536346436,12.456330614471435,11.802235536346435,12.501660614471435Q11.747775536346435,12.546990614471436,11.683585536346435,12.589730614471435Q11.619405536346434,12.632460614471436,11.546115536346434,12.672200614471436Q11.472815536346435,12.711930614471436,11.391125536346436,12.748280614471435Q11.309435536346435,12.784620614471436,11.220125536346435,12.817230614471436Q11.130815536346436,12.849840614471436,11.034755536346434,12.878390614471435Q10.938695536346437,12.906950614471436,10.836805536346436,12.931180614471435Q10.734915536346435,12.955410614471436,10.628185536346436,12.975080614471436Q10.521445536346436,12.994750614471435,10.410885536346436,13.009670614471435Q10.300325536346435,13.024590614471435,10.187015536346436,13.034620614471436Q10.073705536346436,13.044640614471437,9.958735536346435,13.049680614471436Q9.843755536346436,13.054720614471435,9.728225536346436,13.054720614471435Q9.612695536346436,13.054720614471435,9.497715536346435,13.049680614471436Q9.382745536346436,13.044640614471437,9.269435536346435,13.034620614471436Q9.156115536346435,13.024590614471435,9.045565536346436,13.009670614471435Q8.935005536346436,12.994750614471435,8.828265536346436,12.975080614471436Q8.721535536346435,12.955410614471436,8.619645536346436,12.931180614471435Q8.517755536346435,12.906950614471436,8.421695536346435,12.878390614471435Q8.325630536346436,12.849840614471436,8.236323536346436,12.817230614471436Q8.147016536346435,12.784620614471436,8.065323536346435,12.748280614471435Q7.9836305363464355,12.711930614471436,7.910337536346436,12.672200614471436Q7.8370455363464355,12.632460614471436,7.772859536346435,12.589730614471435Q7.708673536346436,12.546990614471436,7.654212536346436,12.501660614471435Q7.599751536346435,12.456330614471435,7.555539536346435,12.408840614471435Q7.511327536346435,12.361350614471435,7.477790536346435,12.312170614471436Q7.444253036346436,12.262980614471436,7.4217139363464355,12.212570614471435Q7.399174936346435,12.162160614471436,7.387850836346436,12.111000614471436Q7.376526761346436,12.059850614471436,7.376526761346436,12.008450614471435Q7.376526761346436,11.957050614471436,7.387850836346436,11.905898614471436Q7.399174936346435,11.854746614471436,7.4217139363464355,11.804333614471435Q7.444253036346436,11.753921614471436,7.477790536346435,11.704734614471436Q7.511327536346435,11.655547614471436,7.555539536346435,11.608060614471436Q7.599751536346435,11.560573614471435,7.654212536346436,11.515242614471436Q7.708673536346436,11.469911614471435,7.772859536346435,11.427174614471436Q7.8370455363464355,11.384436614471436,7.910337536346436,11.344703614471436Q7.9836305363464355,11.304971614471436,8.065323536346435,11.268625614471436Q8.147016536346435,11.232280614471435,8.236323536346436,11.199672614471435Q8.325630536346436,11.167065614471436,8.421695536346435,11.138508614471435Q8.517755536346435,11.109952614471435,8.619645536346436,11.085722614471436Q8.721535536346435,11.061493114471435,8.828265536346436,11.041823214471435Q8.935005536346436,11.022153314471435,9.045565536346436,11.007232614471436Q9.156115536346435,10.992312014471436,9.269435536346435,10.982284414471435Q9.382745536346436,10.972256814471436,9.497715536346435,10.967218694471436Q9.612695536346436,10.962180614471436,9.728225536346436,10.962180614471436Q9.843755536346436,10.962180614471436,9.958735536346435,10.967218694471436Q10.073705536346436,10.972256814471436,10.187015536346436,10.982284414471435Q10.300325536346435,10.992312014471436,10.410885536346436,11.007232614471436Q10.521445536346436,11.022153314471435,10.628185536346436,11.041823214471435Q10.734915536346435,11.061493114471435,10.836805536346436,11.085722614471436Q10.938695536346437,11.109952614471435,11.034755536346434,11.138508614471435Q11.130815536346436,11.167065614471436,11.220125536346435,11.199672614471435Q11.309435536346435,11.232280614471435,11.391125536346436,11.268625614471436Q11.472815536346435,11.304971614471436,11.546115536346434,11.344703614471436Q11.619405536346434,11.384436614471436,11.683585536346435,11.427174614471436Q11.747775536346435,11.469911614471435,11.802235536346435,11.515242614471436Q11.856695536346436,11.560573614471435,11.900915536346435,11.608060614471436Q11.945125536346435,11.655547614471436,11.978655536346436,11.704734614471436Q12.012195536346436,11.753921614471436,12.034735536346435,11.804333614471435Q12.057275536346435,11.854746614471436,12.068595536346436,11.905898614471436Q12.079925536346437,11.957050614471436,12.079925536346437,12.008450614471435Z" fill="#0F6AFF" fill-opacity="1"/></g><g><path d="M12.894188739471435,14.129280614471435Q12.894188739471435,14.232670614471436,12.890338739471435,14.335570614471436Q12.886478739471436,14.438460614471435,12.878798739471435,14.539870614471436Q12.871118739471436,14.641280614471436,12.859698739471435,14.740220614471436Q12.848278739471436,14.839160614471435,12.833218739471436,14.934680614471436Q12.818158739471436,15.030200614471436,12.799608739471436,15.121380614471436Q12.781068739471436,15.212570614471435,12.759198739471435,15.298540614471435Q12.737338739471436,15.384500614471435,12.712378739471436,15.464430614471436Q12.687418739471436,15.544350614471435,12.659588739471435,15.617460614471435Q12.631768739471436,15.690570614471437,12.601348739471435,15.756160614471435Q12.570938739471435,15.821750614471435,12.538218739471436,15.879200614471436Q12.505498739471436,15.936640614471436,12.470798739471435,15.985380614471435Q12.436098739471436,16.034110614471437,12.399738739471436,16.073680614471435Q12.363388739471436,16.113250614471436,12.325728739471435,16.143260614471437Q12.288078739471436,16.173270614471434,12.249485739471435,16.193450614471438Q12.210892739471436,16.213620614471434,12.171732739471436,16.223750614471435Q12.132573739471436,16.233880614471435,12.093224739471436,16.233880614471435Q12.053875739471435,16.233880614471435,12.014716739471435,16.223750614471435Q11.975556739471436,16.213620614471434,11.936963739471436,16.193450614471438Q11.898370739471435,16.173270614471434,11.860716739471435,16.143260614471437Q11.823061739471436,16.113250614471436,11.786708739471436,16.073680614471435Q11.750354739471435,16.034110614471437,11.715651739471436,15.985380614471435Q11.680949739471435,15.936640614471436,11.648231739471436,15.879200614471436Q11.615514739471436,15.821750614471435,11.585097739471436,15.756160614471435Q11.554679739471435,15.690570614471437,11.526855739471436,15.617460614471435Q11.499032739471435,15.544350614471435,11.474069739471435,15.464430614471436Q11.449106739471436,15.384500614471435,11.427245739471436,15.298540614471435Q11.405384739471435,15.212570614471435,11.386835739471435,15.121380614471436Q11.368286839471436,15.030200614471436,11.353228639471435,14.934680614471436Q11.338170439471435,14.839160614471435,11.326748039471436,14.740220614471436Q11.315325639471435,14.641280614471436,11.307649039471436,14.539870614471436Q11.299972479471435,14.438460614471435,11.296115609471435,14.335570614471436Q11.292258739471436,14.232670614471436,11.292258739471436,14.129280614471435Q11.292258739471436,14.025890614471436,11.296115609471435,13.923000614471436Q11.299972479471435,13.820100614471436,11.307649039471436,13.718690614471436Q11.315325639471435,13.617290614471436,11.326748039471436,13.518350614471435Q11.338170439471435,13.419410614471435,11.353228639471435,13.323890614471436Q11.368286839471436,13.228360614471436,11.386835739471435,13.137180614471436Q11.405384739471435,13.046000614471435,11.427245739471436,12.960028614471435Q11.449106739471436,12.874060614471436,11.474069739471435,12.794137614471435Q11.499032739471435,12.714213614471436,11.526855739471436,12.641104614471436Q11.554679739471435,12.567994614471436,11.585097739471436,12.502403614471435Q11.615514739471436,12.436811614471436,11.648231739471436,12.379369614471436Q11.680949739471435,12.321928614471435,11.715651739471436,12.273189614471436Q11.750354739471435,12.224450614471436,11.786708739471436,12.184883614471435Q11.823061739471436,12.145317614471436,11.860716739471435,12.115304114471435Q11.898370739471435,12.085290814471435,11.936963739471436,12.065119914471435Q11.975556739471436,12.044949114471436,12.014716739471435,12.034814814471435Q12.053875739471435,12.024680614471436,12.093224739471436,12.024680614471436Q12.132573739471436,12.024680614471436,12.171732739471436,12.034814814471435Q12.210892739471436,12.044949114471436,12.249485739471435,12.065119914471435Q12.288078739471436,12.085290814471435,12.325728739471435,12.115304114471435Q12.363388739471436,12.145317614471436,12.399738739471436,12.184883614471435Q12.436098739471436,12.224450614471436,12.470798739471435,12.273189614471436Q12.505498739471436,12.321928614471435,12.538218739471436,12.379369614471436Q12.570938739471435,12.436811614471436,12.601348739471435,12.502403614471435Q12.631768739471436,12.567994614471436,12.659588739471435,12.641104614471436Q12.687418739471436,12.714213614471436,12.712378739471436,12.794137614471435Q12.737338739471436,12.874060614471436,12.759198739471435,12.960028614471435Q12.781068739471436,13.046000614471435,12.799608739471436,13.137180614471436Q12.818158739471436,13.228360614471436,12.833218739471436,13.323890614471436Q12.848278739471436,13.419410614471435,12.859698739471435,13.518350614471435Q12.871118739471436,13.617290614471436,12.878798739471435,13.718690614471436Q12.886478739471436,13.820100614471436,12.890338739471435,13.923000614471436Q12.894188739471435,14.025890614471436,12.894188739471435,14.129280614471435Z" fill="#0F6AFF" fill-opacity="1"/></g><g><path d="M12.894188739471435,9.887093114471435Q12.894188739471435,9.990483114471436,12.890338739471435,10.093383114471436Q12.886478739471436,10.196273114471435,12.878798739471435,10.297683114471436Q12.871118739471436,10.399093114471436,12.859698739471435,10.498033114471436Q12.848278739471436,10.596973114471435,12.833218739471436,10.692493114471436Q12.818158739471436,10.788013114471436,12.799608739471436,10.879193114471436Q12.781068739471436,10.970383114471435,12.759198739471435,11.056353114471435Q12.737338739471436,11.142313114471435,12.712378739471436,11.222243114471436Q12.687418739471436,11.302163114471435,12.659588739471435,11.375273114471435Q12.631768739471436,11.448383114471437,12.601348739471435,11.513973114471435Q12.570938739471435,11.579563114471435,12.538218739471436,11.637013114471436Q12.505498739471436,11.694453114471436,12.470798739471435,11.743193114471435Q12.436098739471436,11.791923114471436,12.399738739471436,11.831493114471435Q12.363388739471436,11.871063114471436,12.325728739471435,11.901073114471435Q12.288078739471436,11.931083114471436,12.249485739471435,11.951263114471436Q12.210892739471436,11.971433114471434,12.171732739471436,11.981563114471435Q12.132573739471436,11.991693114471435,12.093224739471436,11.991693114471435Q12.053875739471435,11.991693114471435,12.014716739471435,11.981563114471435Q11.975556739471436,11.971433114471434,11.936963739471436,11.951263114471436Q11.898370739471435,11.931083114471436,11.860716739471435,11.901073114471435Q11.823061739471436,11.871063114471436,11.786708739471436,11.831493114471435Q11.750354739471435,11.791923114471436,11.715651739471436,11.743193114471435Q11.680949739471435,11.694453114471436,11.648231739471436,11.637013114471436Q11.615514739471436,11.579563114471435,11.585097739471436,11.513973114471435Q11.554679739471435,11.448383114471437,11.526855739471436,11.375273114471435Q11.499032739471435,11.302163114471435,11.474069739471435,11.222243114471436Q11.449106739471436,11.142313114471435,11.427245739471436,11.056353114471435Q11.405384739471435,10.970383114471435,11.386835739471435,10.879193114471436Q11.368286839471436,10.788013114471436,11.353228639471435,10.692493114471436Q11.338170439471435,10.596973114471435,11.326748039471436,10.498033114471436Q11.315325639471435,10.399093114471436,11.307649039471436,10.297683114471436Q11.299972479471435,10.196273114471435,11.296115609471435,10.093383114471436Q11.292258739471436,9.990483114471436,11.292258739471436,9.887093114471435Q11.292258739471436,9.783703114471436,11.296115609471435,9.680813114471436Q11.299972479471435,9.577913114471436,11.307649039471436,9.476503114471436Q11.315325639471435,9.375103114471436,11.326748039471436,9.276163114471435Q11.338170439471435,9.177223114471435,11.353228639471435,9.081703114471436Q11.368286839471436,8.986173114471436,11.386835739471435,8.894993114471436Q11.405384739471435,8.803813114471435,11.427245739471436,8.717841114471435Q11.449106739471436,8.631873114471436,11.474069739471435,8.551950114471435Q11.499032739471435,8.472026114471436,11.526855739471436,8.398917114471436Q11.554679739471435,8.325807114471436,11.585097739471436,8.260216114471435Q11.615514739471436,8.194624114471436,11.648231739471436,8.137182114471436Q11.680949739471435,8.079741114471435,11.715651739471436,8.031002114471436Q11.750354739471435,7.9822631144714356,11.786708739471436,7.942696114471436Q11.823061739471436,7.903130114471436,11.860716739471435,7.873116614471436Q11.898370739471435,7.843103314471436,11.936963739471436,7.822932414471436Q11.975556739471436,7.802761614471436,12.014716739471435,7.792627314471436Q12.053875739471435,7.7824931144714355,12.093224739471436,7.7824931144714355Q12.132573739471436,7.7824931144714355,12.171732739471436,7.792627314471436Q12.210892739471436,7.802761614471436,12.249485739471435,7.822932414471436Q12.288078739471436,7.843103314471436,12.325728739471435,7.873116614471436Q12.363388739471436,7.903130114471436,12.399738739471436,7.942696114471436Q12.436098739471436,7.9822631144714356,12.470798739471435,8.031002114471436Q12.505498739471436,8.079741114471435,12.538218739471436,8.137182114471436Q12.570938739471435,8.194624114471436,12.601348739471435,8.260216114471435Q12.631768739471436,8.325807114471436,12.659588739471435,8.398917114471436Q12.687418739471436,8.472026114471436,12.712378739471436,8.551950114471435Q12.737338739471436,8.631873114471436,12.759198739471435,8.717841114471435Q12.781068739471436,8.803813114471435,12.799608739471436,8.894993114471436Q12.818158739471436,8.986173114471436,12.833218739471436,9.081703114471436Q12.848278739471436,9.177223114471435,12.859698739471435,9.276163114471435Q12.871118739471436,9.375103114471436,12.878798739471435,9.476503114471436Q12.886478739471436,9.577913114471436,12.890338739471435,9.680813114471436Q12.894188739471435,9.783703114471436,12.894188739471435,9.887093114471435Z" fill="#0F6AFF" fill-opacity="1"/></g></g><g><g><rect x="0" y="0" width="24" height="24" rx="4" fill="#F4FAE5" fill-opacity="1"/></g></g><g clip-path="url(#master_svg1_57_3596)"><g><path d="M11.5,17.00048828125L11.5,14.00048828125L12.5,14.00048828125L12.5,17.00048828125L11.5,17.00048828125Z" fill="#7FF298" fill-opacity="1" style="mix-blend-mode:passthrough"/></g><g><path d="M7,16.50048828125L16.5,16.50048828125L16.5,17.50048828125L7,17.50048828125L7,16.50048828125Z" fill="#12BD4E" fill-opacity="1" style="mix-blend-mode:passthrough"/></g><g><path d="M17.5,14.50048828125L6.5,14.50048828125C5.947715,14.50048828125,5.5,14.05277828125,5.5,13.50048828125L5.5,8.00048828125C5.499999847412,7.44820328125,5.947715,7.00048828125,6.5,7.00048828125L17.5,7.00048828125C18.052300000000002,7.00048828125,18.5,7.44820328125,18.5,8.00048828125L18.5,13.50048828125C18.5,14.05277828125,18.052300000000002,14.50048828125,17.5,14.50048828125ZM9.219,10.75048828125C8.96012,10.75048828125,8.75025,10.96035828125,8.75025,11.21923828125C8.75025,11.478118281250001,8.96012,11.68798828125,9.219,11.68798828125L10.6025,11.68798828125C10.86138,11.68798828125,11.07125,11.478118281250001,11.07125,11.21923828125C11.07125,10.96035828125,10.86138,10.75048828125,10.6025,10.75048828125L9.219,10.75048828125ZM9.219,8.87548828125C8.96012,8.87548828125,8.75025,9.08535828125,8.75025,9.34423828125C8.75025,9.60311828125,8.96012,9.81298828125,9.219,9.81298828125L11.9955,9.81298828125C12.254380000000001,9.81298828125,12.46425,9.60311828125,12.46425,9.34423828125C12.46425,9.08535828125,12.254380000000001,8.87548828125,11.9955,8.87548828125L9.219,8.87548828125Z" fill="#06A124" fill-opacity="1" style="mix-blend-mode:passthrough"/></g></g></g></g></svg>