<svg xmlns="http://www.w3.org/2000/svg" xmlns:xlink="http://www.w3.org/1999/xlink" fill="none" version="1.1" width="24" height="24" viewBox="0 0 24 24"><defs><clipPath id="master_svg0_57_4127"><rect x="4" y="4" width="16" height="16" rx="0"/></clipPath><clipPath id="master_svg1_57_4119"><rect x="5.25" y="5.25" width="13.5" height="13.5" rx="0"/></clipPath><clipPath id="master_svg2_57_4106"><rect x="4" y="4" width="16" height="16" rx="0"/></clipPath></defs><g><g><g><rect x="0" y="0" width="24" height="24" rx="4" fill="#D9EAFF" fill-opacity="1"/></g><g><ellipse cx="12" cy="12" rx="8" ry="8" fill="#EEF6FF" fill-opacity="1"/></g><g clip-path="url(#master_svg0_57_4127)"><g><path d="M8.169339259375,10.09600830078125L8.156005859375,10.10267517078125L8.156005859375,13.88667830078125L11.996005859375,15.83933830078125L11.996005859375,11.94133830078125L8.169339259375,10.09600830078125Z" fill="#FFFFFF" fill-opacity="1" style="mix-blend-mode:passthrough"/></g><g><path d="M15.8306415234375,10.10002580078125L11.9966415234375,8.15069580078125L8.3179785234375,10.01936580078125L8.1693115234375,10.09602580078125L11.9959815234375,11.94136580078125L12.0413115234375,11.921365800781249L15.8413115234375,10.10602580078125L15.8413115234375,10.10269580078125L15.8306415234375,10.09936580078125L15.8306415234375,10.10002580078125ZM12.0666415234375,11.92069580078125L11.9973115234375,11.98736580078125L12.0666415234375,11.92069580078125Z" fill="#91D5FF" fill-opacity="1" style="mix-blend-mode:passthrough"/></g><g><path d="M16.597311601562502,9.7426681640625C16.537901601562503,9.6237981640625,16.442471601562502,9.5267381640625,16.3246416015625,9.4653281640625L12.289971601562499,7.4033297640625C12.1054616015625,7.3103808640625,11.8878216015625,7.3103808640625,11.7033116015625,7.4033297640625L7.6713086015625,9.4519981640625C7.6078806015625,9.4895081640625,7.5516646015625,9.5380481640625,7.5053086015625,9.5953281640625C7.4653086015625,9.6346681640625,7.4306415015625,9.6786681640625,7.4019748015625,9.7259981640625C7.3586267015625,9.8083581640625,7.3348983815625,9.899618164062499,7.3326416015625,9.9926681640625L7.3326416015625,13.9973281640625C7.3367486615625,14.2280381640625,7.4702686015625,14.4368281640625,7.6779746015625,14.537328164062501L11.7093116015625,16.5866681640625C11.797421601562501,16.6350781640625,11.8955316015625,16.6624581640625,11.9959716015625,16.6666681640625L12.0439716015625,16.6666681640625C12.1292316015625,16.6626281640625,12.2127516015625,16.6410681640625,12.289311601562499,16.6033281640625L16.3206416015625,14.5546681640625C16.5290316015625,14.4541281640625,16.6629116015625,14.2446681640625,16.6666416015625,14.0133281640625L16.6666416015625,9.9926681640625C16.6629816015625,9.9051181640625,16.639261601562502,9.8195881640625,16.597311601562502,9.7426681640625ZM15.8413116015625,10.1059981640625L12.0413116015625,11.921328164062501L11.9966416015625,11.9446581640625L11.9966416015625,15.8393281640625L8.1519756015625,13.886668164062499L8.1519756015625,10.1026681640625L8.3006416015625,10.0259981640625L11.9966416015625,8.1506631640625L15.8306416015625,10.0993281640625L15.8413116015625,10.1059981640625Z" fill="#0D8EFF" fill-opacity="1" style="mix-blend-mode:passthrough"/></g></g></g><g><g><g><rect x="0" y="0" width="24" height="24" rx="4" fill="#F4FAE5" fill-opacity="1"/></g><g clip-path="url(#master_svg1_57_4119)"><g><path d="M13.000004765319824,14.946752218933106L9.000704765319824,12.280558218933106L9.468732765319825,11.578516244933105L13.000004765319824,13.932692218933106L13.000004765319824,13.464722218933105Q13.000004765319824,12.999982218933106,13.676554765319825,12.999982218933106L17.323454765319823,12.999982218933106Q18.000004765319822,12.999982218933106,18.000004765319822,13.464722218933105L18.000004765319822,16.535242218933107Q18.000004765319822,16.999982218933106,17.323454765319823,16.999982218933106L13.676554765319825,16.999982218933106Q13.000004765319824,16.999982218933106,13.000004765319824,16.535242218933107L13.000004765319824,14.946752218933106Z" fill-rule="evenodd" fill="#10B981" fill-opacity="1"/></g><g><path d="M18.064999999999998,6.9375L14.37251,6.9375Q13.6875,6.9375,13.6875,7.427657L13.6875,8.59528L10.3125,10.845279999999999L10.3125,10.38078Q10.3125,9.89062,9.62749,9.89062L5.935006,9.89062Q5.25,9.89062,5.25,10.38078L5.25,13.61922Q5.25,14.10938,5.935006,14.10938L9.62749,14.10938Q10.3125,14.10938,10.3125,13.61922L10.3125,11.85934L13.6875,9.60934L13.6875,10.66609Q13.6875,11.15625,14.37251,11.15625L18.064999999999998,11.15625Q18.75,11.15625,18.75,10.66609L18.75,7.427657Q18.75,6.9375,18.064999999999998,6.9375Z" fill-rule="evenodd" fill="#9FDB1D" fill-opacity="1"/></g></g></g><g><g><g><rect x="0" y="0" width="24" height="24" rx="4" fill="#F6E7FF" fill-opacity="1"/></g></g><g clip-path="url(#master_svg2_57_4106)"><g><g><path d="M14.186747658843995,7.166456699371338L14.186747658843995,7.666455699371338L8.890127658843994,7.666455699371338L8.890127658843994,7.166456699371338L14.186747658843995,7.166456699371338Z" fill="#854AFF" fill-opacity="1" style="mix-blend-mode:passthrough"/></g><g><path d="M13.384612560272217,11.749962329864502L13.384612560272217,12.249961329864503L15.446762560272216,12.249961329864503L15.446762560272216,16.3024523298645L15.908302560272217,16.3024523298645L15.908302560272217,12.249961329864503C15.908242560272218,11.996305329864501,15.732872560272217,11.782887729864502,15.500302560272218,11.753462689864502L15.446762560272216,11.749962329864502L13.384612560272217,11.749962329864502Z" fill="#E0AAFF" fill-opacity="1" style="mix-blend-mode:passthrough"/></g><g><path d="M12.28889879081726,11.73550606798172L12.28889879081726,9.93401606798172C12.28892879081726,9.68052606798172,12.464058790817262,9.46716606798172,12.696438790817261,9.43751606798172L12.75043879081726,9.43401606798172L15.10889879081726,9.43401606798172L15.10889879081726,6.53901606798172L15.57043879081726,6.53901606798172L15.57043879081726,9.43401606798172C15.57064879081726,9.68768606798172,15.39545879081726,9.90132606798172,15.16290879081726,9.93101606798172L15.10936879081726,9.93401606798172L12.75043879081726,9.93401606798172L12.75043879081726,11.73550606798172L12.28889879081726,11.73550606798172ZM7.197668790817261,16.36700606798172L7.197668790817261,14.56600606798172C7.197492727817261,14.31215606798172,7.372929790817261,14.09845606798172,7.605668790817261,14.06900606798172L7.659207790817261,14.06600606798172L12.274598790817262,14.06600606798172L12.274598790817262,11.750006067981719L12.736128790817261,11.750006067981719L12.736128790817261,14.06600606798172C12.73609879081726,14.31949606798172,12.560978790817261,14.532846067981719,12.32859879081726,14.56250606798172L12.274598790817262,14.56600606798172L7.659207790817261,14.56600606798172L7.659207790817261,16.36700606798172L7.197668790817261,16.36700606798172Z" fill="#854AFF" fill-opacity="1" style="mix-blend-mode:passthrough"/></g><g><path d="M6.3147,6L10.30069,6Q10.61539,6,10.61539,6.409053L10.61539,8.59094Q10.61539,9,10.30069,9L6.3147,9Q6,9,6,8.59094L6,6.409053Q6,6,6.3147,6Z" fill="#854AFF" fill-opacity="1" style="mix-blend-mode:passthrough"/></g><g><path d="M13.699312560272217,6L15.692302560272218,6L17.685302560272216,6Q18.000002560272215,6,18.000002560272215,6.409053L18.000002560272215,8.59094Q18.000002560272215,9,17.685302560272216,9L13.699312560272217,9Q13.384612560272217,9,13.384612560272217,8.59094L13.384612560272217,6.409053Q13.384612560272217,6,13.699312560272217,6Z" fill="#854AFF" fill-opacity="1" style="mix-blend-mode:passthrough"/></g><g><path d="M6.3147,10.999993324279785L10.30069,10.999993324279785Q10.61539,10.999993324279785,10.61539,11.272695324279786L10.61539,12.727293324279785Q10.61539,12.999993324279785,10.30069,12.999993324279785L6.3147,12.999993324279785Q6,12.999993324279785,6,12.727293324279785L6,11.272695324279786Q6,10.999993324279785,6.3147,10.999993324279785Z" fill="#E0AAFF" fill-opacity="1" style="mix-blend-mode:passthrough"/></g><g><path d="M13.699312560272217,15.000004768371582L17.685302560272216,15.000004768371582Q18.000002560272215,15.000004768371582,18.000002560272215,15.409057768371582L18.000002560272215,17.590944768371582Q18.000002560272215,18.000004768371582,17.685302560272216,18.000004768371582L13.699312560272217,18.000004768371582Q13.384612560272217,18.000004768371582,13.384612560272217,17.590944768371582L13.384612560272217,15.409057768371582Q13.384612560272217,15.000004768371582,13.699312560272217,15.000004768371582Z" fill="#E0AAFF" fill-opacity="1" style="mix-blend-mode:passthrough"/></g><g><path d="M6.3147,15.000004768371582L10.30069,15.000004768371582Q10.61539,15.000004768371582,10.61539,15.409057768371582L10.61539,17.590944768371582Q10.61539,18.000004768371582,10.30069,18.000004768371582L6.3147,18.000004768371582Q6,18.000004768371582,6,17.590944768371582L6,15.409057768371582Q6,15.000004768371582,6.3147,15.000004768371582Z" fill="#854AFF" fill-opacity="1" style="mix-blend-mode:passthrough"/></g><g><path d="M12.549897439727783,11.021715924279786L14.258867439727783,11.920354324279785C14.288947439727783,11.936152324279785,14.307697439727782,11.966732324279786,14.307697439727782,11.999992324279786C14.307697439727782,12.033253324279785,14.288947439727783,12.063833324279784,14.258867439727783,12.079633324279785L12.549897439727783,12.978273324279785C12.494757439727783,13.007233324279785,12.428327439727783,13.007233324279785,12.373187439727783,12.978273324279785L10.664218139727783,12.079633324279785C10.634137939727783,12.063833324279784,10.615387439727783,12.033253324279785,10.615387439727783,11.999992324279786C10.615387439727783,11.966731324279785,10.634137939727783,11.936152324279785,10.664218139727783,11.920354324279785L12.373187439727783,11.021715224279784C12.428327439727783,10.992752674279785,12.494757439727783,10.992752674279785,12.549897439727783,11.021715924279786Z" fill="#854AFF" fill-opacity="1" style="mix-blend-mode:passthrough"/></g></g></g></g></g></g></svg>