<svg xmlns="http://www.w3.org/2000/svg" xmlns:xlink="http://www.w3.org/1999/xlink" fill="none" version="1.1" width="24" height="24" viewBox="0 0 24 24"><defs><clipPath id="master_svg0_57_4060"><rect x="3.2727274894714355" y="3.2727274894714355" width="17.454545974731445" height="17.454545974731445" rx="0"/></clipPath><clipPath id="master_svg1_57_4061"><rect x="4.000007152557373" y="4.0000224113464355" width="16" height="16" rx="0"/></clipPath></defs><g><g><g><rect x="0" y="0" width="24" height="24" rx="4" fill="#FFE4C4" fill-opacity="1"/></g><g clip-path="url(#master_svg0_57_4060)"><g clip-path="url(#master_svg1_57_4061)"><g><ellipse cx="12.000007152557373" cy="12.000022411346436" rx="8" ry="8" fill="#FB923C" fill-opacity="1"/></g><g transform="matrix(-1,0,0,-1,20.131361961364746,26.53953456878662)"><path d="M13.075690980682372,13.790290284393311L12.997260980682373,13.26976728439331L11.956480980682374,13.42634228439331L12.034640980682372,13.94660628439331C12.063850980682373,14.13976828439331,12.078850980682374,14.33765728439331,12.078850980682374,14.53949728439331C12.079980980682373,15.49435728439331,11.734500980682373,16.40964728439331,11.118310980682374,17.12141728439331L11.118310980682374,16.473747284393312L10.065680980682373,16.473747284393312L10.065680980682373,18.34217728439331C10.065680980682373,18.63283728439331,10.301320980682373,18.86847728439331,10.592001980682372,18.86847728439331L12.460420980682374,18.86847728439331L12.460420980682374,17.81585728439331L11.909350980682373,17.81585728439331C12.692990980682373,16.91334728439331,13.132600980682373,15.75161728439331,13.131470980682373,14.53949728439331C13.131590980682374,14.28871728439331,13.112940980682373,14.03828628439331,13.075690980682372,13.790290284393311Z" fill-rule="evenodd" fill="#FFDE09" fill-opacity="1" style="mix-blend-mode:passthrough"/></g><g transform="matrix(-1,0,0,-1,34.000014305114746,34.00004482269287)"><path d="M22.000207152557373,18.052652411346436C21.798367152557372,18.052652411346436,21.600477152557374,18.067652411346437,21.407317152557372,18.096862411346436L20.887047152557372,18.175022411346436L20.730477152557373,17.134233411346436L21.250997152557375,17.055804211346434C21.498997152557372,17.018555811346435,21.749427152557374,16.999910018346437,22.000207152557373,17.000022411346436C23.25360715255737,17.000022411346436,24.39935715255737,17.461428411346436,25.27641715255737,18.222672411346437L25.27641715255737,17.671043411346435L26.329047152557372,17.671043411346435L26.329047152557372,19.539452411346435C26.329037152557373,19.830142411346436,26.093407152557376,20.065772411346437,25.802737152557373,20.065772411346437L23.934317152557373,20.065772411346437L23.934317152557373,19.013152411346436L24.58188715255737,19.013152411346436C23.870297152557374,18.397122411346437,22.955127152557374,18.051562411346435,22.000207152557373,18.052652411346436ZM17.671150152557374,17.671043411346435L19.539567152557375,17.671043411346435C19.830247152557373,17.671049411346434,20.065887152557373,17.906683411346435,20.065887152557373,18.197352411346436L20.065887152557373,20.065772411346437L19.013257152557372,20.065772411346437L19.013257152557372,19.418012411346435C18.397017152557375,20.129792411346436,18.051497152557374,21.045122411346433,18.052637152557374,22.000022411346436C18.052637152557374,22.201872411346436,18.067637152557374,22.399752411346434,18.096847152557373,22.592922411346436L18.175007152557374,23.113182411346436L17.134220152557372,23.269752411346435L17.055790652557373,22.749492411346434C17.018551952557374,22.501412411346436,16.999906203557373,22.250882411346435,17.000009320917375,22.000022411346436C16.99888885255737,20.787912411346436,17.438489152557374,19.626172411346435,18.222137152557373,18.723672411346435L17.671150152557374,18.723672411346435L17.671150152557374,17.671043411346435ZM17.671150152557374,24.460542411346434C17.671156152557373,24.169862411346436,17.906790152557374,23.934222411346436,18.197457152557373,23.934222411346436L20.065887152557373,23.934222411346436L20.065887152557373,24.986852411346437L19.418067152557374,24.986852411346437C20.129667152557374,25.602902411346435,21.044837152557374,25.948472411346437,21.999767152557375,25.947392411346435C22.201867152557373,25.947392411346435,22.399757152557374,25.932392411346434,22.592657152557372,25.903182411346435L23.113187152557373,25.825022411346435L23.269757152557375,26.865812411346436L22.749237152557374,26.944242411346437C22.501237152557373,26.981492411346437,22.250797152557375,27.000122411346435,22.000007152557373,27.000022411346436C20.787807152557374,27.001222411346436,19.626187152557375,26.561682411346435,18.723777152557375,25.778392411346438L18.723777152557375,26.328962411346435L17.671150152557374,26.328962411346435L17.671150152557374,24.460542411346434Z" fill-rule="evenodd" fill="#FFFFFF" fill-opacity="1" style="mix-blend-mode:passthrough"/></g></g></g></g></g></svg>