<svg xmlns="http://www.w3.org/2000/svg" xmlns:xlink="http://www.w3.org/1999/xlink" fill="none" version="1.1" width="24" height="24" viewBox="0 0 24 24"><defs><clipPath id="master_svg0_57_3553"><rect x="3.9998779296875" y="4" width="16" height="16" rx="0"/></clipPath></defs><g><g><g><g><rect x="0" y="0" width="24" height="24" rx="4" fill="#D9EAFF" fill-opacity="1"/></g></g><g clip-path="url(#master_svg0_57_3553)"><g><path d="M17.4998779296875,17L6.4998779296875,17C5.9475929296875,17,5.4998779296875,16.552300000000002,5.4998779296875,16L5.499877929687539,7C5.4998777770995,6.447715,5.9475929296875,6,6.4998779296875,6L17.4998779296875,6C18.052177929687502,6,18.4998779296875,6.447715,18.4998779296875,7L18.4998779296875,16C18.4998779296875,16.552300000000002,18.052177929687502,17,17.4998779296875,17ZM9.2188779296875,11.25C8.9599979296875,11.25,8.7501279296875,11.459869999999999,8.7501279296875,11.71875C8.7501279296875,11.977630000000001,8.9599979296875,12.1875,9.2188779296875,12.1875L10.6023779296875,12.1875C10.8612579296875,12.1875,11.0711279296875,11.977630000000001,11.0711279296875,11.71875C11.0711279296875,11.459869999999999,10.8612579296875,11.25,10.6023779296875,11.25L9.2188779296875,11.25ZM9.2188779296875,9.375C8.9599979296875,9.375,8.7501279296875,9.58487,8.7501279296875,9.84375C8.7501279296875,10.102630000000001,8.9599979296875,10.3125,9.2188779296875,10.3125L11.9953779296875,10.3125C12.254257929687501,10.3125,12.4641279296875,10.102630000000001,12.4641279296875,9.84375C12.4641279296875,9.58487,12.254257929687501,9.375,11.9953779296875,9.375L9.2188779296875,9.375Z" fill="#226CFF" fill-opacity="1" style="mix-blend-mode:passthrough"/></g></g></g></g></svg>