<svg xmlns="http://www.w3.org/2000/svg" xmlns:xlink="http://www.w3.org/1999/xlink" fill="none" version="1.1" width="24" height="24" viewBox="0 0 24 24"><defs><clipPath id="master_svg0_57_3546"><rect x="4" y="4" width="16" height="16" rx="0"/></clipPath><clipPath id="master_svg1_57_3539"><rect x="5.25" y="5.25" width="13.5" height="13.5" rx="0"/></clipPath><clipPath id="master_svg2_57_3523"><rect x="3.2727274894714355" y="3.2727274894714355" width="17.454545974731445" height="17.454545974731445" rx="0"/></clipPath><clipPath id="master_svg3_57_3524"><rect x="4.000007152557373" y="4.0000224113464355" width="16" height="16" rx="0"/></clipPath></defs><g><g><g><rect x="0" y="0" width="24" height="24" rx="4" fill="#D9EAFF" fill-opacity="1"/></g><g><ellipse cx="12" cy="12" rx="8" ry="8" fill="#EEF6FF" fill-opacity="1"/></g><g clip-path="url(#master_svg0_57_3546)"><g><path d="M8.169339259375,10.09600830078125L8.156005859375,10.10267517078125L8.156005859375,13.88667830078125L11.996005859375,15.83933830078125L11.996005859375,11.94133830078125L8.169339259375,10.09600830078125Z" fill="#FFFFFF" fill-opacity="1" style="mix-blend-mode:passthrough"/></g><g><path d="M15.8306415234375,10.10002580078125L11.9966415234375,8.15069580078125L8.3179785234375,10.01936580078125L8.1693115234375,10.09602580078125L11.9959815234375,11.94136580078125L12.0413115234375,11.921365800781249L15.8413115234375,10.10602580078125L15.8413115234375,10.10269580078125L15.8306415234375,10.09936580078125L15.8306415234375,10.10002580078125ZM12.0666415234375,11.92069580078125L11.9973115234375,11.98736580078125L12.0666415234375,11.92069580078125Z" fill="#91D5FF" fill-opacity="1" style="mix-blend-mode:passthrough"/></g><g><path d="M16.597311601562502,9.7426681640625C16.537901601562503,9.6237981640625,16.442471601562502,9.5267381640625,16.3246416015625,9.4653281640625L12.289971601562499,7.4033297640625C12.1054616015625,7.3103808640625,11.8878216015625,7.3103808640625,11.7033116015625,7.4033297640625L7.6713086015625,9.4519981640625C7.6078806015625,9.4895081640625,7.5516646015625,9.5380481640625,7.5053086015625,9.5953281640625C7.4653086015625,9.6346681640625,7.4306415015625,9.6786681640625,7.4019748015625,9.7259981640625C7.3586267015625,9.8083581640625,7.3348983815625,9.899618164062499,7.3326416015625,9.9926681640625L7.3326416015625,13.9973281640625C7.3367486615625,14.2280381640625,7.4702686015625,14.4368281640625,7.6779746015625,14.537328164062501L11.7093116015625,16.5866681640625C11.797421601562501,16.6350781640625,11.8955316015625,16.6624581640625,11.9959716015625,16.6666681640625L12.0439716015625,16.6666681640625C12.1292316015625,16.6626281640625,12.2127516015625,16.6410681640625,12.289311601562499,16.6033281640625L16.3206416015625,14.5546681640625C16.5290316015625,14.4541281640625,16.6629116015625,14.2446681640625,16.6666416015625,14.0133281640625L16.6666416015625,9.9926681640625C16.6629816015625,9.9051181640625,16.639261601562502,9.8195881640625,16.597311601562502,9.7426681640625ZM15.8413116015625,10.1059981640625L12.0413116015625,11.921328164062501L11.9966416015625,11.9446581640625L11.9966416015625,15.8393281640625L8.1519756015625,13.886668164062499L8.1519756015625,10.1026681640625L8.3006416015625,10.0259981640625L11.9966416015625,8.1506631640625L15.8306416015625,10.0993281640625L15.8413116015625,10.1059981640625Z" fill="#0D8EFF" fill-opacity="1" style="mix-blend-mode:passthrough"/></g></g></g><g><g><g><rect x="0" y="0" width="24" height="24" rx="4" fill="#F6E7FF" fill-opacity="1"/></g><g clip-path="url(#master_svg1_57_3539)"><rect x="5.25" y="5.25" width="13.5" height="13.5" rx="0" fill="#F6E7FF" fill-opacity="1"/><g><path d="M13.000004765319824,14.946752218933106L9.000704765319824,12.280558218933106L9.468732765319825,11.578516244933105L13.000004765319824,13.932692218933106L13.000004765319824,13.464722218933105Q13.000004765319824,12.999982218933106,13.676554765319825,12.999982218933106L17.323454765319823,12.999982218933106Q18.000004765319822,12.999982218933106,18.000004765319822,13.464722218933105L18.000004765319822,16.535242218933107Q18.000004765319822,16.999982218933106,17.323454765319823,16.999982218933106L13.676554765319825,16.999982218933106Q13.000004765319824,16.999982218933106,13.000004765319824,16.535242218933107L13.000004765319824,14.946752218933106Z" fill-rule="evenodd" fill="#10B981" fill-opacity="1"/></g><g><path d="M18.064999999999998,6.9375L14.37251,6.9375Q13.6875,6.9375,13.6875,7.427657L13.6875,8.59528L10.3125,10.845279999999999L10.3125,10.38078Q10.3125,9.89062,9.62749,9.89062L5.935006,9.89062Q5.25,9.89062,5.25,10.38078L5.25,13.61922Q5.25,14.10938,5.935006,14.10938L9.62749,14.10938Q10.3125,14.10938,10.3125,13.61922L10.3125,11.85934L13.6875,9.60934L13.6875,10.66609Q13.6875,11.15625,14.37251,11.15625L18.064999999999998,11.15625Q18.75,11.15625,18.75,10.66609L18.75,7.427657Q18.75,6.9375,18.064999999999998,6.9375Z" fill-rule="evenodd" fill="#9FDB1D" fill-opacity="1"/></g></g></g><g><g><rect x="0" y="0" width="24" height="24" rx="4" fill="#F6E7FF" fill-opacity="1"/></g><g clip-path="url(#master_svg2_57_3523)"><rect x="3.2727274894714355" y="3.2727274894714355" width="17.454545974731445" height="17.454545974731445" rx="0" fill="#F6E7FF" fill-opacity="1"/><g clip-path="url(#master_svg3_57_3524)"><g><ellipse cx="12.000007152557373" cy="12.000022411346436" rx="8" ry="8" fill="#7F4EFF" fill-opacity="1"/></g><g><g><path d="M16.94423079086304,11.250791955230714L16.865800790863037,10.730268955230713L15.825020790863038,10.886843955230713L15.903180790863036,11.407107955230712C15.932390790863037,11.600269955230713,15.947390790863038,11.798158955230713,15.947390790863038,11.999998955230712C15.948520790863038,12.954858955230712,15.603040790863037,13.870148955230713,14.986850790863038,14.581918955230712L14.986850790863038,13.934248955230712L13.934220790863037,13.934248955230712L13.934220790863037,15.802678955230713C13.934220790863037,16.093338955230713,14.169860790863037,16.328978955230713,14.460541790863036,16.328978955230713L16.328960790863036,16.328978955230713L16.328960790863036,15.276358955230712L15.777890790863037,15.276358955230712C16.56153079086304,14.373848955230713,17.001140790863037,13.212118955230713,17.000010790863037,11.999998955230712C17.000130790863036,11.749218955230713,16.98148079086304,11.498787955230712,16.94423079086304,11.250791955230714Z" fill-rule="evenodd" fill="#E0AAFF" fill-opacity="1" style="mix-blend-mode:passthrough"/></g><g><path d="M12.000207152557373,8.052652411346436C11.798367152557372,8.052652411346436,11.600477152557373,8.067652411346435,11.407317152557372,8.096862411346436L10.887047152557372,8.175022411346436L10.730477152557373,7.134233411346435L11.250997152557373,7.055804211346436C11.498997152557372,7.0185558113464355,11.749427152557374,6.999910018346435,12.000207152557373,7.0000224113464355C13.253607152557372,7.0000224113464355,14.399357152557373,7.461428411346436,15.276417152557373,8.222672411346435L15.276417152557373,7.671043411346435L16.329047152557372,7.671043411346435L16.329047152557372,9.539452411346435C16.329037152557373,9.830142411346436,16.093407152557376,10.065772411346435,15.802737152557373,10.065772411346435L13.934317152557373,10.065772411346435L13.934317152557373,9.013152411346436L14.581887152557373,9.013152411346436C13.870297152557374,8.397122411346436,12.955127152557374,8.051562411346435,12.000207152557373,8.052652411346436ZM7.671150152557373,7.671043411346435L9.539567152557373,7.671043411346435C9.830247152557373,7.671049411346436,10.065887152557373,7.906683411346435,10.065887152557373,8.197352411346436L10.065887152557373,10.065772411346435L9.013257152557372,10.065772411346435L9.013257152557372,9.418012411346435C8.397017152557373,10.129792411346436,8.051497152557372,11.045122411346435,8.052637152557374,12.000022411346436C8.052637152557374,12.201872411346436,8.067637152557372,12.399752411346435,8.096847152557373,12.592922411346436L8.175007152557374,13.113182411346436L7.134220152557373,13.269752411346435L7.0557906525573735,12.749492411346434C7.018551952557373,12.501412411346436,6.999906203557373,12.250882411346435,7.000009320917373,12.000022411346436C6.998888852557373,10.787912411346436,7.438489152557373,9.626172411346435,8.222137152557373,8.723672411346435L7.671150152557373,8.723672411346435L7.671150152557373,7.671043411346435ZM7.671150152557373,14.460542411346434C7.671156152557373,14.169862411346436,7.906790152557373,13.934222411346436,8.197457152557373,13.934222411346436L10.065887152557373,13.934222411346436L10.065887152557373,14.986852411346437L9.418067152557374,14.986852411346437C10.129667152557372,15.602902411346436,11.044837152557374,15.948472411346435,11.999767152557373,15.947392411346435C12.201867152557373,15.947392411346435,12.399757152557374,15.932392411346436,12.592657152557372,15.903182411346435L13.113187152557373,15.825022411346435L13.269757152557373,16.865812411346436L12.749237152557374,16.944242411346437C12.501237152557373,16.981492411346437,12.250797152557373,17.000122411346435,12.000007152557373,17.000022411346436C10.787807152557374,17.001222411346436,9.626187152557373,16.561682411346435,8.723777152557373,15.778392411346436L8.723777152557373,16.328962411346435L7.671150152557373,16.328962411346435L7.671150152557373,14.460542411346434Z" fill-rule="evenodd" fill="#FFFFFF" fill-opacity="1" style="mix-blend-mode:passthrough"/></g></g></g></g></g></g></g></svg>