<svg xmlns="http://www.w3.org/2000/svg" xmlns:xlink="http://www.w3.org/1999/xlink" fill="none" version="1.1" width="24" height="24" viewBox="0 0 24 24"><defs><clipPath id="master_svg0_57_3636"><rect x="3.9998779296875" y="4" width="16" height="16" rx="0"/></clipPath></defs><g><g><rect x="0" y="0" width="24" height="24" rx="4" fill="#FFFFFF" fill-opacity="1"/></g><g><g><rect x="0" y="0" width="24" height="24" rx="4" fill="#D9EAFF" fill-opacity="1"/></g><g><g clip-path="url(#master_svg0_57_3636)"><g><path d="M10.9998779296875,15.75L10.9998779296875,12.5L7.4998779296875,12.5C7.2237379296875,12.5,6.9998779296875,12.72386,6.9998779296875,13L6.9998779296875,16L6.4998779296875,16C5.9475929296875,16,5.4998779296875,15.55229,5.4998779296875,15L5.4998779296875,12C5.4998777770995,11.44772,5.9475929296875,11,6.4998779296875,11L10.9998779296875,11L10.9998779296875,9.25C10.9998779296875,8.835786,11.3356679296875,8.5,11.7498779296875,8.5C12.1640879296875,8.5,12.4998779296875,8.835786,12.4998779296875,9.25L12.4998779296875,11L16.9998779296875,11C17.552177929687502,11,17.9998779296875,11.44772,17.9998779296875,12L17.9998779296875,15C17.9998779296875,15.55229,17.552177929687502,16,16.9998779296875,16L16.4998779296875,16L16.4998779296875,13C16.4998779296875,12.72386,16.2759779296875,12.5,15.9998779296875,12.5L12.4998779296875,12.5L12.4998779296875,15.75C12.4998779296875,16.16421,12.1640879296875,16.5,11.7498779296875,16.5C11.3356679296875,16.5,10.9998779296875,16.16422,10.9998779296875,15.75Z" fill="#7FF298" fill-opacity="1" style="mix-blend-mode:passthrough"/></g><g><path d="M5.4998779296875,14L6.4998779296875,14Q7.4998779296875,14,7.4998779296875,15L7.4998779296875,16Q7.4998779296875,17,6.4998779296875,17L5.4998779296875,17Q4.4998779296875,17,4.4998779296875,16L4.4998779296875,15Q4.4998779296875,14,5.4998779296875,14Z" fill="#226CFF" fill-opacity="1" style="mix-blend-mode:passthrough"/></g><g><path d="M10.9998779296875,13.5L12.4998779296875,13.5Q13.4998779296875,13.5,13.4998779296875,14.5L13.4998779296875,16Q13.4998779296875,17,12.4998779296875,17L10.9998779296875,17Q9.9998779296875,17,9.9998779296875,16L9.9998779296875,14.5Q9.9998779296875,13.5,10.9998779296875,13.5Z" fill="#226CFF" fill-opacity="1" style="mix-blend-mode:passthrough"/></g><g><path d="M16.9998779296875,14L17.9998779296875,14Q18.9998779296875,14,18.9998779296875,15L18.9998779296875,16Q18.9998779296875,17,17.9998779296875,17L16.9998779296875,17Q15.9998779296875,17,15.9998779296875,16L15.9998779296875,15Q15.9998779296875,14,16.9998779296875,14Z" fill="#226CFF" fill-opacity="1" style="mix-blend-mode:passthrough"/></g><g><path d="M9.9998779296875,7L13.4998779296875,7Q14.4998779296875,7,14.4998779296875,8L14.4998779296875,9.5Q14.4998779296875,10.5,13.4998779296875,10.5L9.9998779296875,10.5Q8.9998779296875,10.5,8.9998779296875,9.5L8.9998779296875,8Q8.9998779296875,7,9.9998779296875,7Z" fill="#226CFF" fill-opacity="1" style="mix-blend-mode:passthrough"/></g><g><path d="M10.9998779296875,8L12.4998779296875,8Q12.9998779296875,8,12.9998779296875,8.5Q12.9998779296875,9,12.4998779296875,9L10.9998779296875,9Q10.4998779296875,9,10.4998779296875,8.5Q10.4998779296875,8,10.9998779296875,8Z" fill="#FFFFFF" fill-opacity="1" style="mix-blend-mode:passthrough"/></g></g></g></g></g></svg>