<svg xmlns="http://www.w3.org/2000/svg" xmlns:xlink="http://www.w3.org/1999/xlink" fill="none" version="1.1" width="24" height="24" viewBox="0 0 24 24"><defs><clipPath id="master_svg0_57_3658"><rect x="5.25" y="5.25" width="13.5" height="13.5" rx="0"/></clipPath></defs><g><g><g><g><rect x="0" y="0" width="24" height="24" rx="4" fill="#F4FAE5" fill-opacity="1"/></g><g clip-path="url(#master_svg0_57_3658)"><g><path d="M13.000004765319824,14.946752218933106L9.000704765319824,12.280558218933106L9.468732765319825,11.578516244933105L13.000004765319824,13.932692218933106L13.000004765319824,13.464722218933105Q13.000004765319824,12.999982218933106,13.676554765319825,12.999982218933106L17.323454765319823,12.999982218933106Q18.000004765319822,12.999982218933106,18.000004765319822,13.464722218933105L18.000004765319822,16.535242218933107Q18.000004765319822,16.999982218933106,17.323454765319823,16.999982218933106L13.676554765319825,16.999982218933106Q13.000004765319824,16.999982218933106,13.000004765319824,16.535242218933107L13.000004765319824,14.946752218933106Z" fill-rule="evenodd" fill="#10B981" fill-opacity="1"/></g><g><path d="M18.064999999999998,6.9375L14.37251,6.9375Q13.6875,6.9375,13.6875,7.427657L13.6875,8.59528L10.3125,10.845279999999999L10.3125,10.38078Q10.3125,9.89062,9.62749,9.89062L5.935006,9.89062Q5.25,9.89062,5.25,10.38078L5.25,13.61922Q5.25,14.10938,5.935006,14.10938L9.62749,14.10938Q10.3125,14.10938,10.3125,13.61922L10.3125,11.85934L13.6875,9.60934L13.6875,10.66609Q13.6875,11.15625,14.37251,11.15625L18.064999999999998,11.15625Q18.75,11.15625,18.75,10.66609L18.75,7.427657Q18.75,6.9375,18.064999999999998,6.9375Z" fill-rule="evenodd" fill="#9FDB1D" fill-opacity="1"/></g></g></g></g></g></svg>