<svg xmlns="http://www.w3.org/2000/svg" xmlns:xlink="http://www.w3.org/1999/xlink" fill="none" version="1.1" width="24" height="24" viewBox="0 0 24 24"><defs><clipPath id="master_svg0_60_3498"><rect x="4" y="4" width="16" height="16" rx="0"/></clipPath></defs><g><g><g><rect x="0" y="0" width="24" height="24" rx="4" fill="#EEF6FF" fill-opacity="1"/></g></g><g clip-path="url(#master_svg0_60_3498)"><g><path d="M12.0000440234375,18.666643505859376C8.318144023437501,18.666643505859376,5.3333740234375,15.681943505859374,5.3333740234375,12.000013505859375C5.3333740234375,8.318113505859376,8.318144023437501,5.333343505859375,12.0000440234375,5.333343505859375L12.0000440234375,6.666673505859375C9.0545040234375,6.666673505859375,6.6667040234375,9.054473505859375,6.6667040234375,12.000013505859375C6.6667040234375,14.945543505859375,9.0545040234375,17.333343505859375,12.0000440234375,17.333343505859375L12.0000440234375,18.666643505859376ZM12.0000040234375,13.999973505859375C12.9319240234375,13.999973505859375,13.7149740234375,13.362583505859375,13.9369940234375,12.499973505859375L17.999974023437503,12.499973505859375L17.999974023437503,11.499973505859375L13.9369940234375,11.499973505859375C13.7149740234375,10.637353505859375,12.9319240234375,9.999973505859375,12.0000040234375,9.999973505859375C10.895434023437499,9.999973505859375,10.0000040234375,10.895403505859374,10.0000040234375,11.999973505859375C10.0000040234375,13.104543505859375,10.895434023437499,13.999973505859375,12.0000040234375,13.999973505859375Z" fill-rule="evenodd" fill="#007DFA" fill-opacity="1"/></g></g></g></svg>