<svg xmlns="http://www.w3.org/2000/svg" xmlns:xlink="http://www.w3.org/1999/xlink" fill="none" version="1.1" width="24" height="24" viewBox="0 0 24 24"><defs><clipPath id="master_svg0_57_4094"><rect x="5" y="5" width="14" height="14" rx="0"/></clipPath></defs><g><g><g><g><rect x="0" y="0" width="24" height="24" rx="4" fill="#D9EAFF" fill-opacity="1"/></g><g clip-path="url(#master_svg0_57_4094)"><rect x="5" y="5" width="14" height="14" rx="0" fill="#D9EAFF" fill-opacity="1"/><g><path d="M15.9199658203125,18.16002685546875L8.0799658203125,18.16002685546875C6.8479658203125,18.16002685546875,5.8399658203125,17.152026855468748,5.8399658203125,15.92002685546875L5.8399658203125,6.12002685546875C5.8399658203125,5.95202685546875,5.9519658203125,5.84002685546875,6.1199658203125,5.84002685546875L16.1999658203125,5.84002685546875C16.3679658203125,5.84002685546875,16.4799658203125,5.95202685546875,16.4799658203125,6.12002685546875L16.4799658203125,15.36002685546875L17.8799658203125,15.36002685546875C18.0479658203125,15.36002685546875,18.1599658203125,15.47202685546875,18.1599658203125,15.64002685546875L18.1599658203125,15.92002685546875C18.1599658203125,17.152026855468748,17.151965820312498,18.16002685546875,15.9199658203125,18.16002685546875ZM6.3999658203125005,6.4000268554687505L6.3999658203125005,15.92002685546875C6.3999658203125005,16.844026855468748,7.1559658203125,17.600026855468748,8.0799658203125,17.600026855468748L15.9199658203125,17.600026855468748C16.843965820312498,17.600026855468748,17.599965820312498,16.844026855468748,17.599965820312498,15.92002685546875L16.1999658203125,15.92002685546875C16.0319658203125,15.92002685546875,15.9199658203125,15.80802685546875,15.9199658203125,15.64002685546875L15.9199658203125,6.4000268554687505L6.3999658203125005,6.4000268554687505Z" fill="#1C2754" fill-opacity="1" style="mix-blend-mode:passthrough"/></g><g><path d="M15.9200244140625,17.599993896484374L8.6400244140625,17.599993896484374C7.4080244140625,17.599993896484374,6.4000244140625,16.591993896484375,6.4000244140625,15.359993896484376L6.4000244140625,6.399993896484375L15.9200244140625,6.399993896484375L15.9200244140625,17.599993896484374Z" fill="#50BFFF" fill-opacity="1" style="mix-blend-mode:passthrough"/></g><g><path d="M15.9199560546875,17.600013427734375L8.0799560546875,17.600013427734375L8.0799560546875,15.920013427734375L17.5999560546875,15.920013427734375C17.5999560546875,16.844013427734374,16.8439560546875,17.600013427734375,15.9199560546875,17.600013427734375Z" fill="#B1E2FF" fill-opacity="1" style="mix-blend-mode:passthrough"/></g><g><path d="M8.0800244140625,14.239990234375C9.0040244140625,14.239990234375,9.7600244140625,14.995990234375,9.7600244140625,15.919990234375C9.7600244140625,16.843990234375,9.0040244140625,17.599990234375,8.0800244140625,17.599990234375C7.1560244140625,17.599990234375,6.4000244140625,16.843990234375,6.4000244140625,15.919990234375C6.4000244140625,14.995990234375,7.1560244140625,14.239990234375,8.0800244140625,14.239990234375Z" fill="#50BFFF" fill-opacity="1" style="mix-blend-mode:passthrough"/></g><g><path d="M8,12L10,12L10,14L8,14L8,12Z" fill="#79CEFF" fill-opacity="1" style="mix-blend-mode:passthrough"/></g><g><path d="M10,8L14,8L14,12L10,12L10,8Z" fill="#00A2FF" fill-opacity="1" style="mix-blend-mode:passthrough"/></g></g></g></g></g></svg>