<svg xmlns="http://www.w3.org/2000/svg" xmlns:xlink="http://www.w3.org/1999/xlink" fill="none" version="1.1" width="24" height="24" viewBox="0 0 24 24"><defs><clipPath id="master_svg0_57_3573"><rect x="5.25" y="5.25" width="13.5" height="13.5" rx="0"/></clipPath><clipPath id="master_svg1_57_3562"><rect x="4" y="4" width="16" height="16" rx="0"/></clipPath></defs><g><g><g><g><rect x="0" y="0" width="24" height="24" rx="4" fill="#F4FAE5" fill-opacity="1"/></g><g clip-path="url(#master_svg0_57_3573)"><g><path d="M13.000004765319824,14.946752218933106L9.000704765319824,12.280558218933106L9.468732765319825,11.578516244933105L13.000004765319824,13.932692218933106L13.000004765319824,13.464782218933106Q13.000004765319824,13.000042218933105,13.676554765319825,13.000042218933105L17.323454765319823,13.000042218933105Q18.000004765319822,13.000042218933105,18.000004765319822,13.464782218933106L18.000004765319822,16.535302218933104Q18.000004765319822,17.000042218933103,17.323454765319823,17.000042218933103L13.676554765319825,17.000042218933103Q13.000004765319824,17.000042218933103,13.000004765319824,16.535302218933104L13.000004765319824,14.946752218933106Z" fill-rule="evenodd" fill="#10B981" fill-opacity="1"/></g><g><path d="M18.064999999999998,6.9375L14.37251,6.9375Q13.6875,6.9375,13.6875,7.427657L13.6875,8.59528L10.3125,10.845279999999999L10.3125,10.38078Q10.3125,9.89062,9.62749,9.89062L5.935006,9.89062Q5.25,9.89062,5.25,10.38078L5.25,13.61922Q5.25,14.10938,5.935006,14.10938L9.62749,14.10938Q10.3125,14.10938,10.3125,13.61922L10.3125,11.85934L13.6875,9.60934L13.6875,10.66609Q13.6875,11.15625,14.37251,11.15625L18.064999999999998,11.15625Q18.75,11.15625,18.75,10.66609L18.75,7.427657Q18.75,6.9375,18.064999999999998,6.9375Z" fill-rule="evenodd" fill="#9FDB1D" fill-opacity="1"/></g></g></g><g><g><g><rect x="0" y="0" width="24" height="24" rx="4" fill="#F6E7FF" fill-opacity="1"/></g></g><g clip-path="url(#master_svg1_57_3562)"><g><g><path d="M12.288858790817262,9.90504606798172L12.28889879081726,9.93401606798172C12.28892879081726,9.68052606798172,12.464058790817262,9.46716606798172,12.696438790817261,9.43751606798172L12.75043879081726,9.43401606798172L15.10889879081726,9.43401606798172L15.10889879081726,6.53901606798172L15.57043879081726,6.53901606798172L15.57043879081726,9.43401606798172C15.57064879081726,9.68768606798172,15.39545879081726,9.90132606798172,15.16290879081726,9.93101606798172L15.10936879081726,9.93401606798172L12.75043879081726,9.93401606798172L12.736118790817262,9.90504606798172L12.69644879081726,9.90504606798172L12.288858790817262,9.90504606798172ZM7.197668790817261,16.36700606798172L7.197668790817261,14.56600606798172C7.197492727817261,14.31215606798172,7.372929790817261,14.09845606798172,7.605668790817261,14.06900606798172L7.659207790817261,14.06600606798172L12.274598790817262,14.06600606798172L12.274568790817261,14.05451606798172L12.736118790817262,14.05451606798172L12.69644879081726,14.00092606798172C12.696418790817262,14.254416067981719,12.560978790817261,14.532846067981719,12.32859879081726,14.56250606798172L12.274598790817262,14.56600606798172L7.659207790817261,14.56600606798172L7.659207790817261,16.36700606798172L7.197668790817261,16.36700606798172Z" fill="#854AFF" fill-opacity="1" style="mix-blend-mode:passthrough"/></g><g transform="matrix(0.7899243831634521,0.6132042407989502,-0.4849090278148651,0.874564528465271,7.402820524732306,-5.428059358069731)"><path d="M11,10.50091552734375L15.21573,10.50091552734375L15.21573,11.03188152734375L11,11.03188152734375L11,10.50091552734375Z" fill-rule="evenodd" fill="#E0AAFF" fill-opacity="1"/></g><g transform="matrix(-0.7899244427680969,0.613204300403595,0.4849090278148651,0.8745645880699158,19.966953459223078,-7.267673540834949)"><path d="M14,10.50091552734375L18.21573,10.50091552734375L18.21573,11.03188152734375L14,11.03188152734375L14,10.50091552734375Z" fill-rule="evenodd" fill="#E0AAFF" fill-opacity="1"/></g><g><path d="M13.699312560272217,6L15.692302560272218,6L17.685302560272216,6Q18.000002560272215,6,18.000002560272215,6.409053L17.999972560272216,7.59094Q17.999972560272216,8,17.685272560272217,8L13.699309560272217,8Q13.384609997272216,8,13.384612560272217,7.59094L13.384612560272217,6.409053Q13.384612560272217,6,13.699312560272217,6Z" fill="#854AFF" fill-opacity="1" style="mix-blend-mode:passthrough"/></g><g><path d="M6.314697,16.000004768371582L10.30066,16.000004768371582Q10.615359999999999,16.000004768371582,10.615359999999999,16.409062768371584L10.61539,17.590944768371582Q10.61539,18.000004768371582,10.30069,18.000004768371582L6.3147,18.000004768371582Q6,18.000004768371582,6,17.590944768371582L6,16.409062768371584Q6,16.000009179111583,6.314697,16.000004768371582Z" fill="#854AFF" fill-opacity="1" style="mix-blend-mode:passthrough"/></g><g><path d="M12.71537,9.55522212734375L16.88098,11.80182552734375C16.9543,11.841315527343749,17,11.91776552734375,17,12.00091552734375C17,12.08406552734375,16.9543,12.160515527343751,16.88098,12.20001552734375L12.71537,14.44661552734375C12.580960000000001,14.51901552734375,12.41905,14.51901552734375,12.28464,14.44661552734375L8.119025,12.20000552734375C8.0457042,12.160515527343751,8,12.08406552734375,8,12.00091552734375C8,11.91776552734375,8.0457042,11.841315527343749,8.119025,11.80181552734375L12.28464,9.55522042734375C12.41905,9.48281392734375,12.580960000000001,9.48281392734375,12.71537,9.55522212734375ZM8.803195,12.00091552734375L12.5,10.00715252734375L16.19681,12.00091552734375L12.5,13.99467552734375L8.803195,12.00091552734375Z" fill-rule="evenodd" fill="#854AFF" fill-opacity="1"/></g></g></g></g></g></g></svg>