<svg xmlns="http://www.w3.org/2000/svg" xmlns:xlink="http://www.w3.org/1999/xlink" fill="none" version="1.1" width="24" height="24" viewBox="0 0 24 24"><defs><clipPath id="master_svg0_57_3624"><rect x="3.2727274894714355" y="3.2727274894714355" width="17.454545974731445" height="17.454545974731445" rx="0"/></clipPath></defs><g><g><g><rect x="0" y="0" width="24" height="24" rx="4" fill="#F4FAE5" fill-opacity="1"/></g><g clip-path="url(#master_svg0_57_3624)"><g><path d="M12.578209969940186,17.130590223846436L17.037619969940188,11.563200223846435C17.404319969940186,11.105360223846436,17.078419969940185,10.426780223846436,16.492189969940185,10.426780223846436L7.5729819699401855,10.426780223846436C6.986447969940185,10.426780223846436,6.660538969940186,11.105360223846436,7.027526969940186,11.563200223846435L11.486789969940187,17.130590223846436C11.766559969940186,17.480280223846435,12.298439969940185,17.480280223846435,12.578209969940186,17.130590223846436Z" fill="#12BD4E" fill-opacity="1"/></g><g><path d="M10.126967788299561,6.4184184074401855L13.93815878829956,6.4184184074401855Q14.90906878829956,6.4184184074401855,14.90906878829956,7.389327407440185L14.90906878829956,11.200518407440185Q14.90906878829956,12.171428407440185,13.93815878829956,12.171428407440185L10.126967788299561,12.171428407440185Q9.15605878829956,12.171428407440185,9.15605878829956,11.200518407440185L9.15605878829956,7.389327407440185Q9.15605878829956,6.4184184074401855,10.126967788299561,6.4184184074401855Z" fill="#55E48B" fill-opacity="1"/></g><g><path d="M14.90906878829956,11.200132223846435L14.90906878829956,10.426780223846436L9.15605878829956,10.426780223846436L9.15605878829956,11.200132223846435C9.15605945413756,11.736730223846436,9.59105578829956,12.171720223846435,10.12764978829956,12.171720223846435L13.93798878829956,12.171720223846435C14.47438878829956,12.171440223846435,14.90906878829956,11.736530223846435,14.90906878829956,11.200132223846435Z" fill="#06A124" fill-opacity="1"/></g></g></g></g></svg>