<svg width="24" height="24" viewBox="0 0 24 24" fill="none" xmlns="http://www.w3.org/2000/svg">
<path d="M0 4C0 1.79086 1.79086 0 4 0H20C22.2091 0 24 1.79086 24 4V20C24 22.2091 22.2091 24 20 24H4C1.79086 24 0 22.2091 0 20V4Z" fill="#FAD000"/>
<path d="M17.5152 18.5H6.48489C5.50792 18.5 4.71216 17.7042 4.71216 16.7273V14.3085C4.71216 13.9855 4.98004 13.7176 5.30307 13.7176C5.6261 13.7176 5.89398 13.9855 5.89398 14.3085V16.7273C5.89398 17.0503 6.16185 17.3182 6.48489 17.3182H17.5152C17.8382 17.3182 18.1061 17.0503 18.1061 16.7273V14.2848C18.1061 13.9618 18.374 13.6939 18.697 13.6939C19.02 13.6939 19.2879 13.9618 19.2879 14.2848V16.7273C19.2879 17.7042 18.4922 18.5 17.5152 18.5ZM18.697 10.117C18.374 10.117 18.1061 9.84909 18.1061 9.52606V7.27273C18.1061 6.9497 17.8382 6.68182 17.5152 6.68182H6.48489C6.16185 6.68182 5.89398 6.9497 5.89398 7.27273V9.44727C5.89398 9.7703 5.6261 10.0382 5.30307 10.0382C4.98004 10.0382 4.71216 9.7703 4.71216 9.44727V7.27273C4.71216 6.29576 5.50792 5.5 6.48489 5.5H17.5152C18.4922 5.5 19.2879 6.29576 19.2879 7.27273V9.52606C19.2879 9.84909 19.02 10.117 18.697 10.117Z" fill="white"/>
<path d="M12 15.5455C11.677 15.5455 11.4091 15.2776 11.4091 14.9545V9.04545C11.4091 8.72242 11.677 8.45455 12 8.45455C12.3231 8.45455 12.5909 8.72242 12.5909 9.04545V14.9545C12.5909 15.2776 12.3231 15.5455 12 15.5455ZM9.6364 14.3636C9.31337 14.3636 9.04549 14.0958 9.04549 13.7727V10.2273C9.04549 9.90424 9.31337 9.63636 9.6364 9.63636C9.95943 9.63636 10.2273 9.90424 10.2273 10.2273V13.7727C10.2273 14.0958 9.95943 14.3636 9.6364 14.3636ZM7.27276 13.1818C6.94973 13.1818 6.68185 12.9139 6.68185 12.5909V11.4091C6.68185 11.0861 6.94973 10.8182 7.27276 10.8182C7.59579 10.8182 7.86367 11.0861 7.86367 11.4091V12.5909C7.86367 12.9139 7.59579 13.1818 7.27276 13.1818ZM14.3716 14.3636C14.6946 14.3636 14.9625 14.0958 14.9625 13.7727V10.2273C14.9625 9.90424 14.6946 9.63636 14.3716 9.63636C14.0485 9.63636 13.7806 9.90424 13.7806 10.2273V13.7727C13.7806 14.0958 14.0406 14.3636 14.3716 14.3636ZM16.7352 13.1818C17.0582 13.1818 17.3261 12.9139 17.3261 12.5909V11.4091C17.3261 11.0861 17.0582 10.8182 16.7352 10.8182C16.4122 10.8182 16.1443 11.0861 16.1443 11.4091V12.5909C16.1443 12.9139 16.4043 13.1818 16.7352 13.1818Z" fill="white"/>
</svg>
