<svg width="24" height="24" viewBox="0 0 24 24" fill="none" xmlns="http://www.w3.org/2000/svg">
<path d="M0 4C0 1.79086 1.79086 0 4 0H20C22.2091 0 24 1.79086 24 4V20C24 22.2091 22.2091 24 20 24H4C1.79086 24 0 22.2091 0 20V4Z" fill="#FF6966"/>
<path d="M15.6967 9.89548L18.6995 6.89264C18.9015 6.68276 19.0144 6.40279 19.0144 6.11149C19.0144 5.8202 18.9015 5.54023 18.6995 5.33035C18.4959 5.12338 18.219 5.00478 17.9287 5.00014C17.6384 4.9955 17.3579 5.1052 17.1478 5.30555L14.1449 8.33921H14.0344C13.4982 7.97995 12.8549 7.81532 12.212 7.87275C11.5691 7.93018 10.9652 8.2062 10.5011 8.65482C10.4869 8.67045 10.479 8.69081 10.479 8.71193C10.479 8.73305 10.4869 8.75341 10.5011 8.76904L15.2759 13.5799C15.3082 13.61 15.3585 13.61 15.3908 13.5799C15.8416 13.1034 16.1157 12.487 16.1677 11.8332C16.2196 11.1793 16.0463 10.5273 15.6764 9.98566C15.6739 9.94738 15.6739 9.90897 15.6764 9.87069L15.6967 9.89548ZM7.65228 7.45323C7.65496 7.65415 7.72054 7.84917 7.83981 8.01088C7.95907 8.17259 8.12602 8.29285 8.31718 8.35476C8.50834 8.41667 8.71409 8.41712 8.90551 8.35603C9.09693 8.29494 9.2644 8.1754 9.38436 8.0142C9.50431 7.853 9.57074 7.65827 9.57428 7.45737C9.57783 7.25646 9.51832 7.0595 9.40413 6.89417C9.28993 6.72884 9.12679 6.60346 8.93765 6.53566C8.7485 6.46785 8.54286 6.46103 8.34963 6.51616C7.93257 6.63489 7.64702 7.01889 7.65228 7.45323ZM13.4137 18.0338C13.4144 18.1909 13.446 18.3464 13.5067 18.4913C13.5674 18.6362 13.656 18.7677 13.7676 18.8783C13.8791 18.989 14.0114 19.0765 14.1568 19.1361C14.3022 19.1956 14.4578 19.2259 14.615 19.2253C14.7721 19.2246 14.9275 19.193 15.0724 19.1323C15.2173 19.0716 15.3488 18.983 15.4595 18.8714C15.5701 18.7599 15.6577 18.6276 15.7172 18.4822C15.7767 18.3369 15.807 18.1812 15.8064 18.0241C15.805 17.7068 15.6776 17.403 15.4523 17.1797C15.2269 16.9563 14.9221 16.8316 14.6048 16.833C14.2875 16.8344 13.9838 16.9618 13.7604 17.1871C13.537 17.4124 13.4123 17.7173 13.4137 18.0346V18.0338ZM16.0664 16.7684C16.0611 16.8552 16.0732 16.9422 16.1018 17.0244C16.1305 17.1065 16.1752 17.1822 16.2334 17.2469C16.2916 17.3116 16.362 17.3641 16.4407 17.4013C16.5193 17.4385 16.6046 17.4597 16.6915 17.4636C16.7785 17.4675 16.8653 17.4541 16.947 17.4242C17.0287 17.3943 17.1036 17.3484 17.1674 17.2892C17.2312 17.23 17.2826 17.1587 17.3185 17.0795C17.3545 17.0003 17.3744 16.9147 17.377 16.8277C17.3785 16.6579 17.3142 16.4941 17.1975 16.3707C17.0807 16.2473 16.9207 16.1741 16.751 16.1663C16.5814 16.1585 16.4153 16.2168 16.2878 16.3289C16.1602 16.4411 16.0811 16.5983 16.0672 16.7676L16.0664 16.7684ZM9.62562 9.53027L14.3906 14.3254C14.4044 14.3442 14.4118 14.367 14.4118 14.3904C14.4118 14.4137 14.4044 14.4365 14.3906 14.4554C13.385 16.1404 12.7375 18.0148 12.4887 19.9613C12.4953 19.9644 12.5008 19.9694 12.5044 19.9758C12.5081 19.9821 12.5097 19.9894 12.509 19.9966C12.5043 19.9989 12.4991 20 12.4939 20C12.4888 20 12.4836 19.9989 12.4789 19.9966L10.861 18.9957C10.8558 18.9894 10.8529 18.9814 10.8529 18.9732C10.8529 18.9649 10.8558 18.9569 10.861 18.9506C11.0113 18.6305 12.4676 15.5615 12.3181 15.7118C11.6223 16.4426 10.9813 17.2237 10.4004 18.0489L9.96453 18.65C9.14175 18.122 8.38275 17.5007 7.70263 16.7984V16.7684C8.0483 16.3423 9.85031 13.9902 9.85031 13.9902L6.78659 15.8373C6.7811 15.8422 6.77402 15.8448 6.76668 15.8448C6.75934 15.8448 6.75226 15.8422 6.74677 15.8373C6.21166 15.2597 5.72129 14.6422 5.27991 13.9902C5.92801 13.4457 6.57377 12.8983 7.21718 12.3483L4.90493 13.1448C4.89899 13.149 4.8919 13.1512 4.88464 13.1512C4.87738 13.1512 4.8703 13.149 4.86435 13.1448L3.99867 11.4863C3.99464 11.4836 3.99134 11.4799 3.98906 11.4755C3.98679 11.4712 3.9856 11.4664 3.9856 11.4615C3.9856 11.4566 3.98679 11.4518 3.98906 11.4475C3.99134 11.4432 3.99464 11.4395 3.99867 11.4367C4.43452 11.3714 7.83789 10.6605 9.50463 9.51449C9.52308 9.49754 9.54721 9.48813 9.57226 9.48813C9.59731 9.48813 9.62145 9.49754 9.6399 9.51449L9.62487 9.52952L9.62562 9.53027Z" fill="white"/>
</svg>
