<?xml version="1.0" encoding="UTF-8"?>
<svg width="20px" height="20px" viewBox="0 0 20 20" version="1.1" xmlns="http://www.w3.org/2000/svg" xmlns:xlink="http://www.w3.org/1999/xlink">
    <title>4.数据展示/缩略图/代码</title>
    <g id="4.数据展示/缩略图/代码" stroke="none" stroke-width="1" fill="none" fill-rule="evenodd">
        <g id="编组">
            <path d="M6.41,0 L13.59,0 C15.82,0 16.627,0.232 17.442,0.668 C18.2473804,1.09407322 18.9059268,1.75261963 19.332,2.558 C19.768,3.373 20,4.181 20,6.41 L20,13.59 C20,15.82 19.768,16.627 19.332,17.442 C18.9059268,18.2473804 18.2473804,18.9059268 17.442,19.332 C16.627,19.768 15.819,20 13.59,20 L6.41,20 C4.18,20 3.373,19.768 2.558,19.332 C1.75261963,18.9059268 1.09407322,18.2473804 0.668,17.442 C0.232,16.627 0,15.82 0,13.59 L0,6.41 C0,4.18 0.232,3.373 0.668,2.558 C1.09407322,1.75261963 1.75261963,1.09407322 2.558,0.668 C3.373,0.232 4.18,0 6.41,0" id="路径" fill="#FF9326" fill-rule="nonzero"></path>
            <g transform="translate(4.375000, 5.625000)">
                <rect id="矩形" fill="#FFFFFF" fill-rule="nonzero" x="0" y="0" width="11.25" height="8.75" rx="1.5"></rect>
                <path d="M2.625,2.917 L4.375,4.375 L2.625,5.833 M5.375,6.319 L8.625,6.319" id="形状" stroke="#FF9326" stroke-linecap="round" stroke-linejoin="round"></path>
            </g>
        </g>
    </g>
</svg>