<svg width="20" height="20" viewBox="0 0 20 20" fill="none" xmlns="http://www.w3.org/2000/svg">
<path d="M0 4C0 1.79086 1.79086 0 4 0H16C18.2091 0 20 1.79086 20 4V16C20 18.2091 18.2091 20 16 20H4C1.79086 20 0 18.2091 0 16V4Z" fill="#4073F5"/>
<ellipse opacity="0.4" cx="10" cy="6.02094" rx="6" ry="2.02094" fill="white"/>
<path d="M4 12.0838C4 12.8772 5.35778 13.5632 7.33333 13.8939V14.4415C7.33333 15.0391 7.5537 15.5845 7.91634 16C5.62979 15.7148 4 14.9741 4 14.1047V12.0838ZM4 9.05235C4 9.91347 5.59909 10.648 7.85156 10.9391C7.52752 11.344 7.33333 11.8593 7.33333 12.4206V12.8834C5.35778 12.5527 4 11.8668 4 11.0733V9.05235ZM16 10.7707C15.7292 10.4914 15.3901 10.28 15.0101 10.1638C15.6355 9.84478 16 9.46326 16 9.05235V10.7707ZM16 8.04188C16 9.15801 13.3137 10.0628 10 10.0628C6.68629 10.0628 4 9.15801 4 8.04188V6.02094C4 7.13707 6.68629 8.04188 10 8.04188C13.3137 8.04188 16 7.13707 16 6.02094V8.04188Z" fill="white"/>
<path d="M14.3333 11.0733C15.0697 11.0733 15.6667 11.6765 15.6667 12.4206V14.4415C15.6667 15.1856 15.0697 15.7888 14.3333 15.7888H9.66667C8.93029 15.7888 8.33333 15.1856 8.33333 14.4415V12.4206C8.33333 11.6765 8.93029 11.0733 9.66667 11.0733H14.3333ZM13.3535 12.0634C13.1583 11.8661 12.8417 11.8661 12.6465 12.0634C12.4512 12.2607 12.4512 12.5805 12.6465 12.7778L12.793 12.9258H10C9.72386 12.9258 9.5 13.152 9.5 13.4311C9.5 13.7101 9.72386 13.9363 10 13.9363H12.793L12.6465 14.0843C12.4512 14.2816 12.4512 14.6014 12.6465 14.7987C12.8417 14.996 13.1583 14.996 13.3535 14.7987L14.3535 13.7883C14.5488 13.591 14.5488 13.2711 14.3535 13.0738L13.3535 12.0634Z" fill="white"/>
</svg>
