<svg width="24" height="24" viewBox="0 0 24 24" fill="none" xmlns="http://www.w3.org/2000/svg">
<path d="M0 4C0 1.79086 1.79086 0 4 0H20C22.2091 0 24 1.79086 24 4V20C24 22.2091 22.2091 24 20 24H4C1.79086 24 0 22.2091 0 20V4Z" fill="#8F5CFF"/>
<path d="M9.01794 5H17.6188C18.0002 5 18.3258 5.13485 18.5954 5.40456C18.8651 5.6742 19 5.99971 19 6.38117V15.1704C19 15.5171 18.7189 15.7982 18.3722 15.7982C18.0255 15.7982 17.7444 15.5171 17.7444 15.1704V6.38117C17.7444 6.29748 17.7025 6.25561 17.6188 6.25561H9.01794C8.6712 6.25561 8.39013 5.97454 8.39013 5.6278C8.39013 5.28107 8.6712 5 9.01794 5ZM5.75336 7.07175H16.1121C16.5282 7.07175 16.8655 7.40907 16.8655 7.82511V18.2466C16.8655 18.6627 16.5282 19 16.1121 19H5.75336C5.33732 19 5 18.6627 5 18.2466V7.82511C5 7.40907 5.33732 7.07175 5.75336 7.07175ZM14.009 11.0897C13.8425 11.0897 13.6828 11.1558 13.565 11.2736L11.3408 13.4978L10.147 12.304C9.99995 12.157 9.8224 12.0834 9.61435 12.0834C9.4063 12.0834 9.22875 12.157 9.08166 12.304L7.44397 13.9417C7.32624 14.0595 7.26009 14.2191 7.26009 14.3857C7.18702 14.4587 7.13308 14.5486 7.10306 14.6474C7.07304 14.7462 7.06786 14.8509 7.08799 14.9522C7.10812 15.0535 7.15292 15.1483 7.21844 15.2282C7.28396 15.308 7.36816 15.3705 7.46359 15.41C7.55901 15.4495 7.66272 15.4649 7.76551 15.4548C7.8683 15.4446 7.967 15.4093 8.05287 15.3519C8.13874 15.2945 8.20912 15.2168 8.25778 15.1257C8.30643 15.0346 8.33186 14.9329 8.33181 14.8296L9.61435 13.547L10.8081 14.7408C10.9552 14.8879 11.1328 14.9615 11.3408 14.9615C11.5489 14.9615 11.7264 14.8879 11.8735 14.7408L14.4529 12.1614C14.5407 12.0736 14.6004 11.9617 14.6246 11.84C14.6488 11.7182 14.6364 11.592 14.5889 11.4773C14.5414 11.3626 14.4609 11.2645 14.3577 11.1955C14.2545 11.1266 14.1331 11.0897 14.009 11.0897Z" fill="white"/>
</svg>
