<?xml version="1.0" encoding="UTF-8"?>
<svg width="20px" height="20px" viewBox="0 0 20 20" version="1.1" xmlns="http://www.w3.org/2000/svg" xmlns:xlink="http://www.w3.org/1999/xlink">
    <title>4.数据展示/缩略图/API</title>
    <g id="4.数据展示/缩略图/API" stroke="none" stroke-width="1" fill="none" fill-rule="evenodd">
        <g id="编组" fill-rule="nonzero">
            <path d="M6.41,0 L13.59,0 C15.82,0 16.627,0.232 17.442,0.668 C18.2473804,1.09407322 18.9059268,1.75261963 19.332,2.558 C19.768,3.373 20,4.181 20,6.41 L20,13.59 C20,15.82 19.768,16.627 19.332,17.442 C18.9059268,18.2473804 18.2473804,18.9059268 17.442,19.332 C16.627,19.768 15.819,20 13.59,20 L6.41,20 C4.18,20 3.373,19.768 2.558,19.332 C1.75261963,18.9059268 1.09407322,18.2473804 0.668,17.442 C0.232,16.627 0,15.82 0,13.59 L0,6.41 C0,4.18 0.232,3.373 0.668,2.558 C1.09407322,1.75261963 1.75261963,1.09407322 2.558,0.668 C3.373,0.232 4.18,0 6.41,0" id="路径" fill="#00BFBF"></path>
            <path d="M8.905,8.598 C8.92564649,8.57723715 8.95371906,8.56556288 8.983,8.56556288 C9.01228094,8.56556288 9.04035351,8.57723715 9.061,8.598 L9.563,9.1 C9.58376285,9.12064649 9.59543712,9.14871906 9.59543712,9.178 C9.59543712,9.20728094 9.58376285,9.23535351 9.563,9.256 L8.643,10.176 L9.889,11.422 L10.807,10.503 C10.8276465,10.4822372 10.8557191,10.4705629 10.885,10.4705629 C10.9142809,10.4705629 10.9423535,10.4822372 10.963,10.503 L11.468,11.003 C11.5105834,11.0458924 11.5105834,11.1151076 11.468,11.158 L10.548,12.078 L11.141,12.671 C11.1617628,12.6916465 11.1734371,12.7197191 11.1734371,12.749 C11.1734371,12.7782809 11.1617628,12.8063535 11.141,12.827 L9.736,14.232 C9.21886729,14.7504889 8.51629449,15.0413079 7.784,15.04 C7.244,15.04 6.703,14.883 6.238,14.567 L5.188,15.617 C5.17929438,15.6254293 5.16912918,15.6322061 5.158,15.637 L5.148,15.65 C5.0161538,15.7812923 4.82401952,15.831784 4.6446598,15.7822747 C4.46530007,15.7327654 4.32627324,15.5908621 4.28044684,15.4105263 C4.23462044,15.2301904 4.28903562,15.0391303 4.423,14.91 L4.446,14.876 L5.496,13.826 C4.75675914,12.7309814 4.89721228,11.2656568 5.831,10.331 L7.235,8.925 C7.25653024,8.90502545 7.28463805,8.89364001 7.314,8.893 C7.34533333,8.893 7.37133333,8.90366667 7.392,8.925 L7.985,9.518 L8.905,8.598 Z M14.928,4.407 C15.1403428,4.2305691 15.4537414,4.2516759 15.6405094,4.45498615 C15.8272773,4.6582964 15.821775,4.97235677 15.628,5.169 L15.662,5.129 C15.6571345,5.14531267 15.6481853,5.16011326 15.636,5.172 L14.586,6.222 C15.3257983,7.31722807 15.185324,8.78319269 14.251,9.718 L12.846,11.124 C12.8243215,11.1436108 12.7962302,11.154634 12.767,11.155 C12.7373704,11.156907 12.7084254,11.1455489 12.688,11.124 L8.941,7.376 C8.89841663,7.33310757 8.89841663,7.26389243 8.941,7.221 L10.347,5.815 C10.8638882,5.29675715 11.5660519,5.00595844 12.298,5.007 C12.8490859,5.00619973 13.387701,5.17098946 13.844,5.48 L14.894,4.43 L14.917,4.413 L14.928,4.407 Z" id="形状" fill="#FFFFFF"></path>
        </g>
    </g>
</svg>