<?xml version="1.0" encoding="UTF-8"?>
<svg width="20px" height="20px" viewBox="0 0 20 20" version="1.1" xmlns="http://www.w3.org/2000/svg" xmlns:xlink="http://www.w3.org/1999/xlink">
    <title>4.数据展示/缩略图/分支器</title>
    <g id="4.数据展示/缩略图/分支器" stroke="none" stroke-width="1" fill="none" fill-rule="evenodd">
        <g id="编组" fill-rule="nonzero">
            <path d="M6.41,0 L13.59,0 C15.82,0 16.627,0.232 17.442,0.668 C18.2473804,1.09407322 18.9059268,1.75261963 19.332,2.558 C19.768,3.373 20,4.181 20,6.41 L20,13.59 C20,15.82 19.768,16.627 19.332,17.442 C18.9059268,18.2473804 18.2473804,18.9059268 17.442,19.332 C16.627,19.768 15.819,20 13.59,20 L6.41,20 C4.18,20 3.373,19.768 2.558,19.332 C1.75261963,18.9059268 1.09407322,18.2473804 0.668,17.442 C0.232,16.627 0,15.82 0,13.59 L0,6.41 C0,4.18 0.232,3.373 0.668,2.558 C1.09407322,1.75261963 1.75261963,1.09407322 2.558,0.668 C3.373,0.232 4.18,0 6.41,0" id="路径" fill="#FF9326"></path>
            <path d="M4.59,5 L7.277,5.086 C7.54766667,5.09266667 7.731,5.17033333 7.827,5.319 C7.925,5.46566667 7.89666667,5.63233333 7.742,5.819 L7.208,6.451 L7.226,6.463 C7.43266667,6.58966667 7.64366667,6.73733333 7.859,6.906 L8.075,7.082 C8.365,7.326 8.64066667,7.58766667 8.902,7.867 C9.162,8.14566667 9.38833333,8.423 9.581,8.699 C9.77233333,8.97566667 9.90766667,9.22966667 9.987,9.461 L10.011,9.461 C10.091,9.22966667 10.2266667,8.97566667 10.418,8.699 C10.6093333,8.423 10.835,8.146 11.095,7.868 C11.355,7.59 11.6306667,7.32833333 11.922,7.083 C12.2133333,6.83766667 12.4966667,6.631 12.772,6.463 L12.799,6.446 L12.248,5.744 C12.12,5.582 12.085,5.43633333 12.143,5.307 L12.179,5.244 C12.283,5.1 12.4686667,5.028 12.736,5.028 L15.426,5.023 C15.642,5.023 15.802,5.08966667 15.906,5.223 C16.0086667,5.355 16.0273333,5.51566667 15.962,5.705 L15.128,8.068 C15.0466667,8.30266667 14.915,8.44466667 14.733,8.494 C14.5516667,8.544 14.3863333,8.47166667 14.237,8.277 L13.655,7.536 L13.525,7.613 C13.2643036,7.76990583 13.0159204,7.94641503 12.782,8.141 L12.587,8.306 C12.2564942,8.59598563 11.9504577,8.91272503 11.672,9.253 C11.4031517,9.57694899 11.1716894,9.93018052 10.982,10.306 C10.8053333,10.662 10.717,10.998 10.717,11.314 L10.717,14.259 C10.717,14.753 10.4776667,15 9.999,15 C9.523,15 9.28466667,14.7533333 9.284,14.26 L9.284,11.314 C9.284,10.998 9.19466667,10.662 9.016,10.306 C8.82432781,9.9304104 8.59157022,9.5772494 8.322,9.253 C8.04386073,8.91276524 7.73815981,8.59602697 7.408,8.306 C7.11838332,8.04664557 6.80538144,7.81465594 6.473,7.613 L6.312,7.517 L5.662,8.291 C5.526,8.451 5.383,8.52233333 5.233,8.505 L5.158,8.489 C4.98,8.43366667 4.85433333,8.287 4.781,8.049 L4.033,5.667 C3.97166667,5.47566667 3.995,5.315 4.103,5.185 C4.21166667,5.055 4.374,4.99366667 4.59,5.001" id="路径" fill="#FFFFFF"></path>
        </g>
    </g>
</svg>