<svg width="24" height="24" viewBox="0 0 24 24" fill="none" xmlns="http://www.w3.org/2000/svg">
<path d="M0 4C0 1.79086 1.79086 0 4 0H20C22.2091 0 24 1.79086 24 4V20C24 22.2091 22.2091 24 20 24H4C1.79086 24 0 22.2091 0 20V4Z" fill="#29CCC9"/>
<path d="M4.56006 15.8571C4.56006 15.7435 4.60944 15.6345 4.69735 15.5541C4.78526 15.4737 4.90449 15.4286 5.02881 15.4286H12.5288C12.6531 15.4286 12.7724 15.4737 12.8603 15.5541C12.9482 15.6345 12.9976 15.7435 12.9976 15.8571C12.9976 15.9708 12.9482 16.0798 12.8603 16.1602C12.7724 16.2406 12.6531 16.2857 12.5288 16.2857H5.02881C4.90449 16.2857 4.78526 16.2406 4.69735 16.1602C4.60944 16.0798 4.56006 15.9708 4.56006 15.8571ZM4.56006 17.5714C4.56006 17.5151 4.57218 17.4594 4.59574 17.4074C4.6193 17.3554 4.65382 17.3082 4.69735 17.2684C4.74088 17.2286 4.79255 17.197 4.84943 17.1755C4.9063 17.1539 4.96725 17.1429 5.02881 17.1429H16.2788C16.4031 17.1429 16.5224 17.188 16.6103 17.2684C16.6982 17.3488 16.7476 17.4578 16.7476 17.5714C16.7476 17.6851 16.6982 17.7941 16.6103 17.8745C16.5224 17.9548 16.4031 18 16.2788 18H5.02881C4.90449 18 4.78526 17.9548 4.69735 17.8745C4.60944 17.7941 4.56006 17.6851 4.56006 17.5714ZM5.49756 6C5.24892 6 5.01046 6.09031 4.83465 6.25105C4.65883 6.4118 4.56006 6.62981 4.56006 6.85714V13.7143C4.56006 13.9416 4.65883 14.1596 4.83465 14.3204C5.01046 14.4811 5.24892 14.5714 5.49756 14.5714H18.6226C18.8712 14.5714 19.1097 14.4811 19.2855 14.3204C19.4613 14.1596 19.5601 13.9416 19.5601 13.7143V6.85714C19.5601 6.62981 19.4613 6.4118 19.2855 6.25105C19.1097 6.09031 18.8712 6 18.6226 6H5.49756ZM18.6226 8.14286C18.6226 8.48385 18.4744 8.81088 18.2107 9.05199C17.947 9.29311 17.5893 9.42857 17.2163 9.42857C16.8433 9.42857 16.4857 9.29311 16.2219 9.05199C15.9582 8.81088 15.8101 8.48385 15.8101 8.14286C15.8101 7.80186 15.9582 7.47484 16.2219 7.23372C16.4857 6.9926 16.8433 6.85714 17.2163 6.85714C17.5893 6.85714 17.947 6.9926 18.2107 7.23372C18.4744 7.47484 18.6226 7.80186 18.6226 8.14286ZM10.6454 13.692C10.5743 13.7069 10.5017 13.7144 10.4288 13.7143H7.12881C6.96385 13.7143 6.8018 13.6746 6.65902 13.599C6.51624 13.5235 6.39779 13.4149 6.31562 13.2841C6.23345 13.1533 6.19048 13.0051 6.19104 12.8542C6.1916 12.7034 6.23567 12.5554 6.31881 12.4251L7.96881 9.84086C8.0514 9.71157 8.1696 9.60431 8.31163 9.52977C8.45366 9.45523 8.61457 9.41601 8.77834 9.41601C8.94211 9.41601 9.10302 9.45523 9.24505 9.52977C9.38708 9.60431 9.50528 9.71157 9.58787 9.84086L10.6379 11.4874L12.1847 9.01714C12.2668 8.88604 12.3852 8.77709 12.5281 8.70131C12.671 8.62554 12.8333 8.58563 12.9985 8.58563C13.1637 8.58563 13.326 8.62554 13.4689 8.70131C13.6118 8.77709 13.7302 8.88604 13.8122 9.01714L15.9469 12.4329C16.0282 12.5632 16.0706 12.7108 16.0698 12.8609C16.0691 13.0109 16.0253 13.1582 15.9429 13.2879C15.8604 13.4176 15.7421 13.5253 15.5999 13.6001C15.4576 13.6749 15.2964 13.7143 15.1322 13.7143H10.8629C10.7879 13.7143 10.7147 13.7057 10.6454 13.692Z" fill="white"/>
</svg>
