<?xml version="1.0" encoding="UTF-8"?>
<svg width="20px" height="20px" viewBox="0 0 20 20" version="1.1" xmlns="http://www.w3.org/2000/svg" xmlns:xlink="http://www.w3.org/1999/xlink">
    <title>4.数据展示/缩略图/知识库</title>
    <g id="4.数据展示/缩略图/知识库" stroke="none" stroke-width="1" fill="none" fill-rule="evenodd">
        <g id="编组">
            <path d="M6.41,0 L13.59,0 C15.82,0 16.627,0.232 17.442,0.668 C18.2473804,1.09407322 18.9059268,1.75261963 19.332,2.558 C19.768,3.373 20,4.181 20,6.41 L20,13.59 C20,15.82 19.768,16.627 19.332,17.442 C18.9059268,18.2473804 18.2473804,18.9059268 17.442,19.332 C16.627,19.768 15.819,20 13.59,20 L6.41,20 C4.18,20 3.373,19.768 2.558,19.332 C1.75261963,18.9059268 1.09407322,18.2473804 0.668,17.442 C0.232,16.627 0,15.82 0,13.59 L0,6.41 C0,4.18 0.232,3.373 0.668,2.558 C1.09407322,1.75261963 1.75261963,1.09407322 2.558,0.668 C3.373,0.232 4.18,0 6.41,0" id="路径" fill="#7733FF" fill-rule="nonzero"></path>
            <path d="M5.5,4 L11.5,4 C12.3284271,4 13,4.67157288 13,5.5 L13,16 L5.5,16 C4.67157288,16 4,15.3284271 4,14.5 L4,5.5 C4,4.67157288 4.67157288,4 5.5,4 M14,8 L15,8 C15.5522847,8 16,8.44771525 16,9 L16,15 C16,15.5522847 15.5522847,16 15,16 L14,16 L14,8 Z" id="形状" fill="#FFFFFF" fill-rule="nonzero"></path>
            <path d="M6,6 L11,6 M6,8 L11,8 M6,10 L8,10" id="形状" stroke="#7733FF" stroke-linecap="round"></path>
        </g>
    </g>
</svg>