<svg width="20" height="20" viewBox="0 0 20 20" fill="none" xmlns="http://www.w3.org/2000/svg">
<path d="M0 4C0 1.79086 1.79086 0 4 0H16C18.2091 0 20 1.79086 20 4V16C20 18.2091 18.2091 20 16 20H4C1.79086 20 0 18.2091 0 16V4Z" fill="#2FCC9F"/>
<path d="M15.7126 3C16.4236 3 17 3.6268 17 4.4V6.5C17 7.2732 16.4236 7.9 15.7126 7.9H13.7816C13.0706 7.9 12.4943 7.2732 12.4943 6.5V5.975H11.6897V14.025H12.4943V13.5C12.4943 12.7268 13.0706 12.1 13.7816 12.1H15.7126C16.4236 12.1 17 12.7268 17 13.5V15.6C17 16.3732 16.4236 17 15.7126 17H13.7816C13.0706 17 12.4943 16.3732 12.4943 15.6V15.075H11.2069C10.9403 15.075 10.7241 14.8399 10.7241 14.55V10.525H9.91954V13.5C9.91954 14.2732 9.34317 14.9 8.63218 14.9H4.77012C4.05913 14.9 3.48276 14.2732 3.48276 13.5V11.7712C3.51937 11.8484 3.56182 11.9237 3.61131 11.9954C4.09136 12.6911 4.9995 12.8318 5.63914 12.3102L6.9265 11.2602C7.29146 10.9624 7.50571 10.495 7.50575 10C7.50571 9.50504 7.29172 9.03793 6.92681 8.74014L5.63914 7.69014C4.99944 7.16838 4.09167 7.30906 3.61162 8.00493C3.56225 8.07654 3.51937 8.15148 3.48276 8.22847V6.5C3.48276 5.7268 4.05913 5.1 4.77012 5.1H8.63218C9.34317 5.1 9.91954 5.7268 9.91954 6.5V9.475H10.7241V5.45L10.7267 5.39634C10.7514 5.1316 10.9569 4.925 11.2069 4.925H12.4943V4.4C12.4943 3.6268 13.0706 3 13.7816 3H15.7126Z" fill="white"/>
<path d="M4.38385 8.63486C4.54383 8.40295 4.84662 8.35597 5.0599 8.52993L6.34725 9.57993C6.46878 9.67908 6.54023 9.83477 6.54023 10C6.54023 10.1652 6.46878 10.3209 6.34725 10.4201L5.0599 11.4701C4.84662 11.644 4.54383 11.597 4.38385 11.3651C4.22389 11.1332 4.26708 10.8039 4.48033 10.6299L4.60888 10.525H3.48276C3.21614 10.525 3 10.2899 3 10C3 9.71005 3.21614 9.475 3.48276 9.475H4.60888L4.48033 9.37007C4.26708 9.19608 4.22389 8.8668 4.38385 8.63486Z" fill="white"/>
</svg>
