<svg width="25" height="24" viewBox="0 0 25 24" fill="none" xmlns="http://www.w3.org/2000/svg">
<path d="M0.357422 4C0.357422 1.79086 2.14828 0 4.35742 0H20.3574C22.5666 0 24.3574 1.79086 24.3574 4V20C24.3574 22.2091 22.5666 24 20.3574 24H4.35742C2.14828 24 0.357422 22.2091 0.357422 20V4Z" fill="#618EFF"/>
<path d="M17.4908 7H7.22409C6.19316 7 5.35742 7.83573 5.35742 8.86667V16.0222C5.35742 17.0532 6.19316 17.8889 7.22409 17.8889H17.4908C18.5217 17.8889 19.3574 17.0532 19.3574 16.0222V8.86667C19.3574 7.83573 18.5217 7 17.4908 7Z" fill="white"/>
<path d="M8.62402 10.6299L10.8018 12.4443L8.62402 14.2587M12.0462 14.8635H16.0907" stroke="#618EFF" stroke-width="1.49333" stroke-linecap="round" stroke-linejoin="round"/>
</svg>
