<svg width="20" height="20" viewBox="0 0 20 20" fill="none" xmlns="http://www.w3.org/2000/svg">
<path d="M0 4C0 1.79086 1.79086 0 4 0H16C18.2091 0 20 1.79086 20 4V16C20 18.2091 18.2091 20 16 20H4C1.79086 20 0 18.2091 0 16V4Z" fill="#F5A041"/>
<path d="M15.6667 4C16.403 4 17 4.63207 17 5.41176V14.5882C17 15.3679 16.403 16 15.6667 16H4.33333C3.59695 16 3 15.3679 3 14.5882V5.41176C3 4.63207 3.59695 4 4.33333 4H15.6667ZM9 13C8.72386 13 8.5 13.237 8.5 13.5294C8.5 13.8218 8.72386 14.0588 9 14.0588H14.8333C15.1095 14.0588 15.3333 13.8218 15.3333 13.5294C15.3333 13.237 15.1095 13 14.8333 13H9ZM10.0951 6.47059C9.56859 6.47059 9.20529 6.65924 8.89062 7.00931C8.49362 7.45108 8.45781 8.02167 8.45508 8.63994V9.17521C8.45781 9.79347 8.49362 10.3641 8.89062 10.8058C9.20529 11.1559 9.56859 11.3446 10.0951 11.3446C10.4278 11.3445 10.7001 11.2703 10.93 11.1222L11.1396 11.3556C11.2068 11.4303 11.3189 11.4303 11.3861 11.3556L11.6875 11.0202C11.751 10.9495 11.751 10.8376 11.6875 10.7669L11.4867 10.5435C11.7469 10.079 11.7347 9.50654 11.7347 8.9074C11.7347 8.18718 11.7529 7.51416 11.2992 7.00931C10.9845 6.65926 10.6215 6.47061 10.0951 6.47059ZM6.38086 6.47059C5.40055 6.47059 4.80729 7.11025 4.80729 7.98541C4.80731 8.396 4.90417 8.71921 5.10384 8.94807C5.29748 9.17022 5.58817 9.31143 5.9694 9.37201L6.48958 9.45301C6.62876 9.47321 6.71963 9.52029 6.77409 9.58088C6.83456 9.65492 6.85872 9.7491 6.85872 9.86351C6.85872 10.1395 6.65907 10.2943 6.24154 10.2943C5.95915 10.2943 5.6444 10.2355 5.41667 10.0776C5.33535 10.0212 5.22342 10.0201 5.15625 10.0948L4.71387 10.587C4.65104 10.6569 4.64976 10.7681 4.71712 10.8331C5.13148 11.2321 5.63321 11.3446 6.23568 11.3446C7.14329 11.3445 7.89971 10.8127 7.89974 9.83663C7.89974 9.39232 7.80873 9.0355 7.57878 8.78642C7.39724 8.5845 7.11899 8.44995 6.73177 8.38936L6.21126 8.30836C6.06003 8.28816 5.96917 8.22763 5.91471 8.16705C5.84819 8.09301 5.83008 8.00531 5.83008 7.94474C5.83015 7.73608 5.98154 7.50046 6.35059 7.50046C6.50823 7.50046 6.7855 7.48626 7.03158 7.66142C7.11226 7.71886 7.22319 7.72098 7.29036 7.64625L7.7194 7.16923C7.78284 7.09853 7.78328 6.98609 7.71387 6.9221C7.3647 6.60025 6.93347 6.4706 6.38086 6.47059ZM12.6357 6.51091C12.5415 6.51092 12.4652 6.59274 12.4652 6.69359V11.1216C12.4652 11.2224 12.5415 11.3042 12.6357 11.3042H15.1628C15.257 11.3041 15.3333 11.2223 15.3333 11.1216V10.4367C15.3333 10.3359 15.257 10.2541 15.1628 10.254H13.6094C13.5622 10.254 13.5241 10.2131 13.5241 10.1627V6.69359C13.5241 6.59274 13.4475 6.51091 13.3532 6.51091H12.6357ZM10.0951 7.5208C10.2886 7.52083 10.4399 7.61494 10.5186 7.72932C10.6154 7.87068 10.6758 8.03238 10.6758 8.9074C10.6758 9.23047 10.6638 9.45276 10.6517 9.61432L10.569 9.52229C10.5019 9.44767 10.3901 9.44769 10.3229 9.52229L10.0212 9.858C9.95761 9.92869 9.95761 10.0406 10.0212 10.1113L10.1797 10.2875C10.1495 10.2942 10.1253 10.2943 10.0951 10.2943C9.90141 10.2943 9.74989 10.1934 9.67122 10.0789C9.57443 9.93758 9.514 9.78242 9.514 8.9074C9.514 8.03238 9.57441 7.87068 9.67122 7.72932C9.7499 7.61489 9.90142 7.5208 10.0951 7.5208Z" fill="white"/>
</svg>
