<?xml version="1.0" encoding="UTF-8"?>
<svg width="20px" height="20px" viewBox="0 0 20 20" version="1.1" xmlns="http://www.w3.org/2000/svg" xmlns:xlink="http://www.w3.org/1999/xlink">
    <title>4.数据展示/缩略图/开始</title>
    <g id="4.数据展示/缩略图/开始" stroke="none" stroke-width="1" fill="none" fill-rule="evenodd">
        <path d="M6.409713,-2.58960077e-16 L13.590287,2.58960077e-16 C15.8190838,-1.50463262e-16 16.6272994,0.232064028 17.4421143,0.667831759 C18.2569291,1.10359949 18.8964005,1.74307093 19.3321682,2.55788574 C19.767936,3.37270056 20,4.18091615 20,6.409713 L20,13.590287 C20,15.8190838 19.767936,16.6272994 19.3321682,17.4421143 C18.8964005,18.2569291 18.2569291,18.8964005 17.4421143,19.3321682 C16.6272994,19.767936 15.8190838,20 13.590287,20 L6.409713,20 C4.18091615,20 3.37270056,19.767936 2.55788574,19.3321682 C1.74307093,18.8964005 1.10359949,18.2569291 0.667831759,17.4421143 C0.232064028,16.6272994 1.00308841e-16,15.8190838 -1.72640051e-16,13.590287 L1.72640051e-16,6.409713 C-1.00308841e-16,4.18091615 0.232064028,3.37270056 0.667831759,2.55788574 C1.10359949,1.74307093 1.74307093,1.10359949 2.55788574,0.667831759 C3.37270056,0.232064028 4.18091615,1.50463262e-16 6.409713,-2.58960077e-16 Z" id="矩形" fill="#10B981"></path>
        <g id="编组" transform="translate(4.000000, 4.000000)" fill="#FFFFFF" fill-rule="nonzero">
            <path d="M5.99709724,12 C5.17658442,12 4.4044509,11.8441433 3.68069666,11.5324298 C2.95694243,11.2207164 2.31930334,10.7879961 1.76777939,10.2342691 C1.21625544,9.68054211 0.783744557,9.04162633 0.470246734,8.31752178 C0.156748911,7.59341723 0,6.82090997 0,6 C0,5.17909003 0.156748911,4.40658277 0.470246734,3.68247822 C0.783744557,2.95837367 1.21625544,2.32042594 1.76777939,1.76863504 C2.31930334,1.21684414 2.95597484,0.784123911 3.6777939,0.470474347 C4.39961297,0.156824782 5.17077891,0 5.99129173,0 C6.81567489,0 7.58974359,0.156824782 8.31349782,0.470474347 C9.03725206,0.784123911 9.67585873,1.21684414 10.2293179,1.76863504 C10.782777,2.32042594 11.2162554,2.95837367 11.5297533,3.68247822 C11.8432511,4.40658277 12,5.17909003 12,6 C12,6.82090997 11.8432511,7.59341723 11.5297533,8.31752178 C11.2162554,9.04162633 10.782777,9.68054211 10.2293179,10.2342691 C9.67585873,10.7879961 9.03725206,11.2207164 8.31349782,11.5324298 C7.58974359,11.8441433 6.81761006,12 5.99709724,12 Z M5.99709724,10.8151016 C6.66666667,10.8151016 7.29172714,10.6911907 7.87227866,10.4433688 C8.45283019,10.195547 8.96371553,9.85091965 9.40493469,9.40948693 C9.84615385,8.96805421 10.1906144,8.45692159 10.4383164,7.87608906 C10.6860184,7.29525653 10.8098694,6.66989351 10.8098694,6 C10.8098694,5.3339787 10.6860184,4.70958374 10.4383164,4.1268151 C10.1906144,3.54404647 9.84615385,3.03194579 9.40493469,2.59051307 C8.96371553,2.14908035 8.4518626,1.80445305 7.86937591,1.55663117 C7.28688921,1.30880929 6.66086115,1.18489835 5.99129173,1.18489835 C5.32559265,1.18489835 4.70149976,1.30880929 4.11901306,1.55663117 C3.53652637,1.80445305 3.02660861,2.14908035 2.5892598,2.59051307 C2.15191098,3.03194579 1.80938558,3.54404647 1.5616836,4.1268151 C1.31398162,4.70958374 1.19013062,5.3339787 1.19013062,6 C1.19013062,6.66989351 1.31398162,7.29525653 1.5616836,7.87608906 C1.80938558,8.45692159 2.15287857,8.96805421 2.59216255,9.40948693 C3.03144654,9.85091965 3.54233188,10.195547 4.12481858,10.4433688 C4.70730527,10.6911907 5.33139816,10.8151016 5.99709724,10.8151016 Z M4.97532656,8.2768635 C4.87082729,8.33881897 4.7672956,8.36495644 4.66473149,8.3552759 C4.56216739,8.34559535 4.47605225,8.30687318 4.40638607,8.23910939 C4.33671988,8.1713456 4.30188679,8.08131655 4.30188679,7.96902227 L4.30188679,4.03678606 C4.30188679,3.92449177 4.33671988,3.83543078 4.40638607,3.7696031 C4.47605225,3.70377541 4.56410256,3.6660213 4.67053701,3.65634076 C4.77697146,3.64666021 4.87856797,3.67086157 4.97532656,3.72894482 L8.20319303,5.63988383 C8.29608128,5.69409487 8.35800677,5.76863504 8.38896952,5.86350436 C8.41993227,5.95837367 8.42089985,6.05324298 8.39187228,6.14811229 C8.3628447,6.24298161 8.29995162,6.31945789 8.20319303,6.37754114 L4.97532656,8.2768635 Z" id="形状"></path>
        </g>
    </g>
</svg>