<svg width="24" height="24" viewBox="0 0 24 24" fill="none" xmlns="http://www.w3.org/2000/svg">
<path d="M0 4C0 1.79086 1.79086 0 4 0H20C22.2091 0 24 1.79086 24 4V20C24 22.2091 22.2091 24 20 24H4C1.79086 24 0 22.2091 0 20V4Z" fill="#54CC39"/>
<path d="M13.6496 12.4614H16.9194V13.3975H13.6496V12.4614ZM13.6496 10.6034H16.9194V11.5395H13.6496V10.6034ZM13.6496 14.3341H16.9194V15.2702H13.6496V14.3341ZM5.25208 8.93257V16.4082H12.7277V8.93257H5.25208ZM10.0051 14.8093L8.99659 13.2823L8.53567 13.9737H8.99659V14.8093H6.69199L8.36283 12.3462L6.87912 10.1277H8.11808L8.99659 11.4243L9.86082 10.1277H11.0998L9.61607 12.3462L11.2869 14.8093H10.0051ZM18.0426 7.47791L16.2708 5.69184C16.0594 5.49979 15.7953 5.33647 15.4785 5.20188C15.1617 5.06729 14.8592 5 14.571 5H8.59329C8.31489 5 8.08197 5.09357 7.89453 5.2807C7.70709 5.46783 7.60861 5.70552 7.59908 5.99374V7.99598H8.39141V5.99374C8.39141 5.93598 8.41061 5.88789 8.44902 5.84948C8.48743 5.81107 8.53552 5.79186 8.59329 5.79186H14.571C14.6287 5.79186 14.696 5.79662 14.7729 5.80615V8.97498H17.9417C17.9417 9.02291 17.9464 9.11418 17.956 9.24877V18.0063C17.956 18.064 17.9368 18.1121 17.8984 18.1505C17.8599 18.1889 17.8119 18.2081 17.7541 18.2081H8.59329C8.53552 18.2081 8.48743 18.1889 8.44902 18.1505C8.41061 18.1121 8.39141 18.064 8.39141 18.0063V17.3435H7.59908V18.0063C7.60861 18.2945 7.70709 18.5322 7.89453 18.7193C8.08197 18.9064 8.31489 19 8.59329 19H17.7541C18.0423 19 18.28 18.9064 18.4671 18.7193C18.6543 18.5322 18.7478 18.2945 18.7478 18.0063V9.5078C18.7478 9.21005 18.6805 8.85237 18.5459 8.43478C18.4114 8.01719 18.2433 7.69792 18.0417 7.47699M15.5652 8.18358V6.15276C15.6131 6.18165 15.6612 6.22006 15.7094 6.26799L17.4812 8.03977C17.5292 8.08771 17.5676 8.1358 17.5964 8.18404H15.5656L15.5652 8.18358Z" fill="white"/>
</svg>
