<svg width="24" height="24" viewBox="0 0 24 24" fill="none" xmlns="http://www.w3.org/2000/svg">
<path d="M0 4C0 1.79086 1.79086 0 4 0H20C22.2091 0 24 1.79086 24 4V20C24 22.2091 22.2091 24 20 24H4C1.79086 24 0 22.2091 0 20V4Z" fill="#FFAB52"/>
<path d="M19 8.00014H5V6.00058C5 5.44834 5.44834 5 6.00058 5H17.9994C18.5517 5 19 5.44834 19 6.00058V7.99928V8.00014ZM19 8.9999V17.9994C19 18.5517 18.5517 19 17.9994 19H6.00058C5.86915 19.0001 5.73899 18.9743 5.61755 18.9241C5.49611 18.8738 5.38576 18.8001 5.29283 18.7072C5.19989 18.6142 5.12619 18.5039 5.07595 18.3825C5.0257 18.261 4.99989 18.1308 5 17.9994V8.9999H19ZM7.9993 6.0006L9.0056 8.00013H10.0054L8.99904 6.0006H8.00013H7.9993ZM10.9994 6.0006L12.0057 8.00013H13.0055L12 6.0006H11.0002H10.9994ZM13.9987 6.0006L15.005 8.00013H16.0048L14.9985 6.0006H13.9987ZM14.1051 13.9472C14.1881 13.9057 14.2579 13.8418 14.3067 13.7629C14.3555 13.6839 14.3814 13.5929 14.3814 13.5001C14.3814 13.4072 14.3555 13.3162 14.3067 13.2373C14.2579 13.1583 14.1881 13.0945 14.1051 13.053L10.7237 11.3619C10.6475 11.3238 10.5628 11.3058 10.4776 11.3097C10.3925 11.3136 10.3098 11.3391 10.2373 11.384C10.1649 11.4288 10.1051 11.4914 10.0636 11.5659C10.0222 11.6403 10.0004 11.7242 10.0005 11.8094V15.1907C10.0004 15.276 10.0222 15.3598 10.0636 15.4342C10.1051 15.5087 10.1649 15.5713 10.2373 15.6161C10.3098 15.661 10.3925 15.6865 10.4776 15.6904C10.5628 15.6943 10.6475 15.6763 10.7237 15.6383L14.1051 13.9472Z" fill="white"/>
</svg>
