<svg width="24" height="24" viewBox="0 0 24 24" fill="none" xmlns="http://www.w3.org/2000/svg">
<path d="M0 4C0 1.79086 1.79086 0 4 0H20C22.2091 0 24 1.79086 24 4V20C24 22.2091 22.2091 24 20 24H4C1.79086 24 0 22.2091 0 20V4Z" fill="#2FCC9F"/>
<path d="M6.79311 19.068C7.14637 19.1034 7.46129 18.8458 7.49666 18.4926C7.53198 18.1393 7.27439 17.8244 6.92118 17.789C3.40738 17.4376 3.40737 12.9909 6.92118 12.6395C7.27439 12.6041 7.53198 12.2892 7.49666 11.9359C7.46129 11.5827 7.14637 11.3251 6.79311 11.3605C1.73566 11.8662 1.7356 18.5623 6.79311 19.068Z" fill="white" fill-opacity="0.4"/>
<path d="M17.2069 12.6395C16.8536 12.6748 16.5387 12.4172 16.5033 12.064C16.468 11.7108 16.7256 11.3959 17.0788 11.3605C20.5926 11.0091 20.5926 6.56229 17.0788 6.21091C16.7256 6.17551 16.468 5.86059 16.5033 5.50736C16.5387 5.15412 16.8536 4.89656 17.2069 4.93189C22.2643 5.43767 22.2644 12.1337 17.2069 12.6395Z" fill="white" fill-opacity="0.4"/>
<path d="M6.85742 17.2286C6.85742 16.4712 7.47143 15.8571 8.22886 15.8571H15.7718C16.5292 15.8571 17.1432 16.4712 17.1432 17.2286V19.6286C17.1432 20.386 16.5292 21 15.7718 21H8.22886C7.47143 21 6.85742 20.386 6.85742 19.6286V17.2286Z" fill="white"/>
<path d="M6.85742 4.37143C6.85742 3.61401 7.47143 3 8.22886 3H15.7718C16.5292 3 17.1432 3.61401 17.1432 4.37143V6.77143C17.1432 7.52885 16.5292 8.14286 15.7718 8.14286H8.22886C7.47143 8.14286 6.85742 7.52885 6.85742 6.77143V4.37143Z" fill="white"/>
<path d="M6.85742 10.8C6.85742 10.0426 7.47143 9.42857 8.22886 9.42857H15.7718C16.5292 9.42857 17.1432 10.0426 17.1432 10.8V13.2C17.1432 13.9574 16.5292 14.5714 15.7718 14.5714H8.22886C7.47143 14.5714 6.85742 13.9574 6.85742 13.2V10.8Z" fill="white"/>
</svg>
