<svg viewBox="0 0 48 48" fill="none" xmlns="http://www.w3.org/2000/svg">
    <path d="M17.502 9.99976C18.9329 9.99995 20.3154 10.2109 21.6211 10.5974C20.1652 11.5292 18.8616 12.6789 17.7656 14.0076C17.6783 14.0054 17.5898 14.0017 17.502 14.0017C11.703 14.0017 7.00195 18.7027 7.00195 24.5017C7.003 30.2998 11.7036 35.0017 17.502 35.0017C17.5898 35.0017 17.6783 34.9951 17.7656 34.9929C18.8609 36.3208 20.1635 37.4714 21.6182 38.4031C20.3132 38.7889 18.9319 39.0005 17.502 39.0007C9.49447 39.0007 3.00105 32.5089 3 24.5017C3 16.4936 9.49383 9.99976 17.502 9.99976Z"
          fill="currentColor"/>
    <path d="M29.3086 16.0906C31.001 18.4631 32.001 21.3656 32.001 24.5017C32.0006 27.6357 31.0022 30.5358 29.3115 32.907C27.884 32.7067 26.5732 32.1541 25.4648 31.3367C27.0432 29.4996 28.0015 27.1132 28.002 24.5017C28.002 21.8885 27.0446 19.4985 25.4648 17.6609C26.5724 16.8439 27.8824 16.2912 29.3086 16.0906Z"
          fill="currentColor"/>
    <path fill-rule="evenodd" clip-rule="evenodd"
          d="M30.501 9.99976C38.5087 10.0003 45 16.4939 45 24.5017C44.999 32.5086 38.508 39.0002 30.501 39.0007C22.4935 39.0007 16 32.509 15.999 24.5017C15.999 16.4936 22.4928 9.99976 30.501 9.99976ZM30.501 14.0017C24.702 14.0017 20.001 18.7027 20.001 24.5017C20.002 30.2998 24.7026 35.0017 30.501 35.0017C36.2989 35.0012 41 30.2995 41.001 24.5017C41.001 18.703 36.2995 14.0022 30.501 14.0017Z"
          fill="currentColor"/>
</svg>
