<svg viewBox="0 0 48 48" fill="none" xmlns="http://www.w3.org/2000/svg">
<path d="M28.9778 19.573C29.2747 19.5731 29.5655 19.6017 29.8479 19.6521C30.5298 21.1507 30.9142 22.8144 30.9143 24.5681C30.9142 26.2634 30.5551 27.8753 29.9153 29.3347C29.6117 29.3934 29.2985 29.4283 28.9778 29.4285C27.59 29.4285 26.3372 28.8516 25.4417 27.9285C25.9691 26.9235 26.2735 25.7816 26.2737 24.5681C26.2736 23.3184 25.9548 22.1432 25.3977 21.1169C26.2959 20.1673 27.5674 19.573 28.9778 19.573Z" fill="currentColor"/>
<path fill-rule="evenodd" clip-rule="evenodd" d="M28.9338 12.7849C35.4986 12.7857 40.8225 18.1086 40.8225 24.6736C40.8217 31.2379 35.4981 36.5614 28.9338 36.5623C22.3689 36.5623 17.046 31.2384 17.0452 24.6736C17.0452 18.1081 22.3683 12.7849 28.9338 12.7849ZM28.9338 17.4255C24.9309 17.4255 21.6858 20.6707 21.6858 24.6736C21.6866 28.6758 24.9315 31.9216 28.9338 31.9216C32.9355 31.9208 36.181 28.6753 36.1819 24.6736C36.1819 20.6712 32.936 17.4264 28.9338 17.4255Z" fill="currentColor"/>
<path d="M19.0256 12.6794C19.6562 12.6795 20.2761 12.7284 20.8801 12.823C19.0358 14.1042 17.5078 15.8103 16.4417 17.8005C13.716 18.8419 11.7779 21.4766 11.7776 24.5681C11.778 27.6953 13.7628 30.352 16.5383 31.3679C17.6301 33.3401 19.1746 35.0279 21.0354 36.2839C20.3821 36.3952 19.7106 36.4567 19.0256 36.4568C12.4606 36.4566 7.13755 31.133 7.13696 24.5681C7.13731 18.003 12.4605 12.6796 19.0256 12.6794Z" fill="currentColor"/>
<path d="M10.0012 9.00171H6.0022V38.9998H10.0012V43.0017H2.00024V4.99976H10.0012V9.00171Z" fill="currentColor"/>
<path d="M46.0012 4.99976V43.0017H38.0002V38.9998H41.9993V9.00171H38.0002V4.99976H46.0012Z" fill="currentColor"/>
</svg>
