<svg width="40" height="40" viewBox="0 0 40 40" fill="none" xmlns="http://www.w3.org/2000/svg">
<rect width="40" height="40" rx="8" fill="#FFA12E"/>
<path d="M19.4526 10.9424C19.6787 10.8094 19.959 10.8094 20.1851 10.9424L27.0044 14.9531C27.225 15.0829 27.3608 15.3202 27.3608 15.5762V23.6455C27.3608 23.9014 27.225 24.1388 27.0044 24.2686L20.1851 28.2803C19.9591 28.413 19.6785 28.4131 19.4526 28.2803L12.6333 24.2686C12.4127 24.1388 12.2778 23.9014 12.2778 23.6455V15.5762C12.2778 15.3203 12.4127 15.0829 12.6333 14.9531L19.4526 10.9424Z" stroke="white" stroke-width="1.44444" stroke-linejoin="round"/>
<path d="M16.333 18.0557L20.0336 20.3717L23.7381 18.0557" stroke="white" stroke-width="1.44444" stroke-linecap="round" stroke-linejoin="round"/>
<path d="M20.0361 20.3711V24.5378" stroke="white" stroke-width="1.44444" stroke-linecap="round" stroke-linejoin="round"/>
</svg>
