<svg width="40" height="40" viewBox="0 0 40 40" fill="none" xmlns="http://www.w3.org/2000/svg">
<rect width="40" height="40" rx="8" fill="#6652FF"/>
<path d="M22.3609 13.8428C25.4436 14.8386 27.6734 17.7321 27.6734 21.1463C27.6734 21.6214 27.6302 22.0863 27.5476 22.5375M25.4154 26.5828C24.0276 27.9654 22.1135 28.82 19.9998 28.82C17.8861 28.82 15.972 27.9654 14.5841 26.5828M12.4961 22.7599C12.3848 22.2396 12.3262 21.6998 12.3262 21.1463C12.3262 17.7321 14.5559 14.8386 17.6387 13.8428" stroke="white" stroke-width="1.44444" stroke-miterlimit="16"/>
<path d="M19.9995 11.834C21.2306 11.834 22.2289 12.8315 22.229 14.0625C22.229 15.2937 21.2306 16.292 19.9995 16.292C18.7685 16.2919 17.771 15.2936 17.771 14.0625C17.7711 12.8315 18.7686 11.8341 19.9995 11.834Z" stroke="white" stroke-width="1.44444" stroke-miterlimit="16"/>
<path d="M13.5063 22.459C14.7374 22.459 15.7357 23.4565 15.7358 24.6875C15.7358 25.9187 14.7375 26.917 13.5063 26.917C12.2753 26.9169 11.2778 25.9186 11.2778 24.6875C11.278 23.4565 12.2754 22.4591 13.5063 22.459Z" stroke="white" stroke-width="1.44444" stroke-miterlimit="16"/>
<path d="M26.4927 22.459C27.7237 22.459 28.722 23.4565 28.7222 24.6875C28.7222 25.9187 27.7238 26.917 26.4927 26.917C25.2616 26.9169 24.2642 25.9186 24.2642 24.6875C24.2643 23.4565 25.2617 22.4591 26.4927 22.459Z" stroke="white" stroke-width="1.44444" stroke-miterlimit="16"/>
</svg>
