<svg width="40" height="40" viewBox="0 0 40 40" fill="none" xmlns="http://www.w3.org/2000/svg">
<rect width="40" height="40" rx="8" fill="#7E38FF"/>
<path d="M13.6665 11.834H23.2329C23.4411 11.834 23.6397 11.9234 23.7769 12.0801L26.8765 15.623C26.9917 15.7547 27.0552 15.9237 27.0552 16.0986V27.4443C27.0552 27.8431 26.7323 28.1669 26.3335 28.167H13.6665C13.2677 28.1669 12.9448 27.8432 12.9448 27.4443V12.5557C12.9449 12.1569 13.2677 11.834 13.6665 11.834Z" stroke="white" stroke-width="1.44444" stroke-linecap="round" stroke-linejoin="round"/>
<path d="M21.1109 18.8887L18.8887 18.8887" stroke="white" stroke-width="1.44444" stroke-linecap="round" stroke-linejoin="round"/>
<path d="M22.2218 15.4062H19.067C18.9651 15.4062 18.8792 15.4823 18.8667 15.5835L17.8619 23.7567C17.8136 24.149 17.4804 24.4438 17.0851 24.4438C16.8235 24.4438 16.5791 24.313 16.434 24.0953L15.5552 22.7771" stroke="white" stroke-width="1.44444" stroke-linecap="round" stroke-linejoin="round"/>
<path d="M24.4442 21.666L21.1108 24.9993" stroke="white" stroke-width="1.44444" stroke-linecap="round" stroke-linejoin="round"/>
<path d="M21.111 21.666L24.4443 24.9993" stroke="white" stroke-width="1.44444" stroke-linecap="round" stroke-linejoin="round"/>
</svg>
