<svg width="48" height="48" viewBox="0 0 48 48" fill="none" xmlns="http://www.w3.org/2000/svg">
<path d="M25.7317 22.2683H29.7688V26.8855H21.1145V18.2312H25.7317V22.2683Z" fill="currentColor"/>
<path fill-rule="evenodd" clip-rule="evenodd" d="M24.0002 8.99976C32.2845 8.99976 39.0002 15.7155 39.0002 23.9998C39.0002 32.284 32.2845 38.9998 24.0002 38.9998C15.716 38.9998 9.00024 32.284 9.00024 23.9998C9.00024 15.7155 15.716 8.99976 24.0002 8.99976ZM24.0002 13.614C18.265 13.614 13.6145 18.2645 13.6145 23.9998C13.6145 29.735 18.265 34.3855 24.0002 34.3855C29.7355 34.3855 34.386 29.735 34.386 23.9998C34.386 18.2645 29.7355 13.614 24.0002 13.614Z" fill="currentColor"/>
<path d="M10.0012 9.00171H6.0022V38.9998H10.0012V43.0017H2.00024V4.99976H10.0012V9.00171Z" fill="currentColor"/>
<path d="M46.0012 4.99976V43.0017H38.0002V38.9998H41.9993V9.00171H38.0002V4.99976H46.0012Z" fill="currentColor"/>
</svg>
