<svg width="120" height="39" viewBox="0 0 120 39" fill="none" xmlns="http://www.w3.org/2000/svg">
<rect x="33.5" y="13.5" width="53" height="25" rx="3.5" fill="white"/>
<rect x="33.5" y="13.5" width="53" height="25" rx="3.5" stroke="#C3C7D4"/>
<path d="M45.482 19.506H46.518V22.026H51.544V28.606H50.536V27.724H46.518V32.498H45.482V27.724H41.478V28.606H40.47V22.026H45.482V19.506ZM41.478 26.744H45.482V23.006H41.478V26.744ZM46.518 26.744H50.536V23.006H46.518V26.744ZM57.284 23.356H62.604V29.88H57.284V23.356ZM61.666 28.984V27.066H58.236V28.984H61.666ZM58.236 26.17H61.666V24.252H58.236V26.17ZM64.172 32.288H62.996L62.744 31.35L63.962 31.378C64.382 31.378 64.606 31.084 64.606 30.524V21.2H59.174V20.262H65.586V30.804C65.586 31.784 65.11 32.288 64.172 32.288ZM54.386 21.886H55.366V32.414H54.386V21.886ZM56.416 19.436C57.06 20.206 57.634 21.046 58.124 21.97L57.228 22.446C56.696 21.466 56.122 20.598 55.492 19.842L56.416 19.436ZM68.456 20.78H73.482V19.59H74.518V20.78H79.544V21.704H74.518V23.034H78.732V23.958H74.518V25.288H80.034V26.198H74.938C75.316 27.094 75.778 27.892 76.324 28.592C77.108 28.228 77.864 27.668 78.592 26.898L79.292 27.57C78.578 28.284 77.78 28.844 76.884 29.236C77.808 30.216 78.928 30.958 80.23 31.448L79.698 32.33C77.094 31.28 75.19 29.236 74.014 26.198H73.524C73.034 26.898 72.404 27.542 71.634 28.13V31.112C72.684 30.804 73.72 30.426 74.756 30.006L74.952 30.944C73.496 31.532 72.026 32.008 70.528 32.372L70.192 31.504C70.486 31.392 70.64 31.224 70.64 31V28.802C69.884 29.264 69.044 29.684 68.092 30.062L67.56 29.194C69.8 28.41 71.424 27.416 72.46 26.198H67.966V25.288H73.482V23.958H69.268V23.034H73.482V21.704H68.456V20.78Z" fill="#0F131F"/>
<path d="M0 26L10 20.2265V31.7735L0 26ZM33 26V27H30.9375V26V25H33V26ZM26.8125 26V27H22.6875V26V25H26.8125V26ZM18.5625 26V27H14.4375V26V25H18.5625V26ZM10.3125 26V27H6.1875V26V25H10.3125V26Z" fill="#C3C7D4"/>
<path d="M120 26L110 20.2265V31.7735L120 26ZM87 26V27H89.0625V26V25H87V26ZM93.1875 26V27H97.3125V26V25H93.1875V26ZM101.438 26V27H105.563V26V25H101.438V26ZM109.688 26V27H113.813V26V25H109.688V26Z" fill="#C3C7D4"/>
</svg>
