<svg width="48" height="48" viewBox="0 0 48 48" fill="none" xmlns="http://www.w3.org/2000/svg">
<path fill-rule="evenodd" clip-rule="evenodd" d="M27.9993 16.9998H35.0012C37.2096 17.0003 38.9997 18.7904 39.0002 20.9988V34.9998L38.9797 35.4099C38.788 37.2922 37.2909 38.7874 35.4084 38.9783L35.0012 38.9988H12.9993C10.929 38.9983 9.22609 37.4261 9.02075 35.4099L9.00024 34.9998V14.9988C9.00077 12.7904 10.7909 11.0003 12.9993 10.9998H24.9993L27.9993 16.9998ZM12.9993 21.0017V34.9998H35.0012V20.9988L12.9993 21.0017ZM12.9993 16.9998H23.5256L22.5266 14.9988H12.9993V16.9998Z" fill="currentColor"/>
<path d="M10.0012 9.00171H6.0022V38.9998H10.0012V43.0017H2.00024V4.99976H10.0012V9.00171Z" fill="currentColor"/>
<path d="M46.0012 4.99976C46.0012 20.6215 46.0012 27.38 46.0012 43.0017H38.0002V38.9998H41.9993V9.00171H38.0002V4.99976H46.0012Z" fill="currentColor"/>
</svg>
