<svg width="12" height="12" viewBox="0 0 12 12" fill="none" xmlns="http://www.w3.org/2000/svg">
<path d="M7.5 0.5L10.5 3.5V9.5C10.5 10.6046 9.60457 11.5 8.5 11.5H3.5C2.39543 11.5 1.5 10.6046 1.5 9.5V2.5C1.5 1.39543 2.39543 0.5 3.5 0.5H7.5Z" fill="#528EFF"/>
<mask id="mask0_5952_27699" style="mask-type:luminance" maskUnits="userSpaceOnUse" x="1" y="0" width="10" height="12">
<path d="M7.5 0.5L10.5 3.5V9.5C10.5 10.6046 9.60457 11.5 8.5 11.5H3.5C2.39543 11.5 1.5 10.6046 1.5 9.5V2.5C1.5 1.39543 2.39543 0.5 3.5 0.5H7.5Z" fill="white"/>
</mask>
<g mask="url(#mask0_5952_27699)">
<path fill-rule="evenodd" clip-rule="evenodd" d="M7.5 0.5L10.5 3.5H9.5C8.39543 3.5 7.5 2.60457 7.5 1.5V0.5Z" fill="#A8CAFF"/>
</g>
</svg>
