<svg width="48" height="48" viewBox="0 0 48 48" fill="none" xmlns="http://www.w3.org/2000/svg">
<path d="M12.3259 13.1836L19.5007 29.2207V12H23.4998V35.001H17.7048L17.1746 33.8174L9.50171 16.6611V35.001H5.49976V12H11.7957L12.3259 13.1836ZM43.5007 35.001H26.4998V30.999H43.5007V35.001ZM34.9988 12C39.6929 12 43.5002 15.8051 43.5007 20.499L43.4568 21.3691C43.0215 25.6553 39.3998 29.001 34.9988 29.001L34.1316 28.957C29.845 28.5222 26.4998 24.9003 26.4998 20.499C26.5003 15.8054 30.3052 12.0006 34.9988 12ZM34.9988 15.999C32.5143 15.9996 30.4993 18.0145 30.4988 20.499C30.4989 22.9839 32.514 24.9985 34.9988 24.999C37.484 24.999 39.4987 22.9842 39.4988 20.499C39.4983 18.0142 37.4837 15.999 34.9988 15.999Z" fill="currentColor"/>
</svg>
