<svg width="48" height="48" viewBox="0 0 48 48" fill="none" xmlns="http://www.w3.org/2000/svg">
<path d="M24.053 33.7888H18.4895L13.0022 20.0691V33.9998H9.00024V13.2107H14.5667L15.0676 14.4675L20.054 26.9304V12.9998H24.053V33.7888Z" fill="currentColor"/>
<path d="M38.842 33.7917H25.5793V29.7898H38.842V33.7917Z" fill="currentColor"/>
<path fill-rule="evenodd" clip-rule="evenodd" d="M32.6663 13.0115C37.2863 13.2532 38.842 17.1887 38.842 20.7371L38.8215 21.4285C38.6208 24.8932 36.8735 28.4738 32.2122 28.4744L31.7551 28.4626C27.434 28.2363 25.7939 24.7782 25.5999 21.4285L25.5793 20.7371C25.5794 17.0746 27.2385 12.9998 32.2122 12.9998L32.6663 13.0115ZM32.2122 16.9988C31.5286 16.9988 31.1302 17.1356 30.9055 17.2507C30.6822 17.3654 30.487 17.5335 30.3049 17.7927C29.8936 18.3788 29.5784 19.4156 29.5784 20.7371C29.5784 22.0583 29.8937 23.0954 30.3049 23.6814C30.4869 23.9404 30.6824 24.1058 30.9055 24.2205C31.13 24.3357 31.5276 24.4724 32.2122 24.4724C32.8963 24.4723 33.2945 24.3357 33.5188 24.2205C33.7412 24.1059 33.935 23.9396 34.1165 23.6814C34.5277 23.0954 34.843 22.0583 34.843 20.7371C34.843 19.4156 34.5278 18.3788 34.1165 17.7927C33.9347 17.5339 33.7417 17.3654 33.5188 17.2507C33.2945 17.1355 32.8962 16.9989 32.2122 16.9988Z" fill="currentColor"/>
<path d="M10.0012 9.00171H6.0022V38.9998H10.0012V43.0017H2.00024V4.99976H10.0012V9.00171Z" fill="currentColor"/>
<path d="M46.0012 4.99976V43.0017H38.0002V38.9998H41.9993V9.00171H38.0002V4.99976H46.0012Z" fill="currentColor"/>
</svg>
