<svg width="16" height="16" viewBox="0 0 16 16" fill="none" xmlns="http://www.w3.org/2000/svg">
    <path
        d="M3.43994 2.11963H10.3276C10.4775 2.11963 10.6205 2.18465 10.7192 2.29736L12.9517 4.84814C13.0346 4.94293 13.0796 5.06498 13.0796 5.19092V13.3599C13.0796 13.647 12.8472 13.8803 12.5601 13.8804H3.43994C3.15275 13.8804 2.91943 13.6471 2.91943 13.3599V2.64014C2.91943 2.35295 3.15275 2.11963 3.43994 2.11963Z"
        stroke="currentColor" stroke-width="1.04" stroke-linecap="round" stroke-linejoin="round" />
    <path d="M8.8002 7.19995L7.2002 7.19995" stroke="currentColor" stroke-width="1.04" stroke-linecap="round"
        stroke-linejoin="round" />
    <path
        d="M9.5998 4.69287H7.32835C7.25495 4.69287 7.19308 4.74761 7.18412 4.82046L6.46063 10.7052C6.4259 10.9877 6.18597 11.1999 5.90136 11.1999C5.71297 11.1999 5.53703 11.1057 5.43253 10.949L4.7998 9.9999"
        stroke="currentColor" stroke-width="1.04" stroke-linecap="round" stroke-linejoin="round" />
    <path d="M11.1998 9.19995L8.7998 11.6" stroke="currentColor" stroke-width="1.04" stroke-linecap="round"
        stroke-linejoin="round" />
    <path d="M8.8002 9.19995L11.2002 11.6" stroke="currentColor" stroke-width="1.04" stroke-linecap="round"
        stroke-linejoin="round" />
</svg>