<svg width="18" height="18" viewBox="0 0 18 18" fill="none" xmlns="http://www.w3.org/2000/svg">
<path d="M0 4C0 1.79086 1.79086 0 4 0H14C16.2091 0 18 1.79086 18 4V14C18 16.2091 16.2091 18 14 18H4C1.79086 18 0 16.2091 0 14V4Z" fill="#6652FF" fill-opacity="0.1"/>
<path d="M10.4869 5.12109C12.429 5.74849 13.8338 7.57137 13.8338 9.72234C13.8338 10.0216 13.8066 10.3145 13.7545 10.5988M12.4113 13.1473C11.5369 14.0183 10.3311 14.5567 8.99941 14.5567C7.66777 14.5567 6.46188 14.0183 5.58756 13.1473M4.27209 10.7389C4.20196 10.4111 4.16504 10.071 4.16504 9.72234C4.16504 7.57137 5.56979 5.74849 7.51191 5.12109" stroke="#6652FF" stroke-width="0.91" stroke-miterlimit="16"/>
<path d="M9 3.85547C9.77561 3.85547 10.4043 4.48415 10.4043 5.25977C10.4043 6.03539 9.77561 6.66406 9 6.66406C8.22439 6.66406 7.5957 6.03539 7.5957 5.25977C7.59571 4.48415 8.22439 3.85547 9 3.85547Z" stroke="#6652FF" stroke-width="0.91" stroke-miterlimit="16"/>
<path d="M4.90918 10.5488C5.68479 10.5488 6.31347 11.1775 6.31348 11.9531C6.31348 12.7288 5.68479 13.3574 4.90918 13.3574C4.13357 13.3574 3.50488 12.7288 3.50488 11.9531C3.50489 11.1775 4.13357 10.5488 4.90918 10.5488Z" stroke="#6652FF" stroke-width="0.91" stroke-miterlimit="16"/>
<path d="M13.0908 10.5488C13.8664 10.5488 14.4951 11.1775 14.4951 11.9531C14.4951 12.7288 13.8664 13.3574 13.0908 13.3574C12.3152 13.3574 11.6865 12.7288 11.6865 11.9531C11.6865 11.1775 12.3152 10.5488 13.0908 10.5488Z" stroke="#6652FF" stroke-width="0.91" stroke-miterlimit="16"/>
</svg>
