<svg width="48" height="48" viewBox="0 0 48 48" fill="none" xmlns="http://www.w3.org/2000/svg">
<path d="M39.8269 17.7188H43.4128V21.3691H39.8269V29.0801C39.8269 29.592 39.8487 30.0081 39.8914 30.3281C39.9552 30.6476 40.0618 30.9038 40.2107 31.0957C40.36 31.2663 40.5642 31.3942 40.8201 31.4795C41.0761 31.5435 41.4079 31.5762 41.8132 31.5762C42.3671 31.5761 42.8249 31.5324 43.1873 31.4473V35.0332C42.8463 35.0758 42.4839 35.1056 42.1003 35.127C41.7166 35.1696 41.3327 35.1914 40.949 35.1914C39.8823 35.1914 38.974 35.1072 38.2273 34.9365C37.5026 34.7659 36.9173 34.4662 36.4695 34.04C36.0215 33.6134 35.6897 33.026 35.4763 32.2793C35.2844 31.5328 35.1892 30.5942 35.1892 29.4639V21.3691H32.9158V17.7188H35.1892V13.623H39.8269V17.7188Z" fill="currentColor"/>
<path d="M9.87964 35.001H5.23901V17.7188H9.87964V35.001Z" fill="currentColor"/>
<path d="M24.5398 17.3994C25.6065 17.3994 26.5039 17.5272 27.2292 17.7832C27.9757 18.0179 28.5714 18.3825 29.0193 18.873C29.4671 19.3635 29.7882 19.9703 29.9802 20.6953C30.1722 21.3991 30.2673 22.2317 30.2673 23.1914V35.001H25.6296V24.4072C25.6296 23.8318 25.586 23.3416 25.5007 22.9365C25.4154 22.5099 25.2658 22.1671 25.0525 21.9111C24.8606 21.6555 24.5827 21.4757 24.2205 21.3691C23.8578 21.2411 23.3873 21.1758 22.8113 21.1758C21.8518 21.1759 21.0625 21.3473 20.4441 21.6885C19.8258 22.0297 19.3876 22.6476 19.1316 23.543V35.001H14.4939V17.7188H19.1316V19.7988C19.6008 18.9887 20.3058 18.3927 21.2439 18.0088C22.1824 17.6035 23.2814 17.3995 24.5398 17.3994Z" fill="currentColor"/>
<path d="M7.5769 10.4561C8.10988 10.4561 8.53733 10.4779 8.85718 10.5205C9.19799 10.5633 9.46519 10.6694 9.65698 10.8398C9.84864 11.0104 9.97677 11.2557 10.0408 11.5752C10.1261 11.8951 10.1667 12.3224 10.1667 12.8555C10.1667 13.41 10.1261 13.848 10.0408 14.168C9.97686 14.4875 9.84852 14.7327 9.65698 14.9033C9.46521 15.0738 9.19792 15.1908 8.85718 15.2549C8.53733 15.2975 8.10988 15.3193 7.5769 15.3193C7.06508 15.3193 6.63791 15.2975 6.29663 15.2549C5.95531 15.1909 5.68882 15.074 5.49683 14.9033C5.30484 14.7327 5.16615 14.4879 5.08081 14.168C5.01681 13.848 4.98413 13.4101 4.98413 12.8555C4.98415 12.3224 5.01683 11.8951 5.08081 11.5752C5.16617 11.2557 5.30502 11.0103 5.49683 10.8398C5.68879 10.6694 5.95559 10.5631 6.29663 10.5205C6.63789 10.4779 7.06512 10.4561 7.5769 10.4561Z" fill="currentColor"/>
</svg>
