<svg width="48" height="48" viewBox="0 0 48 48" fill="none" xmlns="http://www.w3.org/2000/svg">
<path d="M10.1865 16.9078C7.83747 16.9078 7.40547 16.6648 7.40547 14.2888C7.40547 11.9398 7.83747 11.7508 10.1865 11.7508C12.5625 11.7508 12.9675 11.9398 12.9675 14.2888C12.9675 16.6648 12.5625 16.9078 10.1865 16.9078ZM7.62147 32.9998V18.4198H12.7515V32.9998H7.62147Z" fill="currentColor"/>
<path d="M25.4632 18.1498C28.8922 18.1498 30.2422 19.6078 30.2422 23.1448V32.9998H25.1122V24.3058C25.1122 22.4968 24.6532 22.1998 23.0332 22.1998C21.7372 22.1998 21.1702 22.6588 20.9542 23.3878V32.9998H15.8242V18.4198H20.9542V19.9048C21.6832 18.9058 23.0872 18.1498 25.4632 18.1498Z" fill="currentColor"/>
<path d="M41.5387 22.3618H38.9467V27.7078C38.9467 28.9768 39.2437 29.2468 40.2967 29.2468C40.5937 29.2468 40.8907 29.2738 41.1337 29.1928V33.0268C40.5667 33.1078 39.7027 33.1618 39.0547 33.1618C35.1667 33.1618 33.8167 32.0008 33.8167 28.1938V22.3618H32.0887V18.4198H33.8167V14.9638H38.9467V18.4198H41.5387V22.3618Z" fill="currentColor"/>
<path d="M10.0012 9.00171H6.0022V38.9998H10.0012V43.0017H2.00024V4.99976H10.0012V9.00171ZM46.0012 43.0017H38.0002V38.9998H42.0022V9.00171H38.0002V4.99976H46.0012V43.0017Z" fill="currentColor"/>
</svg>
