<svg width="41" height="41" viewBox="0 0 41 41" fill="none" xmlns="http://www.w3.org/2000/svg">
<path d="M36.5 0.25C38.8472 0.25 40.75 2.15279 40.75 4.5V36.5C40.75 38.8472 38.8472 40.75 36.5 40.75H4.5C2.15279 40.75 0.25 38.8472 0.25 36.5V4.5C0.250001 2.15279 2.15279 0.25 4.5 0.25H36.5Z" fill="#EDFFF8" stroke="#0CBF92" stroke-width="0.5"/>
<path fill-rule="evenodd" clip-rule="evenodd" d="M11.3585 19.1111C11.7489 18.7206 12.382 18.7207 12.7725 19.1111L14.8175 21.156H27.0323C27.4359 20.0962 28.4588 19.3426 29.6602 19.3425C31.2143 19.3425 32.4746 20.6019 32.4747 22.156C32.4747 23.7102 31.2144 24.9705 29.6602 24.9705C28.4587 24.9704 27.4358 24.216 27.0323 23.156H21.1632V29.5984H27.0323C27.4358 28.5385 28.4587 27.784 29.6602 27.7839C31.2144 27.7839 32.4747 29.0442 32.4747 30.5984C32.4746 32.1525 31.2144 33.4128 29.6602 33.4128C28.4587 33.4128 27.4358 32.6582 27.0323 31.5984H20.1632C19.6109 31.5984 19.1633 31.1506 19.1632 30.5984V23.156H15.2725L12.7725 25.656C12.382 26.0465 11.749 26.0465 11.3585 25.656L8.79304 23.0906C8.40271 22.7 8.40258 22.067 8.79304 21.6765L11.3585 19.1111ZM11.3653 8.79272C11.7557 8.40235 12.3888 8.4025 12.7794 8.79272L14.8243 10.8376H27.0323C27.4359 9.7779 28.4588 9.02423 29.6602 9.02416C31.2143 9.02416 32.4745 10.2836 32.4747 11.8376C32.4747 13.3918 31.2144 14.6521 29.6602 14.6521C28.4586 14.652 27.4357 13.8977 27.0323 12.8376H15.2794L12.7794 15.3376C12.3888 15.7282 11.7558 15.7282 11.3653 15.3376L8.79988 12.7722C8.40964 12.3817 8.40945 11.7486 8.79988 11.3581L11.3653 8.79272Z" fill="#0CBF92"/>
</svg>
