<svg width="40" height="40" viewBox="0 0 40 40" fill="none" xmlns="http://www.w3.org/2000/svg">
<path d="M4 0.25H36C38.0711 0.25 39.75 1.92893 39.75 4V36C39.75 38.0711 38.0711 39.75 36 39.75H4C1.92893 39.75 0.25 38.0711 0.25 36V4C0.250001 1.92893 1.92893 0.25 4 0.25Z" fill="#D4E7FF" stroke="#6A95F6" stroke-width="0.5"/>
<path fill-rule="evenodd" clip-rule="evenodd" d="M10.7099 16.9569C11.1004 16.5665 11.7335 16.5664 12.1239 16.9569L14.2548 19.0877H26.5976C26.8511 17.8544 27.9426 16.9266 29.2509 16.9266C30.7469 16.9266 31.9597 18.1396 31.9599 19.6356C31.9599 21.1317 30.747 22.3445 29.2509 22.3446C28.2895 22.3446 27.4475 21.8427 26.9667 21.0877H14.2411L12.1239 23.2049C11.7335 23.5954 11.1004 23.5952 10.7099 23.2049L8.29289 20.7879C7.90237 20.3974 7.90237 19.7644 8.29289 19.3739L10.7099 16.9569Z" fill="#4073F5"/>
</svg>
