<svg width="14" height="14" viewBox="0 0 14 14" fill="none" xmlns="http://www.w3.org/2000/svg">
<path d="M8.4874 3.12036C10.4295 3.74776 11.8343 5.57063 11.8343 7.7216C11.8343 8.02088 11.8071 8.3138 11.755 8.59804M10.4118 11.1466C9.53743 12.0176 8.33154 12.556 6.9999 12.556C5.66826 12.556 4.46237 12.0176 3.58805 11.1466M2.27258 8.73813C2.20244 8.41037 2.16553 8.0703 2.16553 7.7216C2.16553 5.57063 3.57027 3.74776 5.5124 3.12036" stroke="#646C85" stroke-width="0.91" stroke-miterlimit="16"/>
<path d="M7 1.85498C7.77561 1.85498 8.40429 2.48366 8.4043 3.25928C8.4043 4.0349 7.77561 4.66357 7 4.66357C6.22439 4.66357 5.5957 4.0349 5.5957 3.25928C5.59571 2.48366 6.22439 1.85498 7 1.85498Z" stroke="#646C85" stroke-width="0.91" stroke-miterlimit="16"/>
<path d="M2.90918 8.54883C3.68479 8.54883 4.31347 9.17751 4.31348 9.95312C4.31348 10.7288 3.68479 11.3574 2.90918 11.3574C2.13357 11.3574 1.50488 10.7288 1.50488 9.95312C1.50489 9.17751 2.13357 8.54883 2.90918 8.54883Z" stroke="#646C85" stroke-width="0.91" stroke-miterlimit="16"/>
<path d="M11.0903 8.54883C11.8659 8.54883 12.4946 9.17751 12.4946 9.95312C12.4946 10.7288 11.8659 11.3574 11.0903 11.3574C10.3147 11.3574 9.68604 10.7288 9.68604 9.95312C9.68604 9.17751 10.3147 8.54883 11.0903 8.54883Z" stroke="#646C85" stroke-width="0.91" stroke-miterlimit="16"/>
</svg>
