<svg width="40" height="40" viewBox="0 0 40 40" fill="none" xmlns="http://www.w3.org/2000/svg">
<path d="M4 0.25H36C38.0711 0.25 39.75 1.92893 39.75 4V36C39.75 38.0711 38.0711 39.75 36 39.75H4C1.92893 39.75 0.25 38.0711 0.25 36V4C0.250001 1.92893 1.92893 0.25 4 0.25Z" fill="#F5EDFF" stroke="#9F40F5" stroke-width="0.5"/>
<path fill-rule="evenodd" clip-rule="evenodd" d="M29.1601 7C30.7143 7.00025 31.9743 8.26019 31.9745 9.81445C31.9745 11.3689 30.7145 12.6296 29.1601 12.6299C28.1446 12.6299 27.2567 12.0905 26.7616 11.2842H20.5419V18.667H26.3964C26.6448 17.3664 27.7871 16.3828 29.1601 16.3828C30.7145 16.3831 31.9745 17.6438 31.9745 19.1982C31.9744 20.7526 30.7144 22.0124 29.1601 22.0127C28.1445 22.0127 27.2567 21.4734 26.7616 20.667H20.5419V28.0498H26.7616C27.2568 27.2436 28.1446 26.7041 29.1601 26.7041C30.7145 26.7044 31.9745 27.9651 31.9745 29.5195C31.9744 31.0739 30.7144 32.3337 29.1601 32.334C27.7869 32.334 26.6447 31.3507 26.3964 30.0498H19.5419C18.9897 30.0498 18.542 29.602 18.5419 29.0498V20.667H14.3056L12.2734 22.6992C11.8828 23.0897 11.2498 23.0897 10.8593 22.6992L8.29289 20.1328C7.90237 19.7423 7.90237 19.1093 8.29289 18.7188L10.8593 16.1514C11.2497 15.7612 11.8829 15.7612 12.2734 16.1514L14.788 18.667H18.5419V10.2842C18.5419 9.73192 18.9897 9.28422 19.5419 9.28418H26.3964C26.6447 7.98344 27.787 7 29.1601 7Z" fill="#9D46F5"/>
</svg>
