<svg width="20" height="20" viewBox="0 0 20 20" fill="none" xmlns="http://www.w3.org/2000/svg">
    <path opacity="0.32"
        d="M11.1195 10.8418L16.3877 10.8418C18.0668 10.8415 19.4282 12.2029 19.4282 13.8823V16.1232C19.4282 17.8024 18.0669 19.1637 16.3877 19.1637H14.16C12.4808 19.1637 11.1195 17.8024 11.1195 16.1232V10.8418Z"
        fill="currentColor" />
    <path
        d="M4.13525 10.8447C2.45616 10.8448 1.09532 12.2057 1.09521 13.8848V16.126C1.09531 17.8053 2.45666 19.1662 4.13623 19.166H6.38916C8.06795 19.1655 9.42911 17.8047 9.4292 16.126V11.9902C9.42919 11.3574 8.91553 10.8447 8.28271 10.8447H4.13525ZM14.1597 0.833008C12.4804 0.833189 11.1193 2.19498 11.1196 3.87402V8.00879C11.1196 8.64156 11.6324 9.15518 12.2651 9.15527H16.3872C18.0664 9.15527 19.4282 7.7935 19.4282 6.11426V3.87402C19.4282 2.19458 18.0664 0.832727 16.3872 0.833008H14.1597ZM4.13525 0.833008C2.45609 0.8331 1.09521 2.19484 1.09521 3.87402V6.11426C1.09522 7.79324 2.45601 9.1549 4.13525 9.15527H8.28271C8.91554 9.15527 9.4292 8.64162 9.4292 8.00879V3.87402C9.4292 2.19458 8.06734 0.832728 6.38818 0.833008H4.13525Z"
        fill="currentColor" />
</svg>