<svg width="20" height="20" viewBox="0 0 20 20" fill="none" xmlns="http://www.w3.org/2000/svg">
    <path
        d="M12.125 4.45801C14.8995 5.35429 16.9062 7.9584 16.9062 11.0312C16.9062 11.4587 16.8674 11.8772 16.793 12.2833M14.8741 15.9241C13.625 17.1684 11.9023 17.9375 10 17.9375C8.09766 17.9375 6.37496 17.1684 5.12592 15.9241M3.24669 12.4834C3.14649 12.0152 3.09375 11.5293 3.09375 11.0312C3.09375 7.9584 5.10053 5.35429 7.875 4.45801"
        stroke="currentColor" stroke-width="1.3" stroke-miterlimit="16" />
    <path
        d="M10 2.65039C11.108 2.65039 12.0058 3.54822 12.0059 4.65625C12.0059 5.76429 11.108 6.66211 10 6.66211C8.89198 6.66211 7.99414 5.76429 7.99414 4.65625C7.99415 3.54822 8.89199 2.65039 10 2.65039Z"
        stroke="currentColor" stroke-width="1.3" stroke-miterlimit="16" />
    <path
        d="M4.15625 12.2129C5.26426 12.2129 6.1621 13.1107 6.16211 14.2188C6.16211 15.3268 5.26427 16.2246 4.15625 16.2246C3.04823 16.2246 2.15039 15.3268 2.15039 14.2188C2.1504 13.1107 3.04824 12.2129 4.15625 12.2129Z"
        stroke="currentColor" stroke-width="1.3" stroke-miterlimit="16" />
    <path
        d="M15.8438 12.2129C16.9518 12.2129 17.8496 13.1107 17.8496 14.2188C17.8496 15.3268 16.9518 16.2246 15.8438 16.2246C14.7357 16.2246 13.8379 15.3268 13.8379 14.2188C13.8379 13.1107 14.7357 12.2129 15.8438 12.2129Z"
        stroke="currentColor" stroke-width="1.3" stroke-miterlimit="16" />
</svg>