<svg width="48" height="48" viewBox="0 0 48 48" fill="none" xmlns="http://www.w3.org/2000/svg">
<path d="M9.91994 35.3201C8.57594 35.3201 7.37061 35.1814 6.30394 34.9041C5.25861 34.6267 4.37327 34.1467 3.64794 33.4641C2.94394 32.7814 2.39994 31.8641 2.01594 30.7121C1.63194 29.5601 1.43994 28.1094 1.43994 26.3601C1.43994 24.6107 1.63194 23.1601 2.01594 22.0081C2.39994 20.8561 2.94394 19.9387 3.64794 19.2561C4.37327 18.5734 5.25861 18.0934 6.30394 17.8161C7.37061 17.5387 8.57594 17.4001 9.91994 17.4001C11.2639 17.4001 12.4586 17.5387 13.5039 17.8161C14.5493 18.0934 15.4239 18.5734 16.1279 19.2561C16.8533 19.9387 17.4079 20.8561 17.7919 22.0081C18.1759 23.1601 18.3679 24.6107 18.3679 26.3601C18.3679 28.1094 18.1759 29.5601 17.7919 30.7121C17.4079 31.8641 16.8533 32.7814 16.1279 33.4641C15.4239 34.1467 14.5493 34.6267 13.5039 34.9041C12.4586 35.1814 11.2639 35.3201 9.91994 35.3201ZM9.91994 31.8001C10.6239 31.8001 11.2106 31.7147 11.6799 31.5441C12.1706 31.3734 12.5546 31.0854 12.8319 30.6801C13.1306 30.2534 13.3333 29.6881 13.4399 28.9841C13.5679 28.2801 13.6319 27.4054 13.6319 26.3601C13.6319 25.3147 13.5679 24.4401 13.4399 23.7361C13.3119 23.0321 13.0986 22.4667 12.7999 22.0401C12.5226 21.6134 12.1493 21.3147 11.6799 21.1441C11.2106 20.9521 10.6239 20.8561 9.91994 20.8561C9.21594 20.8561 8.61861 20.9521 8.12794 21.1441C7.65861 21.3147 7.27461 21.6134 6.97594 22.0401C6.69861 22.4667 6.49594 23.0321 6.36794 23.7361C6.26127 24.4401 6.20794 25.3147 6.20794 26.3601C6.20794 27.4054 6.27194 28.2801 6.39994 28.9841C6.52794 29.6881 6.73061 30.2534 7.00794 30.6801C7.30661 31.0854 7.69061 31.3734 8.15994 31.5441C8.62928 31.7147 9.21594 31.8001 9.91994 31.8001Z" fill="currentColor"/>
<path d="M32.0044 17.4001C33.4124 17.4001 34.5538 17.6134 35.4284 18.0401C36.3244 18.4454 37.0284 19.0427 37.5404 19.8321C38.0524 20.6001 38.4044 21.5387 38.5964 22.6481C38.7884 23.7574 38.8844 24.9947 38.8844 26.3601C38.8844 27.5974 38.7884 28.7601 38.5964 29.8481C38.4044 30.9361 38.0524 31.8854 37.5404 32.6961C37.0284 33.5067 36.3244 34.1467 35.4284 34.6161C34.5538 35.0854 33.4124 35.3201 32.0044 35.3201C31.1724 35.3201 30.4578 35.2561 29.8604 35.1281C29.2844 35.0001 28.7831 34.8187 28.3564 34.5841C27.9511 34.3281 27.6098 34.0401 27.3324 33.7201C27.0764 33.3787 26.8631 32.9947 26.6924 32.5681L26.3724 35.0001H22.1484V10.6801H26.7884V19.8001C27.1298 19.1601 27.7058 18.6054 28.5164 18.1361C29.3271 17.6454 30.4898 17.4001 32.0044 17.4001ZM30.5324 31.8001C31.3218 31.8001 31.9511 31.6614 32.4204 31.3841C32.9111 31.0854 33.2844 30.6907 33.5404 30.2001C33.7964 29.7094 33.9564 29.1334 34.0204 28.4721C34.1058 27.8107 34.1484 27.1067 34.1484 26.3601C34.1484 25.5707 34.1058 24.8454 34.0204 24.1841C33.9351 23.5014 33.7644 22.9147 33.5084 22.4241C33.2524 21.9334 32.8898 21.5494 32.4204 21.2721C31.9511 20.9947 31.3218 20.8561 30.5324 20.8561C29.7431 20.8561 29.0924 20.9841 28.5804 21.2401C28.0684 21.4747 27.6524 21.8267 27.3324 22.2961C27.0338 22.7654 26.8204 23.3414 26.6924 24.0241C26.5858 24.7067 26.5324 25.4854 26.5324 26.3601C26.5324 27.1921 26.5858 27.9494 26.6924 28.6321C26.8204 29.2934 27.0338 29.8587 27.3324 30.3281C27.6524 30.7974 28.0684 31.1601 28.5804 31.4161C29.0924 31.6721 29.7431 31.8001 30.5324 31.8001Z" fill="currentColor"/>
<path d="M44.8884 15.3201C44.3764 15.3201 43.9498 15.2987 43.6084 15.2561C43.2671 15.1921 43.0004 15.0747 42.8084 14.9041C42.6164 14.7334 42.4778 14.4881 42.3924 14.1681C42.3284 13.8481 42.2964 13.4107 42.2964 12.8561C42.2964 12.3227 42.3284 11.8961 42.3924 11.5761C42.4778 11.2561 42.6164 11.0107 42.8084 10.8401C43.0004 10.6694 43.2671 10.5627 43.6084 10.5201C43.9498 10.4774 44.3764 10.4561 44.8884 10.4561C45.4218 10.4561 45.8484 10.4774 46.1684 10.5201C46.5098 10.5627 46.7764 10.6694 46.9684 10.8401C47.1604 11.0107 47.2884 11.2561 47.3524 11.5761C47.4378 11.8961 47.4804 12.3227 47.4804 12.8561C47.4804 13.4107 47.4378 13.8481 47.3524 14.1681C47.2884 14.4881 47.1604 14.7334 46.9684 14.9041C46.7764 15.0747 46.5098 15.1921 46.1684 15.2561C45.8484 15.2987 45.4218 15.3201 44.8884 15.3201ZM40.6644 41.4001C40.2804 41.4001 39.9178 41.3787 39.5764 41.3361C39.2351 41.3147 38.9151 41.2827 38.6164 41.2401V37.7841C38.8298 37.8267 39.0751 37.8587 39.3524 37.8801C39.6298 37.9014 39.8964 37.9121 40.1524 37.9121C40.6644 37.9121 41.0804 37.8587 41.4004 37.7521C41.7204 37.6454 41.9658 37.4641 42.1364 37.2081C42.3071 36.9734 42.4138 36.6534 42.4564 36.2481C42.5204 35.8427 42.5524 35.3414 42.5524 34.7441V17.7201H47.1924V34.9361C47.1924 36.2801 47.0431 37.3681 46.7444 38.2001C46.4671 39.0534 46.0404 39.7147 45.4644 40.1841C44.9098 40.6534 44.2271 40.9734 43.4164 41.1441C42.6058 41.3147 41.6884 41.4001 40.6644 41.4001Z" fill="currentColor"/>
</svg>
