<svg width="48" height="48" viewBox="0 0 48 48" fill="none" xmlns="http://www.w3.org/2000/svg">
<path d="M15.2217 32.1998C10.9874 32.1998 8.50024 30.7611 8.50024 24.9658C8.50024 19.1907 10.9874 17.7317 15.2217 17.7317C19.4765 17.7317 21.9431 19.1907 21.9431 24.9658C21.9431 30.7611 19.4765 32.1998 15.2217 32.1998ZM15.2217 28.8766C17.1744 28.8766 17.6472 27.985 17.6472 24.9658C17.6472 21.906 17.1744 20.9942 15.2217 20.9942C13.269 20.9942 12.8168 21.906 12.8168 24.9658C12.8168 27.985 13.269 28.8766 15.2217 28.8766Z" fill="currentColor"/>
<path d="M28.7034 20.8523C31.781 20.8523 34.2761 23.3472 34.2761 26.4248C34.2761 29.5023 31.7812 31.9972 28.7036 31.9972L22.9298 31.9972V15.9998H26.8352V20.8523C26.8352 20.8523 27.6227 20.8523 28.7034 20.8523ZM26.8352 28.7977H28.5014C29.756 28.7977 30.7731 27.7807 30.7731 26.5261C30.7731 25.1301 29.6414 23.9985 28.2455 23.9985H26.8352V28.7977Z" fill="currentColor"/>
<path d="M37.3831 19.8701C35.5948 19.8701 35.2659 19.6877 35.2659 17.9045C35.2659 16.1416 35.5948 15.9998 37.3831 15.9998C39.1919 15.9998 39.5002 16.1416 39.5002 17.9045C39.5002 19.6877 39.1919 19.8701 37.3831 19.8701ZM39.3358 32.9998C39.3358 35.2089 37.5449 36.9998 35.3358 36.9998H33.0002V32.9998H34.4304C34.9827 32.9998 35.4304 32.5543 35.4304 32.002C35.4304 27.8082 35.4304 21.0048 35.4304 21.0048H39.3358V32.9998Z" fill="currentColor"/>
<path d="M10.0012 9.00171H6.0022V38.9998H10.0012V43.0017H2.00024V4.99976H10.0012V9.00171Z" fill="currentColor"/>
<path d="M46.0012 4.99976V43.0017H38.0002V38.9998H41.9993V9.00171H38.0002V4.99976H46.0012Z" fill="currentColor"/>
</svg>
