<svg width="20" height="20" viewBox="0 0 20 20" fill="none" xmlns="http://www.w3.org/2000/svg">
<rect width="20" height="20" rx="2" fill="#DFB632"/>
<path d="M6.11224 8.51061C6.38384 8.51061 6.60113 8.29333 6.60113 8.02172C6.60113 7.75012 6.38384 7.53283 6.11224 7.53283C5.32846 7.53283 4.69213 6.8965 4.69213 6.11273C4.69213 5.32895 5.32846 4.69262 6.11224 4.69262C6.89601 4.69262 7.53234 5.32895 7.53234 6.11273C7.53234 6.38433 7.74963 6.60162 8.02123 6.60162C8.29284 6.60162 8.51012 6.38433 8.51012 6.11273C8.51012 4.7935 7.43922 3.71484 6.11224 3.71484C4.78526 3.71484 3.71436 4.7935 3.71436 6.11273C3.71436 7.43195 4.79302 8.51061 6.11224 8.51061ZM11.9789 6.60162C12.2505 6.60162 12.4678 6.38433 12.4678 6.11273C12.4678 5.32895 13.1041 4.69262 13.8879 4.69262C14.6717 4.69262 15.308 5.32895 15.308 6.11273C15.308 6.8965 14.6717 7.53283 13.8879 7.53283C13.6163 7.53283 13.399 7.75012 13.399 8.02172C13.399 8.29333 13.6163 8.51061 13.8879 8.51061C15.2071 8.51061 16.2858 7.43971 16.2858 6.11273C16.2858 4.78574 15.2071 3.71484 13.8879 3.71484C12.5687 3.71484 11.49 4.78574 11.49 6.11273C11.49 6.38433 11.7073 6.60162 11.9789 6.60162ZM8.02123 13.3995C7.74963 13.3995 7.53234 13.6168 7.53234 13.8884C7.53234 14.6722 6.89601 15.3085 6.11224 15.3085C5.32846 15.3085 4.69213 14.6722 4.69213 13.8884C4.69213 13.1046 5.32846 12.4683 6.11224 12.4683C6.38384 12.4683 6.60113 12.251 6.60113 11.9794C6.60113 11.7078 6.38384 11.4905 6.11224 11.4905C4.79302 11.4905 3.71436 12.5614 3.71436 13.8884C3.71436 15.2076 4.78526 16.2863 6.11224 16.2863C7.43922 16.2863 8.51012 15.2154 8.51012 13.8884C8.51012 13.6168 8.29284 13.3995 8.02123 13.3995ZM13.8879 11.4905C13.6163 11.4905 13.399 11.7078 13.399 11.9794C13.399 12.251 13.6163 12.4683 13.8879 12.4683C14.6717 12.4683 15.308 13.1046 15.308 13.8884C15.308 14.6722 14.6717 15.3085 13.8879 15.3085C13.1041 15.3085 12.4678 14.6722 12.4678 13.8884C12.4678 13.6168 12.2505 13.3995 11.9789 13.3995C11.7073 13.3995 11.49 13.6168 11.49 13.8884C11.49 15.2076 12.5609 16.2863 13.8879 16.2863C15.2071 16.2863 16.2858 15.2154 16.2858 13.8884C16.2858 12.5692 15.2071 11.4905 13.8879 11.4905Z" fill="white" stroke="white" stroke-width="0.571429"/>
<path d="M13.5464 14.2291C13.6395 14.3222 13.7637 14.3688 13.8878 14.3688C14.012 14.3688 14.1362 14.3222 14.2293 14.2291C14.4155 14.0429 14.4155 13.7324 14.2293 13.5462L12.7704 12.0873C12.2117 11.5286 11.909 10.7914 11.909 9.99982C11.909 9.20828 12.2194 8.47107 12.7704 7.91234L14.2293 6.45343C14.4155 6.26719 14.4155 5.95679 14.2293 5.77054C14.043 5.5843 13.7326 5.5843 13.5464 5.77054L12.0875 7.22945C11.5288 7.78818 10.7915 8.09082 10 8.09082H9.99225C9.20072 8.09082 8.4635 7.78042 7.90477 7.22169L6.45363 5.77054C6.26738 5.5843 5.95698 5.5843 5.77073 5.77054C5.58449 5.95679 5.58449 6.26719 5.77073 6.45343L7.22964 7.91234C7.78837 8.47107 8.09102 9.20828 8.09102 9.99982C8.09102 10.7526 7.81165 11.4587 7.29948 12.0097C7.26844 12.033 7.24516 12.064 7.21412 12.0873C7.1986 12.1028 7.18308 12.1183 7.16756 12.1416L5.76297 13.5462C5.57673 13.7324 5.57673 14.0429 5.76297 14.2291C5.8561 14.3222 5.98026 14.3688 6.10442 14.3688C6.22858 14.3688 6.35274 14.3222 6.44587 14.2291L7.90477 12.7702C7.92805 12.7469 7.95133 12.7159 7.97461 12.6926C9.13088 11.6217 10.9467 11.645 12.072 12.7702L13.5464 14.2291Z" fill="white"/>
<path d="M10 9.0686H9.99225C9.61976 9.0686 9.25504 9.01428 8.90583 8.9134C9.10759 9.61957 9.10759 10.3801 8.90583 11.094C9.25504 10.9931 9.61976 10.9388 9.99225 10.9388C10.3725 10.9388 10.745 10.9931 11.0942 11.1018M13.5464 14.2291C13.6395 14.3222 13.7637 14.3688 13.8878 14.3688C14.012 14.3688 14.1362 14.3222 14.2293 14.2291C14.4155 14.0429 14.4155 13.7324 14.2293 13.5462L12.7704 12.0873C12.2117 11.5286 11.909 10.7914 11.909 9.99982C11.909 9.20828 12.2194 8.47107 12.7704 7.91234L14.2293 6.45343C14.4155 6.26719 14.4155 5.95679 14.2293 5.77054C14.043 5.5843 13.7326 5.5843 13.5464 5.77054L12.0875 7.22945C11.5288 7.78818 10.7915 8.09082 10 8.09082H9.99225C9.20072 8.09082 8.4635 7.78042 7.90477 7.22169L6.45363 5.77054C6.26738 5.5843 5.95698 5.5843 5.77073 5.77054C5.58449 5.95679 5.58449 6.26719 5.77073 6.45343L7.22964 7.91234C7.78837 8.47107 8.09102 9.20828 8.09102 9.99982C8.09102 10.7526 7.81165 11.4587 7.29948 12.0097C7.26844 12.033 7.24516 12.064 7.21412 12.0873C7.1986 12.1028 7.18308 12.1183 7.16756 12.1416L5.76297 13.5462C5.57673 13.7324 5.57673 14.0429 5.76297 14.2291C5.8561 14.3222 5.98026 14.3688 6.10442 14.3688C6.22858 14.3688 6.35274 14.3222 6.44587 14.2291L7.90477 12.7702C7.92805 12.7469 7.95133 12.7159 7.97461 12.6926C9.13088 11.6217 10.9467 11.645 12.072 12.7702L13.5464 14.2291Z" stroke="white" stroke-width="0.571429"/>
</svg>
