<svg width="20" height="20" viewBox="0 0 20 20" fill="none" xmlns="http://www.w3.org/2000/svg">
<rect width="20" height="20" rx="2" fill="#4672F5"/>
<path fill-rule="evenodd" clip-rule="evenodd" d="M12.2698 5.44541C13.0333 5.43658 13.6575 6.05288 13.6575 6.8165V13.2003C13.6575 13.9577 13.0428 14.5714 12.2854 14.5714H4.74243C3.9852 14.5712 3.37139 13.9575 3.37134 13.2003V6.90439C3.37134 6.15319 3.97566 5.54106 4.72681 5.53232L12.2698 5.44541ZM6.80005 10.4581C6.42149 10.4581 6.11475 10.7642 6.1145 11.1427C6.1145 11.5214 6.42134 11.8282 6.80005 11.8282H7.37134C7.75005 11.8282 8.05688 11.5214 8.05688 11.1427C8.05663 10.7642 7.74989 10.4581 7.37134 10.4581H6.80005Z" fill="white"/>
<path d="M15.9428 6.57227L13.0857 8.22184V12.2866L15.9428 14.0008V6.57227Z" fill="white" stroke="white" stroke-width="1.37143" stroke-miterlimit="16" stroke-linecap="round" stroke-linejoin="round"/>
</svg>
