<svg width="20" height="20" viewBox="0 0 20 20" fill="none" xmlns="http://www.w3.org/2000/svg">
<rect width="20" height="20" rx="2" fill="#FF9326"/>
<path d="M11.3848 4C12.4041 4.0001 13.2312 4.82637 13.2314 5.8457C13.2314 6.18238 13.1399 6.49776 12.9824 6.76953H15C15.5521 6.76973 16 7.21737 16 7.76953V9.53906C14.9807 9.53929 14.1545 10.3655 14.1543 11.3848C14.1544 12.3405 14.8807 13.1271 15.8115 13.2217L16 13.2314V15C15.9999 15.5521 15.552 15.9998 15 16H7.76953C7.21731 16 6.76963 15.5522 6.76953 15V12.9824C6.49775 13.1399 6.18241 13.2314 5.8457 13.2314C4.82631 13.2312 4 12.4042 4 11.3848C4.00023 10.3655 4.82645 9.53929 5.8457 9.53906C6.18226 9.53906 6.49783 9.62977 6.76953 9.78711V7.76953C6.76953 7.21725 7.21725 6.76953 7.76953 6.76953H9.78809C9.6306 6.49773 9.53906 6.18244 9.53906 5.8457C9.53929 4.82645 10.3655 4.00023 11.3848 4Z" fill="white"/>
</svg>
