<svg width="20" height="20" viewBox="0 0 20 20" fill="none" xmlns="http://www.w3.org/2000/svg">
<rect width="20" height="20" rx="2" fill="#4672F5"/>
<path d="M7.69158 14.0332H6.34705L5.42871 15.7139H15.1766L13.8321 14.0332L12.4875 14.0332" stroke="white" stroke-width="1.37143" stroke-miterlimit="16" stroke-linecap="round" stroke-linejoin="round"/>
<path d="M10.4836 3.60547C13.0309 3.73473 15.0569 5.84152 15.0569 8.4209C15.0567 9.73799 14.5261 10.9308 13.6711 11.7998C13.6488 11.8281 13.6241 11.855 13.5969 11.8799L10.7004 14.5391C10.4382 14.7798 10.035 14.7797 9.77271 14.5391L7.04907 12.0361V12.0352C6.99379 11.9864 6.93636 11.9354 6.88013 11.8809V11.8799L6.87524 11.876C6.87146 11.8724 6.86815 11.8679 6.8645 11.8643V11.8652C5.9718 10.9913 5.41545 9.77074 5.41528 8.4209C5.41528 5.7585 7.57299 3.59984 10.2356 3.59961L10.4836 3.60547ZM10.135 6.28906C9.01378 6.28906 8.10481 7.19812 8.10474 8.31934C8.10491 9.44046 9.01384 10.3496 10.135 10.3496C11.2558 10.3492 12.1641 9.44021 12.1643 8.31934C12.1642 7.19837 11.2559 6.28947 10.135 6.28906ZM10.135 7.66016C10.4985 7.66056 10.7931 7.95579 10.7932 8.31934C10.793 8.68279 10.4984 8.97714 10.135 8.97754C9.77126 8.97754 9.47503 8.68304 9.47485 8.31934C9.47493 7.95554 9.7712 7.66016 10.135 7.66016Z" fill="white"/>
</svg>
