<svg width="20" height="20" viewBox="0 0 20 20" fill="none" xmlns="http://www.w3.org/2000/svg">
<rect width="20" height="20" rx="2" fill="#F95252"/>
<g clip-path="url(#clip0_5503_55984)">
<path d="M14.9418 5.06282C14.8675 5.16538 14.7905 5.26389 14.7095 5.36105L13.5849 6.71048C13.1137 7.27454 12.6951 7.88718 12.3373 8.52951L12.0916 8.97078C11.9444 9.23527 11.7608 9.47951 11.5461 9.69407L11.2599 9.98015L11.2964 10.3836L11.6177 13.8922C11.6433 14.1688 11.7622 14.4144 11.9431 14.5979L11.7136 14.8273C11.6623 14.7504 11.6028 14.6789 11.5353 14.6128L9.47231 12.5508C9.25764 12.3363 8.97276 12.2189 8.66897 12.2189C8.36519 12.2189 8.08031 12.3376 7.86564 12.5508L7.38633 13.0299C7.10415 13.3119 6.91918 13.6682 6.84763 14.0514C6.70316 13.9596 6.53709 13.9111 6.36427 13.9111C6.24681 13.9111 6.12935 13.934 6.01999 13.9785C6.08074 13.8314 6.10099 13.6682 6.07939 13.5089C6.06049 13.3807 6.01458 13.2593 5.94573 13.1513C6.33187 13.0812 6.68426 12.8976 6.96509 12.6183L7.44979 12.1338C7.66446 11.9193 7.78193 11.6346 7.78193 11.3309C7.78193 11.0273 7.66311 10.7426 7.44979 10.528L5.38542 8.46339C5.31656 8.39457 5.24095 8.33385 5.16129 8.27987L5.39082 8.05047C5.57714 8.23804 5.82556 8.35679 6.10369 8.38243L9.61543 8.70629L10.0205 8.74407L10.3067 8.45664L10.3081 8.4553C10.5214 8.24208 10.7631 8.05991 11.0277 7.91282L11.4786 7.66183C12.1159 7.30828 12.7221 6.89265 13.2824 6.42575L14.6461 5.29088C14.7419 5.21126 14.8405 5.13569 14.9418 5.06282ZM16.5282 3.14258C16.4769 3.14258 16.4229 3.15472 16.3702 3.18306C15.8342 3.47184 15.1915 3.83484 14.7946 4.11957C14.5502 4.27205 14.3153 4.44073 14.0939 4.6256L12.7302 5.76048C12.2104 6.19365 11.6514 6.57688 11.0601 6.9048L10.6091 7.15579C10.2756 7.34201 9.96782 7.57277 9.69779 7.84265L9.69644 7.844L6.1847 7.52014C5.93763 7.4972 5.82962 7.19762 6.00513 7.0222C6.11585 6.91154 6.20361 6.80494 6.26706 6.70508C6.31972 6.61737 6.25626 6.32589 6.03889 6.32589C6.00513 6.32589 5.96733 6.33264 5.92548 6.35018C5.82556 6.4136 5.7189 6.50132 5.60819 6.61197L3.55867 8.66176L3.95696 9.07334C4.07037 8.95998 4.21754 8.90466 4.36606 8.90466C4.51457 8.90466 4.66174 8.96133 4.77515 9.07334L6.83953 11.1366C6.94619 11.2432 6.94619 11.4146 6.83953 11.5212L6.35482 12.0057C6.15095 12.2094 5.87552 12.3187 5.58929 12.3187C5.56094 12.3187 5.53393 12.3174 5.50558 12.316C5.47858 12.3147 5.45292 12.3133 5.42727 12.3133C5.00738 12.3133 4.70359 12.5616 4.29315 12.5616C4.26749 12.5616 4.24319 12.5603 4.21619 12.5589C4.19054 12.5576 4.16488 12.5562 4.13923 12.5562C3.8746 12.5562 3.61942 12.6615 3.4304 12.849C3.24678 13.0353 3.14282 13.2863 3.14282 13.5481L3.75309 14.1998C3.80979 14.2565 3.88405 14.2848 3.95696 14.2848C4.03122 14.2848 4.10548 14.2565 4.16083 14.1998C4.21754 14.2565 4.2918 14.2848 4.36471 14.2848C4.43896 14.2848 4.51322 14.2565 4.56858 14.1998L5.15724 13.6115C5.16534 13.6034 5.17614 13.5993 5.18694 13.5993C5.19505 13.5993 5.2018 13.602 5.20855 13.6061C5.2261 13.6196 5.23015 13.6439 5.21665 13.6601L5.20585 13.683C5.13699 13.8328 5.06138 13.9799 4.98442 14.1256C4.85346 14.3766 4.88991 14.6897 5.09378 14.8975C5.22205 15.027 5.39217 15.0932 5.56229 15.0932C5.67165 15.0932 5.77966 15.0662 5.87957 15.0122C6.02944 14.9299 6.18335 14.8543 6.33727 14.7828L6.34672 14.7787C6.35212 14.776 6.35752 14.7747 6.36427 14.7747C6.37102 14.7747 6.37777 14.776 6.38318 14.7801C6.40343 14.7936 6.40613 14.8219 6.38993 14.8395L5.79856 15.4292C5.68515 15.5425 5.68515 15.7247 5.79856 15.838C5.68515 15.9514 5.68515 16.1336 5.79856 16.2469L6.45068 16.8569C6.71261 16.8569 6.96374 16.753 7.15006 16.5667L7.15816 16.5586C7.35933 16.3576 7.46194 16.0782 7.44034 15.7949L7.68202 14.4913C7.65771 14.1755 7.77248 13.8638 7.99795 13.6398L8.47725 13.1608C8.52991 13.1081 8.60012 13.0812 8.66897 13.0812C8.73918 13.0812 8.80804 13.1081 8.86069 13.1608L10.9237 15.2227C11.1492 15.4481 11.1492 15.8151 10.9237 16.0405L11.3355 16.425L13.3864 14.3766C13.4971 14.266 13.5849 14.1593 13.6483 14.0595C13.7442 13.8206 13.5214 13.7127 13.3783 13.7127C13.3432 13.7127 13.3135 13.7194 13.2932 13.7316C13.1933 13.795 13.0867 13.8827 12.9759 13.9934C12.9165 14.0527 12.8436 14.0797 12.7707 14.0797C12.629 14.0797 12.4926 13.9772 12.4777 13.8139L12.1578 10.3027C12.4291 10.0314 12.6614 9.72376 12.8477 9.3891L13.0934 8.94784C13.4242 8.35139 13.8117 7.78733 14.2491 7.2624L15.3738 5.91296C15.5601 5.69031 15.7302 5.45416 15.8828 5.20856C16.165 4.80913 16.5282 4.16545 16.8158 3.62972C16.9427 3.39492 16.7577 3.14258 16.5282 3.14258Z" fill="white"/>
<path d="M16.5279 2.85742C16.9503 2.85742 17.3066 3.31983 17.067 3.76479C16.7796 4.30024 16.4095 4.95884 16.1161 5.37416L16.115 5.37305C15.958 5.62436 15.7851 5.86757 15.5938 6.09626L14.4688 7.44559C14.0427 7.95694 13.6657 8.50683 13.3438 9.08733L13.0971 9.52818C12.9202 9.84594 12.7024 10.1391 12.4532 10.4043L12.7623 13.7882C12.7624 13.7896 12.7622 13.7909 12.7623 13.7916C12.7628 13.792 12.765 13.7931 12.7668 13.7938C12.768 13.7942 12.7692 13.7937 12.7701 13.7938C12.7707 13.7934 12.773 13.7932 12.7746 13.7916C12.8959 13.6704 13.019 13.5686 13.1407 13.4914L13.1462 13.4869C13.2264 13.4388 13.3132 13.4277 13.3784 13.4277L13.4799 13.4367C13.5865 13.4546 13.7034 13.5011 13.7969 13.5873C13.8635 13.6489 13.9212 13.7348 13.9453 13.844C13.9694 13.9533 13.9554 14.0637 13.9141 14.1666L13.9041 14.1911L13.8895 14.2134C13.8122 14.3352 13.7096 14.4582 13.5882 14.5795L11.3427 16.8228L10.5123 16.0483L10.7221 15.8384C10.8355 15.7247 10.8356 15.5392 10.7221 15.4255L8.66856 13.373L8.19981 13.8429C8.03413 14.0075 7.94863 14.2373 7.96655 14.4701L7.9699 14.507L7.9632 14.5438L7.72548 15.8172C7.74012 16.1681 7.6107 16.5113 7.36053 16.7614L7.3516 16.7693C7.11188 17.0087 6.78863 17.1431 6.45093 17.1431H6.3382L6.25561 17.0661L5.60383 16.4556L5.59602 16.4501C5.43088 16.2845 5.38734 16.0433 5.46544 15.8384C5.40829 15.6883 5.41766 15.52 5.49111 15.3753C5.27165 15.3586 5.0564 15.2669 4.89066 15.0996L4.88954 15.0985C4.72619 14.932 4.64064 14.7197 4.62615 14.5036C4.54344 14.5463 4.45458 14.5706 4.36499 14.5706C4.29575 14.5706 4.22664 14.5568 4.16075 14.5315C4.09468 14.5567 4.02537 14.5706 3.95651 14.5706C3.81033 14.5705 3.66314 14.5138 3.55137 14.4021L3.54468 14.3954L2.93419 13.7436L2.85718 13.661V13.5483C2.85727 13.2108 2.99089 12.8878 3.2266 12.6487L3.22883 12.6465C3.47112 12.406 3.79917 12.2715 4.13954 12.2715C4.17377 12.2715 4.20675 12.2724 4.23106 12.2737L4.29356 12.2759C4.44347 12.2759 4.57791 12.2318 4.76343 12.1677C4.93882 12.1071 5.16301 12.0282 5.42749 12.0282C5.46168 12.0282 5.4952 12.0303 5.52012 12.0315C5.5496 12.0329 5.56928 12.0338 5.58932 12.0338C5.80276 12.0338 6.0047 11.952 6.15294 11.8039L6.62727 11.3295L4.57481 9.27706L4.52794 9.23912C4.47874 9.20671 4.42258 9.19113 4.36611 9.19113C4.28929 9.19113 4.21554 9.21895 4.15852 9.27595L3.95316 9.48131L3.75227 9.2726L3.15852 8.65876L5.40628 6.41099C5.52771 6.28964 5.65055 6.18699 5.77236 6.10965L5.79245 6.09626L5.81477 6.08733C5.89015 6.05574 5.96588 6.04046 6.0391 6.04046L6.13285 6.04939C6.33871 6.08668 6.46173 6.24312 6.51678 6.3697C6.54872 6.44335 6.5656 6.5217 6.56923 6.59514C6.57238 6.65945 6.56753 6.76097 6.51231 6.85296L6.50785 6.85854C6.43052 6.98022 6.32893 7.10333 6.20762 7.22461C6.20645 7.22578 6.20464 7.22747 6.20428 7.22796C6.20425 7.22849 6.20465 7.23036 6.20539 7.23242C6.20631 7.23474 6.20763 7.23576 6.20762 7.23577H6.21097L9.59378 7.54827C9.85881 7.29944 10.1533 7.08333 10.4699 6.90653L10.9208 6.65541C11.4962 6.33635 12.041 5.96314 12.5469 5.54157L13.9107 4.40653C14.1427 4.21286 14.3882 4.03646 14.6429 3.87751C15.0573 3.58262 15.7056 3.21709 16.2344 2.9322C16.3298 2.88087 16.4309 2.85747 16.5279 2.85742ZM16.519 3.42997C16.5157 3.4308 16.5109 3.4327 16.5056 3.43555C15.9688 3.72474 15.3411 4.07919 14.961 4.35184L14.9543 4.35742L14.9465 4.363C14.7126 4.50894 14.4876 4.66918 14.2768 4.84514L12.913 5.98019C12.3795 6.42479 11.8059 6.81874 11.1987 7.15541L10.7478 7.40653L10.7467 7.40541C10.436 7.57905 10.1501 7.79453 9.89959 8.04492L9.89847 8.04715L9.80361 8.1409L6.15852 7.80497C5.67386 7.75997 5.45988 7.1758 5.79579 6.8284L3.95874 8.66546L3.99669 8.70452C4.11389 8.64913 4.23958 8.6197 4.36611 8.6197C4.56009 8.6197 4.75294 8.68415 4.91075 8.81166L4.97548 8.87081L4.97771 8.87193L7.04133 10.9355C7.25952 11.1537 7.25955 11.5053 7.04133 11.7235L6.55695 12.2079C6.29745 12.4672 5.94834 12.6052 5.58932 12.6052C5.55296 12.6052 5.5189 12.6031 5.49222 12.6018C5.46343 12.6004 5.44445 12.5996 5.42749 12.5996C5.2721 12.5996 5.13388 12.6443 4.94981 12.7079C4.77608 12.7679 4.55376 12.8473 4.29356 12.8474C4.25918 12.8474 4.22637 12.8464 4.20204 12.8451C4.17542 12.8437 4.1563 12.8429 4.13954 12.8429C3.95066 12.8429 3.76748 12.918 3.63173 13.0527C3.52619 13.1608 3.45935 13.2986 3.43753 13.4456L3.95651 13.9992L4.15852 13.7938L4.36276 13.998C4.36372 13.999 4.36473 13.9991 4.36499 13.9992L4.36611 13.998L4.95539 13.4099L5.00785 13.3675C5.06304 13.3315 5.12653 13.3139 5.18753 13.3139L5.2891 13.3306L5.35606 13.3619L5.36945 13.3697L5.38285 13.3797C5.49396 13.4652 5.55207 13.6349 5.47548 13.7826L5.46432 13.805C5.39274 13.9605 5.31369 14.111 5.23664 14.257L5.23776 14.2581C5.16125 14.4047 5.18517 14.5818 5.29691 14.6967L5.35606 14.7458C5.41824 14.7871 5.49045 14.8083 5.56253 14.8083C5.59325 14.8083 5.62377 14.8037 5.65405 14.796L5.74334 14.7614C5.9002 14.6753 6.0596 14.5967 6.21655 14.5237L6.22436 14.5204L6.23441 14.517C6.27531 14.4991 6.31886 14.4892 6.36387 14.4891C6.4015 14.4891 6.47112 14.4966 6.54021 14.5427C6.5414 14.5435 6.54351 14.5452 6.54468 14.546C6.54777 14.5482 6.55164 14.5493 6.55472 14.5516L6.55361 14.5527C6.7137 14.6702 6.72696 14.8956 6.59936 15.0338L6.59155 15.0427L6.00003 15.6309V15.6331L5.99892 15.6353L6.20316 15.8384L5.99892 16.0427L6.00115 16.0449L6.55249 16.5617C6.7008 16.5399 6.84038 16.4735 6.9487 16.3652L6.95651 16.3574C7.09829 16.2157 7.17045 16.0181 7.15517 15.8172L7.15294 15.7804L7.15963 15.7436L7.39512 14.4634C7.37983 14.0823 7.52284 13.7092 7.79579 13.4378L8.2757 12.959L8.36276 12.8887C8.45522 12.8277 8.56215 12.7961 8.66856 12.796L8.77682 12.8061C8.88237 12.8269 8.98209 12.8787 9.06253 12.959L11.1262 15.0215C11.3898 15.2853 11.444 15.6771 11.2947 15.9969L11.3282 16.0282L13.1016 14.2581C13.0016 14.3294 12.887 14.3663 12.7712 14.3664C12.498 14.3664 12.2229 14.1665 12.1931 13.8407L11.8728 10.3295L11.8616 10.1956L11.9554 10.1007C12.208 9.84823 12.4248 9.56182 12.5982 9.25028L12.8438 8.80943L13.1094 8.35742C13.3856 7.91093 13.6935 7.48347 14.0302 7.07952L15.1541 5.73019C15.3315 5.51816 15.495 5.29275 15.6407 5.05831L15.6451 5.05162L15.6496 5.04381C15.9205 4.66023 16.276 4.03054 16.5637 3.4947C16.5706 3.48176 16.5716 3.47353 16.5715 3.47015C16.5711 3.46569 16.5693 3.45936 16.5648 3.45229C16.5535 3.43484 16.5367 3.42885 16.5279 3.42885C16.5251 3.42887 16.5221 3.42922 16.519 3.42997ZM15.173 5.23131C15.0948 5.33936 15.0134 5.44322 14.9286 5.54492L13.8047 6.89425C13.3454 7.4441 12.9364 8.04174 12.5871 8.66881L12.3416 9.11077C12.1817 9.39799 11.9814 9.66301 11.7478 9.89648L11.5558 10.0873L11.5815 10.3585L11.9018 13.8664L11.9297 14.0193C11.9695 14.1659 12.0452 14.295 12.1462 14.3976L12.346 14.5996L11.6697 15.2759L11.4755 14.9869C11.4354 14.9268 11.3896 14.8698 11.336 14.8172L9.27012 12.7536C9.10931 12.5929 8.89696 12.5047 8.66856 12.5047C8.44145 12.5049 8.22843 12.5926 8.067 12.7525L7.5882 13.2324C7.34733 13.4732 7.1895 13.7771 7.12838 14.1041L7.05137 14.5193L6.69423 14.2927C6.59561 14.2301 6.48222 14.1978 6.36387 14.1978C6.28351 14.1979 6.20227 14.213 6.12727 14.2436L5.49557 14.5014L5.75561 13.8697C5.79655 13.7705 5.81071 13.6586 5.79579 13.5483C5.78253 13.4622 5.75196 13.3793 5.70539 13.3061L5.4766 12.9467L5.89512 12.8708C6.22401 12.811 6.52372 12.6549 6.76343 12.4166L7.2478 11.9322C7.40854 11.7715 7.49662 11.5598 7.49669 11.3318C7.49669 11.161 7.44663 10.9983 7.35383 10.8597L7.2478 10.7302L5.18307 8.66546C5.12873 8.61115 5.06798 8.56231 5.00115 8.51702L4.71432 8.32282L4.95986 8.0784L5.18865 7.84849L5.39178 7.64648L5.59378 7.84961C5.7322 7.98892 5.91759 8.07885 6.1295 8.09849L9.64178 8.42215L9.91186 8.44671L10.1038 8.25586L10.1061 8.25363C10.3381 8.02168 10.6008 7.82311 10.8884 7.66323L11.3393 7.41323L11.3404 7.41211C11.9617 7.06738 12.5529 6.66208 13.0994 6.20675L14.4632 5.07171L14.7746 4.83175L15.173 5.23131ZM8.06811 11.3318C8.06805 11.7107 7.92021 12.0679 7.65182 12.3362L7.16633 12.8217C6.92889 13.0578 6.6458 13.2331 6.33597 13.3418L6.33709 13.3429L6.36164 13.4679L6.36276 13.4713C6.36973 13.5227 6.37249 13.5746 6.3728 13.6264C6.46987 13.6271 6.56498 13.6408 6.6574 13.6643C6.76721 13.3538 6.94492 13.0676 7.18419 12.8284L7.6641 12.3496C7.93169 12.0838 8.28883 11.9334 8.66856 11.9333C9.0477 11.9333 9.40561 12.0812 9.67414 12.3496L11.3471 14.0204L11.3337 13.9188L10.9632 9.87305L11.3438 9.49247C11.5393 9.29705 11.7071 9.07431 11.8416 8.83287L12.0882 8.3909C12.3488 7.92315 12.6413 7.47089 12.9621 7.04046C12.6833 7.24851 12.3962 7.44574 12.1005 7.62863L11.6172 7.91211L11.1663 8.16323C10.9249 8.29744 10.7045 8.46336 10.5101 8.65764L10.509 8.65876L10.2232 8.94671L10.1284 9.04157L9.99445 9.0293L9.58932 8.99135L6.07704 8.66769C6.04388 8.66462 6.01134 8.65838 5.97883 8.65318L7.65294 10.3273C7.91877 10.5948 8.06811 10.9521 8.06811 11.3318Z" fill="white"/>
<path d="M9.93006 8.09419L15.3715 4.28516L11.5625 9.72664C11.2936 10.1108 11.1493 10.5684 11.1493 11.0374V14.6899C11.1493 14.9398 10.9468 15.1423 10.6969 15.1423C10.5991 15.1423 10.5038 15.1106 10.4255 15.0518L9.25231 14.1719C8.58928 13.6746 7.67762 13.6746 7.01459 14.1719L6.35467 14.6669C5.99093 14.9397 5.48195 14.9035 5.16045 14.582C4.80365 14.2252 4.80365 13.6467 5.16045 13.2899L6.0876 12.3628C6.23892 12.2114 6.32393 12.0062 6.32393 11.7922C6.32393 11.6176 6.2673 11.4478 6.16255 11.3081L4.86079 9.57239C4.66203 9.30739 4.68839 8.93657 4.92262 8.70234C5.04745 8.57751 5.21676 8.50738 5.39329 8.50738H8.61929C9.08826 8.50738 9.54587 8.36313 9.93006 8.09419Z" fill="white"/>
</g>
<defs>
<clipPath id="clip0_5503_55984">
<rect width="16" height="16" fill="white" transform="translate(2 2)"/>
</clipPath>
</defs>
</svg>
