<svg width="20" height="20" viewBox="0 0 20 20" fill="none" xmlns="http://www.w3.org/2000/svg">
<rect width="20" height="20" rx="2" fill="#00B7F4"/>
<path d="M13.8758 12.2953V13.8831C13.8758 14.7601 14.5866 15.4708 15.4635 15.4708H15.7806V12.2953H13.8758ZM13.4003 14.126V5.14286C13.4003 4.6699 13.0168 4.28516 12.5425 4.28516H5.07707C4.604 4.28516 4.21924 4.66862 4.21924 5.14286V13.3998C4.21924 14.6771 5.25475 15.7137 6.53304 15.7137H14.9625V15.7111C14.0971 15.697 13.4003 14.994 13.4003 14.126ZM9.7494 11.1104H7.20932C6.85898 11.1104 6.57404 10.8265 6.57404 10.475C6.57404 10.1248 6.85783 9.83955 7.20932 9.83955H9.7494C10.0996 9.83955 10.3847 10.1235 10.3847 10.475C10.3847 10.8254 10.0996 11.1104 9.7494 11.1104ZM10.8603 8.09477H7.05073C6.70052 8.09477 6.41544 7.81085 6.41544 7.45936C6.41544 7.10915 6.69923 6.82395 7.05073 6.82395H10.8603C11.2105 6.82395 11.4956 7.10787 11.4956 7.45936C11.4956 7.80955 11.2105 8.09477 10.8603 8.09477Z" fill="white"/>
</svg>
