<svg width="20" height="20" viewBox="0 0 20 20" fill="none" xmlns="http://www.w3.org/2000/svg">
<rect width="20" height="20" rx="2" fill="#733FF5"/>
<path d="M3.84811 12.2817L7.86232 4.00081C8.05043 3.61277 8.60863 3.62891 8.77402 4.02716L12.2127 12.3081C12.3495 12.6373 12.1075 12.9998 11.751 12.9998H4.29803C3.92901 12.9998 3.68714 12.6138 3.84811 12.2817Z" fill="white"/>
<path d="M12.3213 7.78516C14.629 7.78523 16.5 9.65615 16.5 11.9639C16.4999 14.2715 14.6289 16.1425 12.3213 16.1426C10.6864 16.1426 9.27146 15.203 8.58496 13.835L13.4229 13.7236C13.6327 13.7186 13.7724 13.505 13.6934 13.3105L11.4805 7.86914C11.752 7.81369 12.0334 7.78516 12.3213 7.78516Z" fill="white"/>
</svg>
