<svg width="20" height="20" viewBox="0 0 20 20" fill="none" xmlns="http://www.w3.org/2000/svg">
<rect width="20" height="20" rx="2" fill="#733FF5"/>
<path d="M13.4284 6.91378V4.62807C13.4284 4.31248 13.1726 4.05664 12.857 4.05664H7.14272C6.82713 4.05664 6.57129 4.31248 6.57129 4.62807V6.91378" stroke="white" stroke-width="1.37143" stroke-miterlimit="16" stroke-linejoin="round"/>
<path fill-rule="evenodd" clip-rule="evenodd" d="M11.6008 12.629C11.6008 13.0076 11.9068 13.3144 12.2854 13.3145C12.6641 13.3145 12.9709 13.0077 12.9709 12.629V12.171H16.8567V14.6866C16.8565 15.4438 16.2429 16.0577 15.4856 16.0577H4.51392C3.75665 16.0575 3.14282 15.4429 3.14282 14.6856V12.171H7.02856V12.629C7.02856 13.0076 7.33547 13.3144 7.71411 13.3145C8.09282 13.3145 8.39966 13.0077 8.39966 12.629V12.171H11.6008V12.629ZM15.4719 5.78522C16.2346 5.77774 16.8567 6.39461 16.8567 7.15729V10.8008H12.9709V10.3428C12.9707 9.96435 12.6639 9.65827 12.2854 9.65827C11.907 9.65842 11.6011 9.96445 11.6008 10.3428V10.8008H8.39966V10.3428C8.3994 9.96435 8.09266 9.65827 7.71411 9.65827C7.33563 9.65835 7.02883 9.9644 7.02856 10.3428V10.8008H3.14282V7.26472C3.14282 6.51255 3.74909 5.901 4.50122 5.89362L15.4719 5.78522Z" fill="white"/>
</svg>
