<svg width="20" height="20" viewBox="0 0 20 20" fill="none" xmlns="http://www.w3.org/2000/svg">
<rect width="20" height="20" rx="2" fill="#5FC25F"/>
<path d="M14.5715 9.42913L15.7144 12.2863C15.5239 12.8577 14.8001 13.8863 13.4286 13.4291C11.7144 12.8577 12.2858 12.2863 11.1429 12.2863C10.0001 12.2863 10.0001 13.4291 8.28578 12.8577C6.91436 12.4006 6.19055 12.2863 6.00007 12.2863L3.71436 9.42913V7.71484L14.5715 9.42913Z" fill="white"/>
<path d="M3.82146 7.03767L14.6786 8.75196L14.7657 8.77204C14.9655 8.83104 15.129 8.97851 15.2076 9.17495L16.3505 12.0321C16.4107 12.1826 16.4162 12.3493 16.365 12.5031C16.2351 12.8929 15.9329 13.4264 15.4152 13.7999C14.8627 14.1985 14.1095 14.3791 13.2121 14.0801C12.74 13.9227 12.3981 13.7568 12.134 13.5845C11.866 13.4097 11.7003 13.2413 11.5871 13.1281C11.4705 13.0115 11.4597 13.0105 11.4509 13.0064C11.4435 13.003 11.3771 12.9718 11.1429 12.9718C10.8187 12.9718 10.7692 13.082 10.2813 13.3747C10.05 13.5135 9.75618 13.6512 9.36499 13.6917C8.98274 13.7312 8.56087 13.6725 8.06923 13.5087C7.40102 13.2859 6.89882 13.1489 6.54803 13.0689C6.37267 13.029 6.23751 13.0046 6.14066 12.9897C6.0362 12.9736 5.99543 12.9718 6.00003 12.9718C5.79173 12.9718 5.59445 12.8778 5.46432 12.7151L3.17861 9.85798C3.08134 9.7364 3.02905 9.58512 3.02905 9.42941V7.71513C3.02905 7.51458 3.11654 7.3242 3.26901 7.19392C3.42147 7.06366 3.62339 7.00639 3.82146 7.03767ZM4.39959 9.18722L6.35718 11.6348C6.49847 11.6567 6.66478 11.689 6.85271 11.7319C7.2542 11.8234 7.79948 11.9731 8.50227 12.2073C8.86753 12.3291 9.0889 12.3419 9.22436 12.3278C9.35083 12.3147 9.45019 12.2738 9.57593 12.1984C9.80237 12.0624 10.3244 11.6013 11.1429 11.6013C11.4795 11.6013 11.7705 11.6414 12.0313 11.7631C12.2903 11.884 12.4581 12.0616 12.5558 12.1593C12.6569 12.2604 12.7413 12.342 12.884 12.435C13.0305 12.5305 13.2603 12.6505 13.6451 12.7787C14.1188 12.9366 14.413 12.8313 14.6128 12.6872C14.7694 12.5742 14.8885 12.4166 14.9699 12.2709L14.0793 10.0455L4.39959 8.51758V9.18722Z" fill="white"/>
<path d="M8.21547 4.74716L12.9398 5.31859L13.0469 5.34091C13.2902 5.41091 13.4783 5.6114 13.5291 5.86546L14.1005 8.7226C14.1745 9.09381 13.9338 9.45416 13.5626 9.52841C13.1914 9.60241 12.831 9.36167 12.7568 8.99046L12.2824 6.61993L8.46324 6.15787L7.13734 8.10095C6.92362 8.41323 6.49676 8.493 6.18422 8.27952C5.87194 8.0658 5.79217 7.63894 6.00565 7.3264L7.56591 5.04068L7.62507 4.96702C7.77313 4.80391 7.99296 4.72024 8.21547 4.74716Z" fill="white"/>
<path d="M10.2646 11.7883C11.2202 11.3107 12.1199 11.8508 12.6519 12.1867C12.9735 12.3898 13.2093 12.5566 13.4666 12.6945C13.7152 12.8278 13.8818 12.8742 14.0001 12.8742C14.2819 12.8742 14.6337 12.7494 14.9979 12.5371C15.3519 12.3307 15.6483 12.0823 15.8003 11.93C16.0678 11.6619 16.5021 11.6614 16.7702 11.9289C17.0381 12.1964 17.0387 12.6307 16.7713 12.8987C16.5424 13.1282 16.1531 13.4517 15.6887 13.7224C15.2338 13.9875 14.6326 14.2458 14.0001 14.2458C13.5472 14.2458 13.1421 14.0762 12.8193 13.9032C12.5052 13.7348 12.1695 13.504 11.9197 13.3463C11.3093 12.9608 11.0656 12.9215 10.8784 13.0148C9.92286 13.4924 9.21125 13.7095 8.5358 13.6532C7.88696 13.5991 7.34553 13.2852 6.83602 13.0304C6.6891 12.9571 6.38632 12.9623 5.89852 13.2124C5.44888 13.4429 5.01915 13.7937 4.77018 14.0427C4.50245 14.3102 4.06915 14.3102 3.80143 14.0427C3.53364 13.7749 3.53364 13.3406 3.80143 13.0729C4.12387 12.7505 4.66632 12.3026 5.27353 11.9914C5.84275 11.6997 6.68266 11.4203 7.44986 11.8039C8.08296 12.1204 8.33201 12.2607 8.64964 12.2871C8.94069 12.3114 9.37215 12.2342 10.2646 11.7883Z" fill="white"/>
<path d="M10.2646 14.0734C11.2202 13.5958 12.1199 14.1359 12.6519 14.4718C12.9735 14.675 13.2093 14.8417 13.4666 14.9797C13.7152 15.1129 13.8818 15.1593 14.0001 15.1593C14.2819 15.1593 14.6337 15.0345 14.9979 14.8223C15.3519 14.6159 15.6483 14.3675 15.8003 14.2152C16.0678 13.947 16.5021 13.9466 16.7702 14.214C17.0381 14.4815 17.0387 14.9159 16.7713 15.1839C16.5424 15.4133 16.1531 15.7369 15.6887 16.0076C15.2338 16.2727 14.6326 16.531 14.0001 16.531C13.5472 16.531 13.1421 16.3614 12.8193 16.1884C12.5052 16.02 12.1695 15.7892 11.9197 15.6314C11.3093 15.246 11.0656 15.2067 10.8784 15.3C9.92286 15.7775 9.21125 15.9946 8.5358 15.9384C7.88696 15.8843 7.34553 15.5704 6.83602 15.3156C6.6891 15.2422 6.38632 15.2475 5.89852 15.4975C5.44888 15.7281 5.01915 16.0789 4.77018 16.3279C4.50245 16.5953 4.06915 16.5953 3.80143 16.3279C3.53364 16.0601 3.53364 15.6258 3.80143 15.358C4.12387 15.0356 4.66632 14.5878 5.27353 14.2765C5.84275 13.9848 6.68266 13.7054 7.44986 14.089C8.08296 14.4056 8.33201 14.5458 8.64964 14.5723C8.94069 14.5965 9.37215 14.5194 10.2646 14.0734Z" fill="white"/>
<path d="M10.4575 5.42773V4.28488C10.4575 3.90617 10.7641 3.59961 11.1428 3.59961C11.5215 3.59961 11.8281 3.90617 11.8281 4.28488V5.42773C11.8281 5.80644 11.5215 6.113 11.1428 6.113C10.7641 6.113 10.4575 5.80644 10.4575 5.42773Z" fill="white"/>
<path d="M10 7.0293C10.3787 7.0293 10.6853 7.33586 10.6853 7.71456C10.6853 8.09327 10.3787 8.39983 10 8.39983H8.85714C8.47843 8.39983 8.17188 8.09327 8.17188 7.71456C8.17188 7.33586 8.47843 7.0293 8.85714 7.0293H10Z" fill="white"/>
</svg>
