<svg width="20" height="20" viewBox="0 0 20 20" fill="none" xmlns="http://www.w3.org/2000/svg">
<rect width="20" height="20" rx="2" fill="#9D46F5"/>
<path d="M10 4.40039C11.5148 4.40047 12.7432 5.62876 12.7432 7.14355C12.7431 8.65828 11.5147 9.88664 10 9.88672C8.48521 9.88672 7.25691 8.65833 7.25684 7.14355C7.25684 5.62872 8.48516 4.40039 10 4.40039Z" fill="white" stroke="white" stroke-width="1.37143" stroke-miterlimit="16" stroke-linejoin="round"/>
<path d="M8.00415 10.9043H11.9954C13.8365 10.9043 15.4252 12.1965 15.8 13.999L15.925 14.6025C15.9706 14.8224 15.803 15.0283 15.5784 15.0283H4.42114C4.19669 15.0282 4.02898 14.8223 4.07446 14.6025L4.19946 13.999C4.57431 12.1965 6.1631 10.9043 8.00415 10.9043Z" fill="white" stroke="white" stroke-width="1.37143" stroke-miterlimit="16" stroke-linejoin="round"/>
</svg>
