<svg width="20" height="20" viewBox="0 0 20 20" fill="none" xmlns="http://www.w3.org/2000/svg">
<rect width="20" height="20" rx="2" fill="#0CBF92"/>
<g clip-path="url(#clip0_5503_55972)">
<path d="M11.2572 8.85742C11.2572 8.47871 10.9502 8.17171 10.5715 8.17171C10.1928 8.17171 9.88582 8.47871 9.88582 8.85742H10.5715H11.2572ZM10.5715 8.85742H9.88582V16.286H10.5715H11.2572V8.85742H10.5715Z" fill="#CBD5E1"/>
<path fill-rule="evenodd" clip-rule="evenodd" d="M8.70483 3.379C9.85478 2.75193 11.2576 3.58478 11.2576 4.89462V16.2852C11.2575 16.468 11.1842 16.6439 11.0544 16.7726C10.9245 16.9012 10.748 16.9724 10.5652 16.9708L5.30933 16.921C4.36297 16.9119 3.60069 16.1417 3.60034 15.1954V7.18857C3.60034 6.55702 3.94531 5.97533 4.49976 5.67294L8.70483 3.379ZM7.7146 10.4571C7.33589 10.4571 7.02905 10.764 7.02905 11.1427V12.8565C7.02905 13.2352 7.33589 13.5421 7.7146 13.5421C8.09312 13.5419 8.39917 13.2351 8.39917 12.8565V11.1427C8.39917 10.7641 8.09312 10.4573 7.7146 10.4571Z" fill="white"/>
<path d="M15.0275 10.8338L12.8572 8.85742V16.286H15.3672V11.6027C15.3672 11.31 15.2439 11.0309 15.0275 10.8338Z" fill="white" stroke="white" stroke-width="1.37143" stroke-miterlimit="16" stroke-linejoin="round"/>
</g>
<defs>
<clipPath id="clip0_5503_55972">
<rect width="16" height="16" fill="white" transform="translate(2 2)"/>
</clipPath>
</defs>
</svg>
