<svg width="20" height="20" viewBox="0 0 20 20" fill="none" xmlns="http://www.w3.org/2000/svg">
<rect width="20" height="20" rx="2" fill="#4672F5"/>
<path fill-rule="evenodd" clip-rule="evenodd" d="M3.4856 8.56928C3.48585 8.31122 3.76031 8.14594 3.98853 8.26655L9.12427 10.9824C9.31137 11.0813 9.42884 11.2756 9.42896 11.4873V16.1943C9.42896 16.4481 9.16263 16.6138 8.93481 16.5019L3.80493 13.9843C3.60931 13.8883 3.4856 13.6886 3.4856 13.4706V8.56928ZM15.7913 8.27924C16.0198 8.15387 16.2991 8.3194 16.2991 8.58002V13.4765C16.2991 13.6914 16.179 13.8887 15.9875 13.9863L11.0706 16.4912C10.8425 16.6074 10.5716 16.4415 10.5715 16.1855V11.4814C10.5716 11.2729 10.6856 11.0807 10.8684 10.9804L15.7913 8.27924ZM9.47876 3.82709C9.62836 3.75577 9.8015 3.75293 9.95337 3.81928L15.9006 6.42084C16.167 6.53736 16.1763 6.91194 15.9163 7.04194L10.2551 9.87299C10.0944 9.95314 9.90505 9.95328 9.74438 9.87299L4.05591 7.02827C3.80094 6.90047 3.80428 6.53495 4.06177 6.41206L9.47876 3.82709Z" fill="white"/>
</svg>
