<svg width="20" height="20" viewBox="0 0 20 20" fill="none" xmlns="http://www.w3.org/2000/svg">
<rect width="20" height="20" rx="2" fill="#00B7F4"/>
<path fill-rule="evenodd" clip-rule="evenodd" d="M11.7525 8.48438C11.8806 8.4844 11.9759 8.60352 11.9478 8.72852L10.2477 16.3018C10.2012 16.5089 9.90664 16.5104 9.858 16.3037L8.07578 8.73047C8.04626 8.60505 8.14133 8.48461 8.27011 8.48438H11.7525ZM6.7291 8.48438C6.81839 8.48438 6.89695 8.54402 6.92148 8.62988L8.78476 15.1504C8.84751 15.3713 8.54899 15.5064 8.42441 15.3135L4.23203 8.79297C4.14653 8.65997 4.24198 8.48464 4.4 8.48438H6.7291ZM15.6207 8.48438C15.7789 8.48443 15.8742 8.65989 15.7887 8.79297L11.5973 15.3135C11.4728 15.5068 11.174 15.3715 11.2369 15.1504L13.0992 8.62988C13.1237 8.5441 13.2024 8.48448 13.2916 8.48438H15.6207ZM13.0582 4.5C13.1112 4.50002 13.1623 4.5211 13.1998 4.55859L15.6451 7.00488C15.771 7.13079 15.6824 7.34541 15.5045 7.3457H4.51621C4.33833 7.34533 4.2497 7.13077 4.37558 7.00488L6.8209 4.55859C6.85837 4.52112 6.90951 4.50004 6.9625 4.5H13.0582Z" fill="white"/>
</svg>
