<svg width="24" height="24" viewBox="0 0 24 24" fill="none" xmlns="http://www.w3.org/2000/svg">
<path d="M0 4C0 1.79086 1.79086 0 4 0H20C22.2091 0 24 1.79086 24 4V20C24 22.2091 22.2091 24 20 24H4C1.79086 24 0 22.2091 0 20V4Z" fill="#10B981"/>
<path d="M12 4.5C16.1421 4.5 19.5 7.85786 19.5 12C19.5 16.1421 16.1421 19.5 12 19.5C7.85786 19.5 4.5 16.1421 4.5 12C4.5 7.85786 7.85786 4.5 12 4.5ZM12 6C8.68629 6 6 8.68629 6 12C6 15.3137 8.68629 18 12 18C15.3137 18 18 15.3137 18 12C18 8.68629 15.3137 6 12 6ZM9.75098 8.72461C9.98385 8.59086 10.271 8.59223 10.5029 8.72754L15.0029 11.3525C15.2332 11.487 15.375 11.7333 15.375 12C15.375 12.2667 15.2332 12.513 15.0029 12.6475L10.5029 15.2725C10.271 15.4078 9.98385 15.4091 9.75098 15.2754C9.51831 15.1416 9.375 14.8934 9.375 14.625V9.375C9.375 9.10658 9.51831 8.85841 9.75098 8.72461ZM10.875 13.3193L13.1367 12L10.875 10.6807V13.3193Z" fill="white"/>
</svg>
