<svg width="20" height="20" viewBox="0 0 20 20" fill="none" xmlns="http://www.w3.org/2000/svg">
<rect width="20" height="20" rx="2" fill="#9D46F5"/>
<path d="M4.63378 7.30225L10.8517 10.9295C10.9439 10.9832 11.0005 11.0819 11.0005 11.1886V16.1671C11.0005 16.4006 10.7457 16.5446 10.5457 16.4241L4.32782 12.6785C4.23771 12.6242 4.18262 12.5267 4.18262 12.4215V7.56138C4.18262 7.32984 4.43378 7.18558 4.63378 7.30225Z" fill="white"/>
<path d="M12.191 10.7613L16.0775 9.00403C16.2761 8.91425 16.5011 9.05946 16.5011 9.27739V14.1853C16.5011 14.3746 16.3941 14.5478 16.2247 14.6325L12.2453 16.6223C12.1123 16.6888 11.9558 16.5921 11.9558 16.4434V11.1258C11.9558 10.9686 12.0478 10.8261 12.191 10.7613Z" fill="white"/>
<path d="M5.06463 5.72391L8.88174 3.81529C9.02729 3.74252 9.19914 3.74512 9.34241 3.82227L15.9616 7.38654C16.1811 7.50474 16.169 7.82357 15.9412 7.92482L11.6204 9.84521C11.4736 9.91049 11.3043 9.90118 11.1654 9.82019L5.04763 6.25137C4.84171 6.13125 4.8514 5.83053 5.06463 5.72391Z" fill="white"/>
</svg>
