<svg width="20" height="20" viewBox="0 0 20 20" fill="none" xmlns="http://www.w3.org/2000/svg">
<rect width="20" height="20" rx="2" fill="#0CBF92"/>
<path d="M5.19995 7.78359C6.18373 8.57891 7.97426 9.06484 10.0067 9.06484C12.0392 9.06484 13.8297 8.57891 14.8135 7.78359L14.8145 14.5469C14.8145 15.5352 12.6836 16.5 10.0086 16.5L9.79872 16.4977C7.22311 16.4492 5.20348 15.5094 5.20348 14.5469L5.19995 7.78359ZM9.56879 7.89766L9.54075 7.89609C9.15973 7.87895 8.77996 7.84139 8.40316 7.78359C8.20246 7.75195 8.00287 7.71391 7.80472 7.66953L7.75666 7.65859C7.56061 7.61292 7.36634 7.56028 7.17424 7.50078C6.92903 7.4235 6.68879 7.33193 6.45483 7.22656C6.35928 7.18244 6.26523 7.13528 6.17284 7.08516C6.03583 7.00959 5.90391 6.92556 5.77789 6.83359C5.74355 6.80787 5.70989 6.7813 5.67694 6.75391C5.60022 6.69072 5.5287 6.62176 5.46304 6.54766C5.42357 6.50264 5.38717 6.45515 5.35409 6.40547C5.25983 6.27219 5.20748 6.11498 5.20348 5.95312C5.20348 4.98516 7.33927 4 10.0086 4C12.6787 4 14.8153 4.98516 14.8153 5.95312C14.8153 6.10469 14.7633 6.25625 14.6647 6.40469L14.7016 6.34375C14.6471 6.43906 14.5734 6.53281 14.4821 6.625C14.3995 6.70819 14.3097 6.78425 14.2137 6.85234C14.1572 6.89347 14.0992 6.93255 14.0399 6.96953C13.9129 7.04998 13.781 7.12277 13.6449 7.1875C13.5765 7.22061 13.5073 7.25213 13.4374 7.28203C13.151 7.40441 12.8557 7.50573 12.5538 7.58516C12.3285 7.6466 12.1004 7.69821 11.8704 7.73984C11.5554 7.79889 11.2375 7.84165 10.9179 7.86797C10.689 7.88752 10.4595 7.8995 10.2297 7.90391L10.0086 7.90625C9.8604 7.90625 9.7138 7.90313 9.56879 7.89766Z" fill="white"/>
</svg>
