<svg width="90" height="32" viewBox="0 0 90 32" fill="none" xmlns="http://www.w3.org/2000/svg">
<path d="M90 26L80 20.2265V31.7735L90 26ZM0 26V27H2.04545V26V25H0V26ZM6.13636 26V27H10.2273V26V25H6.13636V26ZM14.3182 26V27H18.4091V26V25H14.3182V26ZM22.5 26V27H26.5909V26V25H22.5V26ZM30.6818 26V27H34.7727V26V25H30.6818V26ZM38.8636 26V27H42.9545V26V25H38.8636V26ZM47.0454 26V27H51.1364V26V25H47.0454V26ZM55.2273 26V27H59.3182V26V25H55.2273V26ZM63.4091 26V27H67.5V26V25H63.4091V26ZM71.5909 26V27H75.6818V26V25H71.5909V26ZM79.7727 26V27H83.8636V26V25H79.7727V26Z" fill="#C3C7D4"/>
</svg>
