<svg width="12" height="12" viewBox="0 0 12 12" fill="none" xmlns="http://www.w3.org/2000/svg">
<path fill-rule="evenodd" clip-rule="evenodd" d="M1.16667 5.83333C1.16667 3.256 3.256 1.16667 5.83333 1.16667C8.41066 1.16667 10.5 3.256 10.5 5.83333C10.5 8.41066 8.41066 10.5 5.83333 10.5C3.256 10.5 1.16667 8.41066 1.16667 5.83333ZM5.83333 0C2.61167 0 0 2.61167 0 5.83333C0 9.055 2.61167 11.6667 5.83333 11.6667C9.055 11.6667 11.6667 9.055 11.6667 5.83333C11.6667 2.61167 9.055 0 5.83333 0ZM4.84167 4.66043V4.52592C4.84237 4.36588 4.89961 4.18834 5.02731 4.05487C5.14526 3.9316 5.37514 3.79167 5.82999 3.79167C6.25711 3.79167 6.55412 3.99559 6.70559 4.22711C6.86735 4.47436 6.83548 4.68181 6.75871 4.78546C6.66296 4.91472 6.54408 5.03411 6.40041 5.16344C6.3567 5.20279 6.30282 5.24967 6.24506 5.29994L6.24504 5.29995C6.14174 5.38984 6.02601 5.49055 5.93372 5.57836C5.60604 5.89016 5.25011 6.32533 5.25011 7L5.25201 7.29541L6.41865 7.28792L6.41679 6.9984C6.41722 6.79889 6.49901 6.6509 6.73794 6.42355C6.81825 6.34713 6.89045 6.28467 6.97305 6.2132L6.97309 6.21318C7.03419 6.16032 7.10098 6.10253 7.18097 6.03053C7.34733 5.88077 7.53244 5.70095 7.6962 5.47987C8.13843 4.88285 8.03501 4.12814 7.68188 3.58838C7.31846 3.03291 6.65725 2.625 5.82999 2.625C5.1141 2.625 4.55908 2.85667 4.18434 3.24833C3.81958 3.62957 3.67633 4.10992 3.67501 4.52296V4.66043H4.84167ZM5.25199 7.875V9.04393H6.41866V7.875H5.25199Z" fill="#646C85"/>
</svg>
