<svg width="48" height="48" viewBox="0 0 48 48" fill="none" xmlns="http://www.w3.org/2000/svg">
<path d="M11.0721 35.1918C10.0694 35.1918 9.09876 35.1384 8.1601 35.0318C7.22143 34.9464 6.3681 34.8184 5.6001 34.6478V30.7758C6.4321 31.0318 7.30676 31.2344 8.2241 31.3838C9.16276 31.5118 10.0268 31.5758 10.8161 31.5758C11.8188 31.5758 12.5441 31.4584 12.9921 31.2238C13.4614 30.9891 13.6961 30.5304 13.6961 29.8478C13.6961 29.5064 13.6534 29.2184 13.5681 28.9838C13.4828 28.7491 13.3121 28.5464 13.0561 28.3758C12.8214 28.2051 12.4908 28.0558 12.0641 27.9278C11.6374 27.7784 11.0721 27.6184 10.3681 27.4478C9.45076 27.2344 8.69343 26.9998 8.0961 26.7438C7.49876 26.4664 7.02943 26.1464 6.6881 25.7838C6.34676 25.3998 6.1121 24.9518 5.9841 24.4398C5.8561 23.9064 5.7921 23.2771 5.7921 22.5518C5.7921 21.7411 5.90943 21.0158 6.1441 20.3758C6.4001 19.7358 6.80543 19.2024 7.3601 18.7758C7.91476 18.3278 8.62943 17.9864 9.5041 17.7518C10.3788 17.5171 11.4454 17.3998 12.7041 17.3998C13.6641 17.3998 14.5708 17.4531 15.4241 17.5598C16.2988 17.6664 16.9708 17.8051 17.4401 17.9758L17.2481 21.5278C17.0134 21.4638 16.7254 21.3998 16.3841 21.3358C16.0428 21.2504 15.6694 21.1758 15.2641 21.1118C14.8801 21.0478 14.4748 20.9944 14.0481 20.9518C13.6428 20.9091 13.2481 20.8878 12.8641 20.8878C11.7974 20.8878 11.0721 21.0051 10.6881 21.2398C10.3254 21.4744 10.1441 21.8904 10.1441 22.4878C10.1441 22.7651 10.1761 22.9891 10.2401 23.1598C10.3254 23.3304 10.4854 23.4798 10.7201 23.6078C10.9548 23.7358 11.2748 23.8638 11.6801 23.9918C12.1068 24.1198 12.6614 24.2691 13.3441 24.4398C14.2828 24.6744 15.0614 24.9411 15.6801 25.2398C16.2988 25.5171 16.7894 25.8584 17.1521 26.2638C17.5148 26.6478 17.7601 27.1278 17.8881 27.7038C18.0374 28.2584 18.1121 28.9304 18.1121 29.7198C18.1121 30.7438 17.9521 31.6078 17.6321 32.3118C17.3121 32.9944 16.8534 33.5491 16.2561 33.9758C15.6588 34.4024 14.9228 34.7118 14.0481 34.9038C13.1734 35.0958 12.1814 35.1918 11.0721 35.1918Z" fill="currentColor"/>
<path d="M27.0156 21.3678V29.0798C27.0156 29.5918 27.0369 30.0078 27.0796 30.3278C27.1436 30.6478 27.2503 30.9038 27.3996 31.0958C27.5489 31.2664 27.7516 31.3944 28.0076 31.4798C28.2636 31.5438 28.5943 31.5758 28.9996 31.5758C29.5543 31.5758 30.0129 31.5331 30.3756 31.4478V35.0318C30.0343 35.0744 29.6716 35.1064 29.2876 35.1278C28.9036 35.1704 28.5196 35.1918 28.1356 35.1918C27.0689 35.1918 26.1623 35.1064 25.4156 34.9358C24.6903 34.7651 24.1036 34.4664 23.6556 34.0398C23.2076 33.6131 22.8769 33.0264 22.6636 32.2798C22.4716 31.5331 22.3756 30.5944 22.3756 29.4638V21.3678H20.1036V17.7198H22.3756V13.6238H27.0156V17.7198H30.5996V21.3678H27.0156Z" fill="currentColor"/>
<path d="M43.5084 17.3998L43.3804 21.5278H42.9324C42.399 21.5278 41.8657 21.5918 41.3324 21.7198C40.8204 21.8264 40.351 22.0184 39.9244 22.2958C39.4977 22.5731 39.1243 22.9464 38.8043 23.4158C38.4843 23.8851 38.2603 24.4718 38.1323 25.1758V34.9998H33.4924V17.7198H38.1323V20.8238C38.3883 20.1198 38.6977 19.5438 39.0604 19.0958C39.4444 18.6478 39.8497 18.2958 40.2764 18.0398C40.703 17.7838 41.1617 17.6131 41.6524 17.5278C42.143 17.4424 42.6444 17.3998 43.1564 17.3998H43.5084Z" fill="currentColor"/>
</svg>
