<svg width="48" height="48" viewBox="0 0 48 48" fill="none" xmlns="http://www.w3.org/2000/svg">
<path d="M9.99976 4.99902V9.00098H6.00073V38.999H9.99976V43.001H1.99878V4.99902H9.99976ZM45.9998 4.99902V43.001H37.9988V38.999H42.0007V9.00098H37.9988V4.99902H45.9998Z" fill="currentColor"/>
<path d="M12.6724 33.162C10.8094 33.162 9.43241 33.054 7.73141 32.703V28.491C9.45941 29.004 10.9984 29.247 12.3214 29.247C13.5904 29.247 13.9954 29.139 13.9954 28.356C13.9954 27.6 13.5904 27.411 11.5654 26.898C8.54141 26.115 7.83941 25.278 7.83941 22.794C7.83941 19.743 9.27041 18.15 14.1304 18.15C15.8854 18.15 17.5324 18.339 18.3964 18.636L18.2344 22.443C17.4514 22.227 15.6694 21.903 14.3464 21.903C12.8344 21.903 12.6454 22.119 12.6454 22.659C12.6454 23.199 13.0234 23.172 15.3184 23.82C18.3424 24.684 18.9094 25.629 18.9094 28.248C18.9094 32.055 16.5874 33.162 12.6724 33.162Z" fill="currentColor"/>
<path d="M29.7917 22.362H27.1997V27.708C27.1997 28.977 27.4967 29.247 28.5497 29.247C28.8467 29.247 29.1437 29.274 29.3867 29.193V33.027C28.8197 33.108 27.9557 33.162 27.3077 33.162C23.4197 33.162 22.0697 32.001 22.0697 28.194V22.362H20.3417V18.42H22.0697V14.964H27.1997V18.42H29.7917V22.362Z" fill="currentColor"/>
<path d="M40.7819 18.15H41.0789L40.9709 22.713H40.5659C38.8649 22.713 37.0829 23.361 36.8669 25.386V33H31.7369V18.42H36.8669V20.958C37.7309 18.636 39.0539 18.15 40.7819 18.15Z" fill="currentColor"/>
</svg>
