<svg xmlns="http://www.w3.org/2000/svg" width="17" height="17" viewBox="0 0 17 17" fill="none">
    <path
        d="M13.1992 4.54559V6.88559H12.2392V5.44559H5.55922V6.88559H4.59922V4.54559H8.41922C8.27922 4.22559 8.13922 3.92559 7.97922 3.65559L9.06922 3.47559C9.20922 3.79559 9.34922 4.14559 9.47922 4.54559H13.1992ZM6.16922 6.33559H11.6092V7.21559C10.9792 7.65559 10.2792 8.09559 9.49922 8.52559V9.01559H13.3592V9.93559H9.49922V11.8156C9.49922 12.4456 9.16922 12.7656 8.50922 12.7656H7.27922L7.04922 11.9056C7.39922 11.9156 7.77922 11.9256 8.18922 11.9256C8.42922 11.9256 8.54922 11.7756 8.54922 11.4856V9.93559H4.44922V9.01559H8.54922V8.13559C9.24922 7.76559 9.79922 7.45559 10.1992 7.21559H6.16922V6.33559Z"
        fill="#0F172A" />
    <rect x="2.40625" y="1.62109" width="13" height="13" rx="1.5" stroke="#0F172A" />
</svg>