<svg width="24" height="24" viewBox="0 0 24 24" fill="none" xmlns="http://www.w3.org/2000/svg">
<path d="M14.7529 10.1641V11.1201L14.7314 11.1357C14.107 11.5718 13.4137 12.0073 12.6426 12.4336V12.8447H16.5029V13.8643H12.6426V15.6943C12.6426 16.0176 12.5579 16.2701 12.3799 16.4414C12.2022 16.6124 11.9399 16.6943 11.6025 16.6943H10.335L10.3242 16.6572L10.0947 15.7979L10.0771 15.7324L10.1445 15.7344C10.4945 15.7444 10.874 15.7549 11.2832 15.7549C11.3921 15.7548 11.4665 15.7213 11.5146 15.6621C11.5644 15.6009 11.5928 15.5036 11.5928 15.3643V13.8643H7.49316V12.8447H11.5928V11.9844L11.6191 11.9707C12.2295 11.6481 12.7248 11.3689 13.1064 11.1445H9.21289V10.1641H14.7529ZM12.209 7.33398C12.3453 7.64567 12.481 7.98673 12.6084 8.37402H16.3428V10.8145H15.2832V9.37402H8.70312V10.8145H7.64258V8.37402H11.4346C11.3052 8.08134 11.1769 7.80692 11.0303 7.55957L10.9922 7.49707L11.0645 7.48535L12.1553 7.30469L12.1934 7.29883L12.209 7.33398Z" fill="#0F172A" stroke="#0F172A" stroke-width="0.1"/>
<rect x="5.6" y="5.6" width="12.8" height="12.8" rx="1.4" stroke="#0F172A" stroke-width="1.2"/>
</svg>
