<svg width="24" height="24" viewBox="0 0 24 24" fill="none" xmlns="http://www.w3.org/2000/svg">
<path d="M11.9987 10.5C15.6806 10.5 18.6654 9.60457 18.6654 8.5C18.6654 7.39543 15.6806 6.5 11.9987 6.5C8.3168 6.5 5.33203 7.39543 5.33203 8.5C5.33203 9.60457 8.3168 10.5 11.9987 10.5Z" stroke="#0F172A" stroke-width="1.33333" stroke-linecap="round" stroke-linejoin="round"/>
<path d="M7.589 10.5C6.20496 10.8665 5.33203 11.4027 5.33203 12C5.33203 13.1046 8.3168 14 11.9987 14C15.6806 14 18.6654 13.1046 18.6654 12C18.6654 11.4027 17.7924 10.8665 16.4084 10.5C15.2332 10.8112 13.6894 11 11.9987 11C10.308 11 8.7642 10.8112 7.589 10.5Z" stroke="#0F172A" stroke-width="1.33333" stroke-linecap="round" stroke-linejoin="round"/>
<path d="M7.589 14C6.20496 14.3665 5.33203 14.9027 5.33203 15.5C5.33203 16.6046 8.3168 17.5 11.9987 17.5C15.6806 17.5 18.6654 16.6046 18.6654 15.5C18.6654 14.9027 17.7924 14.3665 16.4084 14C15.2332 14.3112 13.6894 14.5 11.9987 14.5C10.308 14.5 8.7642 14.3112 7.589 14Z" stroke="#0F172A" stroke-width="1.33333" stroke-linecap="round" stroke-linejoin="round"/>
</svg>
