<svg width="24" height="24" viewBox="0 0 24 24" fill="none" xmlns="http://www.w3.org/2000/svg">
<path d="M17.4 6.59961H6.6C6.26863 6.59961 6 6.86824 6 7.19961V16.7996C6 17.131 6.26863 17.3996 6.6 17.3996H17.4C17.7314 17.3996 18 17.131 18 16.7996V7.19961C18 6.86824 17.7314 6.59961 17.4 6.59961Z" stroke="#0F172A" stroke-width="1.2" stroke-linejoin="round"/>
<path d="M6 10.1992H18" stroke="#0F172A" stroke-width="1.2" stroke-linecap="round" stroke-linejoin="round"/>
<path d="M10.0508 10.1992V17.3992" stroke="#0F172A" stroke-width="1.2" stroke-linecap="round" stroke-linejoin="round"/>
<path d="M13.9492 10.1992V17.3992" stroke="#0F172A" stroke-width="1.2" stroke-linecap="round" stroke-linejoin="round"/>
<path d="M6 13.8008H18" stroke="#0F172A" stroke-width="1.2" stroke-linecap="round" stroke-linejoin="round"/>
<path d="M18 7.19922V16.7992C18 17.1306 17.7314 17.3992 17.4 17.3992H6.6C6.26863 17.3992 6 17.1306 6 16.7992V7.19922" stroke="#0F172A" stroke-width="1.2" stroke-linecap="round" stroke-linejoin="round"/>
</svg>
