<svg width="20" height="20" viewBox="0 0 20 20" fill="none" xmlns="http://www.w3.org/2000/svg">
<rect width="20" height="20" rx="10" fill="#007DFA"/>
<path d="M6.16 4.196H7.276V6.368H8.572V7.46H7.276V8.24C7.84 8.804 8.416 9.428 8.992 10.124L8.344 11.096C7.936 10.448 7.576 9.908 7.276 9.476V15.224H6.16V9.776C5.812 10.748 5.392 11.648 4.888 12.464L4.396 11.216C5.2 10.112 5.788 8.864 6.148 7.46H4.792V6.368H6.16V4.196ZM9.7 9.644L10.744 9.872C10.36 11.552 9.82 12.992 9.124 14.216L8.128 13.58C8.872 12.356 9.388 11.048 9.7 9.644ZM14.32 9.548C14.8 10.892 15.208 12.332 15.556 13.868L14.512 14.336C14.14 12.656 13.732 11.18 13.3 9.884L14.32 9.548ZM11.476 15.104H10.264L10.036 14.036C10.396 14.084 10.756 14.108 11.092 14.108C11.38 14.108 11.536 13.94 11.536 13.616V8.768H8.716V7.676H15.52V8.768H12.676V13.892C12.676 14.696 12.268 15.104 11.476 15.104ZM9.34 4.784H14.896V5.864H9.34V4.784Z" fill="white"/>
</svg>
