<svg width="14" height="14" viewBox="0 0 14 14" fill="none" xmlns="http://www.w3.org/2000/svg">
<path d="M8.75 0.583008L12.25 4.08301V11.416C12.25 12.5206 11.3546 13.416 10.25 13.416H3.75C2.64543 13.416 1.75 12.5206 1.75 11.416V2.58301C1.75 1.47844 2.64543 0.583008 3.75 0.583008H8.75Z" fill="#F25788"/>
<mask id="mask0_691_57258" style="mask-type:luminance" maskUnits="userSpaceOnUse" x="1" y="0" width="12" height="14">
<path d="M8.75 0.583008L12.25 4.08301V11.416C12.25 12.5206 11.3546 13.416 10.25 13.416H3.75C2.64543 13.416 1.75 12.5206 1.75 11.416V2.58301C1.75 1.47844 2.64543 0.583008 3.75 0.583008H8.75Z" fill="white"/>
</mask>
<g mask="url(#mask0_691_57258)">
<path fill-rule="evenodd" clip-rule="evenodd" d="M8.75 0.583008L12.25 4.08301H10.75C9.64543 4.08301 8.75 3.18758 8.75 2.08301V0.583008Z" fill="#FFADC5"/>
</g>
<g filter="url(#filter0_d_691_57258)">
<path d="M9.02385 6.41034C9.01049 6.39673 8.98308 6.3688 8.96902 6.3688L6.0068 4.70024C5.97938 4.67232 5.95197 4.65871 5.92525 4.67232H5.9119C5.88448 4.67232 5.85707 4.70024 5.84371 4.71385C5.8163 4.74178 5.80294 4.76971 5.80294 4.81124C5.80294 5.85391 5.80294 6.92451 5.8163 7.96646C5.6258 7.92493 5.42054 7.93854 5.20192 7.99439C4.92918 8.07746 4.71126 8.2035 4.56083 8.39757C4.54748 8.41117 4.54748 8.4255 4.54748 8.4255C4.38369 8.6346 4.32886 8.8566 4.39775 9.0786C4.45258 9.2877 4.60301 9.45384 4.86169 9.56484C5.09367 9.64791 5.33899 9.64791 5.6258 9.56484C5.89854 9.49538 6.11645 9.35574 6.26689 9.17599C6.28136 9.16207 6.3409 9.0922 6.3409 9.0786C6.40908 8.99553 6.44008 8.82549 6.44803 8.8042C6.45316 8.79044 6.45738 8.77623 6.45738 8.75992V8.67614V5.80916L8.38135 6.89337L8.39471 9.42663C8.20351 9.3851 7.99895 9.3987 7.79439 9.45456C7.50759 9.53763 7.30373 9.66367 7.13924 9.87134C6.9614 10.0804 6.90727 10.3024 6.97546 10.5244C7.03029 10.7472 7.18072 10.9133 7.4394 11.0114C7.67138 11.0945 7.93076 11.1088 8.20351 11.0393C8.47625 10.9563 8.69416 10.8302 8.84459 10.6362C8.85795 10.6225 8.85795 10.6082 8.85795 10.6082C8.98026 10.4557 9.03509 10.3024 9.03509 10.1356V6.48052C9.0372 6.45259 9.02385 6.43898 9.02385 6.41034Z" fill="white"/>
</g>
<defs>
<filter id="filter0_d_691_57258" x="4.36865" y="4.66699" width="4.6665" height="7.41699" filterUnits="userSpaceOnUse" color-interpolation-filters="sRGB">
<feFlood flood-opacity="0" result="BackgroundImageFix"/>
<feColorMatrix in="SourceAlpha" type="matrix" values="0 0 0 0 0 0 0 0 0 0 0 0 0 0 0 0 0 0 127 0" result="hardAlpha"/>
<feOffset dy="1"/>
<feColorMatrix type="matrix" values="0 0 0 0 0.6 0 0 0 0 0.0588235 0 0 0 0 0.27451 0 0 0 0.3 0"/>
<feBlend mode="normal" in2="BackgroundImageFix" result="effect1_dropShadow_691_57258"/>
<feBlend mode="normal" in="SourceGraphic" in2="effect1_dropShadow_691_57258" result="shape"/>
</filter>
</defs>
</svg>
