<svg width="14" height="14" viewBox="0 0 14 14" fill="none" xmlns="http://www.w3.org/2000/svg">
<path d="M10.7923 1.16602C11.4366 1.16602 11.959 1.68835 11.959 2.33268V7.87435H10.7923V2.33268H2.62565V11.666H5.25065V12.8327H2.62565C1.98132 12.8327 1.45898 12.3103 1.45898 11.666V2.33268C1.45898 1.68835 1.98132 1.16602 2.62565 1.16602H10.7923Z" fill="#334155"/>
<path d="M7.32308 10.2236C7.22375 10.3167 7.13116 10.4096 7.04679 10.4993C7.14099 10.5995 7.24513 10.704 7.35783 10.8078C7.81561 11.2294 8.29027 11.5264 8.72701 11.6276L9.81278 12.7133C9.56488 12.7889 9.30704 12.8327 9.04232 12.8327L8.95203 12.831C7.06076 12.7604 5.54232 10.4993 5.54232 10.4993C5.54232 10.4993 5.9055 9.95895 6.49764 9.39819L7.32308 10.2236Z" fill="#334155"/>
<path d="M9.13261 8.16772C11.0239 8.23835 12.5423 10.4993 12.5423 10.4993L12.4711 10.5996C12.3382 10.7815 12.0253 11.1854 11.587 11.6005L10.7616 10.7751C10.8608 10.682 10.9532 10.589 11.0376 10.4993C10.9434 10.3992 10.8395 10.2946 10.7268 10.1909C10.2689 9.76915 9.79418 9.47196 9.35734 9.37085L8.27185 8.28536C8.51976 8.20982 8.7776 8.16602 9.04232 8.16602L9.13261 8.16772Z" fill="#334155"/>
<path d="M5.39648 7.29102H4.22982V6.12435H5.39648V7.29102Z" fill="#334155"/>
<path d="M9.18815 7.29102H5.97982V6.12435H9.18815V7.29102Z" fill="#334155"/>
<path d="M5.39648 4.95768H4.22982V3.79102H5.39648V4.95768Z" fill="#334155"/>
<path d="M9.18815 4.95768H5.97982V3.79102H9.18815V4.95768Z" fill="#334155"/>
<path d="M11.9339 12.5661L11.109 13.391L6.29655 8.57845L7.12142 7.75358L11.9339 12.5661Z" fill="#334155"/>
</svg>
