<svg width="11" height="13" viewBox="0 0 11 13" fill="none" xmlns="http://www.w3.org/2000/svg">
<path d="M7 0L10.5 3.5V11.667C10.5 12.3113 9.97734 12.834 9.33301 12.834H1.16699C0.52266 12.834 0 12.3113 0 11.667V1.16699C0 0.52266 0.52266 0 1.16699 0H7Z" fill="#528EFF"/>
<mask id="mask0_7020_11009" style="mask-type:luminance" maskUnits="userSpaceOnUse" x="0" y="0" width="11" height="13">
<path d="M7 0L10.5 3.5V11.667C10.5 12.3113 9.97734 12.834 9.33301 12.834H1.16699C0.52266 12.834 0 12.3113 0 11.667V1.16699C0 0.52266 0.52266 0 1.16699 0H7Z" fill="white"/>
</mask>
<g mask="url(#mask0_7020_11009)">
<g filter="url(#filter0_d_7020_11009)">
<path fill-rule="evenodd" clip-rule="evenodd" d="M7.29102 5.83398C7.29102 5.86264 7.28962 5.89123 7.28682 5.91975C7.284 5.94827 7.2798 5.97658 7.27422 6.00469C7.26862 6.0328 7.26165 6.06056 7.25333 6.08798C7.24501 6.11541 7.23537 6.14236 7.2244 6.16883C7.21343 6.19531 7.2012 6.22118 7.18771 6.24646C7.17419 6.27173 7.15947 6.29628 7.14355 6.32011C7.12762 6.34394 7.11057 6.36693 7.09239 6.38908C7.07421 6.41123 7.05499 6.43244 7.03473 6.4527C7.01447 6.47297 6.99326 6.49219 6.97112 6.51037C6.94897 6.52855 6.92598 6.5456 6.90214 6.56152C6.87832 6.57744 6.85377 6.59216 6.82849 6.60566C6.80321 6.61917 6.77733 6.63141 6.75085 6.64238C6.72439 6.65335 6.69744 6.66299 6.67003 6.67131C6.64259 6.67963 6.61483 6.68658 6.58673 6.69217C6.55861 6.69776 6.5303 6.70196 6.50179 6.70477C6.47327 6.70758 6.44468 6.70898 6.41602 6.70898C6.38735 6.70898 6.35876 6.70758 6.33024 6.70477C6.30173 6.70196 6.27342 6.69776 6.2453 6.69217C6.21721 6.68658 6.18944 6.67963 6.162 6.67131C6.13459 6.66299 6.10764 6.65335 6.08115 6.64238C6.05469 6.63141 6.02882 6.61917 6.00354 6.60566C5.97826 6.59216 5.95371 6.57744 5.92989 6.56152C5.90606 6.5456 5.88306 6.52855 5.86092 6.51037C5.83877 6.49219 5.81756 6.47297 5.7973 6.4527C5.77704 6.43244 5.75782 6.41123 5.73964 6.38908C5.72146 6.36693 5.70441 6.34394 5.68848 6.32011C5.67256 6.29628 5.65784 6.27173 5.64432 6.24646C5.63083 6.22118 5.6186 6.19531 5.60763 6.16883C5.59667 6.14236 5.58702 6.11541 5.5787 6.08798C5.57038 6.06056 5.56342 6.0328 5.55782 6.00469C5.55224 5.97658 5.54803 5.94827 5.54522 5.91975C5.54242 5.89123 5.54102 5.86264 5.54102 5.83398C5.54102 5.80533 5.54242 5.77674 5.54522 5.74822C5.54803 5.7197 5.55224 5.69139 5.55782 5.66328C5.56342 5.63517 5.57038 5.60741 5.5787 5.57999C5.58702 5.55256 5.59667 5.52561 5.60763 5.49914C5.6186 5.47266 5.63083 5.44679 5.64432 5.42151C5.65784 5.39624 5.67256 5.37169 5.68848 5.34786C5.70441 5.32403 5.72146 5.30104 5.73964 5.27889C5.75782 5.25674 5.77704 5.23553 5.7973 5.21527C5.81756 5.195 5.83877 5.17578 5.86092 5.1576C5.88306 5.13942 5.90606 5.12237 5.92989 5.10645C5.95371 5.09053 5.97826 5.07581 6.00354 5.0623C6.02882 5.04879 6.05469 5.03656 6.08115 5.02559C6.10764 5.01462 6.13459 5.00498 6.162 4.99666C6.18944 4.98834 6.21721 4.98139 6.2453 4.9758C6.27342 4.97021 6.30173 4.96601 6.33024 4.9632C6.35876 4.96039 6.38735 4.95898 6.41602 4.95898C6.44468 4.95898 6.47327 4.96039 6.50179 4.9632C6.5303 4.96601 6.55861 4.97021 6.58673 4.9758C6.61483 4.98139 6.64259 4.98834 6.67003 4.99666C6.69744 5.00498 6.72439 5.01462 6.75085 5.02559C6.77733 5.03656 6.80321 5.04879 6.82849 5.0623C6.85377 5.07581 6.87832 5.09053 6.90214 5.10645C6.92598 5.12237 6.94897 5.13942 6.97112 5.1576C6.99326 5.17578 7.01447 5.195 7.03473 5.21527C7.05499 5.23553 7.07421 5.25674 7.09239 5.27889C7.11057 5.30104 7.12762 5.32403 7.14355 5.34786C7.15947 5.37169 7.17419 5.39624 7.18771 5.42151C7.2012 5.44679 7.21343 5.47266 7.2244 5.49914C7.23537 5.52561 7.24501 5.55256 7.25333 5.57999C7.26165 5.60741 7.26862 5.63517 7.27422 5.66328C7.2798 5.69139 7.284 5.7197 7.28682 5.74822C7.28962 5.77674 7.29102 5.80533 7.29102 5.83398Z" fill="white" fill-opacity="0.32"/>
<path fill-rule="evenodd" clip-rule="evenodd" d="M7.58203 4.08398H2.91536C2.5932 4.08398 2.33203 4.34515 2.33203 4.66732V8.75065C2.33203 8.66408 2.37048 8.58198 2.43699 8.52659L4.18712 7.06826C4.29798 6.97586 4.45975 6.97845 4.56761 7.07433L5.69305 8.07477L6.52136 7.36278C6.63729 7.26315 6.81049 7.26992 6.91829 7.3783L8.08049 8.54681C8.13465 8.60126 8.16516 8.67491 8.16537 8.75167V4.66732C8.16537 4.34515 7.90421 4.08398 7.58203 4.08398ZM7.29036 5.83398C7.29036 5.86264 7.28896 5.89123 7.28616 5.91975C7.28335 5.94827 7.27915 5.97658 7.27356 6.00469C7.26796 6.0328 7.261 6.06056 7.25268 6.08798C7.24436 6.11541 7.23471 6.14236 7.22375 6.16883C7.21278 6.19531 7.20055 6.22118 7.18706 6.24646C7.17354 6.27173 7.15882 6.29628 7.1429 6.32011C7.12697 6.34394 7.10992 6.36693 7.09174 6.38908C7.07356 6.41123 7.05434 6.43244 7.03408 6.4527C7.01382 6.47297 6.99261 6.49219 6.97046 6.51037C6.94832 6.52855 6.92532 6.5456 6.90149 6.56152C6.87767 6.57744 6.85312 6.59216 6.82784 6.60566C6.80256 6.61917 6.77668 6.63141 6.7502 6.64238C6.72373 6.65335 6.69679 6.66299 6.66938 6.67131C6.64194 6.67963 6.61417 6.68658 6.58608 6.69217C6.55796 6.69776 6.52965 6.70196 6.50114 6.70477C6.47262 6.70758 6.44403 6.70898 6.41536 6.70898C6.3867 6.70898 6.35811 6.70758 6.32959 6.70477C6.30108 6.70196 6.27277 6.69776 6.24465 6.69217C6.21655 6.68658 6.18879 6.67963 6.16135 6.67131C6.13394 6.66299 6.10699 6.65335 6.0805 6.64238C6.05404 6.63141 6.02817 6.61917 6.00289 6.60566C5.97761 6.59216 5.95306 6.57744 5.92924 6.56152C5.90541 6.5456 5.88241 6.52855 5.86026 6.51037C5.83812 6.49219 5.81691 6.47297 5.79665 6.4527C5.77639 6.43244 5.75717 6.41123 5.73899 6.38908C5.72081 6.36693 5.70376 6.34394 5.68783 6.32011C5.67191 6.29628 5.65719 6.27173 5.64367 6.24646C5.63018 6.22118 5.61795 6.19531 5.60698 6.16883C5.59601 6.14236 5.58637 6.11541 5.57805 6.08798C5.56973 6.06056 5.56276 6.0328 5.55716 6.00469C5.55158 5.97658 5.54738 5.94827 5.54456 5.91975C5.54176 5.89123 5.54036 5.86264 5.54036 5.83398C5.54036 5.80533 5.54176 5.77674 5.54456 5.74822C5.54738 5.7197 5.55158 5.69139 5.55716 5.66328C5.56276 5.63517 5.56973 5.60741 5.57805 5.57999C5.58637 5.55256 5.59601 5.52561 5.60698 5.49914C5.61795 5.47266 5.63018 5.44679 5.64367 5.42151C5.65719 5.39624 5.67191 5.37169 5.68783 5.34786C5.70376 5.32403 5.72081 5.30104 5.73899 5.27889C5.75717 5.25674 5.77639 5.23553 5.79665 5.21527C5.81691 5.195 5.83812 5.17578 5.86026 5.1576C5.88241 5.13942 5.90541 5.12237 5.92924 5.10645C5.95306 5.09053 5.97761 5.07581 6.00289 5.0623C6.02817 5.04879 6.05404 5.03656 6.0805 5.02559C6.10699 5.01462 6.13394 5.00498 6.16135 4.99666C6.18879 4.98834 6.21655 4.98139 6.24465 4.9758C6.27277 4.97021 6.30108 4.96601 6.32959 4.9632C6.35811 4.96039 6.3867 4.95898 6.41536 4.95898C6.44403 4.95898 6.47262 4.96039 6.50114 4.9632C6.52965 4.96601 6.55796 4.97021 6.58608 4.9758C6.61417 4.98139 6.64194 4.98834 6.66938 4.99666C6.69679 5.00498 6.72373 5.01462 6.7502 5.02559C6.77668 5.03656 6.80256 5.04879 6.82784 5.0623C6.85312 5.07581 6.87767 5.09053 6.90149 5.10645C6.92532 5.12237 6.94832 5.13942 6.97046 5.1576C6.99261 5.17578 7.01382 5.195 7.03408 5.21527C7.05434 5.23553 7.07356 5.25674 7.09174 5.27889C7.10992 5.30104 7.12697 5.32403 7.1429 5.34786C7.15882 5.37169 7.17354 5.39624 7.18706 5.42151C7.20055 5.44679 7.21278 5.47266 7.22375 5.49914C7.23471 5.52561 7.24436 5.55256 7.25268 5.57999C7.261 5.60741 7.26796 5.63517 7.27356 5.66328C7.27915 5.69139 7.28335 5.7197 7.28616 5.74822C7.28896 5.77674 7.29036 5.80533 7.29036 5.83398Z" fill="white"/>
<path fill-rule="evenodd" clip-rule="evenodd" d="M2.43699 8.52593L4.18712 7.0676C4.29798 6.97521 4.45975 6.9778 4.56761 7.07368L5.69305 8.07411L6.52136 7.36214C6.63729 7.2625 6.81049 7.26927 6.91829 7.37765L8.08049 8.54616C8.13486 8.60081 8.16537 8.67476 8.16537 8.75184V9.33333C8.16537 9.6555 7.90421 9.91667 7.58203 9.91667H6.9987H6.998H2.91536C2.5932 9.91667 2.33203 9.6555 2.33203 9.33333V8.75C2.33203 8.66344 2.37048 8.58134 2.43699 8.52593Z" fill="white" fill-opacity="0.32"/>
</g>
<path fill-rule="evenodd" clip-rule="evenodd" d="M7 0L10.5 3.5H8.16667C7.52233 3.5 7 2.97767 7 2.33333V0Z" fill="#A8CAFF"/>
</g>
<defs>
<filter id="filter0_d_7020_11009" x="2.33203" y="4.08398" width="6.99967" height="6.9987" filterUnits="userSpaceOnUse" color-interpolation-filters="sRGB">
<feFlood flood-opacity="0" result="BackgroundImageFix"/>
<feColorMatrix in="SourceAlpha" type="matrix" values="0 0 0 0 0 0 0 0 0 0 0 0 0 0 0 0 0 0 127 0" result="hardAlpha"/>
<feOffset dx="0.583333" dy="0.583333"/>
<feGaussianBlur stdDeviation="0.291667"/>
<feColorMatrix type="matrix" values="0 0 0 0 0.0784314 0 0 0 0 0.294118 0 0 0 0 0.8 0 0 0 0.1 0"/>
<feBlend mode="normal" in2="BackgroundImageFix" result="effect1_dropShadow_7020_11009"/>
<feBlend mode="normal" in="SourceGraphic" in2="effect1_dropShadow_7020_11009" result="shape"/>
</filter>
</defs>
</svg>
