<svg width="11" height="13" viewBox="0 0 11 13" fill="none" xmlns="http://www.w3.org/2000/svg">
<path d="M7 0L10.5 3.5V11.667C10.4998 12.3112 9.97723 12.833 9.33301 12.833H1.16699C0.522768 12.833 0.000175596 12.3112 0 11.667V1.16699C0 0.52266 0.52266 0 1.16699 0H7Z" fill="#0CBF92"/>
<mask id="mask0_10056_1956" style="mask-type:luminance" maskUnits="userSpaceOnUse" x="0" y="0" width="11" height="13">
<path d="M7 0L10.5 3.5V11.667C10.4998 12.3112 9.97723 12.833 9.33301 12.833H1.16699C0.522768 12.833 0.000175596 12.3112 0 11.667V1.16699C0 0.52266 0.52266 0 1.16699 0H7Z" fill="white"/>
</mask>
<g mask="url(#mask0_10056_1956)">
<g filter="url(#filter0_d_10056_1956)">
<path fill-rule="evenodd" clip-rule="evenodd" d="M7.58301 4.08398H2.91634C2.59418 4.08398 2.33301 4.34515 2.33301 4.66732V8.75065C2.33301 8.66408 2.37146 8.58198 2.43796 8.52659L4.18809 7.06826C4.29896 6.97586 4.46072 6.97845 4.56858 7.07433L5.69403 8.07477L6.52233 7.36278C6.63827 7.26315 6.81146 7.26992 6.91926 7.3783L8.08147 8.54681C8.13563 8.60126 8.16614 8.67491 8.16634 8.75167V4.66732C8.16634 4.34515 7.90518 4.08398 7.58301 4.08398ZM7.29134 5.83398C7.29134 5.86264 7.28994 5.89123 7.28714 5.91975C7.28432 5.94827 7.28012 5.97658 7.27454 6.00469C7.26894 6.0328 7.26198 6.06056 7.25366 6.08798C7.24534 6.11541 7.23569 6.14236 7.22473 6.16883C7.21376 6.19531 7.20153 6.22118 7.18803 6.24646C7.17452 6.27173 7.1598 6.29628 7.14387 6.32011C7.12795 6.34394 7.1109 6.36693 7.09272 6.38908C7.07454 6.41123 7.05532 6.43244 7.03505 6.4527C7.01479 6.47297 6.99359 6.49219 6.97144 6.51037C6.94929 6.52855 6.9263 6.5456 6.90246 6.56152C6.87864 6.57744 6.85409 6.59216 6.82882 6.60566C6.80354 6.61917 6.77766 6.63141 6.75117 6.64238C6.72471 6.65335 6.69777 6.66299 6.67035 6.67131C6.64292 6.67963 6.61515 6.68658 6.58705 6.69217C6.55894 6.69776 6.53063 6.70196 6.50212 6.70477C6.4736 6.70758 6.445 6.70898 6.41634 6.70898C6.38768 6.70898 6.35909 6.70758 6.33056 6.70477C6.30206 6.70196 6.27375 6.69776 6.24563 6.69217C6.21753 6.68658 6.18976 6.67963 6.16233 6.67131C6.13491 6.66299 6.10796 6.65335 6.08148 6.64238C6.05502 6.63141 6.02914 6.61917 6.00387 6.60566C5.97859 6.59216 5.95404 6.57744 5.93022 6.56152C5.90638 6.5456 5.88339 6.52855 5.86124 6.51037C5.83909 6.49219 5.81789 6.47297 5.79763 6.4527C5.77737 6.43244 5.75815 6.41123 5.73997 6.38908C5.72179 6.36693 5.70473 6.34394 5.68881 6.32011C5.67288 6.29628 5.65816 6.27173 5.64465 6.24646C5.63116 6.22118 5.61892 6.19531 5.60796 6.16883C5.59699 6.14236 5.58735 6.11541 5.57902 6.08798C5.5707 6.06056 5.56374 6.0328 5.55814 6.00469C5.55256 5.97658 5.54836 5.94827 5.54554 5.91975C5.54274 5.89123 5.54134 5.86264 5.54134 5.83398C5.54134 5.80533 5.54274 5.77674 5.54554 5.74822C5.54836 5.7197 5.55256 5.69139 5.55814 5.66328C5.56374 5.63517 5.5707 5.60741 5.57902 5.57999C5.58735 5.55256 5.59699 5.52561 5.60796 5.49914C5.61892 5.47266 5.63116 5.44679 5.64465 5.42151C5.65816 5.39624 5.67288 5.37169 5.68881 5.34786C5.70473 5.32403 5.72179 5.30104 5.73997 5.27889C5.75815 5.25674 5.77737 5.23553 5.79763 5.21527C5.81789 5.195 5.83909 5.17578 5.86124 5.1576C5.88339 5.13942 5.90638 5.12237 5.93022 5.10645C5.95404 5.09053 5.97859 5.07581 6.00387 5.0623C6.02914 5.04879 6.05502 5.03656 6.08148 5.02559C6.10796 5.01462 6.13491 5.00498 6.16233 4.99666C6.18976 4.98834 6.21753 4.98139 6.24563 4.9758C6.27375 4.97021 6.30206 4.96601 6.33056 4.9632C6.35909 4.96039 6.38768 4.95898 6.41634 4.95898C6.445 4.95898 6.4736 4.96039 6.50212 4.9632C6.53063 4.96601 6.55894 4.97021 6.58705 4.9758C6.61515 4.98139 6.64292 4.98834 6.67035 4.99666C6.69777 5.00498 6.72471 5.01462 6.75117 5.02559C6.77766 5.03656 6.80354 5.04879 6.82882 5.0623C6.85409 5.07581 6.87864 5.09053 6.90246 5.10645C6.9263 5.12237 6.94929 5.13942 6.97144 5.1576C6.99359 5.17578 7.01479 5.195 7.03505 5.21527C7.05532 5.23553 7.07454 5.25674 7.09272 5.27889C7.1109 5.30104 7.12795 5.32403 7.14387 5.34786C7.1598 5.37169 7.17452 5.39624 7.18803 5.42151C7.20153 5.44679 7.21376 5.47266 7.22473 5.49914C7.23569 5.52561 7.24534 5.55256 7.25366 5.57999C7.26198 5.60741 7.26894 5.63517 7.27454 5.66328C7.28012 5.69139 7.28432 5.7197 7.28714 5.74822C7.28994 5.77674 7.29134 5.80533 7.29134 5.83398Z" fill="white"/>
<path fill-rule="evenodd" clip-rule="evenodd" d="M2.43796 8.52593L4.18809 7.0676C4.29896 6.97521 4.46072 6.9778 4.56858 7.07368L5.69403 8.07411L6.52233 7.36214C6.63827 7.2625 6.81146 7.26927 6.91926 7.37765L8.08147 8.54616C8.13583 8.60081 8.16634 8.67476 8.16634 8.75184V9.33333C8.16634 9.6555 7.90518 9.91667 7.58301 9.91667H6.99967H6.99897H2.91634C2.59418 9.91667 2.33301 9.6555 2.33301 9.33333V8.75C2.33301 8.66344 2.37146 8.58134 2.43796 8.52593Z" fill="white" fill-opacity="0.32"/>
</g>
<path fill-rule="evenodd" clip-rule="evenodd" d="M7 0L10.5 3.5H8.16667C7.52233 3.5 7 2.97767 7 2.33333V0Z" fill="#B3F2DA"/>
</g>
<defs>
<filter id="filter0_d_10056_1956" x="2.33301" y="4.08398" width="6.99967" height="6.9987" filterUnits="userSpaceOnUse" color-interpolation-filters="sRGB">
<feFlood flood-opacity="0" result="BackgroundImageFix"/>
<feColorMatrix in="SourceAlpha" type="matrix" values="0 0 0 0 0 0 0 0 0 0 0 0 0 0 0 0 0 0 127 0" result="hardAlpha"/>
<feOffset dx="0.583333" dy="0.583333"/>
<feGaussianBlur stdDeviation="0.291667"/>
<feColorMatrix type="matrix" values="0 0 0 0 0.0784314 0 0 0 0 0.294118 0 0 0 0 0.8 0 0 0 0.1 0"/>
<feBlend mode="normal" in2="BackgroundImageFix" result="effect1_dropShadow_10056_1956"/>
<feBlend mode="normal" in="SourceGraphic" in2="effect1_dropShadow_10056_1956" result="shape"/>
</filter>
</defs>
</svg>
