<svg width="14" height="14" viewBox="0 0 14 14" fill="none" xmlns="http://www.w3.org/2000/svg">
<path d="M11.0833 1.16699C11.7277 1.16699 12.25 1.68933 12.25 2.33366V7.87533H11.0833V2.33366H2.91667V11.667H5.54167V12.8337H2.91667C2.27233 12.8337 1.75 12.3113 1.75 11.667V2.33366C1.75 1.68933 2.27233 1.16699 2.91667 1.16699H11.0833ZM9.42362 8.1687C11.3149 8.23932 12.8333 10.5003 12.8333 10.5003L12.7621 10.6006C12.4357 11.0473 11.0246 12.8337 9.33333 12.8337L9.24304 12.832C7.35177 12.7613 5.83333 10.5003 5.83333 10.5003C5.83343 10.5002 7.4004 8.16699 9.33333 8.16699L9.42362 8.1687ZM9.33333 9.33366C8.81625 9.33366 8.21953 9.66626 7.64884 10.1919C7.53615 10.2956 7.432 10.4001 7.33781 10.5003C7.432 10.6005 7.53615 10.705 7.64884 10.8088C8.21953 11.3344 8.81625 11.667 9.33333 11.667C9.85041 11.667 10.4471 11.3344 11.0178 10.8088C11.1305 10.7051 11.2344 10.6005 11.3286 10.5003C11.2344 10.4002 11.1305 10.2956 11.0178 10.1919C10.4471 9.66626 9.85041 9.33366 9.33333 9.33366ZM9.33333 9.77116C9.73604 9.77116 10.0625 10.0976 10.0625 10.5003C10.0625 10.903 9.73604 11.2295 9.33333 11.2295C8.93063 11.2295 8.60417 10.903 8.60417 10.5003C8.60417 10.0976 8.93063 9.77116 9.33333 9.77116ZM6.80033 11.1529C6.79987 11.1536 6.79982 11.1538 6.80005 11.1534L6.80119 11.1517L6.80033 11.1529ZM6.80119 9.8492V9.84892C6.80099 9.84863 6.80077 9.84829 6.80062 9.84806L6.80033 9.84778C6.80056 9.84811 6.8008 9.84864 6.80119 9.8492ZM5.6875 7.29199H4.52083V6.12533H5.6875V7.29199ZM9.47917 7.29199H6.27083V6.12533H9.47917V7.29199ZM5.6875 4.95866H4.52083V3.79199H5.6875V4.95866ZM9.47917 4.95866H6.27083V3.79199H9.47917V4.95866Z" fill="#334155"/>
</svg>
