<svg width="20" height="20" viewBox="0 0 20 20" fill="none" xmlns="http://www.w3.org/2000/svg">
<rect width="20" height="20" rx="10" fill="#10B981"/>
<path d="M4.684 6.416H6.088V4.172H7.204V6.416H8.344V7.508H7.204V8.024C7.684 8.504 8.164 9.044 8.644 9.644L7.996 10.616C7.696 10.04 7.432 9.56 7.204 9.176V15.176H6.088V9.824C5.752 10.808 5.344 11.72 4.864 12.56L4.372 11.3C5.14 10.196 5.704 8.924 6.064 7.508H4.684V6.416ZM10.036 7.928C9.628 8.336 9.196 8.708 8.752 9.02L8.14 8.06C9.52 7.076 10.588 5.78 11.332 4.184H12.388C13.012 5.648 14.104 6.944 15.64 8.048L15.016 9.008C14.548 8.672 14.128 8.324 13.756 7.964V8.6H10.036V7.928ZM13.348 7.544C12.736 6.872 12.244 6.128 11.86 5.312C11.428 6.164 10.936 6.908 10.384 7.544H13.348ZM8.416 13.796H12.532C12.988 12.548 13.384 11.012 13.732 9.2L14.812 9.476C14.5 11.084 14.104 12.524 13.648 13.796H15.364V14.9H8.416V13.796ZM9.952 9.524C10.264 10.532 10.552 11.696 10.792 13.016L9.796 13.28C9.568 12.092 9.292 10.952 8.968 9.86L9.952 9.524ZM11.752 9.104C12.052 10.076 12.316 11.192 12.556 12.452L11.524 12.728C11.332 11.576 11.08 10.472 10.78 9.416L11.752 9.104Z" fill="white"/>
</svg>
