<svg width="80" height="80" viewBox="0 0 80 80" fill="none" xmlns="http://www.w3.org/2000/svg">
<foreignObject x="-6.47238" y="26.9202" width="92.9448" height="59.4702"><div xmlns="http://www.w3.org/1999/xhtml" style="backdrop-filter:blur(3.64px);clip-path:url(#bgblur_0_3982_108386_clip_path);height:100%;width:100%"></div></foreignObject><path data-figma-bg-blur-radius="7.28" d="M41.3936 34.9717C40.5307 34.4767 39.4693 34.4767 38.6064 34.9717L1.40918 56.3086C1.14121 56.4623 1.14121 56.8482 1.40918 57.002L38.6064 78.3389C39.4693 78.8338 40.5307 78.8338 41.3936 78.3389L78.5908 57.002C78.8588 56.8482 78.8588 56.4623 78.5908 56.3086L41.3936 34.9717Z" fill="white" stroke="url(#paint0_linear_3982_108386)" stroke-width="0.8"/>
<path d="M40.9307 41.4475C39.9446 40.8818 38.7324 40.8818 37.7463 41.4475L12.5763 55.8851C12.0403 56.1925 12.0403 56.9656 12.5763 57.273L37.7463 71.7106C38.7324 72.2763 39.9446 72.2763 40.9307 71.7106L66.1008 57.273C66.6367 56.9656 66.6367 56.1925 66.1008 55.8851L40.9307 41.4475Z" fill="url(#paint1_linear_3982_108386)"/>
<foreignObject x="2.95047" y="25.9622" width="73.933" height="49.7856"><div xmlns="http://www.w3.org/1999/xhtml" style="backdrop-filter:blur(3.64px);clip-path:url(#bgblur_1_3982_108386_clip_path);height:100%;width:100%"></div></foreignObject><path data-figma-bg-blur-radius="7.28" d="M10.6309 50.8926V51.4434L39.793 68.0078L69.2031 51.4414V50.8945L39.793 33.7061L10.6309 50.8926Z" fill="white" fill-opacity="0.2" stroke="url(#paint2_linear_3982_108386)" stroke-width="0.8"/>
<path d="M39.7917 67.5844L10.2304 50.666V51.6761L39.7917 68.5183L69.6035 51.6761L69.6035 50.666L39.7917 67.5844Z" fill="url(#paint3_linear_3982_108386)"/>
<path d="M17.4043 49.8799L17.127 50.042V50.043L17.208 50.1807L16.9326 50.3438L16.8516 50.2061V50.2051L16.5752 50.3672V50.3682L16.6562 50.5059L16.5186 50.5879C16.4935 50.6027 16.4715 50.6192 16.4531 50.6377L16.3398 50.5254V50.5244C16.2792 50.5853 16.2399 50.6598 16.2197 50.7383L16.374 50.7783C16.3604 50.8319 16.3605 50.889 16.375 50.9424L16.2217 50.9834C16.2429 51.0616 16.2843 51.1343 16.3457 51.1943L16.457 51.0811L16.5225 51.1309L16.6611 51.209L16.582 51.3477L16.8584 51.5039L16.9365 51.3652L17.2129 51.5225L17.1338 51.6611L17.4102 51.8184L17.4883 51.6797L17.7646 51.8359L17.6865 51.9746L17.9619 52.1318L18.041 51.9932L18.3164 52.1494L18.2383 52.2881L18.5137 52.4453L18.5928 52.3066L18.8682 52.4629L18.79 52.6016L19.0654 52.7588L19.1445 52.6201L19.4209 52.7764L19.3428 52.915L19.6172 53.0723L19.6963 52.9336L19.9727 53.0898L19.8945 53.2285L20.1689 53.3857L20.248 53.2471L20.5244 53.4033L20.4463 53.542L20.7217 53.6992L20.8008 53.5605L21.0762 53.7168L20.998 53.8555L21.2734 54.0127L21.3525 53.874L21.6279 54.0303L21.5498 54.1689L21.8252 54.3262L21.9043 54.1875L22.1797 54.3438L22.1016 54.4834L22.377 54.6396L22.4561 54.501L22.7324 54.6572L22.6533 54.7969L22.9287 54.9531L23.0078 54.8145L23.2842 54.9717L23.2051 55.1104L23.4805 55.2666L23.5596 55.1279L23.8359 55.2852L23.7578 55.4229L24.0342 55.5801L24.1123 55.4414L24.3877 55.5986L24.3096 55.7363L24.5859 55.8936L24.6641 55.7549L24.9395 55.9121L24.8613 56.0498L25.1377 56.207L25.2158 56.0684L25.4922 56.2256L25.4131 56.3643L25.6895 56.5205L25.7676 56.3818L26.0439 56.5391L25.9648 56.6777L26.2412 56.834L26.3193 56.6953L26.5957 56.8525L26.5166 56.9912L26.793 57.1484L26.8711 57.0088L27.1475 57.166L27.0684 57.3047L27.3457 57.4609L27.4238 57.3223L27.6992 57.4795L27.6201 57.6182L27.8975 57.7744L27.9756 57.6357L28.251 57.793L28.1729 57.9316L28.4492 58.0879L28.5273 57.9492L28.8037 58.1064L28.7246 58.2451L29.001 58.4014L29.0791 58.2637L29.3555 58.4199L29.2764 58.5586L29.5527 58.7148L29.6309 58.5771L29.9072 58.7334L29.8291 58.8721L30.1045 59.0293L30.1836 58.8906L30.459 59.0469L30.3809 59.1855L30.6562 59.3428L30.7354 59.2041L31.0107 59.3604L30.9326 59.499L31.208 59.6562L31.2871 59.5176L31.5635 59.6738L31.4854 59.8125L31.7598 59.9697L31.8389 59.8311L32.1152 59.9873L32.0371 60.126L32.3125 60.2822L32.3906 60.1445L32.667 60.3008L32.5889 60.4395L32.8643 60.5967L32.9424 60.458L33.2188 60.6143L33.1406 60.7529L33.416 60.9102L33.4951 60.7715L33.7705 60.9277L33.6924 61.0664L33.9678 61.2236L34.0469 61.085L34.3223 61.2412L34.2441 61.3809L34.5195 61.5371L34.5986 61.3984L34.875 61.5557L34.7959 61.6943L35.0713 61.8506L35.1504 61.7119L35.4268 61.8691L35.3486 62.0068L35.624 62.1641L35.7021 62.0254L35.9785 62.1826L35.9004 62.3203L36.1768 62.4775L36.2549 62.3389L36.5303 62.4961L36.4521 62.6338L36.7285 62.791L36.8066 62.6523L37.082 62.8096L37.0039 62.9473L37.2803 63.1045L37.3584 62.9658L37.6348 63.123L37.5557 63.2617L37.832 63.418L37.9102 63.2793L38.1865 63.4365L38.1074 63.5752L38.3838 63.7314L38.4619 63.5928L38.7383 63.75L38.6592 63.8887L38.9365 64.0449L39.0137 63.9062L39.1523 63.9854C39.176 63.9988 39.201 64.0088 39.2266 64.0156L39.1865 64.1689C39.2654 64.1898 39.3479 64.1905 39.4268 64.1699L39.3867 64.0156C39.4123 64.0089 39.4372 63.9987 39.4609 63.9854L39.6006 63.9072L39.6797 64.0469L39.958 63.8896H39.957L39.8789 63.75L40.1572 63.5938L40.2354 63.7324L40.5146 63.5762H40.5137L40.4355 63.4365L40.7139 63.2803L40.792 63.4189L41.0713 63.2627H41.0703L40.9922 63.123L41.2705 62.9668L41.3486 63.1055L41.6279 62.9492L41.5488 62.8096L41.8271 62.6533L41.9053 62.792H41.9062L42.1846 62.6357L42.1045 62.4961L42.3828 62.3398L42.4619 62.4785H42.4629L42.7412 62.3223L42.6611 62.1826L42.9395 62.0264L43.0186 62.165H43.0195L43.2979 62.0088L43.2178 61.8691L43.4961 61.7129L43.5752 61.8516H43.5762L43.8535 61.6943L43.7744 61.5557L44.0527 61.3994L44.1318 61.5381H44.1328L44.4102 61.3809L44.3311 61.2422L44.6094 61.0859L44.6885 61.2246H44.6895L44.9668 61.0674L44.8877 60.9287L45.166 60.7715L45.2461 60.9111L45.5234 60.7539L45.4443 60.6152L45.7227 60.458L45.8027 60.5977L46.0801 60.4404L46.001 60.3018L46.2793 60.1445L46.3594 60.2842L46.6367 60.127L46.5576 59.9883L46.8359 59.8311L46.916 59.9707L47.1934 59.8135L47.1143 59.6748L47.3926 59.5176L47.4717 59.6562L47.751 59.5H47.75L47.6709 59.3613L47.9492 59.2041L48.0283 59.3428L48.3076 59.1865H48.3066L48.2275 59.0479L48.5059 58.8906L48.585 59.0293L48.8643 58.873L48.7842 58.7344L49.0625 58.5771L49.1416 58.7158L49.4209 58.5596L49.3408 58.4209L49.6191 58.2637L49.6982 58.4023L49.9775 58.2461L49.8975 58.1074L50.1758 57.9502L50.2549 58.0898L50.5332 57.9326H50.5322L50.4541 57.793L50.7324 57.6367L50.8115 57.7764L51.0898 57.6191H51.0889L51.0107 57.4795L51.2891 57.3232L51.3672 57.4619L51.6465 57.3057H51.6455L51.5674 57.166L51.8457 57.0098L51.9238 57.1484L52.2031 56.9922H52.2021L52.124 56.8525L52.4023 56.6963L52.4805 56.835L52.7598 56.6787H52.7588L52.6807 56.5391L52.959 56.3828L53.0371 56.5215L53.3164 56.3652L53.2373 56.2256L53.5156 56.0693L53.5938 56.208H53.5947L53.873 56.0518L53.7939 55.9121L54.0723 55.7559L54.1504 55.8945H54.1514L54.4297 55.7383L54.3506 55.5986L54.6289 55.4424L54.707 55.5811H54.708L54.9854 55.4238L54.9072 55.2852L55.1855 55.1289L55.2637 55.2676H55.2646L55.542 55.1104L55.4639 54.9717L55.7422 54.8154L55.8203 54.9541H55.8213L56.0986 54.7969L56.0205 54.6582L56.2988 54.501L56.377 54.6406H56.3779L56.6553 54.4834L56.5771 54.3447L56.8555 54.1875L56.9346 54.3271L57.2119 54.1699L57.1338 54.0312L57.4121 53.874L57.4912 54.0137L57.7686 53.8564L57.6904 53.7178L57.9688 53.5605L58.0479 53.7002L58.3252 53.543L58.2471 53.4043L58.5254 53.2471L58.6035 53.3857L58.8818 53.2295L58.8037 53.0908L59.082 52.9336L59.1602 53.0723L59.4395 52.916H59.4385L59.3604 52.7773L59.6387 52.6201L59.7168 52.7588L59.9961 52.6025H59.9951L59.917 52.4639L60.1953 52.3066L60.2734 52.4453L60.5527 52.2891L60.4736 52.1504L60.752 51.9932L60.8301 52.1318L61.1094 51.9756L61.0303 51.8369L61.3086 51.6797L61.3867 51.8184L61.666 51.6621L61.5869 51.5234L61.8643 51.3662L61.9434 51.5049L62.2217 51.3477L62.1426 51.209L62.2822 51.1309C62.3076 51.1165 62.3298 51.1002 62.3486 51.082L62.4609 51.1963C62.5227 51.1361 62.5637 51.0619 62.585 50.9834L62.4307 50.9424C62.4453 50.8889 62.4453 50.832 62.4316 50.7783L62.5869 50.7383C62.5668 50.6597 62.5265 50.5854 62.4658 50.5244L62.3525 50.6377L62.2861 50.5869L62.1475 50.5059L62.2285 50.3672L61.9512 50.2041L61.9502 50.2051L61.8691 50.3428L61.5908 50.1807L61.6719 50.042L61.6729 50.041L61.3936 49.8789L61.3125 50.0176L61.0342 49.8545L61.1152 49.7168L61.1162 49.7158L60.8369 49.5537L60.7559 49.6924L60.4775 49.5293L60.5586 49.3916L60.5596 49.3906L60.2803 49.2285L60.1992 49.3672L59.9209 49.2041L60.002 49.0664L60.0029 49.0654L59.7236 48.9033L59.6426 49.042L59.3643 48.8789L59.4453 48.7412L59.4463 48.7402L59.168 48.5771L59.167 48.5781L59.0859 48.7158L58.8076 48.5537L58.8887 48.415L58.6113 48.252L58.6104 48.2529L58.5293 48.3906L58.251 48.2285L58.332 48.0898L58.0547 47.9268L58.0537 47.9277L57.9727 48.0654L57.6943 47.9033L57.7754 47.7646L57.498 47.6016L57.4971 47.6025L57.416 47.7402L57.1377 47.5781L57.2188 47.4395L56.9414 47.2764L56.9404 47.2773L56.8594 47.415L56.5811 47.252L56.6621 47.1143L56.6631 47.1133L56.3838 46.9512L56.3027 47.0898L56.0244 46.9268L56.1055 46.7891L56.1064 46.7881L55.8271 46.626L55.7461 46.7646L55.4678 46.6016L55.5488 46.4639L55.5498 46.4629L55.2705 46.3008L55.1895 46.4395L54.9111 46.2764L54.9922 46.1387L54.9932 46.1377L54.7139 45.9756L54.6328 46.1143L54.3545 45.9512L54.4355 45.8135L54.4365 45.8125L54.1582 45.6494L54.1572 45.6504L54.0762 45.7881L53.7979 45.626L53.8789 45.4873L53.6016 45.3242L53.6006 45.3252L53.5195 45.4629L53.2412 45.3008L53.3223 45.1621L53.0449 44.999L53.0439 45L52.9629 45.1377L52.6846 44.9756L52.7656 44.8369L52.4883 44.6738L52.4873 44.6748L52.4062 44.8125L52.1279 44.6504L52.209 44.5117L51.9316 44.3486L51.9307 44.3496L51.8496 44.4873L51.5713 44.3242L51.6523 44.1865L51.6533 44.1855L51.374 44.0234L51.293 44.1621L51.0146 43.999L51.0957 43.8613L51.0967 43.8604L50.8174 43.6982L50.7373 43.8369L50.459 43.6738L50.5391 43.5361L50.54 43.5352L50.2607 43.373L50.1807 43.5117L49.9023 43.3486L49.9824 43.2109L49.9834 43.21L49.7051 43.0469L49.7041 43.0479L49.624 43.1865L49.3457 43.0234L49.4258 42.8848L49.1484 42.7217L49.1475 42.7227L49.0674 42.8604L48.7891 42.6982L48.8691 42.5596L48.5918 42.3965L48.5908 42.3975L48.5107 42.5352L48.2324 42.373L48.3125 42.2344L48.0352 42.0713L48.0342 42.0723L47.9541 42.21L47.6758 42.0479L47.7559 41.9092L47.4785 41.7461L47.4775 41.7471L47.3975 41.8848L47.1191 41.7217L47.1992 41.584L47.2002 41.583L46.9209 41.4209L46.8408 41.5596L46.5625 41.3965L46.6426 41.2588L46.6436 41.2578L46.3643 41.0957L46.2842 41.2344L46.0059 41.0713L46.0859 40.9336L46.0869 40.9326L45.8076 40.7705L45.7275 40.9092L45.4492 40.7461L45.5293 40.6084L45.5303 40.6074L45.251 40.4453L45.1709 40.584L44.8926 40.4209L44.9727 40.2832L44.9736 40.2822L44.6953 40.1201L44.6143 40.2578L44.3359 40.0957L44.417 39.957L44.1387 39.7949L44.0576 39.9326L43.7793 39.7705L43.8604 39.6318L43.582 39.4697L43.501 39.6074L43.2227 39.4453L43.3037 39.3066L43.0254 39.1445L42.9443 39.2822L42.666 39.1201L42.7471 38.9814L42.4688 38.8193L42.3877 38.957L42.1094 38.7939L42.1904 38.6562L41.9121 38.4932L41.8311 38.6318L41.5527 38.4688L41.6338 38.3311L41.3555 38.168L41.2744 38.3066L40.9961 38.1436L41.0771 38.0059L40.7988 37.8428L40.7178 37.9814L40.4395 37.8184L40.5205 37.6807L40.2422 37.5176L40.1611 37.6562L39.8828 37.4932L39.9639 37.3555L39.6855 37.1924L39.6045 37.3301L39.4658 37.249C39.4415 37.2348 39.4151 37.2239 39.3887 37.2168L39.4307 37.0625C39.3492 37.0405 39.263 37.0402 39.1816 37.0625V37.0635L39.2246 37.2178C39.1982 37.225 39.1718 37.2357 39.1475 37.25L39.0098 37.3311L38.9297 37.1934L38.6533 37.3555L38.7334 37.4941L38.458 37.6562L38.3779 37.5186L38.1006 37.6807V37.6816L38.1816 37.8193L37.9062 37.9814L37.8262 37.8438L37.5488 38.0059V38.0068L37.6299 38.1445L37.3545 38.3066L37.2734 38.1689L36.9971 38.3311V38.332L37.0781 38.4697L36.8018 38.6318L36.7217 38.4941L36.4453 38.6562V38.6572L36.5264 38.7949L36.25 38.958L36.1699 38.8193L35.8936 38.9824L35.9746 39.1201L35.6982 39.2832L35.6172 39.1455V39.1445L35.3418 39.3076L35.4219 39.4453L35.1465 39.6084L35.0654 39.4707V39.4697L34.79 39.6328L34.8701 39.7705L34.5947 39.9336L34.5137 39.7959L34.2383 39.958L34.3184 40.0957L34.042 40.2588L33.9619 40.1211L33.6865 40.2832L33.7666 40.4219L33.4902 40.584L33.4102 40.4463L33.1338 40.6094H33.1328L33.2148 40.7471L32.9385 40.9092L32.8584 40.7715L32.582 40.9346H32.5811L32.6621 41.0723L32.3867 41.2344L32.3066 41.0967L32.0303 41.2598H32.0293L32.1104 41.3975L31.835 41.5605L31.7549 41.4219L31.4785 41.585H31.4775L31.5586 41.7227L31.2832 41.8857L31.2021 41.7471L30.9268 41.9102H30.9258L31.0068 42.0479L30.7305 42.2109L30.6494 42.0732V42.0723L30.375 42.2354H30.374L30.4551 42.373L30.1787 42.5361L30.0977 42.3984V42.3975L29.8223 42.5605L29.9033 42.6982L29.627 42.8613L29.5459 42.7236V42.7227L29.2705 42.8857L29.3506 43.0244L29.0752 43.1865L28.9941 43.0488V43.0479L28.7178 43.2109V43.2119L28.7988 43.3496L28.5234 43.5117L28.4424 43.374L28.166 43.5361V43.5371L28.2471 43.6748L27.9707 43.8369L27.8906 43.6992L27.6143 43.8613V43.8623L27.6953 44L27.4189 44.1621L27.3389 44.0244L27.0625 44.1875H27.0615L27.1436 44.3252L26.8672 44.4883L26.7871 44.3496L26.5107 44.5127H26.5098L26.5908 44.6504L26.3154 44.8135L26.2344 44.6758V44.6748L25.959 44.8379H25.958L26.0391 44.9756L25.7637 45.1387L25.6826 45.001V45L25.4072 45.1631H25.4062L25.4873 45.3008L25.2119 45.4639L25.1299 45.3262V45.3252L24.8555 45.4883H24.8545L24.9355 45.626L24.6592 45.7891L24.5781 45.6514V45.6504L24.3037 45.8135H24.3027L24.3838 45.9521L24.1074 46.1143L24.0264 45.9766V45.9756L23.75 46.1387V46.1396L23.832 46.2773L23.5557 46.4395L23.4746 46.3018V46.3008L23.1982 46.4639V46.4648L23.2793 46.6025L23.0039 46.7646L22.9229 46.627V46.626L22.6465 46.7891V46.79L22.7275 46.9277L22.4521 47.0908L22.3711 46.9521L22.0947 47.1143V47.1152L22.1758 47.2529L21.8994 47.416L21.8193 47.2773L21.543 47.4395V47.4404L21.624 47.5781L21.3477 47.7412L21.2666 47.6035V47.6025L20.9912 47.7656L21.0723 47.9033L20.7959 48.0664L20.7148 47.9287V47.9277L20.4395 48.0908L20.5195 48.2285L20.2441 48.3916L20.1631 48.2539V48.2529L19.8877 48.416L19.9678 48.5547L19.6924 48.7168L19.6113 48.5791V48.5781L19.335 48.7412V48.7422L19.416 48.8799L19.1406 49.042L19.0596 48.9043L18.7832 49.0664V49.0674L18.8643 49.2051L18.5879 49.3672L18.5078 49.2295L18.2314 49.3916V49.3926L18.3125 49.5303L18.0361 49.6924L17.9561 49.5547L17.6787 49.7168V49.7178L17.7607 49.8555L17.4844 50.0186L17.4043 49.8799Z" fill="white" fill-opacity="0.2" stroke="url(#paint4_linear_3982_108386)" stroke-width="0.32" stroke-dasharray="0.32 0.32"/>
<path d="M16.3408 47.7979L16.0635 47.96V47.9609L16.1445 48.0986L16.0068 48.1797C15.9817 48.1945 15.9599 48.2119 15.9414 48.2305L15.8281 48.1182V48.1172C15.7675 48.1781 15.7281 48.2526 15.708 48.3311L15.8623 48.3711C15.8487 48.4246 15.8488 48.4818 15.8633 48.5352L15.71 48.5762C15.7312 48.6543 15.7726 48.7271 15.834 48.7871L15.9453 48.6738L16.0107 48.7236L16.1494 48.8018L16.0703 48.9404L16.3467 49.0967L16.4248 48.958L16.7012 49.1152L16.6221 49.2539L16.8984 49.4102L16.9766 49.2715L17.2529 49.4287L17.1738 49.5674L17.4502 49.7246L17.5293 49.585L17.8047 49.7422L17.7256 49.8809L18.002 50.0381L18.0811 49.8994L18.3564 50.0557L18.2773 50.1943L18.5537 50.3516L18.6328 50.2129L18.9092 50.3691L18.8311 50.5078L19.1055 50.665L19.1846 50.5264L19.4609 50.6826L19.3828 50.8213L19.6572 50.9785L19.7363 50.8398L20.0127 50.9961L19.9346 51.1348L20.21 51.292L20.2881 51.1533L20.5645 51.3096L20.4863 51.4482L20.7617 51.6055L20.8408 51.4668L21.1162 51.623L21.0381 51.7617L21.3135 51.9189L21.3926 51.7803L21.668 51.9365L21.5898 52.0762L21.8652 52.2324L21.9443 52.0938L22.2207 52.25L22.1416 52.3896L22.417 52.5459L22.4961 52.4072L22.7725 52.5635L22.6934 52.7031L22.9688 52.8594L23.0479 52.7207L23.3242 52.877L23.2461 53.0156L23.5215 53.1729L23.6006 53.0342L23.876 53.1904L23.7979 53.3291L24.0732 53.4863L24.1523 53.3477L24.4277 53.5049L24.3496 53.6426L24.626 53.7998L24.7041 53.6611L24.9805 53.8184L24.9014 53.957L25.1777 54.1133L25.2559 53.9746L25.5322 54.1318L25.4531 54.2705L25.7295 54.4268L25.8076 54.2881L26.084 54.4453L26.0049 54.584L26.2812 54.7412L26.3594 54.6016L26.6357 54.7588L26.5566 54.8975L26.834 55.0537L26.9121 54.915L27.1875 55.0723L27.1084 55.2109L27.3857 55.3672L27.4639 55.2285L27.7393 55.3857L27.6611 55.5244L27.9375 55.6807L28.0156 55.542L28.292 55.6992L28.2129 55.8379L28.4893 55.9941L28.5674 55.8555L28.8438 56.0127L28.7646 56.1514L29.041 56.3076L29.1191 56.1689L29.3955 56.3262L29.3164 56.4648L29.5928 56.6221L29.6719 56.4824L29.9473 56.6396L29.8682 56.7783L30.1445 56.9355L30.2236 56.7969L30.499 56.9531L30.4199 57.0918L30.6963 57.249L30.7754 57.1104L31.0518 57.2666L30.9736 57.4053L31.248 57.5625L31.3271 57.4238L31.6035 57.5801L31.5254 57.7188L31.8008 57.875L31.8789 57.7373L32.1553 57.8936L32.0771 58.0322L32.3525 58.1895L32.4307 58.0508L32.707 58.207L32.6289 58.3457L32.9043 58.5029L32.9834 58.3643L33.2588 58.5205L33.1807 58.6592L33.4561 58.8164L33.5352 58.6777L33.8105 58.834L33.7324 58.9736L34.0078 59.1299L34.0869 58.9912L34.3633 59.1475L34.2842 59.2871L34.5596 59.4434L34.6387 59.3047L34.915 59.4609L34.8369 59.5996L35.1113 59.7568L35.1904 59.6182L35.4668 59.7744L35.3887 59.9131L35.6641 60.0703L35.7432 59.9316L36.0186 60.0879L35.9404 60.2266L36.2158 60.3838L36.2949 60.2451L36.5703 60.4023L36.4922 60.54L36.7686 60.6973L36.8467 60.5586L37.123 60.7158L37.0439 60.8545L37.3203 61.0107L37.3984 60.8721L37.6748 61.0293L37.5957 61.168L37.8721 61.3242L37.9502 61.1855L38.2266 61.3428L38.1475 61.4814L38.4248 61.6377L38.502 61.499L38.6406 61.5771C38.6644 61.5907 38.6891 61.6016 38.7148 61.6084L38.6748 61.7617C38.7539 61.7826 38.8369 61.7835 38.916 61.7627H38.915L38.875 61.6084C38.9006 61.6017 38.9255 61.5915 38.9492 61.5781L39.0889 61.5L39.168 61.6396L39.4463 61.4824H39.4453L39.3672 61.3428L39.6455 61.1865L39.7236 61.3252H39.7246L40.0029 61.1689H40.002L39.9238 61.0293L40.2021 60.873L40.2803 61.0117H40.2812L40.5596 60.8555H40.5586L40.4805 60.7158L40.7588 60.5596L40.8369 60.6982H40.8379L41.1162 60.542L41.0371 60.4023L41.3154 60.2461L41.3936 60.3848H41.3945L41.6729 60.2285L41.5938 60.0889L41.8711 59.9326L41.9502 60.0713H41.9512L42.2295 59.915L42.1494 59.7754L42.4277 59.6182L42.5068 59.7578H42.5078L42.7861 59.6016L42.7061 59.4619L42.9844 59.3047L43.0635 59.4443H43.0645L43.3418 59.2871L43.2627 59.1484L43.541 58.9912L43.6201 59.1309H43.6211L43.8984 58.9736L43.8193 58.835L44.0977 58.6777L44.1768 58.8174H44.1777L44.4551 58.6602L44.376 58.5215L44.6543 58.3643L44.7344 58.5039L45.0117 58.3467L44.9326 58.208L45.2109 58.0508L45.291 58.1904L45.5693 58.0332H45.5684L45.4893 57.8945L45.7676 57.7373L45.8477 57.877L46.126 57.7197H46.125L46.0459 57.5811L46.3242 57.4238L46.4043 57.5635L46.6826 57.4062H46.6816L46.6025 57.2676L46.8809 57.1104L46.96 57.249L47.2393 57.0928H47.2383L47.1592 56.9541L47.4375 56.7969L47.5166 56.9355L47.7959 56.7793H47.7949L47.7158 56.6406L47.9941 56.4834L48.0732 56.6221L48.3525 56.4658L48.2725 56.3271L48.5508 56.1699L48.6299 56.3086L48.9092 56.1523L48.8291 56.0127L49.1074 55.8564L49.1865 55.9951L49.4658 55.8389L49.3857 55.6992L49.6641 55.543L49.7432 55.6826L50.0215 55.5254H50.0205L49.9424 55.3857L50.2207 55.2295L50.2998 55.3691L50.5781 55.2119H50.5771L50.499 55.0723L50.7773 54.916L50.8555 55.0547L51.1348 54.8984H51.1338L51.0557 54.7588L51.334 54.6025L51.4121 54.7412L51.6914 54.585H51.6904L51.6123 54.4453L51.8906 54.2891L51.9688 54.4277H51.9697L52.248 54.2715H52.2471L52.1689 54.1318L52.4473 53.9756L52.5254 54.1143H52.5264L52.8047 53.958L52.7256 53.8184L53.0039 53.6621L53.082 53.8008H53.083L53.3613 53.6445L53.2822 53.5049L53.5605 53.3486L53.6387 53.4873H53.6396L53.918 53.3311L53.8389 53.1914L54.1172 53.0352L54.1953 53.1738H54.1963L54.4736 53.0166L54.3955 52.8779L54.6738 52.7207L54.752 52.8604H54.7529L55.0303 52.7031L54.9521 52.5645L55.2305 52.4072L55.3086 52.5469H55.3096L55.5869 52.3896L55.5088 52.251L55.7871 52.0938L55.8652 52.2334H55.8662L56.1436 52.0762L56.0654 51.9375L56.3438 51.7803L56.4229 51.9199L56.7002 51.7627L56.6221 51.624L56.9004 51.4668L56.9795 51.6064L57.2568 51.4492L57.1787 51.3105L57.457 51.1533L57.5361 51.293L57.8145 51.1357H57.8135L57.7354 50.9971L58.0137 50.8398L58.0918 50.9785L58.3711 50.8223H58.3701L58.292 50.6836L58.5703 50.5264L58.6484 50.665L58.9277 50.5088H58.9268L58.8486 50.3701L59.127 50.2129L59.2051 50.3516L59.4844 50.1953H59.4834L59.4053 50.0566L59.6836 49.8994L59.7617 50.0381L60.041 49.8818L59.9619 49.7432L60.2402 49.5859L60.3184 49.7246L60.5977 49.5684L60.5186 49.4287L60.7969 49.2725L60.875 49.4111L61.1543 49.2549L61.0742 49.1152L61.3525 48.959L61.4316 49.0977L61.71 48.9404L61.6309 48.8018L61.7705 48.7236C61.7961 48.7092 61.8181 48.6922 61.8369 48.6738L61.9492 48.7891C62.011 48.7289 62.052 48.6547 62.0732 48.5762L61.9189 48.5352C61.9335 48.4817 61.9336 48.4247 61.9199 48.3711L62.0752 48.3311C62.0551 48.2524 62.0148 48.1781 61.9541 48.1172L61.8408 48.2305L61.7744 48.1797L61.6357 48.0986L61.7168 47.96L61.4395 47.7969L61.4385 47.7979L61.3574 47.9355L61.0791 47.7725L61.1602 47.6348L61.1611 47.6338L60.8818 47.4717L60.8008 47.6104L60.5225 47.4473L60.6035 47.3096L60.6045 47.3086L60.3252 47.1465L60.2441 47.2852L59.9658 47.1221L60.0469 46.9844L60.0479 46.9834L59.7686 46.8213L59.6875 46.96L59.4092 46.7969L59.4902 46.6592L59.4912 46.6582L59.2119 46.4961L59.1309 46.6348L58.8525 46.4717L58.9336 46.334L58.9346 46.333L58.6562 46.1699L58.6553 46.1709L58.5742 46.3086L58.2959 46.1465L58.377 46.0078L58.0996 45.8447L58.0986 45.8457L58.0176 45.9834L57.7393 45.8213L57.8203 45.6826L57.543 45.5195L57.542 45.5205L57.4609 45.6582L57.1826 45.4961L57.2637 45.3574L56.9863 45.1943L56.9854 45.1953L56.9043 45.333L56.626 45.1709L56.707 45.0322L56.4297 44.8691L56.4287 44.8701L56.3477 45.0078L56.0693 44.8447L56.1504 44.707L56.1514 44.7061L55.8721 44.5439L55.791 44.6826L55.5127 44.5195L55.5938 44.3818L55.5947 44.3809L55.3154 44.2188L55.2344 44.3574L54.9561 44.1943L55.0371 44.0566L55.0381 44.0557L54.7588 43.8936L54.6777 44.0322L54.3994 43.8691L54.4805 43.7314L54.4814 43.7305L54.2021 43.5684L54.1211 43.707L53.8428 43.5439L53.9238 43.4053L53.6465 43.2422L53.6455 43.2432L53.5645 43.3809L53.2861 43.2188L53.3672 43.0801L53.0898 42.917L53.0889 42.918L53.0078 43.0557L52.7295 42.8936L52.8105 42.7549L52.5332 42.5918L52.5322 42.5928L52.4512 42.7305L52.1729 42.5684L52.2539 42.4297L51.9766 42.2666L51.9756 42.2676L51.8945 42.4053L51.6162 42.2422L51.6973 42.1045L51.4189 41.9414L51.3379 42.0801L51.0596 41.917L51.1406 41.7793L51.1416 41.7783L50.8623 41.6162L50.7812 41.7549L50.5029 41.5918L50.584 41.4541L50.585 41.4531L50.3057 41.291L50.2256 41.4297L49.9473 41.2666L50.0273 41.1289L50.0283 41.1279L49.749 40.9658L49.6689 41.1045L49.3906 40.9414L49.4707 40.8037L49.4717 40.8027L49.1934 40.6396L49.1924 40.6406L49.1123 40.7783L48.834 40.6162L48.9141 40.4775L48.6367 40.3145L48.6357 40.3154L48.5557 40.4531L48.2773 40.291L48.3574 40.1523L48.0801 39.9893L48.0791 39.9902L47.999 40.1279L47.7207 39.9658L47.8008 39.8271L47.5234 39.6641L47.5225 39.665L47.4424 39.8027L47.1641 39.6406L47.2441 39.502L46.9668 39.3389L46.9658 39.3398L46.8857 39.4775L46.6074 39.3145L46.6875 39.1768L46.6885 39.1758L46.4092 39.0137L46.3291 39.1523L46.0508 38.9893L46.1309 38.8516L46.1318 38.8506L45.8525 38.6885L45.7725 38.8271L45.4941 38.6641L45.5742 38.5264L45.5752 38.5254L45.2959 38.3633L45.2158 38.502L44.9375 38.3389L45.0176 38.2012L45.0186 38.2002L44.7393 38.0381L44.6592 38.1768L44.3809 38.0137L44.4609 37.876L44.4619 37.875L44.1836 37.7129L44.1025 37.8506L43.8242 37.6885L43.9053 37.5498L43.627 37.3877L43.5459 37.5254L43.2676 37.3633L43.3486 37.2246L43.0703 37.0625L42.9893 37.2002L42.7109 37.0381L42.792 36.8994L42.5137 36.7373L42.4326 36.875L42.1543 36.7129L42.2354 36.5742L41.957 36.4121L41.876 36.5498L41.5977 36.3867L41.6787 36.249L41.4004 36.0859L41.3193 36.2246L41.041 36.0615L41.1221 35.9238L40.8438 35.7607L40.7627 35.8994L40.4844 35.7363L40.5654 35.5986L40.2871 35.4355L40.2061 35.5742L39.9277 35.4111L40.0088 35.2734L39.7305 35.1104L39.6494 35.249L39.3711 35.0859L39.4521 34.9482L39.1738 34.7852L39.0928 34.9229L38.9541 34.8418C38.9297 34.8276 38.9034 34.8167 38.877 34.8096L38.9189 34.6553C38.8375 34.6333 38.7513 34.633 38.6699 34.6553V34.6562L38.7129 34.8105C38.6865 34.8178 38.6601 34.8284 38.6357 34.8428L38.498 34.9238L38.418 34.7861L38.1416 34.9482L38.2217 35.0869L37.9463 35.249L37.8662 35.1113L37.5889 35.2734V35.2744L37.6699 35.4121L37.3945 35.5742L37.3145 35.4365L37.0371 35.5986V35.5996L37.1182 35.7373L36.8428 35.8994L36.7617 35.7617L36.4854 35.9238V35.9248L36.5664 36.0625L36.29 36.2246L36.21 36.0869L35.9336 36.249V36.25L36.0146 36.3877L35.7383 36.5508L35.6582 36.4121L35.3818 36.5752L35.4629 36.7129L35.1865 36.876L35.1055 36.7383V36.7373L34.8301 36.9004L34.9102 37.0381L34.6348 37.2012L34.5537 37.0635V37.0625L34.2783 37.2256L34.3584 37.3633L34.083 37.5264L34.002 37.3887L33.7266 37.5508L33.8066 37.6885L33.5303 37.8516L33.4502 37.7139L33.1748 37.876L33.2549 38.0146L32.9785 38.1768L32.8984 38.0391L32.6221 38.2021H32.6211L32.7031 38.3398L32.4268 38.502L32.3467 38.3643L32.0703 38.5273H32.0693L32.1504 38.665L31.875 38.8271L31.7949 38.6895L31.5186 38.8525H31.5176L31.5986 38.9902L31.3232 39.1533L31.2422 39.0146L30.9668 39.1777H30.9658L31.0469 39.3154L30.7715 39.4785L30.6904 39.3398L30.415 39.5029H30.4141L30.4951 39.6406L30.2188 39.8037L30.1377 39.666V39.665L29.8633 39.8281H29.8623L29.9434 39.9658L29.667 40.1289L29.5859 39.9912V39.9902L29.3105 40.1533L29.3916 40.291L29.1152 40.4541L29.0342 40.3164V40.3154L28.7588 40.4785L28.8389 40.6172L28.5635 40.7793L28.4824 40.6416V40.6406L28.207 40.8037L28.2871 40.9424L28.0117 41.1045L27.9307 40.9668L27.6543 41.1289V41.1299L27.7354 41.2676L27.459 41.4297L27.3789 41.292L27.1025 41.4541V41.4551L27.1836 41.5928L26.9072 41.7549L26.8271 41.6172L26.5508 41.7803H26.5498L26.6318 41.918L26.3555 42.0811L26.2754 41.9424L25.999 42.1055H25.998L26.0791 42.2432L25.8037 42.4062L25.7227 42.2686V42.2676L25.4473 42.4307H25.4463L25.5273 42.5684L25.252 42.7314L25.1709 42.5938V42.5928L24.8955 42.7559H24.8945L24.9756 42.8936L24.7002 43.0566L24.6182 42.9189V42.918L24.3438 43.0811H24.3428L24.4238 43.2188L24.1475 43.3818L24.0664 43.2441V43.2432L23.792 43.4062H23.791L23.8721 43.5449L23.5957 43.707L23.5146 43.5693V43.5684L23.2383 43.7314V43.7324L23.3203 43.8701L23.0439 44.0322L22.9629 43.8945V43.8936L22.6865 44.0566V44.0576L22.7676 44.1953L22.4922 44.3574L22.4111 44.2197V44.2188L22.1348 44.3818V44.3828L22.2158 44.5205L21.9404 44.6826L21.8594 44.5449L21.583 44.707V44.708L21.6641 44.8457L21.3877 45.0088L21.3076 44.8701L21.0312 45.0322V45.0332L21.1123 45.1709L20.8359 45.334L20.7549 45.1963V45.1953L20.4795 45.3584L20.5605 45.4961L20.2842 45.6592L20.2031 45.5215V45.5205L19.9277 45.6836L20.0078 45.8213L19.7324 45.9844L19.6514 45.8467V45.8457L19.376 46.0088L19.4561 46.1465L19.1807 46.3096L19.0996 46.1719V46.1709L18.8242 46.334L18.9043 46.4727L18.6289 46.6348L18.5479 46.4971L18.2715 46.6592V46.6602L18.3525 46.7979L18.0762 46.96L17.9961 46.8223L17.7197 46.9844V46.9854L17.8008 47.123L17.5244 47.2852L17.4443 47.1475L17.167 47.3096V47.3105L17.249 47.4482L16.9727 47.6104L16.8926 47.4727L16.6152 47.6348V47.6357L16.6963 47.7734L16.4209 47.9365L16.3408 47.7979Z" fill="white" fill-opacity="0.2" stroke="url(#paint5_linear_3982_108386)" stroke-width="0.32" stroke-dasharray="0.32 0.32"/>
<g filter="url(#filter2_f_3982_108386)">
<path d="M42.064 36.365C41.9162 36.2766 41.7319 36.2754 41.583 36.3619L20.2066 48.7747C19.8894 48.9589 19.8929 49.4181 20.2127 49.5976L35.6504 58.2576C35.7979 58.3403 35.9782 58.3381 36.1237 58.2519L56.8056 45.9971C57.1145 45.814 57.1154 45.3673 56.8073 45.1829L42.064 36.365Z" fill="black" fill-opacity="0.2"/>
</g>
<path opacity="0.56" d="M52.7209 49.7768L51.2116 48.9054L49.7089 49.8083L51.2182 50.6797L52.7209 49.7768ZM48.2029 49.8241L46.6937 48.9527L45.191 49.8557L46.7002 50.727L48.2029 49.8241ZM50.4668 51.1312L48.9576 50.2598L47.4548 51.1627L48.9641 52.0341L50.4668 51.1312ZM43.685 49.8714L42.1757 49.0001L40.673 49.903L42.1823 50.7743L43.685 49.8714ZM45.9489 51.1785L44.4396 50.3071L42.9369 51.21L44.4462 52.0814L45.9489 51.1785ZM48.2128 52.4856L46.7035 51.6142L45.2008 52.5171L46.71 53.3885L48.2128 52.4856ZM39.167 49.9187L37.6578 49.0474L36.155 49.9503L37.6643 50.8217L39.167 49.9187ZM41.4309 51.2258L39.9216 50.3544L38.4189 51.2574L39.9282 52.1287L41.4309 51.2258ZM43.6948 52.5329L42.1855 51.6615L40.6828 52.5644L42.1921 53.4358L43.6948 52.5329ZM45.9587 53.8399L44.4494 52.9686L42.9467 53.8715L44.456 54.7428L45.9587 53.8399ZM34.6491 49.9661L33.1398 49.0947L31.6371 49.9976L33.1464 50.869L34.6491 49.9661ZM36.913 51.2731L35.4037 50.4017L33.901 51.3047L35.4102 52.176L36.913 51.2731ZM39.1768 52.5802L37.6676 51.7088L36.1649 52.6117L37.6741 53.4831L39.1768 52.5802ZM41.4407 53.8872L39.9315 53.0159L38.4288 53.9188L39.938 54.7902L41.4407 53.8872ZM43.7046 55.1943L42.1954 54.3229L40.6927 55.2258L42.2019 56.0972L43.7046 55.1943ZM30.1311 50.0134L28.6218 49.142L27.1191 50.0449L28.6284 50.9163L30.1311 50.0134ZM32.395 51.3204L30.8857 50.4491L29.383 51.352L30.8923 52.2234L32.395 51.3204ZM34.6589 52.6275L33.1496 51.7561L31.6469 52.659L33.1562 53.5304L34.6589 52.6275ZM36.9228 53.9346L35.4135 53.0632L33.9108 53.9661L35.4201 54.8375L36.9228 53.9346ZM39.1867 55.2416L37.6774 54.3702L36.1747 55.2732L37.684 56.1445L39.1867 55.2416ZM41.4506 56.5487L39.9413 55.6773L38.4386 56.5802L39.9479 57.4516L41.4506 56.5487Z" fill="white" fill-opacity="0.6"/>
<g filter="url(#filter3_f_3982_108386)">
<foreignObject x="17.8207" y="28.0375" width="43.6359" height="33.2599"><div xmlns="http://www.w3.org/1999/xhtml" style="backdrop-filter:blur(2.4px);clip-path:url(#bgblur_2_3982_108386_clip_path);height:100%;width:100%"></div></foreignObject><path data-figma-bg-blur-radius="4.80719" d="M22.6885 42.7773V46.5566L39.6387 56.4189L56.5889 46.5566V42.7773L39.6387 32.9141L22.6885 42.7773Z" fill="url(#paint6_linear_3982_108386)" stroke="white" stroke-width="0.120273"/>
<path d="M39.6309 52.7283L22.6202 42.8291V46.6797L39.6309 56.5789V52.7283Z" fill="url(#paint7_linear_3982_108386)"/>
<path d="M39.6309 52.7283L22.6202 42.8291V46.6797L39.6309 56.5789V52.7283Z" fill="url(#paint8_radial_3982_108386)" fill-opacity="0.2"/>
<path d="M39.6309 52.7283L22.6202 42.8291V46.6797L39.6309 56.5789V52.7283Z" stroke="white" stroke-width="0.12018"/>
<path d="M39.6388 52.7283V56.5789L56.6494 46.6797V42.8291L39.6388 52.7283Z" fill="url(#paint9_linear_3982_108386)"/>
<path d="M39.6388 52.7283V56.5789L56.6494 46.6797V42.8291L39.6388 52.7283Z" fill="url(#paint10_radial_3982_108386)" fill-opacity="0.2"/>
<path d="M39.6388 52.7283V56.5789L56.6494 46.6797V42.8291L39.6388 52.7283Z" stroke="white" stroke-width="0.12018"/>
</g>
<foreignObject x="5.99369" y="36.0318" width="67.247" height="34.5546"><div xmlns="http://www.w3.org/1999/xhtml" style="backdrop-filter:blur(4.16px);clip-path:url(#bgblur_3_3982_108386_clip_path);height:100%;width:100%"></div></foreignObject><g data-figma-bg-blur-radius="8.32174">
<path d="M64.4717 44.6533C64.4717 44.4797 64.681 44.3929 64.8037 44.5156C64.8107 44.5226 64.8144 44.5321 64.8145 44.542V45.6729C64.8145 46.6103 64.3241 47.4795 63.5215 47.9639L40.4922 61.8584C39.8329 62.2562 39.0085 62.2617 38.3438 61.873L16.1523 48.8936H16.1514L14.9141 48.1182C14.7647 48.0246 14.6498 47.8841 14.5889 47.7188L14.4688 47.3936C14.4359 47.3043 14.4199 47.2094 14.4199 47.1143V45.3467C14.4201 45.1703 14.6418 45.0926 14.752 45.2305C14.7796 45.2651 14.813 45.2948 14.8506 45.3184L16.3037 46.2285L16.3086 46.2314L32.54 55.2832C36.8176 57.6688 42.0263 57.6643 46.2998 55.2715L64.2295 45.2324C64.3786 45.1489 64.4717 44.9913 64.4717 44.8203V44.6533Z" fill="url(#paint11_linear_3982_108386)"/>
<path d="M64.4717 44.6533C64.4717 44.4797 64.681 44.3929 64.8037 44.5156C64.8107 44.5226 64.8144 44.5321 64.8145 44.542V45.6729C64.8145 46.6103 64.3241 47.4795 63.5215 47.9639L40.4922 61.8584C39.8329 62.2562 39.0085 62.2617 38.3438 61.873L16.1523 48.8936H16.1514L14.9141 48.1182C14.7647 48.0246 14.6498 47.8841 14.5889 47.7188L14.4688 47.3936C14.4359 47.3043 14.4199 47.2094 14.4199 47.1143V45.3467C14.4201 45.1703 14.6418 45.0926 14.752 45.2305C14.7796 45.2651 14.813 45.2948 14.8506 45.3184L16.3037 46.2285L16.3086 46.2314L32.54 55.2832C36.8176 57.6688 42.0263 57.6643 46.2998 55.2715L64.2295 45.2324C64.3786 45.1489 64.4717 44.9913 64.4717 44.8203V44.6533Z" fill="url(#paint12_linear_3982_108386)"/>
<path d="M64.4717 44.6533C64.4717 44.4797 64.681 44.3929 64.8037 44.5156C64.8107 44.5226 64.8144 44.5321 64.8145 44.542V45.6729C64.8145 46.6103 64.3241 47.4795 63.5215 47.9639L40.4922 61.8584C39.8329 62.2562 39.0085 62.2617 38.3438 61.873L16.1523 48.8936H16.1514L14.9141 48.1182C14.7647 48.0246 14.6498 47.8841 14.5889 47.7188L14.4688 47.3936C14.4359 47.3043 14.4199 47.2094 14.4199 47.1143V45.3467C14.4201 45.1703 14.6418 45.0926 14.752 45.2305C14.7796 45.2651 14.813 45.2948 14.8506 45.3184L16.3037 46.2285L16.3086 46.2314L32.54 55.2832C36.8176 57.6688 42.0263 57.6643 46.2998 55.2715L64.2295 45.2324C64.3786 45.1489 64.4717 44.9913 64.4717 44.8203V44.6533Z" stroke="white" stroke-width="0.208205"/>
</g>
<foreignObject x="9.74462" y="23.5806" width="59.3223" height="40.4307"><div xmlns="http://www.w3.org/1999/xhtml" style="backdrop-filter:blur(2.21px);clip-path:url(#bgblur_4_3982_108386_clip_path);height:100%;width:100%"></div></foreignObject><path data-figma-bg-blur-radius="4.41456" d="M14.8718 45.5041C14.0825 45.0434 14.0657 43.9089 14.8414 43.4256L39.4051 28.1247L63.9701 43.4256C64.746 43.9089 64.7299 45.0441 63.9404 45.5048L40.463 59.2015C39.8101 59.5823 39.0021 59.5817 38.3492 59.2008L14.8718 45.5041Z" fill="url(#paint13_linear_3982_108386)" stroke="white" stroke-width="0.220728"/>
<foreignObject x="12.2217" y="40.7256" width="54.5351" height="21.5303"><div xmlns="http://www.w3.org/1999/xhtml" style="backdrop-filter:blur(0.93px);clip-path:url(#bgblur_5_3982_108386_clip_path);height:100%;width:100%"></div></foreignObject><path data-figma-bg-blur-radius="1.85546" d="M64.7911 44.6455C64.7911 45.0322 64.5887 45.3907 64.2576 45.5905L40.4178 59.9731C39.7257 60.3906 38.8608 60.3965 38.1632 59.9884L15.9715 47.0092L15.1621 46.5025C14.7134 46.2215 14.3706 45.7995 14.1875 45.3027V43.2455L16.231 44.8708L38.2295 57.1375C38.8926 57.5073 39.6991 57.5103 40.365 57.1455L63.7081 44.3572C64.3127 44.026 64.5474 43.276 64.2393 42.6592C64.5926 43.0132 64.7911 43.493 64.7911 43.9932V44.6455Z" fill="url(#paint14_linear_3982_108386)" stroke="white" stroke-width="0.220728"/>
<foreignObject x="9.63427" y="22.5893" width="59.543" height="40.2578"><div xmlns="http://www.w3.org/1999/xhtml" style="backdrop-filter:blur(2.21px);clip-path:url(#bgblur_6_3982_108386_clip_path);height:100%;width:100%"></div></foreignObject><path data-figma-bg-blur-radius="4.41456" d="M14.8162 44.3255C13.9548 43.823 13.9368 42.5847 14.7833 42.0575L38.239 27.4475C38.9533 27.0025 39.8586 27.0025 40.5729 27.4475L64.0286 42.0575C64.8751 42.5847 64.8571 43.823 63.9958 44.3256L40.5185 58.0219C39.8312 58.4229 38.9813 58.4229 38.294 58.0219L14.8162 44.3255Z" fill="url(#paint15_linear_3982_108386)" stroke="white" stroke-width="0.220728"/>
<path opacity="0.56" d="M52.2345 49.5102L50.7253 48.6388L49.2226 49.5417L50.7318 50.4131L52.2345 49.5102ZM47.7166 49.5575L46.2073 48.6861L44.7046 49.5891L46.2139 50.4604L47.7166 49.5575ZM49.9805 50.8646L48.4712 49.9932L46.9685 50.8961L48.4778 51.7675L49.9805 50.8646ZM43.1986 49.6048L41.6894 48.7335L40.1867 49.6364L41.6959 50.5077L43.1986 49.6048ZM45.4625 50.9119L43.9533 50.0405L42.4506 50.9434L43.9598 51.8148L45.4625 50.9119ZM47.7264 52.2189L46.2172 51.3476L44.7145 52.2505L46.2237 53.1219L47.7264 52.2189ZM38.6807 49.6521L37.1714 48.7808L35.6687 49.6837L37.178 50.5551L38.6807 49.6521ZM40.9446 50.9592L39.4353 50.0878L37.9326 50.9907L39.4419 51.8621L40.9446 50.9592ZM43.2085 52.2663L41.6992 51.3949L40.1965 52.2978L41.7058 53.1692L43.2085 52.2663ZM45.4724 53.5733L43.9631 52.702L42.4604 53.6049L43.9697 54.4762L45.4724 53.5733ZM34.1627 49.6995L32.6535 48.8281L31.1508 49.731L32.66 50.6024L34.1627 49.6995ZM36.4266 51.0065L34.9174 50.1351L33.4147 51.0381L34.9239 51.9094L36.4266 51.0065ZM38.6905 52.3136L37.1813 51.4422L35.6786 52.3451L37.1878 53.2165L38.6905 52.3136ZM40.9544 53.6206L39.4452 52.7493L37.9424 53.6522L39.4517 54.5236L40.9544 53.6206ZM43.2183 54.9277L41.709 54.0563L40.2063 54.9592L41.7156 55.8306L43.2183 54.9277ZM29.6448 49.7468L28.1355 48.8754L26.6328 49.7783L28.1421 50.6497L29.6448 49.7468ZM31.9087 51.0538L30.3994 50.1825L28.8967 51.0854L30.406 51.9568L31.9087 51.0538ZM34.1726 52.3609L32.6633 51.4895L31.1606 52.3924L32.6699 53.2638L34.1726 52.3609ZM36.4365 53.668L34.9272 52.7966L33.4245 53.6995L34.9338 54.5709L36.4365 53.668ZM38.7004 54.975L37.1911 54.1036L35.6884 55.0066L37.1976 55.8779L38.7004 54.975ZM40.9642 56.2821L39.455 55.4107L37.9523 56.3136L39.4615 57.185L40.9642 56.2821Z" fill="white" fill-opacity="0.6"/>
<foreignObject x="28.0811" y="37.669" width="22.2861" height="13.1132"><div xmlns="http://www.w3.org/1999/xhtml" style="backdrop-filter:blur(0.25px);clip-path:url(#bgblur_7_3982_108386_clip_path);height:100%;width:100%"></div></foreignObject><path data-figma-bg-blur-radius="0.496066" d="M39.1791 38.165L28.5769 44.3372L39.1791 50.2857L49.8711 44.3372L39.1791 38.165Z" fill="url(#paint16_linear_3982_108386)" fill-opacity="0.39"/>
<foreignObject x="26.0197" y="13.1252" width="25.9146" height="29.1119"><div xmlns="http://www.w3.org/1999/xhtml" style="backdrop-filter:blur(1.6px);clip-path:url(#bgblur_8_3982_108386_clip_path);height:100%;width:100%"></div></foreignObject><path data-figma-bg-blur-radius="3.2" d="M38.9772 16.418L29.3001 22.0495V33.3126L38.9772 38.9441L48.6543 33.3126V22.0495L38.9772 16.418Z" fill="url(#paint17_linear_3982_108386)" stroke="white" stroke-width="0.16"/>
<path d="M38.9752 27.7399V39.003L48.6523 33.3715V22.1084L38.9752 27.7399Z" fill="url(#paint18_linear_3982_108386)" stroke="white" stroke-width="0.16"/>
<path d="M38.9756 27.7399L29.2985 22.1084V33.3715L38.9756 39.003V27.7399Z" fill="url(#paint19_linear_3982_108386)" stroke="white" stroke-width="0.16"/>
<foreignObject x="15.093" y="20.0266" width="25.7545" height="28.9264"><div xmlns="http://www.w3.org/1999/xhtml" style="backdrop-filter:blur(1.6px);clip-path:url(#bgblur_9_3982_108386_clip_path);height:100%;width:100%"></div></foreignObject><path data-figma-bg-blur-radius="3.2" d="M18.333 28.8809V40.0977L27.9707 45.7061L37.6074 40.0977V28.8809L27.9707 23.2715L18.333 28.8809Z" fill="url(#paint20_linear_3982_108386)" stroke="white" stroke-width="0.08"/>
<path d="M27.9704 34.5475V45.8106L37.6475 40.1791V28.916L27.9704 34.5475Z" fill="url(#paint21_linear_3982_108386)"/>
<path d="M27.9704 34.5475V45.8106L37.6475 40.1791V28.916L27.9704 34.5475Z" fill="url(#paint22_radial_3982_108386)" fill-opacity="0.2"/>
<path d="M27.9704 34.5475V45.8106L37.6475 40.1791V28.916L27.9704 34.5475Z" stroke="white" stroke-width="0.08"/>
<path d="M27.9697 34.5475L18.2926 28.916V40.1791L27.9697 45.8106V34.5475Z" fill="url(#paint23_linear_3982_108386)"/>
<path d="M27.9697 34.5475L18.2926 28.916V40.1791L27.9697 45.8106V34.5475Z" fill="url(#paint24_radial_3982_108386)" fill-opacity="0.2"/>
<path d="M27.9697 34.5475L18.2926 28.916V40.1791L27.9697 45.8106V34.5475Z" stroke="white" stroke-width="0.08"/>
<foreignObject x="37.1301" y="20.0266" width="25.7545" height="28.9264"><div xmlns="http://www.w3.org/1999/xhtml" style="backdrop-filter:blur(1.6px);clip-path:url(#bgblur_10_3982_108386_clip_path);height:100%;width:100%"></div></foreignObject><path data-figma-bg-blur-radius="3.2" d="M40.3701 28.8809V40.0977L50.0078 45.7061L59.6445 40.0977V28.8809L50.0078 23.2715L40.3701 28.8809Z" fill="url(#paint25_linear_3982_108386)" stroke="white" stroke-width="0.08"/>
<path d="M50.0078 34.5475L40.3307 28.916V40.1791L50.0078 45.8106V34.5475Z" fill="url(#paint26_linear_3982_108386)"/>
<path d="M50.0078 34.5475L40.3307 28.916V40.1791L50.0078 45.8106V34.5475Z" fill="url(#paint27_radial_3982_108386)" fill-opacity="0.2"/>
<path d="M50.0078 34.5475L40.3307 28.916V40.1791L50.0078 45.8106V34.5475Z" stroke="white" stroke-width="0.08"/>
<path d="M50.0075 34.5475V45.8106L59.6846 40.1791V28.916L50.0075 34.5475Z" fill="url(#paint28_linear_3982_108386)"/>
<path d="M50.0075 34.5475V45.8106L59.6846 40.1791V28.916L50.0075 34.5475Z" fill="url(#paint29_radial_3982_108386)" fill-opacity="0.2"/>
<path d="M50.0075 34.5475V45.8106L59.6846 40.1791V28.916L50.0075 34.5475Z" stroke="white" stroke-width="0.08"/>
<foreignObject x="26.217" y="26.2951" width="25.9146" height="29.1119"><div xmlns="http://www.w3.org/1999/xhtml" style="backdrop-filter:blur(1.6px);clip-path:url(#bgblur_11_3982_108386_clip_path);height:100%;width:100%"></div></foreignObject><path data-figma-bg-blur-radius="3.2" d="M39.1745 29.5879L29.4974 35.2194V46.4825L39.1745 52.114L48.8516 46.4825V35.2194L39.1745 29.5879Z" fill="url(#paint30_linear_3982_108386)" stroke="white" stroke-width="0.16"/>
<path d="M39.1745 40.9099V52.1729L48.8516 46.5414V35.2783L39.1745 40.9099Z" fill="url(#paint31_linear_3982_108386)" stroke="white" stroke-width="0.16"/>
<path d="M39.1709 40.9099L29.4938 35.2783V46.5414L39.1709 52.1729V40.9099Z" fill="url(#paint32_linear_3982_108386)" stroke="white" stroke-width="0.16"/>
<g filter="url(#filter14_f_3982_108386)">
<path d="M38.8617 18.5369C38.9105 18.5073 38.9712 18.5059 39.0213 18.5331L42.5516 20.454C42.6601 20.5131 42.6636 20.6676 42.5579 20.7315L39.1262 22.8057C39.0779 22.835 39.0176 22.8365 38.9678 22.8098L35.4233 20.9078C35.3142 20.8493 35.31 20.6943 35.4158 20.6301L38.8617 18.5369Z" fill="#DED4FB" fill-opacity="0.35"/>
</g>
<foreignObject x="32.6752" y="2.72886" width="12.596" height="13.5882"><div xmlns="http://www.w3.org/1999/xhtml" style="backdrop-filter:blur(1.64px);clip-path:url(#bgblur_12_3982_108386_clip_path);height:100%;width:100%"></div></foreignObject><path opacity="0.3" data-figma-bg-blur-radius="3.27114" d="M38.973 6L35.9459 7.76156V11.2847L38.973 13.0462L42 11.2847V7.76156L38.973 6Z" fill="url(#paint33_linear_3982_108386)"/>
<g opacity="0.3">
<path d="M38.973 9.54183V13.065L42 11.3034V7.78027L38.973 9.54183Z" fill="url(#paint34_linear_3982_108386)"/>
<path d="M38.973 9.54183V13.065L42 11.3034V7.78027L38.973 9.54183Z" fill="url(#paint35_radial_3982_108386)" fill-opacity="0.2"/>
<path d="M38.973 9.54183V13.065L42 11.3034V7.78027L38.973 9.54183Z" stroke="white" stroke-width="0.0817785"/>
</g>
<g opacity="0.3">
<path d="M38.9736 9.54183L35.9466 7.78027V11.3034L38.9736 13.065V9.54183Z" fill="url(#paint36_linear_3982_108386)"/>
<path d="M38.9736 9.54183L35.9466 7.78027V11.3034L38.9736 13.065V9.54183Z" fill="url(#paint37_radial_3982_108386)" fill-opacity="0.2"/>
<path d="M38.9736 9.54183L35.9466 7.78027V11.3034L38.9736 13.065V9.54183Z" stroke="white" stroke-width="0.0817785"/>
</g>
<g filter="url(#filter16_f_3982_108386)">
<path d="M49.8881 26.783C49.9368 26.7534 49.9976 26.7519 50.0477 26.7792L53.578 28.7001C53.6865 28.7592 53.69 28.9137 53.5843 28.9776L50.1526 31.0518C50.1042 31.081 50.044 31.0826 49.9942 31.0559L46.4496 29.1539C46.3405 29.0954 46.3364 28.9404 46.4422 28.8762L49.8881 26.783Z" fill="#80DAED" fill-opacity="0.6"/>
</g>
<g filter="url(#filter17_f_3982_108386)">
<path d="M27.8432 26.783C27.8919 26.7534 27.9527 26.7519 28.0027 26.7792L31.5331 28.7001C31.6416 28.7592 31.6451 28.9137 31.5394 28.9776L28.1077 31.0518C28.0593 31.081 27.9991 31.0826 27.9493 31.0559L24.4047 29.1539C24.2956 29.0954 24.2915 28.9404 24.3973 28.8762L27.8432 26.783Z" fill="#80DAED" fill-opacity="0.55"/>
</g>
<path d="M27.9693 16.7627L22.7257 19.8142V25.9171L27.9693 28.9685L33.2129 25.9171V19.8142L27.9693 16.7627Z" fill="url(#paint38_linear_3982_108386)"/>
<path d="M27.9693 16.7627L22.7257 19.8142V25.9171L27.9693 28.9685L33.2129 25.9171V19.8142L27.9693 16.7627Z" fill="#EFF8FF"/>
<path d="M27.9693 16.7627L22.7257 19.8142V25.9171L27.9693 28.9685L33.2129 25.9171V19.8142L27.9693 16.7627Z" stroke="white" stroke-width="0.220368" stroke-linejoin="bevel"/>
<path d="M50.2437 16.7627L45.0001 19.8142V25.9171L50.2437 28.9685L55.4873 25.9171V19.8142L50.2437 16.7627Z" fill="url(#paint39_linear_3982_108386)"/>
<path d="M50.2437 16.7627L45.0001 19.8142V25.9171L50.2437 28.9685L55.4873 25.9171V19.8142L50.2437 16.7627Z" fill="#EFF8FF"/>
<path d="M50.2437 16.7627L45.0001 19.8142V25.9171L50.2437 28.9685L55.4873 25.9171V19.8142L50.2437 16.7627Z" stroke="white" stroke-width="0.220368" stroke-linejoin="bevel"/>
<path d="M27.9693 22.8972V29.0001L33.2129 25.9486V19.8457L27.9693 22.8972Z" fill="url(#paint40_linear_3982_108386)" stroke="white" stroke-width="0.134862"/>
<path d="M50.2437 22.8972V29.0001L55.4873 25.9486V19.8457L50.2437 22.8972Z" fill="url(#paint41_linear_3982_108386)" stroke="white" stroke-width="0.134862"/>
<path d="M27.9707 22.8972L22.7271 19.8457V25.9486L27.9707 29.0001V22.8972Z" fill="url(#paint42_linear_3982_108386)" stroke="white" stroke-width="0.220368" stroke-linejoin="bevel"/>
<path d="M50.2451 22.8972L45.0015 19.8457V25.9486L50.2451 29.0001V22.8972Z" fill="url(#paint43_linear_3982_108386)" stroke="white" stroke-width="0.220368" stroke-linejoin="bevel"/>
<circle cx="21.5" cy="21" r="1" fill="url(#paint44_radial_3982_108386)"/>
<circle cx="21.5" cy="21" r="1" fill="url(#paint45_radial_3982_108386)" fill-opacity="0.2"/>
<circle cx="21.5" cy="21" r="1" stroke="white" stroke-width="0.0222219"/>
<circle cx="56.5" cy="24" r="2" fill="url(#paint46_radial_3982_108386)"/>
<circle cx="56.5" cy="24" r="2" fill="url(#paint47_radial_3982_108386)" fill-opacity="0.2"/>
<circle cx="56.5" cy="24" r="2" stroke="white" stroke-width="0.0222219"/>
<circle cx="46.2744" cy="18.917" r="0.421875" fill="url(#paint48_radial_3982_108386)"/>
<circle cx="46.2744" cy="18.917" r="0.421875" fill="url(#paint49_radial_3982_108386)" fill-opacity="0.2"/>
<circle cx="46.2744" cy="18.917" r="0.421875" stroke="white" stroke-width="0.0222219"/>
<circle cx="44" cy="4.5" r="1.5" fill="url(#paint50_radial_3982_108386)"/>
<circle cx="44" cy="4.5" r="1.5" fill="url(#paint51_radial_3982_108386)" fill-opacity="0.2"/>
<circle cx="44" cy="4.5" r="1.5" stroke="white" stroke-width="0.0222219"/>
<circle cx="45" cy="38.5" r="2.5" fill="url(#paint52_radial_3982_108386)"/>
<circle cx="45" cy="38.5" r="2.5" fill="url(#paint53_radial_3982_108386)" fill-opacity="0.2"/>
<circle cx="45" cy="38.5" r="2.5" stroke="white" stroke-width="0.0222219"/>
<path d="M44.456 16.6256C44.4543 16.9191 44.6518 17.0418 44.9023 16.9028L47.0763 15.6965C47.1952 15.6306 47.3077 15.6214 47.3908 15.6709L49.0813 16.679C49.1662 16.7296 49.2136 16.8376 49.2132 16.9798L49.1972 22.7102C49.1964 23.0088 48.9893 23.3746 48.7338 23.5289L42.3214 27.4009C42.0653 27.5556 41.858 27.9226 41.858 28.2214V32.7155C41.858 32.9463 41.7327 33.2271 41.5458 33.4151L37.971 37.0115C37.8026 37.1809 37.6156 37.2431 37.4897 37.1715L35.7819 36.201C35.6949 36.1516 35.6461 36.0432 35.6461 35.8996V33.6329C35.6461 33.3376 35.4434 33.2184 35.1903 33.3649L33.1436 34.5495C33.0214 34.6202 32.905 34.6314 32.8196 34.5805L31.1318 33.5738C31.0473 33.5234 31 33.4161 31 33.2748V25.9067C31 25.6073 31.208 25.2397 31.4646 25.0855L35.1815 22.8522C35.4381 22.698 35.6461 22.3303 35.6461 22.031V17.6947C35.6461 17.3953 35.8541 17.0277 36.1107 16.8735L42.4208 13.082C42.5453 13.0072 42.6645 12.9938 42.7518 13.0448L44.3361 13.9691C44.4225 14.0195 44.4705 14.1288 44.4697 14.2729L44.456 16.6256Z" fill="url(#paint54_linear_3982_108386)"/>
<path d="M44.456 16.6256C44.4543 16.9191 44.6518 17.0418 44.9023 16.9028L47.0763 15.6965C47.1952 15.6306 47.3077 15.6214 47.3908 15.6709L49.0813 16.679C49.1662 16.7296 49.2136 16.8376 49.2132 16.9798L49.1972 22.7102C49.1964 23.0088 48.9893 23.3746 48.7338 23.5289L42.3214 27.4009C42.0653 27.5556 41.858 27.9226 41.858 28.2214V32.7155C41.858 32.9463 41.7327 33.2271 41.5458 33.4151L37.971 37.0115C37.8026 37.1809 37.6156 37.2431 37.4897 37.1715L35.7819 36.201C35.6949 36.1516 35.6461 36.0432 35.6461 35.8996V33.6329C35.6461 33.3376 35.4434 33.2184 35.1903 33.3649L33.1436 34.5495C33.0214 34.6202 32.905 34.6314 32.8196 34.5805L31.1318 33.5738C31.0473 33.5234 31 33.4161 31 33.2748V25.9067C31 25.6073 31.208 25.2397 31.4646 25.0855L35.1815 22.8522C35.4381 22.698 35.6461 22.3303 35.6461 22.031V17.6947C35.6461 17.3953 35.8541 17.0277 36.1107 16.8735L42.4208 13.082C42.5453 13.0072 42.6645 12.9938 42.7518 13.0448L44.3361 13.9691C44.4225 14.0195 44.4705 14.1288 44.4697 14.2729L44.456 16.6256Z" fill="url(#paint55_linear_3982_108386)"/>
<foreignObject x="27.3211" y="8.71854" width="27.4848" height="33.9584"><div xmlns="http://www.w3.org/1999/xhtml" style="backdrop-filter:blur(2.81px);clip-path:url(#bgblur_13_3982_108386_clip_path);height:100%;width:100%"></div></foreignObject><path data-figma-bg-blur-radius="5.61154" d="M38.043 18.1677L44.0833 14.5383C44.2735 14.424 44.4273 14.5111 44.4274 14.7329V19.0688C44.4274 19.4457 44.6895 19.5939 45.0125 19.3999L48.7291 17.1667C48.9192 17.0525 49.0738 17.1393 49.074 17.3609V24.4077C49.074 24.6296 48.9193 24.902 48.7291 25.0163L45.0125 27.2495C44.6895 27.4436 44.4274 27.9069 44.4274 28.2837V32.6196C44.4274 32.8415 44.2735 33.1144 44.0833 33.2287L38.043 36.8581C37.853 36.972 37.6989 36.8842 37.6989 36.6625V32.3265C37.6989 31.9498 37.4368 31.8014 37.1138 31.9955L33.3972 34.2287C33.207 34.3429 33.0532 34.2559 33.0532 34.034V26.9871C33.0534 26.7654 33.2072 26.4933 33.3972 26.3791L37.1138 24.1459C37.4368 23.9518 37.6989 23.4885 37.6989 23.1117V18.7758C37.699 18.554 37.853 18.2821 38.043 18.1677Z" fill="url(#paint56_linear_3982_108386)" stroke="white" stroke-width="0.280577"/>
<defs>
<clipPath id="bgblur_0_3982_108386_clip_path" transform="translate(6.47238 -26.9202)"><path d="M41.3936 34.9717C40.5307 34.4767 39.4693 34.4767 38.6064 34.9717L1.40918 56.3086C1.14121 56.4623 1.14121 56.8482 1.40918 57.002L38.6064 78.3389C39.4693 78.8338 40.5307 78.8338 41.3936 78.3389L78.5908 57.002C78.8588 56.8482 78.8588 56.4623 78.5908 56.3086L41.3936 34.9717Z"/>
</clipPath><clipPath id="bgblur_1_3982_108386_clip_path" transform="translate(-2.95047 -25.9622)"><path d="M10.6309 50.8926V51.4434L39.793 68.0078L69.2031 51.4414V50.8945L39.793 33.7061L10.6309 50.8926Z"/>
</clipPath><filter id="filter2_f_3982_108386" x="16.7707" y="33.0979" width="43.4674" height="28.4205" filterUnits="userSpaceOnUse" color-interpolation-filters="sRGB">
<feFlood flood-opacity="0" result="BackgroundImageFix"/>
<feBlend mode="normal" in="SourceGraphic" in2="BackgroundImageFix" result="shape"/>
<feGaussianBlur stdDeviation="1.6" result="effect1_foregroundBlur_3982_108386"/>
</filter>
<filter id="filter3_f_3982_108386" x="18.5605" y="28.8447" width="42.1494" height="31.8389" filterUnits="userSpaceOnUse" color-interpolation-filters="sRGB">
<feFlood flood-opacity="0" result="BackgroundImageFix"/>
<feBlend mode="normal" in="SourceGraphic" in2="BackgroundImageFix" result="shape"/>
<feGaussianBlur stdDeviation="2" result="effect1_foregroundBlur_3982_108386"/>
</filter>
<clipPath id="bgblur_2_3982_108386_clip_path" transform="translate(-17.8207 -28.0375)"><path d="M22.6885 42.7773V46.5566L39.6387 56.4189L56.5889 46.5566V42.7773L39.6387 32.9141L22.6885 42.7773Z"/>
</clipPath><clipPath id="bgblur_3_3982_108386_clip_path" transform="translate(-5.99369 -36.0318)"><path d="M64.4717 44.6533C64.4717 44.4797 64.681 44.3929 64.8037 44.5156C64.8107 44.5226 64.8144 44.5321 64.8145 44.542V45.6729C64.8145 46.6103 64.3241 47.4795 63.5215 47.9639L40.4922 61.8584C39.8329 62.2562 39.0085 62.2617 38.3438 61.873L16.1523 48.8936H16.1514L14.9141 48.1182C14.7647 48.0246 14.6498 47.8841 14.5889 47.7188L14.4688 47.3936C14.4359 47.3043 14.4199 47.2094 14.4199 47.1143V45.3467C14.4201 45.1703 14.6418 45.0926 14.752 45.2305C14.7796 45.2651 14.813 45.2948 14.8506 45.3184L16.3037 46.2285L16.3086 46.2314L32.54 55.2832C36.8176 57.6688 42.0263 57.6643 46.2998 55.2715L64.2295 45.2324C64.3786 45.1489 64.4717 44.9913 64.4717 44.8203V44.6533Z"/>
</clipPath><clipPath id="bgblur_4_3982_108386_clip_path" transform="translate(-9.74462 -23.5806)"><path d="M14.8718 45.5041C14.0825 45.0434 14.0657 43.9089 14.8414 43.4256L39.4051 28.1247L63.9701 43.4256C64.746 43.9089 64.7299 45.0441 63.9404 45.5048L40.463 59.2015C39.8101 59.5823 39.0021 59.5817 38.3492 59.2008L14.8718 45.5041Z"/>
</clipPath><clipPath id="bgblur_5_3982_108386_clip_path" transform="translate(-12.2217 -40.7256)"><path d="M64.7911 44.6455C64.7911 45.0322 64.5887 45.3907 64.2576 45.5905L40.4178 59.9731C39.7257 60.3906 38.8608 60.3965 38.1632 59.9884L15.9715 47.0092L15.1621 46.5025C14.7134 46.2215 14.3706 45.7995 14.1875 45.3027V43.2455L16.231 44.8708L38.2295 57.1375C38.8926 57.5073 39.6991 57.5103 40.365 57.1455L63.7081 44.3572C64.3127 44.026 64.5474 43.276 64.2393 42.6592C64.5926 43.0132 64.7911 43.493 64.7911 43.9932V44.6455Z"/>
</clipPath><clipPath id="bgblur_6_3982_108386_clip_path" transform="translate(-9.63427 -22.5893)"><path d="M14.8162 44.3255C13.9548 43.823 13.9368 42.5847 14.7833 42.0575L38.239 27.4475C38.9533 27.0025 39.8586 27.0025 40.5729 27.4475L64.0286 42.0575C64.8751 42.5847 64.8571 43.823 63.9958 44.3256L40.5185 58.0219C39.8312 58.4229 38.9813 58.4229 38.294 58.0219L14.8162 44.3255Z"/>
</clipPath><clipPath id="bgblur_7_3982_108386_clip_path" transform="translate(-28.0811 -37.669)"><path d="M39.1791 38.165L28.5769 44.3372L39.1791 50.2857L49.8711 44.3372L39.1791 38.165Z"/>
</clipPath><clipPath id="bgblur_8_3982_108386_clip_path" transform="translate(-26.0197 -13.1252)"><path d="M38.9772 16.418L29.3001 22.0495V33.3126L38.9772 38.9441L48.6543 33.3126V22.0495L38.9772 16.418Z"/>
</clipPath><clipPath id="bgblur_9_3982_108386_clip_path" transform="translate(-15.093 -20.0266)"><path d="M18.333 28.8809V40.0977L27.9707 45.7061L37.6074 40.0977V28.8809L27.9707 23.2715L18.333 28.8809Z"/>
</clipPath><clipPath id="bgblur_10_3982_108386_clip_path" transform="translate(-37.1301 -20.0266)"><path d="M40.3701 28.8809V40.0977L50.0078 45.7061L59.6445 40.0977V28.8809L50.0078 23.2715L40.3701 28.8809Z"/>
</clipPath><clipPath id="bgblur_11_3982_108386_clip_path" transform="translate(-26.217 -26.2951)"><path d="M39.1745 29.5879L29.4974 35.2194V46.4825L39.1745 52.114L48.8516 46.4825V35.2194L39.1745 29.5879Z"/>
</clipPath><filter id="filter14_f_3982_108386" x="34.5389" y="17.7137" width="8.8959" height="5.91543" filterUnits="userSpaceOnUse" color-interpolation-filters="sRGB">
<feFlood flood-opacity="0" result="BackgroundImageFix"/>
<feBlend mode="normal" in="SourceGraphic" in2="BackgroundImageFix" result="shape"/>
<feGaussianBlur stdDeviation="0.4" result="effect1_foregroundBlur_3982_108386"/>
</filter>
<clipPath id="bgblur_12_3982_108386_clip_path" transform="translate(-32.6752 -2.72886)"><path d="M38.973 6L35.9459 7.76156V11.2847L38.973 13.0462L42 11.2847V7.76156L38.973 6Z"/>
</clipPath><filter id="filter16_f_3982_108386" x="45.5652" y="25.9598" width="8.8959" height="5.91543" filterUnits="userSpaceOnUse" color-interpolation-filters="sRGB">
<feFlood flood-opacity="0" result="BackgroundImageFix"/>
<feBlend mode="normal" in="SourceGraphic" in2="BackgroundImageFix" result="shape"/>
<feGaussianBlur stdDeviation="0.4" result="effect1_foregroundBlur_3982_108386"/>
</filter>
<filter id="filter17_f_3982_108386" x="23.5203" y="25.9598" width="8.8959" height="5.91543" filterUnits="userSpaceOnUse" color-interpolation-filters="sRGB">
<feFlood flood-opacity="0" result="BackgroundImageFix"/>
<feBlend mode="normal" in="SourceGraphic" in2="BackgroundImageFix" result="shape"/>
<feGaussianBlur stdDeviation="0.4" result="effect1_foregroundBlur_3982_108386"/>
</filter>
<clipPath id="bgblur_13_3982_108386_clip_path" transform="translate(-27.3211 -8.71854)"><path d="M38.043 18.1677L44.0833 14.5383C44.2735 14.424 44.4273 14.5111 44.4274 14.7329V19.0688C44.4274 19.4457 44.6895 19.5939 45.0125 19.3999L48.7291 17.1667C48.9192 17.0525 49.0738 17.1393 49.074 17.3609V24.4077C49.074 24.6296 48.9193 24.902 48.7291 25.0163L45.0125 27.2495C44.6895 27.4436 44.4274 27.9069 44.4274 28.2837V32.6196C44.4274 32.8415 44.2735 33.1144 44.0833 33.2287L38.043 36.8581C37.853 36.972 37.6989 36.8842 37.6989 36.6625V32.3265C37.6989 31.9498 37.4368 31.8014 37.1138 31.9955L33.3972 34.2287C33.207 34.3429 33.0532 34.2559 33.0532 34.034V26.9871C33.0534 26.7654 33.2072 26.4933 33.3972 26.3791L37.1138 24.1459C37.4368 23.9518 37.6989 23.4885 37.6989 23.1117V18.7758C37.699 18.554 37.853 18.2821 38.043 18.1677Z"/>
</clipPath><linearGradient id="paint0_linear_3982_108386" x1="40" y1="33.7109" x2="40" y2="79.5992" gradientUnits="userSpaceOnUse">
<stop stop-color="white"/>
<stop offset="1" stop-color="white"/>
</linearGradient>
<linearGradient id="paint1_linear_3982_108386" x1="39.3886" y1="70.8241" x2="39.3886" y2="46.9302" gradientUnits="userSpaceOnUse">
<stop stop-color="#00B5FD"/>
<stop offset="0.4" stop-color="#3370FF"/>
<stop offset="1" stop-color="#9A52FF"/>
</linearGradient>
<linearGradient id="paint2_linear_3982_108386" x1="39.917" y1="33.2422" x2="39.917" y2="68.4677" gradientUnits="userSpaceOnUse">
<stop stop-color="white" stop-opacity="0"/>
<stop offset="1" stop-color="white"/>
</linearGradient>
<linearGradient id="paint3_linear_3982_108386" x1="67.1296" y1="61.6841" x2="4.22459" y2="61.6841" gradientUnits="userSpaceOnUse">
<stop stop-color="#BACAEB" stop-opacity="0"/>
<stop offset="0.430632" stop-color="#C8D4EF"/>
<stop offset="0.434117" stop-color="#E2EBFF"/>
<stop offset="0.913462" stop-color="#DFE7F7" stop-opacity="0"/>
</linearGradient>
<linearGradient id="paint4_linear_3982_108386" x1="63.0801" y1="50.6136" x2="15.7319" y2="50.6136" gradientUnits="userSpaceOnUse">
<stop stop-color="#00B5FD"/>
<stop offset="0.4" stop-color="#3370FF"/>
<stop offset="1" stop-color="#9A52FF"/>
</linearGradient>
<linearGradient id="paint5_linear_3982_108386" x1="62.5684" y1="48.2063" x2="15.2202" y2="48.2063" gradientUnits="userSpaceOnUse">
<stop stop-color="#00B5FD"/>
<stop offset="0.4" stop-color="#3370FF"/>
<stop offset="1" stop-color="#9A52FF"/>
</linearGradient>
<linearGradient id="paint6_linear_3982_108386" x1="56.6494" y1="37.6164" x2="22.6281" y2="37.6164" gradientUnits="userSpaceOnUse">
<stop stop-color="#00B5FD" stop-opacity="0.5"/>
<stop offset="0.4" stop-color="#3370FF" stop-opacity="0.5"/>
<stop offset="1" stop-color="#9A52FF" stop-opacity="0.5"/>
</linearGradient>
<linearGradient id="paint7_linear_3982_108386" x1="38.6858" y1="16.5415" x2="23.5652" y2="16.5415" gradientUnits="userSpaceOnUse">
<stop stop-color="#B0A4FF"/>
<stop offset="1" stop-color="#9363FF" stop-opacity="0.17"/>
</linearGradient>
<radialGradient id="paint8_radial_3982_108386" cx="0" cy="0" r="1" gradientTransform="matrix(7.86318 59.5792 11.541 -26.8667 23.4986 23.0809)" gradientUnits="userSpaceOnUse">
<stop stop-color="#72F8FF"/>
<stop offset="1" stop-color="white" stop-opacity="0"/>
</radialGradient>
<linearGradient id="paint9_linear_3982_108386" x1="58.0923" y1="10.3144" x2="33.2572" y2="17.7061" gradientUnits="userSpaceOnUse">
<stop stop-color="#B0A4FF"/>
<stop offset="1" stop-color="#9764FF"/>
</linearGradient>
<radialGradient id="paint10_radial_3982_108386" cx="0" cy="0" r="1" gradientTransform="matrix(7.86318 59.5792 11.541 -26.8667 40.5172 23.0809)" gradientUnits="userSpaceOnUse">
<stop stop-color="#72F8FF"/>
<stop offset="1" stop-color="white" stop-opacity="0"/>
</radialGradient>
<linearGradient id="paint11_linear_3982_108386" x1="14.1961" y1="6.22732" x2="64.7922" y2="6.22732" gradientUnits="userSpaceOnUse">
<stop stop-color="#00B5FD" stop-opacity="0.5"/>
<stop offset="0.4" stop-color="#3370FF"/>
<stop offset="1" stop-color="#9A52FF"/>
</linearGradient>
<linearGradient id="paint12_linear_3982_108386" x1="44.856" y1="55.9596" x2="34.501" y2="55.4146" gradientUnits="userSpaceOnUse">
<stop stop-color="white" stop-opacity="0"/>
<stop offset="0.495192" stop-color="white" stop-opacity="0.53"/>
<stop offset="1" stop-color="white" stop-opacity="0"/>
</linearGradient>
<linearGradient id="paint13_linear_3982_108386" x1="42.7338" y1="21.3341" x2="16.2468" y2="47.8211" gradientUnits="userSpaceOnUse">
<stop stop-color="#CCF4FF" stop-opacity="0.6"/>
<stop offset="1" stop-color="#50D1EB"/>
</linearGradient>
<linearGradient id="paint14_linear_3982_108386" x1="63.6755" y1="48.3996" x2="7.31689" y2="48.3996" gradientUnits="userSpaceOnUse">
<stop stop-color="white" stop-opacity="0.14"/>
<stop offset="0.376278" stop-color="#C8D4EF"/>
<stop offset="0.432272" stop-color="white"/>
<stop offset="0.484819" stop-color="#E2EBFF"/>
<stop offset="0.913462" stop-color="white" stop-opacity="0.58"/>
</linearGradient>
<linearGradient id="paint15_linear_3982_108386" x1="52.5804" y1="29.9062" x2="26.0934" y2="56.3932" gradientUnits="userSpaceOnUse">
<stop stop-color="#F1F6FE" stop-opacity="0.59"/>
<stop offset="1" stop-color="#E2EAF7" stop-opacity="0.45"/>
</linearGradient>
<linearGradient id="paint16_linear_3982_108386" x1="28.5758" y1="44.4216" x2="49.869" y2="44.4216" gradientUnits="userSpaceOnUse">
<stop stop-color="white"/>
<stop offset="1" stop-color="white"/>
</linearGradient>
<linearGradient id="paint17_linear_3982_108386" x1="29.3001" y1="27.6223" x2="48.6543" y2="27.6223" gradientUnits="userSpaceOnUse">
<stop stop-color="#F1F6FE" stop-opacity="0.59"/>
<stop offset="1" stop-color="#E2EAF7" stop-opacity="0.45"/>
</linearGradient>
<linearGradient id="paint18_linear_3982_108386" x1="47.8459" y1="32.5355" x2="27.3404" y2="32.5355" gradientUnits="userSpaceOnUse">
<stop stop-color="#BACAEB" stop-opacity="0"/>
<stop offset="0.430632" stop-color="#C8D4EF"/>
<stop offset="0.434117" stop-color="#E2EBFF"/>
<stop offset="0.913462" stop-color="#DFE7F7" stop-opacity="0"/>
</linearGradient>
<linearGradient id="paint19_linear_3982_108386" x1="47.8461" y1="32.5355" x2="27.3406" y2="32.5355" gradientUnits="userSpaceOnUse">
<stop stop-color="#BACAEB" stop-opacity="0"/>
<stop offset="0.430632" stop-color="#C8D4EF"/>
<stop offset="0.434117" stop-color="#E2EBFF"/>
<stop offset="0.913462" stop-color="#DFE7F7" stop-opacity="0"/>
</linearGradient>
<linearGradient id="paint20_linear_3982_108386" x1="18.2933" y1="35.1853" x2="37.6475" y2="35.1853" gradientUnits="userSpaceOnUse">
<stop stop-color="#CCF4FF" stop-opacity="0.6"/>
<stop offset="1" stop-color="#50D1EB"/>
</linearGradient>
<linearGradient id="paint21_linear_3982_108386" x1="37.6475" y1="29.137" x2="18.6837" y2="29.137" gradientUnits="userSpaceOnUse">
<stop stop-color="#4FD1EC"/>
<stop offset="0.506943" stop-color="#57CDE6"/>
<stop offset="0.513762" stop-color="#7AE5FC"/>
<stop offset="1" stop-color="#86E6FC"/>
</linearGradient>
<radialGradient id="paint22_radial_3982_108386" cx="0" cy="0" r="1" gradientTransform="matrix(8.94649 16.2689 13.131 -7.33629 18.2174 30.2963)" gradientUnits="userSpaceOnUse">
<stop stop-color="#72F8FF"/>
<stop offset="1" stop-color="white" stop-opacity="0"/>
</radialGradient>
<linearGradient id="paint23_linear_3982_108386" x1="37.6468" y1="29.137" x2="18.6831" y2="29.137" gradientUnits="userSpaceOnUse">
<stop stop-color="#4FD1EC" stop-opacity="0"/>
<stop offset="0.506943" stop-color="#57CDE6"/>
<stop offset="0.513762" stop-color="#7AE5FC"/>
<stop offset="1" stop-color="#86E6FC" stop-opacity="0"/>
</linearGradient>
<radialGradient id="paint24_radial_3982_108386" cx="0" cy="0" r="1" gradientTransform="matrix(8.94649 16.2689 13.131 -7.33629 18.2168 30.2963)" gradientUnits="userSpaceOnUse">
<stop stop-color="#72F8FF"/>
<stop offset="1" stop-color="white" stop-opacity="0"/>
</radialGradient>
<linearGradient id="paint25_linear_3982_108386" x1="40.3304" y1="35.1853" x2="59.6846" y2="35.1853" gradientUnits="userSpaceOnUse">
<stop stop-color="#CCF4FF" stop-opacity="0.6"/>
<stop offset="1" stop-color="#50D1EB"/>
</linearGradient>
<linearGradient id="paint26_linear_3982_108386" x1="59.6849" y1="29.137" x2="40.7212" y2="29.137" gradientUnits="userSpaceOnUse">
<stop stop-color="#4FD1EC" stop-opacity="0"/>
<stop offset="0.506943" stop-color="#57CDE6"/>
<stop offset="0.513762" stop-color="#7AE5FC"/>
<stop offset="1" stop-color="#86E6FC" stop-opacity="0"/>
</linearGradient>
<radialGradient id="paint27_radial_3982_108386" cx="0" cy="0" r="1" gradientTransform="matrix(8.94649 16.2689 13.131 -7.33629 40.2549 30.2963)" gradientUnits="userSpaceOnUse">
<stop stop-color="#72F8FF"/>
<stop offset="1" stop-color="white" stop-opacity="0"/>
</radialGradient>
<linearGradient id="paint28_linear_3982_108386" x1="59.6846" y1="29.137" x2="40.7208" y2="29.137" gradientUnits="userSpaceOnUse">
<stop stop-color="#4FD1EC"/>
<stop offset="0.506943" stop-color="#57CDE6"/>
<stop offset="0.513762" stop-color="#7AE5FC"/>
<stop offset="1" stop-color="#86E6FC"/>
</linearGradient>
<radialGradient id="paint29_radial_3982_108386" cx="0" cy="0" r="1" gradientTransform="matrix(8.94649 16.2689 13.131 -7.33629 40.2546 30.2963)" gradientUnits="userSpaceOnUse">
<stop stop-color="#72F8FF"/>
<stop offset="1" stop-color="white" stop-opacity="0"/>
</radialGradient>
<linearGradient id="paint30_linear_3982_108386" x1="29.4974" y1="40.7922" x2="48.8516" y2="40.7922" gradientUnits="userSpaceOnUse">
<stop stop-color="#F1F6FE" stop-opacity="0.59"/>
<stop offset="1" stop-color="#E2EAF7" stop-opacity="0.45"/>
</linearGradient>
<linearGradient id="paint31_linear_3982_108386" x1="48.0451" y1="45.7054" x2="27.5396" y2="45.7054" gradientUnits="userSpaceOnUse">
<stop stop-color="#BACAEB" stop-opacity="0"/>
<stop offset="0.430632" stop-color="#C8D4EF"/>
<stop offset="0.434117" stop-color="#E2EBFF"/>
<stop offset="0.913462" stop-color="#DFE7F7" stop-opacity="0"/>
</linearGradient>
<linearGradient id="paint32_linear_3982_108386" x1="48.0414" y1="45.7054" x2="27.5359" y2="45.7054" gradientUnits="userSpaceOnUse">
<stop stop-color="#BACAEB" stop-opacity="0"/>
<stop offset="0.430632" stop-color="#C8D4EF"/>
<stop offset="0.434117" stop-color="#E2EBFF"/>
<stop offset="0.913462" stop-color="#DFE7F7" stop-opacity="0"/>
</linearGradient>
<linearGradient id="paint33_linear_3982_108386" x1="42" y1="9.52312" x2="35.9459" y2="9.52312" gradientUnits="userSpaceOnUse">
<stop stop-color="#00B5FD" stop-opacity="0.5"/>
<stop offset="0.4" stop-color="#3370FF" stop-opacity="0.5"/>
<stop offset="1" stop-color="#9A52FF" stop-opacity="0.5"/>
</linearGradient>
<linearGradient id="paint34_linear_3982_108386" x1="42.2568" y1="7.66024" x2="38.7819" y2="9.81489" gradientUnits="userSpaceOnUse">
<stop stop-color="#B0A4FF"/>
<stop offset="1" stop-color="#9764FF"/>
</linearGradient>
<radialGradient id="paint35_radial_3982_108386" cx="0" cy="0" r="1" gradientTransform="matrix(1.39925 5.08896 2.05372 -2.29481 39.1293 8.75068)" gradientUnits="userSpaceOnUse">
<stop stop-color="#72F8FF"/>
<stop offset="1" stop-color="white" stop-opacity="0"/>
</radialGradient>
<linearGradient id="paint36_linear_3982_108386" x1="38.8055" y1="8.19212" x2="36.1148" y2="8.19212" gradientUnits="userSpaceOnUse">
<stop stop-color="#B0A4FF"/>
<stop offset="1" stop-color="#9363FF" stop-opacity="0.17"/>
</linearGradient>
<radialGradient id="paint37_radial_3982_108386" cx="0" cy="0" r="1" gradientTransform="matrix(1.39925 5.08896 2.05372 -2.29481 36.1029 8.75068)" gradientUnits="userSpaceOnUse">
<stop stop-color="#72F8FF"/>
<stop offset="1" stop-color="white" stop-opacity="0"/>
</radialGradient>
<linearGradient id="paint38_linear_3982_108386" x1="22.7257" y1="22.8338" x2="33.2129" y2="22.8338" gradientUnits="userSpaceOnUse">
<stop stop-color="#F1F6FE"/>
<stop offset="1" stop-color="#E2EAF7"/>
</linearGradient>
<linearGradient id="paint39_linear_3982_108386" x1="45.0001" y1="22.8338" x2="55.4873" y2="22.8338" gradientUnits="userSpaceOnUse">
<stop stop-color="#F1F6FE"/>
<stop offset="1" stop-color="#E2EAF7"/>
</linearGradient>
<linearGradient id="paint40_linear_3982_108386" x1="32.7759" y1="25.4956" x2="21.6649" y2="25.4956" gradientUnits="userSpaceOnUse">
<stop stop-color="#BACAEB" stop-opacity="0"/>
<stop offset="0.430632" stop-color="#B6F3FF" stop-opacity="0.42"/>
<stop offset="0.434117" stop-color="#E2EBFF"/>
<stop offset="0.913462" stop-color="#DFE7F7" stop-opacity="0"/>
</linearGradient>
<linearGradient id="paint41_linear_3982_108386" x1="55.0503" y1="25.4956" x2="43.9393" y2="25.4956" gradientUnits="userSpaceOnUse">
<stop stop-color="#BACAEB" stop-opacity="0"/>
<stop offset="0.430632" stop-color="#B6F3FF" stop-opacity="0.42"/>
<stop offset="0.434117" stop-color="#E2EBFF"/>
<stop offset="0.913462" stop-color="#DFE7F7" stop-opacity="0"/>
</linearGradient>
<linearGradient id="paint42_linear_3982_108386" x1="32.7772" y1="25.4956" x2="21.6662" y2="25.4956" gradientUnits="userSpaceOnUse">
<stop stop-color="#BACAEB" stop-opacity="0"/>
<stop offset="0.430632" stop-color="#C8D4EF"/>
<stop offset="0.434117" stop-color="#E2EBFF"/>
<stop offset="0.913462" stop-color="#DFE7F7" stop-opacity="0"/>
</linearGradient>
<linearGradient id="paint43_linear_3982_108386" x1="55.0517" y1="25.4956" x2="43.9406" y2="25.4956" gradientUnits="userSpaceOnUse">
<stop stop-color="#BACAEB" stop-opacity="0"/>
<stop offset="0.430632" stop-color="#C8D4EF"/>
<stop offset="0.434117" stop-color="#E2EBFF"/>
<stop offset="0.913462" stop-color="#DFE7F7" stop-opacity="0"/>
</linearGradient>
<radialGradient id="paint44_radial_3982_108386" cx="0" cy="0" r="1" gradientUnits="userSpaceOnUse" gradientTransform="translate(21.2222 20.6667) rotate(52.696) scale(1.46671 1.35447)">
<stop stop-color="#86E6FC" stop-opacity="0"/>
<stop offset="0.764226" stop-color="#57CDE6"/>
<stop offset="1" stop-color="#4FD1EC" stop-opacity="0"/>
</radialGradient>
<radialGradient id="paint45_radial_3982_108386" cx="0" cy="0" r="1" gradientTransform="matrix(-1.849 1.92593 -2.71383 -0.868477 22.5157 20.1634)" gradientUnits="userSpaceOnUse">
<stop stop-color="#72F8FF"/>
<stop offset="1" stop-color="white" stop-opacity="0"/>
</radialGradient>
<radialGradient id="paint46_radial_3982_108386" cx="0" cy="0" r="1" gradientUnits="userSpaceOnUse" gradientTransform="translate(55.9444 23.3333) rotate(52.696) scale(2.93342 2.70894)">
<stop stop-color="#86E6FC" stop-opacity="0"/>
<stop offset="0.764226" stop-color="#57CDE6"/>
<stop offset="1" stop-color="#4FD1EC" stop-opacity="0"/>
</radialGradient>
<radialGradient id="paint47_radial_3982_108386" cx="0" cy="0" r="1" gradientTransform="matrix(-3.698 3.85185 -5.42765 -1.73695 58.5313 22.3268)" gradientUnits="userSpaceOnUse">
<stop stop-color="#72F8FF"/>
<stop offset="1" stop-color="white" stop-opacity="0"/>
</radialGradient>
<radialGradient id="paint48_radial_3982_108386" cx="0" cy="0" r="1" gradientUnits="userSpaceOnUse" gradientTransform="translate(46.1572 18.7764) rotate(52.696) scale(0.618768 0.571417)">
<stop stop-color="#86E6FC" stop-opacity="0"/>
<stop offset="0.764226" stop-color="#57CDE6"/>
<stop offset="1" stop-color="#4FD1EC" stop-opacity="0"/>
</radialGradient>
<radialGradient id="paint49_radial_3982_108386" cx="0" cy="0" r="1" gradientTransform="matrix(-0.780048 0.8125 -1.1449 -0.366389 46.7029 18.5641)" gradientUnits="userSpaceOnUse">
<stop stop-color="#72F8FF"/>
<stop offset="1" stop-color="white" stop-opacity="0"/>
</radialGradient>
<radialGradient id="paint50_radial_3982_108386" cx="0" cy="0" r="1" gradientUnits="userSpaceOnUse" gradientTransform="translate(43.5833 4) rotate(52.696) scale(2.20006 2.0317)">
<stop stop-color="#86E6FC" stop-opacity="0"/>
<stop offset="0.764226" stop-color="#57CDE6"/>
<stop offset="1" stop-color="#4FD1EC" stop-opacity="0"/>
</radialGradient>
<radialGradient id="paint51_radial_3982_108386" cx="0" cy="0" r="1" gradientTransform="matrix(-2.7735 2.88889 -4.07074 -1.30272 45.5235 3.2451)" gradientUnits="userSpaceOnUse">
<stop stop-color="#72F8FF"/>
<stop offset="1" stop-color="white" stop-opacity="0"/>
</radialGradient>
<radialGradient id="paint52_radial_3982_108386" cx="0" cy="0" r="1" gradientUnits="userSpaceOnUse" gradientTransform="translate(44.3056 37.6667) rotate(52.696) scale(3.66677 3.38617)">
<stop stop-color="#86E6FC" stop-opacity="0"/>
<stop offset="0.764226" stop-color="#57CDE6"/>
<stop offset="1" stop-color="#4FD1EC" stop-opacity="0"/>
</radialGradient>
<radialGradient id="paint53_radial_3982_108386" cx="0" cy="0" r="1" gradientTransform="matrix(-4.62251 4.81482 -6.78457 -2.17119 47.5392 36.4085)" gradientUnits="userSpaceOnUse">
<stop stop-color="#72F8FF"/>
<stop offset="1" stop-color="white" stop-opacity="0"/>
</radialGradient>
<linearGradient id="paint54_linear_3982_108386" x1="30.2245" y1="38.1559" x2="41.5433" y2="18.5538" gradientUnits="userSpaceOnUse">
<stop stop-color="white"/>
<stop offset="0.125227" stop-color="#00D3FF"/>
<stop offset="0.19324" stop-color="white"/>
<stop offset="0.499078" stop-color="#AFE2ED"/>
<stop offset="0.507005" stop-color="#E3FAFF"/>
<stop offset="0.717449" stop-color="#E0F9FF"/>
<stop offset="0.729262" stop-color="white"/>
<stop offset="0.918506" stop-color="#BBE6EF"/>
<stop offset="0.923968" stop-color="#E2FAFF"/>
<stop offset="0.946116" stop-color="#E5FAFF"/>
</linearGradient>
<linearGradient id="paint55_linear_3982_108386" x1="48.5181" y1="16.4746" x2="46.4286" y2="19.7627" gradientUnits="userSpaceOnUse">
<stop stop-color="white"/>
<stop offset="1" stop-color="white" stop-opacity="0"/>
</linearGradient>
<linearGradient id="paint56_linear_3982_108386" x1="49.1941" y1="20.8124" x2="32.9326" y2="20.8124" gradientUnits="userSpaceOnUse">
<stop stop-color="#DDCCFF"/>
<stop offset="0.288462" stop-color="#9553FF" stop-opacity="0.6"/>
<stop offset="1" stop-color="#04B0FD" stop-opacity="0.59"/>
</linearGradient>
</defs>
</svg>
