<svg width="14" height="14" viewBox="0 0 14 14" fill="none" xmlns="http://www.w3.org/2000/svg">
<path d="M8.75 0.583984L12.25 4.08398V12.251C12.2498 12.8952 11.7272 13.417 11.083 13.417H2.91699C2.27277 13.417 1.75018 12.8952 1.75 12.251V1.75098C1.75 1.10664 2.27266 0.583984 2.91699 0.583984H8.75Z" fill="#528EFF"/>
<mask id="mask0_10056_17215" style="mask-type:luminance" maskUnits="userSpaceOnUse" x="1" y="0" width="12" height="14">
<path d="M8.75 0.583984L12.25 4.08398V12.251C12.2498 12.8952 11.7272 13.417 11.083 13.417H2.91699C2.27277 13.417 1.75018 12.8952 1.75 12.251V1.75098C1.75 1.10664 2.27266 0.583984 2.91699 0.583984H8.75Z" fill="white"/>
</mask>
<g mask="url(#mask0_10056_17215)">
<path fill-rule="evenodd" clip-rule="evenodd" d="M8.75 0.583984L12.25 4.08398H9.91667C9.27233 4.08398 8.75 3.56165 8.75 2.91732V0.583984Z" fill="#A8CAFF"/>
</g>
<g filter="url(#filter0_d_10056_17215)">
<path d="M7.85645 7.58301C7.92088 7.58301 7.97363 7.63576 7.97363 7.7002V8.37109C7.97363 8.43553 7.92088 8.48828 7.85645 8.48828H4.97656C4.91234 8.48804 4.86035 8.43538 4.86035 8.37109V7.7002C4.86035 7.63591 4.91234 7.58325 4.97656 7.58301H7.85645ZM9.02344 5.25C9.08759 5.25015 9.1394 5.30208 9.13965 5.36621V6.03809C9.13952 6.10232 9.08767 6.15415 9.02344 6.1543H4.97656C4.91242 6.15405 4.86048 6.10226 4.86035 6.03809V5.36621C4.8606 5.30214 4.91249 5.25025 4.97656 5.25H9.02344Z" fill="white"/>
</g>
<defs>
<filter id="filter0_d_10056_17215" x="4.86035" y="5.25" width="5.44596" height="4.40495" filterUnits="userSpaceOnUse" color-interpolation-filters="sRGB">
<feFlood flood-opacity="0" result="BackgroundImageFix"/>
<feColorMatrix in="SourceAlpha" type="matrix" values="0 0 0 0 0 0 0 0 0 0 0 0 0 0 0 0 0 0 127 0" result="hardAlpha"/>
<feOffset dx="0.583333" dy="0.583333"/>
<feGaussianBlur stdDeviation="0.291667"/>
<feColorMatrix type="matrix" values="0 0 0 0 0.0784314 0 0 0 0 0.294118 0 0 0 0 0.8 0 0 0 0.3 0"/>
<feBlend mode="normal" in2="BackgroundImageFix" result="effect1_dropShadow_10056_17215"/>
<feBlend mode="normal" in="SourceGraphic" in2="effect1_dropShadow_10056_17215" result="shape"/>
</filter>
</defs>
</svg>
