<svg width="16" height="16" viewBox="0 0 16 16" fill="none" xmlns="http://www.w3.org/2000/svg">
<path d="M3.33301 8.66602H2V7.33203H3.33301V8.66602ZM6 8.66602H4.66699V7.33203H6V8.66602ZM8.66699 8.66602H7.33301V7.33203H8.66699V8.66602ZM11.333 8.66602H10V7.33203H11.333V8.66602ZM14 8.66602H12.667V7.33203H14V8.66602Z" fill="#7D859C"/>
<path d="M12.667 2C13.4031 2.00018 13.9998 2.59689 14 3.33301V5C14 5.73627 13.4032 6.33283 12.667 6.33301H3.33301C2.61981 6.33284 2.03769 5.77271 2.00195 5.06836L2 5V3.33301C2.00018 2.59689 2.59689 2.00018 3.33301 2H12.667ZM3.33301 5H12.667V3.33301H3.33301V5Z" fill="#7D859C"/>
<path d="M12.667 9.66797C13.4032 9.66814 14 10.2647 14 11.001V12.668C13.9998 13.4041 13.4031 14.0008 12.667 14.001H3.33301C2.61982 14.0008 2.0377 13.4407 2.00195 12.7363L2 12.668V11.001C2 10.2647 2.59678 9.66814 3.33301 9.66797H12.667ZM3.33301 12.668H12.667V11.001H3.33301V12.668Z" fill="#7D859C"/>
</svg>
