<svg width="15" height="15" viewBox="0 0 15 15" fill="none" xmlns="http://www.w3.org/2000/svg">
<path fill-rule="evenodd" clip-rule="evenodd" d="M7.5 1.66667C4.27834 1.66667 1.66667 4.27834 1.66667 7.5C1.66667 10.7217 4.27834 13.3333 7.5 13.3333C10.217 13.3333 12.502 11.4751 13.1496 8.95895L14.7637 9.37438C13.9311 12.609 10.9958 15 7.5 15C3.35786 15 0 11.6421 0 7.5C0 3.35786 3.35786 0 7.5 0C9.85693 0 11.9588 1.08705 13.3333 2.78582V0.833333H15V5.83333H10V4.16667H12.288C11.2333 2.65472 9.48141 1.66667 7.5 1.66667Z" fill="#646C85"/>
</svg>
