<svg width="14" height="14" viewBox="0 0 14 14" fill="none" xmlns="http://www.w3.org/2000/svg">
<path fill-rule="evenodd" clip-rule="evenodd" d="M4.23719 0.732356C4.35742 0.299536 4.7515 0 5.20071 0H8.02732C8.47653 0 8.87061 0.299535 8.99084 0.732356L9.33172 1.95952L10.565 1.64112C11 1.52883 11.4564 1.72035 11.681 2.10938L13.0943 4.55729C13.3189 4.94632 13.2565 5.43737 12.9418 5.7579L12.0495 6.66667L12.9418 7.57544C13.2565 7.89597 13.3189 8.38702 13.0943 8.77604L11.681 11.224C11.4564 11.613 11 11.8045 10.565 11.6922L9.33172 11.3738L8.99084 12.601C8.87061 13.0338 8.47653 13.3333 8.02732 13.3333H5.20071C4.7515 13.3333 4.35742 13.0338 4.23719 12.601L3.89633 11.3739L2.6633 11.6922C2.22835 11.8045 1.7719 11.613 1.5473 11.224L0.133996 8.77604C-0.0906076 8.38702 -0.0282438 7.89597 0.286476 7.57543L1.17877 6.66667L0.286477 5.7579C-0.0282413 5.43737 -0.0906073 4.94632 0.133997 4.55729L1.5473 2.10938C1.77191 1.72035 2.22835 1.52883 2.6633 1.64112L3.89633 1.95945L4.23719 0.732356ZM3.80873 11.0585L3.80886 11.059ZM5.45407 1.33333L5.09342 2.63166C4.94752 3.15693 4.40778 3.46854 3.87993 3.33227L2.57532 2.99546L1.41538 5.00454L2.35946 5.96606C2.7414 6.35505 2.7414 6.97829 2.35946 7.36728L1.41538 8.32879L2.57532 10.3379L3.87994 10.0011C4.40778 9.86479 4.94752 10.1764 5.09343 10.7017L5.45407 12H7.77396L8.13462 10.7016C8.28053 10.1763 8.82027 9.86473 9.34811 10.001L10.653 10.3379L11.8129 8.3288L10.8688 7.36728C10.4869 6.97829 10.4869 6.35505 10.8688 5.96606L11.8129 5.00454L10.653 2.99546L9.34811 3.33234C8.82027 3.46861 8.28053 3.15699 8.13462 2.63173L7.77396 1.33333H5.45407ZM6.61401 5.33333C5.87763 5.33333 5.28068 5.93029 5.28068 6.66667C5.28068 7.40305 5.87763 8 6.61401 8C7.35039 8 7.94735 7.40305 7.94735 6.66667C7.94735 5.93029 7.35039 5.33333 6.61401 5.33333ZM3.94735 6.66667C3.94735 5.19391 5.14126 4 6.61401 4C8.08677 4 9.28068 5.19391 9.28068 6.66667C9.28068 8.13943 8.08677 9.33333 6.61401 9.33333C5.14126 9.33333 3.94735 8.13943 3.94735 6.66667Z" fill="#7D859C"/>
</svg>
