<svg width="16" height="16" viewBox="0 0 16 16" fill="none" xmlns="http://www.w3.org/2000/svg">
<path d="M5.33301 8.66602C6.06939 8.66602 6.66699 9.26264 6.66699 9.99902V12.666L6.66504 12.7344C6.63046 13.416 6.0839 13.9623 5.40234 13.9971L5.33301 13.999H2.66699L2.59766 13.9971C1.89346 13.9612 1.33318 13.3791 1.33301 12.666V9.99902C1.33301 9.26264 1.93061 8.66602 2.66699 8.66602H5.33301ZM13.333 8.66602C14.0694 8.66602 14.667 9.26264 14.667 9.99902V12.666L14.665 12.7344C14.6305 13.416 14.0839 13.9623 13.4023 13.9971L13.333 13.999H9L8.93164 13.9971C8.22729 13.9613 7.66716 13.3792 7.66699 12.666V9.99902C7.66699 9.26264 8.26362 8.66602 9 8.66602H13.333ZM9 12.666H13.333V9.99902H9V12.666ZM2.66699 12.666H5.33301V9.99902H2.66699V12.666ZM13.4023 2.33398C14.1067 2.36989 14.667 2.95278 14.667 3.66602V5.99902L14.665 6.06738C14.6305 6.74899 14.0839 7.29632 13.4023 7.33105L13.333 7.33203H2.66699C1.93061 7.33203 1.33301 6.7354 1.33301 5.99902V3.66602C1.33301 2.92964 1.93061 2.33203 2.66699 2.33203H13.333L13.4023 2.33398ZM2.66699 5.99902H13.333V3.66602H2.66699V5.99902Z" fill="#7D859C"/>
</svg>
