<svg width="24" height="24" viewBox="0 0 24 24" fill="none" xmlns="http://www.w3.org/2000/svg">
<path fill-rule="evenodd" clip-rule="evenodd" d="M6.66797 5.33301C6.11568 5.33301 5.66797 5.78072 5.66797 6.33301V9.33301V10.6663V13.333V14.6663V17.6663C5.66797 18.2186 6.11569 18.6663 6.66797 18.6663H17.3346C17.8869 18.6663 18.3346 18.2186 18.3346 17.6663V14.6663V13.333V10.6663V9.33301V6.33301C18.3346 5.78072 17.8869 5.33301 17.3346 5.33301H6.66797ZM17.0013 13.333H7.0013V10.6663H17.0013V13.333ZM7.0013 17.333V14.6663H17.0013V17.333H7.0013ZM17.0013 9.33301V6.66634H7.0013V9.33301H17.0013ZM9.00797 15.333H7.66797V16.673H9.00797V15.333ZM7.66797 7.33301H9.00797V8.67301H7.66797V7.33301ZM9.00797 11.333H7.66797V12.673H9.00797V11.333Z" fill="#0F172A"/>
</svg>
