<svg width="20" height="20" viewBox="0 0 20 20" fill="none" xmlns="http://www.w3.org/2000/svg">
<path d="M12.5 0.833496L17.5 5.8335V17.1665C17.5 18.2711 16.6046 19.1665 15.5 19.1665H4.5C3.39543 19.1665 2.5 18.2711 2.5 17.1665V2.8335C2.5 1.72893 3.39543 0.833496 4.5 0.833496H12.5Z" fill="#528EFF"/>
<mask id="mask0_1259_303998" style="mask-type:luminance" maskUnits="userSpaceOnUse" x="2" y="0" width="16" height="20">
<path d="M12.5 0.833496L17.5 5.8335V17.1665C17.5 18.2711 16.6046 19.1665 15.5 19.1665H4.5C3.39543 19.1665 2.5 18.2711 2.5 17.1665V2.8335C2.5 1.72893 3.39543 0.833496 4.5 0.833496H12.5Z" fill="white"/>
</mask>
<g mask="url(#mask0_1259_303998)">
<path fill-rule="evenodd" clip-rule="evenodd" d="M12.5 0.833496L17.5 5.8335H14.5C13.3954 5.8335 12.5 4.93807 12.5 3.8335V0.833496Z" fill="#A8CAFF"/>
</g>
<g filter="url(#filter0_d_1259_303998)">
<path d="M10.0846 8.50439C10.7674 8.47619 11.438 8.68958 11.9791 9.10693C12.4641 9.50472 12.7772 10.0741 12.8531 10.6968L12.8698 10.8003C12.8875 10.9143 12.7995 11.0169 12.6842 11.0171H11.5602C11.4752 11.0171 11.4008 10.9604 11.3785 10.8784L11.36 10.811C11.3058 10.5364 11.1503 10.2919 10.9244 10.1265C10.6672 9.96948 10.3679 9.89401 10.067 9.91064C9.53732 9.91076 9.14825 10.103 8.901 10.4302C8.65395 10.7575 8.52991 11.2171 8.52991 11.8452C8.52995 12.4735 8.6411 12.9477 8.89319 13.272C9.14534 13.5961 9.54767 13.7622 10.0944 13.7622C10.4009 13.7762 10.7036 13.6892 10.9557 13.5142C11.2075 13.2915 11.3795 12.9923 11.4449 12.6626L11.4625 12.5952C11.4842 12.5125 11.5586 12.4547 11.6442 12.4546H12.7633C12.8813 12.4549 12.9701 12.5624 12.9479 12.6782L12.9274 12.7856C12.8166 13.4839 12.4527 14.1169 11.9059 14.5649C11.3947 14.9671 10.7603 15.18 10.11 15.1675C9.03888 15.1675 8.22746 14.8218 7.69202 14.1392C7.23916 13.5696 7.00842 12.7853 7.00842 11.8442C7.00845 10.9033 7.25749 10.1253 7.72034 9.53857C8.26149 8.85439 9.05799 8.50441 10.0846 8.50439Z" fill="white"/>
</g>
<defs>
<filter id="filter0_d_1259_303998" x="7.00842" y="8.50195" width="7.56354" height="8.28668" filterUnits="userSpaceOnUse" color-interpolation-filters="sRGB">
<feFlood flood-opacity="0" result="BackgroundImageFix"/>
<feColorMatrix in="SourceAlpha" type="matrix" values="0 0 0 0 0 0 0 0 0 0 0 0 0 0 0 0 0 0 127 0" result="hardAlpha"/>
<feOffset dx="0.810334" dy="0.810334"/>
<feGaussianBlur stdDeviation="0.405167"/>
<feColorMatrix type="matrix" values="0 0 0 0 0.0784314 0 0 0 0 0.294118 0 0 0 0 0.8 0 0 0 0.3 0"/>
<feBlend mode="normal" in2="BackgroundImageFix" result="effect1_dropShadow_1259_303998"/>
<feBlend mode="normal" in="SourceGraphic" in2="effect1_dropShadow_1259_303998" result="shape"/>
</filter>
</defs>
</svg>
