<svg width="20" height="20" viewBox="0 0 20 20" fill="none" xmlns="http://www.w3.org/2000/svg">
<path d="M12.5 0.833496L17.5 5.8335V17.1665C17.5 18.2711 16.6046 19.1665 15.5 19.1665H4.5C3.39543 19.1665 2.5 18.2711 2.5 17.1665V2.8335C2.5 1.72893 3.39543 0.833496 4.5 0.833496H12.5Z" fill="#528EFF"/>
<mask id="mask0_1259_303960" style="mask-type:luminance" maskUnits="userSpaceOnUse" x="2" y="0" width="16" height="20">
<path d="M12.5 0.833496L17.5 5.8335V17.1665C17.5 18.2711 16.6046 19.1665 15.5 19.1665H4.5C3.39543 19.1665 2.5 18.2711 2.5 17.1665V2.8335C2.5 1.72893 3.39543 0.833496 4.5 0.833496H12.5Z" fill="white"/>
</mask>
<g mask="url(#mask0_1259_303960)">
<path fill-rule="evenodd" clip-rule="evenodd" d="M12.5 0.833496L17.5 5.8335H14.5C13.3954 5.8335 12.5 4.93807 12.5 3.8335V0.833496Z" fill="#A8CAFF"/>
</g>
<g filter="url(#filter0_d_1259_303960)">
<path d="M7.6676 15.0003C7.57503 15.0003 7.49456 14.9368 7.47306 14.8468L6.14441 9.2816C6.1144 9.15589 6.2097 9.03516 6.33894 9.03516H7.15761C7.25155 9.03516 7.33283 9.10053 7.35297 9.19228L8.21773 13.1326L9.26869 9.18372C9.292 9.09612 9.37131 9.03516 9.46196 9.03516H10.5845C10.6762 9.03516 10.7562 9.09752 10.7785 9.18647L11.7863 13.2018L12.6673 9.19223C12.6874 9.1005 12.7687 9.03516 12.8626 9.03516H13.66C13.7895 9.03516 13.8849 9.15645 13.8543 9.28235L12.5029 14.8475C12.4811 14.9372 12.4008 15.0003 12.3085 15.0003H11.3418C11.2512 15.0003 11.1719 14.9394 11.1485 14.8518L9.99996 10.5407L8.85535 14.8516C8.83208 14.9393 8.75274 15.0003 8.66205 15.0003H7.6676Z" fill="white"/>
</g>
<defs>
<filter id="filter0_d_1259_303960" x="6.13879" y="9.03516" width="9.72131" height="7.96533" filterUnits="userSpaceOnUse" color-interpolation-filters="sRGB">
<feFlood flood-opacity="0" result="BackgroundImageFix"/>
<feColorMatrix in="SourceAlpha" type="matrix" values="0 0 0 0 0 0 0 0 0 0 0 0 0 0 0 0 0 0 127 0" result="hardAlpha"/>
<feOffset dx="1" dy="1"/>
<feGaussianBlur stdDeviation="0.5"/>
<feColorMatrix type="matrix" values="0 0 0 0 0.0784314 0 0 0 0 0.294118 0 0 0 0 0.8 0 0 0 0.3 0"/>
<feBlend mode="normal" in2="BackgroundImageFix" result="effect1_dropShadow_1259_303960"/>
<feBlend mode="normal" in="SourceGraphic" in2="effect1_dropShadow_1259_303960" result="shape"/>
</filter>
</defs>
</svg>
