<svg xmlns="http://www.w3.org/2000/svg" width="20" height="20" viewBox="0 0 20 20" fill="none">
  <path d="M12.5 0.833496L17.5 5.8335V17.1665C17.5 18.2711 16.6046 19.1665 15.5 19.1665H4.5C3.39543 19.1665 2.5 18.2711 2.5 17.1665V2.8335C2.5 1.72893 3.39543 0.833496 4.5 0.833496H12.5Z" fill="#60BB81"/>
  <mask id="mask0_1882_7420" style="mask-type:luminance" maskUnits="userSpaceOnUse" x="2" y="0" width="16" height="20">
    <path d="M12.5 0.833496L17.5 5.8335V17.1665C17.5 18.2711 16.6046 19.1665 15.5 19.1665H4.5C3.39543 19.1665 2.5 18.2711 2.5 17.1665V2.8335C2.5 1.72893 3.39543 0.833496 4.5 0.833496H12.5Z" fill="white"/>
  </mask>
  <g mask="url(#mask0_1882_7420)">
    <path fill-rule="evenodd" clip-rule="evenodd" d="M12.5 0.833496L17.5 5.8335H14.5C13.3954 5.8335 12.5 4.93807 12.5 3.8335V0.833496Z" fill="#A8E0BC"/>
  </g>
  <g filter="url(#filter0_d_1882_7420)">
    <path d="M8.68696 15.0353C8.74678 15.0353 8.80237 15.0044 8.83407 14.9537L9.836 13.3506C9.90395 13.2419 10.0623 13.2419 10.1302 13.3506L11.1322 14.9537C11.1639 15.0044 11.2194 15.0353 11.2793 15.0353H12.4701C12.6064 15.0353 12.6894 14.8854 12.6172 14.7698L10.8406 11.9272C10.8054 11.8709 10.8054 11.7996 10.8406 11.7433L12.6172 8.90067C12.6894 8.78513 12.6064 8.63525 12.4701 8.63525H11.2793C11.2194 8.63525 11.1639 8.66607 11.1322 8.71679L10.1302 10.3199C10.0623 10.4286 9.90395 10.4286 9.836 10.3199L8.83407 8.71679C8.80237 8.66607 8.74678 8.63525 8.68696 8.63525H7.49611C7.35985 8.63525 7.27679 8.78513 7.349 8.90067L9.12565 11.7433C9.16081 11.7996 9.16081 11.8709 9.12565 11.9272L7.349 14.7698C7.27679 14.8854 7.35985 15.0353 7.49611 15.0353H8.68696Z" fill="white"/>
  </g>
  <defs>
    <filter id="filter0_d_1882_7420" x="7.32236" y="8.63525" width="7.32152" height="8.3999" filterUnits="userSpaceOnUse" color-interpolation-filters="sRGB">
      <feFlood flood-opacity="0" result="BackgroundImageFix"/>
      <feColorMatrix in="SourceAlpha" type="matrix" values="0 0 0 0 0 0 0 0 0 0 0 0 0 0 0 0 0 0 127 0" result="hardAlpha"/>
      <feOffset dx="1" dy="1"/>
      <feGaussianBlur stdDeviation="0.5"/>
      <feColorMatrix type="matrix" values="0 0 0 0 0.2 0 0 0 0 0.439216 0 0 0 0 0.254902 0 0 0 0.3 0"/>
      <feBlend mode="normal" in2="BackgroundImageFix" result="effect1_dropShadow_1882_7420"/>
      <feBlend mode="normal" in="SourceGraphic" in2="effect1_dropShadow_1882_7420" result="shape"/>
    </filter>
  </defs>
</svg>