<svg xmlns="http://www.w3.org/2000/svg" width="20" height="20" viewBox="0 0 20 20" fill="none">
  <path d="M12.5 0.833496L17.5 5.8335V17.1665C17.5 18.2711 16.6046 19.1665 15.5 19.1665H4.5C3.39543 19.1665 2.5 18.2711 2.5 17.1665V2.8335C2.5 1.72893 3.39543 0.833496 4.5 0.833496H12.5Z" fill="#7073FF"/>
  <mask id="mask0_1882_5378" style="mask-type:luminance" maskUnits="userSpaceOnUse" x="2" y="0" width="16" height="20">
    <path d="M12.5 0.833496L17.5 5.8335V17.1665C17.5 18.2711 16.6046 19.1665 15.5 19.1665H4.5C3.39543 19.1665 2.5 18.2711 2.5 17.1665V2.8335C2.5 1.72893 3.39543 0.833496 4.5 0.833496H12.5Z" fill="white"/>
  </mask>
  <g mask="url(#mask0_1882_5378)">
    <path fill-rule="evenodd" clip-rule="evenodd" d="M12.5 0.833496L17.5 5.8335H14.5C13.3954 5.8335 12.5 4.93807 12.5 3.8335V0.833496Z" fill="#B8BBFF"/>
  </g>
  <g filter="url(#filter0_d_1882_5378)">
    <path d="M12.8913 9.157C12.8723 9.13756 12.8331 9.09766 12.813 9.09766L8.58126 6.71401C8.5421 6.67411 8.50293 6.65467 8.46477 6.67411H8.44569C8.40653 6.67411 8.36737 6.71401 8.34829 6.73345C8.30912 6.77334 8.29004 6.81324 8.29004 6.87258C8.29004 8.3621 8.29004 9.89153 8.30912 11.38C8.03698 11.3207 7.74375 11.3401 7.43144 11.4199C7.04181 11.5386 6.7305 11.7187 6.5156 11.9959C6.49652 12.0153 6.49652 12.0358 6.49652 12.0358C6.26254 12.3345 6.18421 12.6517 6.28262 12.9688C6.36095 13.2675 6.57585 13.5049 6.9454 13.6634C7.27679 13.7821 7.62726 13.7821 8.03698 13.6634C8.42661 13.5642 8.73792 13.3647 8.95282 13.1079C8.9735 13.088 9.05855 12.9882 9.05855 12.9688C9.15596 12.8501 9.20025 12.6072 9.21159 12.5768C9.21892 12.5571 9.22496 12.5368 9.22496 12.5135V12.3939V8.29818L11.9735 9.84704L11.9926 13.466C11.7194 13.4067 11.4272 13.4261 11.135 13.5059C10.7253 13.6246 10.434 13.8046 10.199 14.1013C9.94498 14.4 9.86766 14.7172 9.96506 15.0343C10.0434 15.3525 10.2583 15.5898 10.6278 15.7299C10.9592 15.8486 11.3298 15.8691 11.7194 15.7698C12.1091 15.6512 12.4204 15.4711 12.6353 15.1939C12.6543 15.1744 12.6543 15.154 12.6543 15.154C12.8291 14.9361 12.9074 14.7172 12.9074 14.4788V9.25725C12.9104 9.21736 12.8913 9.19792 12.8913 9.157Z" fill="white"/>
  </g>
  <defs>
    <filter id="filter0_d_1882_5378" x="5.24106" y="5.6665" width="8.66666" height="11.1665" filterUnits="userSpaceOnUse" color-interpolation-filters="sRGB">
      <feFlood flood-opacity="0" result="BackgroundImageFix"/>
      <feColorMatrix in="SourceAlpha" type="matrix" values="0 0 0 0 0 0 0 0 0 0 0 0 0 0 0 0 0 0 127 0" result="hardAlpha"/>
      <feOffset/>
      <feGaussianBlur stdDeviation="0.5"/>
      <feColorMatrix type="matrix" values="0 0 0 0 0.6 0 0 0 0 0.0588235 0 0 0 0 0.27451 0 0 0 0.3 0"/>
      <feBlend mode="normal" in2="BackgroundImageFix" result="effect1_dropShadow_1882_5378"/>
      <feBlend mode="normal" in="SourceGraphic" in2="effect1_dropShadow_1882_5378" result="shape"/>
    </filter>
  </defs>
</svg>