<svg width="20" height="20" viewBox="0 0 20 20" fill="none" xmlns="http://www.w3.org/2000/svg">
<path d="M12.5 0.833496L17.5 5.8335V17.1665C17.5 18.2711 16.6046 19.1665 15.5 19.1665H4.5C3.39543 19.1665 2.5 18.2711 2.5 17.1665V2.8335C2.5 1.72893 3.39543 0.833496 4.5 0.833496H12.5Z" fill="#528EFF"/>
<mask id="mask0_1259_304002" style="mask-type:luminance" maskUnits="userSpaceOnUse" x="2" y="0" width="16" height="20">
<path d="M12.5 0.833496L17.5 5.8335V17.1665C17.5 18.2711 16.6046 19.1665 15.5 19.1665H4.5C3.39543 19.1665 2.5 18.2711 2.5 17.1665V2.8335C2.5 1.72893 3.39543 0.833496 4.5 0.833496H12.5Z" fill="white"/>
</mask>
<g mask="url(#mask0_1259_304002)">
<path fill-rule="evenodd" clip-rule="evenodd" d="M12.5 0.833496L17.5 5.8335H14.5C13.3954 5.8335 12.5 4.93807 12.5 3.8335V0.833496Z" fill="#A8CAFF"/>
</g>
<g filter="url(#filter0_d_1259_304002)">
<path d="M12.2015 7.80469C12.3305 7.80615 12.4537 7.85841 12.5443 7.95011C12.635 8.04181 12.6858 8.16557 12.6858 8.29453C12.6858 8.42349 12.635 8.54724 12.5443 8.63895C12.4537 8.73065 12.3305 8.7829 12.2015 8.78437C11.8118 8.78437 11.438 8.9392 11.1624 9.21481C10.8868 9.49041 10.7319 9.86421 10.7319 10.254V13.7811C10.7318 14.3041 10.5642 14.8133 10.2537 15.2342C9.94329 15.6551 9.50625 15.9656 9.00661 16.1202C8.50697 16.2748 7.97096 16.2654 7.47704 16.0934C6.98312 15.9214 6.55723 15.5958 6.26171 15.1643C5.96619 14.7327 5.81657 14.2179 5.83473 13.6952C5.8529 13.1725 6.0379 12.6694 6.36266 12.2594C6.68742 11.8494 7.13489 11.5542 7.63956 11.4169C8.14423 11.2796 8.6796 11.3074 9.1673 11.4963C9.22743 11.5195 9.2824 11.5542 9.32907 11.5986C9.37574 11.643 9.4132 11.6962 9.4393 11.7551C9.46539 11.814 9.47962 11.8774 9.48116 11.9418C9.48269 12.0062 9.47151 12.0703 9.44826 12.1304C9.425 12.1905 9.39013 12.2453 9.34562 12.2919C9.30112 12.3385 9.24787 12.3758 9.18892 12.4018C9.12997 12.4278 9.06648 12.4419 9.00208 12.4433C8.93767 12.4447 8.87363 12.4334 8.8136 12.41C8.52443 12.2979 8.20724 12.2803 7.90741 12.3595C7.60758 12.4387 7.34049 12.6107 7.14436 12.8509C6.94823 13.0911 6.83312 13.3872 6.81549 13.6968C6.79787 14.0064 6.87864 14.3137 7.04625 14.5746C7.21385 14.8355 7.4597 15.0367 7.74861 15.1494C8.03751 15.2621 8.35467 15.2806 8.65468 15.2021C8.9547 15.1236 9.22219 14.9522 9.41889 14.7124C9.61558 14.4727 9.73139 14.1769 9.74975 13.8673L9.7522 13.7811V10.156C9.75233 10.1349 9.75397 10.1138 9.7571 10.0929C9.79802 9.47243 10.0734 8.89078 10.5273 8.46587C10.9812 8.04096 11.5798 7.80459 12.2015 7.80469ZM13.6711 11.6257C13.7359 11.6249 13.8002 11.637 13.8603 11.6613C13.9204 11.6856 13.975 11.7216 14.0211 11.7671C14.0672 11.8127 14.1038 11.8669 14.1288 11.9267C14.1537 11.9865 14.1666 12.0507 14.1666 12.1155C14.1666 12.1803 14.1537 12.2444 14.1288 12.3042C14.1038 12.364 14.0672 12.4183 14.0211 12.4638C13.975 12.5094 13.9204 12.5454 13.8603 12.5697C13.8002 12.5939 13.7359 12.6061 13.6711 12.6053H11.7117C11.5827 12.6039 11.4596 12.5516 11.3689 12.4599C11.2782 12.3682 11.2274 12.2444 11.2274 12.1155C11.2274 11.9865 11.2782 11.8628 11.3689 11.7711C11.4596 11.6794 11.5827 11.6271 11.7117 11.6257H13.6711Z" fill="white"/>
</g>
<defs>
<filter id="filter0_d_1259_304002" x="5.83325" y="7.80469" width="9.95404" height="10.0455" filterUnits="userSpaceOnUse" color-interpolation-filters="sRGB">
<feFlood flood-opacity="0" result="BackgroundImageFix"/>
<feColorMatrix in="SourceAlpha" type="matrix" values="0 0 0 0 0 0 0 0 0 0 0 0 0 0 0 0 0 0 127 0" result="hardAlpha"/>
<feOffset dx="0.810334" dy="0.810334"/>
<feGaussianBlur stdDeviation="0.405167"/>
<feColorMatrix type="matrix" values="0 0 0 0 0.0784314 0 0 0 0 0.294118 0 0 0 0 0.8 0 0 0 0.3 0"/>
<feBlend mode="normal" in2="BackgroundImageFix" result="effect1_dropShadow_1259_304002"/>
<feBlend mode="normal" in="SourceGraphic" in2="effect1_dropShadow_1259_304002" result="shape"/>
</filter>
</defs>
</svg>
