<svg width="20" height="20" viewBox="0 0 20 20" fill="none" xmlns="http://www.w3.org/2000/svg">
<path d="M12.5 0.833496L17.5 5.8335V18.0005C17.4998 18.6447 16.9772 19.1665 16.333 19.1665H3.66699C3.02277 19.1665 2.50018 18.6447 2.5 18.0005V2.00049C2.5 1.35616 3.02266 0.833496 3.66699 0.833496H12.5Z" fill="#F25788"/>
<mask id="mask0_1259_303952" style="mask-type:luminance" maskUnits="userSpaceOnUse" x="2" y="0" width="16" height="20">
<path d="M12.5 0.833496L17.5 5.8335V18.0005C17.4998 18.6447 16.9772 19.1665 16.333 19.1665H3.66699C3.02277 19.1665 2.50018 18.6447 2.5 18.0005V2.00049C2.5 1.35616 3.02266 0.833496 3.66699 0.833496H12.5Z" fill="white"/>
</mask>
<g mask="url(#mask0_1259_303952)">
<path fill-rule="evenodd" clip-rule="evenodd" d="M12.5 0.833496L17.5 5.8335H13.6667C13.0223 5.8335 12.5 5.31116 12.5 4.66683V0.833496Z" fill="#FFADC5"/>
</g>
<g filter="url(#filter0_d_1259_303952)">
<path d="M9.55408 7.50293C9.78295 7.50293 10.0171 7.61513 10.1576 7.79883C10.4594 8.20734 10.4336 9.07036 10.0433 10.3418C10.4128 11.021 10.8973 11.6344 11.475 12.1553C11.9588 12.0634 12.4481 11.9971 12.932 11.9971C14.0245 12.0176 14.1862 12.5175 14.1654 12.8086C14.1654 13.5794 13.4006 13.5801 13.0101 13.5801C12.3856 13.5341 11.7864 13.3089 11.2972 12.9004C10.3502 13.1047 9.44971 13.4011 8.54431 13.7637C7.82621 15.0095 7.15512 15.6475 6.57751 15.6475C6.46303 15.6475 6.32254 15.6271 6.22888 15.5557C5.97402 15.4433 5.83344 15.1935 5.83337 14.9434C5.83337 14.7391 5.88043 14.1716 8.07654 13.2422C8.58641 12.3333 8.9766 11.4039 9.29919 10.4287C9.02334 9.88219 8.42002 8.54435 8.8363 7.86523C8.97681 7.61516 9.25238 7.47747 9.55408 7.50293ZM7.36365 14.335C7.02023 14.4677 6.73879 14.6931 6.53064 14.9893L6.59802 14.9688C6.92065 14.8564 7.17631 14.626 7.36365 14.335ZM9.74646 11.5166L9.72595 11.4961C9.51783 12.0169 9.28851 12.5377 9.03357 13.0381L9.08044 13.0176V13.0635C9.59043 12.8796 10.1427 12.7217 10.6527 12.6094L10.6312 12.5889H10.6996C10.3459 12.2417 10.0229 11.8587 9.76794 11.4707L9.74646 11.5166ZM12.9164 12.6758C12.7082 12.6758 12.52 12.6757 12.3119 12.7217C12.5408 12.834 12.7754 12.8797 13.0043 12.9053C13.1656 12.9257 13.3276 12.9053 13.4681 12.8594C13.468 12.7879 13.3789 12.6758 12.9164 12.6758ZM9.53845 8.18164C9.51755 8.18164 9.47065 8.18186 9.4447 8.20215C9.3511 8.59015 9.42407 8.99885 9.58533 9.36133C9.72058 8.97327 9.72031 8.56459 9.60583 8.18164H9.53845Z" fill="white"/>
</g>
<defs>
<filter id="filter0_d_1259_303952" x="5.83337" y="7.5" width="8.33374" height="8.73079" filterUnits="userSpaceOnUse" color-interpolation-filters="sRGB">
<feFlood flood-opacity="0" result="BackgroundImageFix"/>
<feColorMatrix in="SourceAlpha" type="matrix" values="0 0 0 0 0 0 0 0 0 0 0 0 0 0 0 0 0 0 127 0" result="hardAlpha"/>
<feOffset dy="0.583333"/>
<feColorMatrix type="matrix" values="0 0 0 0 0.6 0 0 0 0 0.0588235 0 0 0 0 0.27451 0 0 0 0.3 0"/>
<feBlend mode="normal" in2="BackgroundImageFix" result="effect1_dropShadow_1259_303952"/>
<feBlend mode="normal" in="SourceGraphic" in2="effect1_dropShadow_1259_303952" result="shape"/>
</filter>
</defs>
</svg>
