<svg xmlns="http://www.w3.org/2000/svg" width="20" height="20" viewBox="0 0 20 20" fill="none">
  <path fill-rule="evenodd" clip-rule="evenodd" d="M9.16671 3.7487C6.17516 3.7487 3.75004 6.17382 3.75004 9.16536C3.75004 12.1569 6.17516 14.582 9.16671 14.582C10.6627 14.582 12.0157 13.9767 12.9969 12.9955C13.978 12.0144 14.5834 10.6614 14.5834 9.16536C14.5834 6.17382 12.1582 3.7487 9.16671 3.7487ZM2.08337 9.16536C2.08337 5.25335 5.25469 2.08203 9.16671 2.08203C13.0787 2.08203 16.25 5.25335 16.25 9.16536C16.25 10.8207 15.6814 12.3444 14.73 13.5502L17.881 16.7011L16.7025 17.8796L13.5515 14.7287C12.3458 15.6801 10.8221 16.2487 9.16671 16.2487C5.25469 16.2487 2.08337 13.0774 2.08337 9.16536ZM8.33337 8.33203V6.2487H10V8.33203H12.0834V9.9987H10V12.082H8.33337V9.9987H6.25004V8.33203H8.33337Z" fill="white"/>
</svg>