<svg width="20" height="20" viewBox="0 0 20 20" fill="none" xmlns="http://www.w3.org/2000/svg">
<path d="M12.5 0.833496L17.5 5.8335V17.1665C17.5 18.2711 16.6046 19.1665 15.5 19.1665H4.5C3.39543 19.1665 2.5 18.2711 2.5 17.1665V2.8335C2.5 1.72893 3.39543 0.833496 4.5 0.833496H12.5Z" fill="#528EFF"/>
<mask id="mask0_1259_303956" style="mask-type:luminance" maskUnits="userSpaceOnUse" x="2" y="0" width="16" height="20">
<path d="M12.5 0.833496L17.5 5.8335V17.1665C17.5 18.2711 16.6046 19.1665 15.5 19.1665H4.5C3.39543 19.1665 2.5 18.2711 2.5 17.1665V2.8335C2.5 1.72893 3.39543 0.833496 4.5 0.833496H12.5Z" fill="white"/>
</mask>
<g mask="url(#mask0_1259_303956)">
<path fill-rule="evenodd" clip-rule="evenodd" d="M12.5 0.833496L17.5 5.8335H14.5C13.3954 5.8335 12.5 4.93807 12.5 3.8335V0.833496Z" fill="#A8CAFF"/>
</g>
<g filter="url(#filter0_d_1259_303956)">
<path d="M13.0568 10.2592C13.0568 10.3696 12.9672 10.4592 12.8568 10.4592H10.8036V15.3655C10.8036 15.476 10.714 15.5655 10.6036 15.5655H9.40452C9.29406 15.5655 9.20452 15.476 9.20452 15.3655V10.4592H7.14324C7.03278 10.4592 6.94324 10.3696 6.94324 10.2592V9.36699C6.94324 9.25654 7.03278 9.16699 7.14324 9.16699H12.8568C12.9672 9.16699 13.0568 9.25654 13.0568 9.36699V10.2592Z" fill="white"/>
</g>
<defs>
<filter id="filter0_d_1259_303956" x="6.94324" y="9.16699" width="8.11353" height="8.39844" filterUnits="userSpaceOnUse" color-interpolation-filters="sRGB">
<feFlood flood-opacity="0" result="BackgroundImageFix"/>
<feColorMatrix in="SourceAlpha" type="matrix" values="0 0 0 0 0 0 0 0 0 0 0 0 0 0 0 0 0 0 127 0" result="hardAlpha"/>
<feOffset dx="1" dy="1"/>
<feGaussianBlur stdDeviation="0.5"/>
<feColorMatrix type="matrix" values="0 0 0 0 0.0784314 0 0 0 0 0.294118 0 0 0 0 0.8 0 0 0 0.3 0"/>
<feBlend mode="normal" in2="BackgroundImageFix" result="effect1_dropShadow_1259_303956"/>
<feBlend mode="normal" in="SourceGraphic" in2="effect1_dropShadow_1259_303956" result="shape"/>
</filter>
</defs>
</svg>
