<svg width="20" height="20" viewBox="0 0 20 20" fill="none" xmlns="http://www.w3.org/2000/svg">
<path opacity="0.3" d="M6.48284 19H13.5172C13.6953 19 13.7846 18.7846 13.6586 18.6586L10 15L6.34142 18.6586C6.21543 18.7846 6.30466 19 6.48284 19Z" fill="currentColor"/>
<rect x="1" y="2" width="18" height="14" rx="1" fill="currentColor"/>
<path d="M9.61455 6.67033C9.7349 6.38004 10.1463 6.38 10.2666 6.67033L10.5026 7.24031C10.8008 7.96028 11.3728 8.53231 12.0927 8.83081L12.6634 9.06746C12.9535 9.18788 12.9533 9.59893 12.6631 9.71915L12.0931 9.95516C11.3723 10.2537 10.7999 10.8265 10.5016 11.5473L10.2662 12.1153C10.146 12.4059 9.73436 12.4059 9.61422 12.1153L9.37822 11.5447C9.08002 10.8233 8.50711 10.2498 7.78577 9.95125L7.21774 9.71622C6.92742 9.59597 6.92742 9.18485 7.21774 9.06453L7.78903 8.82755C8.50894 8.52924 9.08112 7.95749 9.37952 7.23771L9.61455 6.67033Z" fill="white"/>
<path d="M13.304 5.08374C13.3503 4.97209 13.5087 4.97209 13.555 5.08374L13.6152 5.22957C13.707 5.45118 13.8832 5.62732 14.1048 5.71915L14.2496 5.77905C14.3612 5.82536 14.3612 5.98338 14.2496 6.0297L14.1038 6.09025C13.8819 6.18209 13.7057 6.35831 13.6139 6.58016L13.5543 6.72404C13.5081 6.83579 13.3496 6.83578 13.3034 6.72404L13.2435 6.57885C13.1516 6.35686 12.9752 6.18049 12.7532 6.08862L12.6087 6.02872C12.4971 5.98241 12.497 5.82435 12.6087 5.77807L12.7545 5.71785C12.9761 5.62607 13.1522 5.4498 13.2441 5.22827L13.304 5.08374Z" fill="white"/>
</svg>
