<svg width="20" height="20" viewBox="0 0 20 20" fill="none" xmlns="http://www.w3.org/2000/svg">
<g clip-path="url(#clip0_5976_23223)">
<g clip-path="url(#clip1_5976_23223)">
<path d="M8.57129 18H6V16H8.14258L8.57129 18ZM4 14H2V6H4V14ZM18 9.42773L16 8.85645V6H18V9.42773ZM14 4H6V2H14V4Z" fill="currentColor"/>
<path opacity="0.32" d="M5 14C5.55228 14 6 14.4477 6 15V19C6 19.5523 5.55228 20 5 20H1C0.447715 20 0 19.5523 0 19V15C8.59014e-08 14.4477 0.447715 14 1 14H5ZM5 0C5.55228 6.44255e-08 6 0.447715 6 1V5C6 5.55228 5.55228 6 5 6H1C0.447715 6 1.61065e-08 5.55228 0 5V1C6.4426e-08 0.447715 0.447715 1.61064e-08 1 0H5ZM19 0C19.5523 6.44255e-08 20 0.447715 20 1V5C20 5.55228 19.5523 6 19 6H15C14.4477 6 14 5.55228 14 5V1C14 0.447715 14.4477 1.61064e-08 15 0H19Z" fill="currentColor"/>
<path d="M7.11353 7.38317C7.06673 7.22521 7.22027 7.08158 7.37475 7.1388L19.3926 11.5899C19.7513 11.7227 19.7369 12.2348 19.3713 12.3473L14 14L11.445 19.5358C11.2904 19.8709 10.8031 19.8356 10.6983 19.4818L7.11353 7.38317Z" fill="currentColor"/>
</g>
</g>
<defs>
<clipPath id="clip0_5976_23223">
<rect width="20" height="20" fill="white"/>
</clipPath>
<clipPath id="clip1_5976_23223">
<rect width="20" height="20" fill="white"/>
</clipPath>
</defs>
</svg>
