<svg xmlns="http://www.w3.org/2000/svg" class="arco-icon" style="stroke:none;fill:currentColor;"
    xmlns:xlink="http://www.w3.org/1999/xlink" fill="none" version="1.1" width="1em" height="1em" viewBox="0 0 22.0 22.0" >
<path opacity="0.32" d="M17.0005 3.66699C17.9209 3.66708 18.6675 4.41356 18.6675 5.33398V17C18.6675 17.9204 17.9209 18.6669 17.0005 18.667H14.5005C14.9606 18.6669 15.3333 18.294 15.3335 17.834V3.66699H17.0005Z" fill="currentColor"/>
<path d="M13.667 2C14.5874 2.00009 15.333 2.74658 15.333 3.66699V17.834C15.3328 18.294 14.9601 18.667 14.5 18.667H3.66699C2.74652 18.667 2 17.9205 2 17V3.66699C2 2.74652 2.74652 2 3.66699 2H13.667ZM6.16699 10.334L6.07031 10.3389C5.65586 10.387 5.33398 10.7396 5.33398 11.167C5.33407 11.627 5.70696 11.9998 6.16699 12H8.66699L8.76465 11.9941C9.17872 11.9457 9.5009 11.5941 9.50098 11.167C9.50098 10.7069 9.12701 10.3342 8.66699 10.334H6.16699ZM6.16699 7L6.07031 7.00586C5.65586 7.054 5.33398 7.40662 5.33398 7.83398C5.33424 8.2939 5.70706 8.66682 6.16699 8.66699H11.167L11.2646 8.66113C11.6786 8.61273 12.0007 8.26092 12.001 7.83398C12.001 7.37391 11.627 7.00026 11.167 7H6.16699Z" fill="currentColor"/>
</svg>
