<svg width="20" height="19" viewBox="0 0 21 20" fill="currentColor" xmlns="http://www.w3.org/2000/svg">
<path d="M18.8999 14.3008C19.5073 14.3009 20.0005 14.793 20.0005 15.4004V19.8008C20 20.4078 19.507 20.9003 18.8999 20.9004H4.6001C3.9929 20.9003 3.50093 20.4079 3.50049 19.8008V15.4004C3.50052 14.7929 3.99265 14.3008 4.6001 14.3008H18.8999ZM14.0503 16.5V18.7002H17.3501V16.5H14.0503ZM18.8999 1.09961C19.5072 1.09974 20.0003 1.59292 20.0005 2.2002V6.60059C20.0002 7.20777 19.5071 7.70006 18.8999 7.7002H4.6001C3.99283 7.70012 3.50077 7.20781 3.50049 6.60059V2.2002C3.50068 1.59289 3.99277 1.09969 4.6001 1.09961H18.8999ZM5.25049 3.2998V5.5H8.55029V3.2998H5.25049Z" fill="currentColor"/>
<path opacity="0.32" d="M16.9002 14.5C16.9002 13.6287 16.7645 12.4764 16.4523 11.8538C16.1278 11.2068 15.6451 10.7661 15.0805 10.4896C14.5429 10.2263 13.966 10.1286 13.4531 10.0867C12.9449 10.0453 12.4034 10.0534 11.9502 10.0534C10.93 10.0534 10.3091 9.99507 9.90493 9.73115C9.62444 9.5479 9 9.20011 9 7.61547H6.8C6.8 9.56611 7.53867 10.8137 8.70181 11.5734C9.74143 12.2524 11.0455 12.2534 11.9502 12.2534C12.4595 12.2534 12.8807 12.247 13.2748 12.2792C13.6638 12.311 13.9296 12.3749 14.1137 12.465C14.2709 12.5421 14.3899 12.6473 14.4865 12.8399C14.5953 13.0571 14.7002 13.8393 14.7002 14.5H16.9002Z" fill="currentColor"/>
</svg>