<svg width="20" height="20" viewBox="0 0 20 20" fill="none" xmlns="http://www.w3.org/2000/svg">
<g clip-path="url(#clip0_23_363)">
<path d="M16.3096 13C16.9168 13.0003 17.4092 13.4933 17.4092 14.1006V17.9004C17.4089 18.5075 16.9166 18.9997 16.3096 19H3.50879C2.90163 18.9998 2.40944 18.5075 2.40918 17.9004V14.1006C2.40918 13.4932 2.90147 13.0002 3.50879 13H16.3096ZM12 15V17H15V15H12ZM16.3096 1C16.9168 1.00031 17.4092 1.49326 17.4092 2.10059V5.90039C17.4089 6.50749 16.9167 7.00067 16.3096 7.00098H3.50879C2.90165 7.00073 2.40944 6.50753 2.40918 5.90039V2.10059C2.40918 1.49323 2.90149 1.00025 3.50879 1H16.3096ZM4 3V5H7V3H4Z" fill="currentColor"/>
<path opacity="0.32" d="M14.591 13.1819C14.591 12.3899 14.4676 11.3423 14.1838 10.7763C13.8888 10.1881 13.4499 9.78744 12.9367 9.53606C12.448 9.29678 11.9235 9.20792 11.4572 9.16985C10.9952 9.13216 10.5029 9.13958 10.091 9.13958C9.16347 9.13958 8.59901 9.08654 8.23162 8.84661C7.97663 8.68001 7.40895 8.36384 7.40895 6.92326H5.40895C5.40895 8.69657 6.08047 9.83077 7.13787 10.5214C8.08298 11.1386 9.26851 11.1396 10.091 11.1396C10.5539 11.1396 10.9369 11.1338 11.2951 11.163C11.6488 11.1919 11.8904 11.25 12.0578 11.332C12.2007 11.402 12.3089 11.4977 12.3967 11.6728C12.4956 11.8702 12.591 12.5813 12.591 13.1819H14.591Z" fill="currentColor"/>
</g>
<defs>
<clipPath id="clip0_23_363">
<rect width="20" height="20" fill="white"/>
</clipPath>
</defs>
</svg>