<svg width="20" height="20" viewBox="0 0 20 20" fill="none" xmlns="http://www.w3.org/2000/svg">
    <path
        d="M5.94507 7.98328C6.1864 8.73388 7.03603 8.99971 8.04956 8.99988C9.06316 8.99976 9.71741 8.73392 9.95874 7.98328H10.2957C10.537 8.734 11.3874 8.99988 12.4011 8.99988C13.4145 8.99959 14.0736 8.7338 14.3149 7.98328H14.6462C14.8876 8.73401 15.738 8.99988 16.7517 8.99988C17.4636 8.99969 18.0943 8.72474 18.491 8.30164L18.4908 16.1625C18.4907 17.2669 17.6368 18.0001 16.5325 18.0003H4.00024C2.89572 18.0003 2.00031 17.1048 2.00024 16.0003L1.95874 8.30066C2.35542 8.72437 2.98636 8.99978 3.69897 8.99988C4.71258 8.99976 5.31128 8.58972 5.50033 7.98328H5.94507ZM5.34793 13.3287C5.25224 13.3287 5.1741 13.4176 5.1741 13.526V15.7388C5.17423 15.8471 5.25232 15.9351 5.34793 15.9351H7.58621C7.68173 15.935 7.75991 15.847 7.76004 15.7388V13.526C7.76004 13.4177 7.68181 13.3288 7.58621 13.3287H5.34793ZM9.22 11.5611C9.12443 11.5613 9.04714 11.6491 9.04714 11.7574V15.7144C9.04714 15.8227 9.12442 15.9115 9.22 15.9117H11.4593C11.5548 15.9115 11.6321 15.8227 11.6321 15.7144V11.7574C11.6321 11.6491 11.5548 11.5613 11.4593 11.5611H9.22ZM13.0878 12.9118C12.9923 12.912 12.9151 13 12.9149 13.1081L12.9151 15.7398C12.9153 15.8479 12.9925 15.936 13.088 15.9361H15.3272C15.4227 15.9359 15.4999 15.8479 15.5001 15.7398L15.4999 13.1081C15.4997 13 15.4225 12.912 15.327 12.9118H13.0878Z"
        fill="currentColor" />
    <path opacity="0.32"
        d="M14.0498 7C13.6531 7.5301 13.0226 7.87489 12.3096 7.875C11.5965 7.875 10.9661 7.53008 10.5693 7H9.69922C9.30257 7.53008 8.67194 7.87487 7.95898 7.875C7.24596 7.875 6.61548 7.53006 6.21875 7H5.34863C4.952 7.53006 4.32133 7.87485 3.6084 7.875C2.4071 7.875 1.43277 6.90146 1.43262 5.7002L3.38574 2.03516C3.52097 1.71121 3.8374 1.5 4.18848 1.5H16.0801C16.4312 1.50016 16.7487 1.71105 16.8838 2.03516L18.835 5.7002C18.8348 6.90137 17.8613 7.87486 16.6602 7.875C15.9471 7.875 15.3166 7.5301 14.9199 7H14.0498ZM7.5 3C7.22386 3 7 3.22386 7 3.5C7 3.77614 7.22386 4 7.5 4H12.5C12.7761 4 13 3.77614 13 3.5C13 3.22386 12.7761 3 12.5 3H7.5Z"
        fill="currentColor" />
</svg>