<svg width="20" height="20" viewBox="0 0 20 20" fill="none" xmlns="http://www.w3.org/2000/svg">
<g clip-path="url(#clip0_23_22)">
<path opacity="0.32" d="M13.7968 5.77095C14.1765 5.77095 14.5562 5.52853 14.5562 5.04368C14.5562 4.68004 14.1765 4.31641 13.7968 4.31641H6.20306C5.82337 4.31641 5.44369 4.68004 5.44369 5.04368C5.44369 5.52853 5.82337 5.77095 6.20306 5.77095H13.7968ZM5.064 7.34671C5.064 7.71035 5.44369 8.07398 5.82337 8.07398H14.3031C14.6828 8.07398 15.0624 7.71035 15.0624 7.34671C15.0624 6.98307 14.6828 6.74065 14.3031 6.74065H5.69681C5.31712 6.74065 5.064 6.98307 5.064 7.34671Z" fill="currentColor"/>
<path d="M1.94316 17.0078C1.99951 17.572 2.47353 18 3.04054 18H17.071C17.6442 18 18.1213 17.5626 18.1701 16.9914C18.3005 15.461 18.5615 12.5323 18.7991 10.6576C18.8864 9.96916 18.3528 9.33187 17.6589 9.32951L2.3639 9.27738C1.66254 9.27498 1.12266 9.92186 1.21944 10.6165C1.48358 12.5125 1.79013 15.4755 1.94316 17.0078ZM8.1015 12.9091H11.8984C12.2781 12.9091 12.6578 13.2727 12.6578 13.6364C12.6578 14 12.2781 14.3636 11.8984 14.3636H8.1015C7.72182 14.3636 7.34213 14 7.34213 13.6364C7.34213 13.2727 7.72182 12.9091 8.1015 12.9091ZM4.53954 4.40186C4.55166 4.33611 4.556 4.2692 4.56315 4.20272C4.61141 3.75351 4.98115 3.33333 5.57025 3.33333H14.5562C15.0275 3.33333 15.3891 3.75351 15.4368 4.20272C15.4438 4.2692 15.4482 4.33611 15.4603 4.40186L16.0954 7.84834C16.1569 8.18202 16.4478 8.42424 16.7871 8.42424V8.42424C17.2136 8.42424 17.542 8.04769 17.4839 7.62516L16.9609 3.81818C16.9609 2.84848 16.0749 2 15.0624 2H5.064C4.08297 2 3.22075 2.79657 3.16811 3.72815C3.16473 3.788 3.16067 3.8479 3.15092 3.90705L2.53889 7.61932C2.46938 8.04094 2.79467 8.42424 3.22198 8.42424V8.42424C3.55595 8.42424 3.84231 8.18582 3.90283 7.85739L4.53954 4.40186Z" fill="currentColor"/>
</g>
<defs>
<clipPath id="clip0_23_22">
<rect width="20" height="20" fill="white"/>
</clipPath>
</defs>
</svg>