<svg width="20" height="20" viewBox="0 0 20 20" fill="none" xmlns="http://www.w3.org/2000/svg">
<g clip-path="url(#clip0_23_300)">
<path d="M10.665 12.335C10.6699 12.3687 10.6815 12.4028 10.704 12.4336L14.7695 18H2.75775C2.33923 17.9999 1.99994 17.6527 1.99994 17.2246V13.1104C1.99994 12.6823 2.33923 12.335 2.75775 12.335H10.665ZM3.77338 13.6396C3.73287 13.6479 3.69338 13.6597 3.65521 13.6758C3.61704 13.692 3.58021 13.7119 3.54584 13.7354C3.51136 13.7589 3.47946 13.7864 3.45013 13.8164C3.42082 13.8464 3.39407 13.8788 3.37103 13.9141C3.34812 13.9492 3.32923 13.9864 3.31342 14.0254C3.2976 14.0645 3.28537 14.105 3.27728 14.1465C3.26922 14.1879 3.26461 14.2302 3.26459 14.2725C3.26459 14.3147 3.26924 14.357 3.27728 14.3984C3.28537 14.44 3.29755 14.4813 3.31342 14.5205C3.32924 14.5595 3.34812 14.5968 3.37103 14.6318C3.39407 14.6671 3.42081 14.6995 3.45013 14.7295C3.47944 14.7595 3.51138 14.786 3.54584 14.8096C3.58032 14.8331 3.6169 14.8529 3.65521 14.8691C3.69347 14.8853 3.73277 14.898 3.77338 14.9062C3.81401 14.9145 3.855 14.9189 3.89642 14.9189C3.93783 14.9189 3.97886 14.9145 4.01947 14.9062C4.06014 14.898 4.1003 14.8854 4.13861 14.8691C4.1767 14.853 4.21272 14.833 4.24701 14.8096C4.28144 14.786 4.31343 14.7594 4.34271 14.7295C4.37203 14.6995 4.39877 14.6671 4.42181 14.6318C4.4448 14.5967 4.46455 14.5596 4.48041 14.5205C4.49627 14.4813 4.50747 14.44 4.51556 14.3984C4.52361 14.357 4.52826 14.3147 4.52826 14.2725C4.52823 14.2302 4.52363 14.1879 4.51556 14.1465C4.50747 14.105 4.49622 14.0644 4.48041 14.0254C4.46456 13.9863 4.44479 13.9493 4.42181 13.9141C4.39877 13.8788 4.37203 13.8464 4.34271 13.8164C4.3134 13.7864 4.28148 13.7589 4.24701 13.7354C4.21274 13.712 4.17667 13.6919 4.13861 13.6758C4.1003 13.6595 4.06014 13.6479 4.01947 13.6396C3.97885 13.6314 3.93784 13.627 3.89642 13.627C3.85499 13.627 3.81402 13.6314 3.77338 13.6396ZM13.6943 11.043H2.75775C2.33922 11.0429 1.99994 10.6956 1.99994 10.2676V7.94238C2.00007 7.51446 2.3393 7.16801 2.75775 7.16797H14.4804L13.6943 11.043ZM3.77338 8.47168C3.73281 8.47993 3.69343 8.49262 3.65521 8.50879C3.61695 8.525 3.58028 8.54484 3.54584 8.56836C3.51144 8.59187 3.4794 8.61853 3.45013 8.64844C3.42085 8.67839 3.39405 8.71088 3.37103 8.74609C3.34799 8.78136 3.32929 8.81922 3.31342 8.8584C3.29756 8.89756 3.28537 8.93792 3.27728 8.97949C3.26921 9.02105 3.26459 9.0631 3.26459 9.10547C3.2646 9.14783 3.2692 9.1899 3.27728 9.23145C3.28537 9.27299 3.29757 9.31341 3.31342 9.35254C3.32922 9.39153 3.34813 9.42877 3.37103 9.46387C3.39407 9.49913 3.42081 9.53251 3.45013 9.5625C3.47936 9.59234 3.5115 9.61911 3.54584 9.64258C3.58024 9.66606 3.617 9.68596 3.65521 9.70215C3.6934 9.71829 3.73285 9.73101 3.77338 9.73926C3.81397 9.7475 3.85504 9.75097 3.89642 9.75098C3.9378 9.75098 3.97889 9.74749 4.01947 9.73926C4.06014 9.73098 4.1003 9.71837 4.13861 9.70215C4.17667 9.686 4.21273 9.66597 4.24701 9.64258C4.28134 9.61912 4.3135 9.59232 4.34271 9.5625C4.37203 9.53251 4.39877 9.49913 4.42181 9.46387C4.44476 9.4287 4.46458 9.39161 4.48041 9.35254C4.49623 9.31345 4.50748 9.27294 4.51556 9.23145C4.52364 9.1899 4.52825 9.14783 4.52826 9.10547C4.52826 9.0631 4.52364 9.02105 4.51556 8.97949C4.50749 8.93804 4.4962 8.89746 4.48041 8.8584C4.46454 8.81922 4.44485 8.78136 4.42181 8.74609C4.3988 8.71089 4.37199 8.67838 4.34271 8.64844C4.31346 8.61855 4.2814 8.59186 4.24701 8.56836C4.21272 8.54495 4.17669 8.52496 4.13861 8.50879C4.1003 8.49256 4.06014 8.47995 4.01947 8.47168C3.97887 8.46344 3.93782 8.45898 3.89642 8.45898C3.85502 8.45899 3.81399 8.46343 3.77338 8.47168ZM16.4003 2C16.8187 2.00026 17.1581 2.34748 17.1581 2.77539V4.40332H15.9413C15.4182 4.40332 14.9673 4.77154 14.8632 5.28418L14.7431 5.875H2.75775C2.33929 5.87496 2.00005 5.52854 1.99994 5.10059V2.77539C1.99994 2.34735 2.33922 2.00004 2.75775 2H16.4003ZM3.77338 3.30469C3.73286 3.31293 3.69339 3.32468 3.65521 3.34082C3.61702 3.357 3.58022 3.37693 3.54584 3.40039C3.51136 3.42395 3.47946 3.45146 3.45013 3.48145C3.42084 3.51141 3.39405 3.54387 3.37103 3.5791C3.34812 3.6142 3.32922 3.65145 3.31342 3.69043C3.29758 3.72953 3.28537 3.77003 3.27728 3.81152C3.26921 3.85303 3.2646 3.89518 3.26459 3.9375C3.26459 3.97982 3.26922 4.02196 3.27728 4.06348C3.28536 4.10502 3.29758 4.14544 3.31342 4.18457C3.32929 4.22376 3.34799 4.26162 3.37103 4.29688C3.39407 4.33212 3.42083 4.36456 3.45013 4.39453C3.47942 4.42446 3.51142 4.45109 3.54584 4.47461C3.5803 4.49815 3.61693 4.51796 3.65521 4.53418C3.69345 4.55035 3.73279 4.56303 3.77338 4.57129C3.814 4.57954 3.85501 4.58398 3.89642 4.58398C3.93783 4.58398 3.97886 4.57954 4.01947 4.57129C4.06014 4.56301 4.1003 4.55041 4.13861 4.53418C4.17669 4.51801 4.21272 4.49803 4.24701 4.47461C4.28142 4.4511 4.31344 4.42444 4.34271 4.39453C4.37201 4.36457 4.39879 4.33211 4.42181 4.29688C4.44485 4.26162 4.46453 4.22376 4.48041 4.18457C4.49618 4.14554 4.5075 4.10491 4.51556 4.06348C4.52362 4.02195 4.52826 3.97983 4.52826 3.9375C4.52824 3.89518 4.52364 3.85303 4.51556 3.81152C4.50747 3.77004 4.49624 3.72952 4.48041 3.69043C4.46457 3.65133 4.44478 3.6143 4.42181 3.5791C4.39878 3.54385 4.37202 3.51142 4.34271 3.48145C4.31339 3.45146 4.28149 3.42395 4.24701 3.40039C4.21274 3.37701 4.17667 3.35697 4.13861 3.34082C4.1003 3.32459 4.06014 3.31296 4.01947 3.30469C3.97883 3.29643 3.93786 3.29199 3.89642 3.29199C3.85498 3.29199 3.81403 3.29642 3.77338 3.30469Z" fill="currentColor"/>
<path opacity="0.32" d="M16.188 17.8909C16.0844 18.0364 15.9154 18.0364 15.8117 17.8909L12.0505 12.5979C11.9468 12.4524 12.0079 12.3316 12.1859 12.3316H14.107C14.2855 12.3316 14.4509 12.1861 14.4779 12.0079L14.5833 11.2869C14.6103 11.1088 14.7757 10.9632 14.9542 10.9632H15.6763C15.8549 10.9632 16.1455 10.9632 16.3234 10.9632L17.0461 10.9632C17.2247 10.9632 17.39 11.1088 17.417 11.2869L17.5225 12.0079C17.5494 12.1861 17.7148 12.3316 17.8934 12.3316H19.8139C19.9924 12.3316 20.053 12.45 19.9493 12.5979L16.188 17.8909ZM15.0897 10.0327C14.9111 10.0327 14.7865 9.88713 14.8134 9.70899L14.8865 9.20416C14.9135 9.02601 15.0789 8.88048 15.2574 8.88048H15.6763C15.8549 8.88048 16.1455 8.88048 16.3234 8.88048H16.7423C16.9209 8.88048 17.0862 9.02601 17.1132 9.20416L17.1863 9.70899C17.2133 9.88713 17.088 10.0327 16.9101 10.0327H16.3234C16.1449 10.0327 15.8543 10.0327 15.6763 10.0327H15.0897ZM15.6871 5.86293C15.5157 5.86293 15.3965 5.7174 15.4216 5.53926L15.454 5.32186C15.481 5.14372 15.6128 5 15.75 5C15.8872 5 16.1119 5 16.2491 5C16.3864 5 16.52 5.14553 16.5452 5.32368L16.5775 5.54107C16.6045 5.71921 16.4846 5.86293 16.3121 5.86293C16.1383 5.86293 15.8603 5.86293 15.6871 5.86293ZM15.3947 7.9475C15.2161 7.9475 15.0915 7.80196 15.1184 7.62382L15.1915 7.11899C15.2185 6.94084 15.3839 6.79531 15.5624 6.79531H15.6763C15.8549 6.79531 16.1455 6.79531 16.3234 6.79531H16.4373C16.6159 6.79531 16.7812 6.94084 16.8082 7.11899L16.8813 7.62382C16.9083 7.80196 16.783 7.9475 16.6051 7.9475H16.3234C16.1449 7.9475 15.8543 7.9475 15.6763 7.9475H15.3947Z" fill="currentColor"/>
</g>
<defs>
<clipPath id="clip0_23_300">
<rect width="20" height="20" fill="white"/>
</clipPath>
</defs>
</svg>