<svg width="20" height="19" viewBox="0 0 20 19" fill="currentColor" xmlns="http://www.w3.org/2000/svg" class="appforge-sider-icon flex-none text-[20px]"><path opacity="0.32" d="M18.1719 11.4626C19.002 11.6342 19.7549 12.0778 20.3154 12.7253L20.2803 12.7517C19.9745 13.0026 19.8998 13.446 20.1055 13.7869C20.3113 14.1278 20.7334 14.2599 21.0908 14.0945C21.2243 14.5012 21.2925 14.9273 21.292 15.3562C21.2924 15.7855 21.2244 16.2127 21.0908 16.6199C20.7266 16.4536 20.2985 16.5949 20.0986 16.947C19.8988 17.2993 19.9924 17.7489 20.3154 17.988C19.755 18.6354 19.0018 19.078 18.1719 19.2498C18.1318 18.8441 17.7963 18.5352 17.3965 18.5349C16.9965 18.5349 16.6613 18.8439 16.6211 19.2498C15.7908 19.0781 15.0381 18.6348 14.4775 17.9871C14.8041 17.7496 14.9 17.2973 14.6992 16.9431C14.4984 16.5889 14.066 16.4487 13.7012 16.6189C13.5675 16.212 13.4995 15.7853 13.5 15.3562C13.5 14.9145 13.5707 14.4898 13.7012 14.0925C14.0654 14.2586 14.4945 14.1176 14.6943 13.7654C14.8939 13.4132 14.8003 12.9634 14.4775 12.7244C15.0382 12.077 15.7911 11.6343 16.6211 11.4626C16.6611 11.8685 16.9964 12.1774 17.3965 12.1775C17.7963 12.1772 18.1318 11.8684 18.1719 11.4626ZM17.3965 14.1638C16.751 14.1638 16.2276 14.698 16.2275 15.3562C16.2277 16.0142 16.7511 16.5476 17.3965 16.5476C18.0415 16.5472 18.5643 16.014 18.5645 15.3562C18.5644 14.6983 18.0416 14.1642 17.3965 14.1638ZM11.3467 1.45776C16.5656 1.45776 19.7756 2.52692 20.2715 4.13062C19.2798 5.73437 16.5657 6.80347 11.3467 6.80347C6.12771 6.80346 2.9177 5.73437 2.42188 4.13062C2.91777 2.5269 6.12778 1.45777 11.3467 1.45776Z" fill="currentColor"></path><path d="M2.42188 13.7224C2.99601 15.4157 6.51342 16.3718 11.2598 16.3718C11.6603 16.3718 12.0486 16.362 12.4248 16.3484C12.687 17.8556 13.5349 19.1397 14.7051 19.9148C13.713 20.0651 12.5926 20.158 11.3467 20.158C5.50833 20.158 2.42188 18.3728 2.42188 17.6912V13.7224ZM2.46289 8.90112C3.03715 10.5943 6.55455 11.5505 11.3008 11.5505C12.2435 11.5505 13.119 11.5105 13.9258 11.4373C12.958 12.4052 12.3493 13.7843 12.3389 15.3171C12.0304 15.329 11.7134 15.3367 11.3877 15.3367C5.54947 15.3367 2.46303 13.5515 2.46289 12.8699V8.90112ZM20.3125 11.2107C19.83 10.838 19.279 10.4952 18.6797 10.2732C19.441 9.88583 19.9891 9.42407 20.3125 8.90112V11.2107ZM20.2715 7.87964C20.2715 8.56124 17.185 10.5662 11.3467 10.5662C5.50836 10.5662 2.42188 8.78096 2.42188 8.09937V4.13062C2.99591 5.82392 6.51333 6.78003 11.2598 6.78003C16.1839 6.78 19.2798 5.73432 20.2715 4.13062V7.87964Z" fill="currentColor"></path></svg>