<svg width="20" height="19" viewBox="0 0 20 19" fill="currentColor" xmlns="http://www.w3.org/2000/svg" class="appforge-sider-icon flex-none text-[20px]"><g clip-path="url(#clip0_330699_401)"><path d="M12.5657 13.5681C12.5724 13.5937 12.5826 13.6197 12.5999 13.6433L17.0959 19.7996H3.88403C3.4236 19.7996 3.05005 19.4179 3.05005 18.947V14.4216C3.05005 13.9508 3.4236 13.5681 3.88403 13.5681H12.5657ZM5.00024 15.0037C4.95569 15.0128 4.91234 15.0259 4.87036 15.0437C4.82826 15.0615 4.78814 15.0832 4.75024 15.1091C4.71232 15.1351 4.67703 15.165 4.64478 15.198C4.61265 15.2309 4.5841 15.2668 4.55884 15.3054C4.53349 15.3442 4.51184 15.3854 4.49438 15.4285C4.47701 15.4714 4.4642 15.5157 4.45532 15.5613C4.44643 15.607 4.44166 15.6534 4.44165 15.7C4.44165 15.7466 4.44642 15.7929 4.45532 15.8386C4.46422 15.8844 4.47693 15.9293 4.49438 15.9724C4.51179 16.0153 4.5336 16.0558 4.55884 16.0945C4.58418 16.1333 4.61252 16.1699 4.64478 16.2029C4.67699 16.2358 4.71237 16.2649 4.75024 16.2908C4.78813 16.3167 4.82827 16.3384 4.87036 16.3562C4.91238 16.374 4.95565 16.3881 5.00024 16.3972C5.0449 16.4063 5.09046 16.4109 5.13599 16.4109C5.18157 16.4109 5.22702 16.4063 5.27173 16.3972C5.31647 16.3881 5.36044 16.374 5.40259 16.3562C5.44454 16.3384 5.48493 16.3166 5.52271 16.2908C5.56036 16.265 5.59514 16.2356 5.6272 16.2029C5.65945 16.1699 5.68877 16.1333 5.71411 16.0945C5.73931 16.0559 5.76117 16.0153 5.77856 15.9724C5.79601 15.9293 5.80872 15.8844 5.81763 15.8386C5.82651 15.7929 5.8313 15.7466 5.8313 15.7C5.83129 15.6534 5.82652 15.607 5.81763 15.5613C5.80875 15.5157 5.79592 15.4714 5.77856 15.4285C5.76113 15.3854 5.73941 15.3442 5.71411 15.3054C5.68877 15.2666 5.65945 15.231 5.6272 15.198C5.59501 15.1651 5.56055 15.135 5.52271 15.1091C5.4849 15.0833 5.44458 15.0615 5.40259 15.0437C5.36045 15.0258 5.31646 15.0128 5.27173 15.0037C5.22699 14.9946 5.18161 14.99 5.13599 14.99C5.09046 14.99 5.0449 14.9946 5.00024 15.0037ZM15.9143 12.1472H3.88403C3.42361 12.1472 3.05006 11.7656 3.05005 11.2947V8.73706C3.05005 8.26618 3.4236 7.88452 3.88403 7.88452H16.7786L15.9143 12.1472ZM5.00024 9.31909C4.9557 9.32819 4.91233 9.34136 4.87036 9.35913C4.8283 9.37695 4.78811 9.39871 4.75024 9.42456C4.71232 9.45048 4.67703 9.48044 4.64478 9.51343C4.61264 9.54631 4.58411 9.58221 4.55884 9.62085C4.53349 9.65964 4.51184 9.7008 4.49438 9.7439C4.477 9.78683 4.46422 9.83115 4.45532 9.87671C4.44645 9.92233 4.44168 9.96887 4.44165 10.0154C4.44165 10.0619 4.44646 10.1084 4.45532 10.1541C4.46422 10.1998 4.47693 10.2447 4.49438 10.2878C4.51183 10.3309 4.53352 10.3721 4.55884 10.4109C4.58411 10.4495 4.61264 10.4854 4.64478 10.5183C4.67698 10.5512 4.71238 10.5803 4.75024 10.6062C4.78818 10.6321 4.82822 10.6548 4.87036 10.6726C4.91233 10.6904 4.9557 10.7036 5.00024 10.7126C5.04491 10.7217 5.09045 10.7263 5.13599 10.7263C5.1816 10.7263 5.227 10.7217 5.27173 10.7126C5.31628 10.7036 5.35964 10.6903 5.40161 10.6726C5.4437 10.6548 5.48385 10.6321 5.52173 10.6062C5.55959 10.5803 5.595 10.5512 5.6272 10.5183C5.65941 10.4854 5.68879 10.4496 5.71411 10.4109C5.73945 10.3721 5.7611 10.3309 5.77856 10.2878C5.79601 10.2448 5.80872 10.1998 5.81763 10.1541C5.82648 10.1084 5.8313 10.0619 5.8313 10.0154C5.83127 9.96887 5.8265 9.92233 5.81763 9.87671C5.80872 9.83112 5.79499 9.78686 5.77759 9.7439C5.76014 9.70086 5.73942 9.65959 5.71411 9.62085C5.68877 9.58207 5.65944 9.5464 5.6272 9.51343C5.59498 9.48049 5.55961 9.45045 5.52173 9.42456C5.48396 9.39881 5.44356 9.3769 5.40161 9.35913C5.35962 9.34138 5.31629 9.32816 5.27173 9.31909C5.22699 9.30999 5.1816 9.30542 5.13599 9.30542C5.09045 9.30544 5.04491 9.31001 5.00024 9.31909ZM18.8899 2.19995C19.3503 2.19995 19.7238 2.58164 19.7239 3.05249V4.84351H18.2952C17.7721 4.84358 17.3211 5.21177 17.217 5.72437L17.0676 6.46265H3.88403C3.4236 6.46265 3.05005 6.08099 3.05005 5.61011V3.05249C3.05008 2.58164 3.42362 2.19995 3.88403 2.19995H18.8899ZM5.00024 3.63452C4.95565 3.64362 4.91238 3.65774 4.87036 3.67554C4.82828 3.69338 4.78813 3.71509 4.75024 3.74097C4.71237 3.76686 4.67699 3.79591 4.64478 3.82886C4.61265 3.86171 4.58411 3.89766 4.55884 3.93628C4.53354 3.975 4.51182 4.01631 4.49438 4.05933C4.47693 4.10243 4.46422 4.14736 4.45532 4.19312C4.44644 4.23883 4.44165 4.28518 4.44165 4.33179C4.44167 4.37834 4.44644 4.4248 4.45532 4.47046C4.46421 4.51603 4.477 4.56034 4.49438 4.60327C4.51184 4.64638 4.53349 4.68753 4.55884 4.72632C4.58411 4.76497 4.61264 4.80085 4.64478 4.83374C4.67703 4.86673 4.71232 4.89669 4.75024 4.92261C4.78813 4.94848 4.82828 4.97021 4.87036 4.98804C4.91234 5.00581 4.95569 5.01897 5.00024 5.02808C5.04491 5.03716 5.09045 5.04173 5.13599 5.04175C5.18161 5.04175 5.22699 5.03718 5.27173 5.02808C5.3163 5.019 5.35961 5.00579 5.40161 4.98804C5.44358 4.97026 5.48394 4.94838 5.52173 4.92261C5.55964 4.8967 5.59496 4.8667 5.6272 4.83374C5.65945 4.80075 5.68877 4.76511 5.71411 4.72632C5.73944 4.68755 5.76111 4.64636 5.77856 4.60327C5.79592 4.56036 5.80874 4.516 5.81763 4.47046C5.82651 4.4248 5.83128 4.37834 5.8313 4.33179C5.8313 4.28521 5.8265 4.2388 5.81763 4.19312C5.80872 4.14736 5.79504 4.10243 5.77759 4.05933C5.76016 4.01637 5.73937 3.97495 5.71411 3.93628C5.6888 3.89758 5.65939 3.86178 5.6272 3.82886C5.59501 3.79598 5.55956 3.76682 5.52173 3.74097C5.48386 3.71512 5.44368 3.69336 5.40161 3.67554C5.35954 3.65773 5.31638 3.64361 5.27173 3.63452C5.22701 3.62543 5.18159 3.62085 5.13599 3.62085C5.09045 3.62087 5.04491 3.62544 5.00024 3.63452Z" fill="currentColor"></path><path opacity="0.32" d="M18.657 19.6799C18.543 19.84 18.3571 19.84 18.2431 19.6799L14.1057 13.8577C13.9916 13.6976 14.0589 13.5648 14.2546 13.5648H16.3678C16.5642 13.5648 16.7462 13.4047 16.7758 13.2087L16.8918 12.4156C16.9215 12.2196 17.1034 12.0596 17.2998 12.0596H18.0941C18.2905 12.0596 18.6102 12.0596 18.806 12.0596L19.6009 12.0596C19.7973 12.0596 19.9792 12.2196 20.0089 12.4156L20.1249 13.2087C20.1545 13.4047 20.3365 13.5648 20.5329 13.5648H22.6454C22.8418 13.5648 22.9084 13.695 22.7944 13.8577L18.657 19.6799ZM17.4488 11.0359C17.2524 11.0359 17.1153 10.8758 17.1449 10.6799L17.2254 10.1246C17.255 9.92861 17.4369 9.76853 17.6334 9.76853H18.0941C18.2905 9.76853 18.6102 9.76853 18.806 9.76853H19.2667C19.4631 9.76853 19.645 9.92861 19.6747 10.1246L19.7551 10.6799C19.7848 10.8758 19.647 11.0359 19.4513 11.0359H18.806C18.6095 11.0359 18.2899 11.0359 18.0941 11.0359H17.4488ZM18.106 6.44923C17.9174 6.44923 17.7863 6.28914 17.814 6.09318L17.8496 5.85405C17.8792 5.65809 18.0242 5.5 18.1752 5.5C18.3261 5.5 18.5733 5.5 18.7242 5.5C18.8752 5.5 19.0222 5.66009 19.0498 5.85604L19.0854 6.09518C19.1151 6.29113 18.9833 6.44923 18.7934 6.44923C18.6023 6.44923 18.2964 6.44923 18.106 6.44923ZM17.7843 8.74225C17.5879 8.74225 17.4508 8.58216 17.4804 8.3862L17.5609 7.83088C17.5905 7.63493 17.7724 7.47484 17.9689 7.47484H18.0941C18.2905 7.47484 18.6102 7.47484 18.806 7.47484H18.9312C19.1276 7.47484 19.3095 7.63493 19.3392 7.83088L19.4196 8.3862C19.4493 8.58216 19.3115 8.74225 19.1158 8.74225H18.806C18.6095 8.74225 18.2899 8.74225 18.0941 8.74225H17.7843Z" fill="currentColor"></path></g><defs><clipPath id="clip0_330699_401"><rect width="22" height="22" fill="white" transform="translate(0.850098)"></rect></clipPath></defs></svg>