<svg width="20" height="20" viewBox="0 0 20 20" fill="none" xmlns="http://www.w3.org/2000/svg">
<g clip-path="url(#clip0_23_385)">
<path opacity="0.32" d="M15.7465 10.4206C16.5012 10.5765 17.1861 10.9803 17.6957 11.569L17.6644 11.5925C17.3861 11.8205 17.3172 12.2238 17.5043 12.5339C17.6914 12.8438 18.0758 12.9637 18.4008 12.8132C18.5221 13.1827 18.5837 13.57 18.5834 13.9597C18.5838 14.3498 18.5221 14.7381 18.4008 15.1081C18.0697 14.9571 17.6802 15.086 17.4984 15.4059C17.3167 15.7262 17.402 16.1349 17.6957 16.3522C17.1861 16.9408 16.5011 17.3436 15.7465 17.4997C15.71 17.1309 15.4049 16.8505 15.0414 16.8503C14.6779 16.8505 14.3738 17.131 14.3373 17.4997C13.5824 17.3436 12.8977 16.9402 12.3881 16.3513C12.6849 16.1354 12.7725 15.725 12.5902 15.403C12.4076 15.081 12.0147 14.9534 11.683 15.1081C11.5615 14.7381 11.4999 14.3498 11.5004 13.9597C11.5004 13.5582 11.5644 13.1722 11.683 12.8112C12.014 12.9622 12.4036 12.8343 12.5853 12.5143C12.7668 12.1941 12.6815 11.7854 12.3881 11.5681C12.8977 10.9795 13.5826 10.5766 14.3373 10.4206C14.3737 10.7894 14.6779 11.0707 15.0414 11.071C15.405 11.0709 15.71 10.7895 15.7465 10.4206ZM15.0414 12.8766C14.4548 12.8768 13.979 13.3615 13.9789 13.9597C13.9789 14.5579 14.4547 15.0435 15.0414 15.0436C15.628 15.0435 16.1039 14.5579 16.1039 13.9597C16.1038 13.3615 15.6279 12.8768 15.0414 12.8766ZM9.54236 1.32489C14.2869 1.3249 17.2049 2.2976 17.6556 3.75555C16.7539 5.21329 14.2865 6.18523 9.54236 6.18524C4.79833 6.18524 1.88032 5.21325 1.42908 3.75555C1.87983 2.29759 4.7978 1.32489 9.54236 1.32489Z" fill="currentColor"/>
<path d="M1.42908 12.4744C1.95093 14.0138 5.14832 14.8836 9.46326 14.8836C9.82719 14.8836 10.18 14.8744 10.5219 14.8621C10.7602 16.2326 11.532 17.3996 12.5961 18.1043C11.6941 18.2409 10.6753 18.325 9.54236 18.325C4.23477 18.325 1.42908 16.7024 1.42908 16.0828V12.4744ZM1.46619 8.09158C1.98804 9.63095 5.18543 10.4998 9.50037 10.4998C10.3575 10.4998 11.1536 10.4638 11.8871 10.3972C11.0072 11.2772 10.4532 12.531 10.4437 13.9246C10.1634 13.9354 9.87536 13.9422 9.57947 13.9422C4.27219 13.9422 1.46652 12.3197 1.46619 11.7V8.09158ZM17.6927 10.1912C17.254 9.85233 16.7525 9.54137 16.2074 9.33963C16.9001 8.98741 17.3986 8.56727 17.6927 8.09158V10.1912ZM17.6556 7.16385C17.6545 7.78385 14.8488 9.60524 9.54236 9.60526C4.23477 9.60526 1.42908 7.9827 1.42908 7.36307V3.75467C1.95093 5.29404 5.14832 6.16385 9.46326 6.16385C13.9397 6.16382 16.7542 5.21261 17.6556 3.75467V7.16385Z" fill="currentColor"/>
</g>
<defs>
<clipPath id="clip0_23_385">
<rect width="20" height="20" fill="white"/>
</clipPath>
</defs>
</svg>