<svg width="20" height="20" viewBox="0 0 20 20" fill="none" xmlns="http://www.w3.org/2000/svg">
<path fill-rule="evenodd" clip-rule="evenodd" d="M1.66667 12.8734C1.66692 13.3643 2.52998 13.8085 3.92448 14.1302C5.46408 14.4853 7.49302 14.6579 9.51042 14.6498C9.12587 15.4447 9.096 16.3671 9.42155 17.181L9.26921 17.3334L9.27995 17.3441L9.02507 17.6127L9.02605 17.6136C8.72895 17.9235 8.70189 18.4004 8.94402 18.7406C7.11754 18.7172 5.31994 18.5468 3.92448 18.225C2.52973 17.9032 1.66669 17.4582 1.66667 16.9672V12.8734ZM3.62761 15.2484C3.18975 15.2484 2.83465 15.6035 2.83464 16.0414C2.83473 16.4792 3.1898 16.8344 3.62761 16.8344C4.06527 16.8342 4.42049 16.4791 4.42058 16.0414C4.42057 15.6036 4.06532 15.2486 3.62761 15.2484Z" fill="currentColor"/>
<path fill-rule="evenodd" clip-rule="evenodd" d="M1.66667 8.2533C1.66697 8.74421 2.53001 9.18839 3.92448 9.51013C6.77185 10.1668 11.2918 10.2003 14.32 9.61462C14.2796 9.64749 14.238 9.6801 14.1989 9.71521L14.0807 9.82556L12.8717 11.0297C12.6821 11.2185 12.6112 11.4578 12.611 11.6586C12.611 11.844 12.6723 12.0615 12.8307 12.2426L12.7477 12.3148L12.5173 12.5443C12.3725 12.4234 12.1759 12.3369 11.9469 12.3363C11.6643 12.3363 11.4673 12.4742 11.402 12.5228L11.3561 12.557L10.2585 13.6537C8.003 13.7134 5.65473 13.5449 3.92448 13.1459C2.52977 12.8241 1.66674 12.3791 1.66667 11.8881V8.2533ZM3.62761 10.2953C3.18975 10.2953 2.83464 10.6504 2.83464 11.0883C2.83499 11.5258 3.18996 11.8802 3.62761 11.8802C4.06511 11.8801 4.42023 11.5257 4.42058 11.0883C4.42058 10.6505 4.06532 10.2955 3.62761 10.2953Z" fill="currentColor"/>
<path fill-rule="evenodd" clip-rule="evenodd" d="M17.0827 7.52771C17.0825 8.01859 16.2191 8.46378 14.8249 8.78552C11.8149 9.47981 6.93469 9.47974 3.92448 8.78552C2.5299 8.46376 1.66689 8.01866 1.66667 7.52771V3.89294C1.66697 4.38386 2.53001 4.82804 3.92448 5.14978C6.93471 5.84403 11.8148 5.8441 14.8249 5.14978C16.219 4.82805 17.0824 4.38378 17.0827 3.89294V7.52771ZM3.62761 5.93396C3.18975 5.93396 2.83464 6.28907 2.83464 6.72693C2.83496 7.16452 3.18994 7.51892 3.62761 7.51892C4.06511 7.51872 4.42026 7.1644 4.42058 6.72693C4.42058 6.28919 4.0653 5.93416 3.62761 5.93396Z" fill="currentColor"/>
<path d="M17.0827 8.99939C16.9018 8.95426 16.7174 8.92526 16.5319 8.91248C16.8863 8.70836 17.0825 8.48662 17.0827 8.2533V8.99939Z" fill="currentColor"/>
<g opacity="0.32">
<path d="M11.1055 18.2637L10.2812 19.1358C10.257 19.1538 10.2323 19.1659 10.208 19.166C10.1777 19.166 10.153 19.1538 10.1348 19.1358L9.61035 18.6123C9.57377 18.5759 9.57378 18.5101 9.61035 18.4736L10.4404 17.6016L11.1055 18.2637Z" fill="currentColor"/>
<path d="M12.0771 13.1856C12.1072 13.1857 12.1313 13.1979 12.1494 13.2158L12.6807 13.751L12.6982 13.7334L13.2891 14.3213L13.2939 14.3252L13.2793 14.3399L14.3965 15.4522L14.4111 15.4375L14.4072 15.4336L15.2158 14.6279C15.2524 14.5916 15.3198 14.5917 15.3564 14.6279L15.8086 15.0781C15.8447 15.1146 15.8448 15.1814 15.8086 15.2178L14.999 16.0234L15.0029 16.0274L14.9883 16.041L15.5195 16.5703C15.5559 16.6068 15.556 16.6736 15.5195 16.71L14.2559 17.9678C13.7737 18.4475 13.1386 18.6904 12.5039 18.6904C12.0158 18.6904 11.5273 18.5449 11.1123 18.2656L11.1104 18.2676L10.4443 17.6055L10.4463 17.6035C9.79309 16.6435 9.89144 15.3243 10.7461 14.4736L12.0039 13.2158C12.0282 13.1978 12.0529 13.1856 12.0771 13.1856Z" fill="currentColor"/>
<path d="M18.9521 9.16603C18.9825 9.16611 19.0071 9.17817 19.0254 9.1963L19.5508 9.71876C19.5931 9.75517 19.5931 9.82197 19.5508 9.85841L18.7432 10.6611L18.748 10.6651L18.7412 10.6709C19.3982 11.637 19.2999 12.9642 18.4404 13.8203L17.1689 15.0801C17.1444 15.0984 17.1193 15.1104 17.0947 15.1104C17.0643 15.1102 17.0398 15.0983 17.0215 15.0801L13.6377 11.7109C13.601 11.6744 13.6012 11.6071 13.6377 11.5703L14.9092 10.3047C15.3943 9.8217 16.0332 9.57618 16.6719 9.57618C17.1017 9.57624 17.5317 9.6888 17.9121 9.90528L18.0723 10.0049L18.8789 9.1963C18.9032 9.17821 18.9279 9.16611 18.9521 9.16603Z" fill="currentColor"/>
<path d="M13.5068 12.9209C13.5435 12.8846 13.6109 12.8845 13.6475 12.9209L14.0986 13.3701C14.1351 13.4066 14.1351 13.4733 14.0986 13.5098L13.2891 14.3213L12.6943 13.7295L13.5068 12.9209Z" fill="currentColor"/>
<path d="M4.18945 1.89747C7.05338 1.20084 11.6976 1.20084 14.5615 1.89747C17.4249 2.59407 17.4249 3.72333 14.5615 4.41993C11.6976 5.11656 7.05338 5.11656 4.18945 4.41993C1.3262 3.72333 1.32615 2.59407 4.18945 1.89747Z" fill="currentColor"/>
</g>
</svg>
