<svg width="23" height="22" viewBox="0 0 23 22" fill="none" xmlns="http://www.w3.org/2000/svg">
<path opacity="0.32" d="M16.0265 6.34805C16.4442 6.34805 16.8618 6.08138 16.8618 5.54805C16.8618 5.14805 16.4442 4.74805 16.0265 4.74805H7.67339C7.25573 4.74805 6.83807 5.14805 6.83807 5.54805C6.83807 6.08138 7.25573 6.34805 7.67339 6.34805H16.0265ZM6.42042 8.08138C6.42042 8.48138 6.83807 8.88138 7.25573 8.88138H16.5834C17.001 8.88138 17.4187 8.48138 17.4187 8.08138C17.4187 7.68138 17.001 7.41471 16.5834 7.41471H7.11651C6.69886 7.41471 6.42042 7.68138 6.42042 8.08138Z" fill="#6E7B8D"/>
<path d="M2.99729 18.8063C3.05349 19.3705 3.52765 19.8 4.09467 19.8H19.7296C20.3029 19.8 20.78 19.362 20.8286 18.7908C20.972 17.1029 21.2749 13.6863 21.546 11.5913C21.6351 10.9031 21.1028 10.2652 20.4089 10.2629L3.31397 10.2046C2.6126 10.2022 2.07404 10.8493 2.17255 11.5437C2.47294 13.6612 2.829 17.1166 2.99729 18.8063ZM9.76172 14.2H13.9383C14.3559 14.2 14.7736 14.6 14.7736 15C14.7736 15.4 14.3559 15.8 13.9383 15.8H9.76172C9.34407 15.8 8.92641 15.4 8.92641 15C8.92641 14.6 9.34407 14.2 9.76172 14.2ZM5.84539 4.83212C5.8575 4.76637 5.862 4.69948 5.8685 4.63294C5.91715 4.13507 6.32497 3.66662 6.97735 3.66662H16.8619C17.3838 3.66662 17.7834 4.13507 17.8315 4.63294C17.838 4.69948 17.8425 4.76637 17.8546 4.83212L18.555 8.63313C18.6226 9.00017 18.9427 9.26662 19.3159 9.26662V9.26662C19.785 9.26662 20.1462 8.85241 20.0824 8.38762L19.507 4.19995C19.507 3.13328 18.5325 2.19995 17.4188 2.19995H6.42047C5.33819 2.19995 4.38737 3.08129 4.33451 4.10988C4.33143 4.16975 4.32729 4.22967 4.31754 4.28882L3.64285 8.3812C3.56639 8.84498 3.9242 9.26662 4.39425 9.26662V9.26662C4.76161 9.26662 5.07661 9.00436 5.14318 8.64308L5.84539 4.83212Z" fill="#6E7B8D"/>
</svg>
