<svg width="20" height="20" viewBox="0 0 20 20" fill="none" xmlns="http://www.w3.org/2000/svg">
    <g clip-path="url(#clip0_6537_42289)">
        <path
            d="M16.4004 12.335C16.8188 12.3352 17.1582 12.6824 17.1582 13.1104V17.2246C17.1582 17.6525 16.8188 17.9998 16.4004 18H2.75781C2.33929 17.9999 2 17.6527 2 17.2246V13.1104C2 12.6823 2.33929 12.335 2.75781 12.335H16.4004ZM3.77344 13.6396C3.73293 13.6479 3.69344 13.6597 3.65527 13.6758C3.6171 13.692 3.58027 13.7119 3.5459 13.7354C3.51142 13.7589 3.47952 13.7864 3.4502 13.8164C3.42088 13.8464 3.39413 13.8788 3.37109 13.9141C3.34818 13.9492 3.32929 13.9864 3.31348 14.0254C3.29766 14.0645 3.28543 14.105 3.27734 14.1465C3.26928 14.1879 3.26467 14.2302 3.26465 14.2725C3.26465 14.3147 3.2693 14.357 3.27734 14.3984C3.28543 14.44 3.29761 14.4813 3.31348 14.5205C3.3293 14.5595 3.34818 14.5968 3.37109 14.6318C3.39413 14.6671 3.42087 14.6995 3.4502 14.7295C3.4795 14.7595 3.51145 14.786 3.5459 14.8096C3.58038 14.8331 3.61696 14.8529 3.65527 14.8691C3.69353 14.8853 3.73283 14.898 3.77344 14.9062C3.81407 14.9145 3.85506 14.9189 3.89648 14.9189C3.93789 14.9189 3.97892 14.9145 4.01953 14.9062C4.0602 14.898 4.10036 14.8854 4.13867 14.8691C4.17676 14.853 4.21278 14.833 4.24707 14.8096C4.2815 14.786 4.31349 14.7594 4.34277 14.7295C4.3721 14.6995 4.39883 14.6671 4.42188 14.6318C4.44486 14.5967 4.46461 14.5596 4.48047 14.5205C4.49633 14.4813 4.50753 14.44 4.51562 14.3984C4.52367 14.357 4.52832 14.3147 4.52832 14.2725C4.52829 14.2302 4.52369 14.1879 4.51562 14.1465C4.50753 14.105 4.49628 14.0644 4.48047 14.0254C4.46462 13.9863 4.44486 13.9493 4.42188 13.9141C4.39883 13.8788 4.3721 13.8464 4.34277 13.8164C4.31346 13.7864 4.28154 13.7589 4.24707 13.7354C4.2128 13.712 4.17673 13.6919 4.13867 13.6758C4.10036 13.6595 4.0602 13.6479 4.01953 13.6396C3.97891 13.6314 3.9379 13.627 3.89648 13.627C3.85505 13.627 3.81408 13.6314 3.77344 13.6396ZM16.4004 7.16797C16.8187 7.16823 17.1581 7.51459 17.1582 7.94238V10.2676C17.1582 10.6955 16.8187 11.0427 16.4004 11.043H2.75781C2.33928 11.0429 2 10.6956 2 10.2676V7.94238C2.00014 7.51446 2.33936 7.16801 2.75781 7.16797H16.4004ZM3.77344 8.47168C3.73287 8.47993 3.69349 8.49262 3.65527 8.50879C3.61701 8.525 3.58034 8.54484 3.5459 8.56836C3.5115 8.59187 3.47946 8.61853 3.4502 8.64844C3.42091 8.67839 3.39411 8.71088 3.37109 8.74609C3.34805 8.78136 3.32935 8.81922 3.31348 8.8584C3.29762 8.89756 3.28543 8.93792 3.27734 8.97949C3.26927 9.02105 3.26465 9.0631 3.26465 9.10547C3.26466 9.14783 3.26926 9.1899 3.27734 9.23145C3.28543 9.27298 3.29763 9.31341 3.31348 9.35254C3.32928 9.39153 3.34819 9.42877 3.37109 9.46387C3.39413 9.49913 3.42087 9.53251 3.4502 9.5625C3.47942 9.59234 3.51156 9.61911 3.5459 9.64258C3.5803 9.66606 3.61706 9.68596 3.65527 9.70215C3.69346 9.71829 3.73291 9.73101 3.77344 9.73926C3.81403 9.7475 3.8551 9.75097 3.89648 9.75098C3.93786 9.75098 3.97895 9.74749 4.01953 9.73926C4.0602 9.73098 4.10036 9.71837 4.13867 9.70215C4.17673 9.686 4.2128 9.66597 4.24707 9.64258C4.2814 9.61912 4.31356 9.59232 4.34277 9.5625C4.3721 9.53251 4.39883 9.49913 4.42188 9.46387C4.44482 9.4287 4.46464 9.39161 4.48047 9.35254C4.49629 9.31345 4.50754 9.27294 4.51562 9.23145C4.52371 9.1899 4.52831 9.14783 4.52832 9.10547C4.52832 9.0631 4.5237 9.02105 4.51562 8.97949C4.50756 8.93804 4.49626 8.89746 4.48047 8.8584C4.4646 8.81922 4.44491 8.78136 4.42188 8.74609C4.39886 8.71089 4.37205 8.67838 4.34277 8.64844C4.31352 8.61855 4.28146 8.59186 4.24707 8.56836C4.21278 8.54495 4.17675 8.52496 4.13867 8.50879C4.10036 8.49256 4.0602 8.47995 4.01953 8.47168C3.97893 8.46344 3.93788 8.45898 3.89648 8.45898C3.85508 8.45899 3.81405 8.46343 3.77344 8.47168Z"
            fill="currentColor" />
        <path opacity="0.32"
            d="M16.4004 2C16.8187 2.00026 17.1582 2.34748 17.1582 2.77539V5.10059C17.1581 5.52841 16.8187 5.87474 16.4004 5.875H2.75781C2.33935 5.87496 2.00012 5.52854 2 5.10059V2.77539C2 2.34735 2.33928 2.00004 2.75781 2H16.4004ZM3.77344 3.30469C3.73292 3.31293 3.69345 3.32468 3.65527 3.34082C3.61708 3.357 3.58028 3.37693 3.5459 3.40039C3.51142 3.42395 3.47952 3.45146 3.4502 3.48145C3.4209 3.51141 3.39412 3.54387 3.37109 3.5791C3.34818 3.6142 3.32929 3.65145 3.31348 3.69043C3.29764 3.72953 3.28543 3.77003 3.27734 3.81152C3.26927 3.85303 3.26467 3.89518 3.26465 3.9375C3.26465 3.97982 3.26929 4.02196 3.27734 4.06348C3.28542 4.10502 3.29764 4.14544 3.31348 4.18457C3.32935 4.22376 3.34805 4.26162 3.37109 4.29688C3.39413 4.33212 3.42089 4.36456 3.4502 4.39453C3.47948 4.42446 3.51148 4.45109 3.5459 4.47461C3.58036 4.49815 3.61699 4.51796 3.65527 4.53418C3.69351 4.55035 3.73285 4.56303 3.77344 4.57129C3.81406 4.57954 3.85507 4.58398 3.89648 4.58398C3.93789 4.58398 3.97892 4.57954 4.01953 4.57129C4.0602 4.56301 4.10036 4.55041 4.13867 4.53418C4.17675 4.51801 4.21278 4.49803 4.24707 4.47461C4.28148 4.4511 4.3135 4.42444 4.34277 4.39453C4.37207 4.36457 4.39885 4.33211 4.42188 4.29688C4.44491 4.26162 4.46459 4.22376 4.48047 4.18457C4.49624 4.14554 4.50756 4.10491 4.51562 4.06348C4.52369 4.02195 4.52832 3.97983 4.52832 3.9375C4.5283 3.89518 4.5237 3.85303 4.51562 3.81152C4.50753 3.77004 4.4963 3.72952 4.48047 3.69043C4.46463 3.65133 4.44485 3.6143 4.42188 3.5791C4.39884 3.54385 4.37208 3.51142 4.34277 3.48145C4.31345 3.45146 4.28155 3.42395 4.24707 3.40039C4.2128 3.37701 4.17673 3.35697 4.13867 3.34082C4.10036 3.32459 4.0602 3.31296 4.01953 3.30469C3.9789 3.29643 3.93792 3.29199 3.89648 3.29199C3.85504 3.29199 3.81409 3.29642 3.77344 3.30469Z"
            fill="currentColor" />
    </g>
    <defs>
        <clipPath id="clip0_6537_42289">
            <rect width="20" height="20" fill="white" />
        </clipPath>
    </defs>
</svg>