<svg width="20" height="20" viewBox="0 0 20 20" fill="none" xmlns="http://www.w3.org/2000/svg">
    <path
        d="M10.6162 1.48207C10.2542 1.19888 9.7458 1.19888 9.38382 1.48207L1.88382 7.34972C1.64156 7.53925 1.5 7.82973 1.5 8.13732V18C1.5 18.5523 1.94772 19 2.5 19H5.11111C5.6634 19 6.11111 18.5523 6.11111 18V12.85C6.11111 12.5739 6.33497 12.35 6.61111 12.35H13.3889C13.665 12.35 13.8889 12.5739 13.8889 12.85V18C13.8889 18.5523 14.3366 19 14.8889 19H17.5C18.0523 19 18.5 18.5523 18.5 18V8.13732C18.5 7.82973 18.3584 7.53925 18.1162 7.34972L10.6162 1.48207Z"
        fill="currentColor" />
    <rect opacity="0.32" x="7.5" y="13.5" width="5" height="5" rx="0.5" fill="currentColor" />
</svg>