<svg xmlns="http://www.w3.org/2000/svg" class="arco-icon" style="stroke:none;fill:currentColor;"
    xmlns:xlink="http://www.w3.org/1999/xlink" fill="none" version="1.1" width="1em" height="1em" viewBox="0 0 22.0 22.0" >
<g clip-path="url(#clip0_1053_7112)">
<path d="M11.146 11.1455C11.4252 11.1455 11.6966 11.1793 11.9565 11.2422C11.8456 11.3361 11.7387 11.4354 11.6353 11.5391C11.1591 12.0163 10.7859 12.5727 10.5161 13.209C10.2463 13.8453 10.1108 14.5215 10.1108 15.2373C10.1108 15.9532 10.2463 16.6293 10.5161 17.2656C10.786 17.9019 11.1591 18.4593 11.6353 18.9365C11.7146 19.016 11.7967 19.0921 11.8804 19.166H1.521C1.14138 19.166 0.83362 18.8581 0.833496 18.4785V14.583C0.833496 12.6846 2.37252 11.1455 4.271 11.1455H11.146ZM7.7085 0.833008C10.2396 0.833095 12.2913 2.88508 12.2915 5.41602C12.2915 7.94714 10.2397 9.99991 7.7085 10C5.17719 10 3.12549 7.94719 3.12549 5.41602C3.1257 2.88502 5.17732 0.833008 7.7085 0.833008Z" fill="currentColor"/>
<path opacity="0.32" d="M14.4561 11.3086C14.4963 11.7182 14.8347 12.0302 15.2383 12.0303C15.6415 12.0302 15.9789 11.7188 16.0195 11.3096C16.8569 11.4825 17.6163 11.9295 18.1816 12.583L18.1465 12.6094C17.838 12.8624 17.7622 13.3103 17.9697 13.6543C18.1773 13.9983 18.6034 14.1309 18.9639 13.9639C19.0986 14.3743 19.1675 14.8045 19.167 15.2373C19.1674 15.6704 19.0986 16.101 18.9639 16.5117C18.5965 16.344 18.1644 16.4864 17.9629 16.8418C17.7614 17.1972 17.8559 17.6504 18.1816 17.8916C17.6163 18.5449 16.8567 18.9919 16.0195 19.165C15.979 18.7557 15.6416 18.4444 15.2383 18.4443C14.8349 18.4443 14.4965 18.7556 14.4561 19.165C13.6187 18.9917 12.8602 18.5442 12.2949 17.8906C12.6242 17.651 12.721 17.1952 12.5186 16.8379C12.316 16.4806 11.8806 16.3391 11.5127 16.5107C11.378 16.1003 11.3091 15.6702 11.3096 15.2373C11.3096 14.7917 11.3811 14.3636 11.5127 13.9629C11.8799 14.1303 12.3122 13.9879 12.5137 13.6328C12.7152 13.2774 12.6207 12.8232 12.2949 12.582C12.8602 11.9289 13.6191 11.4818 14.4561 11.3086ZM15.2383 14.0342C14.5875 14.0342 14.0598 14.5725 14.0596 15.2363C14.0596 15.9003 14.5874 16.4395 15.2383 16.4395C15.8891 16.4394 16.417 15.9003 16.417 15.2363C16.4168 14.5725 15.889 14.0343 15.2383 14.0342Z" fill="currentColor"/>
</g>
<defs>
<clipPath id="clip0_1053_7112">
<rect width="18.3331" height="18.3324" fill="currentColor" transform="translate(0.833496 0.833984)"/>
</clipPath>
</defs>
</svg>
