<svg width="20" height="20" viewBox="0 0 20 20" fill="none" xmlns="http://www.w3.org/2000/svg">
<path d="M6.75122 10.9703C7.08251 11.3652 7.46119 11.7797 7.89087 12.2125C8.28583 12.6103 8.66632 12.9632 9.02954 13.277C8.38371 13.712 7.84354 13.9638 7.40552 14.0934C6.53643 14.3504 6.14162 14.1191 6.02661 14.0035C5.91892 13.8947 5.68949 13.4844 5.9563 12.5846C6.08706 12.144 6.33372 11.6053 6.75122 10.9703Z" fill="currentColor"/>
<path d="M13.3293 10.9742C13.7333 11.5943 13.9744 12.1207 14.1028 12.5533C14.37 13.454 14.1401 13.8638 14.0325 13.9723C13.9173 14.0879 13.5226 14.3202 12.6536 14.0631C12.2247 13.9362 11.6976 13.6915 11.0696 13.2731C11.4208 12.9677 11.7884 12.6263 12.1692 12.2428C12.6084 11.8004 12.9928 11.377 13.3293 10.9742Z" fill="currentColor"/>
<path fill-rule="evenodd" clip-rule="evenodd" d="M10.0481 7.42151C10.4687 7.76464 10.9232 8.1759 11.4104 8.66663C11.8585 9.11799 12.2401 9.54145 12.5637 9.93616C12.2135 10.3736 11.7917 10.85 11.2825 11.3629C10.8434 11.8052 10.4312 12.1818 10.0481 12.5035C9.65463 12.1752 9.23063 11.788 8.77759 11.3317C8.28017 10.8306 7.86507 10.3651 7.51978 9.93616C7.83804 9.55003 8.21187 9.13686 8.64868 8.6969C9.15038 8.19158 9.61708 7.77069 10.0481 7.42151ZM10.1047 8.57483C9.39805 8.57507 8.82466 9.14841 8.82446 9.8551C8.82463 10.5618 9.39804 11.1351 10.1047 11.1354C10.8116 11.1354 11.3848 10.562 11.385 9.8551C11.3848 9.14826 10.8116 8.57483 10.1047 8.57483Z" fill="currentColor"/>
<path d="M6.15552 6.02502C6.26156 5.91829 6.66448 5.68874 7.55493 5.95667C7.95659 6.07763 8.44041 6.29799 9.0061 6.65979C8.6094 6.99528 8.19517 7.37972 7.76196 7.81604C7.39289 8.18778 7.06172 8.54625 6.76587 8.89124C6.40168 8.31551 6.18319 7.82731 6.06567 7.42444C5.80918 6.54452 6.03938 6.14203 6.15552 6.02502Z" fill="currentColor"/>
<path d="M12.5051 5.98792C13.3949 5.72017 13.7981 5.94943 13.9045 6.05627C14.0208 6.1738 14.2513 6.5763 13.9954 7.45471C13.8802 7.84959 13.6671 8.32636 13.3157 8.88733C13.0142 8.53429 12.6765 8.16595 12.2981 7.78479C11.8797 7.36345 11.4773 6.99184 11.093 6.66467C11.6417 6.31785 12.1129 6.10604 12.5051 5.98792Z" fill="currentColor"/>
<path fill-rule="evenodd" clip-rule="evenodd" d="M16.054 1.66956C17.0827 1.66956 17.9172 2.50315 17.9172 3.53186V16.4733C17.9168 17.5017 17.0825 18.3356 16.054 18.3356H3.94653C2.91832 18.3352 2.08367 17.5015 2.08325 16.4733V3.53186C2.08331 2.50336 2.9181 1.66991 3.94653 1.66956H16.054ZM7.91528 4.7594C6.75937 4.41157 5.8124 4.59696 5.2688 5.14417C4.73556 5.68127 4.52462 6.60772 4.8645 7.77405C5.04728 8.40078 5.39332 9.1167 5.95239 9.92639C5.335 10.7935 4.95629 11.5611 4.75806 12.2291C4.41395 13.3894 4.59762 14.3375 5.13892 14.8834C5.67371 15.4221 6.59794 15.6353 7.76001 15.2916C8.42244 15.0956 9.18421 14.715 10.051 14.0875C10.8999 14.6965 11.6477 15.0675 12.2991 15.2604C13.4612 15.6041 14.3853 15.3917 14.9202 14.8531C15.4621 14.3073 15.6454 13.3588 15.301 12.1979C15.105 11.5374 14.7332 10.7795 14.1282 9.92444C14.6743 9.12781 15.0142 8.42282 15.1946 7.80432C15.5344 6.63808 15.3235 5.71248 14.7903 5.17542C14.2466 4.62839 13.3006 4.44281 12.1448 4.79065C11.5308 4.97552 10.8329 5.31479 10.051 5.85608C9.25184 5.29745 8.54047 4.94765 7.91528 4.7594Z" fill="currentColor"/>
<g opacity="0.32">
<path d="M1.25 15.8375C0.560078 15.8375 0.00070317 15.2773 0 14.5875V5.42151C0 4.73115 0.559644 4.17151 1.25 4.17151V15.8375Z" fill="currentColor"/>
<path d="M18.75 4.17151C19.4404 4.17151 20 4.73115 20 5.42151V14.5875C19.9993 15.2773 19.4399 15.8375 18.75 15.8375V4.17151Z" fill="currentColor"/>
</g>
</svg>
