<svg width="20" height="20" viewBox="0 0 20 20" fill="none" xmlns="http://www.w3.org/2000/svg">
    <g clip-path="url(#clip0_6853_10409)">
        <path opacity="0.32" fill-rule="evenodd" clip-rule="evenodd"
            d="M17.9463 6.88942C18.501 6.59885 19.1667 7.00062 19.167 7.62672V14.2849C19.167 14.9228 18.8022 15.505 18.2285 15.7839L11.6143 19.0007C11.0609 19.2698 10.4172 18.867 10.417 18.2517V11.8416C10.4171 11.2217 10.7605 10.6527 11.3096 10.365L17.9463 6.88942ZM17.2256 12.2205C17.0713 11.9118 16.6964 11.787 16.3877 11.9412L13.8877 13.1912C13.579 13.3455 13.454 13.7203 13.6084 14.0291C13.7628 14.3377 14.1376 14.4627 14.4463 14.3084L16.9463 13.0584C17.2548 12.9039 17.3798 12.5291 17.2256 12.2205Z"
            fill="currentColor" />
        <path fill-rule="evenodd" clip-rule="evenodd"
            d="M0.833008 7.62689C0.833341 7.00079 1.49899 6.59902 2.05371 6.88959L8.69043 10.3652C9.23946 10.6529 9.58294 11.2219 9.58301 11.8417V18.2519C9.5827 18.8671 8.93908 19.2699 8.38574 19.0009L1.77148 15.7841C1.19785 15.5051 0.83304 14.923 0.833008 14.2851V7.62689ZM4.0293 11.5253C3.72056 11.371 3.34577 11.4959 3.19141 11.8046C3.03713 12.1133 3.16201 12.4882 3.4707 12.6425L5.9707 13.8925C6.27939 14.0468 6.6542 13.9219 6.80859 13.6132C6.96295 13.3045 6.83799 12.9297 6.5293 12.7753L4.0293 11.5253ZM8.89551 1.16107C9.33218 0.952696 9.83796 0.944731 10.2812 1.13861L17.9531 4.49506C18.6003 4.77822 18.6239 5.68778 17.9922 6.00384L10.373 9.81342C10.1384 9.93072 9.86156 9.93072 9.62695 9.81342L1.94238 5.97064C1.32186 5.66038 1.32994 4.7724 1.95605 4.47357L8.89551 1.16107Z"
            fill="currentColor" />
    </g>
    <defs>
        <clipPath id="clip0_6853_10409">
            <rect width="20" height="20" fill="white" />
        </clipPath>
    </defs>
</svg>