<svg xmlns="http://www.w3.org/2000/svg" class="arco-icon" style="stroke:none;fill:currentColor;"
    xmlns:xlink="http://www.w3.org/1999/xlink" fill="none" version="1.1" width="1em" height="1em" viewBox="0 0 22 22"><g><g><path d="M7,6C7,6.55228,7.44772,7,8,7L14,7C14.5523,7,15,6.55228,15,6L15,2C15,1.447715,14.5523,1,14,1L8,1C7.44772,1,7,1.447715,7,2L7,6ZM1.5,19C1.5,19.5523,1.947715,20,2.5,20L5.5,20C6.05228,20,6.5,19.5523,6.5,19L6.5,15C6.5,14.4477,6.05228,14,5.5,14L2.5,14C1.947715,14,1.5,14.4477,1.5,15L1.5,19ZM8.5,20L13.5,20L13.5,14L8.5,14L8.5,20ZM15.5,19C15.5,19.5523,15.9477,20,16.5,20L19.5,20C20.0523,20,20.5,19.5523,20.5,19L20.5,15C20.5,14.4477,20.0523,14,19.5,14L16.5,14C15.9477,14,15.5,14.4477,15.5,15L15.5,19Z" fill="currentColor" fill-opacity="1"/></g><g><path d="M4.75,14Q4.75,13.34543,4.77058,13.19374Q4.87202,12.446,5.40901,11.90901Q5.946,11.37202,6.69374,11.270579999999999Q6.84544,11.25,7.5,11.25Q8.255849999999999,11.25,8.507909999999999,11.215810000000001Q9.488050000000001,11.082840000000001,10.25,10.50327L10.25,14L11.75,14L11.75,10.50327Q12.51195,11.082840000000001,13.4921,11.215810000000001Q13.7441,11.25,14.5,11.25Q15.1546,11.25,15.3063,11.270579999999999Q16.054000000000002,11.37202,16.591,11.90901Q17.128,12.446,17.2294,13.19374Q17.25,13.34543,17.25,14L18.75,14Q18.75,13.244150000000001,18.7158,12.9921Q18.5464,11.74306,17.651600000000002,10.84835Q16.7569,9.95364,15.5079,9.78419Q15.2558,9.75,14.5,9.75Q13.8454,9.75,13.6937,9.729420000000001Q12.946,9.62798,12.40901,9.09099Q11.87202,8.554,11.77058,7.806259Q11.75,7.654567,11.75,7L10.25,7Q10.25,7.654567,10.229420000000001,7.806259Q10.12798,8.554,9.59099,9.09099Q9.054,9.62798,8.30626,9.729420000000001Q8.15457,9.75,7.5,9.75Q6.744149999999999,9.75,6.492100000000001,9.78419Q5.24306,9.95364,4.34835,10.84835Q3.45364,11.74306,3.284194,12.9921Q3.25,13.244150000000001,3.25,14L4.75,14Z" fill-rule="evenodd" fill="currentColor" fill-opacity="0.3199999928474426"/></g></g></svg>