<svg width="20" height="20" viewBox="0 0 20 20" fill="none" xmlns="http://www.w3.org/2000/svg">
<g clip-path="url(#clip0_5460_15880)">
<g clip-path="url(#clip1_5460_15880)">
<path opacity="0.32" d="M11.7339 11.6055V12.6686C11.7339 13.4919 11.0726 14.1859 10.3179 14.1859H9.25037H8.68434H7.55229C6.93309 14.1859 6.41992 14.7455 6.41992 15.401V17.6793C6.41992 18.3285 6.95442 18.7089 7.55229 18.8944C8.26872 19.1158 8.95755 19.1562 9.8164 18.8944C10.3867 18.7196 10.9481 18.3682 10.9481 17.6793V16.7682H8.68654V16.4635H12.5839C13.2433 16.4635 13.4873 15.9777 13.7163 15.2509C13.9534 14.5014 13.9434 13.7809 13.7163 12.8206C13.5532 12.1291 13.2439 11.608 12.5839 11.608H11.7339V11.6055ZM9.95818 17.3726C10.1934 17.3726 10.3841 17.5764 10.3841 17.8269C10.3841 18.0799 10.1934 18.283 9.95818 18.283C9.7248 18.283 9.53221 18.0774 9.53221 17.8269C9.53409 17.5739 9.72543 17.3726 9.95818 17.3726Z" fill="currentColor"/>
<path d="M8.98633 0.0488281C10.2819 0.0491504 10.8152 1.61677 11.4756 2.65332L12.8223 5.01953L17.6484 3.69043C17.6735 3.68492 21.6035 2.82466 19.249 6.34766L15.8193 10.5469L17.8516 14.6934C17.8688 14.7306 19.406 18.065 15.7178 17.6162L14.3109 17.2253C13.9862 17.1351 13.897 16.6824 14.093 16.4082C14.3332 16.0722 14.4912 15.6815 14.5637 15.2705C14.6097 15.0094 14.8625 14.8163 15.1177 14.888L15.4707 14.9873L13.4076 10.7378C13.341 10.6006 13.3582 10.4375 13.452 10.3172L16.5938 6.28711L11.9518 7.45013C11.7786 7.49352 11.5976 7.41687 11.5082 7.26227L9.24024 3.33789L8.40693 7.77731C8.37143 7.96646 8.20596 8.10128 8.01402 8.11542C7.1452 8.17943 6.35667 8.50961 5.88728 9.29795C5.83529 9.38527 5.75728 9.45553 5.66157 9.48968L3.35254 10.3135C3.61145 10.4685 3.61008 10.8458 3.37439 11.0342C2.97613 11.3526 2.65793 11.7356 2.48085 12.2155C2.38392 12.4782 2.08109 12.6393 1.83304 12.5094L1.60059 12.3877C1.60059 12.3877 0 11.6297 0 10.3145C3.32596e-05 8.99924 1.63867 8.54102 1.63867 8.54102L6.49609 6.95898L7.30957 2.01562C7.31592 1.98328 7.7012 0.0488281 8.98633 0.0488281ZM7.91895 8.90137C8.60098 8.77503 9.42793 8.76865 10.1885 8.89941C10.8041 9.00859 11.3231 9.48939 11.3232 10.1328V12.3955C11.3229 13.0564 10.8191 13.6001 10.1885 13.6006H7.41699C6.64561 13.6006 5.99805 14.2908 5.99805 15.0742V16.1572H5.21777C4.5576 16.157 4.17337 15.6559 4.01172 14.9551C3.79485 14.0115 3.8037 13.4474 4.01172 12.5439C4.1922 11.7563 4.77002 11.3418 5.43066 11.3418H9.05567V11.0391H6.78516V10.1357C6.78516 9.44991 6.95897 9.07908 7.91895 8.90137ZM7.77832 9.53223C7.54257 9.53223 7.35247 9.73344 7.35059 9.98438C7.35088 10.2325 7.54275 10.4346 7.77832 10.4346C8.01344 10.434 8.20478 10.2322 8.20508 9.98438C8.20508 9.73629 8.01175 9.53279 7.77832 9.53223Z" fill="currentColor"/>
</g>
</g>
<defs>
<clipPath id="clip0_5460_15880">
<rect width="20" height="20" fill="white"/>
</clipPath>
<clipPath id="clip1_5460_15880">
<rect width="20" height="20" fill="white"/>
</clipPath>
</defs>
</svg>
