<svg width="20" height="20" viewBox="0 0 20 20" fill="none" xmlns="http://www.w3.org/2000/svg">
    <g clip-path="url(#clip0_6700_16542)">
        <path
            d="M19 17.3125C18.9999 18.2443 18.1043 18.9998 17 19H2.99902C1.89499 18.9996 1.00013 18.2442 1 17.3125V4.375H19V17.3125ZM10.7773 9C10.4136 9.00028 10.1722 9.37701 10.3232 9.70801L12.1328 13.6738C12.1825 13.7829 12.1945 13.9077 12.1465 14.0176C12.0591 14.2173 11.9328 14.3701 11.7676 14.4746C11.6396 14.5597 11.4626 14.6188 11.2363 14.6523C10.9632 14.6928 10.7373 14.9094 10.7373 15.1855V15.5C10.7373 15.7761 10.9618 16.0027 11.2373 15.9834C11.5181 15.9638 11.769 15.9269 11.9893 15.873C12.3329 15.7889 12.6285 15.6447 12.874 15.4414C13.1261 15.2453 13.3432 14.9757 13.5254 14.6328C13.7148 14.2963 13.9053 13.8748 14.0947 13.3701L15.6953 9.7002C15.8393 9.36992 15.5966 9 15.2363 9H14.7012C14.4947 9 14.3089 9.12684 14.2344 9.31934L13.1064 12.2344C13.0994 12.2526 13.0821 12.2646 13.0625 12.2646C13.0433 12.2646 13.0258 12.2531 13.0186 12.2354L11.8213 9.31055C11.7444 9.12291 11.5622 9.00014 11.3594 9H10.7773ZM5.25293 7C4.97683 7.00005 4.75293 7.22389 4.75293 7.5V13.5C4.75293 13.7761 4.97683 14 5.25293 14H5.74316C6.01922 13.9999 6.24316 13.7761 6.24316 13.5V11.8418H7.07715C7.55399 11.8418 7.96302 11.8014 8.30273 11.7207C8.64227 11.6333 8.92021 11.4918 9.13574 11.2969C9.35122 11.1019 9.50748 10.8492 9.60547 10.54C9.70342 10.2241 9.75293 9.83695 9.75293 9.37988C9.75288 8.95668 9.70661 8.59742 9.61523 8.30176C9.53033 7.99937 9.38371 7.75367 9.1748 7.56543C8.97222 7.37044 8.69692 7.22902 8.35059 7.1416C8.01094 7.04758 7.58644 7.00004 7.07715 7H5.25293ZM6.88086 8.20996C7.12896 8.20998 7.33801 8.23021 7.50781 8.27051C7.68404 8.3108 7.82418 8.37871 7.92871 8.47266C8.0398 8.56678 8.11928 8.69108 8.16504 8.8457C8.21079 9.00037 8.2334 9.18922 8.2334 9.41113C8.23338 9.64629 8.21075 9.84152 8.16504 9.99609C8.11928 10.1439 8.03975 10.2653 7.92871 10.3594C7.82425 10.4532 7.6871 10.5203 7.51758 10.5605C7.34778 10.5941 7.13546 10.6113 6.88086 10.6113H6.24316V8.20996H6.88086Z"
            fill="currentColor" />
        <path opacity="0.32"
            d="M17.2004 1C18.1942 1.00024 18.9997 1.80579 18.9999 2.79955V4.50023H1V2.79955C1.00027 1.80579 1.80581 1.00024 2.79955 1H17.2004ZM2.75012 1.99975C2.33611 1.99988 1.99988 2.3361 1.99975 2.75012C1.99995 3.16408 2.33615 3.49925 2.75012 3.49938C3.16401 3.49917 3.49918 3.16403 3.49938 2.75012C3.49925 2.33614 3.16406 1.99996 2.75012 1.99975ZM5.00011 1.99975C4.5861 1.99988 4.24988 2.3361 4.24975 2.75012C4.24996 3.16406 4.58615 3.49925 5.00011 3.49938C5.41399 3.49916 5.74916 3.16401 5.74937 2.75012C5.74924 2.33615 5.41404 1.99998 5.00011 1.99975ZM7.249 1.99975C6.8352 2.00012 6.49987 2.33624 6.49974 2.75012C6.49995 3.16392 6.83525 3.49901 7.249 3.49938C7.66307 3.49938 7.99915 3.16415 7.99937 2.75012C7.99923 2.33602 7.66312 1.99975 7.249 1.99975Z"
            fill="currentColor" />
    </g>
    <defs>
        <clipPath id="clip0_6700_16542">
            <rect width="20" height="20" fill="white" />
        </clipPath>
    </defs>
</svg>