<svg width="20" height="20" viewBox="0 0 20 20" fill="none" xmlns="http://www.w3.org/2000/svg">
    <path fill-rule="evenodd" clip-rule="evenodd"
        d="M5.7181 2.26984C5.78866 2.41072 5.93261 2.50014 6.09017 2.50031H11.4085C11.5663 2.5003 11.711 2.41097 11.7816 2.26984L12.4993 0.833313H16.2493C16.9396 0.833393 17.4993 1.39301 17.4993 2.08331V10.7435C16.6602 10.0208 15.5686 9.58331 14.3743 9.58331C11.7284 9.58358 9.58366 11.7284 9.58333 14.3743C9.58333 17.0205 11.7282 19.1661 14.3743 19.1663H2.08333C1.39298 19.1663 0.833333 18.6067 0.833332 17.9163V2.08331C0.833437 1.39305 1.39305 0.833322 2.08333 0.833313H5.00032L5.7181 2.26984ZM7.52571 10.1829C7.28179 9.93899 6.88604 9.93929 6.64193 10.1829L5.62532 11.1995L5.23372 10.8079C4.98973 10.5639 4.59403 10.5641 4.34993 10.8079C4.10596 11.052 4.10589 11.4477 4.34993 11.6917L5.03548 12.3782C5.36084 12.7034 5.8888 12.7033 6.21419 12.3782L7.52571 11.0667C7.76925 10.8227 7.76932 10.4269 7.52571 10.1829ZM7.52571 5.59991C7.28173 5.35593 6.88603 5.35611 6.64193 5.59991L5.62532 6.61652L5.23372 6.22491C4.98968 5.98087 4.59402 5.98094 4.34993 6.22491C4.10595 6.469 4.10589 6.86466 4.34993 7.1087L5.03548 7.79425C5.36089 8.11946 5.88881 8.11951 6.21419 7.79425L7.52571 6.4837C7.76937 6.23976 7.76924 5.84394 7.52571 5.59991ZM8.95833 6.25031C8.61323 6.2504 8.33333 6.53018 8.33333 6.87531C8.33353 7.22026 8.61335 7.50021 8.95833 7.50031H13.1253C13.4701 7.50002 13.7501 7.22014 13.7503 6.87531C13.7503 6.5303 13.4703 6.25059 13.1253 6.25031H8.95833Z"
        fill="currentColor" />
    <path opacity="0.32"
        d="M14.375 10.4163C16.5611 10.4163 18.333 12.1892 18.333 14.3753C18.3329 15.1666 18.1002 15.9034 17.7002 16.5218L18.9229 17.7444C19.2478 18.0698 19.2479 18.5968 18.9229 18.9222C18.5974 19.2476 18.0696 19.2476 17.7441 18.9222L16.5215 17.6995C15.903 18.0996 15.1665 18.3333 14.375 18.3333C12.189 18.3333 10.4172 16.5613 10.417 14.3753C10.417 12.1892 12.1889 10.4163 14.375 10.4163ZM14.375 12.0833C13.1093 12.0833 12.083 13.1097 12.083 14.3753C12.0832 15.6408 13.1095 16.6663 14.375 16.6663C15.6405 16.6663 16.6668 15.6408 16.667 14.3753C16.667 13.1097 15.6407 12.0833 14.375 12.0833ZM11.3652 1.85284C11.2947 1.99399 11.15 2.08331 10.9922 2.08331H6.50781C6.35 2.08331 6.20535 1.99399 6.13477 1.85284L5.625 0.833313H11.875L11.3652 1.85284Z"
        fill="currentColor" />
</svg>