<svg width="15" height="15" viewBox="0 0 15 15" fill="none" xmlns="http://www.w3.org/2000/svg">
    <g clip-path="url(#clip0_7366_1379)">
        <mask id="mask0_7366_1379" style="mask-type:luminance" maskUnits="userSpaceOnUse" x="0" y="0" width="15"
            height="15">
            <rect x="14.5459" y="14.5459" width="14.5455" height="14.5455" transform="rotate(-180 14.5459 14.5459)"
                fill="white" />
        </mask>
        <g mask="url(#mask0_7366_1379)">
            <path opacity="0.32"
                d="M7.95383 7.94043L12.1336 7.94043C13.4658 7.94021 14.5459 9.02031 14.5459 10.3528V12.1306C14.5459 13.4629 13.4659 14.5429 12.1336 14.5429H10.3662C9.03386 14.5429 7.95383 13.4629 7.95383 12.1306L7.95383 7.94043Z"
                fill="currentColor" />
            <path
                d="M2.41309 7.94336C1.0808 7.94336 0 9.02318 0 10.3555V12.1328C9.53674e-07 13.4651 1.08064 14.5459 2.41309 14.5459H4.20117C5.5331 14.5454 6.6123 13.4648 6.6123 12.1328L6.6123 8.85156C6.61205 8.3497 6.20505 7.94336 5.70312 7.94336L2.41309 7.94336ZM10.3662 0C9.03383 0 7.954 1.07998 7.9541 2.41211L7.9541 5.69336C7.9541 6.19544 8.3612 6.60254 8.86328 6.60254L12.1338 6.60254C13.4659 6.60242 14.5458 5.52254 14.5459 4.19043V2.41211C14.5458 1.07983 13.4658 -0.000105532 12.1338 0L10.3662 0ZM2.41309 0C1.08087 0 0.000117302 1.07992 0 2.41211V4.19043C0.000131607 5.52245 1.08081 6.60232 2.41309 6.60254L5.70312 6.60254C6.2052 6.60254 6.6123 6.19544 6.6123 5.69336L6.6123 2.41211C6.61219 1.07976 5.53235 -0.000221991 4.2002 0L2.41309 0Z"
                fill="currentColor" />
        </g>
    </g>
    <defs>
        <clipPath id="clip0_7366_1379">
            <rect width="14.5455" height="14.5455" fill="white" transform="matrix(-1 0 0 1 14.5459 0)" />
        </clipPath>
    </defs>
</svg>