<svg width="20" height="20" viewBox="0 0 20 20" fill="none" xmlns="http://www.w3.org/2000/svg">
    <g clip-path="url(#clip0_12236_9625)">
        <path
            d="M8.16113 16C8.57601 16.7919 9.16796 17.4758 9.88477 18H6V16H8.16113ZM4 14H2V6H4V14ZM18 9.88184C17.4757 9.16546 16.7918 8.57376 16 8.15918V6H18V9.88184ZM14 4H6V2H14V4Z"
            fill="currentColor" />
        <path
            d="M13.3096 8.33203C16.0579 8.33204 18.2861 10.5603 18.2861 13.3086C18.2861 14.3035 17.9922 15.2293 17.4893 16.0068L19.0264 17.5439C19.4355 17.9531 19.4355 18.6163 19.0264 19.0254C18.6172 19.4345 17.954 19.4345 17.5449 19.0254L16.0078 17.4883C15.2303 17.9913 14.3045 18.2852 13.3096 18.2852C10.5613 18.2852 8.33301 16.0569 8.33301 13.3086C8.33301 10.5603 10.5613 8.33203 13.3096 8.33203ZM13.3096 10.4277C11.7185 10.4277 10.4287 11.7175 10.4287 13.3086C10.4287 14.8997 11.7185 16.1895 13.3096 16.1895C14.9007 16.1894 16.1904 14.8997 16.1904 13.3086C16.1904 11.7175 14.9007 10.4277 13.3096 10.4277Z"
            fill="currentColor" />
        <g opacity="0.32">
            <path
                d="M5 14C5.55228 14 6 14.4477 6 15V19C6 19.5523 5.55228 20 5 20H1C0.447715 20 0 19.5523 0 19V15C8.59014e-08 14.4477 0.447715 14 1 14H5Z"
                fill="currentColor" />
            <path
                d="M5 0C5.55228 6.44255e-08 6 0.447715 6 1V5C6 5.55228 5.55228 6 5 6H1C0.447715 6 1.61065e-08 5.55228 0 5V1C6.4426e-08 0.447715 0.447715 1.61064e-08 1 0H5Z"
                fill="currentColor" />
            <path
                d="M19 0C19.5523 6.44255e-08 20 0.447715 20 1V5C20 5.55228 19.5523 6 19 6H15C14.4477 6 14 5.55228 14 5V1C14 0.447715 14.4477 1.61064e-08 15 0H19Z"
                fill="currentColor" />
        </g>
    </g>
    <defs>
        <clipPath id="clip0_12236_9625">
            <rect width="20" height="20" fill="white" />
        </clipPath>
    </defs>
</svg>