<svg width="20" height="20" viewBox="0 0 20 20" fill="none" xmlns="http://www.w3.org/2000/svg">
<g clip-path="url(#clip0_5976_4279)">
<g clip-path="url(#clip1_5976_4279)">
<path d="M14.5459 1.13574C15.5249 1.13583 16.3184 1.93019 16.3184 2.90918V10.1738C15.8961 10.0582 15.4571 10 15.001 10C14.304 10 13.652 10.1286 13.0459 10.3867C12.4399 10.6448 11.9096 11.0015 11.4551 11.457C11.0006 11.9126 10.6443 12.4443 10.3867 13.0518C10.1291 13.6592 10.001 14.3049 10.001 14.9883C10.001 15.6716 10.1292 16.3174 10.3867 16.9248C10.6443 17.532 11.0007 18.0631 11.4551 18.5186C11.5767 18.6405 11.7044 18.755 11.8369 18.8633H2.90918C1.93035 18.8631 1.13688 18.0696 1.13672 17.0908V2.90918C1.13672 1.93022 1.93025 1.13589 2.90918 1.13574H14.5459ZM5.46582 9.00586C5.02513 9.05705 4.68282 9.43136 4.68262 9.88574C4.68275 10.3752 5.07989 10.7725 5.56934 10.7725H8.22754L8.33105 10.7666C8.77155 10.7152 9.11414 10.34 9.11426 9.88574C9.11404 9.39659 8.71668 9.0003 8.22754 9H5.56934L5.46582 9.00586ZM5.46582 5.45996C5.025 5.51116 4.68262 5.88626 4.68262 6.34082C4.68284 6.83015 5.07995 7.22656 5.56934 7.22656H11.8867L11.9902 7.2207C12.4307 7.16928 12.7732 6.79501 12.7734 6.34082C12.7734 5.85148 12.376 5.4544 11.8867 5.4541H5.56934L5.46582 5.45996Z" fill="currentColor"/>
<path opacity="0.32" d="M14.1465 11C14.1867 11.4096 14.5252 11.7216 14.9287 11.7217C15.332 11.7216 15.6693 11.4102 15.71 11.001C16.5474 11.1739 17.3067 11.6209 17.8721 12.2744L17.8369 12.3008C17.5284 12.5538 17.4527 13.0017 17.6602 13.3457C17.8677 13.6897 18.2938 13.8223 18.6543 13.6553C18.789 14.0657 18.8579 14.4959 18.8574 14.9287C18.8579 15.3618 18.789 15.7924 18.6543 16.2031C18.2869 16.0354 17.8549 16.1778 17.6533 16.5332C17.4518 16.8886 17.5463 17.3418 17.8721 17.583C17.3067 18.2363 16.5472 18.6833 15.71 18.8564C15.6695 18.4471 15.332 18.1358 14.9287 18.1357C14.5253 18.1357 14.187 18.447 14.1465 18.8564C13.3092 18.6831 12.5506 18.2356 11.9854 17.582C12.3146 17.3424 12.4115 16.8866 12.209 16.5293C12.0064 16.172 11.571 16.0305 11.2031 16.2021C11.0684 15.7917 10.9995 15.3616 11 14.9287C11 14.4831 11.0715 14.055 11.2031 13.6543C11.5703 13.8217 12.0026 13.6793 12.2041 13.3242C12.4056 12.9688 12.3111 12.5146 11.9854 12.2734C12.5506 11.6203 13.3095 11.1732 14.1465 11ZM14.9287 13.7256C14.2779 13.7256 13.7502 14.2639 13.75 14.9277C13.75 15.5918 14.2778 16.1309 14.9287 16.1309C15.5796 16.1308 16.1074 15.5917 16.1074 14.9277C16.1072 14.264 15.5794 13.7257 14.9287 13.7256Z" fill="currentColor"/>
</g>
</g>
<defs>
<clipPath id="clip0_5976_4279">
<rect width="20" height="20" fill="white"/>
</clipPath>
<clipPath id="clip1_5976_4279">
<rect width="17.7277" height="17.7275" fill="white" transform="translate(1.13672 1.13574)"/>
</clipPath>
</defs>
</svg>
