<svg width="20" height="20" viewBox="0 0 20 20" fill="none" xmlns="http://www.w3.org/2000/svg">
    <g clip-path="url(#clip0_10285_15731)">
        <path opacity="0.32"
            d="M16.6162 0.833496C17.7208 0.833496 18.6162 1.72893 18.6162 2.8335V12.2368C18.6162 13.3414 17.7208 14.2368 16.6162 14.2368H15.7002V5.46924C15.7 4.45692 14.8796 3.63623 13.8672 3.63623H5.78418V2.8335C5.78418 1.72893 6.67962 0.833507 7.78418 0.833496H16.6162Z"
            fill="currentColor" />
        <path d="M8.11328 9.22363L9.35059 12.6807H6.82129L8.06934 9.22363H8.11328Z" fill="currentColor" />
        <path fill-rule="evenodd" clip-rule="evenodd"
            d="M13.1211 4.5498C14.0413 4.55017 14.7871 5.29655 14.7871 6.2168V17.5C14.787 18.4201 14.0412 19.1666 13.1211 19.167H3.05078C2.13044 19.1669 1.38392 18.4203 1.38379 17.5V6.2168C1.38379 5.29636 2.13036 4.54987 3.05078 4.5498H13.1211ZM8.08594 7.83105C7.64359 7.83105 7.24687 8.10441 7.08887 8.51758L4.66797 14.8477C4.50754 15.2672 4.81748 15.7175 5.2666 15.7178C5.53621 15.7178 5.77703 15.5493 5.86914 15.2959L6.43457 13.7412H9.7373L10.3018 15.2959C10.3938 15.5493 10.6347 15.7178 10.9043 15.7178C11.3536 15.7176 11.6634 15.2673 11.5029 14.8477L9.08203 8.51758C8.92405 8.10457 8.52811 7.83121 8.08594 7.83105Z"
            fill="currentColor" />
    </g>
    <defs>
        <clipPath id="clip0_10285_15731">
            <rect width="20" height="20" fill="white" />
        </clipPath>
    </defs>
</svg>