<svg width="20" height="20" viewBox="0 0 20 20" fill="none" xmlns="http://www.w3.org/2000/svg">
<path opacity="0.32" d="M17.2004 1C18.1942 1.00024 18.9997 1.80579 18.9999 2.79955V4.50023H1V2.79955C1.00027 1.80579 1.80581 1.00024 2.79955 1H17.2004ZM2.75012 1.99975C2.33611 1.99988 1.99988 2.3361 1.99975 2.75012C1.99995 3.16408 2.33615 3.49925 2.75012 3.49938C3.16401 3.49917 3.49918 3.16403 3.49938 2.75012C3.49925 2.33614 3.16406 1.99996 2.75012 1.99975ZM5.00011 1.99975C4.5861 1.99988 4.24988 2.3361 4.24975 2.75012C4.24996 3.16406 4.58615 3.49925 5.00011 3.49938C5.41399 3.49916 5.74916 3.16401 5.74937 2.75012C5.74924 2.33615 5.41404 1.99998 5.00011 1.99975ZM7.249 1.99975C6.8352 2.00012 6.49987 2.33624 6.49974 2.75012C6.49995 3.16392 6.83525 3.49901 7.249 3.49938C7.66307 3.49938 7.99915 3.16415 7.99937 2.75012C7.99923 2.33602 7.66312 1.99975 7.249 1.99975Z" fill="currentColor"/>
<path d="M10.7559 9.18457C11.0102 9.18471 11.2289 9.24776 11.4131 9.37012C11.5967 9.49232 11.7413 9.6722 11.8438 9.91309L11.9121 10.1045C11.971 10.3075 12 10.5453 12 10.8184C12 11.1823 11.9474 11.4833 11.8438 11.7236C11.8034 11.8185 11.7538 11.9041 11.6992 11.9805L11.4922 11.7109C11.4255 11.6244 11.3331 11.5657 11.2324 11.542L11.1289 11.5303C10.943 11.5308 10.7916 11.6388 10.7168 11.791C10.6414 11.9447 10.6457 12.1412 10.7637 12.2988L10.874 12.4453C10.8356 12.4493 10.7957 12.4531 10.7559 12.4531C10.5009 12.453 10.2808 12.391 10.0967 12.2686C9.95939 12.1771 9.8439 12.0526 9.75098 11.8945L9.66602 11.7236C9.56394 11.483 9.50977 11.182 9.50977 10.8184C9.50982 10.455 9.564 10.1546 9.66602 9.91406C9.77016 9.67302 9.91351 9.49223 10.0967 9.37012C10.281 9.24756 10.5012 9.18468 10.7559 9.18457Z" fill="currentColor"/>
<path fill-rule="evenodd" clip-rule="evenodd" d="M19 16.9375C18.9999 17.8693 18.1043 18.6248 17 18.625H2.99902C1.89499 18.6246 1.00013 17.8692 1 16.9375V4H19V16.9375ZM10.7559 8C10.2781 8.0001 9.8448 8.10949 9.46094 8.33105C9.0763 8.55153 8.77198 8.87374 8.54883 9.29395C8.32434 9.71712 8.21296 10.2271 8.21289 10.8184C8.21289 11.4081 8.32434 11.9176 8.54883 12.3408C8.77197 12.7611 9.07637 13.0844 9.46094 13.3066C9.84476 13.5281 10.2781 13.6376 10.7559 13.6377C11.0722 13.6376 11.3684 13.5848 11.6445 13.4873L11.9121 13.8174C12.0067 13.9345 12.1469 13.9999 12.291 14L12.3643 13.9951C12.5305 13.97 12.6628 13.8615 12.7314 13.7178C12.8104 13.5518 12.802 13.341 12.6709 13.1748L12.501 12.957C12.6792 12.783 12.8341 12.5799 12.96 12.3428L12.9609 12.3438C13.1872 11.9203 13.2979 11.4095 13.2979 10.8184C13.2978 10.2272 13.1873 9.7173 12.9609 9.29395C12.7656 8.92594 12.5061 8.63391 12.1855 8.41895L12.0439 8.33105C11.6604 8.10982 11.2301 8.00014 10.7559 8ZM5.62305 8C5.23186 8.00007 4.8776 8.06922 4.56543 8.20898C4.2929 8.33117 4.06733 8.49686 3.89258 8.70703L3.82031 8.7998C3.63726 9.05723 3.54731 9.35934 3.54883 9.7002C3.547 10.1189 3.68433 10.4601 3.96191 10.7109C4.23126 10.954 4.59498 11.1295 5.04492 11.2402L5.61621 11.3848C5.80433 11.4306 5.9629 11.4816 6.08887 11.5361C6.21413 11.5898 6.30305 11.653 6.35938 11.7197C6.41277 11.7817 6.44038 11.8582 6.44043 11.9531C6.44028 12.0562 6.40962 12.1467 6.34668 12.2275C6.28211 12.3101 6.18638 12.3785 6.05664 12.4297C5.92997 12.4801 5.77657 12.5078 5.59668 12.5078C5.4143 12.5077 5.25321 12.48 5.1123 12.4258C4.97399 12.3701 4.86433 12.2891 4.78516 12.1865C4.62816 11.9763 4.40722 11.7093 4.09766 11.709H4.05762C3.8834 11.7091 3.71889 11.7825 3.60938 11.9043C3.49814 12.0283 3.44204 12.2065 3.5 12.3955C3.5479 12.5513 3.61461 12.6945 3.70117 12.8232L3.70215 12.8242C3.88912 13.0974 4.14793 13.302 4.47266 13.4385C4.79842 13.5744 5.17885 13.6405 5.60938 13.6406C6.04294 13.6406 6.41989 13.5749 6.73438 13.4404C7.04927 13.3045 7.29664 13.1116 7.46875 12.8584C7.64317 12.6023 7.7305 12.2992 7.73242 11.9561V11.9541C7.73053 11.7208 7.68754 11.5105 7.60254 11.3252C7.52008 11.142 7.40386 10.9818 7.25488 10.8477C7.10752 10.7151 6.93305 10.6039 6.73535 10.5146C6.53893 10.4261 6.32263 10.3554 6.08984 10.3027L5.62109 10.1895H5.61914C5.50787 10.1643 5.40159 10.1335 5.30469 10.0986C5.20982 10.0627 5.12686 10.0213 5.05664 9.97559C5.02281 9.95273 4.99351 9.92737 4.96777 9.90137L4.90137 9.81934C4.87126 9.76867 4.85577 9.70713 4.8584 9.63086V9.62695C4.8584 9.53545 4.88444 9.45411 4.93652 9.38184L4.93555 9.38086C4.98972 9.30829 5.07321 9.24775 5.18652 9.20215C5.29831 9.15584 5.44072 9.13097 5.61426 9.13086C5.87004 9.1309 6.06306 9.18615 6.19922 9.28711L6.24414 9.32324C6.34338 9.41292 6.45985 9.53262 6.58008 9.62305C6.70352 9.71581 6.84668 9.79089 7.0127 9.79102L7.1416 9.77734C7.26673 9.75042 7.38025 9.68482 7.46094 9.59277C7.5572 9.48268 7.60811 9.33042 7.57031 9.16895L7.54883 9.09961C7.50773 8.99478 7.45458 8.89491 7.3916 8.80176C7.24025 8.5782 7.0369 8.39865 6.78516 8.26367L6.6748 8.20898C6.37223 8.0688 6.02051 8.0001 5.62305 8ZM14.5869 8.07227C14.242 8.07278 13.9464 8.35791 13.9463 8.72949V12.6855C13.9464 13.1802 14.3418 13.5662 14.8086 13.5664H16.9336C17.1882 13.5661 17.4133 13.3814 17.4658 13.123L17.4766 13.0078C17.4766 12.6905 17.2251 12.4486 16.9336 12.4482H15.6602C15.4133 12.4477 15.2286 12.2471 15.2285 12.0205V8.72949C15.2284 8.40436 15.0025 8.14494 14.7148 8.08496L14.5869 8.07227Z" fill="currentColor"/>
</svg>
