<svg width="20" height="20" viewBox="0 0 20 20" fill="none" xmlns="http://www.w3.org/2000/svg">
<path d="M18.9999 17.3128C18.9998 18.2446 18.1046 18.9997 17.0004 18.9999H2.9995C1.89524 18.9997 1.00013 18.2446 1 17.3128L1.00006 4.375H19L18.9999 17.3128ZM11.0843 7.39846C10.6649 7.39846 10.2996 7.66687 10.1977 8.04838L8.36958 14.9029C8.3515 14.9707 8.34216 15.0411 8.34212 15.111C8.34212 15.5842 8.75136 15.9679 9.25617 15.9679C9.67557 15.9679 10.041 15.7005 10.1428 15.319L11.9709 8.46346C11.989 8.39547 11.9983 8.32533 11.9983 8.2554C11.998 7.78239 11.5889 7.3985 11.0843 7.39846ZM5.38901 8.45316C5.10707 8.45316 4.84351 8.58559 4.68699 8.80541L2.9995 11.1785C2.81063 11.4441 2.81079 11.7904 2.9995 12.056L4.68699 14.4291C4.84348 14.6492 5.1069 14.7814 5.38901 14.7814C5.85496 14.7813 6.23275 14.4272 6.23275 13.9903C6.23265 13.8343 6.18333 13.6814 6.09103 13.5516L4.71555 11.6173L6.09103 9.68296C6.18325 9.5531 6.23275 9.4002 6.23275 9.24418C6.23246 8.80757 5.85477 8.4532 5.38901 8.45316ZM14.9514 8.45316C14.4856 8.45316 14.108 8.80755 14.1077 9.24418C14.1077 9.40023 14.1572 9.55308 14.2494 9.68296L15.6249 11.6173L14.2494 13.5516C14.1571 13.6814 14.1078 13.8343 14.1077 13.9903C14.1077 14.4272 14.4855 14.7814 14.9514 14.7814C15.2335 14.7813 15.497 14.6491 15.6535 14.4291L17.341 12.056C17.5296 11.7904 17.5298 11.4441 17.341 11.1785L15.6535 8.80541C15.497 8.58557 15.2334 8.45319 14.9514 8.45316Z" fill="currentColor"/>
<path opacity="0.32" d="M17.2004 1C18.1942 1.00024 18.9997 1.80579 18.9999 2.79955V4.50023H1V2.79955C1.00027 1.80579 1.80581 1.00024 2.79955 1H17.2004ZM2.75012 1.99975C2.33611 1.99988 1.99988 2.3361 1.99975 2.75012C1.99995 3.16408 2.33615 3.49925 2.75012 3.49938C3.16401 3.49917 3.49918 3.16403 3.49938 2.75012C3.49925 2.33614 3.16406 1.99996 2.75012 1.99975ZM5.00011 1.99975C4.5861 1.99988 4.24988 2.3361 4.24975 2.75012C4.24996 3.16406 4.58615 3.49925 5.00011 3.49938C5.41399 3.49916 5.74916 3.16401 5.74937 2.75012C5.74924 2.33615 5.41404 1.99998 5.00011 1.99975ZM7.249 1.99975C6.8352 2.00012 6.49987 2.33624 6.49974 2.75012C6.49995 3.16392 6.83525 3.49901 7.249 3.49938C7.66307 3.49938 7.99915 3.16415 7.99937 2.75012C7.99923 2.33602 7.66312 1.99975 7.249 1.99975Z" fill="currentColor"/>
</svg>
