<svg width="20" height="20" viewBox="0 0 20 20" fill="currentColor" xmlns="http://www.w3.org/2000/svg">
<g clip-path="url(#clip0_23_30)">
<path fill-rule="evenodd" clip-rule="evenodd" d="M17.4215 3.38889L17.4215 12.0078C17.4215 12.6154 16.929 13.1078 16.3215 13.1078H13.104C12.5079 13.1078 12.0247 13.591 12.0247 14.1872V17.4C12.0247 18.0075 11.5322 18.5 10.9247 18.5H3.38974C2.79362 18.5 2.31037 18.0168 2.31037 17.4206L2.31036 3.38889H17.4215ZM12.5643 7.03175H7.16752C6.86946 7.03175 6.62783 7.27337 6.62783 7.57143C6.62783 7.83637 6.81874 8.05672 7.07051 8.10242L7.16752 8.11111H12.5643C12.8624 8.11111 13.104 7.86949 13.104 7.57143C13.104 7.30649 12.9131 7.08614 12.6613 7.04044L12.5643 7.03175ZM7.16752 10.2698H9.32625L9.42325 10.2785C9.67502 10.3242 9.86593 10.5446 9.86593 10.8095C9.86593 11.1076 9.62431 11.3492 9.32625 11.3492H7.16752L7.07051 11.3405C6.81874 11.2948 6.62783 11.0745 6.62783 10.8095C6.62783 10.5115 6.86946 10.2698 7.16752 10.2698Z" fill="currentColor"/>
<path opacity="0.32" fill-rule="evenodd" clip-rule="evenodd" d="M18.366 2.5625C18.366 1.9757 17.8904 1.5 17.3035 1.5H2.42852C1.84172 1.5 1.36602 1.9757 1.36602 2.5625C1.36602 3.14931 1.84172 3.625 2.42852 3.625H17.3035C17.8904 3.625 18.366 3.14931 18.366 2.5625ZM13.0535 18.5L17.3035 14.25H13.691C13.339 14.25 13.0535 14.5354 13.0535 14.8875V18.5Z" fill="currentColor"/>
</g>
<defs>
<clipPath id="clip0_23_30">
<rect width="20" height="20" fill="white"/>
</clipPath>
</defs>
</svg>