<svg width="20" height="19" viewBox="0 0 20 19" fill="currentColor" xmlns="http://www.w3.org/2000/svg" class="appforge-sider-icon flex-none text-[20px]"><g clip-path="url(#clip0_330699_398)"><g clip-path="url(#clip1_330699_398)"><path d="M6.8501 3C6.8501 2.44772 7.29781 2 7.8501 2H15.8501C16.4024 2 16.8501 2.44772 16.8501 3V6C16.8501 6.55228 16.4024 7 15.8501 7H7.8501C7.29781 7 6.8501 6.55228 6.8501 6V3Z" fill="currentColor"></path><path d="M6.8501 10C6.8501 9.44772 7.29781 9 7.8501 9H15.8501C16.4024 9 16.8501 9.44772 16.8501 10V13C16.8501 13.5523 16.4024 14 15.8501 14H7.8501C7.29781 14 6.8501 13.5523 6.8501 13V10Z" fill="currentColor"></path><path d="M6.8501 17C6.8501 16.4477 7.29781 16 7.8501 16H15.8501C16.4024 16 16.8501 16.4477 16.8501 17V20C16.8501 20.5523 16.4024 21 15.8501 21H7.8501C7.29781 21 6.8501 20.5523 6.8501 20V17Z" fill="currentColor"></path><path opacity="0.32" d="M16.8501 12.25H17.3501C19.1105 12.25 20.3553 11.0052 20.3553 11.0052C21.6001 9.76041 21.6001 8 21.6001 8C21.6001 6.23959 20.3553 4.9948 20.3553 4.9948C19.1105 3.75 17.3501 3.75 17.3501 3.75H16.8501V5.25L17.3501 5.25C18.4892 5.25 19.2946 6.05546 19.2946 6.05546C20.1001 6.86091 20.1001 8 20.1001 8C20.1001 9.13909 19.2946 9.94454 19.2946 9.94454C18.4892 10.75 17.3501 10.75 17.3501 10.75H16.8501V12.25Z" fill="currentColor"></path><path opacity="0.32" d="M6.8501 19.25H6.3501C4.58969 19.25 3.34489 18.0052 3.34489 18.0052C2.1001 16.7604 2.1001 15 2.1001 15C2.1001 13.2396 3.34489 11.9948 3.34489 11.9948C4.58969 10.75 6.3501 10.75 6.3501 10.75H6.8501V12.25H6.3501C5.21101 12.25 4.40555 13.0555 4.40555 13.0555C3.6001 13.8609 3.6001 15 3.6001 15C3.6001 16.1391 4.40555 16.9445 4.40555 16.9445C5.21101 17.75 6.3501 17.75 6.3501 17.75H6.8501V19.25Z" fill="currentColor"></path></g></g><defs><clipPath id="clip0_330699_398"><rect width="22" height="22" fill="white" transform="translate(0.850098)"></rect></clipPath><clipPath id="clip1_330699_398"><rect width="22" height="22" fill="white" transform="translate(0.850098)"></rect></clipPath></defs></svg>