<svg width="20" height="20" viewBox="0 0 20 20" fill="currentColor" xmlns="http://www.w3.org/2000/svg">
<g clip-path="url(#clip0_23_286)">
<g clip-path="url(#clip1_23_286)">
<path d="M5.45453 2.81818C5.45453 2.26589 5.90224 1.81818 6.45453 1.81818H13.5454C14.0977 1.81818 14.5454 2.26589 14.5454 2.81818V5.36363C14.5454 5.91592 14.0977 6.36363 13.5454 6.36363H6.45453C5.90224 6.36363 5.45453 5.91592 5.45453 5.36363V2.81818Z" fill="currentColor"/>
<path d="M5.45453 9.18182C5.45453 8.62954 5.90224 8.18182 6.45453 8.18182H13.5454C14.0977 8.18182 14.5454 8.62954 14.5454 9.18182V11.7273C14.5454 12.2796 14.0977 12.7273 13.5454 12.7273H6.45453C5.90224 12.7273 5.45453 12.2796 5.45453 11.7273V9.18182Z" fill="currentColor"/>
<path d="M5.45453 15.5455C5.45453 14.9932 5.90224 14.5455 6.45453 14.5455H13.5454C14.0977 14.5455 14.5454 14.9932 14.5454 15.5455V18.0909C14.5454 18.6432 14.0977 19.0909 13.5454 19.0909H6.45453C5.90224 19.0909 5.45453 18.6432 5.45453 18.0909V15.5455Z" fill="currentColor"/>
<path opacity="0.32" d="M14.5455 11.1364H15C16.6004 11.1364 17.732 10.0047 17.732 10.0047C18.8636 8.8731 18.8636 7.27272 18.8636 7.27272C18.8636 5.67235 17.732 4.54072 17.732 4.54072C16.6004 3.40909 15 3.40909 15 3.40909H14.5455V4.77272H15C16.0355 4.77272 16.7678 5.50496 16.7678 5.50496C17.5 6.23719 17.5 7.27272 17.5 7.27272C17.5 8.30826 16.7678 9.04049 16.7678 9.04049C16.0355 9.77272 15 9.77272 15 9.77272H14.5455V11.1364Z" fill="currentColor"/>
<path opacity="0.32" d="M5.45453 17.5H4.99999C3.39962 17.5 2.26799 16.3684 2.26799 16.3684C1.13635 15.2367 1.13635 13.6364 1.13635 13.6364C1.13635 12.036 2.26799 10.9044 2.26799 10.9044C3.39962 9.77272 4.99999 9.77272 4.99999 9.77272H5.45453V11.1364H4.99999C3.96445 11.1364 3.23222 11.8686 3.23222 11.8686C2.49999 12.6008 2.49999 13.6364 2.49999 13.6364C2.49999 14.6719 3.23222 15.4041 3.23222 15.4041C3.96446 16.1364 4.99999 16.1364 4.99999 16.1364H5.45453V17.5Z" fill="currentColor"/>
</g>
</g>
<defs>
<clipPath id="clip0_23_286">
<rect width="20" height="20" fill="white"/>
</clipPath>
<clipPath id="clip1_23_286">
<rect width="20" height="20" fill="white"/>
</clipPath>
</defs>
</svg>