<svg width="20" height="19" viewBox="0 0 20 19" fill="currentColor" xmlns="http://www.w3.org/2000/svg" class="appforge-sider-icon flex-none text-[20px]"><path fill-rule="evenodd" clip-rule="evenodd" d="M20.0138 3.72775L20.0138 13.3186C20.0138 13.9261 19.5213 14.4186 18.9138 14.4186H15.2646C14.6089 14.4186 14.0773 14.9501 14.0773 15.6059V19.25C14.0773 19.8575 13.5848 20.35 12.9773 20.35H4.57891C3.92319 20.35 3.39161 19.8184 3.39161 19.1627L3.3916 3.72775H20.0138ZM14.671 7.7349H8.73447C8.4066 7.7349 8.14082 8.00068 8.14082 8.32855C8.14082 8.61998 8.35082 8.86237 8.62776 8.91263L8.73447 8.9222H14.671C14.9989 8.9222 15.2646 8.65641 15.2646 8.32855C15.2646 8.03712 15.0546 7.79473 14.7776 7.74446L14.671 7.7349ZM8.73447 11.2968H11.1091L11.2158 11.3064C11.4927 11.3566 11.7027 11.599 11.7027 11.8905C11.7027 12.2183 11.4369 12.4841 11.1091 12.4841H8.73447L8.62776 12.4745C8.35082 12.4243 8.14082 12.1819 8.14082 11.8905C8.14082 11.5626 8.4066 11.2968 8.73447 11.2968Z" fill="currentColor"></path><path opacity="0.32" fill-rule="evenodd" clip-rule="evenodd" d="M21.0528 2.81866C21.0528 2.17317 20.5296 1.64991 19.884 1.64991H3.52153C2.87605 1.64991 2.35278 2.17317 2.35278 2.81866C2.35278 3.46414 2.87605 3.98741 3.52153 3.98741H19.884C20.5296 3.98741 21.0528 3.46414 21.0528 2.81866ZM15.209 20.3499L19.884 15.6749H15.9103C15.523 15.6749 15.209 15.9889 15.209 16.3762V20.3499Z" fill="currentColor"></path></svg>