<svg width="14" height="14" viewBox="0 0 14 14" fill="none" xmlns="http://www.w3.org/2000/svg">
<path fill-rule="evenodd" clip-rule="evenodd" d="M8.10797 1.42628C8.44968 1.08457 9.0037 1.08457 9.34541 1.42628L10.9746 3.05544C11.3163 3.39715 11.3163 3.95117 10.9746 4.29288L5.01002 10.2574C4.87077 10.3967 4.68863 10.4849 4.49305 10.5078L2.72936 10.7143C2.18281 10.7782 1.71357 10.3279 1.7551 9.77915L1.89441 7.93873C1.9102 7.73009 2.00024 7.53401 2.14819 7.38605L8.10797 1.42628ZM7.67304 3.51112L8.88972 4.7278L9.94337 3.67416L8.72669 2.45748L7.67304 3.51112ZM8.06477 5.55276L6.84809 4.33608L3.04959 8.13458L2.94515 9.51436L4.25672 9.3608L8.06477 5.55276ZM12.25 12.8333L1.75 12.8333V11.6666L12.25 11.6666V12.8333Z" fill="#292F42"/>
</svg>
