<svg width="16" height="16" viewBox="0 0 16 16" fill="none" xmlns="http://www.w3.org/2000/svg">
<path d="M3.44043 2.11963H10.3281C10.478 2.11963 10.621 2.18465 10.7197 2.29736L12.9521 4.84814C13.0351 4.94293 13.0801 5.06498 13.0801 5.19092V13.3599C13.0801 13.647 12.8477 13.8803 12.5605 13.8804H3.44043C3.15324 13.8804 2.91992 13.6471 2.91992 13.3599V2.64014C2.91992 2.35295 3.15324 2.11963 3.44043 2.11963Z" stroke="#0F131F" stroke-width="1.04" stroke-linecap="round" stroke-linejoin="round"/>
<path d="M8.8002 7.2002L7.2002 7.2002" stroke="#0F131F" stroke-width="1.04" stroke-linecap="round" stroke-linejoin="round"/>
<path d="M9.5998 4.69287H7.32835C7.25495 4.69287 7.19308 4.74761 7.18412 4.82046L6.46063 10.7052C6.4259 10.9877 6.18597 11.1999 5.90136 11.1999C5.71297 11.1999 5.53703 11.1057 5.43253 10.949L4.7998 9.9999" stroke="#0F131F" stroke-width="1.04" stroke-linecap="round" stroke-linejoin="round"/>
<path d="M11.1998 9.2002L8.7998 11.6002" stroke="#0F131F" stroke-width="1.04" stroke-linecap="round" stroke-linejoin="round"/>
<path d="M8.8002 9.2002L11.2002 11.6002" stroke="#0F131F" stroke-width="1.04" stroke-linecap="round" stroke-linejoin="round"/>
</svg>
