<svg width="14" height="14" viewBox="0 0 14 14" fill="none" xmlns="http://www.w3.org/2000/svg">
<path d="M8.4999 1.96631C10.7195 2.68334 12.3249 4.76662 12.3249 7.22487C12.3249 7.5669 12.2938 7.90167 12.2343 8.22651M10.6992 11.1392C9.69994 12.1346 8.32178 12.7499 6.7999 12.7499C5.27803 12.7499 3.89987 12.1346 2.90064 11.1392M1.39725 8.38661C1.31709 8.01204 1.2749 7.62338 1.2749 7.22487C1.2749 4.76662 2.88033 2.68334 5.0999 1.96631" stroke="#0F131F" stroke-width="1.04" stroke-miterlimit="16"/>
<path d="M6.7998 0.519531C7.68621 0.519531 8.40527 1.23858 8.40527 2.125C8.40527 3.01143 7.68622 3.73047 6.7998 3.73047C5.91339 3.73047 5.19434 3.01143 5.19434 2.125C5.19434 1.23858 5.9134 0.519531 6.7998 0.519531Z" stroke="#0F131F" stroke-width="1.04" stroke-miterlimit="16"/>
<path d="M2.125 8.16943C3.01141 8.16943 3.73046 8.88848 3.73047 9.7749C3.73047 10.6613 3.01141 11.3804 2.125 11.3804C1.23859 11.3804 0.519531 10.6613 0.519531 9.7749C0.51954 8.88848 1.23859 8.16943 2.125 8.16943Z" stroke="#0F131F" stroke-width="1.04" stroke-miterlimit="16"/>
<path d="M11.4751 8.16943C12.3615 8.16943 13.0806 8.88848 13.0806 9.7749C13.0806 10.6613 12.3615 11.3804 11.4751 11.3804C10.5887 11.3804 9.86963 10.6613 9.86963 9.7749C9.86964 8.88848 10.5887 8.16943 11.4751 8.16943Z" stroke="#0F131F" stroke-width="1.04" stroke-miterlimit="16"/>
</svg>
