<svg width="56" height="56" viewBox="28.3398 21 56 56" fill="none" xmlns="http://www.w3.org/2000/svg">
<rect x="28.3398" y="21" width="56" height="56" rx="12" fill="white" fill-opacity="0.4" shape-rendering="crispEdges"/>
<rect x="28.5898" y="21.25" width="55.5" height="55.5" rx="11.75" stroke="white" stroke-width="0.5" shape-rendering="crispEdges"/>
<path opacity="0.32" d="M61.3398 40.5H59.8398C58.4591 40.5 57.3398 41.6193 57.3398 43V44C57.3398 45.5767 56.6752 46.9972 55.6123 48C56.6752 49.0028 57.3398 50.4233 57.3398 52V53C57.3398 54.3807 58.4591 55.5 59.8398 55.5H61.3398V58.5H59.8398C56.8023 58.5 54.3398 56.0376 54.3398 53V52C54.3398 50.6193 53.2206 49.5 51.8398 49.5H50.3398V46.5H51.8398C53.2206 46.5 54.3398 45.3807 54.3398 44V43C54.3398 39.9624 56.8023 37.5 59.8398 37.5H61.3398V40.5Z" fill="url(#paint0_linear_6737_44639)"/>
<path d="M63.8398 53C66.3251 53 68.3398 55.0147 68.3398 57.5C68.3398 59.9853 66.3251 62 63.8398 62C61.3546 62 59.3398 59.9853 59.3398 57.5C59.3398 55.0147 61.3546 53 63.8398 53ZM46.3398 42.5C49.6536 42.5 52.3398 45.1863 52.3398 48.5C52.3398 51.8137 49.6536 54.5 46.3398 54.5C43.0261 54.5 40.3398 51.8137 40.3398 48.5C40.3398 45.1863 43.0261 42.5 46.3398 42.5ZM63.8398 34C66.3251 34 68.3398 36.0147 68.3398 38.5C68.3398 40.9853 66.3251 43 63.8398 43C61.3546 43 59.3398 40.9853 59.3398 38.5C59.3398 36.0147 61.3546 34 63.8398 34Z" fill="url(#paint1_linear_6737_44639)"/>
<defs>
<linearGradient id="paint0_linear_6737_44639" x1="61.3398" y1="51.75" x2="56.4096" y2="53.7559" gradientUnits="userSpaceOnUse">
<stop stop-color="#6A95F6"/>
<stop offset="1" stop-color="#184FF2"/>
</linearGradient>
<linearGradient id="paint1_linear_6737_44639" x1="68.3398" y1="53" x2="58.9608" y2="61.586" gradientUnits="userSpaceOnUse">
<stop stop-color="#6A95F6"/>
<stop offset="1" stop-color="#184FF2"/>
</linearGradient>
</defs>
</svg>
