<svg width="56" height="56" viewBox="24 18.5 56 56" fill="none" xmlns="http://www.w3.org/2000/svg">
<foreignObject x="-42.6667" y="-48.1667" width="189.333" height="189.333"><div xmlns="http://www.w3.org/1999/xhtml" style="backdrop-filter:blur(33.33px);clip-path:url(#bgblur_0_1164_132222_clip_path);height:100%;width:100%"></div></foreignObject><g filter="url(#filter0_d_1164_132222)" data-figma-bg-blur-radius="66.6667">
<rect x="24" y="18.5" width="56" height="56" rx="12" fill="white" fill-opacity="0.4" shape-rendering="crispEdges"/>
<rect x="24.25" y="18.75" width="55.5" height="55.5" rx="11.75" stroke="white" stroke-width="0.5" shape-rendering="crispEdges"/>
<path d="M52.0013 33.167C59.3651 33.167 65.3346 39.1365 65.3346 46.5003C65.3346 53.8641 59.3651 59.8337 52.0013 59.8337C44.6375 59.8337 38.668 53.8641 38.668 46.5003C38.668 39.1365 44.6375 33.167 52.0013 33.167ZM50.668 39.8337V47.8337H58.3346V45.167H53.3346V39.8337H50.668Z" fill="url(#paint0_linear_1164_132222)"/>
</g>
<defs>
<filter id="filter0_d_1164_132222" x="-42.6667" y="-48.1667" width="189.333" height="189.333" filterUnits="userSpaceOnUse" color-interpolation-filters="sRGB">
<feFlood flood-opacity="0" result="BackgroundImageFix"/>
<feColorMatrix in="SourceAlpha" type="matrix" values="0 0 0 0 0 0 0 0 0 0 0 0 0 0 0 0 0 0 127 0" result="hardAlpha"/>
<feOffset dx="3.63542" dy="3.63542"/>
<feGaussianBlur stdDeviation="15.9876"/>
<feComposite in2="hardAlpha" operator="out"/>
<feColorMatrix type="matrix" values="0 0 0 0 0.106126 0 0 0 0 0.204626 0 0 0 0 0.352376 0 0 0 0.06 0"/>
<feBlend mode="normal" in2="BackgroundImageFix" result="effect1_dropShadow_1164_132222"/>
<feBlend mode="normal" in="SourceGraphic" in2="effect1_dropShadow_1164_132222" result="shape"/>
</filter>
<clipPath id="bgblur_0_1164_132222_clip_path" transform="translate(42.6667 48.1667)"><rect x="24" y="18.5" width="56" height="56" rx="12"/>
</clipPath><linearGradient id="paint0_linear_1164_132222" x1="38.668" y1="59.8337" x2="66.0694" y2="33.9447" gradientUnits="userSpaceOnUse">
<stop stop-color="#4F18F2"/>
<stop offset="1" stop-color="#9669F7"/>
</linearGradient>
</defs>
</svg>
