<svg width="9" height="10" viewBox="0 0 9 10" fill="none" xmlns="http://www.w3.org/2000/svg">
<path fill-rule="evenodd" clip-rule="evenodd" d="M5.44969 0.21967C5.74258 -0.0732232 6.21745 -0.0732234 6.51035 0.21967L7.90677 1.61609C8.19966 1.90899 8.19966 2.38386 7.90677 2.67675L2.7943 7.78922C2.67495 7.90857 2.51883 7.98418 2.35118 8.0038L0.839447 8.1808C0.370982 8.23564 -0.0312263 7.84959 0.00437326 7.37928L0.123779 5.80177C0.137316 5.62293 0.214491 5.45487 0.34131 5.32805L5.44969 0.21967ZM5.07689 2.00668L6.11976 3.04955L7.02289 2.14642L5.98002 1.10355L5.07689 2.00668ZM5.41266 3.75665L4.36979 2.71378L1.11393 5.96964L1.02441 7.15231L2.14862 7.02069L5.41266 3.75665ZM9 9.99709L0 9.99709V8.99709L9 8.99709V9.99709Z" fill="#1E293B"/>
</svg>
