<svg width="12" height="11" viewBox="0 0 12 11" fill="none" xmlns="http://www.w3.org/2000/svg">
<path fill-rule="evenodd" clip-rule="evenodd" d="M8.62897 8.93142L10.5251 10.8276L11.3501 10.0026L7.70645 6.35899C7.87918 6.05931 7.97799 5.71165 7.97799 5.34091C7.97799 4.21333 7.06391 3.29925 5.93633 3.29925C5.56559 3.29925 5.21793 3.39806 4.91825 3.57079L1.34746 0L0.522504 0.824958L2.19505 2.4975C1.49505 3.13851 0.819448 4.01904 0.190531 5.03357L0 5.34092L0.190531 5.64827C1.80308 8.24952 3.70808 9.71591 5.93633 9.71591C6.88426 9.71591 7.78409 9.44767 8.62897 8.93142ZM7.77428 8.07674L6.85982 7.16227C6.5825 7.30316 6.26869 7.38258 5.93633 7.38258C4.80874 7.38258 3.89466 6.46849 3.89466 5.34091C3.89466 5.00855 3.97408 4.69474 4.11497 4.41742L3.02093 3.32338C2.4866 3.80385 1.93029 4.48904 1.37743 5.34038C2.83987 7.57657 4.36852 8.54925 5.93633 8.54925C6.56243 8.54925 7.17353 8.39632 7.77428 8.07674ZM5.91316 6.21561C5.44832 6.20353 5.07371 5.82892 5.06163 5.36408L5.91316 6.21561ZM6.80378 5.45632C6.80876 5.41856 6.81133 5.38003 6.81133 5.34091C6.81133 4.85766 6.41958 4.46591 5.93633 4.46591C5.8972 4.46591 5.85868 4.46848 5.82092 4.47346L6.80378 5.45632ZM5.91752 0.965914L5.93633 0.965916C8.16457 0.965916 10.0696 2.43231 11.6821 5.03357L11.8727 5.34092L11.6821 5.64827C11.1492 6.50794 10.588 7.23919 9.99583 7.8348L9.16849 7.01224C9.61766 6.56046 10.0604 6.00492 10.4949 5.34088C9.03252 3.10509 7.504 2.13258 5.93633 2.13258C5.59912 2.13258 5.28223 2.13388 4.99794 2.1798C4.71169 2.22605 4.53737 2.3065 4.43735 2.40415L3.62236 1.56934C3.97048 1.22949 4.42109 1.0912 4.81188 1.02807C5.19698 0.965858 5.60084 0.96589 5.91752 0.965914Z" fill="#1E293B"/>
</svg>
