<svg width="12" height="9" viewBox="0 0 12 9" fill="none" xmlns="http://www.w3.org/2000/svg">
<path fill-rule="evenodd" clip-rule="evenodd" d="M0.190531 4.06765C1.80308 1.46639 3.70808 0 5.93633 0C8.16457 0 10.0696 1.46639 11.6821 4.06765L11.8727 4.375L11.6821 4.68235C10.0696 7.28361 8.16457 8.75 5.93633 8.75C3.70808 8.75 1.80308 7.28361 0.190531 4.68235L0 4.375L0.190531 4.06765ZM1.37778 4.375C2.84012 6.61081 4.36864 7.58333 5.93633 7.58333C7.50401 7.58333 9.03254 6.61081 10.4949 4.375C9.03254 2.13918 7.50401 1.16667 5.93633 1.16667C4.36864 1.16667 2.84012 2.13918 1.37778 4.375ZM5.93633 3.5C5.45308 3.5 5.06133 3.89175 5.06133 4.375C5.06133 4.85825 5.45308 5.25 5.93633 5.25C6.41958 5.25 6.81133 4.85825 6.81133 4.375C6.81133 3.89175 6.41958 3.5 5.93633 3.5ZM3.89466 4.375C3.89466 3.24742 4.80874 2.33333 5.93633 2.33333C7.06391 2.33333 7.97799 3.24742 7.97799 4.375C7.97799 5.50258 7.06391 6.41667 5.93633 6.41667C4.80874 6.41667 3.89466 5.50258 3.89466 4.375Z" fill="#1E293B"/>
</svg>
