<svg xmlns="http://www.w3.org/2000/svg" xmlns:xlink="http://www.w3.org/1999/xlink" fill="none" version="1.1" width="16" height="16" viewBox="0 0 16 16"><defs><clipPath id="master_svg0_327_85813"><rect x="0" y="0" width="16" height="16" rx="0"/></clipPath></defs><g clip-path="url(#master_svg0_327_85813)"><g><g><path d="M4.309999957084656,10.399999861717223L4.309999957084656,7.969999861717224L4.969999957084656,7.969999861717224L5.629999957084656,7.969999861717224L5.629999957084656,6.519999861717224L4.969999957084656,6.519999861717224L2.329999957084656,6.519999861717224L1.6699999570846558,6.519999861717224L1.6699999570846558,7.969999861717224L2.329999957084656,7.969999861717224L2.989999957084656,7.969999861717224L2.989999957084656,10.399999861717223L2.989999957084656,13.849999861717224L2.989999957084656,14.329999861717223L4.309999957084656,14.329999861717223L4.309999957084656,13.849999861717224L4.309999957084656,10.399999861717223Z" fill="#333333" fill-opacity="1" style="mix-blend-mode:passthrough"/></g><g><path d="M2.990000009536743,2.1499999570846557L2.990000009536743,2.8799999570846557L2.990000009536743,4.579999957084656L2.990000009536743,5.059999957084656L2.990000009536743,5.549999957084656L4.3100000095367434,5.549999957084656L4.3100000095367434,5.059999957084656L4.3100000095367434,4.579999957084656L4.3100000095367434,2.8799999570846557L4.3100000095367434,2.1499999570846557L4.3100000095367434,1.6699999570846558L2.990000009536743,1.6699999570846558L2.990000009536743,2.1499999570846557Z" fill="#333333" fill-opacity="1" style="mix-blend-mode:passthrough"/></g><g><path d="M8.660000033378601,12.339999499320983L8.660000033378601,11.369999499320985L8.660000033378601,10.879999499320984L8.660000033378601,10.399999499320984L7.340000033378601,10.399999499320984L7.340000033378601,10.879999499320984L7.340000033378601,11.369999499320985L7.340000033378601,12.339999499320983L7.340000033378601,12.819999499320984L7.340000033378601,14.329999499320984L8.660000033378601,14.329999499320984L8.660000033378601,12.819999499320984L8.660000033378601,12.339999499320983Z" fill="#333333" fill-opacity="1" style="mix-blend-mode:passthrough"/></g><g><path d="M7.339999861717224,2.999999957084656L7.339999861717224,8.039999957084657L6.019999861717224,8.039999957084657L6.019999861717224,9.429999957084656L6.679999861717224,9.429999957084656L9.319999861717225,9.429999957084656L9.979999861717225,9.429999957084656L9.979999861717225,8.039999957084657L8.659999861717225,8.039999957084657L8.659999861717225,2.999999957084656L8.659999861717225,2.1499999570846557L8.659999861717225,1.6699999570846558L7.339999861717224,1.6699999570846558L7.339999861717224,2.1499999570846557L7.339999861717224,2.999999957084656Z" fill="#333333" fill-opacity="1" style="mix-blend-mode:passthrough"/></g><g><path d="M11.699999690055847,2.6399999570846555L11.699999690055847,3.119999957084656L11.699999690055847,3.6099999570846557L13.009999690055848,3.6099999570846557L13.009999690055848,3.119999957084656L13.009999690055848,2.6399999570846555L13.009999690055848,2.1499999570846557L13.009999690055848,1.6699999570846558L11.699999690055847,1.6699999570846558L11.699999690055847,2.1499999570846557L11.699999690055847,2.6399999570846555Z" fill="#333333" fill-opacity="1" style="mix-blend-mode:passthrough"/></g><g><path d="M10.379999995231628,5.839999804496765L11.699999995231629,5.839999804496765L11.699999995231629,11.569999804496765L11.699999995231629,12.819999804496765L11.699999995231629,14.329999804496765L13.009999995231627,14.329999804496765L13.009999995231627,12.819999804496765L13.009999995231627,11.569999804496765L13.009999995231627,5.839999804496765L14.329999995231628,5.839999804496765L14.329999995231628,4.579999804496765L10.379999995231628,4.579999804496765L10.379999995231628,5.839999804496765Z" fill="#333333" fill-opacity="1" style="mix-blend-mode:passthrough"/></g></g><g></g></g></svg>