<svg xmlns="http://www.w3.org/2000/svg" xmlns:xlink="http://www.w3.org/1999/xlink" fill="none" version="1.1" width="16" height="16" viewBox="0 0 16 16"><defs><linearGradient x1="1" y1="0.5" x2="0" y2="0.5" id="master_svg0_89_5587"><stop offset="0%" stop-color="#40B0FE" stop-opacity="1"/><stop offset="100%" stop-color="#2761F3" stop-opacity="1"/></linearGradient></defs><g><g></g><g><path d="M1,8C1,11.866,4.13401,15,8,15L15,15L15,8C15,4.13401,11.866,1,8,1C4.13401,1,1,4.13401,1,8ZM13.6875,8L13.6875,13.6875L8,13.6875Q5.64416,13.6875,3.97833,12.0217Q2.3125,10.35584,2.3125,8Q2.3125,5.64416,3.97833,3.97833Q5.64416,2.3125,8,2.3125Q10.35584,2.3125,12.0217,3.97833Q13.6875,5.64416,13.6875,8ZM9.76562,11.1484L8.75977,11.1484L8.272459999999999,9.80664L5.88574,9.80664L5.40234,11.1484L4.392580000000001,11.1484L6.67969,5.14844L7.47852,5.14844L9.76562,11.1484ZM11.3926,11.1484L10.43848,11.1484L10.43848,5.14844L11.3926,5.14844L11.3926,11.1484ZM7.07227,6.37598L6.16211,9.00098L8,9.00098L7.08984,6.37598L7.07227,6.37598Z" fill-rule="evenodd" fill="currentColor" fill-opacity="1"/></g></g></svg>