<svg width="1194" height="96" viewBox="0 0 1194 96" fill="none" xmlns="http://www.w3.org/2000/svg">
<path d="M6.768 42.844C6.012 43.924 5.22 44.824 4.392 45.58H9.576C9.72 44.68 9.828 43.78 9.9 42.844H6.768ZM8.64 48.712H1.944V45.58H3.564L1.872 43.456C3.528 41.98 5.004 39.892 6.228 37.156L9.288 37.804C9.036 38.524 8.748 39.172 8.46 39.82H18.324V42.844H13.176C13.104 43.816 13.032 44.716 12.888 45.58H19.332V48.712H12.168C12.096 48.892 12.06 49.072 12.024 49.216C14.688 50.584 16.92 51.952 18.792 53.32L16.668 55.48H30.42V70.78H26.964V69.376H9.972V70.78H6.552V55.984C5.616 56.56 4.644 57.136 3.564 57.64L1.26 54.868C5.004 53.212 7.416 51.232 8.568 48.856L8.64 48.712ZM9.972 66.352H26.964V63.976H9.972V66.352ZM9.972 61.024H26.964V58.504H9.972V61.024ZM7.272 55.48H16.056C14.688 54.256 12.996 52.996 10.908 51.7C10.044 53.068 8.82 54.328 7.272 55.48ZM20.448 39.856H33.048V53.464H20.448V39.856ZM29.7 50.476V42.88H23.796V50.476H29.7ZM43.632 58.576V61.204H51.048V58.576H43.632ZM51.048 55.768V52.996H43.632V55.768H51.048ZM43.632 64.048V70.78H40.32V50.008H54.36V66.784C54.36 69.268 53.172 70.528 50.868 70.528H48.06L47.232 67.324L49.788 67.468C50.616 67.468 51.048 67 51.048 66.064V64.048H43.632ZM66.636 53.428H60.768C58.248 53.428 57.024 52.06 57.024 49.324V37.624H60.408V41.872C64.116 41.296 67.14 40.72 69.48 40.072L70.596 43.096C67.644 43.78 64.26 44.428 60.408 45.004V48.604C60.408 49.756 60.84 50.368 61.704 50.368H65.988C66.564 50.368 66.96 50.188 67.212 49.828C67.5 49.396 67.716 48.172 67.788 46.156L70.992 47.2C70.704 50.188 70.2 51.988 69.552 52.6C68.904 53.14 67.932 53.428 66.636 53.428ZM60.408 61.744V66.136C60.408 66.784 60.804 67.108 61.668 67.108H66.024C66.6 67.108 67.032 66.928 67.284 66.604C67.572 66.172 67.788 64.948 67.896 62.932L70.992 63.94C70.704 66.964 70.236 68.764 69.588 69.34C68.976 69.88 68.004 70.168 66.672 70.168H60.696C58.248 70.168 57.024 69.052 57.024 66.892V54.688H60.408V58.648C63.792 58.288 66.816 57.676 69.48 56.884L70.596 59.944C67.428 60.808 64.008 61.384 60.408 61.744ZM51.768 40C53.892 42.844 55.512 45.328 56.664 47.416L53.856 49.432C53.496 48.712 53.1 47.956 52.668 47.2C48.924 47.776 44.424 48.208 39.168 48.496L38.232 45.652C38.844 45.436 39.348 45.148 39.78 44.788C41.976 42.34 43.668 39.892 44.82 37.444L48.096 38.416C46.584 41.368 44.892 43.708 43.02 45.508C45.54 45.364 48.276 45.076 51.192 44.716C50.544 43.708 49.86 42.7 49.14 41.656L51.768 40ZM78.84 52.42C77.868 53.716 76.824 55.012 75.744 56.236L74.736 52.816C78.264 48.388 80.892 43.204 82.548 37.3L85.608 38.74C84.744 41.656 83.592 44.428 82.188 47.092V70.744H78.84V52.42ZM84.708 43.276H93.816V37.444H97.164V43.276H106.704V46.552H99.864C101.448 52.168 104.22 57.208 108.108 61.6L105.912 64.372C101.736 59.08 98.82 53.14 97.164 46.552V60.304H102.312V63.58H97.164V70.708H93.816V63.58H88.776V60.304H93.816V46.552C92.016 53.968 88.992 60.052 84.744 64.804L82.98 61.888C86.688 57.856 89.388 52.744 91.08 46.552H84.708V43.276Z" fill="#0F172A"/>
<path d="M6.768 42.844C6.012 43.924 5.22 44.824 4.392 45.58H9.576C9.72 44.68 9.828 43.78 9.9 42.844H6.768ZM8.64 48.712H1.944V45.58H3.564L1.872 43.456C3.528 41.98 5.004 39.892 6.228 37.156L9.288 37.804C9.036 38.524 8.748 39.172 8.46 39.82H18.324V42.844H13.176C13.104 43.816 13.032 44.716 12.888 45.58H19.332V48.712H12.168C12.096 48.892 12.06 49.072 12.024 49.216C14.688 50.584 16.92 51.952 18.792 53.32L16.668 55.48H30.42V70.78H26.964V69.376H9.972V70.78H6.552V55.984C5.616 56.56 4.644 57.136 3.564 57.64L1.26 54.868C5.004 53.212 7.416 51.232 8.568 48.856L8.64 48.712ZM9.972 66.352H26.964V63.976H9.972V66.352ZM9.972 61.024H26.964V58.504H9.972V61.024ZM7.272 55.48H16.056C14.688 54.256 12.996 52.996 10.908 51.7C10.044 53.068 8.82 54.328 7.272 55.48ZM20.448 39.856H33.048V53.464H20.448V39.856ZM29.7 50.476V42.88H23.796V50.476H29.7ZM43.632 58.576V61.204H51.048V58.576H43.632ZM51.048 55.768V52.996H43.632V55.768H51.048ZM43.632 64.048V70.78H40.32V50.008H54.36V66.784C54.36 69.268 53.172 70.528 50.868 70.528H48.06L47.232 67.324L49.788 67.468C50.616 67.468 51.048 67 51.048 66.064V64.048H43.632ZM66.636 53.428H60.768C58.248 53.428 57.024 52.06 57.024 49.324V37.624H60.408V41.872C64.116 41.296 67.14 40.72 69.48 40.072L70.596 43.096C67.644 43.78 64.26 44.428 60.408 45.004V48.604C60.408 49.756 60.84 50.368 61.704 50.368H65.988C66.564 50.368 66.96 50.188 67.212 49.828C67.5 49.396 67.716 48.172 67.788 46.156L70.992 47.2C70.704 50.188 70.2 51.988 69.552 52.6C68.904 53.14 67.932 53.428 66.636 53.428ZM60.408 61.744V66.136C60.408 66.784 60.804 67.108 61.668 67.108H66.024C66.6 67.108 67.032 66.928 67.284 66.604C67.572 66.172 67.788 64.948 67.896 62.932L70.992 63.94C70.704 66.964 70.236 68.764 69.588 69.34C68.976 69.88 68.004 70.168 66.672 70.168H60.696C58.248 70.168 57.024 69.052 57.024 66.892V54.688H60.408V58.648C63.792 58.288 66.816 57.676 69.48 56.884L70.596 59.944C67.428 60.808 64.008 61.384 60.408 61.744ZM51.768 40C53.892 42.844 55.512 45.328 56.664 47.416L53.856 49.432C53.496 48.712 53.1 47.956 52.668 47.2C48.924 47.776 44.424 48.208 39.168 48.496L38.232 45.652C38.844 45.436 39.348 45.148 39.78 44.788C41.976 42.34 43.668 39.892 44.82 37.444L48.096 38.416C46.584 41.368 44.892 43.708 43.02 45.508C45.54 45.364 48.276 45.076 51.192 44.716C50.544 43.708 49.86 42.7 49.14 41.656L51.768 40ZM78.84 52.42C77.868 53.716 76.824 55.012 75.744 56.236L74.736 52.816C78.264 48.388 80.892 43.204 82.548 37.3L85.608 38.74C84.744 41.656 83.592 44.428 82.188 47.092V70.744H78.84V52.42ZM84.708 43.276H93.816V37.444H97.164V43.276H106.704V46.552H99.864C101.448 52.168 104.22 57.208 108.108 61.6L105.912 64.372C101.736 59.08 98.82 53.14 97.164 46.552V60.304H102.312V63.58H97.164V70.708H93.816V63.58H88.776V60.304H93.816V46.552C92.016 53.968 88.992 60.052 84.744 64.804L82.98 61.888C86.688 57.856 89.388 52.744 91.08 46.552H84.708V43.276Z" fill="url(#paint0_linear_246_35322)"/>
<path d="M124.164 38.704V61.6H121.14V41.872H115.452V61.636H112.464V38.704H124.164ZM116.928 44.14H119.7V55.912C119.592 59.944 119.052 63.184 118.08 65.56C117.108 67.792 115.524 69.52 113.328 70.744L111.6 68.008C113.616 66.82 114.984 65.308 115.74 63.508C116.46 61.564 116.856 59.008 116.928 55.912V44.14ZM121.032 62.896C122.076 64.12 123.012 65.308 123.876 66.496C124.488 66.388 125.064 66.28 125.64 66.208V53.176H128.376V65.704C128.952 65.56 129.528 65.452 130.068 65.344V49.972H132.948V55.372H135.288V58.18H132.948V64.66C134.1 64.336 135.216 64.012 136.26 63.652V66.64C132.696 67.936 128.664 68.944 124.128 69.736L124.092 69.484L122.94 70.6C121.968 68.836 120.636 66.928 118.944 64.912L121.032 62.896ZM126.216 39.64H133.812V42.7H126.216V39.64ZM125.172 45.58H136.044C136.008 43.168 136.008 40.54 136.008 37.732H139.032V39.352L141.552 38.488C142.488 40.108 143.28 41.836 143.964 43.672L141.516 44.752C140.724 42.736 139.896 40.936 139.032 39.424C139.032 41.62 139.032 43.672 139.068 45.58H144.288V48.784H139.104C139.248 55.372 139.5 59.8 139.86 62.032C140.292 64.768 140.796 66.28 141.372 66.532C141.624 66.46 141.84 65.02 142.02 62.248L144.612 64.048C144.108 68.332 143.064 70.492 141.552 70.492C140.652 70.492 139.824 69.88 139.068 68.656C138.096 67 137.376 64.804 136.908 62.068C136.476 59.62 136.224 55.192 136.116 48.784H125.172V45.58ZM153.792 58.576V61.204H161.208V58.576H153.792ZM161.208 55.768V52.996H153.792V55.768H161.208ZM153.792 64.048V70.78H150.48V50.008H164.52V66.784C164.52 69.268 163.332 70.528 161.028 70.528H158.22L157.392 67.324L159.948 67.468C160.776 67.468 161.208 67 161.208 66.064V64.048H153.792ZM176.796 53.428H170.928C168.408 53.428 167.184 52.06 167.184 49.324V37.624H170.568V41.872C174.276 41.296 177.3 40.72 179.64 40.072L180.756 43.096C177.804 43.78 174.42 44.428 170.568 45.004V48.604C170.568 49.756 171 50.368 171.864 50.368H176.148C176.724 50.368 177.12 50.188 177.372 49.828C177.66 49.396 177.876 48.172 177.948 46.156L181.152 47.2C180.864 50.188 180.36 51.988 179.712 52.6C179.064 53.14 178.092 53.428 176.796 53.428ZM170.568 61.744V66.136C170.568 66.784 170.964 67.108 171.828 67.108H176.184C176.76 67.108 177.192 66.928 177.444 66.604C177.732 66.172 177.948 64.948 178.056 62.932L181.152 63.94C180.864 66.964 180.396 68.764 179.748 69.34C179.136 69.88 178.164 70.168 176.832 70.168H170.856C168.408 70.168 167.184 69.052 167.184 66.892V54.688H170.568V58.648C173.952 58.288 176.976 57.676 179.64 56.884L180.756 59.944C177.588 60.808 174.168 61.384 170.568 61.744ZM161.928 40C164.052 42.844 165.672 45.328 166.824 47.416L164.016 49.432C163.656 48.712 163.26 47.956 162.828 47.2C159.084 47.776 154.584 48.208 149.328 48.496L148.392 45.652C149.004 45.436 149.508 45.148 149.94 44.788C152.136 42.34 153.828 39.892 154.98 37.444L158.256 38.416C156.744 41.368 155.052 43.708 153.18 45.508C155.7 45.364 158.436 45.076 161.352 44.716C160.704 43.708 160.02 42.7 159.3 41.656L161.928 40ZM200.34 37.516H202.86C207.396 42.448 212.58 46.336 218.484 49.144L216.612 52.456C210.744 49.432 205.74 45.472 201.6 40.576C197.784 45.184 192.708 49.144 186.444 52.492L184.608 49.18C190.908 46.084 196.164 42.196 200.34 37.516ZM200.916 47.2H204.336V54.904H213.876V58.18H204.336V66.1H216.468V69.412H186.3V66.1H191.484V52.384H194.868V66.1H200.916V47.2ZM232.704 37.768H236.124V66.064H240.444V37.768H243.864V66.064H254.376V69.412H222.264V66.064H232.704V37.768ZM250.596 44.464L253.62 45.328C252.252 51.52 250.488 56.92 248.328 61.564L245.268 60.484C247.284 56.308 249.084 50.944 250.596 44.464ZM225.9 44.392C227.736 49.216 229.356 54.724 230.796 60.916L227.664 61.708C226.44 56.056 224.856 50.584 222.984 45.328L225.9 44.392ZM271.908 43.42V68.476H268.632V66.604H262.944V69.52H259.668V43.42H263.088C263.736 41.476 264.24 39.496 264.528 37.408L267.948 37.876C267.588 39.856 267.048 41.692 266.364 43.42H271.908ZM262.944 63.436H268.632V56.344H262.944V63.436ZM262.944 53.284H268.632V46.66H262.944V53.284ZM278.388 52.06C280.764 55.012 282.6 57.568 283.86 59.8L281.16 61.708C279.792 59.332 277.92 56.704 275.616 53.788L278.388 52.06ZM290.484 43.456C290.484 55.876 290.304 63.544 289.944 66.424C289.584 69.016 287.856 70.312 284.796 70.312C284.076 70.312 282.78 70.24 280.98 70.132L280.152 67C281.736 67.072 283.104 67.144 284.256 67.144C285.696 67.144 286.524 66.388 286.74 64.876C286.956 63.076 287.064 57.028 287.136 46.768H278.1C277.092 48.928 275.94 50.908 274.572 52.708L272.52 50.008C274.896 46.552 276.552 42.34 277.416 37.372L280.8 37.804C280.44 39.82 279.936 41.692 279.36 43.456H290.484ZM303.228 43.672C302.688 44.5 302.148 45.292 301.608 46.048H324.396C324.324 49.108 324.216 51.808 324.144 54.184H328.5V57.388H324.036C323.928 59.404 323.856 61.132 323.784 62.536H327.492V65.704H323.568C323.46 66.568 323.388 67.108 323.316 67.36C322.992 68.512 322.38 69.34 321.48 69.844C320.58 70.384 319.248 70.672 317.52 70.672C316.224 70.672 314.712 70.708 313.02 70.708L312.012 67.576C313.884 67.648 315.54 67.72 317.016 67.72C317.736 67.72 318.384 67.612 318.924 67.468C319.464 67.252 319.86 66.784 320.148 66.064C320.148 65.992 320.184 65.848 320.22 65.704H299.412C299.916 62.896 300.348 60.124 300.672 57.388H295.092V54.184H300.996C301.248 51.52 301.392 48.856 301.464 46.228C300.24 47.848 298.944 49.288 297.576 50.548L295.38 47.884C298.26 45.292 300.708 41.728 302.796 37.156L306.252 37.948C305.856 38.812 305.46 39.604 305.064 40.396H326.736V43.672H303.228ZM309.096 57.532C311.76 58.396 314.208 59.404 316.44 60.628L315.18 62.536H320.472C320.544 61.168 320.616 59.44 320.688 57.388H304.092C303.876 59.224 303.66 60.952 303.372 62.536H313.848C311.796 61.348 309.708 60.412 307.584 59.764L309.096 57.532ZM304.38 54.184H313.704C311.76 53.104 309.78 52.24 307.836 51.556L309.348 49.324C312.012 50.188 314.424 51.232 316.656 52.492L315.54 54.184H320.796C320.868 52.636 320.904 50.98 320.976 49.216H304.668C304.596 50.944 304.488 52.6 304.38 54.184ZM332.172 52.096H364.752V55.48H332.172V52.096ZM383.58 37.408H387.036V41.476H397.728V44.752H387.036V48.856H401.292V52.168H387.288V62.716H383.868V52.168H369.108V48.856H374.22V40.216H377.676V48.856H383.58V37.408ZM395.496 54.292L398.592 55.948C394.056 65.884 385.308 70.888 372.348 70.924L371.088 67.648C383.544 67.648 391.68 63.184 395.496 54.292ZM377.46 53.32L379.872 55.444C377.784 58.792 375.192 61.708 372.096 64.156L369.936 61.384C372.888 59.08 375.408 56.38 377.46 53.32Z" fill="#0F172A"/>
<defs>
<linearGradient id="paint0_linear_246_35322" x1="0" y1="37.5" x2="109.154" y2="64.3415" gradientUnits="userSpaceOnUse">
<stop stop-color="#3CCBFF"/>
<stop offset="1" stop-color="#394CFF"/>
</linearGradient>
</defs>
</svg>
