<svg width="16" height="17" viewBox="0 0 16 17" fill="none" xmlns="http://www.w3.org/2000/svg">
<path fill-rule="evenodd" clip-rule="evenodd" d="M6.9194 2.47252C7.22508 1.85315 8.10828 1.85315 8.41396 2.47252L9.97071 5.62684L13.4517 6.13266C14.1352 6.23198 14.4082 7.07196 13.9136 7.55407L11.3947 10.0094L11.9893 13.4763C12.1061 14.1571 11.3915 14.6762 10.7802 14.3548L7.66668 12.7179L4.55318 14.3548C3.94182 14.6762 3.22729 14.1571 3.34405 13.4763L3.93868 10.0094L1.4198 7.55407C0.925207 7.07196 1.19813 6.23198 1.88165 6.13266L5.36265 5.62684L6.9194 2.47252ZM7.66668 3.9711L6.44196 6.45265C6.32058 6.69861 6.08594 6.86908 5.81451 6.90852L3.07596 7.30646L5.0576 9.23807C5.254 9.42952 5.34362 9.70535 5.29726 9.97568L4.82946 12.7032L7.27889 11.4154C7.52166 11.2878 7.81169 11.2878 8.05446 11.4154L10.5039 12.7032L10.0361 9.97568C9.98973 9.70535 10.0794 9.42952 10.2758 9.23807L12.2574 7.30646L9.51884 6.90852C9.24742 6.86908 9.01278 6.69861 8.8914 6.45265L7.66668 3.9711Z" fill="#334155"/>
</svg>
