<svg xmlns="http://www.w3.org/2000/svg" xmlns:xlink="http://www.w3.org/1999/xlink" fill="none" version="1.1" width="32" height="32" viewBox="0 0 32 32"><defs><clipPath id="master_svg0_814_001915"><rect x="0" y="0" width="32" height="32" rx="0"/></clipPath></defs><g clip-path="url(#master_svg0_814_001915)"><g><g transform="matrix(0.7071068286895752,-0.7071068286895752,0.7071068286895752,0.7071068286895752,3.066620080259895,9.689093931767616)"><ellipse cx="14.535380721092224" cy="3.7554080486297607" rx="1.3063000440597534" ry="2.612600088119507" fill="#1E3A8A" fill-opacity="1"/></g><g transform="matrix(0.7071068286895752,-0.7071068286895752,0.7071068286895752,0.7071068286895752,3.066620080259895,9.689093931767616)"><ellipse cx="14.535380721092224" cy="3.7554080486297607" rx="1.3063000440597534" ry="2.612600088119507" fill="#1E3A8A" fill-opacity="1"/></g><g transform="matrix(0.7071068286895752,-0.7071068286895752,0.7071068286895752,0.7071068286895752,3.066620080259895,9.689093931767616)"><ellipse cx="14.535380721092224" cy="3.7554080486297607" rx="1.3063000440597534" ry="2.612600088119507" fill="#1E3A8A" fill-opacity="1"/></g><g transform="matrix(0.7071068286895752,-0.7071068286895752,0.7071068286895752,0.7071068286895752,-16.638826110344667,17.85129192041893)"><ellipse cx="14.535304427146912" cy="31.62308382987976" rx="1.3063000440597534" ry="2.612600088119507" fill="#1E3A8A" fill-opacity="1"/></g><g transform="matrix(0.7071068286895752,-0.7071068286895752,0.7071068286895752,0.7071068286895752,-4.0113059376625415,24.163972265855023)"><ellipse cx="29.775442361831665" cy="18.230358004570007" rx="2.612600088119507" ry="1.3063000440597534" fill="#1E3A8A" fill-opacity="1"/></g><g transform="matrix(0.7071068286895752,-0.7071068286895752,0.7071068286895752,0.7071068286895752,-12.173546701295777,4.458575395210914)"><ellipse cx="1.9078047275543213" cy="18.230358004570007" rx="2.612600088119507" ry="1.3063000440597534" fill="#1E3A8A" fill-opacity="1"/></g><g><path d="M27.15906348953247,6.147497804260254Q27.15906348953247,6.275847804260254,27.15277348953247,6.403577804260253Q27.14648348953247,6.531307804260254,27.13396348953247,6.6571878042602535Q27.12144348953247,6.7830778042602535,27.102813489532473,6.905897804260254Q27.08418348953247,7.028717804260253,27.05962348953247,7.147297804260254Q27.035073489532472,7.2658778042602545,27.00481348953247,7.379067804260254Q26.97456348953247,7.4922578042602535,26.93891348953247,7.598977804260254Q26.90326348953247,7.705697804260254,26.86254348953247,7.804917804260254Q26.82183348953247,7.904127804260254,26.77645348953247,7.994887804260254Q26.73108348953247,8.085637804260255,26.681473489532472,8.167067804260254Q26.63186348953247,8.248487804260254,26.57850348953247,8.319797804260254Q26.52514348953247,8.391097804260255,26.46855348953247,8.451607804260254Q26.411953489532472,8.512107804260253,26.35266348953247,8.561227804260254Q26.29337348953247,8.610347804260254,26.231963489532472,8.647597804260254Q26.17055348953247,8.684857804260254,26.107613489532472,8.709897804260255Q26.04467348953247,8.734937804260255,25.98080348953247,8.747517804260255Q25.91693348953247,8.760097804260255,25.85276348953247,8.760097804260255Q25.78859348953247,8.760097804260255,25.724723489532472,8.747517804260255Q25.66086348953247,8.734937804260255,25.59791348953247,8.709897804260255Q25.53497548953247,8.684857804260254,25.47356448953247,8.647597804260254Q25.41215348953247,8.610347804260254,25.35286448953247,8.561227804260254Q25.29357448953247,8.512107804260253,25.23697748953247,8.451607804260254Q25.180381489532472,8.391097804260255,25.12702248953247,8.319797804260254Q25.07366348953247,8.248487804260254,25.024055489532472,8.167067804260254Q24.97444848953247,8.085637804260255,24.92906948953247,7.994887804260254Q24.88369148953247,7.904127804260254,24.84297948953247,7.804917804260254Q24.80226848953247,7.705697804260254,24.766614489532472,7.598977804260254Q24.730961489532472,7.4922578042602535,24.70070948953247,7.379067804260254Q24.67045848953247,7.2658778042602545,24.64589968953247,7.147297804260254Q24.62134118953247,7.028717804260253,24.60271228953247,6.905897804260254Q24.58408348953247,6.7830778042602535,24.57156368953247,6.6571878042602535Q24.55904388953247,6.531307804260254,24.552753679532472,6.403577804260253Q24.54646348953247,6.275847804260254,24.54646348953247,6.147497804260254Q24.54646348953247,6.019147804260253,24.552753679532472,5.891417804260254Q24.55904388953247,5.763687804260254,24.57156368953247,5.6378078042602535Q24.58408348953247,5.5119178042602535,24.60271228953247,5.389097804260254Q24.62134118953247,5.266277804260254,24.64589968953247,5.147697804260254Q24.67045848953247,5.029117804260254,24.70070948953247,4.915927804260254Q24.730961489532472,4.8027378042602535,24.766614489532472,4.696017804260254Q24.80226848953247,4.589297804260254,24.84297948953247,4.490081804260254Q24.88369148953247,4.390866804260254,24.92906948953247,4.300110804260254Q24.97444848953247,4.209354804260254,25.024055489532472,4.127930804260254Q25.07366348953247,4.046506804260254,25.12702248953247,3.975199804260254Q25.180381489532472,3.903893804260254,25.236978489532472,3.843390804260254Q25.29357448953247,3.782886804260254,25.35286448953247,3.733769804260254Q25.41215348953247,3.6846528042602538,25.47356448953247,3.647395804260254Q25.53497548953247,3.610137804260254,25.59791348953247,3.585098204260254Q25.66086348953247,3.560058604260254,25.724723489532472,3.547478204260254Q25.78859348953247,3.534897804260254,25.85276348953247,3.534897804260254Q25.91693348953247,3.534897804260254,25.98080348953247,3.547478204260254Q26.04467348953247,3.560058604260254,26.107613489532472,3.585098204260254Q26.17055348953247,3.610137804260254,26.231963489532472,3.647395804260254Q26.29337348953247,3.6846528042602538,26.35266348953247,3.733769804260254Q26.411953489532472,3.782886804260254,26.46855348953247,3.843390804260254Q26.52514348953247,3.903893804260254,26.57850348953247,3.975199804260254Q26.63186348953247,4.046506804260254,26.681473489532472,4.127930804260254Q26.73108348953247,4.209354804260254,26.77645348953247,4.300110804260254Q26.82183348953247,4.390866804260254,26.86254348953247,4.490081804260254Q26.90326348953247,4.589297804260254,26.93891348953247,4.696017804260254Q26.97456348953247,4.8027378042602535,27.00481348953247,4.915927804260254Q27.035073489532472,5.029117804260254,27.05962348953247,5.147697804260254Q27.08418348953247,5.266277804260254,27.102813489532473,5.389097804260254Q27.12144348953247,5.5119178042602535,27.13396348953247,5.6378078042602535Q27.14648348953247,5.763687804260254,27.15277348953247,5.891417804260254Q27.15906348953247,6.019147804260253,27.15906348953247,6.147497804260254Z" fill="#1E3A8A" fill-opacity="1"/></g><g><ellipse cx="6.147197246551514" cy="25.85306453704834" rx="1.306300163269043" ry="2.612600326538086" fill="#1E3A8A" fill-opacity="1"/></g><g><ellipse cx="25.85275888442993" cy="25.852916717529297" rx="2.612600326538086" ry="1.306300163269043" fill="#1E3A8A" fill-opacity="1"/></g><g><ellipse cx="6.147222995758057" cy="6.147350311279297" rx="2.612600326538086" ry="1.306300163269043" fill="#1E3A8A" fill-opacity="1"/></g></g><g><g transform="matrix(0.7071068286895752,-0.7071068286895752,0.7071068286895752,0.7071068286895752,-1.779891046573539,12.843957052706173)"><ellipse cx="15.267232358455658" cy="9.876795649528503" rx="0.6531500220298767" ry="1.3063000440597534" fill="#1E3A8A" fill-opacity="1"/></g><g transform="matrix(0.7071068286895752,-0.7071068286895752,0.7071068286895752,0.7071068286895752,-1.779891046573539,12.843957052706173)"><ellipse cx="15.267232358455658" cy="9.876795649528503" rx="0.6531500220298767" ry="1.3063000440597534" fill="#1E3A8A" fill-opacity="1"/></g><g transform="matrix(0.7071068286895752,-0.7071068286895752,0.7071068286895752,0.7071068286895752,-1.779891046573539,12.843957052706173)"><ellipse cx="15.267232358455658" cy="9.876795649528503" rx="0.6531500220298767" ry="1.3063000440597534" fill="#1E3A8A" fill-opacity="1"/></g><g transform="matrix(0.7071068286895752,-0.7071068286895752,0.7071068286895752,0.7071068286895752,-11.632797948366715,16.925100580168873)"><ellipse cx="15.267156064510345" cy="23.810877680778503" rx="0.6531500220298767" ry="1.3063000440597534" fill="#1E3A8A" fill-opacity="1"/></g><g transform="matrix(0.7071068286895752,-0.7071068286895752,0.7071068286895752,0.7071068286895752,-5.318854055534757,20.081396219749877)"><ellipse cx="22.88726317882538" cy="17.114270627498627" rx="1.3063000440597534" ry="0.6531500220298767" fill="#1E3A8A" fill-opacity="1"/></g><g transform="matrix(0.7071068286895752,-0.7071068286895752,0.7071068286895752,0.7071068286895752,-9.399977789247714,10.228689692232365)"><ellipse cx="8.95343291759491" cy="17.114270627498627" rx="1.3063000440597534" ry="0.6531500220298767" fill="#1E3A8A" fill-opacity="1"/></g><g><ellipse cx="20.92585515975952" cy="11.073084831237793" rx="0.6531500816345215" ry="1.306300163269043" fill="#1E3A8A" fill-opacity="1"/></g><g><ellipse cx="11.07306432723999" cy="20.925623893737793" rx="0.6531500816345215" ry="1.306300163269043" fill="#1E3A8A" fill-opacity="1"/></g><g><ellipse cx="20.925837516784668" cy="20.92579412460327" rx="1.306300163269043" ry="0.6531500816345215" fill="#1E3A8A" fill-opacity="1"/></g><g><ellipse cx="11.0730619430542" cy="11.073255062103271" rx="1.306300163269043" ry="0.6531500816345215" fill="#1E3A8A" fill-opacity="1"/></g></g><g><g transform="matrix(0.3883199393749237,-0.9215246438980103,0.9215246438980103,0.3883199393749237,0.08532152763257272,13.051251765368932)"><ellipse cx="10.853546380996704" cy="8.42080545425415" rx="0.9797251224517822" ry="1.9594502449035645" fill="#1E3A8A" fill-opacity="1"/></g><g transform="matrix(0.3883199393749237,-0.9215246438980103,0.9215246438980103,0.3883199393749237,-12.93475713854366,32.15366863856906)"><ellipse cx="18.73284935951233" cy="27.77969217300415" rx="0.9797251224517822" ry="1.9594502449035645" fill="#1E3A8A" fill-opacity="1"/></g><g transform="matrix(0.3883199393749237,-0.9215246438980103,0.9215246438980103,0.3883199393749237,2.26215784757062,30.378609653390583)"><ellipse cx="25.97392702102661" cy="14.465006113052368" rx="1.9594502449035645" ry="0.9797251224517822" fill="#1E3A8A" fill-opacity="1"/></g><g transform="matrix(0.3883199393749237,-0.9215246438980103,0.9215246438980103,0.3883199393749237,-16.83919341824901,17.359342917553647)"><ellipse cx="6.616184711456299" cy="22.343912363052368" rx="1.9594502449035645" ry="0.9797251224517822" fill="#1E3A8A" fill-opacity="1"/></g><g transform="matrix(0.9261999726295471,-0.37703263759613037,0.37703263759613037,0.9261999726295471,-0.4972261981038173,7.30531211943628)"><ellipse cx="19.39195293188095" cy="6.8822314739227295" rx="0.9797253012657166" ry="1.9594504833221436" fill="#1E3A8A" fill-opacity="1"/></g><g transform="matrix(0.9261999726295471,-0.37703263759613037,0.37703263759613037,0.9261999726295471,-8.358143603537428,5.666615719320475)"><ellipse cx="11.275574147701263" cy="26.14297366142273" rx="0.9797253012657166" ry="1.9594504833221436" fill="#1E3A8A" fill-opacity="1"/></g><g transform="matrix(0.9261999726295471,-0.37703263759613037,0.37703263759613037,0.9261999726295471,-5.768329953670218,10.307719299539826)"><ellipse cx="25.405537486076355" cy="20.868326544761658" rx="1.959450602531433" ry="0.9797252416610718" fill="#1E3A8A" fill-opacity="1"/></g><g transform="matrix(0.9261999726295471,-0.37703263759613037,0.37703263759613037,0.9261999726295471,-4.129696837230767,2.4468142811957705)"><ellipse cx="6.144795298576355" cy="12.752115607261658" rx="1.959450602531433" ry="0.9797252416610718" fill="#1E3A8A" fill-opacity="1"/></g></g></g></svg>