<svg xmlns="http://www.w3.org/2000/svg" xmlns:xlink="http://www.w3.org/1999/xlink" class="arco-icon"
    style="stroke:none;fill:currentColor;" version="1.1" viewBox="0 0 22 22" width="1em" height="1em">
    <defs>
        <clipPath id="master_svg0_1242_83416">
            <rect x="0" y="0" width="22" height="22" rx="0" />
        </clipPath>
    </defs>
    <g clip-path="url(#master_svg0_1242_83416)">
        <g>
            <path
                d="M6.996075625,6.11616875Q6.990725625,6.221758749999999,6.990725625,6.32853875L6.990725625,7.60293875C6.990725625,7.95484875,7.274865625,8.24012875,7.625375625,8.24012875C7.975875625,8.24012875,8.260015625000001,7.95484875,8.260015625000001,7.60293875L8.260015625000001,6.32853875Q8.260015625000001,6.22086875,8.267155625000001,6.11616875L13.753115625,6.11616875Q13.760315625,6.22086875,13.760315625,6.32853875L13.760315625,7.60293875C13.760315625,7.95484875,14.044415625,8.24012875,14.394915625,8.24012875C14.745415625,8.24012875,15.029615625,7.95484875,15.029615625,7.60293875L15.029615625,6.32853875Q15.029615625,6.221758749999999,15.024215625,6.11616875L15.740615625,6.11616875Q15.992015625,6.11616875,16.175215625,6.28895875Q16.358315625,6.46174875,16.374015625,6.71361875L16.878915624999998,14.82446875L5.073775625,14.82446875L5.451995625,6.72352875Q5.463895625,6.46856875,5.647815625,6.29236875Q5.831735625,6.11616875,6.085945625,6.11616875L6.996075625,6.11616875ZM7.272435625,4.84177875L6.085945625,4.84177875Q5.323305625,4.84177875,4.7715556249999995,5.37037875Q4.2198006249999995,5.89898875,4.184090625,6.66385875L3.668439185,17.708568749999998Q3.630283225,18.52586875,4.192844625,19.11776875Q4.755405625,19.70966875,5.570295625,19.70966875L16.428115625,19.70966875Q17.251815625,19.70966875,17.815815625,19.10696875Q18.379815625,18.50426875,18.328415624999998,17.67886875L17.640815625000002,6.63411875Q17.593815624999998,5.87851875,17.044215625,5.3601487500000005Q16.494715624999998,4.84177875,15.740615625,4.84177875L14.747915625,4.84177875Q14.731215625,4.79952875,14.713515625,4.75751875Q14.408315625,4.03318875,13.852315625,3.47495875Q13.296335625,2.91673075,12.574905625,2.61036575Q11.827495625,2.29296875,11.010165624999999,2.29296875Q10.192825625000001,2.29296875,9.445415624999999,2.61036575Q8.723985625000001,2.91673075,8.167985625,3.47495875Q7.6119956250000005,4.03318875,7.306855625,4.75751875Q7.289155624999999,4.79953875,7.272435625,4.84177875ZM8.686305625,4.84177875L13.334015625,4.84177875Q13.174325625,4.59648875,12.954805625,4.37608875Q12.149305625,3.56735875,11.010165624999999,3.56735875Q9.871015625,3.56735875,9.065515625,4.37608875Q8.845995625,4.59649875,8.686305625,4.84177875ZM5.014285625,16.09886875L4.9363456249999995,17.76826875Q4.923625625,18.040668750000002,5.111145625,18.23796875Q5.298665625,18.43526875,5.570295625,18.43526875L16.428115625,18.43526875Q16.702715625,18.43526875,16.890715625,18.23436875Q17.078715625,18.03346875,17.061615625,17.758368750000002L16.958315624999997,16.09886875L5.014285625,16.09886875Z"
                fill-rule="evenodd" fill-opacity="1" />
        </g>
    </g>
</svg>