<svg width="14" height="14" viewBox="0 0 14 14" fill="none" xmlns="http://www.w3.org/2000/svg">
    <g clip-path="url(#clip0_9295_135316)">
        <path d="M3.57656 9.8111C3.73994 9.8111 3.87251 9.94367 3.87251 10.107V10.6989C3.87251 10.7773 3.84145 10.8524 3.78616 10.9079C3.73086 10.9633 3.65582 10.9946 3.57749 10.9949H0.295951C0.217462 10.9949 0.142187 10.9637 0.0866863 10.9082C0.0311858 10.8527 5.89062e-06 10.7774 5.89062e-06 10.6989V10.107C5.89062e-06 9.94367 0.132575 9.8111 0.295951 9.8111H3.57749H3.57656ZM4.50267 5.36911C4.66698 5.36911 4.79955 5.50168 4.79955 5.66506V6.25789C4.79943 6.29675 4.79165 6.33521 4.77667 6.37107C4.76168 6.40693 4.73978 6.43948 4.71221 6.46688C4.68464 6.49427 4.65195 6.51597 4.616 6.53073C4.58005 6.54549 4.54154 6.55302 4.50267 6.5529H0.296885C0.257878 6.55298 0.219239 6.54536 0.18319 6.53046C0.14714 6.51556 0.114392 6.49368 0.086829 6.46607V6.46701C0.0313111 6.41157 8.15644e-05 6.33635 5.89062e-06 6.25789V5.66599C5.89062e-06 5.50262 0.132575 5.37005 0.295951 5.37005H4.50267V5.36911ZM11.5456 0.929932C11.709 0.929932 11.8406 1.0625 11.8406 1.22588V1.81777C11.8408 1.85663 11.8332 1.89514 11.8185 1.93109C11.8037 1.96705 11.782 1.99974 11.7546 2.02731C11.7272 2.05488 11.6947 2.07678 11.6588 2.09176C11.6229 2.10675 11.5845 2.11453 11.5456 2.11465H0.295951C0.25693 2.11465 0.218293 2.10693 0.182265 2.09194C0.146237 2.07695 0.113529 2.05499 0.0860234 2.02731C0.0585178 1.99963 0.0367576 1.96678 0.0219952 1.93066C0.00723284 1.89454 -0.000240302 1.85586 5.89062e-06 1.81683V1.22588C5.89062e-06 1.0625 0.132575 0.929932 0.295951 0.929932H11.5456Z"
              fill="currentColor"/>
        <g clip-path="url(#clip1_9295_135316)">
            <path fill-rule="evenodd" clip-rule="evenodd"
                  d="M8.07168 4.85287C8.13745 4.61612 8.35301 4.45227 8.59873 4.45227H10.1449C10.3906 4.45227 10.6062 4.61612 10.672 4.85287L10.8584 5.52414L11.533 5.34998C11.771 5.28855 12.0206 5.39332 12.1435 5.60612L12.9166 6.94514C13.0394 7.15794 13.0053 7.42655 12.8332 7.60188L12.3451 8.09898L12.8332 8.59609C13.0053 8.77142 13.0394 9.04003 12.9166 9.25283L12.1435 10.5919C12.0206 10.8047 11.771 10.9094 11.533 10.848L10.8584 10.6738L10.672 11.3451C10.6062 11.5818 10.3906 11.7457 10.1449 11.7457H8.59873C8.35301 11.7457 8.13745 11.5818 8.07168 11.3451L7.88523 10.6739L7.21075 10.848C6.97283 10.9094 6.72315 10.8047 6.60029 10.5919L5.8272 9.25283C5.70434 9.04003 5.73846 8.77142 5.91061 8.59609L6.3987 8.09898L5.91061 7.60188C5.73846 7.42655 5.70434 7.15794 5.8272 6.94514L6.60029 5.60611C6.72315 5.39332 6.97283 5.28855 7.21075 5.34998L7.88523 5.52411L8.07168 4.85287ZM7.83731 10.5014L7.83738 10.5016L7.83731 10.5014ZM8.73732 5.18161L8.54005 5.89181C8.46023 6.17913 8.16499 6.34959 7.87626 6.27505L7.16263 6.09081L6.52813 7.18979L7.04455 7.71575C7.25347 7.92853 7.25347 8.26944 7.04455 8.48222L6.52813 9.00818L7.16262 10.1072L7.87626 9.92292C8.165 9.84838 8.46023 10.0188 8.54005 10.3062L8.73732 11.0164H10.0063L10.2036 10.3061C10.2834 10.0188 10.5787 9.84835 10.8674 9.92289L11.5812 10.1072L12.2157 9.00818L11.6992 8.48222C11.4903 8.26944 11.4903 7.92853 11.6992 7.71575L12.2157 7.18979L11.5812 6.09081L10.8674 6.27508C10.5787 6.34963 10.2834 6.17917 10.2036 5.89184L10.0063 5.18161H8.73732ZM9.37182 7.36964C8.96901 7.36964 8.64248 7.69618 8.64248 8.09898C8.64248 8.50179 8.96901 8.82833 9.37182 8.82833C9.77462 8.82833 10.1012 8.50179 10.1012 8.09898C10.1012 7.69618 9.77462 7.36964 9.37182 7.36964ZM7.91313 8.09898C7.91313 7.29337 8.56621 6.6403 9.37182 6.6403C10.1774 6.6403 10.8305 7.29337 10.8305 8.09898C10.8305 8.90459 10.1774 9.55767 9.37182 9.55767C8.56621 9.55767 7.91313 8.90459 7.91313 8.09898Z"
                  fill="currentColor"/>
        </g>
    </g>
    <defs>
        <clipPath id="clip0_9295_135316">
            <rect width="13.0629" height="13.0629" fill="currentColor"/>
        </clipPath>
        <clipPath id="clip1_9295_135316">
            <rect width="8.75211" height="8.75211" fill="currentColor" transform="translate(4.99609 3.7229)"/>
        </clipPath>
    </defs>
</svg>
