<svg width="16px" height="16px" viewBox="0 0 16 16" version="1.1" xmlns="http://www.w3.org/2000/svg" xmlns:xlink="http://www.w3.org/1999/xlink">
    <title>4.数据展示/图标/设置</title>
    <g id="4.数据展示/图标/设置" stroke="currentColor" stroke-width="1" fill="none" fill-rule="evenodd">
        <rect id="Rectangle-11" fill="currentColor" opacity="0" x="0" y="0" width="16" height="16"></rect>
        <g id="产品设置" transform="translate(1.000000, 1.000000)" stroke="currentColor" stroke-linecap="round" stroke-linejoin="round">
            <rect id="1-FL" x="0" y="0" width="14" height="14"></rect>
            <path d="M2.91666667,10.5 L7.58333333,10.5 M9.91666667,10.5 L11.0833333,10.5 M9.91666667,3.5 L11.0833333,3.5 M2.91666667,7 L4.08333333,7 M6.41666667,7 L11.0833333,7 M2.91666667,3.5 L7.58333333,3.5" id="2-LW"></path>
            <path d="M8.75,9.33333333 C9.0721661,9.33333333 9.3638328,9.46391693 9.57495793,9.67504207 C9.78608307,9.8861672 9.91666667,10.1778339 9.91666667,10.5 C9.91666667,10.8221661 9.78608307,11.1138328 9.57495793,11.3249579 C9.3638328,11.5360831 9.0721661,11.6666667 8.75,11.6666667 C8.4278339,11.6666667 8.13616723,11.5360831 7.92504209,11.3249579 C7.71391694,11.1138328 7.58333333,10.8221661 7.58333333,10.5 C7.58333333,10.1778339 7.71391694,9.8861672 7.92504209,9.67504207 C8.13616723,9.46391693 8.4278339,9.33333333 8.75,9.33333333 Z M5.25,5.83333333 L5.40830976,5.84398362 C5.66715106,5.87909847 5.89902029,5.99910447 6.07495791,6.17504209 C6.28608305,6.38616723 6.41666667,6.6778339 6.41666667,7 C6.41666667,7.3221661 6.28608305,7.61383276 6.07495791,7.82495791 C5.86383276,8.03608305 5.5721661,8.16666667 5.25,8.16666667 C4.9278339,8.16666667 4.63616724,8.03608305 4.42504209,7.82495791 C4.21391695,7.61383276 4.08333333,7.3221661 4.08333333,7 C4.08333333,6.6778339 4.21391695,6.38616723 4.42504209,6.17504209 C4.63616724,5.96391694 4.9278339,5.83333333 5.25,5.83333333 L5.25,5.83333333 Z M8.75,2.33333333 C9.0721661,2.33333333 9.3638328,2.46391694 9.57495793,2.67504209 C9.78608307,2.88616724 9.91666667,3.1778339 9.91666667,3.5 C9.91666667,3.8221661 9.78608307,4.11383276 9.57495793,4.32495791 C9.3638328,4.53608305 9.0721661,4.66666667 8.75,4.66666667 C8.4278339,4.66666667 8.13616723,4.53608305 7.92504209,4.32495791 C7.71391694,4.11383276 7.58333333,3.8221661 7.58333333,3.5 C7.58333333,3.1778339 7.71391694,2.88616724 7.92504209,2.67504209 C8.13616723,2.46391694 8.4278339,2.33333333 8.75,2.33333333 Z" id="3-LW"></path>
        </g>
    </g>
</svg>