<svg xmlns="http://www.w3.org/2000/svg" xmlns:xlink="http://www.w3.org/1999/xlink" fill="none" version="1.1" width="128" height="157" viewBox="0 0 128 157"><defs><clipPath id="master_svg0_312_68998"><rect x="0" y="0" width="128" height="128" rx="0"/></clipPath><clipPath id="master_svg1_312_68988"><rect x="23" y="140" width="82" height="17" rx="0"/></clipPath><linearGradient x1="1" y1="0.5" x2="0" y2="0.5" id="master_svg2_89_5587"><stop offset="0%" stop-color="#40B0FE" stop-opacity="1"/><stop offset="100%" stop-color="#2761F3" stop-opacity="1"/></linearGradient><linearGradient x1="1" y1="0.5" x2="0" y2="0.5" id="master_svg3_89_5587"><stop offset="0%" stop-color="#40B0FE" stop-opacity="1"/><stop offset="100%" stop-color="#2761F3" stop-opacity="1"/></linearGradient><linearGradient x1="1" y1="0.5" x2="0" y2="0.5" id="master_svg4_89_5587"><stop offset="0%" stop-color="#40B0FE" stop-opacity="1"/><stop offset="100%" stop-color="#2761F3" stop-opacity="1"/></linearGradient><linearGradient x1="1" y1="0.5" x2="0" y2="0.5" id="master_svg5_89_5587"><stop offset="0%" stop-color="#40B0FE" stop-opacity="1"/><stop offset="100%" stop-color="#2761F3" stop-opacity="1"/></linearGradient><linearGradient x1="1" y1="0.5" x2="0" y2="0.5" id="master_svg6_89_5587"><stop offset="0%" stop-color="#40B0FE" stop-opacity="1"/><stop offset="100%" stop-color="#2761F3" stop-opacity="1"/></linearGradient><linearGradient x1="1" y1="0.5" x2="0" y2="0.5" id="master_svg7_89_5587"><stop offset="0%" stop-color="#40B0FE" stop-opacity="1"/><stop offset="100%" stop-color="#2761F3" stop-opacity="1"/></linearGradient><linearGradient x1="1" y1="0.5" x2="0" y2="0.5" id="master_svg8_89_5587"><stop offset="0%" stop-color="#40B0FE" stop-opacity="1"/><stop offset="100%" stop-color="#2761F3" stop-opacity="1"/></linearGradient><linearGradient x1="1" y1="0.5" x2="0" y2="0.5" id="master_svg9_89_5587"><stop offset="0%" stop-color="#40B0FE" stop-opacity="1"/><stop offset="100%" stop-color="#2761F3" stop-opacity="1"/></linearGradient></defs><g><g style="opacity:0.20000000298023224;mix-blend-mode:multiply"><g clip-path="url(#master_svg0_312_68998)"><g><g transform="matrix(0.7071068286895752,-0.7071068286895752,0.7071068286895752,0.7071068286895752,12.266690087585744,38.756281333470156)"><ellipse cx="58.14151382446289" cy="15.021331787109375" rx="5.225200176239014" ry="10.450400352478027" fill="#007DFA" fill-opacity="1"/></g><g transform="matrix(0.7071068286895752,-0.7071068286895752,0.7071068286895752,0.7071068286895752,12.266690087585744,38.756281333470156)"><ellipse cx="58.14151382446289" cy="15.021331787109375" rx="5.225200176239014" ry="10.450400352478027" fill="#007DFA" fill-opacity="1"/></g><g transform="matrix(0.7071068286895752,-0.7071068286895752,0.7071068286895752,0.7071068286895752,12.266690087585744,38.756281333470156)"><ellipse cx="58.14151382446289" cy="15.021331787109375" rx="5.225200176239014" ry="10.450400352478027" fill="#007DFA" fill-opacity="1"/></g><g transform="matrix(0.7071068286895752,-0.7071068286895752,0.7071068286895752,0.7071068286895752,-66.55457677432321,71.40485876670971)"><ellipse cx="58.14120864868164" cy="126.49130249023438" rx="5.225200176239014" ry="10.450400352478027" fill="#007DFA" fill-opacity="1"/></g><g transform="matrix(0.7071068286895752,-0.7071068286895752,0.7071068286895752,0.7071068286895752,-16.04449608359471,96.65558014845408)"><ellipse cx="119.10176038742065" cy="72.92039918899536" rx="10.450400352478027" ry="5.225200176239014" fill="#007DFA" fill-opacity="1"/></g><g transform="matrix(0.7071068286895752,-0.7071068286895752,0.7071068286895752,0.7071068286895752,-48.69345913812765,17.833992665877645)"><ellipse cx="7.631209850311279" cy="72.92039918899536" rx="10.450400352478027" ry="5.225200176239014" fill="#007DFA" fill-opacity="1"/></g><g><path d="M108.63624489822388,24.58895838775635Q108.63624489822388,24.845458387756345,108.62994489822388,25.101758387756348Q108.62364489822387,25.357958387756348,108.61104489822388,25.613258387756346Q108.59854489822388,25.868558387756348,108.57964489822388,26.12235838775635Q108.56084489822388,26.376158387756348,108.53584489822387,26.627758387756348Q108.51084489822388,26.879358387756348,108.47964489822388,27.128158387756347Q108.44844489822388,27.37705838775635,108.41124489822388,27.62255838775635Q108.37404489822387,27.86805838775635,108.33084489822387,28.109558387756348Q108.28754489822387,28.35115838775635,108.23854489822388,28.588158387756348Q108.18944489822388,28.825158387756346,108.13456489822387,29.05705838775635Q108.07972489822387,29.288958387756345,108.01926489822388,29.515258387756347Q107.95879489822387,29.741458387756346,107.89284489822387,29.961558387756348Q107.82690489822387,30.181558387756347,107.75563489822387,30.394858387756347Q107.68437489822388,30.608158387756347,107.60796489822388,30.814258387756347Q107.53155489822387,31.020358387756346,107.45017489822388,31.21865838775635Q107.36880489822387,31.41695838775635,107.28266489822387,31.607058387756346Q107.19652489822388,31.797058387756348,107.10581489822388,31.978458387756348Q107.01511489822387,32.15995838775635,106.92007489822387,32.33215838775635Q106.82503489822388,32.504458387756344,106.72587489822388,32.66725838775635Q106.62672489822387,32.82995838775635,106.52369489822388,32.98275838775635Q106.42066489822388,33.13565838775635,106.31400489822387,33.27815838775635Q106.20735489822388,33.42065838775635,106.09733489822388,33.55255838775635Q105.98731489822387,33.68445838775635,105.87418489822387,33.80535838775634Q105.76106489822388,33.92635838775635,105.64510489822388,34.03595838775635Q105.52914489822388,34.14565838775635,105.41064489822388,34.24385838775635Q105.29213489822388,34.342058387756346,105.17136489822387,34.42845838775635Q105.05058489822387,34.51485838775635,104.92784489822388,34.58935838775635Q104.80509489822387,34.66385838775635,104.68066489822388,34.72615838775634Q104.55623489822388,34.788558387756346,104.43043489822388,34.83855838775635Q104.30462489822388,34.88855838775635,104.17774489822388,34.92625838775635Q104.05085489822388,34.963858387756346,103.92320489822387,34.989058387756344Q103.79555489822388,35.014158387756346,103.66743489822387,35.026758387756345Q103.53931489822388,35.03935838775635,103.41104489822388,35.03935838775635Q103.28277489822388,35.03935838775635,103.15465489822388,35.026758387756345Q103.02654489822388,35.014158387756346,102.89888489822388,34.989058387756344Q102.77123489822388,34.963858387756346,102.64434489822388,34.92625838775635Q102.51746489822388,34.88855838775635,102.39165489822388,34.83855838775635Q102.26585489822388,34.788558387756346,102.14142489822387,34.72615838775634Q102.01699489822387,34.66385838775635,101.89425489822388,34.58935838775635Q101.77150489822388,34.51485838775635,101.65072489822387,34.42845838775635Q101.52995489822388,34.342058387756346,101.41144489822388,34.24385838775635Q101.29294489822388,34.14565838775635,101.17698489822388,34.03595838775635Q101.06102489822388,33.92635838775635,100.94790489822388,33.80535838775634Q100.83477489822388,33.68445838775635,100.72475489822388,33.55255838775635Q100.61473489822387,33.42065838775635,100.50807489822388,33.27815838775635Q100.40142489822388,33.13565838775635,100.29839489822388,32.98275838775635Q100.19536489822387,32.82995838775635,100.09621489822388,32.66725838775635Q99.99705489822388,32.504458387756344,99.90201489822388,32.33215838775635Q99.80697489822387,32.15995838775635,99.71627489822387,31.978458387756348Q99.62556489822387,31.797058387756348,99.53942489822387,31.607058387756346Q99.45328489822387,31.41695838775635,99.37191489822388,31.21865838775635Q99.29053489822388,31.020358387756346,99.21412489822387,30.814258387756347Q99.13771389822388,30.608158387756347,99.06644989822388,30.394858387756347Q98.99518589822388,30.181558387756347,98.92924189822388,29.961558387756348Q98.86329689822388,29.741458387756346,98.80282989822388,29.515258387756347Q98.74236289822387,29.288958387756345,98.68751989822388,29.05705838775635Q98.63267689822388,28.825158387756346,98.58358989822388,28.588158387756348Q98.53450189822388,28.35115838775635,98.49128889822387,28.109558387756348Q98.44807589822388,27.86805838775635,98.41083989822388,27.62255838775635Q98.37360489822387,27.37705838775635,98.34243789822388,27.128158387756347Q98.31126989822388,26.879358387756348,98.28624589822388,26.627758387756348Q98.26122109822387,26.376158387756348,98.24239979822387,26.12235838775635Q98.22357849822387,25.868558387756348,98.21100569822387,25.613258387756346Q98.19843289822387,25.357958387756348,98.19213887822387,25.101758387756348Q98.18584489822388,24.845458387756345,98.18584489822388,24.58895838775635Q98.18584489822388,24.332458387756347,98.19213887822387,24.07617838775635Q98.19843289822387,23.819948387756348,98.21100569822387,23.564638387756347Q98.22357849822387,23.30933838775635,98.24239979822387,23.055568387756345Q98.26122109822387,22.80179838775635,98.28624589822388,22.55018838775635Q98.31126989822388,22.298578387756347,98.34243789822388,22.049718387756347Q98.37360489822387,21.800868387756346,98.41083989822388,21.555368387756346Q98.44807589822388,21.309868387756346,98.49128889822387,21.06832838775635Q98.53450189822388,20.82677838775635,98.58358989822388,20.589768387756347Q98.63267689822388,20.35274838775635,98.68751989822388,20.120838387756347Q98.74236289822387,19.888928387756348,98.80282989822388,19.662678387756348Q98.86329689822388,19.436418387756348,98.92924089822388,19.216378387756347Q98.99518589822388,18.996338387756346,99.06644989822388,18.783028387756346Q99.13771389822388,18.569718387756346,99.21412489822387,18.36365838775635Q99.29053489822388,18.157608387756348,99.37191489822388,17.95929838775635Q99.45328489822387,17.76098838775635,99.53942489822387,17.570898387756348Q99.62556489822387,17.380808387756346,99.71627489822387,17.199408387756346Q99.80697489822387,17.018008387756346,99.90201489822388,16.84571838775635Q99.99705489822388,16.67343838775635,100.09621489822388,16.510688387756346Q100.19536489822387,16.347938387756347,100.29839489822388,16.19511838775635Q100.40142489822388,16.042298387756347,100.50807489822388,15.899768387756348Q100.61473489822387,15.757238387756347,100.72475489822388,15.625348387756347Q100.83477489822388,15.493458387756348,100.94790489822388,15.372528387756347Q101.06102489822388,15.251598387756347,101.17698489822388,15.141908387756347Q101.29294489822388,15.032222387756347,101.41144489822388,14.934047387756348Q101.52995489822388,14.835873387756347,101.65072489822387,14.749446387756347Q101.77150489822388,14.663019387756348,101.89425489822388,14.588549387756348Q102.01699489822387,14.514078387756348,102.14142489822387,14.451743387756348Q102.26585489822388,14.389409387756348,102.39165489822388,14.339359387756348Q102.51746489822388,14.289310387756348,102.64434489822388,14.251668387756348Q102.77123489822388,14.214025487756347,102.89888489822388,14.188879887756348Q103.02654489822388,14.163734287756348,103.15465489822388,14.151146387756347Q103.28277489822388,14.138558387756348,103.41104489822388,14.138558387756348Q103.53931489822388,14.138558387756348,103.66743489822387,14.151146387756347Q103.79555489822388,14.163734287756348,103.92320489822387,14.188879887756348Q104.05085489822388,14.214025487756347,104.17774489822388,14.251668387756348Q104.30462489822388,14.289310387756348,104.43043489822388,14.339359387756348Q104.55623489822388,14.389409387756348,104.68066489822388,14.451743387756348Q104.80509489822387,14.514078387756348,104.92784489822388,14.588549387756348Q105.05058489822387,14.663019387756348,105.17136489822387,14.749446387756347Q105.29213489822388,14.835873387756347,105.41064489822388,14.934047387756348Q105.52914489822388,15.032222387756347,105.64510489822388,15.141908387756347Q105.76106489822388,15.251598387756347,105.87418489822387,15.372528387756347Q105.98731489822387,15.493458387756348,106.09733489822388,15.625348387756347Q106.20735489822388,15.757238387756347,106.31401489822387,15.899768387756348Q106.42066489822388,16.042298387756347,106.52369489822388,16.19511838775635Q106.62672489822387,16.347938387756347,106.72587489822388,16.510688387756346Q106.82503489822388,16.67343838775635,106.92007489822387,16.84571838775635Q107.01511489822387,17.018008387756346,107.10581489822388,17.199408387756346Q107.19652489822388,17.380808387756346,107.28266489822387,17.570898387756348Q107.36880489822387,17.76098838775635,107.45017489822388,17.95929838775635Q107.53155489822387,18.157608387756348,107.60796489822388,18.36365838775635Q107.68437489822388,18.569718387756346,107.75563489822387,18.783028387756346Q107.82690489822387,18.996338387756346,107.89284489822387,19.216378387756347Q107.95879489822387,19.436428387756347,108.01926489822388,19.662678387756348Q108.07972489822387,19.888928387756348,108.13456489822387,20.120838387756347Q108.18944489822388,20.35274838775635,108.23854489822388,20.589768387756347Q108.28754489822387,20.82677838775635,108.33084489822387,21.06832838775635Q108.37404489822387,21.309868387756346,108.41124489822388,21.555368387756346Q108.44844489822388,21.800868387756346,108.47964489822388,22.049718387756347Q108.51084489822388,22.298578387756347,108.53584489822387,22.55018838775635Q108.56084489822388,22.80179838775635,108.57964489822388,23.055568387756345Q108.59854489822388,23.30933838775635,108.61104489822388,23.564638387756347Q108.62364489822387,23.819948387756348,108.62994489822388,24.07617838775635Q108.63624489822388,24.332458387756347,108.63624489822388,24.58895838775635Z" fill="#007DFA" fill-opacity="1"/></g><g><ellipse cx="24.58877992630005" cy="103.41122531890869" rx="5.225200653076172" ry="10.450401306152344" fill="#007DFA" fill-opacity="1"/></g><g><ellipse cx="103.41102647781372" cy="103.41136646270752" rx="10.450401306152344" ry="5.225200653076172" fill="#007DFA" fill-opacity="1"/></g><g><ellipse cx="24.58888292312622" cy="24.58910083770752" rx="10.450401306152344" ry="5.225200653076172" fill="#007DFA" fill-opacity="1"/></g></g><g><g transform="matrix(0.7071068286895752,-0.7071068286895752,0.7071068286895752,0.7071068286895752,-7.11983122874426,51.375938823403885)"><ellipse cx="61.06892943382263" cy="39.50756025314331" rx="2.612600088119507" ry="5.225200176239014" fill="#007DFA" fill-opacity="1"/></g><g transform="matrix(0.7071068286895752,-0.7071068286895752,0.7071068286895752,0.7071068286895752,-7.11983122874426,51.375938823403885)"><ellipse cx="61.06892943382263" cy="39.50756025314331" rx="2.612600088119507" ry="5.225200176239014" fill="#007DFA" fill-opacity="1"/></g><g transform="matrix(0.7071068286895752,-0.7071068286895752,0.7071068286895752,0.7071068286895752,-7.11983122874426,51.375938823403885)"><ellipse cx="61.06892943382263" cy="39.50756025314331" rx="2.612600088119507" ry="5.225200176239014" fill="#007DFA" fill-opacity="1"/></g><g transform="matrix(0.7071068286895752,-0.7071068286895752,0.7071068286895752,0.7071068286895752,-46.53111356891077,67.70036991901088)"><ellipse cx="61.06862425804138" cy="95.24340009689331" rx="2.612600088119507" ry="5.225200176239014" fill="#007DFA" fill-opacity="1"/></g><g transform="matrix(0.7071068286895752,-0.7071068286895752,0.7071068286895752,0.7071068286895752,-21.275674326198896,80.32571707076659)"><ellipse cx="91.54908323287964" cy="68.4574601650238" rx="5.225200176239014" ry="2.612600088119507" fill="#007DFA" fill-opacity="1"/></g><g transform="matrix(0.7071068286895752,-0.7071068286895752,0.7071068286895752,0.7071068286895752,-37.60017819944096,40.91486938150865)"><ellipse cx="35.81373167037964" cy="68.4574601650238" rx="5.225200176239014" ry="2.612600088119507" fill="#007DFA" fill-opacity="1"/></g><g><ellipse cx="83.70339012145996" cy="44.29271697998047" rx="2.612600326538086" ry="5.225200653076172" fill="#007DFA" fill-opacity="1"/></g><g><ellipse cx="44.29225730895996" cy="83.70287322998047" rx="2.612600326538086" ry="5.225200653076172" fill="#007DFA" fill-opacity="1"/></g><g><ellipse cx="83.7033805847168" cy="83.70306587219238" rx="5.225200653076172" ry="2.612600326538086" fill="#007DFA" fill-opacity="1"/></g><g><ellipse cx="44.2922477722168" cy="44.29217720031738" rx="5.225200653076172" ry="2.612600326538086" fill="#007DFA" fill-opacity="1"/></g></g><g><g transform="matrix(0.3883199393749237,-0.9215246438980103,0.9215246438980103,0.3883199393749237,0.34175592269264143,52.204730663559644)"><ellipse cx="43.414212226867676" cy="33.682729721069336" rx="3.918900489807129" ry="7.837800979614258" fill="#007DFA" fill-opacity="1"/></g><g transform="matrix(0.3883199393749237,-0.9215246438980103,0.9215246438980103,0.3883199393749237,-51.73811053647603,128.61410065114268)"><ellipse cx="74.93142414093018" cy="111.11779022216797" rx="3.918900489807129" ry="7.837800979614258" fill="#007DFA" fill-opacity="1"/></g><g transform="matrix(0.3883199393749237,-0.9215246438980103,0.9215246438980103,0.3883199393749237,9.04954940798109,121.51386471042878)"><ellipse cx="103.8957347869873" cy="57.85904598236084" rx="7.837800979614258" ry="3.918900489807129" fill="#007DFA" fill-opacity="1"/></g><g transform="matrix(0.3883199393749237,-0.9215246438980103,0.9215246438980103,0.3883199393749237,-67.35698056331,69.43754444684254)"><ellipse cx="26.464765548706055" cy="89.37589168548584" rx="7.837800979614258" ry="3.918900489807129" fill="#007DFA" fill-opacity="1"/></g><g transform="matrix(0.9261999726295471,-0.37703263759613037,0.37703263759613037,0.9261999726295471,-1.9889934324603473,29.221276281662767)"><ellipse cx="77.56783819198608" cy="27.529166221618652" rx="3.918900966644287" ry="7.837801933288574" fill="#007DFA" fill-opacity="1"/></g><g transform="matrix(0.9261999726295471,-0.37703263759613037,0.37703263759613037,0.9261999726295471,-33.43238762637611,22.666436769207507)"><ellipse cx="45.102323055267334" cy="104.57140445709229" rx="3.918900966644287" ry="7.837801933288574" fill="#007DFA" fill-opacity="1"/></g><g transform="matrix(0.9261999726295471,-0.37703263759613037,0.37703263759613037,0.9261999726295471,-23.07368532081,41.230959195593755)"><ellipse cx="101.62217617034912" cy="83.474280834198" rx="7.837801933288574" ry="3.918900966644287" fill="#007DFA" fill-opacity="1"/></g><g transform="matrix(0.9261999726295471,-0.37703263759613037,0.37703263759613037,0.9261999726295471,-16.518875988968148,9.787284928700728)"><ellipse cx="24.57920742034912" cy="51.008702754974365" rx="7.837801933288574" ry="3.918900966644287" fill="#007DFA" fill-opacity="1"/></g></g></g></g><g style="opacity:0.20000000298023224;" clip-path="url(#master_svg1_312_68988)"><g><path d="M28.675060000000002,140L23,152.6977L24.72983,152.6977L26.06514,149.57557L32.51406,149.57557L33.819,152.6977L35.6095,152.6977L30.11658,140L28.675060000000002,140ZM26.65692,148.17135L29.32754,141.92706L29.35788,141.92706L31.90711,148.17135L26.641750000000002,148.17135L26.65692,148.17135Z" fill="url(#master_svg2_89_5587)" fill-opacity="1"/></g><g><path d="M59.8726806640625,152.6977L61.4052506640625,152.6977L61.4052506640625,146.99121L67.4141306640625,146.99121L67.4141306640625,145.58699000000001L61.4052506640625,145.58699000000001L61.4052506640625,141.40422L67.8693506640625,141.40422L67.8693506640625,140L59.8726806640625,140L59.8726806640625,152.6977Z" fill="url(#master_svg3_89_5587)" fill-opacity="1"/></g><g><path d="M77.20136978515625,145.318015C76.80684978515625,144.929619,76.32127978515625,144.630849,75.75983978515625,144.406772C75.19840978515624,144.197633,74.59144978515624,144.078125,73.93896978515625,144.078125C73.28648978515625,144.078125,72.67952978515625,144.182694,72.11808978515624,144.406772C71.55664978515625,144.615911,71.08625978515624,144.929619,70.67656978515625,145.318015C70.28204278515625,145.706425,69.96339178515625,146.169515,69.73577978515625,146.707295C69.50817078515625,147.245085,69.38677978515625,147.842625,69.38677978515625,148.499915C69.38677978515625,149.157205,69.50817078515625,149.754755,69.73577978515625,150.292535C69.96338878515625,150.830325,70.28204278515625,151.293415,70.67656978515625,151.681815C71.07108978515625,152.070215,71.55664978515625,152.368985,72.11808978515624,152.593065C72.67952978515625,152.80220500000001,73.28648978515625,152.921715,73.93896978515625,152.921715C74.59144978515624,152.921715,75.19840978515624,152.817145,75.75983978515625,152.593065C76.32127978515625,152.383925,76.79166978515624,152.070215,77.20136978515625,151.681815C77.59588978515625,151.293415,77.91453978515625,150.830325,78.14214978515625,150.292535C78.36975978515625,149.754745,78.49114978515625,149.157205,78.49114978515625,148.499915C78.49114978515625,147.842625,78.36975978515625,147.245085,78.14214978515625,146.707295C77.91453978515625,146.169515,77.59588978515625,145.706425,77.20136978515625,145.318015ZM76.76131978515625,149.724875C76.62475978515624,150.098335,76.41231978515626,150.426985,76.15435978515625,150.710815C75.88122978515625,150.994645,75.56257978515625,151.218725,75.19839978515625,151.368105C74.83421978515625,151.532435,74.40934978515625,151.607125,73.95413978515624,151.607125C73.49891978515625,151.607125,73.07404978515625,151.532435,72.70986978515624,151.368105C72.34569978515626,151.203785,72.02704978515625,150.979705,71.75390978515625,150.710815C71.48077978515624,150.426985,71.28351978515624,150.098335,71.14695978515626,149.724875C71.01038978515625,149.351415,70.93451978515625,148.933135,70.93451978515625,148.499915C70.93451978515625,148.066705,71.01038978515625,147.648425,71.14695978515626,147.274965C71.28351978515624,146.901495,71.49595978515624,146.572855,71.75390978515625,146.289025C72.02704978515625,146.005195,72.34569978515626,145.781115,72.70986978515624,145.631725C73.07404978515625,145.467405,73.49891978515625,145.392715,73.95413978515624,145.392715C74.40934978515625,145.392715,74.83422978515625,145.467405,75.19839978515625,145.631725C75.56257978515625,145.796055,75.88122978515625,146.020125,76.15435978515625,146.289025C76.42748978515625,146.572855,76.62475978515624,146.901495,76.76131978515625,147.274965C76.89788978515625,147.648425,76.97375978515625,148.066705,76.97375978515625,148.499915C76.97375978515625,148.933135,76.89788978515625,149.351415,76.76131978515625,149.724875Z" fill="url(#master_svg4_89_5587)" fill-opacity="1"/></g><g><path d="M93.64990724609375,145.736295L93.61956724609375,145.736295C93.46782724609375,145.467405,93.28573724609375,145.213455,93.07329724609374,145.004311C92.86086724609375,144.795172,92.60290724609375,144.61591,92.32977724609376,144.481464C92.05664724609375,144.347018,91.76833724609375,144.242448,91.48002724609375,144.182694C91.19172724609375,144.1229404,90.90341724609375,144.078125,90.59993724609375,144.078125C89.91710724609375,144.078125,89.29497724609375,144.182694,88.74871724609375,144.376895C88.18727724609376,144.586034,87.71688724609375,144.869865,87.32236724609375,145.243325C86.92784724609375,145.616785,86.62436724609375,146.079885,86.39675624609374,146.632605C86.18432124609375,147.185335,86.06292724609375,147.797805,86.06292724609375,148.484975C86.06292724609375,149.112395,86.16914424609375,149.680055,86.39675624609374,150.202905C86.60919024609375,150.725755,86.92784124609375,151.188845,87.32236724609375,151.562305C87.71688724609375,151.950705,88.20245724609374,152.249475,88.76389724609375,152.458615C89.32532724609375,152.667755,89.93228724609375,152.787265,90.59993724609375,152.787265C91.17654724609375,152.787265,91.72281724609375,152.667755,92.26906724609375,152.413805C92.81533724609375,152.159845,93.25537724609374,151.771445,93.60437724609375,151.233665L93.63472724609375,151.233665L93.63472724609375,152.309235C93.63472724609375,152.757385,93.58920724609375,153.175665,93.48298724609376,153.579005C93.39194724609375,153.982345,93.20985724609375,154.340825,92.96707724609375,154.669525C92.72429724609376,154.998125,92.39046724609375,155.237225,91.98076724609375,155.416425C91.55589724609375,155.595725,91.03998724609374,155.700225,90.40267724609375,155.700225C89.76536724609375,155.700225,89.17358724609375,155.580725,88.65766724609375,155.32682499999999C88.15692724609374,155.087825,87.67135724609375,154.714325,87.23131724609375,154.236325L86.21467024609375,155.386525C86.82163024609375,155.969125,87.45893724609375,156.387425,88.14175724609375,156.626425C88.82458724609376,156.865425,89.56810724609375,156.985025,90.40268724609375,156.985025C91.90490724609376,156.985025,93.05812724609375,156.581625,93.84716724609375,155.789925C94.63621724609375,154.998125,95.04590724609375,153.832955,95.04590724609375,152.309235L95.04590724609375,144.302202L93.61956724609375,144.302202L93.61956724609375,145.736295L93.64990724609375,145.736295ZM93.45264724609375,149.620305C93.31608724609374,149.978825,93.11881724609376,150.307475,92.86086724609375,150.591305C92.60290724609375,150.875135,92.28425724609374,151.099215,91.90490724609376,151.263535C91.52555724609375,151.427855,91.10068724609376,151.517495,90.61512724609375,151.517495C90.20542724609375,151.517495,89.81090724609375,151.442795,89.44672724609374,151.27847500000001C89.08254724609375,151.129095,88.76389724609375,150.905015,88.49076724609375,150.636125C88.21763724609374,150.367225,88.00519724609374,150.053525,87.83828724609376,149.680055C87.67137724609375,149.306595,87.59550724609375,148.918195,87.59550724609375,148.484975C87.59550724609375,148.051765,87.67137724609375,147.633485,87.80793724609374,147.260025C87.95967724609375,146.886565,88.15693724609375,146.557915,88.41489724609374,146.274085C88.67285724609376,145.990255,88.99150724609375,145.766175,89.35567724609375,145.616785C89.71985724609375,145.452465,90.12954724609375,145.377775,90.58477724609375,145.377775C91.03999724609375,145.377775,91.44968724609375,145.452465,91.82903724609375,145.601855C92.20838724609375,145.751235,92.52703724609376,145.960375,92.80016724609375,146.244205C93.07329724609374,146.513095,93.27056724609375,146.841745,93.42229724609375,147.215205C93.57403724609375,147.588665,93.63473724609375,148.006945,93.63473724609375,148.455105C93.63473724609375,148.858445,93.57403724609375,149.246845,93.43746724609375,149.605365L93.45264724609375,149.620305Z" fill="url(#master_svg5_89_5587)" fill-opacity="1"/></g><g><path d="M104.99997017578124,148.484937578125C104.99997017578124,147.797767578125,104.90892017578125,147.170347578125,104.71167017578125,146.632557578125C104.51440017578125,146.094777578125,104.24127017578125,145.631677578125,103.87710017578125,145.258217578125C103.51292017578125,144.884757578125,103.08805017578125,144.600926578125,102.58732017578124,144.391787578125C102.08657017578125,144.197586578125,101.54032017578125,144.093017578125,100.94853017578124,144.093017578125C100.31123017578125,144.093017578125,99.73461017578126,144.197586578125,99.20352017578125,144.421664578125C98.67244017578125,144.630803578125,98.20204017578125,144.944511578125,97.82269017578125,145.332907578125C97.42817317578125,145.721317578125,97.12469317578125,146.184407578125,96.91225917578124,146.737127578125C96.69982417578125,147.274917578125,96.57843017578125,147.872457578125,96.57843017578125,148.514807578125C96.57843017578125,149.127287578125,96.68464717578125,149.694947578125,96.88191017578124,150.232737578125C97.07917317578125,150.770527578125,97.36747617578125,151.233617578125,97.73165017578125,151.636957578125C98.09583017578124,152.025357578125,98.55105017578126,152.339067578125,99.08213017578124,152.578077578125C99.61322017578125,152.81709757812501,100.22018017578125,152.921667578125,100.88783017578125,152.921667578125C101.69205017578125,152.921667578125,102.39005017578125,152.787217578125,102.99701017578126,152.533267578125C103.60396017578125,152.27930757812499,104.16540017578124,151.831157578125,104.66614017578125,151.173857578125L103.58879017578126,150.352247578125C103.25496017578125,150.770527578125,102.86044017578125,151.084227578125,102.43557017578125,151.308307578125C102.01071017578126,151.517447578125,101.49479017578125,151.636957578125,100.87266017578125,151.636957578125C100.47814017578125,151.636957578125,100.12913017578126,151.562257578125,99.79531017578125,151.427817578125C99.46148017578125,151.278427578125,99.18835017578125,151.084227578125,98.94557017578126,150.845217578125C98.70278017578126,150.606197578125,98.50552017578126,150.307427578125,98.35378017578125,149.978777578125C98.20205017578125,149.650137578125,98.11100017578126,149.306547578125,98.09583017578124,148.948027578125L104.98480017578125,148.948027578125L104.98480017578125,148.499867578125L104.99997017578124,148.484937578125ZM98.11100017578126,147.752947578125C98.20204017578125,147.035897578125,98.50552017578126,146.468237578125,98.99109017578125,146.035017578125C99.47666017578125,145.601807578125,100.11396017578124,145.392667578125,100.90300017578124,145.392667578125C101.69204017578124,145.392667578125,102.31418017578125,145.601807578125,102.75423017578125,146.035017578125C103.19427017578126,146.468237578125,103.43705017578125,147.035897578125,103.46740017578125,147.752947578125L98.11100017578126,147.752947578125Z" fill="url(#master_svg6_89_5587)" fill-opacity="1"/></g><g><path d="M44.92633537109375,145.52748765625C44.53181537109375,145.13909165625,44.04624537109375,144.84032165625,43.48481537109375,144.61624465625C42.92337537109375,144.40710565625,42.31641537109375,144.28759765625,41.66393537109375,144.28759765625C41.01145537109375,144.28759765625,40.40449537109375,144.39216665625,39.84306537109375,144.61624465625C39.28162537109375,144.82538365625,38.81123537109375,145.13909165625,38.40153537109375,145.52748765625C38.00701737109375,145.91589765625,37.68836437109375,146.37898765625,37.46075537109375,146.91676765625C37.23314637109375,147.45455765625,37.11175537109375,148.05209765625,37.11175537109375,148.70938765625L37.11175537109375,156.77619765625L38.53810537109375,156.77619765625L38.53810537109375,151.99585765625C38.91745537109375,152.32450765625,39.34232537109375,152.60833765625,39.84306537109375,152.80253765625C40.40449537109375,153.01167765625001,41.01145537109375,153.13118765625,41.66393537109375,153.13118765625C42.31641537109375,153.13118765625,42.92337537109375,153.02661765625,43.48481537109375,152.80253765625C44.04624537109375,152.59339765625,44.51663537109375,152.27968765625,44.92633537109375,151.89128765625C45.32085537109375,151.50288765625,45.63951537109375,151.03979765625,45.867115371093746,150.50200765625C46.09472537109375,149.96421765625,46.21611537109375,149.36667765625,46.21611537109375,148.70938765625C46.21611537109375,148.05209765625,46.09472537109375,147.45455765625,45.867115371093746,146.91676765625C45.63951537109375,146.37898765625,45.32085537109375,145.91589765625,44.92633537109375,145.52748765625ZM44.486295371093746,149.93434765625C44.34972537109375,150.30780765625,44.13729537109375,150.63645765625,43.87933537109375,150.92028765625C43.60620537109375,151.20411765625,43.28754537109375,151.42819765625,42.92337537109375,151.57757765625C42.55920537109375,151.74190765625,42.13432537109375,151.81659765625,41.67911537109375,151.81659765625C41.22389537109375,151.81659765625,40.79902537109375,151.74190765625,40.43484537109375,151.57757765625C40.07067537109375,151.41325765625,39.75202537109375,151.18917765625,39.47888537109375,150.92028765625C39.20575537109375,150.63645765625,39.00849537109375,150.30780765625,38.87193537109375,149.93434765625C38.73536537109375,149.56088765625,38.65949537109375,149.14260765625,38.65949537109375,148.70938765625C38.65949537109375,148.27617765625,38.73536537109375,147.85789765625,38.87193537109375,147.48443765625C39.00849537109375,147.11096765625,39.22093537109375,146.78232765625,39.47888537109375,146.49849765625C39.75202537109375,146.21465765625,40.07067537109375,145.99058765625,40.43484537109375,145.84119765625C40.79902537109375,145.67687765625,41.22389537109375,145.60218765625,41.67911537109375,145.60218765625C42.13432537109375,145.60218765625,42.55920537109375,145.67687765625,42.92337537109375,145.84119765625C43.28754537109375,146.00552765625,43.60620537109375,146.22959765625,43.87933537109375,146.49849765625C44.15246537109375,146.78232765625,44.34972537109375,147.11096765625,44.486295371093746,147.48443765625C44.62285537109375,147.85789765625,44.69872537109375,148.27617765625,44.69872537109375,148.70938765625C44.69872537109375,149.14260765625,44.62285537109375,149.56088765625,44.486295371093746,149.93434765625Z" fill="url(#master_svg7_89_5587)" fill-opacity="1"/></g><g><path d="M55.5481105078125,145.52748765625C55.1535805078125,145.13909165625,54.6680205078125,144.84032165625,54.1065805078125,144.61624465625C53.5451405078125,144.40710565625,52.9381905078125,144.28759765625,52.2857105078125,144.28759765625C51.6332305078125,144.28759765625,51.0262705078125,144.39216665625,50.4648305078125,144.61624465625C49.9033905078125,144.82538365625,49.4330005078125,145.13909165625,49.023310507812496,145.52748765625C48.6287835078125,145.91589765625,48.3101325078125,146.37898765625,48.0825205078125,146.91676765625C47.8549115078125,147.45455765625,47.7335205078125,148.05209765625,47.7335205078125,148.70938765625L47.7335205078125,156.77619765625L49.1598705078125,156.77619765625L49.1598705078125,151.99585765625C49.5392205078125,152.32450765625,49.9640905078125,152.60833765625,50.4648305078125,152.80253765625C51.0262705078125,153.01167765625001,51.6332305078125,153.13118765625,52.2857105078125,153.13118765625C52.9381905078125,153.13118765625,53.5451405078125,153.02661765625,54.1065805078125,152.80253765625C54.6680205078125,152.59339765625,55.1384105078125,152.27968765625,55.5481105078125,151.89128765625C55.9426305078125,151.50288765625,56.2612805078125,151.03979765625,56.4888905078125,150.50200765625C56.7165005078125,149.96421765625,56.8378905078125,149.36667765625,56.8378905078125,148.70938765625C56.8378905078125,148.05209765625,56.7165005078125,147.45455765625,56.4888905078125,146.91676765625C56.2612805078125,146.37898765625,55.9426305078125,145.91589765625,55.5481105078125,145.52748765625ZM55.108060507812496,149.93434765625C54.9715005078125,150.30780765625,54.7590605078125,150.63645765625,54.5011005078125,150.92028765625C54.2279705078125,151.20411765625,53.9093205078125,151.42819765625,53.5451505078125,151.57757765625C53.1809705078125,151.74190765625,52.7561005078125,151.81659765625,52.3008805078125,151.81659765625C51.8456705078125,151.81659765625,51.4207905078125,151.74190765625,51.0566205078125,151.57757765625C50.6924505078125,151.41325765625,50.3737905078125,151.18917765625,50.1006605078125,150.92028765625C49.8275305078125,150.63645765625,49.6302705078125,150.30780765625,49.4937105078125,149.93434765625C49.3571405078125,149.56088765625,49.2812705078125,149.14260765625,49.2812705078125,148.70938765625C49.2812705078125,148.27617765625,49.3571405078125,147.85789765625,49.4937105078125,147.48443765625C49.6302705078125,147.11096765625,49.8427105078125,146.78232765625,50.1006605078125,146.49849765625C50.3737905078125,146.21465765625,50.6924505078125,145.99058765625,51.0566205078125,145.84119765625C51.4207905078125,145.67687765625,51.8456705078125,145.60218765625,52.3008805078125,145.60218765625C52.7561005078125,145.60218765625,53.1809705078125,145.67687765625,53.5451505078125,145.84119765625C53.9093205078125,146.00552765625,54.227980507812504,146.22959765625,54.5011005078125,146.49849765625C54.7742405078125,146.78232765625,54.9715005078125,147.11096765625,55.108060507812496,147.48443765625C55.2446305078125,147.85789765625,55.3205005078125,148.27617765625,55.3205005078125,148.70938765625C55.3205005078125,149.14260765625,55.2446305078125,149.56088765625,55.108060507812496,149.93434765625Z" fill="url(#master_svg8_89_5587)" fill-opacity="1"/></g><g><path d="M81.298324921875,145.527158671875C80.903807921875,145.915558671875,80.585150921875,146.378648671875,80.357544921875,146.916438671875C80.129933921875,147.454218671875,80.008544921875,148.051758671875,80.008544921875,148.709058671875L80.008544921875,152.906768671875L81.541114921875,152.906768671875L81.541114921875,148.709058671875C81.541114921875,148.260898671875,81.616974921875,147.857558671875,81.753544921875,147.484098671875C81.890114921875,147.110638671875,82.102544921875,146.781988671875,82.360504921875,146.498158671875C82.633634921875,146.214328671875,82.952284921875,145.990248671875,83.316464921875,145.840868671875C83.680644921875,145.676538671875,84.105514921875,145.601848671875,84.56072492187499,145.601848671875L84.56072492187499,144.317138671875C83.908244921875,144.317138671875,83.301284921875,144.421707671875,82.739854921875,144.645785671875C82.178414921875,144.854924671875,81.708024921875,145.168632671875,81.298324921875,145.557028671875L81.298324921875,145.527158671875Z" fill="url(#master_svg9_89_5587)" fill-opacity="1"/></g></g></g></svg>