<svg xmlns="http://www.w3.org/2000/svg" xmlns:xlink="http://www.w3.org/1999/xlink" fill="none" version="1.1" width="1em"
    height="1em" viewBox="0 0 44 44">
    <defs>
        <clipPath id="master_svg0_2062_02157">
            <rect x="6" y="6" width="32" height="32" rx="0" />
        </clipPath>
    </defs>
    <g>
        <g>
            <rect x="0" y="0" width="44" height="44" rx="4" fill="#FAEAE9" fill-opacity="1" />
        </g>
        <g>
            <g clip-path="url(#master_svg0_2062_02157)">
                <g>
                    <path
                        d="M20.801405312500002,23.250958125Q23.393195312499998,25.842728125,20.801405312500002,28.434498125L17.4296153125,31.806288125000002Q14.8378453125,34.398078125,12.2460753125,31.806288125000002Q9.6543153125,29.214528125,12.2460753125,26.622758125L15.6178753125,23.250958125Q18.2096453125,20.659198125,20.801405312500002,23.250958125Z"
                        fill="#FC8FA9" fill-opacity="1" />
                </g>
                <g>
                    <path
                        d="M31.0711671875,19.203755L28.763367187500002,21.511575C28.4831671875,21.791975,28.074667187499998,21.901474999999998,27.6918671875,21.798775L24.0218271875,20.815625C23.6390871875,20.712845,23.3400771875,20.413955,23.2371371875,20.031255L22.2540171875,16.360934999999998C22.1513171875,15.978095,22.2608171875,15.569555000000001,22.5412071875,15.289375L24.8490171875,12.981255C25.4074671875,12.423125,25.0364671875,11.4700012,24.2471371875,11.4325012C21.748347187500002,11.309554,19.3157071875,12.258057,17.5596371875,14.040005C14.1627661875,17.477505,14.1846411875,23.055275,17.6096371875,26.466575C21.0496371875,29.893775,26.6164671875,29.889675,30.051467187500002,26.454675C31.8093671875,24.701075,32.7425671875,22.285275,32.620267187500005,19.805315C32.5824671875,19.016875,31.6296671875,18.645625,31.0711671875,19.203755Z"
                        fill="#FE3F6A" fill-opacity="1" />
                </g>
                <g>
                    <path
                        d="M20.802028749999998,23.24976953125C19.37064875,21.81843753125,17.04997875,21.81843753125,15.61859375,23.24976953125L15.57421875,23.29413953125C16.46344475,25.69467953125,18.35444875,27.58864953125,20.75358875,28.48163953125L20.802028749999998,28.43351953125C22.233228750000002,27.00195953125,22.233228750000002,24.68132953125,20.802028749999998,23.24976953125Z"
                        fill="#DE1342" fill-opacity="1" />
                </g>
            </g>
        </g>
    </g>
</svg>