<svg xmlns="http://www.w3.org/2000/svg" xmlns:xlink="http://www.w3.org/1999/xlink" fill="none" version="1.1" width="1em"
    height="1em" viewBox="0 0 44 44">
    <defs>
        <clipPath id="master_svg0_2062_02308">
            <rect x="6" y="6" width="32" height="32" rx="0" />
        </clipPath>
    </defs>
    <g>
        <g>
            <g>
                <rect x="0" y="0" width="44" height="44" rx="4" fill="#EEF6FF" fill-opacity="1" />
            </g>
        </g>
        <g>
            <g clip-path="url(#master_svg0_2062_02308)">
                <g>
                    <path
                        d="M32.28281586914063,25.90242484375Q32.28281586914063,26.04498484375,32.27581586914063,26.18736484375Q32.268815869140624,26.32975484375,32.254915869140625,26.47162484375Q32.24091586914062,26.61350484375,32.220015869140624,26.75451484375Q32.19911586914063,26.89553484375,32.17131586914063,27.03535484375Q32.14351586914063,27.17517484375,32.10881586914063,27.31346484375Q32.07421586914062,27.45174484375,32.03281586914063,27.58816484375Q31.991415869140624,27.72458484375,31.943415869140622,27.85881484375Q31.895415869140624,27.99303484375,31.840915869140623,28.12474484375Q31.786315869140623,28.25645484375,31.725415869140626,28.38532484375Q31.664415869140626,28.514194843749998,31.597315869140623,28.639924843750002Q31.530115869140623,28.76564484375,31.456815869140627,28.88792484375Q31.383515869140624,29.01020484375,31.304315869140623,29.12873484375Q31.225215869140627,29.24726484375,31.140315869140625,29.36177484375Q31.055315869140625,29.476274843749998,30.964915869140626,29.58647484375Q30.874515869140623,29.69667484375,30.778815869140622,29.80230484375Q30.683115869140625,29.90793484375,30.582315869140626,30.00873484375Q30.481535869140625,30.10951484375,30.375925869140623,30.20531484375Q30.270315869140624,30.30101484375,30.160145869140624,30.39141484375Q30.049965869140625,30.481914843749998,29.935485869140624,30.566814843750002Q29.821005869140627,30.65171484375,29.702505869140623,30.73091484375Q29.583995869140622,30.81011484375,29.461745869140625,30.88341484375Q29.339495869140627,30.95671484375,29.213795869140625,31.02391484375Q29.088095869140624,31.09111484375,28.959255869140627,31.15211484375Q28.830405869140627,31.213014843750003,28.698735869140627,31.26761484375Q28.567055869140624,31.32211484375,28.432855869140624,31.37021484375Q28.298655869140624,31.41821484375,28.162265869140626,31.45961484375Q28.025875869140627,31.50091484375,27.887625869140624,31.53561484375Q27.749365869140625,31.57021484375,27.609575869140624,31.59801484375Q27.469785869140626,31.62581484375,27.328805869140623,31.64681484375Q27.187815869140625,31.667714843749998,27.045975869140626,31.68171484375Q26.904135869140624,31.69561484375,26.761775869140624,31.70261484375Q26.619425869140624,31.70961484375,26.476895869140627,31.70961484375Q26.334365869140626,31.70961484375,26.192005869140626,31.70261484375Q26.049655869140626,31.69561484375,25.907815869140624,31.68171484375Q25.765965869140626,31.667714843749998,25.624985869140623,31.64681484375Q25.483995869140625,31.62581484375,25.344215869140626,31.59801484375Q25.204425869140625,31.57021484375,25.066165869140626,31.53561484375Q24.927905869140623,31.50091484375,24.791515869140625,31.45961484375Q24.655125869140626,31.41821484375,24.520935869140626,31.37021484375Q24.386735869140626,31.32211484375,24.255055869140627,31.26761484375Q24.123375869140624,31.213014843750003,23.994535869140627,31.15211484375Q23.865685869140624,31.09111484375,23.739995869140625,31.02391484375Q23.614295869140626,30.95671484375,23.492045869140625,30.88341484375Q23.369795869140624,30.81011484375,23.251285869140624,30.73091484375Q23.132775869140623,30.65171484375,23.018295869140626,30.566814843750002Q22.903815869140626,30.481914843749998,22.793645869140626,30.39141484375Q22.683465869140626,30.30101484375,22.577865869140624,30.20531484375Q22.472255869140625,30.10951484375,22.371475869140625,30.00873484375Q22.270685869140625,29.90793484375,22.174975869140624,29.80230484375Q22.079255869140624,29.69667484375,21.988835869140626,29.58647484375Q21.898425869140624,29.476274843749998,21.813515869140623,29.36177484375Q21.728615869140626,29.24726484375,21.649429869140626,29.12873484375Q21.570245869140624,29.01020484375,21.496971869140626,28.88792484375Q21.423697869140625,28.76564484375,21.356510869140624,28.639924843750002Q21.289322869140626,28.514194843749998,21.228384869140626,28.38532484375Q21.167445869140625,28.25645484375,21.112902869140626,28.12474484375Q21.058359869140624,27.99303484375,21.010343869140627,27.85881484375Q20.962327869140626,27.72458484375,20.920953869140625,27.58816484375Q20.879580869140625,27.45174484375,20.844948869140627,27.31346484375Q20.810317869140626,27.17517484375,20.782511869140624,27.03535484375Q20.754705869140626,26.89553484375,20.733792669140627,26.75451484375Q20.712879469140624,26.61350484375,20.698909369140626,26.47163484375Q20.684939169140623,26.32975484375,20.677945659140626,26.18736484375Q20.670952149140625,26.04498484375,20.670952149140625,25.90242484375Q20.670952149140625,25.75986484375,20.677945659140626,25.61747484375Q20.684939169140623,25.47509484375,20.698909369140626,25.33321484375Q20.712879469140624,25.19134484375,20.733792669140627,25.05032484375Q20.754705869140626,24.90931484375,20.782511869140624,24.76949484375Q20.810317869140626,24.62967484375,20.844948869140627,24.491384843749998Q20.879580869140625,24.35309484375,20.920953869140625,24.21667484375Q20.962327869140626,24.08025484375,21.010343869140627,23.94603484375Q21.058359869140624,23.81180484375,21.112902869140626,23.68010484375Q21.167445869140625,23.54839484375,21.228384869140626,23.41952484375Q21.289322869140626,23.29065484375,21.356510869140624,23.16492484375Q21.423697869140625,23.03919484375,21.496971869140626,22.91692484375Q21.570245869140624,22.79464484375,21.649429869140626,22.67611484375Q21.728615869140626,22.55757484375,21.813515869140623,22.44307484375Q21.898425869140624,22.32856484375,21.988835869140626,22.21836484375Q22.079255869140624,22.10816484375,22.174975869140624,22.00254484375Q22.270685869140625,21.89691484375,22.371475869140625,21.79610484375Q22.472255869140625,21.69530484375,22.577865869140624,21.59956484375Q22.683465869140626,21.50382484375,22.793645869140626,21.413394843749998Q22.903815869140626,21.32295484375,23.018295869140626,21.23802484375Q23.132775869140623,21.15310484375,23.251285869140624,21.07390584375Q23.369795869140624,20.99470384375,23.492045869140625,20.92141484375Q23.614295869140626,20.84812484375,23.739995869140625,20.780922843749998Q23.865685869140624,20.71372084375,23.994535869140627,20.65276884375Q24.123375869140624,20.59181684375,24.255055869140627,20.53726184375Q24.386735869140626,20.48270684375,24.520935869140626,20.43468084375Q24.655125869140626,20.38665384375,24.791515869140625,20.34527084375Q24.927905869140623,20.30388884375,25.066165869140626,20.26924984375Q25.204425869140625,20.23461084375,25.344215869140626,20.20679884375Q25.483995869140625,20.17898684375,25.624985869140623,20.15806914375Q25.765965869140626,20.13715134375,25.907815869140624,20.12317814375Q26.049655869140626,20.10920494375,26.192005869140626,20.10220988375Q26.334365869140626,20.09521484375,26.476895869140627,20.09521484375Q26.619425869140624,20.09521484375,26.761775869140624,20.10220988375Q26.904135869140624,20.10920494375,27.045975869140626,20.12317814375Q27.187815869140625,20.13715134375,27.328805869140623,20.15806914375Q27.469785869140626,20.17898684375,27.609575869140624,20.20679884375Q27.749365869140625,20.23461084375,27.887625869140624,20.26924984375Q28.025875869140627,20.30388884375,28.162265869140626,20.34527084375Q28.298655869140624,20.38665384375,28.432855869140624,20.43468084375Q28.567055869140624,20.48270684375,28.698735869140627,20.53726184375Q28.830405869140627,20.59181684375,28.959255869140627,20.65276884375Q29.088095869140624,20.71372084375,29.213795869140625,20.780922843749998Q29.339495869140627,20.84812484375,29.461745869140625,20.92141484375Q29.583995869140622,20.99470384375,29.702505869140623,21.07390584375Q29.821005869140627,21.15310484375,29.935485869140624,21.23802484375Q30.049965869140625,21.32295484375,30.160145869140624,21.413394843749998Q30.270315869140624,21.50382484375,30.375925869140623,21.59956484375Q30.481535869140625,21.69530484375,30.582315869140626,21.79610484375Q30.683115869140625,21.89691484375,30.778815869140622,22.00254484375Q30.874515869140623,22.10816484375,30.964915869140626,22.21836484375Q31.055415869140624,22.32856484375,31.140315869140625,22.44307484375Q31.225215869140627,22.55757484375,31.304315869140623,22.67611484375Q31.383515869140624,22.79464484375,31.456815869140627,22.91692484375Q31.530115869140623,23.03919484375,31.597315869140623,23.16492484375Q31.664415869140626,23.29065484375,31.725415869140626,23.41952484375Q31.786315869140623,23.54839484375,31.840915869140623,23.68010484375Q31.895415869140624,23.81180484375,31.943415869140622,23.94603484375Q31.991415869140624,24.08025484375,32.03281586914063,24.21667484375Q32.07421586914062,24.35309484375,32.10881586914063,24.491384843749998Q32.14351586914063,24.62967484375,32.17131586914063,24.76949484375Q32.19911586914063,24.90931484375,32.220015869140624,25.05032484375Q32.24091586914062,25.19134484375,32.254915869140625,25.33321484375Q32.268815869140624,25.47509484375,32.27581586914063,25.61747484375Q32.28281586914063,25.75986484375,32.28281586914063,25.90242484375Z"
                        fill="#3BDBFF" fill-opacity="1" />
                </g>
                <g>
                    <path
                        d="M32.28281586914063,18.12898734375Q32.28281586914063,18.27154734375,32.27581586914063,18.41392734375Q32.268815869140624,18.55631734375,32.254915869140625,18.69818734375Q32.24091586914062,18.84006734375,32.220015869140624,18.98107734375Q32.19911586914063,19.12209734375,32.17131586914063,19.26191734375Q32.14351586914063,19.40173734375,32.10881586914063,19.54002734375Q32.07421586914062,19.67830734375,32.03281586914063,19.81472734375Q31.991415869140624,19.95114734375,31.943415869140622,20.08537734375Q31.895415869140624,20.21959734375,31.840915869140623,20.35130734375Q31.786315869140623,20.48301734375,31.725415869140626,20.61188734375Q31.664415869140626,20.740757343749998,31.597315869140623,20.866487343750002Q31.530115869140623,20.99220734375,31.456815869140627,21.11448734375Q31.383515869140624,21.23676734375,31.304315869140623,21.35529734375Q31.225215869140627,21.47382734375,31.140315869140625,21.58833734375Q31.055315869140625,21.702837343749998,30.964915869140626,21.81303734375Q30.874515869140623,21.92323734375,30.778815869140622,22.02886734375Q30.683115869140625,22.13449734375,30.582315869140626,22.23529734375Q30.481535869140625,22.33607734375,30.375925869140623,22.43187734375Q30.270315869140624,22.52757734375,30.160145869140624,22.61797734375Q30.049965869140625,22.708477343749998,29.935485869140624,22.793377343750002Q29.821005869140627,22.87827734375,29.702505869140623,22.95747734375Q29.583995869140622,23.03667734375,29.461745869140625,23.10997734375Q29.339495869140627,23.18327734375,29.213795869140625,23.25047734375Q29.088095869140624,23.31767734375,28.959255869140627,23.37867734375Q28.830405869140627,23.439577343750003,28.698735869140627,23.49417734375Q28.567055869140624,23.54867734375,28.432855869140624,23.59677734375Q28.298655869140624,23.64477734375,28.162265869140626,23.68617734375Q28.025875869140627,23.72747734375,27.887625869140624,23.76217734375Q27.749365869140625,23.79677734375,27.609575869140624,23.82457734375Q27.469785869140626,23.85237734375,27.328805869140623,23.87337734375Q27.187815869140625,23.894277343749998,27.045975869140626,23.90827734375Q26.904135869140624,23.92217734375,26.761775869140624,23.92917734375Q26.619425869140624,23.93617734375,26.476895869140627,23.93617734375Q26.334365869140626,23.93617734375,26.192005869140626,23.92917734375Q26.049655869140626,23.92217734375,25.907815869140624,23.90827734375Q25.765965869140626,23.894277343749998,25.624985869140623,23.87337734375Q25.483995869140625,23.85237734375,25.344215869140626,23.82457734375Q25.204425869140625,23.79677734375,25.066165869140626,23.76217734375Q24.927905869140623,23.72747734375,24.791515869140625,23.68617734375Q24.655125869140626,23.64477734375,24.520935869140626,23.59677734375Q24.386735869140626,23.54867734375,24.255055869140627,23.49417734375Q24.123375869140624,23.439577343750003,23.994535869140627,23.37867734375Q23.865685869140624,23.31767734375,23.739995869140625,23.25047734375Q23.614295869140626,23.18327734375,23.492045869140625,23.10997734375Q23.369795869140624,23.03667734375,23.251285869140624,22.95747734375Q23.132775869140623,22.87827734375,23.018295869140626,22.793377343750002Q22.903815869140626,22.708477343749998,22.793645869140626,22.61797734375Q22.683465869140626,22.52757734375,22.577865869140624,22.43187734375Q22.472255869140625,22.33607734375,22.371475869140625,22.23529734375Q22.270685869140625,22.13449734375,22.174975869140624,22.02886734375Q22.079255869140624,21.92323734375,21.988835869140626,21.81303734375Q21.898425869140624,21.702837343749998,21.813515869140623,21.58833734375Q21.728615869140626,21.47382734375,21.649429869140626,21.35529734375Q21.570245869140624,21.23676734375,21.496971869140626,21.11448734375Q21.423697869140625,20.99220734375,21.356510869140624,20.866487343750002Q21.289322869140626,20.740757343749998,21.228384869140626,20.61188734375Q21.167445869140625,20.48301734375,21.112902869140626,20.35130734375Q21.058359869140624,20.21959734375,21.010343869140627,20.08537734375Q20.962327869140626,19.95114734375,20.920953869140625,19.81472734375Q20.879580869140625,19.67830734375,20.844948869140627,19.54002734375Q20.810317869140626,19.40173734375,20.782511869140624,19.26191734375Q20.754705869140626,19.12209734375,20.733792669140627,18.98107734375Q20.712879469140624,18.84006734375,20.698909369140626,18.69819734375Q20.684939169140623,18.55631734375,20.677945659140626,18.41392734375Q20.670952149140625,18.27154734375,20.670952149140625,18.12898734375Q20.670952149140625,17.98642734375,20.677945659140626,17.84403734375Q20.684939169140623,17.70165734375,20.698909369140626,17.55977734375Q20.712879469140624,17.41790734375,20.733792669140627,17.27688734375Q20.754705869140626,17.13587734375,20.782511869140624,16.99605734375Q20.810317869140626,16.85623734375,20.844948869140627,16.717947343749998Q20.879580869140625,16.57965734375,20.920953869140625,16.44323734375Q20.962327869140626,16.30681734375,21.010343869140627,16.17259734375Q21.058359869140624,16.03836734375,21.112902869140626,15.90666734375Q21.167445869140625,15.77495734375,21.228384869140626,15.64608734375Q21.289322869140626,15.51721734375,21.356510869140624,15.39148734375Q21.423697869140625,15.26575734375,21.496971869140626,15.14348734375Q21.570245869140624,15.02120734375,21.649429869140626,14.90267734375Q21.728615869140626,14.78413734375,21.813515869140623,14.66963734375Q21.898425869140624,14.55512734375,21.988835869140626,14.444927343749999Q22.079255869140624,14.33472734375,22.174975869140624,14.22910734375Q22.270685869140625,14.12347734375,22.371475869140625,14.02266734375Q22.472255869140625,13.92186734375,22.577865869140624,13.82612734375Q22.683465869140626,13.73038734375,22.793645869140626,13.63995734375Q22.903815869140626,13.54951734375,23.018295869140626,13.46458734375Q23.132775869140623,13.37966734375,23.251285869140624,13.30046834375Q23.369795869140624,13.221266343749999,23.492045869140625,13.14797734375Q23.614295869140626,13.07468734375,23.739995869140625,13.00748534375Q23.865685869140624,12.94028334375,23.994535869140627,12.87933134375Q24.123375869140624,12.81837934375,24.255055869140627,12.76382434375Q24.386735869140626,12.70926934375,24.520935869140626,12.66124334375Q24.655125869140626,12.61321634375,24.791515869140625,12.57183334375Q24.927905869140623,12.53045134375,25.066165869140626,12.49581234375Q25.204425869140625,12.46117334375,25.344215869140626,12.43336134375Q25.483995869140625,12.40554934375,25.624985869140623,12.38463164375Q25.765965869140626,12.36371384375,25.907815869140624,12.34974064375Q26.049655869140626,12.33576744375,26.192005869140626,12.32877238375Q26.334365869140626,12.32177734375,26.476895869140627,12.32177734375Q26.619425869140624,12.32177734375,26.761775869140624,12.32877238375Q26.904135869140624,12.33576744375,27.045975869140626,12.34974064375Q27.187815869140625,12.36371384375,27.328805869140623,12.38463164375Q27.469785869140626,12.40554934375,27.609575869140624,12.43336134375Q27.749365869140625,12.46117334375,27.887625869140624,12.49581234375Q28.025875869140627,12.53045134375,28.162265869140626,12.57183334375Q28.298655869140624,12.61321634375,28.432855869140624,12.66124334375Q28.567055869140624,12.70926934375,28.698735869140627,12.76382434375Q28.830405869140627,12.81837934375,28.959255869140627,12.87933134375Q29.088095869140624,12.94028334375,29.213795869140625,13.00748534375Q29.339495869140627,13.07468734375,29.461745869140625,13.14797734375Q29.583995869140622,13.221266343749999,29.702505869140623,13.30046834375Q29.821005869140627,13.37966734375,29.935485869140624,13.46458734375Q30.049965869140625,13.54951734375,30.160145869140624,13.63995734375Q30.270315869140624,13.73038734375,30.375925869140623,13.82612734375Q30.481535869140625,13.92186734375,30.582315869140626,14.02266734375Q30.683115869140625,14.12347734375,30.778815869140622,14.22910734375Q30.874515869140623,14.33472734375,30.964915869140626,14.444927343749999Q31.055415869140624,14.55512734375,31.140315869140625,14.66963734375Q31.225215869140627,14.78413734375,31.304315869140623,14.90267734375Q31.383515869140624,15.02120734375,31.456815869140627,15.14348734375Q31.530115869140623,15.26575734375,31.597315869140623,15.39148734375Q31.664415869140626,15.51721734375,31.725415869140626,15.64608734375Q31.786315869140623,15.77495734375,31.840915869140623,15.90666734375Q31.895415869140624,16.03836734375,31.943415869140622,16.17259734375Q31.991415869140624,16.30681734375,32.03281586914063,16.44323734375Q32.07421586914062,16.57965734375,32.10881586914063,16.717947343749998Q32.14351586914063,16.85623734375,32.17131586914063,16.99605734375Q32.19911586914063,17.13587734375,32.220015869140624,17.27688734375Q32.24091586914062,17.41790734375,32.254915869140625,17.55977734375Q32.268815869140624,17.70165734375,32.27581586914063,17.84403734375Q32.28281586914063,17.98642734375,32.28281586914063,18.12898734375Z"
                        fill="#1C95FF" fill-opacity="1" />
                </g>
                <g>
                    <path
                        d="M23.6087,25.90251453125Q23.6087,26.04500453125,23.6018,26.18732453125Q23.5948,26.32964453125,23.5808,26.47144453125Q23.5668,26.61325453125,23.5459,26.75419453125Q23.525,26.89514453125,23.4972,27.03489453125Q23.4694,27.17464453125,23.4348,27.31286453125Q23.400199999999998,27.45108453125,23.358800000000002,27.58744453125Q23.317500000000003,27.72379453125,23.269399999999997,27.85795453125Q23.2214,27.99211453125,23.1669,28.12375453125Q23.1124,28.255394531249998,23.0515,28.38420453125Q22.9905,28.51301453125,22.9234,28.63868453125Q22.8562,28.76434453125,22.783,28.886564531250002Q22.709699999999998,29.008774531249998,22.630499999999998,29.12725453125Q22.5514,29.245724531249998,22.4665,29.36017453125Q22.3816,29.47462453125,22.2912,29.584774531249998Q22.2008,29.69491453125,22.1051,29.80049453125Q22.0094,29.90607453125,21.90869,30.00682453125Q21.80793,30.10754453125,21.70235,30.20324453125Q21.596780000000003,30.29894453125,21.486629999999998,30.38934453125Q21.37648,30.47974453125,21.26204,30.56464453125Q21.14759,30.64954453125,21.02911,30.728644531249998Q20.91064,30.807844531249998,20.788420000000002,30.881044531249998Q20.6662,30.95434453125,20.54054,31.02154453125Q20.41487,31.08864453125,20.28606,31.14964453125Q20.157249999999998,31.21054453125,20.02561,31.26504453125Q19.89397,31.31954453125,19.75981,31.367544531249997Q19.62565,31.41554453125,19.4893,31.456944531250002Q19.35294,31.498344531249998,19.21472,31.53294453125Q19.0765,31.56754453125,18.93675,31.59534453125Q18.797,31.62314453125,18.65605,31.64404453125Q18.51511,31.66494453125,18.3733,31.67894453125Q18.2315,31.69294453125,18.08918,31.69994453125Q17.94686,31.70684453125,17.80437,31.70684453125Q17.66189,31.70684453125,17.51957,31.69994453125Q17.37725,31.69294453125,17.23545,31.67894453125Q17.09364,31.66494453125,16.9527,31.64404453125Q16.81175,31.62314453125,16.672,31.59534453125Q16.53225,31.56754453125,16.39403,31.53294453125Q16.25581,31.498344531249998,16.11945,31.456944531250002Q15.9831,31.41554453125,15.848939999999999,31.367544531249997Q15.714780000000001,31.31954453125,15.58314,31.26504453125Q15.45149,31.21054453125,15.32268,31.14964453125Q15.19388,31.08864453125,15.06821,31.02154453125Q14.94255,30.95434453125,14.82033,30.881044531249998Q14.69811,30.807844531249998,14.57964,30.728644531249998Q14.46116,30.64954453125,14.34671,30.56464453125Q14.23226,30.47974453125,14.122119999999999,30.38934453125Q14.01197,30.29894453125,13.90639,30.20324453125Q13.80082,30.10754453125,13.70006,30.00682453125Q13.59931,29.90607453125,13.50362,29.80049453125Q13.40793,29.69491453125,13.31753,29.584774531249998Q13.22714,29.47462453125,13.14226,29.36017453125Q13.05738,29.24573453125,12.978213,29.12725453125Q12.89905,29.008774531249998,12.825796,28.886564531250002Q12.752542,28.76434453125,12.685373,28.63868453125Q12.618204,28.51301453125,12.557282,28.38420453125Q12.49636,28.255394531249998,12.441832,28.12375453125Q12.387303,27.99211453125,12.3393,27.85795453125Q12.291297,27.72379453125,12.249934,27.58743453125Q12.208572,27.45108453125,12.17395,27.31286453125Q12.139328,27.17464453125,12.111529,27.03489453125Q12.0837311,26.89514453125,12.0628236,26.75419453125Q12.041916,26.61325453125,12.0279496,26.47144453125Q12.0139832,26.32964453125,12.00699162,26.18732453125Q12,26.04500453125,12,25.90251453125Q12,25.76002453125,12.00699162,25.61771453125Q12.0139832,25.47539453125,12.0279496,25.33359453125Q12.041916,25.19178453125,12.0628236,25.05083453125Q12.0837311,24.90989453125,12.111529,24.77014453125Q12.139328,24.63038453125,12.17395,24.49217453125Q12.208572,24.35395453125,12.249934,24.21759453125Q12.291297,24.08124453125,12.3393,23.94708453125Q12.387303,23.81292453125,12.441832,23.68128453125Q12.49636,23.54963453125,12.557282,23.42082453125Q12.618204,23.29202453125,12.685373,23.16635453125Q12.752542,23.04069453125,12.825796,22.91847453125Q12.89905,22.79625453125,12.978213,22.67778453125Q13.05738,22.55930453125,13.14226,22.44485453125Q13.22714,22.33040453125,13.31753,22.22026453125Q13.40793,22.110114531249998,13.50362,22.004534531250002Q13.59931,21.89896453125,13.70006,21.79820453125Q13.80082,21.69745453125,13.90639,21.60176453125Q14.01197,21.50607453125,14.122119999999999,21.41567453125Q14.23226,21.32528453125,14.34671,21.24040453125Q14.46116,21.15552453125,14.57964,21.07635753125Q14.69811,20.99719453125,14.82033,20.92394053125Q14.94255,20.85068653125,15.06821,20.78351753125Q15.19388,20.71634853125,15.32268,20.65542653125Q15.45149,20.59450453125,15.58314,20.53997653125Q15.714780000000001,20.48544753125,15.848939999999999,20.43744453125Q15.9831,20.38944153125,16.11945,20.34807853125Q16.25581,20.30671653125,16.39403,20.27209453125Q16.53225,20.23747253125,16.672,20.20967353125Q16.81175,20.18187563125,16.9527,20.16096813125Q17.09364,20.14006053125,17.23545,20.12609413125Q17.37725,20.11212773125,17.51957,20.10513615125Q17.66189,20.09814453125,17.80437,20.09814453125Q17.94686,20.09814453125,18.08918,20.10513615125Q18.2315,20.11212773125,18.3733,20.12609413125Q18.51511,20.14006053125,18.65605,20.16096813125Q18.797,20.18187563125,18.93675,20.20967353125Q19.0765,20.23747253125,19.21472,20.27209453125Q19.35294,20.30671653125,19.4893,20.34807853125Q19.62565,20.38944153125,19.75981,20.43744453125Q19.89397,20.48544753125,20.02561,20.53997653125Q20.157249999999998,20.59450453125,20.28606,20.65542653125Q20.41487,20.71634853125,20.54054,20.78351753125Q20.6662,20.85068653125,20.788420000000002,20.92394053125Q20.91064,20.99719453125,21.02911,21.07635753125Q21.14759,21.15552453125,21.26204,21.24040453125Q21.37648,21.32528453125,21.486629999999998,21.41567453125Q21.596780000000003,21.50607453125,21.70235,21.60176453125Q21.80793,21.69745453125,21.90869,21.79820453125Q22.0094,21.89896453125,22.1051,22.004534531250002Q22.2008,22.110114531249998,22.2912,22.22026453125Q22.3816,22.33040453125,22.4665,22.44485453125Q22.5514,22.55930453125,22.630499999999998,22.67778453125Q22.709699999999998,22.79625453125,22.783,22.91847453125Q22.8562,23.04069453125,22.9234,23.16635453125Q22.9905,23.29202453125,23.0515,23.42082453125Q23.1124,23.54963453125,23.1669,23.68128453125Q23.2214,23.81292453125,23.269399999999997,23.94708453125Q23.317500000000003,24.08124453125,23.358800000000002,24.21759453125Q23.400199999999998,24.35395453125,23.4348,24.49217453125Q23.4694,24.63038453125,23.4972,24.77014453125Q23.525,24.90989453125,23.5459,25.05083453125Q23.5668,25.19178453125,23.5808,25.33359453125Q23.5948,25.47539453125,23.6018,25.61771453125Q23.6087,25.76002453125,23.6087,25.90251453125Z"
                        fill="#1C95FF" fill-opacity="1" />
                </g>
                <g>
                    <path
                        d="M23.6087,18.12858875Q23.6087,18.27107875,23.6018,18.41339875Q23.5948,18.55571875,23.5808,18.69751875Q23.5668,18.83932875,23.5459,18.98026875Q23.525,19.12121875,23.4972,19.26096875Q23.4694,19.40071875,23.4348,19.53893875Q23.400199999999998,19.67715875,23.358800000000002,19.81351875Q23.317500000000003,19.94986875,23.269399999999997,20.08402875Q23.2214,20.21818875,23.1669,20.34982875Q23.1124,20.481468749999998,23.0515,20.61027875Q22.9905,20.73908875,22.9234,20.86475875Q22.8562,20.99041875,22.783,21.112638750000002Q22.709699999999998,21.234848749999998,22.630499999999998,21.35332875Q22.5514,21.471798749999998,22.4665,21.58624875Q22.3816,21.70069875,22.2912,21.810848749999998Q22.2008,21.92098875,22.1051,22.02656875Q22.0094,22.13214875,21.90869,22.23289875Q21.80793,22.33361875,21.70235,22.42931875Q21.596780000000003,22.52501875,21.486629999999998,22.61541875Q21.37648,22.70581875,21.26204,22.79071875Q21.14759,22.87561875,21.02911,22.954718749999998Q20.91064,23.033918749999998,20.788420000000002,23.107118749999998Q20.6662,23.18041875,20.54054,23.24761875Q20.41487,23.31471875,20.28606,23.37571875Q20.157249999999998,23.43661875,20.02561,23.49111875Q19.89397,23.54561875,19.75981,23.593618749999997Q19.62565,23.64161875,19.4893,23.683018750000002Q19.35294,23.724418749999998,19.21472,23.75901875Q19.0765,23.79361875,18.93675,23.82141875Q18.797,23.84921875,18.65605,23.87011875Q18.51511,23.89101875,18.3733,23.90501875Q18.2315,23.91901875,18.08918,23.92601875Q17.94686,23.93291875,17.80437,23.93291875Q17.66189,23.93291875,17.51957,23.92601875Q17.37725,23.91901875,17.23545,23.90501875Q17.09364,23.89101875,16.9527,23.87011875Q16.81175,23.84921875,16.672,23.82141875Q16.53225,23.79361875,16.39403,23.75901875Q16.25581,23.724418749999998,16.11945,23.683018750000002Q15.9831,23.64161875,15.848939999999999,23.593618749999997Q15.714780000000001,23.54561875,15.58314,23.49111875Q15.45149,23.43661875,15.32268,23.37571875Q15.19388,23.31471875,15.06821,23.24761875Q14.94255,23.18041875,14.82033,23.107118749999998Q14.69811,23.033918749999998,14.57964,22.954718749999998Q14.46116,22.87561875,14.34671,22.79071875Q14.23226,22.70581875,14.122119999999999,22.61541875Q14.01197,22.52501875,13.90639,22.42931875Q13.80082,22.33361875,13.70006,22.23289875Q13.59931,22.13214875,13.50362,22.02656875Q13.40793,21.92098875,13.31753,21.810848749999998Q13.22714,21.70069875,13.14226,21.58624875Q13.05738,21.47180875,12.978213,21.35332875Q12.89905,21.234848749999998,12.825796,21.112638750000002Q12.752542,20.99041875,12.685373,20.86475875Q12.618204,20.73908875,12.557282,20.61027875Q12.49636,20.481468749999998,12.441832,20.34982875Q12.387303,20.21818875,12.3393,20.08402875Q12.291297,19.94986875,12.249934,19.81350875Q12.208572,19.67715875,12.17395,19.53893875Q12.139328,19.40071875,12.111529,19.26096875Q12.0837311,19.12121875,12.0628236,18.98026875Q12.041916,18.83932875,12.0279496,18.69751875Q12.0139832,18.55571875,12.00699162,18.41339875Q12,18.27107875,12,18.12858875Q12,17.98609875,12.00699162,17.84378875Q12.0139832,17.70146875,12.0279496,17.55966875Q12.041916,17.41785875,12.0628236,17.27690875Q12.0837311,17.13596875,12.111529,16.99621875Q12.139328,16.85645875,12.17395,16.71824875Q12.208572,16.58002875,12.249934,16.44366875Q12.291297,16.30731875,12.3393,16.17315875Q12.387303,16.03899875,12.441832,15.90735875Q12.49636,15.77570875,12.557282,15.64689875Q12.618204,15.51809875,12.685373,15.39242875Q12.752542,15.26676875,12.825796,15.14454875Q12.89905,15.02232875,12.978213,14.90385875Q13.05738,14.78537875,13.14226,14.67092875Q13.22714,14.55647875,13.31753,14.446338749999999Q13.40793,14.33618875,13.50362,14.23060875Q13.59931,14.12503875,13.70006,14.02427875Q13.80082,13.92352875,13.90639,13.82783875Q14.01197,13.73214875,14.122119999999999,13.64174875Q14.23226,13.55135875,14.34671,13.46647875Q14.46116,13.38159875,14.57964,13.30243175Q14.69811,13.22326875,14.82033,13.15001475Q14.94255,13.07676075,15.06821,13.00959175Q15.19388,12.94242275,15.32268,12.88150075Q15.45149,12.82057875,15.58314,12.76605075Q15.714780000000001,12.71152175,15.848939999999999,12.66351875Q15.9831,12.61551575,16.11945,12.57415275Q16.25581,12.53279075,16.39403,12.49816875Q16.53225,12.46354675,16.672,12.43574775Q16.81175,12.40794985,16.9527,12.38704235Q17.09364,12.36613475,17.23545,12.35216835Q17.37725,12.33820195,17.51957,12.33121037Q17.66189,12.32421875,17.80437,12.32421875Q17.94686,12.32421875,18.08918,12.33121037Q18.2315,12.33820195,18.3733,12.35216835Q18.51511,12.36613475,18.65605,12.38704235Q18.797,12.40794985,18.93675,12.43574775Q19.0765,12.46354675,19.21472,12.49816875Q19.35294,12.53279075,19.4893,12.57415275Q19.62565,12.61551575,19.75981,12.66351875Q19.89397,12.71152175,20.02561,12.76605075Q20.157249999999998,12.82057875,20.28606,12.88150075Q20.41487,12.94242275,20.54054,13.00959175Q20.6662,13.07676075,20.788420000000002,13.15001475Q20.91064,13.22326875,21.02911,13.30243175Q21.14759,13.38159875,21.26204,13.46647875Q21.37648,13.55135875,21.486629999999998,13.64174875Q21.596780000000003,13.73214875,21.70235,13.82783875Q21.80793,13.92352875,21.90869,14.02427875Q22.0094,14.12503875,22.1051,14.23060875Q22.2008,14.33618875,22.2912,14.446338749999999Q22.3816,14.55647875,22.4665,14.67092875Q22.5514,14.78537875,22.630499999999998,14.90385875Q22.709699999999998,15.02232875,22.783,15.14454875Q22.8562,15.26676875,22.9234,15.39242875Q22.9905,15.51809875,23.0515,15.64689875Q23.1124,15.77570875,23.1669,15.90735875Q23.2214,16.03899875,23.269399999999997,16.17315875Q23.317500000000003,16.30731875,23.358800000000002,16.44366875Q23.400199999999998,16.58002875,23.4348,16.71824875Q23.4694,16.85645875,23.4972,16.99621875Q23.525,17.13596875,23.5459,17.27690875Q23.5668,17.41785875,23.5808,17.55966875Q23.5948,17.70146875,23.6018,17.84378875Q23.6087,17.98609875,23.6087,18.12858875Z"
                        fill="#3BDBFF" fill-opacity="1" />
                </g>
                <g>
                    <path
                        d="M30.817874755859375,22.01564453125Q30.817874755859375,22.10984453125,30.797114755859376,22.20359453125Q30.776364755859376,22.29733453125,30.735044755859377,22.38973453125Q30.693734755859374,22.48212453125,30.632264755859374,22.57226453125Q30.570784755859375,22.66241453125,30.489744755859377,22.74944453125Q30.408704755859375,22.83647453125,30.308884755859374,22.91954453125Q30.209054755859377,23.00262453125,30.091404755859376,23.08095453125Q29.973754755859375,23.15927453125,29.839404755859377,23.23209453125Q29.705064755859375,23.30491453125,29.555324755859374,23.37152453125Q29.405574755859377,23.43813453125,29.241884755859374,23.49789453125Q29.078184755859375,23.55765453125,28.902104755859376,23.60998453125Q28.726024755859374,23.66232453125,28.539264755859374,23.70672453125Q28.352504755859375,23.75113453125,28.156854755859374,23.78718453125Q27.961204755859374,23.82323453125,27.758554755859375,23.85057453125Q27.555904755859373,23.87792453125,27.348214755859374,23.89630453125Q27.140514755859375,23.91467453125,26.929764755859374,23.92391453125Q26.719014755859376,23.93314453125,26.507244755859375,23.93314453125Q26.295484755859377,23.93314453125,26.084734755859376,23.92391453125Q25.873984755859375,23.91467453125,25.666284755859376,23.89630453125Q25.458584755859377,23.87792453125,25.255944755859375,23.85057453125Q25.053294755859376,23.82323453125,24.857644755859376,23.78718453125Q24.661994755859375,23.75113453125,24.475234755859375,23.70672453125Q24.288474755859376,23.66232453125,24.112394755859373,23.60998453125Q23.936314755859375,23.55765453125,23.772614755859376,23.49789453125Q23.608914755859374,23.43813453125,23.459174755859376,23.37152453125Q23.309434755859375,23.30491453125,23.175090755859376,23.23209453125Q23.040746755859374,23.15927453125,22.923094755859374,23.08095453125Q22.805442755859374,23.00262453125,22.705616755859374,22.91954453125Q22.605789755859377,22.83647453125,22.524750755859376,22.74944453125Q22.443710755859374,22.66241453125,22.382237755859375,22.57226453125Q22.320764755859376,22.48212453125,22.279450955859375,22.38973453125Q22.238137255859375,22.29733453125,22.217380355859376,22.20359453125Q22.196623535159375,22.10984453125,22.196623535159375,22.01564453125Q22.196623535159375,21.92144453125,22.217380355859376,21.82769453125Q22.238137255859375,21.73395453125,22.279450955859375,21.64155453125Q22.320764755859376,21.54916453125,22.382237755859375,21.45902453125Q22.443710755859374,21.36887453125,22.524750755859376,21.28184453125Q22.605790755859374,21.19481453125,22.705616755859374,21.11174453125Q22.805443755859375,21.02866353125,22.923094755859374,20.95033853125Q23.040746755859374,20.87201353125,23.175090755859376,20.79919553125Q23.309434755859375,20.72637753125,23.459174755859376,20.65976753125Q23.608914755859374,20.59315753125,23.772614755859376,20.53339653125Q23.936314755859375,20.47363653125,24.112394755859373,20.42130153125Q24.288474755859376,20.36896653125,24.475234755859375,20.32456053125Q24.661994755859375,20.28015453125,24.857644755859376,20.24410553125Q25.053294755859376,20.20805653125,25.255944755859375,20.18071143125Q25.458594755859373,20.15336643125,25.666284755859376,20.13498873125Q25.873984755859375,20.11661113125,26.084734755859376,20.10737782125Q26.295484755859377,20.09814453125,26.507244755859375,20.09814453125Q26.719014755859376,20.09814453125,26.929764755859374,20.10737782125Q27.140514755859375,20.11661113125,27.348214755859374,20.13498873125Q27.555904755859373,20.15336643125,27.758554755859375,20.18071143125Q27.961204755859374,20.20805653125,28.156854755859374,20.24410553125Q28.352504755859375,20.28015453125,28.539264755859374,20.32456053125Q28.726024755859374,20.36896653125,28.902104755859376,20.42130153125Q29.078184755859375,20.47363653125,29.241884755859374,20.53339653125Q29.405574755859377,20.59315753125,29.555324755859374,20.65976753125Q29.705064755859375,20.72637753125,29.839404755859377,20.79919553125Q29.973754755859375,20.87201353125,30.091404755859376,20.95033853125Q30.209054755859377,21.02866353125,30.308884755859374,21.11174453125Q30.408704755859375,21.19481453125,30.489744755859377,21.28184453125Q30.570784755859375,21.36887453125,30.632264755859374,21.45902453125Q30.693734755859374,21.54916453125,30.735044755859377,21.64155453125Q30.776364755859376,21.73395453125,30.797114755859376,21.82769453125Q30.817874755859375,21.92144453125,30.817874755859375,22.01564453125Z"
                        fill="#0F6AFF" fill-opacity="1" />
                </g>
                <g>
                    <path
                        d="M22.1464840625,22.01581625Q22.1464840625,22.11005625,22.125724062499998,22.20382625Q22.104964062500002,22.29760625,22.0636440625,22.39003625Q22.022324062499997,22.48245625,21.9608340625,22.57263625Q21.899354062500002,22.66280625,21.8182940625,22.74986625Q21.7372440625,22.83692625,21.6373940625,22.92003625Q21.5375440625,23.00313625,21.4198740625,23.08149625Q21.3022040625,23.15984625,21.1678340625,23.23268625Q21.033464062500002,23.30552625,20.8836940625,23.37216625Q20.7339240625,23.43879625,20.5701940625,23.49857625Q20.4064640625,23.55835625,20.2303540625,23.61071625Q20.0542340625,23.66306625,19.8674440625,23.70748625Q19.6806440625,23.75190625,19.4849540625,23.78796625Q19.2892740625,23.82402625,19.086584062500002,23.85138625Q18.883894062499998,23.87873625,18.6761640625,23.89712625Q18.4684240625,23.91550625,18.2576340625,23.92474625Q18.0468440625,23.93397625,17.8350340625,23.93397625Q17.6232340625,23.93397625,17.4124440625,23.92474625Q17.2016540625,23.91550625,16.9939140625,23.89712625Q16.7861740625,23.87873625,16.5834940625,23.85138625Q16.3808040625,23.82402625,16.1851140625,23.78796625Q15.989434062499999,23.75190625,15.802634062500001,23.70748625Q15.6158340625,23.66306625,15.4397240625,23.61071625Q15.2636140625,23.55835625,15.0998840625,23.49857625Q14.9361540625,23.43879625,14.7863840625,23.37216625Q14.6366140625,23.30552625,14.5022450625,23.23268625Q14.3678750625,23.15984625,14.2502010625,23.08149625Q14.1325270625,23.00313625,14.0326810625,22.92003625Q13.9328360625,22.83692625,13.8517810625,22.74986625Q13.7707250625,22.66280625,13.7092410625,22.57263625Q13.6477560625,22.48245625,13.6064345625,22.39003625Q13.5651128625,22.29760625,13.5443520625,22.20382625Q13.5235913085,22.11005625,13.5235913085,22.01581625Q13.5235913085,21.92158625,13.5443520625,21.827806250000002Q13.5651128625,21.73402625,13.6064345625,21.64160625Q13.6477560625,21.54917625,13.7092410625,21.45900625Q13.7707250625,21.36882625,13.8517810625,21.28176625Q13.9328360625,21.19470625,14.0326810625,21.11160625Q14.1325270625,21.02849725,14.2502010625,20.95014425Q14.3678750625,20.87179225,14.5022440625,20.79894925Q14.6366140625,20.72610625,14.7863840625,20.65947325Q14.9361540625,20.59284025,15.0998840625,20.53305925Q15.2636140625,20.47327825,15.4397240625,20.42092525Q15.6158340625,20.36857125,15.802634062500001,20.32415025Q15.989434062499999,20.27972925,16.1851140625,20.24366725Q16.3808040625,20.20760625,16.5834940625,20.18025165Q16.7861740625,20.15289715,16.9939140625,20.13451315Q17.2016540625,20.11612915,17.4124440625,20.10689272Q17.6232340625,20.09765625,17.8350340625,20.09765625Q18.0468440625,20.09765625,18.2576340625,20.10689272Q18.4684240625,20.11612915,18.6761640625,20.13451315Q18.883894062499998,20.15289715,19.086584062500002,20.18025165Q19.2892740625,20.20760625,19.4849540625,20.24366725Q19.6806440625,20.27972925,19.8674440625,20.32415025Q20.0542340625,20.36857125,20.230344062500002,20.42092525Q20.4064640625,20.47327825,20.5701940625,20.53305925Q20.7339240625,20.59284025,20.8836940625,20.65947325Q21.033464062500002,20.72610625,21.1678340625,20.79894925Q21.3022040625,20.87179225,21.4198740625,20.95014425Q21.5375440625,21.02849725,21.6373940625,21.11160625Q21.7372440625,21.19470625,21.8182940625,21.28176625Q21.899354062500002,21.36882625,21.9608340625,21.45900625Q22.022324062499997,21.54917625,22.0636440625,21.64160625Q22.104964062500002,21.73402625,22.125724062499998,21.827806250000002Q22.1464840625,21.92158625,22.1464840625,22.01581625Z"
                        fill="#0F6AFF" fill-opacity="1" />
                </g>
                <g>
                    <path
                        d="M23.639364130859374,25.90287359375Q23.639364130859374,26.09242359375,23.632284130859375,26.281063593749998Q23.625214130859376,26.46970359375,23.611144130859376,26.65561359375Q23.597074130859376,26.84152359375,23.576124130859377,27.02291359375Q23.555184130859374,27.204303593749998,23.527584130859374,27.37943359375Q23.499974130859375,27.55455359375,23.465964130859376,27.72172359375Q23.431964130859374,27.888893593749998,23.391884130859374,28.04650359375Q23.351804130859374,28.20411359375,23.306034130859373,28.35063359375Q23.260274130859376,28.49716359375,23.209264130859374,28.631193593749998Q23.158254130859376,28.76523359375,23.102484130859374,28.88548359375Q23.046724130859374,29.00573359375,22.986744130859375,29.11104359375Q22.926764130859375,29.21635359375,22.863134130859375,29.30570359375Q22.799514130859375,29.39506359375,22.732864130859376,29.46760359375Q22.666224130859376,29.54014359375,22.597184130859375,29.59516359375Q22.528154130859374,29.65019359375,22.457404130859373,29.68717359375Q22.386644130859374,29.72415359375,22.314854130859374,29.74273359375Q22.243064130859374,29.76131359375,22.170924130859376,29.76131359375Q22.098784130859375,29.76131359375,22.026994130859375,29.74273359375Q21.955194130859375,29.72415359375,21.884444130859375,29.68717359375Q21.813694130859375,29.65019359375,21.744654130859374,29.59516359375Q21.675623130859375,29.54014359375,21.608975130859374,29.46760359375Q21.542326130859376,29.39506359375,21.478705130859375,29.30570359375Q21.415083130859376,29.21635359375,21.355101130859374,29.11104359375Q21.295119130859376,29.00573359375,21.239355130859376,28.88548359375Q21.183590130859375,28.76523359375,21.132579130859376,28.631193593749998Q21.081569130859375,28.49716359375,21.035804130859376,28.35063359375Q20.990039130859376,28.20411359375,20.949960130859374,28.04650359375Q20.909882130859376,27.888893593749998,20.875875130859374,27.72172359375Q20.841869130859376,27.55455359375,20.814262130859376,27.37943359375Q20.786655630859375,27.204303593749998,20.765714530859373,27.02291359375Q20.744773530859376,26.84152359375,20.730699730859374,26.65561359375Q20.716626030859373,26.46970359375,20.709555060859376,26.281063593749998Q20.702484130859375,26.09242359375,20.702484130859375,25.90287359375Q20.702484130859375,25.71331359375,20.709555060859376,25.52467359375Q20.716626030859373,25.33603359375,20.730699730859374,25.15012359375Q20.744773530859376,24.96421359375,20.765714530859373,24.78282359375Q20.786655630859375,24.60143359375,20.814262130859376,24.42631359375Q20.841869130859376,24.25118359375,20.875875130859374,24.08401359375Q20.909882130859376,23.91684359375,20.949960130859374,23.75923359375Q20.990039130859376,23.60163359375,21.035804130859376,23.45510359375Q21.081569130859375,23.30857359375,21.132579130859376,23.17454359375Q21.183590130859375,23.04050959375,21.239355130859376,22.92025859375Q21.295119130859376,22.80000759375,21.355101130859374,22.69469759375Q21.415083130859376,22.58938759375,21.478705130859375,22.50003259375Q21.542326130859376,22.41067859375,21.608975130859374,22.33813959375Q21.675623130859375,22.26560059375,21.744654130859374,22.21057659375Q21.813694130859375,22.15555259375,21.884444130859375,22.11857239375Q21.955194130859375,22.08159249375,22.026994130859375,22.06301299375Q22.098784130859375,22.04443359375,22.170924130859376,22.04443359375Q22.243064130859374,22.04443359375,22.314854130859374,22.06301299375Q22.386644130859374,22.08159249375,22.457404130859373,22.11857239375Q22.528154130859374,22.15555259375,22.597184130859375,22.21057659375Q22.666224130859376,22.26560059375,22.732864130859376,22.33813959375Q22.799514130859375,22.41067859375,22.863134130859375,22.50003259375Q22.926764130859375,22.58938759375,22.986744130859375,22.69469759375Q23.046724130859374,22.80000759375,23.102484130859374,22.92025859375Q23.158254130859376,23.04050959375,23.209264130859374,23.17454359375Q23.260274130859376,23.30857359375,23.306044130859377,23.45510359375Q23.351804130859374,23.60163359375,23.391884130859374,23.75923359375Q23.431964130859374,23.91684359375,23.465964130859376,24.08401359375Q23.499974130859375,24.25118359375,23.527584130859374,24.42631359375Q23.555184130859374,24.60143359375,23.576124130859377,24.78282359375Q23.597074130859376,24.96421359375,23.611144130859376,25.15012359375Q23.625214130859376,25.33603359375,23.632284130859375,25.52467359375Q23.639364130859374,25.71331359375,23.639364130859374,25.90287359375Z"
                        fill="#0F6AFF" fill-opacity="1" />
                </g>
                <g>
                    <path
                        d="M23.639364130859374,18.12845953125Q23.639364130859374,18.31800953125,23.632284130859375,18.506649531249998Q23.625214130859376,18.69528953125,23.611144130859376,18.88119953125Q23.597074130859376,19.06710953125,23.576124130859377,19.24849953125Q23.555184130859374,19.429889531249998,23.527584130859374,19.60501953125Q23.499974130859375,19.78013953125,23.465964130859376,19.94730953125Q23.431964130859374,20.114479531249998,23.391884130859374,20.27208953125Q23.351804130859374,20.42969953125,23.306034130859373,20.57621953125Q23.260274130859376,20.72274953125,23.209264130859374,20.856779531249998Q23.158254130859376,20.99081953125,23.102484130859374,21.11106953125Q23.046724130859374,21.23131953125,22.986744130859375,21.33662953125Q22.926764130859375,21.44193953125,22.863134130859375,21.53128953125Q22.799514130859375,21.62064953125,22.732864130859376,21.69318953125Q22.666224130859376,21.76572953125,22.597184130859375,21.82074953125Q22.528154130859374,21.87577953125,22.457404130859373,21.91275953125Q22.386644130859374,21.94973953125,22.314854130859374,21.96831953125Q22.243064130859374,21.98689953125,22.170924130859376,21.98689953125Q22.098784130859375,21.98689953125,22.026994130859375,21.96831953125Q21.955194130859375,21.94973953125,21.884444130859375,21.91275953125Q21.813694130859375,21.87577953125,21.744654130859374,21.82074953125Q21.675623130859375,21.76572953125,21.608975130859374,21.69318953125Q21.542326130859376,21.62064953125,21.478705130859375,21.53128953125Q21.415083130859376,21.44193953125,21.355101130859374,21.33662953125Q21.295119130859376,21.23131953125,21.239355130859376,21.11106953125Q21.183590130859375,20.99081953125,21.132579130859376,20.856779531249998Q21.081569130859375,20.72274953125,21.035804130859376,20.57621953125Q20.990039130859376,20.42969953125,20.949960130859374,20.27208953125Q20.909882130859376,20.114479531249998,20.875875130859374,19.94730953125Q20.841869130859376,19.78013953125,20.814262130859376,19.60501953125Q20.786655630859375,19.429889531249998,20.765714530859373,19.24849953125Q20.744773530859376,19.06710953125,20.730699730859374,18.88119953125Q20.716626030859373,18.69528953125,20.709555060859376,18.506649531249998Q20.702484130859375,18.31800953125,20.702484130859375,18.12845953125Q20.702484130859375,17.93889953125,20.709555060859376,17.75025953125Q20.716626030859373,17.56161953125,20.730699730859374,17.37570953125Q20.744773530859376,17.18979953125,20.765714530859373,17.00840953125Q20.786655630859375,16.82701953125,20.814262130859376,16.65189953125Q20.841869130859376,16.47676953125,20.875875130859374,16.30959953125Q20.909882130859376,16.14242953125,20.949960130859374,15.98481953125Q20.990039130859376,15.82721953125,21.035804130859376,15.68068953125Q21.081569130859375,15.53415953125,21.132579130859376,15.40012953125Q21.183590130859375,15.26609553125,21.239355130859376,15.14584453125Q21.295119130859376,15.02559353125,21.355101130859374,14.92028353125Q21.415083130859376,14.81497353125,21.478705130859375,14.72561853125Q21.542326130859376,14.63626453125,21.608975130859374,14.56372553125Q21.675623130859375,14.49118653125,21.744654130859374,14.43616253125Q21.813694130859375,14.38113853125,21.884444130859375,14.34415833125Q21.955194130859375,14.30717843125,22.026994130859375,14.28859893125Q22.098784130859375,14.27001953125,22.170924130859376,14.27001953125Q22.243064130859374,14.27001953125,22.314854130859374,14.28859893125Q22.386644130859374,14.30717843125,22.457404130859373,14.34415833125Q22.528154130859374,14.38113853125,22.597184130859375,14.43616253125Q22.666224130859376,14.49118653125,22.732864130859376,14.56372553125Q22.799514130859375,14.63626453125,22.863134130859375,14.72561853125Q22.926764130859375,14.81497353125,22.986744130859375,14.92028353125Q23.046724130859374,15.02559353125,23.102484130859374,15.14584453125Q23.158254130859376,15.26609553125,23.209264130859374,15.40012953125Q23.260274130859376,15.53415953125,23.306044130859377,15.68068953125Q23.351804130859374,15.82721953125,23.391884130859374,15.98481953125Q23.431964130859374,16.14242953125,23.465964130859376,16.30959953125Q23.499974130859375,16.47676953125,23.527584130859374,16.65189953125Q23.555184130859374,16.82701953125,23.576124130859377,17.00840953125Q23.597074130859376,17.18979953125,23.611144130859376,17.37570953125Q23.625214130859376,17.56161953125,23.632284130859375,17.75025953125Q23.639364130859374,17.93889953125,23.639364130859374,18.12845953125Z"
                        fill="#0F6AFF" fill-opacity="1" />
                </g>
            </g>
        </g>
    </g>
</svg>