<svg xmlns="http://www.w3.org/2000/svg" xmlns:xlink="http://www.w3.org/1999/xlink" fill="none" version="1.1" width="1em"
    height="1em" viewBox="0 0 44 44">
    <defs>
        <clipPath id="master_svg0_2062_02358">
            <rect x="6" y="6" width="32" height="32" rx="0" />
        </clipPath>
    </defs>
    <g>
        <g>
            <g>
                <rect x="0" y="0" width="44" height="44" rx="4" fill="#F4FAE5" fill-opacity="1" />
            </g>
        </g>
        <g>
            <g clip-path="url(#master_svg0_2062_02358)">
                <g>
                    <path
                        d="M29.01595,31.18745L12.39094,31.18745C11.329444,31.18785,10.468750305176,30.32745,10.46875,29.26595L10.46875,14.90437C10.46978302,13.93934,11.25184,13.15728333,12.21687,13.15625L15.86375,13.15625C16.54364,13.1562799072,17.21188,13.332762,17.80312,13.668437L21.50405,15.76906C22.09565,16.10477,22.763849999999998,16.28125,23.44345,16.28125L29.18935,16.28125C30.15445,16.28228,30.93645,17.06434,30.93755,18.02938L30.93755,29.26595C30.93755,30.32715,30.07715,31.18745,29.01595,31.18745Z"
                        fill="#9FDB1D" fill-opacity="1" />
                </g>
                <g>
                    <path
                        d="M28.9278,31.1875L12.1875,31.1875L14.90281,21.35812C15.145150000000001,20.481815,15.942219999999999,19.8749987793,16.85094,19.875L32.153400000000005,19.875C33.1137,19.874763184,33.81,20.789513,33.5541,21.715L31.4725,29.25C31.1569,30.3946,30.1155,31.1875,28.9278,31.1875Z"
                        fill="#10B981" fill-opacity="1" />
                </g>
                <g>
                    <path
                        d="M16.85094,19.875C15.941980000000001,19.875185547,15.14491,20.482001,14.90281,21.35812L12.1875,31.1875L29.1634,31.1875C30.1432,31.1875,30.9375,30.3932,30.9375,29.41344L30.9375,19.875L16.85094,19.875Z"
                        fill="#10B981" fill-opacity="1" />
                </g>
            </g>
        </g>
    </g>
</svg>