<svg width="124" height="124" viewBox="0 0 124 124" fill="none" xmlns="http://www.w3.org/2000/svg">
<g clip-path="url(#clip0_2867_184575)">
<path d="M62.395 92C83.3818 92 100.395 74.9868 100.395 54C100.395 33.0132 83.3818 16 62.395 16C41.4082 16 24.395 33.0132 24.395 54C24.395 74.9868 41.4082 92 62.395 92Z" fill="url(#paint0_linear_2867_184575)"/>
<path d="M62.895 108C79.1874 108 92.395 105.538 92.395 102.5C92.395 99.4624 79.1874 97 62.895 97C46.6026 97 33.395 99.4624 33.395 102.5C33.395 105.538 46.6026 108 62.895 108Z" fill="url(#paint1_linear_2867_184575)"/>
<path d="M26.395 72.5934V93C26.395 96.3137 29.0813 99 32.395 99H92.395C95.7087 99 98.395 96.3137 98.395 93V72.5934C98.395 71.5492 98.1225 70.5231 97.6045 69.6166L84.1225 46.0232C83.0543 44.1537 81.0662 43 78.9131 43H45.8769C43.7238 43 41.7357 44.1537 40.6675 46.0232L27.1856 69.6166C26.6675 70.5231 26.395 71.5492 26.395 72.5934Z" fill="white"/>
<path fill-rule="evenodd" clip-rule="evenodd" d="M26.395 72.5934V93C26.395 96.3137 29.0813 99 32.395 99H92.395C95.7087 99 98.395 96.3137 98.395 93V72.5934C98.395 71.5492 98.1225 70.5231 97.6045 69.6166L84.1225 46.0232C83.0543 44.1537 81.0662 43 78.9131 43H45.8769C43.7238 43 41.7357 44.1537 40.6675 46.0232L27.1856 69.6166C26.6675 70.5231 26.395 71.5492 26.395 72.5934ZM27.395 72.5934V93C27.395 94.3807 27.8832 95.5592 28.8595 96.5355C29.8358 97.5118 31.0143 98 32.395 98H92.395C93.7757 98 94.9543 97.5118 95.9305 96.5355C96.9069 95.5592 97.395 94.3807 97.395 93V72.5934C97.395 71.7082 97.1754 70.8813 96.7362 70.1127L83.2543 46.5193C82.2946 44.8398 80.8475 44 78.9131 44H45.8769C43.9425 44 42.4955 44.8398 41.5357 46.5193L28.0538 70.1127C27.6146 70.8813 27.395 71.7082 27.395 72.5934Z" fill="#49617F"/>
<path d="M32.395 72.6134V88C32.395 91.3137 35.0813 94 38.395 94H86.395C89.7087 94 92.395 91.3137 92.395 88V72.6134C92.395 71.5566 92.1159 70.5185 91.5858 69.6042L80.7955 50.9908C79.7223 49.1396 77.7444 48 75.6046 48H49.1854C47.0456 48 45.0677 49.1396 43.9945 50.9908L33.2042 69.6042C32.6742 70.5185 32.395 71.5566 32.395 72.6134Z" fill="url(#paint2_linear_2867_184575)"/>
<path d="M52.395 40H46.395V86H52.395V40Z" fill="white"/>
<path d="M51.895 40.5H46.895V85.5H51.895V40.5Z" stroke="#1E293B"/>
<path d="M79.395 36H73.395V86H79.395V36Z" fill="white"/>
<path d="M78.895 36.5H73.895V85.5H78.895V36.5Z" stroke="#1E293B"/>
<path d="M61.395 47H55.395V93H61.395V47Z" fill="white"/>
<path d="M60.895 47.5H55.895V92.5H60.895V47.5Z" stroke="#1E293B"/>
<path d="M64.395 90H70.395V40L69.395 41L68.395 40L67.395 39L66.395 40L65.395 41L64.395 40V90Z" fill="url(#paint3_linear_2867_184575)"/>
<path d="M75.0469 18.9067L65.0469 36.2272L65.4129 37.5933L66.7789 37.2272L68.1449 36.8612L68.511 38.2272L68.877 39.5933L70.243 39.2272L80.243 21.9067L75.0469 18.9067Z" fill="url(#paint4_linear_2867_184575)"/>
<path fill-rule="evenodd" clip-rule="evenodd" d="M50.3951 69V74C50.3951 75.1046 51.2905 76 52.3951 76H72.3951C73.4997 76 74.3951 75.1046 74.3951 74V69H92.3951C95.7087 69 98.3951 71.6863 98.3951 75V93C98.3951 96.3137 95.7087 99 92.3951 99H32.3951C29.0813 99 26.3951 96.3137 26.3951 93V75C26.3951 71.6863 29.0813 69 32.3951 69H50.3951Z" fill="white"/>
<path fill-rule="evenodd" clip-rule="evenodd" d="M50.3951 74V69H32.3951C29.0813 69 26.3951 71.6863 26.3951 75V93C26.3951 96.3137 29.0813 99 32.3951 99H92.3951C95.7087 99 98.3951 96.3137 98.3951 93V75C98.3951 71.6863 95.7087 69 92.3951 69H74.3951V74C74.3951 75.1046 73.4997 76 72.3951 76H52.3951C51.2905 76 50.3951 75.1046 50.3951 74ZM75.3951 70V74C75.3951 74.8284 75.1022 75.5355 74.5164 76.1213C73.9306 76.7071 73.2235 77 72.3951 77H52.3951C51.5667 77 50.8596 76.7071 50.2738 76.1213C49.688 75.5355 49.3951 74.8284 49.3951 74V70H32.3951C31.0143 70 29.8358 70.4882 28.8595 71.4645C27.8832 72.4408 27.3951 73.6193 27.3951 75V93C27.3951 94.3807 27.8832 95.5592 28.8595 96.5355C29.8358 97.5118 31.0143 98 32.3951 98H92.3951C93.7758 98 94.9543 97.5118 95.9306 96.5355C96.9069 95.5592 97.3951 94.3807 97.3951 93V75C97.3951 73.6193 96.9069 72.4408 95.9306 71.4645C94.9543 70.4882 93.7758 70 92.3951 70H75.3951Z" fill="#49617F"/>
<path fill-rule="evenodd" clip-rule="evenodd" d="M47.395 72V77C47.395 78.1046 48.2904 79 49.395 79H75.395C76.4996 79 77.395 78.1046 77.395 77V72H88.395C91.7087 72 94.395 74.6863 94.395 78V90C94.395 93.3137 91.7087 96 88.395 96H35.395C32.0813 96 29.395 93.3137 29.395 90V78C29.395 74.6863 32.0813 72 35.395 72H47.395Z" fill="url(#paint5_linear_2867_184575)"/>
<path fill-rule="evenodd" clip-rule="evenodd" d="M27.0928 69.6888L28.0082 69.2228L27.7819 68.7771L26.8665 69.2431L27.0928 69.6888ZM89.1663 53.3747L90.1988 53.306L90.1661 52.8069L89.1336 52.8757L89.1663 53.3747ZM22.6819 72.1283C23.2452 71.7922 23.8277 71.4558 24.4292 71.1189L24.1854 70.6825C23.5799 71.0217 22.9935 71.3604 22.4263 71.6987L22.6819 72.1283ZM93.2181 53.1653C93.914 53.1446 94.5858 53.1336 95.2333 53.1323L95.2328 52.6322C94.5807 52.6335 93.9044 52.6446 93.2037 52.6654L93.2181 53.1653ZM18.485 74.8803C19.009 74.4982 19.5598 74.1148 20.1374 73.7299L19.8605 73.3137C19.2771 73.7025 18.7206 74.09 18.1909 74.4762L18.485 74.8803ZM98.2301 53.204C98.9327 53.2415 99.6018 53.2938 100.237 53.3608L100.29 52.8635C99.6461 52.7955 98.9684 52.7426 98.2571 52.7046L98.2301 53.204ZM14.6577 78.1164C15.1016 77.6669 15.587 77.2138 16.1138 76.7571L15.7866 76.3793C15.2501 76.8444 14.7553 77.3064 14.3023 77.765L14.6577 78.1164ZM103.198 53.8322C103.894 53.9881 104.536 54.1707 105.125 54.3801L105.293 53.9088C104.685 53.6927 104.023 53.5044 103.307 53.3441L103.198 53.8322ZM11.7669 82.1282C12.0109 81.5658 12.3327 80.9931 12.7323 80.4103L12.3202 80.1276C11.9024 80.7369 11.5652 81.3375 11.3084 81.9294L11.7669 82.1282ZM107.737 55.7242C108.28 56.1261 108.741 56.5801 109.122 57.0861L109.521 56.7853C109.112 56.2405 108.616 55.7528 108.035 55.3223L107.737 55.7242ZM11.3714 85.9838C11.282 85.6496 11.2273 85.3098 11.2072 84.9644L10.7082 84.994C10.7302 85.3732 10.7903 85.7464 10.8885 86.1135C10.9732 86.4305 11.0902 86.7378 11.2392 87.0354L11.6861 86.811C11.5523 86.5437 11.4474 86.268 11.3714 85.9838ZM110.309 59.7302C110.427 60.3365 110.415 60.9736 110.274 61.6415L110.763 61.7441C110.917 61.0104 110.93 60.3073 110.801 59.6349L110.309 59.7302ZM15.3095 89.9133C14.6652 89.6123 14.0954 89.285 13.6 88.9315L13.3095 89.3387C13.8297 89.7099 14.4257 90.0526 15.0977 90.3666L15.3095 89.9133ZM109.114 64.3264C108.781 64.8517 108.385 65.3877 107.925 65.9343L108.307 66.2562C108.782 65.6924 109.192 65.1383 109.537 64.5938L109.114 64.3264ZM20.0679 91.3934C19.3815 91.2547 18.7319 91.0999 18.1191 90.929L17.9845 91.4108C18.6089 91.5849 19.2702 91.7425 19.9685 91.8837L20.0679 91.3934ZM105.852 68.0775C105.379 68.5126 104.871 68.9509 104.328 69.3924L104.643 69.7803C105.194 69.3325 105.709 68.8877 106.19 68.4458L105.852 68.0775ZM25.079 92.0673C24.3778 92.012 23.6995 91.9449 23.0439 91.8658L22.9836 92.3623C23.646 92.4422 24.3312 92.51 25.0392 92.5659L25.079 92.0673ZM101.923 71.2104C101.394 71.5842 100.843 71.9586 100.27 72.3335L100.543 72.7521C101.121 72.3739 101.677 71.9962 102.211 71.6189L101.923 71.2104ZM30.0797 92.2578C29.4009 92.2564 28.7363 92.2462 28.086 92.227L28.0709 92.7269C28.7257 92.7462 29.3948 92.7565 30.0782 92.7579L30.0797 92.2578ZM97.6949 73.9342C97.1255 74.2712 96.5406 74.6074 95.94 74.9426L96.1832 75.3792C96.7876 75.042 97.3762 74.7037 97.9492 74.3645L97.6949 73.9342ZM35.1271 92.1181C34.4464 92.1555 33.7757 92.1854 33.115 92.2078L33.1315 92.7078C33.7957 92.6852 34.4699 92.6551 35.1541 92.6175L35.1271 92.1181ZM93.2823 76.3674C92.6861 76.6746 92.0779 76.9804 91.4575 77.2846L91.6772 77.7337C92.3004 77.4281 92.9116 77.1208 93.5109 76.8119L93.2823 76.3674ZM40.1742 91.721L38.1398 91.9089L38.1852 92.4069L40.2197 92.2191L40.1742 91.721ZM88.7352 78.574L86.8875 79.4011L87.0914 79.8576L88.939 79.0305L88.7352 78.574ZM45.189 91.1136L43.1609 91.383L43.2262 91.8787L45.2544 91.6094L45.189 91.1136ZM84.0939 80.5856L82.2285 81.336L82.4146 81.8L84.28 81.0497L84.0939 80.5856ZM50.1695 90.3251L48.161 90.6642L48.2438 91.1573L50.2522 90.8183L50.1695 90.3251ZM79.3844 82.4226L77.4998 83.1067L77.6699 83.5769L79.5545 82.8927L79.3844 82.4226ZM55.1262 89.3721L53.1335 89.7747L53.232 90.265L55.2247 89.8623L55.1262 89.3721ZM74.62 84.1004L72.7149 84.7248L72.8701 85.2001L74.7752 84.5756L74.62 84.1004ZM60.0541 88.2671L58.0748 88.7294L58.188 89.2165L60.1674 88.7542L60.0541 88.2671ZM69.8086 85.6295L67.8826 86.198L68.0236 86.6778L69.9497 86.1091L69.8086 85.6295ZM64.6548 87.0976L62.9828 87.5379L63.1096 88.0216L64.7816 87.5813L65.0843 87.4997L64.9548 87.0167L64.6548 87.0976Z" fill="#1E293B"/>
<g opacity="0.8">
<path fill-rule="evenodd" clip-rule="evenodd" d="M21.1832 53.207L21.8903 52.4999L19.7132 50.3228C19.6802 50.2898 19.6507 50.2539 19.6248 50.2151C19.5989 50.1763 19.577 50.1354 19.5592 50.0923C19.5413 50.0492 19.5278 50.0047 19.5187 49.959C19.5096 49.9132 19.5051 49.867 19.5051 49.8203C19.5051 49.7737 19.5096 49.7275 19.5187 49.6817C19.5278 49.636 19.5413 49.5915 19.5592 49.5484C19.577 49.5053 19.5989 49.4644 19.6248 49.4256C19.6507 49.3868 19.6802 49.3509 19.7132 49.3179C19.7462 49.2849 19.7821 49.2555 19.8209 49.2296C19.8596 49.2036 19.9006 49.1818 19.9437 49.1639C19.9868 49.1461 20.0312 49.1326 20.077 49.1235C20.1227 49.1144 20.1689 49.1098 20.2156 49.1098C20.2623 49.1098 20.3085 49.1144 20.3542 49.1235C20.4 49.1326 20.4444 49.1461 20.4875 49.1639C20.5306 49.1818 20.5716 49.2036 20.6104 49.2296C20.6491 49.2555 20.685 49.2849 20.718 49.3179L22.8951 51.495L25.0723 49.3178C25.1053 49.2848 25.1412 49.2554 25.18 49.2295C25.2188 49.2036 25.2597 49.1817 25.3028 49.1638C25.3459 49.146 25.3904 49.1325 25.4361 49.1234C25.4819 49.1143 25.5281 49.1097 25.5747 49.1097C25.6214 49.1097 25.6676 49.1143 25.7134 49.1234C25.7591 49.1325 25.8035 49.146 25.8467 49.1638C25.8898 49.1817 25.9307 49.2036 25.9695 49.2295C26.0083 49.2554 26.0442 49.2849 26.0772 49.3178C26.1102 49.3508 26.1396 49.3867 26.1655 49.4255C26.1914 49.4643 26.2133 49.5052 26.2312 49.5484C26.249 49.5915 26.2625 49.6359 26.2716 49.6816C26.2807 49.7274 26.2853 49.7736 26.2853 49.8203C26.2853 49.8669 26.2807 49.9131 26.2716 49.9589C26.2625 50.0046 26.249 50.0491 26.2312 50.0922C26.2133 50.1353 26.1914 50.1762 26.1655 50.215C26.1396 50.2538 26.1102 50.2897 26.0772 50.3227L23.9 52.4999L26.0771 54.6771C26.1101 54.71 26.1396 54.7459 26.1655 54.7847C26.1914 54.8235 26.2133 54.8645 26.2312 54.9076C26.249 54.9507 26.2625 54.9951 26.2716 55.0409C26.2807 55.0866 26.2853 55.1328 26.2853 55.1795C26.2853 55.2261 26.2807 55.2723 26.2716 55.3181C26.2625 55.3638 26.249 55.4083 26.2312 55.4514C26.2133 55.4945 26.1914 55.5354 26.1655 55.5742C26.1396 55.613 26.1101 55.6489 26.0771 55.6819C26.0442 55.7149 26.0083 55.7443 25.9695 55.7702C25.9307 55.7962 25.8897 55.8181 25.8466 55.8359C25.8035 55.8538 25.7591 55.8672 25.7133 55.8763C25.6676 55.8854 25.6214 55.89 25.5747 55.89C25.5281 55.89 25.4819 55.8854 25.4361 55.8763C25.3903 55.8672 25.3459 55.8538 25.3028 55.8359C25.2597 55.8181 25.2188 55.7962 25.18 55.7703C25.1412 55.7443 25.1053 55.7149 25.0723 55.6819L22.8951 53.5047L20.718 55.6818C20.6851 55.7148 20.6492 55.7442 20.6104 55.7702C20.5716 55.7961 20.5306 55.818 20.4875 55.8358C20.4444 55.8537 20.4 55.8672 20.3542 55.8763C20.3085 55.8854 20.2623 55.8899 20.2156 55.8899C20.169 55.8899 20.1228 55.8854 20.077 55.8763C20.0313 55.8672 19.9868 55.8537 19.9437 55.8358C19.9006 55.818 19.8597 55.7961 19.8209 55.7702C19.7821 55.7442 19.7462 55.7148 19.7132 55.6818C19.6802 55.6488 19.6508 55.6129 19.6248 55.5741C19.5989 55.5353 19.577 55.4944 19.5592 55.4513C19.5413 55.4082 19.5279 55.3638 19.5187 55.318C19.5097 55.2722 19.5051 55.226 19.5051 55.1794C19.5051 55.1327 19.5097 55.0865 19.5187 55.0408C19.5279 54.995 19.5413 54.9506 19.5592 54.9075C19.577 54.8644 19.5989 54.8234 19.6248 54.7846C19.6508 54.7458 19.6802 54.71 19.7132 54.677L21.1832 53.207ZM20.4761 52.4999L19.0061 51.0299C18.6721 50.6959 18.5051 50.2927 18.5051 49.8203C18.5051 49.348 18.6721 48.9448 19.0061 48.6108C19.3401 48.2768 19.7433 48.1098 20.2156 48.1098C20.688 48.1098 21.0911 48.2768 21.4251 48.6108L22.8951 50.0808L24.3652 48.6107C24.6992 48.2767 25.1024 48.1097 25.5748 48.1097C26.0471 48.1097 26.4503 48.2767 26.7843 48.6107C27.1183 48.9447 27.2853 49.3479 27.2853 49.8203C27.2853 50.2926 27.1183 50.6958 26.7843 51.0298L25.3142 52.4999L26.7842 53.9699C27.1182 54.3039 27.2852 54.7071 27.2852 55.1795C27.2853 55.6518 27.1183 56.055 26.7843 56.389C26.4503 56.723 26.0471 56.89 25.5747 56.89C25.1024 56.89 24.6992 56.723 24.3652 56.389L22.8951 54.9189L21.4252 56.3889C21.0911 56.7229 20.688 56.8899 20.2156 56.8899C19.7433 56.8899 19.3401 56.7229 19.0061 56.3889C18.6721 56.0549 18.5051 55.6517 18.5051 55.1794C18.5051 54.707 18.6721 54.3039 19.0061 53.9699L20.4761 52.4999Z" fill="#1E293B"/>
</g>
<g opacity="0.8">
<path fill-rule="evenodd" clip-rule="evenodd" d="M102.183 42.2069L102.89 41.4998L100.713 39.3226C100.68 39.2897 100.651 39.2538 100.625 39.215C100.599 39.1762 100.577 39.1352 100.559 39.0921C100.541 39.049 100.528 39.0046 100.519 38.9588C100.509 38.9131 100.505 38.8669 100.505 38.8202C100.505 38.7736 100.509 38.7274 100.519 38.6816C100.528 38.6359 100.541 38.5914 100.559 38.5483C100.577 38.5052 100.599 38.4643 100.625 38.4255C100.651 38.3867 100.68 38.3508 100.713 38.3178C100.746 38.2848 100.782 38.2554 100.821 38.2294C100.86 38.2035 100.9 38.1816 100.944 38.1638C100.987 38.1459 101.031 38.1325 101.077 38.1234C101.123 38.1143 101.169 38.1097 101.215 38.1097C101.262 38.1097 101.308 38.1142 101.354 38.1234C101.4 38.1325 101.444 38.1459 101.487 38.1638C101.53 38.1816 101.571 38.2035 101.61 38.2294C101.649 38.2554 101.685 38.2848 101.718 38.3178L103.895 40.495L106.072 38.3178C106.105 38.2848 106.141 38.2554 106.18 38.2294C106.219 38.2035 106.26 38.1816 106.303 38.1638C106.346 38.1459 106.39 38.1325 106.436 38.1234C106.482 38.1142 106.528 38.1097 106.575 38.1097C106.621 38.1097 106.668 38.1142 106.713 38.1233C106.759 38.1324 106.804 38.1459 106.847 38.1638C106.89 38.1816 106.931 38.2035 106.969 38.2294C107.008 38.2554 107.044 38.2848 107.077 38.3178C107.11 38.3508 107.14 38.3867 107.165 38.4255C107.191 38.4643 107.213 38.5052 107.231 38.5483C107.249 38.5914 107.262 38.6359 107.272 38.6816C107.281 38.7274 107.285 38.7736 107.285 38.8202C107.285 38.8669 107.281 38.9131 107.272 38.9588C107.262 39.0046 107.249 39.049 107.231 39.0921C107.213 39.1352 107.191 39.1762 107.165 39.215C107.14 39.2538 107.11 39.2897 107.077 39.3226L104.9 41.4998L107.077 43.6769C107.11 43.7099 107.139 43.7458 107.165 43.7846C107.191 43.8234 107.213 43.8643 107.231 43.9074C107.249 43.9505 107.262 43.995 107.271 44.0407C107.281 44.0865 107.285 44.1327 107.285 44.1793C107.285 44.226 107.281 44.2722 107.271 44.318C107.262 44.3637 107.249 44.4082 107.231 44.4513C107.213 44.4944 107.191 44.5353 107.165 44.5741C107.139 44.6129 107.11 44.6488 107.077 44.6818C107.044 44.7148 107.008 44.7442 106.969 44.7701C106.931 44.796 106.89 44.8179 106.846 44.8358C106.803 44.8536 106.759 44.8671 106.713 44.8762C106.667 44.8853 106.621 44.8899 106.575 44.8899C106.528 44.8899 106.482 44.8853 106.436 44.8762C106.39 44.8671 106.346 44.8536 106.303 44.8358C106.26 44.8179 106.219 44.796 106.18 44.7701C106.141 44.7442 106.105 44.7148 106.072 44.6818L103.895 42.5047L101.718 44.6818C101.685 44.7148 101.649 44.7442 101.61 44.7701C101.572 44.796 101.531 44.8179 101.487 44.8358C101.444 44.8536 101.4 44.8671 101.354 44.8762C101.308 44.8853 101.262 44.8899 101.216 44.8899C101.169 44.8899 101.123 44.8853 101.077 44.8762C101.031 44.8671 100.987 44.8536 100.944 44.8358C100.901 44.8179 100.86 44.796 100.821 44.7701C100.782 44.7442 100.746 44.7148 100.713 44.6818C100.68 44.6488 100.651 44.6129 100.625 44.5741C100.599 44.5353 100.577 44.4944 100.559 44.4512C100.541 44.4081 100.528 44.3637 100.519 44.318C100.51 44.2722 100.505 44.226 100.505 44.1793C100.505 44.1327 100.51 44.0865 100.519 44.0407C100.528 43.995 100.541 43.9505 100.559 43.9074C100.577 43.8643 100.599 43.8234 100.625 43.7846C100.651 43.7458 100.68 43.7099 100.713 43.6769L102.183 42.2069ZM101.476 41.4998L100.006 40.0297C99.6719 39.6957 99.5049 39.2926 99.5049 38.8202C99.5049 38.3479 99.6719 37.9447 100.006 37.6107C100.34 37.2767 100.743 37.1097 101.215 37.1097C101.688 37.1097 102.091 37.2767 102.425 37.6107L103.895 39.0808L105.365 37.6107C105.699 37.2767 106.102 37.1097 106.575 37.1097C107.047 37.1097 107.45 37.2767 107.784 37.6107C108.118 37.9447 108.285 38.3479 108.285 38.8202C108.285 39.2926 108.118 39.6958 107.784 40.0298L106.314 41.4998L107.784 42.9698C108.118 43.3038 108.285 43.707 108.285 44.1793C108.285 44.6517 108.118 45.0549 107.784 45.3889C107.45 45.7229 107.047 45.8899 106.575 45.8899C106.102 45.8899 105.699 45.7229 105.365 45.3889L103.895 43.9189L102.425 45.3889C102.091 45.7229 101.688 45.8899 101.216 45.8899C100.743 45.8899 100.34 45.7229 100.006 45.3889C99.672 45.0549 99.505 44.6517 99.505 44.1794C99.505 43.707 99.672 43.3038 100.006 42.9698L101.476 41.4998Z" fill="#1E293B"/>
</g>
<path d="M94.7961 20.0795C95.9039 20.0795 96.8103 19.166 96.8103 18.0397C96.8103 16.9128 95.9039 16 94.7961 16C93.6812 16 92.782 16.9128 92.782 18.0397C92.782 19.166 93.6812 20.0795 94.7961 20.0795Z" fill="#BFDCFF"/>
<path d="M13.8657 29.6225C13.8657 29.6893 13.8625 29.7559 13.856 29.8224C13.8495 29.8889 13.8399 29.9549 13.827 30.0204C13.8141 30.086 13.7981 30.1507 13.779 30.2146C13.7598 30.2785 13.7376 30.3414 13.7124 30.4031C13.6871 30.4648 13.659 30.5251 13.6279 30.584C13.5968 30.6429 13.5629 30.7002 13.5263 30.7557C13.4896 30.8113 13.4504 30.8649 13.4085 30.9165C13.3667 30.9681 13.3224 31.0176 13.2758 31.0648C13.2291 31.112 13.1803 31.1569 13.1293 31.1992C13.0783 31.2416 13.0254 31.2814 12.9706 31.3185C12.9157 31.3556 12.8592 31.3899 12.801 31.4214C12.7428 31.4529 12.6833 31.4814 12.6223 31.507C12.5614 31.5325 12.4994 31.555 12.4362 31.5744C12.3731 31.5938 12.3092 31.61 12.2445 31.623C12.1798 31.6361 12.1146 31.6459 12.049 31.6524C11.9833 31.659 11.9175 31.6622 11.8516 31.6622C11.7856 31.6622 11.7198 31.659 11.6541 31.6524C11.5885 31.6459 11.5233 31.6361 11.4586 31.623C11.3939 31.61 11.33 31.5938 11.2669 31.5744C11.2037 31.555 11.1417 31.5325 11.0808 31.507C11.0198 31.4814 10.9603 31.4529 10.9021 31.4214C10.8439 31.3899 10.7874 31.3556 10.7326 31.3185C10.6777 31.2814 10.6248 31.2416 10.5738 31.1992C10.5228 31.1569 10.474 31.112 10.4273 31.0648C10.3807 31.0176 10.3364 30.9681 10.2946 30.9165C10.2527 30.8649 10.2135 30.8113 10.1768 30.7557C10.1402 30.7002 10.1063 30.6429 10.0752 30.584C10.0441 30.5251 10.016 30.4648 9.99072 30.4031C9.96548 30.3414 9.94328 30.2785 9.92413 30.2146C9.90498 30.1507 9.88897 30.086 9.8761 30.0204C9.86323 29.9549 9.85357 29.8889 9.8471 29.8224C9.84064 29.7559 9.8374 29.6893 9.8374 29.6225C9.8374 29.5557 9.84064 29.4891 9.8471 29.4226C9.85357 29.3561 9.86323 29.2901 9.8761 29.2246C9.88897 29.159 9.90498 29.0943 9.92413 29.0304C9.94328 28.9665 9.96548 28.9036 9.99072 28.8419C10.016 28.7802 10.0441 28.7199 10.0752 28.661C10.1063 28.6021 10.1402 28.5448 10.1768 28.4893C10.2135 28.4337 10.2527 28.3801 10.2946 28.3285C10.3364 28.2769 10.3807 28.2274 10.4273 28.1802C10.474 28.133 10.5228 28.0881 10.5738 28.0458C10.6248 28.0034 10.6777 27.9636 10.7326 27.9265C10.7874 27.8894 10.8439 27.8551 10.9021 27.8236C10.9603 27.7921 11.0198 27.7636 11.0808 27.738C11.1417 27.7125 11.2037 27.69 11.2669 27.6706C11.33 27.6512 11.3939 27.635 11.4586 27.622C11.5233 27.6089 11.5885 27.5991 11.6541 27.5926C11.7198 27.586 11.7856 27.5828 11.8516 27.5828C11.9175 27.5828 11.9833 27.586 12.049 27.5926C12.1146 27.5991 12.1798 27.6089 12.2445 27.622C12.3092 27.635 12.3731 27.6512 12.4362 27.6706C12.4994 27.69 12.5614 27.7125 12.6223 27.738C12.6833 27.7636 12.7428 27.7921 12.801 27.8236C12.8592 27.8551 12.9157 27.8894 12.9706 27.9265C13.0254 27.9636 13.0783 28.0034 13.1293 28.0458C13.1803 28.0881 13.2291 28.133 13.2758 28.1802C13.3224 28.2274 13.3667 28.2769 13.4085 28.3285C13.4504 28.3801 13.4896 28.4337 13.5263 28.4893C13.5629 28.5448 13.5968 28.6021 13.6279 28.661C13.659 28.7199 13.6871 28.7802 13.7124 28.8419C13.7376 28.9036 13.7598 28.9665 13.779 29.0304C13.7981 29.0943 13.8141 29.159 13.827 29.2246C13.8399 29.2901 13.8495 29.3561 13.856 29.4226C13.8625 29.4891 13.8657 29.5557 13.8657 29.6225Z" fill="#438DFB"/>
</g>
<defs>
<linearGradient id="paint0_linear_2867_184575" x1="88.3195" y1="23.6009" x2="43.9861" y2="86.9342" gradientUnits="userSpaceOnUse">
<stop offset="0.0571429" stop-color="#D8ECFF"/>
<stop offset="1" stop-color="#E2F7FF" stop-opacity="0.31"/>
</linearGradient>
<linearGradient id="paint1_linear_2867_184575" x1="62.895" y1="108" x2="62.895" y2="92.542" gradientUnits="userSpaceOnUse">
<stop offset="0.0285715" stop-color="#BFDCFF"/>
<stop offset="1" stop-color="#EDF8FF"/>
</linearGradient>
<linearGradient id="paint2_linear_2867_184575" x1="78.3752" y1="48" x2="43.2875" y2="94" gradientUnits="userSpaceOnUse">
<stop stop-color="#C8DCFF"/>
<stop offset="0.992857" stop-color="#EBF6FF"/>
</linearGradient>
<linearGradient id="paint3_linear_2867_184575" x1="67.395" y1="39" x2="67.395" y2="90" gradientUnits="userSpaceOnUse">
<stop stop-color="#3284FF"/>
<stop offset="1" stop-color="#34A4FF"/>
</linearGradient>
<linearGradient id="paint4_linear_2867_184575" x1="77.6449" y1="20.4067" x2="67.1449" y2="38.5933" gradientUnits="userSpaceOnUse">
<stop stop-color="#3284FF"/>
<stop offset="1" stop-color="#34A4FF"/>
</linearGradient>
<linearGradient id="paint5_linear_2867_184575" x1="83.947" y1="76.8917" x2="35.9639" y2="99.1847" gradientUnits="userSpaceOnUse">
<stop stop-color="white"/>
<stop offset="1" stop-color="#59BFFF" stop-opacity="0.33"/>
</linearGradient>
<clipPath id="clip0_2867_184575">
<rect width="124" height="124" fill="white"/>
</clipPath>
</defs>
</svg>
