<svg width="15" height="14" viewBox="0 0 15 14" fill="none" xmlns="http://www.w3.org/2000/svg">
<path d="M9.55078 0.583252L13.0508 4.08325V12.2502C13.0506 12.8944 12.528 13.4163 11.8838 13.4163H3.71777C3.07355 13.4163 2.55096 12.8944 2.55078 12.2502V1.75024C2.55078 1.10591 3.07344 0.583252 3.71777 0.583252H9.55078Z" fill="#54CC39"/>
<mask id="mask0_622_18443" style="mask-type:luminance" maskUnits="userSpaceOnUse" x="2" y="0" width="12" height="14">
<path d="M9.55078 0.583252L13.0508 4.08325V12.2502C13.0506 12.8944 12.528 13.4163 11.8838 13.4163H3.71777C3.07355 13.4163 2.55096 12.8944 2.55078 12.2502V1.75024C2.55078 1.10591 3.07344 0.583252 3.71777 0.583252H9.55078Z" fill="white"/>
</mask>
<g mask="url(#mask0_622_18443)">
<path fill-rule="evenodd" clip-rule="evenodd" d="M9.55078 0.583252L13.0508 4.08325H10.7174C10.0731 4.08325 9.55078 3.56092 9.55078 2.91659V0.583252Z" fill="#A5E693"/>
</g>
<g filter="url(#filter0_d_622_18443)">
<path d="M7.53027 6.41675C7.59455 6.41675 7.64722 6.46874 7.64746 6.53296V10.3835C7.64739 10.4479 7.59466 10.4998 7.53027 10.4998H4.70801C4.64383 10.4995 4.59187 10.4478 4.5918 10.3835V6.53296C4.59204 6.46889 4.64394 6.41699 4.70801 6.41675H7.53027ZM10.8916 6.41675C10.9559 6.41675 11.0086 6.4687 11.0088 6.53296V10.3835C11.0087 10.4479 10.956 10.4998 10.8916 10.4998H8.06934C8.00512 10.4996 7.95324 10.4478 7.95312 10.3835V6.53296C7.95333 6.4688 8.00517 6.41692 8.06934 6.41675H10.8916ZM5.34863 9.18726C5.2684 9.1874 5.20343 9.25257 5.20312 9.33276C5.20312 9.41322 5.26821 9.47911 5.34863 9.47925H5.97363C6.05409 9.47915 6.12012 9.41324 6.12012 9.33276C6.11981 9.25254 6.0539 9.18735 5.97363 9.18726H5.34863ZM5.34863 8.31226C5.2684 8.3124 5.20343 8.37757 5.20312 8.45776C5.20312 8.53822 5.26821 8.60411 5.34863 8.60425H7.04297C7.12343 8.60415 7.18945 8.53824 7.18945 8.45776C7.18915 8.37754 7.12324 8.31235 7.04297 8.31226H5.34863ZM8.55762 8.31226C8.47727 8.31226 8.41144 8.37748 8.41113 8.45776C8.41113 8.53831 8.47708 8.60425 8.55762 8.60425H9.4873C9.56776 8.60415 9.63379 8.53824 9.63379 8.45776C9.63348 8.37754 9.56757 8.31235 9.4873 8.31226H8.55762ZM5.34863 7.43726C5.26843 7.43743 5.20343 7.50259 5.20312 7.58276C5.20312 7.6632 5.26824 7.72907 5.34863 7.72925H7.04297C7.12343 7.72915 7.18945 7.66324 7.18945 7.58276C7.18915 7.50254 7.12324 7.43735 7.04297 7.43726H5.34863ZM8.55762 7.43726C8.47727 7.43726 8.41144 7.50248 8.41113 7.58276C8.41113 7.66331 8.47708 7.72925 8.55762 7.72925H10.252C10.3323 7.729 10.3975 7.66315 10.3975 7.58276C10.3972 7.50264 10.3321 7.4375 10.252 7.43726H8.55762Z" fill="white"/>
</g>
<defs>
<filter id="filter0_d_622_18443" x="4.5918" y="6.41675" width="7.58268" height="5.24967" filterUnits="userSpaceOnUse" color-interpolation-filters="sRGB">
<feFlood flood-opacity="0" result="BackgroundImageFix"/>
<feColorMatrix in="SourceAlpha" type="matrix" values="0 0 0 0 0 0 0 0 0 0 0 0 0 0 0 0 0 0 127 0" result="hardAlpha"/>
<feOffset dx="0.583333" dy="0.583333"/>
<feGaussianBlur stdDeviation="0.291667"/>
<feColorMatrix type="matrix" values="0 0 0 0 0.207843 0 0 0 0 0.686275 0 0 0 0 0.117647 0 0 0 0.429713 0"/>
<feBlend mode="normal" in2="BackgroundImageFix" result="effect1_dropShadow_622_18443"/>
<feBlend mode="normal" in="SourceGraphic" in2="effect1_dropShadow_622_18443" result="shape"/>
</filter>
</defs>
</svg>
