<svg xmlns="http://www.w3.org/2000/svg" xmlns:xlink="http://www.w3.org/1999/xlink" fill="none" version="1.1" width="16" height="16" viewBox="0 0 16 16"><defs><clipPath id="master_svg0_327_003816"><rect x="0" y="0" width="16" height="16" rx="0"/></clipPath></defs><g clip-path="url(#master_svg0_327_003816)"><g><path d="M1.333251953125,8.000003373069763L1.333251953125,13.666633373069763C1.333251953125,14.218933373069763,1.780966953125,14.666633373069763,2.333251953125,14.666633373069763L13.666551953125,14.666633373069763C14.218851953125,14.666633373069763,14.666551953125,14.218933373069763,14.666551953125,13.666633373069763L14.666551953125,2.333333373069763C14.666551953125,1.7810483730697633,14.218851953125,1.3333333730697632,13.666551953125,1.3333333730697632L2.333251953125,1.3333333730697632C1.780966953125,1.3333333730697632,1.333251953125,1.7810483730697633,1.333251953125,2.333333373069763L1.333251953125,8.000003373069763ZM2.666581953125,8.666663373069763L3.999921953125,8.666663373069763C4.368111953125,8.666663373069763,4.666581953125,8.368193373069763,4.666581953125,8.000003373069763C4.666581953125,7.631813373069763,4.368111953125,7.333333373069763,3.999921953125,7.333333373069763L2.666581953125,7.333333373069763L2.666581953125,2.6666633730697633L7.333251953125,2.6666633730697633L7.333251953125,4.000003373069763C7.333251953125,4.368193373069763,7.631731953125,4.666663373069763,7.999921953125,4.666663373069763C8.368111953125,4.666663373069763,8.666581953125,4.368193373069763,8.666581953125,4.000003373069763L8.666581953125,2.6666633730697633L13.333251953125,2.6666633730697633L13.333251953125,7.333333373069763L11.999951953125,7.333333373069763C11.631751953125,7.333333373069763,11.333251953125,7.631813373069763,11.333251953125,8.000003373069763C11.333251953125,8.368193373069763,11.631751953125,8.666663373069763,11.999951953125,8.666663373069763L13.333251953125,8.666663373069763L13.333251953125,13.333333373069763L8.666581953125,13.333333373069763L8.666581953125,12.000033373069764C8.666581953125,11.631833373069764,8.368111953125,11.333333373069763,7.999921953125,11.333333373069763C7.631731953125,11.333333373069763,7.333251953125,11.631833373069764,7.333251953125,12.000033373069764L7.333251953125,13.333333373069763L2.666581953125,13.333333373069763L2.666581953125,8.666663373069763ZM6.666581953125,5.666663373069763C6.114301953125,5.666663373069763,5.666581953125,6.114383373069763,5.666581953125,6.666663373069763L5.666581953125,9.333333373069763C5.666581953125,9.885623373069762,6.114301953125,10.333333373069763,6.666581953125,10.333333373069763L9.333251953125,10.333333373069763C9.885541953125,10.333333373069763,10.333251953125,9.885623373069762,10.333251953125,9.333333373069763L10.333251953125,6.666663373069763C10.333251953125,6.114383373069763,9.885541953125,5.666663373069763,9.333251953125,5.666663373069763L6.666581953125,5.666663373069763ZM6.999921953125,9.000003373069763L8.999921953125,9.000003373069763L8.999921953125,7.000003373069763L6.999921953125,7.000003373069763L6.999921953125,9.000003373069763Z" fill-rule="evenodd" fill="#6E7B8D" fill-opacity="1"/></g></g></svg>