<svg xmlns="http://www.w3.org/2000/svg" xmlns:xlink="http://www.w3.org/1999/xlink" style="fill:currentColor;"
    fill="none" version="1.1" width="1em" height="1em" viewBox="0 0 22 22">
    <g>
        <g></g>
        <g>
            <g></g>
            <g>
                <g>
                    <path
                        d="M3.2083740234375,8.835694023437501L3.2083740234375,4.5069840234375C3.2083740234375,3.7897820234375,3.7897820234375,3.2083740234375,4.5069840234375,3.2083740234375L8.835694023437501,3.2083740234375C9.5528940234375,3.2083740234375,10.134304023437501,3.7897820234375,10.134304023437501,4.5069840234375L10.134304023437501,8.835694023437501C10.134304023437501,9.5528940234375,9.5528940234375,10.134304023437501,8.835694023437501,10.134304023437501L4.5069840234375,10.134304023437501C3.7897820234375,10.134304023437501,3.2083740234375,9.5528940234375,3.2083740234375,8.835694023437501ZM4.5069840234375,8.835694023437501L8.835694023437501,8.835694023437501L8.835694023437501,4.5069840234375L4.5069840234375,4.5069840234375L4.5069840234375,8.835694023437501ZM11.8656040234375,8.835694023437501L11.8656040234375,4.5069840234375C11.8656040234375,3.7897820234375,12.4470040234375,3.2083740234375,13.1642140234375,3.2083740234375L17.4928740234375,3.2083740234375C18.2100740234375,3.2083740234375,18.791574023437498,3.7897820234375,18.791574023437498,4.5069840234375L18.791574023437498,8.835694023437501C18.791574023437498,9.5528940234375,18.2100740234375,10.134304023437501,17.4928740234375,10.134304023437501L13.1642140234375,10.134304023437501C12.4470040234375,10.134304023437501,11.8656040234375,9.5528940234375,11.8656040234375,8.835694023437501ZM13.1642140234375,8.835694023437501L17.4928740234375,8.835694023437501L17.4928740234375,4.5069840234375L13.1642140234375,4.5069840234375L13.1642140234375,8.835694023437501ZM11.8656040234375,17.4930740234375L11.8656040234375,13.1643640234375C11.8656040234375,12.4471640234375,12.4470040234375,11.8657540234375,13.1642140234375,11.8657540234375L17.4928740234375,11.8657540234375C18.2100740234375,11.8657540234375,18.791574023437498,12.4471640234375,18.791574023437498,13.1643640234375L18.791574023437498,17.4930740234375C18.791574023437498,18.2102740234375,18.2100740234375,18.7916740234375,17.4928740234375,18.7916740234375L13.1642140234375,18.7916740234375C12.4470040234375,18.7916740234375,11.8656040234375,18.2102740234375,11.8656040234375,17.4930740234375ZM13.1642140234375,17.4930740234375L17.4928740234375,17.4930740234375L17.4928740234375,13.1643640234375L13.1642140234375,13.1643640234375L13.1642140234375,17.4930740234375ZM3.2083740234375,17.4930740234375L3.2083740234375,13.1643640234375C3.2083740234375,12.4471640234375,3.7897820234375,11.8657540234375,4.5069840234375,11.8657540234375L8.835694023437501,11.8657540234375C9.5528940234375,11.8657540234375,10.134304023437501,12.4471640234375,10.134304023437501,13.1643640234375L10.134304023437501,17.4930740234375C10.134304023437501,18.2102740234375,9.5528940234375,18.7916740234375,8.835694023437501,18.7916740234375L4.5069840234375,18.7916740234375C3.7897820234375,18.7916740234375,3.2083740234375,18.2102740234375,3.2083740234375,17.4930740234375ZM4.5069840234375,17.4930740234375L8.835694023437501,17.4930740234375L8.835694023437501,13.1643640234375L4.5069840234375,13.1643640234375L4.5069840234375,17.4930740234375Z"
                        fill-rule="evenodd" fill-opacity="1" />
                </g>
            </g>
        </g>
    </g>
</svg>