<svg width="14" height="15" viewBox="0 0 14 15" fill="none" xmlns="http://www.w3.org/2000/svg">
<g clip-path="url(#clip0_713_31175)">
<path fill-rule="evenodd" clip-rule="evenodd" d="M12.5415 1.95898L12.5415 6.33383H11.3748L11.3748 3.95102L6.48543 8.84013L5.66049 8.01515L10.5502 3.12572L8.16649 3.12581L8.16645 1.95914L12.5415 1.95898ZM11.3748 8.0841L11.3748 11.8758H2.62484V3.12576L6.4165 3.12576V1.9591L2.33317 1.9591C1.84992 1.9591 1.45817 2.35085 1.45817 2.8341V12.1674C1.45817 12.6507 1.84992 13.0424 2.33317 13.0424H11.6665C12.1498 13.0424 12.5415 12.6507 12.5415 12.1674V8.0841H11.3748Z" fill="#007DFA"/>
</g>
<defs>
<clipPath id="clip0_713_31175">
<rect width="14" height="14" fill="white" transform="matrix(-1 0 0 1 14 0.5)"/>
</clipPath>
</defs>
</svg>
