<svg xmlns="http://www.w3.org/2000/svg" xmlns:xlink="http://www.w3.org/1999/xlink" fill="none" version="1.1" width="24" height="24" viewBox="0 0 24 24"><defs><clipPath id="master_svg0_327_85239"><rect x="3.2727274894714355" y="3.2727274894714355" width="17.454545974731445" height="17.454545974731445" rx="0"/></clipPath></defs><g><g><g><rect x="0" y="0" width="24" height="24" rx="4" fill="#FFF5DA" fill-opacity="1"/></g><g clip-path="url(#master_svg0_327_85239)"><g><path d="M10.235500614471436,8.933109989471436L5.741637214471435,16.553279989471434C5.661765114471436,16.688719989471437,5.660636914471436,16.856579989471435,5.738681114471436,16.993079989471436C5.816725614471435,17.129579989471438,5.961959614471436,17.213749989471438,6.119193614471436,17.213619989471436L15.106580614471435,17.213619989471436C15.263750614471435,17.213629989471436,15.408880614471435,17.129399989471437,15.486840614471436,16.992929989471435C15.564800614471435,16.856449989471436,15.563640614471435,16.688659989471436,15.483800614471436,16.553279989471434L10.989930614471437,8.933962989471436C10.820850614471436,8.646443089471436,10.405230614471435,8.645973689471436,10.235500614471436,8.933109989471436Z" fill="#FCBA26" fill-opacity="1"/></g><g><path d="M15.159021239471436,12.579472114471436L12.859414739471436,16.560098114471437C12.690828239471436,16.852098114471435,12.901502239471435,17.217108114471436,13.238676239471436,17.217198114471437L17.837881239471436,17.217198114471437C17.994381239471437,17.217198114471437,18.138981239471434,17.133688114471436,18.217191239471436,16.998128114471434C18.295401239471435,16.862568114471436,18.295311239471435,16.695578114471434,18.216971239471434,16.560098114471437L15.917371239471436,12.579472114471436C15.748801239471435,12.287666214471436,15.327591239471435,12.287666214471436,15.159021239471436,12.579472114471436Z" fill="#FFDE09" fill-opacity="1"/></g><g><path d="M15.483960638885499,16.555066864471435L14.160040638885498,14.309836864471436L12.859469738885497,16.561026864471437C12.701134738885498,16.835236864471437,12.877191638885497,17.181666864471435,13.192026638885498,17.215406864471436L15.106740638885498,17.215406864471436C15.263920638885498,17.215416864471436,15.409040638885498,17.131186864471434,15.487000638885497,16.994706864471436C15.564960638885498,16.858236864471436,15.563800638885498,16.690446864471436,15.483960638885499,16.555066864471435Z" fill="#FB8B06" fill-opacity="1"/></g><g><path d="M16.482957152557372,9.033738739471435Q16.482957152557372,9.134468739471435,16.463307152557373,9.233258739471436Q16.44365715255737,9.332058739471435,16.405107152557374,9.425118739471436Q16.366567152557373,9.518178739471436,16.310597152557374,9.601928739471436Q16.254637152557372,9.685688739471436,16.183407152557372,9.756908739471436Q16.11218715255737,9.828138739471436,16.028427152557374,9.884098739471435Q15.944677152557373,9.940068739471435,15.851617152557374,9.978608739471436Q15.758557152557373,10.017158739471435,15.659757152557374,10.036808739471436Q15.560967152557373,10.056458739471436,15.460237152557372,10.056458739471436Q15.359504152557372,10.056458739471436,15.260710152557373,10.036808739471436Q15.161916152557373,10.017158739471435,15.068853152557374,9.978608739471436Q14.975791152557374,9.940068739471435,14.892037152557373,9.884098739471435Q14.808284152557373,9.828138739471436,14.737057152557373,9.756908739471436Q14.665830152557373,9.685688739471436,14.609868152557373,9.601928739471436Q14.553905152557373,9.518178739471436,14.515357652557373,9.425118739471436Q14.476809952557373,9.332058739471435,14.457158552557374,9.233258739471436Q14.437507152557373,9.134468739471435,14.437507152557373,9.033738739471435Q14.437507152557373,8.933005739471435,14.457158552557374,8.834211739471435Q14.476809952557373,8.735417739471435,14.515357652557373,8.642354739471436Q14.553905152557373,8.549292739471436,14.609868152557373,8.465538739471436Q14.665830152557373,8.381785739471436,14.737057152557373,8.310558739471436Q14.808284152557373,8.239331739471435,14.892037152557373,8.183369739471436Q14.975791152557374,8.127406739471436,15.068853152557374,8.088859239471436Q15.161916152557373,8.050311539471435,15.260710152557373,8.030660139471436Q15.359504152557372,8.011008739471436,15.460237152557372,8.011008739471436Q15.560967152557373,8.011008739471436,15.659757152557374,8.030660139471436Q15.758557152557373,8.050311539471435,15.851617152557374,8.088859239471436Q15.944677152557373,8.127406739471436,16.028427152557374,8.183369739471436Q16.11218715255737,8.239331739471435,16.183407152557372,8.310558739471436Q16.254637152557372,8.381785739471436,16.310597152557374,8.465538739471436Q16.366567152557373,8.549292739471436,16.405107152557374,8.642354739471436Q16.44365715255737,8.735417739471435,16.463307152557373,8.834211739471435Q16.482957152557372,8.933005739471435,16.482957152557372,9.033738739471435Z" fill="#FB8B06" fill-opacity="1"/></g></g></g><g><rect x="0.5" y="0.5" width="23" height="23" rx="3.5" fill-opacity="0" stroke-opacity="1" stroke="#CBD5E1" fill="none" stroke-width="1"/></g></g></svg>