<svg xmlns="http://www.w3.org/2000/svg" xmlns:xlink="http://www.w3.org/1999/xlink" fill="none" version="1.1" width="24" height="24" viewBox="0 0 24 24"><defs><clipPath id="master_svg0_327_85188"><rect x="3.1060638427734375" y="3.2727274894714355" width="17.454545974731445" height="17.454545974731445" rx="0"/></clipPath></defs><g><g><g><g><g clip-path="url(#master_svg0_327_85188)"><g><path d="M16.689143505859377,17.746903114471436L7.142491505859375,17.746903114471436C6.695611505859375,17.746903114471436,6.333343505859375,17.384643114471437,6.333343505859375,16.937763114471437L6.333343505859375,12.718498114471435C6.333376131959375,12.156172114471435,6.892837505859375,11.765339114471436,7.420843505859375,11.958782614471435L11.637373505859376,13.502593114471436C11.817113505859375,13.568393114471435,12.014343505859376,13.568393114471435,12.194083505859375,13.502593114471436L16.410643505859376,11.957589414471435C16.939143505859377,11.763972114471436,17.498943505859373,12.155667114471436,17.498143505859375,12.718498114471435L17.498143505859375,16.937763114471437C17.498243505859374,17.384613114471435,17.135943505859373,17.746903114471436,16.689143505859377,17.746903114471436Z" fill="#1C95FF" fill-opacity="1"/></g><g><path d="M8.41323237109375,6.9992899894714355L15.65686537109375,6.9992899894714355Q16.64584537109375,6.9992899894714355,16.64584537109375,7.988266989471436L16.64584537109375,14.481899989471437Q16.64584537109375,15.470879989471436,15.65686537109375,15.470879989471436L8.41323237109375,15.470879989471436Q7.42425537109375,15.470879989471436,7.42425537109375,14.481899989471437L7.42425537109375,7.988266989471436Q7.42425537109375,6.9992899894714355,8.41323237109375,6.9992899894714355Z" fill="#1C95FF" fill-opacity="1"/></g><g><path d="M16.52993537109375,11.940390814471435L12.31340537109375,13.485053114471436C12.13366537109375,13.550853114471435,11.93643537109375,13.550853114471435,11.75669537109375,13.485053114471436L7.54016437109375,11.940390814471435C7.50239317109375,11.926578714471436,7.46365097109375,11.915582384471435,7.42425537109375,11.907493114471436L7.42425537109375,14.405503114471436C7.42425537109375,14.951513114471435,7.86688337109375,15.394143114471436,8.41289137109375,15.394143114471436L15.65720537109375,15.394143114471436C16.203215371093748,15.394143114471436,16.64584537109375,14.951513114471435,16.64584537109375,14.405503114471436L16.64584537109375,11.907493114471436C16.606465371093748,11.915626324471436,16.56772537109375,11.926621314471436,16.52993537109375,11.940390814471435Z" fill="#3BDBFF" fill-opacity="1"/></g><g><path d="M9.70822691015625,8.634055614471436L14.41298791015625,8.634055614471436Q15.06060791015625,8.634055614471436,15.06060791015625,9.179510614471436Q15.06060791015625,9.724965614471436,14.41298791015625,9.724965614471436L9.70822691015625,9.724965614471436Q9.06060791015625,9.724965614471436,9.06060791015625,9.179510614471436Q9.06060791015625,8.634055614471436,9.70822691015625,8.634055614471436Z" fill="#3BDBFF" fill-opacity="1"/></g><g><path d="M10.857053775390625,10.817649364471436L13.264169775390625,10.817649364471436Q13.969699775390625,10.817649364471436,13.969699775390625,11.363104364471436Q13.969699775390625,11.908559364471436,13.264169775390625,11.908559364471436L10.857053775390625,11.908559364471436Q10.151519775390625,11.908559364471436,10.151519775390625,11.363104364471436Q10.151519775390625,10.817649364471436,10.857053775390625,10.817649364471436Z" fill="#3BDBFF" fill-opacity="1"/></g></g></g></g></g><g><rect x="0.5" y="0.5" width="23" height="23" rx="3.5" fill-opacity="0" stroke-opacity="1" stroke="#CBD5E1" fill="none" stroke-width="1"/></g></g></svg>