<svg xmlns="http://www.w3.org/2000/svg" xmlns:xlink="http://www.w3.org/1999/xlink" fill="none" version="1.1" width="24" height="24" viewBox="0 0 24 24"><defs><clipPath id="master_svg0_327_85215"><rect x="3.2727274894714355" y="3.2727274894714355" width="17.454545974731445" height="17.454545974731445" rx="0"/></clipPath></defs><g><g><g><rect x="0" y="0" width="24" height="24" rx="4" fill="#F4FAE5" fill-opacity="1"/></g><g clip-path="url(#master_svg0_327_85215)"><rect x="3.2727274894714355" y="3.2727274894714355" width="17.454545974731445" height="17.454545974731445" rx="0" fill="#F4FAE5" fill-opacity="1"/><g><path d="M8.394033759002685,6.5461649894714355L15.418463759002686,6.5461649894714355Q16.721583759002684,6.5461649894714355,16.721583759002684,7.849294989471435L16.721583759002684,16.458944989471433Q16.721583759002684,17.762064989471433,15.418463759002686,17.762064989471433L8.394033759002685,17.762064989471433Q7.0909037590026855,17.762064989471433,7.0909037590026855,16.458944989471433L7.0909037590026855,7.849294989471435Q7.0909037590026855,6.5461649894714355,8.394033759002685,6.5461649894714355Z" fill="#9FDB1D" fill-opacity="1"/></g><g><path d="M9.433767556854248,11.727805614471436L14.566231556854248,11.727805614471436Q15.272721556854247,11.727805614471436,15.272721556854247,12.273260614471436Q15.272721556854247,12.818715614471436,14.566231556854248,12.818715614471436L9.433767556854248,12.818715614471436Q8.727273832664247,12.818715614471436,8.727271556854248,12.273260614471436Q8.727271556854248,11.727805614471436,9.433767556854248,11.727805614471436Z" fill="#00B30C" fill-opacity="1"/></g><g transform="matrix(0,-1,1,0,-7.0903778076171875,24.544920921325684)"><path d="M9.492639556854249,15.817649364471436L15.052811556854248,15.817649364471436Q15.818181556854249,15.817649364471436,15.818181556854249,16.363104364471436Q15.818181556854249,16.908559364471436,15.052811556854248,16.908559364471436L9.492639556854249,16.908559364471436Q8.727271556854248,16.908559364471436,8.727271556854248,16.363104364471436Q8.727271556854248,15.817649364471436,9.492639556854249,15.817649364471436Z" fill="#10B981" fill-opacity="1"/></g><g transform="matrix(0,-1,1,0,-1.635833740234375,29.999464988708496)"><path d="M14.947183624237061,15.817649364471436L20.50735562423706,15.817649364471436Q21.27272562423706,15.817649364471436,21.27272562423706,16.363104364471436Q21.27272562423706,16.908559364471436,20.50735562423706,16.908559364471436L14.947183624237061,16.908559364471436Q14.18181562423706,16.908559364471436,14.18181562423706,16.363104364471436Q14.18181562423706,15.817649364471436,14.947183624237061,15.817649364471436Z" fill="#10B981" fill-opacity="1"/></g><g transform="matrix(0,-1,1,0,-4.36309814453125,27.27220058441162)"><path d="M12.219919219940186,15.817649364471436L17.780091219940186,15.817649364471436Q18.545461219940186,15.817649364471436,18.545461219940186,16.363104364471436Q18.545461219940186,16.908559364471436,17.780091219940186,16.908559364471436L12.219919219940186,16.908559364471436Q11.454551219940186,16.908559364471436,11.454551219940186,16.363104364471436Q11.454551219940186,15.817649364471436,12.219919219940186,15.817649364471436Z" fill="#00B30C" fill-opacity="1"/></g><g><path d="M9.433765556854247,14.727805614471436L14.566231556854248,14.727805614471436Q15.272721556854247,14.727805614471436,15.272721556854247,15.273260614471436Q15.272721556854247,15.818715614471436,14.566231556854248,15.818715614471436L9.433765556854247,15.818715614471436Q8.727271556854248,15.818715614471436,8.727271556854248,15.273260614471436Q8.727271556854248,14.727805614471436,9.433765556854247,14.727805614471436Z" fill="#10B981" fill-opacity="1"/></g><g><path d="M9.433765556854247,8.727805614471436L14.566231556854248,8.727805614471436Q15.272721556854247,8.727805614471436,15.272721556854247,9.273260614471436Q15.272721556854247,9.818715614471436,14.566231556854248,9.818715614471436L9.433765556854247,9.818715614471436Q8.727271556854248,9.818715614471436,8.727271556854248,9.273260614471436Q8.727271556854248,8.727805614471436,9.433765556854247,8.727805614471436Z" fill="#10B981" fill-opacity="1"/></g></g></g><g><rect x="0.5" y="0.5" width="23" height="23" rx="3.5" fill-opacity="0" stroke-opacity="1" stroke="#CBD5E1" fill="none" stroke-width="1"/></g></g></svg>