<?xml version="1.0" encoding="UTF-8"?>
<svg width="40px" height="40px" viewBox="0 0 40 40" version="1.1" xmlns="http://www.w3.org/2000/svg" xmlns:xlink="http://www.w3.org/1999/xlink">
    <title>4.数据展示/缩略图/知识库</title>
    <defs>
        <linearGradient x1="50%" y1="0%" x2="50%" y2="100%" id="linearGradient-1">
            <stop stop-color="#877FFF" offset="0%"></stop>
            <stop stop-color="#5443FF" offset="100%"></stop>
        </linearGradient>
    </defs>
    <g id="4.数据展示/缩略图/知识库" stroke="none" stroke-width="1" fill="none" fill-rule="evenodd">
        <path d="M7.6916556,-3.10752092e-16 L32.3083444,3.10752092e-16 C34.9829006,-1.80555915e-16 35.9527593,0.278476833 36.9305371,0.801398111 C37.9083149,1.32431939 38.6756806,2.09168511 39.1986019,3.06946289 C39.7215232,4.04724067 40,5.01709938 40,7.6916556 L40,32.3083444 C40,34.9829006 39.7215232,35.9527593 39.1986019,36.9305371 C38.6756806,37.9083149 37.9083149,38.6756806 36.9305371,39.1986019 C35.9527593,39.7215232 34.9829006,40 32.3083444,40 L7.6916556,40 C5.01709938,40 4.04724067,39.7215232 3.06946289,39.1986019 C2.09168511,38.6756806 1.32431939,37.9083149 0.801398111,36.9305371 C0.278476833,35.9527593 1.2037061e-16,34.9829006 -2.07168062e-16,32.3083444 L2.07168062e-16,7.6916556 C-1.2037061e-16,5.01709938 0.278476833,4.04724067 0.801398111,3.06946289 C1.32431939,2.09168511 2.09168511,1.32431939 3.06946289,0.801398111 C4.04724067,0.278476833 5.01709938,1.80555915e-16 7.6916556,-3.10752092e-16 Z" id="矩形" fill="url(#linearGradient-1)"></path>
        <g id="知识库" transform="translate(7.500000, 8.750000)">
            <rect id="矩形" x="0" y="0" width="23.75" height="23.75"></rect>
            <g id="编组" transform="translate(2.968750, 1.484375)" fill="#FFFFFF">
                <path d="M2.5,19.7916667 C1.11928813,19.7916667 2.00856617e-15,18.6723785 0,17.2916667 L0,2.5 C-1.69088438e-16,1.11928813 1.11928813,2.53632657e-16 2.5,0 L12.34375,0 C13.7244619,-2.53632657e-16 14.84375,1.11928813 14.84375,2.5 L14.84375,9.89583333 C14.84375,9.34928646 15.2867865,8.90625 15.8333333,8.90625 L17.8125,8.90625 C18.3590469,8.90625 18.8020833,9.34928646 18.8020833,9.89583333 L18.8020833,18.3072917 C18.8020833,19.127112 18.1375286,19.7916667 17.3177083,19.7916667 L2.5,19.7916667 Z M8.90625,6.421875 L2.96875,6.421875 L2.85212887,6.42860273 C2.35479019,6.48636784 1.96875,6.90903916 1.96875,7.421875 C1.96875,7.97415975 2.41646525,8.421875 2.96875,8.421875 L2.96875,8.421875 L8.90625,8.421875 L9.02287113,8.41514727 C9.52020981,8.35738216 9.90625,7.93471084 9.90625,7.421875 C9.90625,6.86959025 9.45853475,6.421875 8.90625,6.421875 L8.90625,6.421875 Z M6.92708333,2.95833333 L2.96875,2.95833333 L2.85212887,2.96506106 C2.35479019,3.02282617 1.96875,3.44549749 1.96875,3.95833333 C1.96875,4.51061808 2.41646525,4.95833333 2.96875,4.95833333 L2.96875,4.95833333 L6.92708333,4.95833333 L7.04370446,4.9516056 C7.54104314,4.89384049 7.92708333,4.47116917 7.92708333,3.95833333 C7.92708333,3.40604858 7.47936808,2.95833333 6.92708333,2.95833333 L6.92708333,2.95833333 Z" id="形状结合"></path>
            </g>
        </g>
    </g>
</svg>