<svg xmlns="http://www.w3.org/2000/svg" class="arco-icon" style="stroke:none;fill:currentColor;"
    xmlns:xlink="http://www.w3.org/1999/xlink" fill="none" version="1.1" width="1em" height="1em" viewBox="0 0 22.0 22.0" >
  <g clip-path="url(#clip0_334034_7160)">
    <mask id="mask0_334034_7160" style="mask-type:luminance" maskUnits="userSpaceOnUse" x="0" y="0" width="15" height="15">
      <rect x="14.5455" y="14.5454" width="14.5455" height="14.5455" transform="rotate(-180 14.5455 14.5454)" fill="white"/>
    </mask>
    <g mask="url(#mask0_334034_7160)">
      <path opacity="0.32" d="M7.95338 7.94031L12.1331 7.94031C13.4654 7.94008 14.5455 9.02019 14.5455 10.3526V12.1305C14.5455 13.4628 13.4654 14.5428 12.1331 14.5428H10.3657C9.03342 14.5428 7.95338 13.4628 7.95338 12.1305L7.95338 7.94031Z" fill="currentColor"/>
      <path d="M2.41264 7.94336C1.08035 7.94336 -0.000443459 9.02318 -0.000443459 10.3555V12.1328C-0.000442505 13.4651 1.0802 14.5459 2.41264 14.5459H4.20073C5.53266 14.5454 6.61186 13.4648 6.61186 12.1328L6.61186 8.85156C6.61161 8.3497 6.2046 7.94336 5.70268 7.94336L2.41264 7.94336ZM10.3658 0C9.03339 0 7.95355 1.07998 7.95366 2.41211L7.95366 5.69336C7.95366 6.19544 8.36076 6.60254 8.86284 6.60254L12.1333 6.60254C13.4655 6.60242 14.5453 5.52254 14.5455 4.19043V2.41211C14.5453 1.07983 13.4654 -0.000105532 12.1333 0L10.3658 0ZM2.41264 0C1.08043 0 -0.000326157 1.07992 -0.000443459 2.41211V4.19043C-0.000311852 5.52245 1.08037 6.60232 2.41264 6.60254L5.70268 6.60254C6.20476 6.60254 6.61186 6.19544 6.61186 5.69336L6.61186 2.41211C6.61174 1.07976 5.53191 -0.000221991 4.19975 0L2.41264 0Z" fill="currentColor"/>
    </g>
  </g>
  <defs>
    <clipPath id="clip0_334034_7160">
      <rect width="14.5455" height="14.5455" fill="white" transform="matrix(-1 0 0 1 14.5455 0)"/>
    </clipPath>
  </defs>
</svg>