<svg xmlns="http://www.w3.org/2000/svg" xmlns:xlink="http://www.w3.org/1999/xlink" fill="none" version="1.1" width="16" height="16" viewBox="0 0 16 16"><defs><clipPath id="master_svg0_814_011169"><rect x="0" y="0" width="16" height="16" rx="0"/></clipPath></defs><g clip-path="url(#master_svg0_814_011169)"><g><path d="M1.66650390625,7.999345625C1.66650390625,4.501545625,4.50203390625,1.666015625,7.99983390625,1.666015625C11.49763390625,1.666015625,14.33320390625,4.501545625,14.33320390625,7.999345625C14.33320390625,7.999345625,14.33320390625,8.209215624999999,14.33320390625,8.209215624999999C14.33320390625,11.591115625,11.59160390625,14.332715625,8.209703906249999,14.332715625C8.209703906249999,14.332715625,1.66650390625,14.332715625,1.66650390625,14.332715625C1.66650390625,14.332715625,1.66650390625,7.999345625,1.66650390625,7.999345625C1.66650390625,7.999345625,1.66650390625,7.999345625,1.66650390625,7.999345625ZM7.99983390625,2.999345625C5.238403906249999,2.999345625,2.99983390625,5.237915624999999,2.99983390625,7.999345625C2.99983390625,7.999345625,2.99983390625,12.999315625,2.99983390625,12.999315625C2.99983390625,12.999315625,8.209703906249999,12.999315625,8.209703906249999,12.999315625C10.85523390625,12.999315625,12.99980390625,10.854745625,12.99980390625,8.209215624999999C12.99980390625,8.209215624999999,12.99980390625,7.999345625,12.99980390625,7.999345625C12.99980390625,5.237915624999999,10.76127390625,2.999345625,7.99983390625,2.999345625C7.99983390625,2.999345625,7.99983390625,2.999345625,7.99983390625,2.999345625ZM10.99983390625,5.999345625C10.99983390625,5.999345625,10.99983390625,7.332685625,10.99983390625,7.332685625C10.99983390625,7.332685625,4.99983390625,7.332685625,4.99983390625,7.332685625C4.99983390625,7.332685625,4.99983390625,5.999345625,4.99983390625,5.999345625C4.99983390625,5.999345625,10.99983390625,5.999345625,10.99983390625,5.999345625C10.99983390625,5.999345625,10.99983390625,5.999345625,10.99983390625,5.999345625ZM7.99983390625,10.332685625C7.99983390625,10.332685625,4.99983390625,10.332685625,4.99983390625,10.332685625C4.99983390625,10.332685625,4.99983390625,8.999345625,4.99983390625,8.999345625C4.99983390625,8.999345625,7.99983390625,8.999345625,7.99983390625,8.999345625C7.99983390625,8.999345625,7.99983390625,10.332685625,7.99983390625,10.332685625C7.99983390625,10.332685625,7.99983390625,10.332685625,7.99983390625,10.332685625Z" fill-rule="evenodd" fill="currentColor" fill-opacity="1"/></g></g></svg>