<svg width="124" height="124" viewBox="0 0 124 124" fill="none" xmlns="http://www.w3.org/2000/svg">
<mask id="mask0_125_31171" style="mask-type:luminance" maskUnits="userSpaceOnUse" x="0" y="0" width="124" height="124">
<rect width="124" height="124" fill="white"/>
</mask>
<g mask="url(#mask0_125_31171)">
<path d="M65 112C92.6142 112 115 89.6142 115 62C115 34.3858 92.6142 12 65 12C37.3858 12 15 34.3858 15 62C15 89.6142 37.3858 112 65 112Z" fill="url(#paint0_linear_125_31171)"/>
<path fill-rule="evenodd" clip-rule="evenodd" d="M80.6857 21.4642C81.1656 21.2723 81.7175 21.2514 82.3416 21.4014L82.5754 20.4292C81.7449 20.2295 80.9912 20.265 80.3143 20.5358L80.2842 20.5479L80.6595 21.4748L80.6857 21.4642ZM84.0064 22.1596C84.5101 22.494 84.9918 22.9075 85.4515 23.4003L86.1826 22.7181C85.6695 22.1681 85.1284 21.7042 84.5595 21.3265L84.0064 22.1596ZM78.5946 24.2476C78.7495 23.5827 78.9896 23.0208 79.3147 22.5618L78.4986 21.9838C78.0979 22.5495 77.8053 23.2284 77.6207 24.0206L78.5946 24.2476ZM86.6324 24.9344C86.9739 25.4703 87.2776 26.0432 87.5437 26.653L88.4603 26.2532C88.1734 25.5956 87.8452 24.9768 87.4757 24.397L86.6324 24.9344ZM78.5705 28.046C78.4581 27.3796 78.4009 26.7391 78.3988 26.1245L77.3988 26.1279C77.4011 26.7972 77.463 27.492 77.5845 28.2124L78.5705 28.046ZM88.1952 28.4887C88.3679 29.1049 88.5035 29.7405 88.6018 30.3955L89.5907 30.247C89.4862 29.551 89.342 28.8749 89.1581 28.2188L88.1952 28.4887ZM79.7334 31.8109C79.4595 31.2031 79.2254 30.5864 79.0309 29.9608L78.076 30.2576C78.2825 30.9221 78.5311 31.5768 78.8216 32.2217L79.7334 31.8109ZM88.7813 32.3425C88.805 32.9879 88.7951 33.6443 88.7515 34.3118L89.7493 34.377C89.7952 33.6756 89.8056 32.9852 89.7807 32.3058L88.7813 32.3425ZM81.7588 35.1615C81.3571 34.6528 80.9845 34.1135 80.6411 33.5435L79.7845 34.0596C80.1496 34.6656 80.5461 35.2395 80.974 35.7812L81.7588 35.1615ZM105.738 34.5741C105.44 34.7573 105.145 34.9358 104.852 35.1094L105.361 35.9699C105.659 35.7934 105.96 35.612 106.262 35.4258L105.738 34.5741ZM103.119 36.0934C102.513 36.4232 101.916 36.7311 101.329 37.0172L101.768 37.9159C102.368 37.6234 102.977 37.3088 103.597 36.9721L103.119 36.0934ZM88.5271 36.2976C88.4264 36.9293 88.2975 37.5673 88.1402 38.2116L89.1117 38.4487C89.2754 37.778 89.4097 37.1134 89.5146 36.455L88.5271 36.2976ZM84.5728 37.8453C84.0506 37.4807 83.5501 37.0689 83.0714 36.61L82.3794 37.3319C82.8955 37.8265 83.4358 38.271 84.0003 38.6652L84.5728 37.8453ZM99.5457 37.8337C98.9072 38.106 98.2818 38.3505 97.6694 38.5672L98.0029 39.5099C98.6352 39.2862 99.2802 39.0341 99.938 38.7535L99.5457 37.8337ZM88.0607 39.462C87.4323 39.2998 86.8286 39.0841 86.2496 38.8151L85.8283 39.7221C86.3731 39.9752 86.9375 40.1851 87.5215 40.3517C87.3388 40.8997 87.1366 41.4509 86.9151 42.0053L87.8438 42.3764C88.1054 41.7216 88.341 41.0707 88.5505 40.4236L87.8693 40.2031L88.0607 39.462ZM95.7755 39.1599C95.1219 39.3366 94.4847 39.4785 93.864 39.5856L94.0341 40.571C94.6854 40.4586 95.3529 40.3101 96.0364 40.1253L95.7755 39.1599ZM91.9266 39.8102C91.2523 39.8479 90.5998 39.8395 89.9693 39.7849L89.8831 40.7812C90.5609 40.8398 91.2606 40.849 91.9823 40.8086L91.9266 39.8102ZM86.135 43.8006C85.8516 44.4046 85.5461 45.0112 85.2185 45.6204L86.0992 46.0941C86.4355 45.4689 86.7492 44.8459 87.0403 44.2253L86.135 43.8006ZM84.2556 47.3124C83.9119 47.8851 83.5492 48.4593 83.1677 49.035L84.0014 49.5874C84.3911 48.9993 84.7616 48.4125 85.113 47.827L84.2556 47.3124ZM82.0519 50.6487C81.6656 51.1851 81.2634 51.7223 80.8451 52.2605L81.6347 52.8741C82.0604 52.3263 82.4699 51.7793 82.8633 51.2331L82.0519 50.6487ZM79.5563 53.8644C79.1304 54.3802 78.6974 54.8931 78.2572 55.4032L79.0142 56.0566C79.4591 55.541 79.8969 55.0225 80.3274 54.501L79.5563 53.8644ZM76.9264 56.9124C76.4796 57.4084 76.0259 57.9015 75.5654 58.3917L76.2943 59.0764C76.7596 58.5811 77.2179 58.0829 77.6694 57.5817L76.9264 56.9124ZM74.1757 59.8412C73.7084 60.3188 73.2347 60.7933 72.7544 61.2649L73.4551 61.9784C73.94 61.5022 74.4185 61.023 74.8905 60.5406L74.1757 59.8412ZM71.3016 62.6637C70.8151 63.1231 70.3225 63.5792 69.824 64.032L70.4964 64.7722C70.9996 64.3151 71.4968 63.8546 71.9881 63.3908L71.3016 62.6637ZM68.3231 65.3699C67.8211 65.809 67.3135 66.2448 66.8004 66.6772L67.4448 67.4419C67.9627 67.0055 68.4749 66.5657 68.9815 66.1226L68.3231 65.3699ZM65.2488 67.9608C64.7274 68.3844 64.2006 68.8045 63.6685 69.2211L64.285 70.0085C64.8221 69.588 65.3535 69.1642 65.8793 68.7371L65.2488 67.9608ZM62.0704 70.4499C61.5371 70.8526 60.999 71.2517 60.4561 71.6472L61.0449 72.4554C61.5926 72.0565 62.1353 71.654 62.673 71.2479L62.0704 70.4499ZM58.8272 72.8129C58.2781 73.1989 57.7247 73.581 57.1668 73.9593L57.7281 74.787C58.2904 74.4056 58.8485 74.0203 59.4023 73.6309L58.8272 72.8129ZM55.4802 75.0828C54.9185 75.4504 54.3528 75.8138 53.7833 76.1732L54.317 77.0189C54.8913 76.6565 55.4615 76.2901 56.0277 75.9196L55.4802 75.0828ZM52.081 77.2285L50.3613 78.2567L50.8745 79.115L52.5941 78.0868L52.081 77.2285ZM48.6104 79.266L46.8284 80.2555L47.3139 81.1298L49.0959 80.1403L48.6104 79.266ZM45.0582 81.202L43.2735 82.1203L43.7311 83.0095L45.5157 82.0912L45.0582 81.202ZM41.498 82.999L39.6391 83.8824L40.0683 84.7856L41.9272 83.9022L41.498 82.999ZM37.8003 84.7201L35.9543 85.5254L36.3541 86.442L38.2001 85.6367L37.8003 84.7201ZM34.1328 86.2852L32.2401 87.0383L32.6098 87.9675L34.5025 87.2143L34.1328 86.2852ZM30.335 87.759L28.4315 88.4414L28.769 89.3827L30.6725 88.7003L30.335 87.759ZM26.5608 89.0751C25.9214 89.2855 25.2842 89.4885 24.6491 89.6843L24.9438 90.6399C25.5848 90.4423 26.2279 90.2373 26.8732 90.0251L26.5608 89.0751ZM22.6743 90.272C22.0231 90.4587 21.3758 90.6372 20.7323 90.8075L20.9881 91.7742C21.6382 91.6022 22.2921 91.4219 22.9499 91.2333L22.6743 90.272ZM18.8288 91.2901L17.8849 91.5134L18.1151 92.4865L19.059 92.2633L18.8288 91.2901Z" fill="#1E293B"/>
<path fill-rule="evenodd" clip-rule="evenodd" d="M22 44H28.8586L36.7669 82.1716C36.8572 82.6077 37.0032 83.0243 37.2049 83.4214C37.8173 85.4904 39.7324 87 42 87H82.4532C87.3299 87 91.6244 83.7892 93.0039 79.1117L99.1082 58.4144C100.053 55.2112 97.652 52 94.3124 52H40.7283L37.8063 37.896C37.7731 37.7356 37.7321 37.5773 37.6833 37.421C37.6346 37.2646 37.5783 37.1111 37.5144 36.9603C37.4505 36.8095 37.3794 36.6622 37.3011 36.5184C37.2228 36.3746 37.1376 36.235 37.0455 36.0996C36.9534 35.9641 36.855 35.8335 36.7501 35.7078C36.6452 35.582 36.5344 35.4617 36.4177 35.3469C36.301 35.232 36.1789 35.1231 36.0515 35.0202C35.9241 34.9174 35.792 34.821 35.6551 34.7311C35.3858 34.5542 35.1021 34.4048 34.804 34.2828C34.5059 34.1608 34.1988 34.0685 33.8828 34.0058C33.5668 33.9432 33.2477 33.9113 32.9256 33.9104C32.6035 33.9094 32.2842 33.9393 31.9678 34H22C21.9182 34 21.8364 34.002 21.7547 34.006C21.6729 34.01 21.5914 34.016 21.5099 34.024C21.4285 34.0321 21.3473 34.0421 21.2663 34.0541C21.1854 34.0661 21.1048 34.0801 21.0246 34.096C20.9443 34.112 20.8645 34.1299 20.7851 34.1498C20.7057 34.1697 20.6269 34.1915 20.5486 34.2153C20.4703 34.239 20.3926 34.2647 20.3155 34.2923C20.2385 34.3198 20.1622 34.3493 20.0866 34.3806C20.011 34.4119 19.9362 34.445 19.8622 34.48C19.7883 34.515 19.7152 34.5518 19.643 34.5904C19.5709 34.6289 19.4997 34.6693 19.4295 34.7113C19.3593 34.7534 19.2902 34.7972 19.2222 34.8426C19.1541 34.8881 19.0872 34.9352 19.0215 34.9839C18.9558 35.0327 18.8913 35.083 18.828 35.1349C18.7648 35.1868 18.7028 35.2403 18.6422 35.2952C18.5816 35.3502 18.5223 35.4066 18.4645 35.4644C18.4066 35.5223 18.3502 35.5815 18.2952 35.6422C18.2403 35.7028 18.1869 35.7648 18.135 35.828C18.083 35.8913 18.0327 35.9557 17.984 36.0215C17.9352 36.0872 17.8881 36.1541 17.8427 36.2221C17.7972 36.2902 17.7534 36.3593 17.7114 36.4295C17.6693 36.4996 17.629 36.5708 17.5904 36.643C17.5518 36.7152 17.515 36.7882 17.4801 36.8622C17.4451 36.9362 17.4119 37.011 17.3806 37.0866C17.3493 37.1622 17.3198 37.2385 17.2923 37.3155C17.2647 37.3926 17.2391 37.4702 17.2153 37.5486C17.1915 37.6269 17.1697 37.7057 17.1498 37.7851C17.13 37.8644 17.112 37.9443 17.0961 38.0245C17.0801 38.1048 17.0661 38.1854 17.0541 38.2663C17.0421 38.3473 17.0321 38.4285 17.0241 38.5099C17.0161 38.5913 17.01 38.6729 17.006 38.7546C17.002 38.8364 17 38.9181 17 39C17 39.0818 17.002 39.1636 17.006 39.2453C17.01 39.327 17.0161 39.4086 17.0241 39.4901C17.0321 39.5715 17.0421 39.6527 17.0541 39.7336C17.0661 39.8146 17.0801 39.8952 17.0961 39.9754C17.112 40.0557 17.13 40.1355 17.1498 40.2149C17.1697 40.2942 17.1915 40.3731 17.2153 40.4514C17.2391 40.5297 17.2647 40.6074 17.2923 40.6844C17.3198 40.7615 17.3493 40.8378 17.3806 40.9134C17.4119 40.989 17.4451 41.0638 17.4801 41.1377C17.515 41.2117 17.5518 41.2848 17.5904 41.357C17.629 41.4291 17.6693 41.5003 17.7114 41.5705C17.7534 41.6407 17.7972 41.7098 17.8427 41.7778C17.8881 41.8459 17.9352 41.9127 17.984 41.9785C18.0327 42.0442 18.083 42.1087 18.135 42.1719C18.1869 42.2352 18.2403 42.2971 18.2952 42.3578C18.3502 42.4184 18.4066 42.4776 18.4645 42.5355C18.5223 42.5934 18.5816 42.6498 18.6422 42.7047C18.7028 42.7597 18.7648 42.8131 18.828 42.865C18.8913 42.9169 18.9558 42.9673 19.0215 43.016C19.0872 43.0648 19.1541 43.1119 19.2222 43.1573C19.2902 43.2028 19.3593 43.2465 19.4295 43.2886C19.4997 43.3307 19.5709 43.371 19.643 43.4096C19.7152 43.4482 19.7883 43.4849 19.8622 43.5199C19.9362 43.5549 20.011 43.5881 20.0866 43.6194C20.1622 43.6507 20.2385 43.6801 20.3155 43.7077C20.3926 43.7353 20.4703 43.7609 20.5486 43.7847C20.6269 43.8084 20.7057 43.8302 20.7851 43.8501C20.8645 43.87 20.9443 43.8879 21.0246 43.9039C21.1048 43.9199 21.1854 43.9339 21.2663 43.9459C21.3473 43.9579 21.4285 43.9679 21.5099 43.9759C21.5914 43.9839 21.6729 43.99 21.7547 43.994C21.8364 43.998 21.9182 44 22 44Z" fill="white"/>
<path fill-rule="evenodd" clip-rule="evenodd" d="M31.9678 34H22C21.9182 34 21.8364 34.002 21.7547 34.006C21.6729 34.01 21.5914 34.016 21.5099 34.024C21.4285 34.0321 21.3473 34.0421 21.2663 34.0541C21.1854 34.0661 21.1048 34.0801 21.0246 34.096C20.9443 34.112 20.8645 34.1299 20.7851 34.1498C20.7057 34.1697 20.6269 34.1915 20.5486 34.2153C20.4703 34.239 20.3926 34.2647 20.3155 34.2923C20.2385 34.3198 20.1622 34.3493 20.0866 34.3806C20.011 34.4119 19.9362 34.445 19.8622 34.48C19.7883 34.515 19.7152 34.5518 19.643 34.5904C19.5709 34.6289 19.4997 34.6693 19.4295 34.7113C19.3593 34.7534 19.2902 34.7972 19.2222 34.8426C19.1541 34.8881 19.0872 34.9352 19.0215 34.9839C18.9558 35.0327 18.8913 35.083 18.828 35.1349C18.7648 35.1868 18.7028 35.2403 18.6422 35.2952C18.5816 35.3502 18.5223 35.4066 18.4645 35.4644C18.4066 35.5223 18.3502 35.5815 18.2952 35.6422C18.2403 35.7028 18.1869 35.7648 18.135 35.828C18.083 35.8913 18.0327 35.9557 17.984 36.0215C17.9352 36.0872 17.8881 36.1541 17.8427 36.2221C17.7972 36.2902 17.7534 36.3593 17.7114 36.4295C17.6693 36.4996 17.629 36.5708 17.5904 36.643C17.5518 36.7152 17.515 36.7882 17.4801 36.8622C17.4451 36.9362 17.4119 37.011 17.3806 37.0866C17.3493 37.1622 17.3198 37.2385 17.2923 37.3155C17.2647 37.3926 17.2391 37.4702 17.2153 37.5486C17.1915 37.6269 17.1697 37.7057 17.1498 37.7851C17.13 37.8644 17.112 37.9443 17.0961 38.0245C17.0801 38.1048 17.0661 38.1854 17.0541 38.2663C17.0421 38.3473 17.0321 38.4285 17.0241 38.5099C17.0161 38.5913 17.01 38.6729 17.006 38.7546C17.002 38.8364 17 38.9181 17 39C17 39.0818 17.002 39.1636 17.006 39.2453C17.01 39.327 17.0161 39.4086 17.0241 39.4901C17.0321 39.5715 17.0421 39.6527 17.0541 39.7336C17.0661 39.8146 17.0801 39.8952 17.0961 39.9754C17.112 40.0557 17.13 40.1355 17.1498 40.2149C17.1697 40.2942 17.1915 40.3731 17.2153 40.4514C17.2391 40.5297 17.2647 40.6074 17.2923 40.6844C17.3198 40.7615 17.3493 40.8378 17.3806 40.9134C17.4119 40.989 17.4451 41.0638 17.4801 41.1377C17.515 41.2117 17.5518 41.2848 17.5904 41.357C17.629 41.4291 17.6693 41.5003 17.7114 41.5705C17.7534 41.6407 17.7972 41.7098 17.8427 41.7778C17.8881 41.8459 17.9352 41.9127 17.984 41.9785C18.0327 42.0442 18.083 42.1087 18.135 42.1719C18.1869 42.2352 18.2403 42.2971 18.2952 42.3578C18.3502 42.4184 18.4066 42.4776 18.4645 42.5355C18.5223 42.5934 18.5816 42.6498 18.6422 42.7047C18.7028 42.7597 18.7648 42.8131 18.828 42.865C18.8913 42.9169 18.9558 42.9673 19.0215 43.016C19.0872 43.0648 19.1541 43.1119 19.2222 43.1573C19.2902 43.2028 19.3593 43.2465 19.4295 43.2886C19.4997 43.3307 19.5709 43.371 19.643 43.4096C19.7152 43.4482 19.7883 43.4849 19.8622 43.5199C19.9362 43.5549 20.011 43.5881 20.0866 43.6194C20.1622 43.6507 20.2385 43.6801 20.3155 43.7077C20.3926 43.7353 20.4703 43.7609 20.5486 43.7847C20.6269 43.8084 20.7057 43.8302 20.7851 43.8501C20.8645 43.87 20.9443 43.8879 21.0246 43.9039C21.1048 43.9199 21.1854 43.9339 21.2663 43.9459C21.3473 43.9579 21.4285 43.9679 21.5099 43.9759C21.5914 43.9839 21.6729 43.99 21.7547 43.994C21.8364 43.998 21.9182 44 22 44H28.8586L36.7669 82.1716C36.8572 82.6077 37.0032 83.0243 37.2049 83.4214C37.8173 85.4904 39.7324 87 42 87H82.4532C87.3299 87 91.6244 83.7892 93.0039 79.1117L99.1082 58.4144C100.053 55.2112 97.652 52 94.3124 52H40.7283L37.8063 37.896C37.7731 37.7356 37.7321 37.5773 37.6833 37.421C37.6346 37.2646 37.5783 37.1111 37.5144 36.9603C37.4505 36.8095 37.3794 36.6622 37.3011 36.5184C37.2228 36.3746 37.1376 36.235 37.0455 36.0996C36.9534 35.9641 36.855 35.8335 36.7501 35.7078C36.6452 35.582 36.5344 35.4617 36.4177 35.3469C36.301 35.232 36.1789 35.1231 36.0515 35.0202C35.9241 34.9174 35.792 34.821 35.6551 34.7311C35.3858 34.5542 35.1021 34.4048 34.804 34.2828C34.5059 34.1608 34.1988 34.0685 33.8828 34.0058C33.5668 33.9432 33.2477 33.9113 32.9256 33.9104C32.6035 33.9094 32.2842 33.9393 31.9678 34ZM29.6727 43H22C20.8954 43 19.9526 42.6095 19.1716 41.8284C18.3905 41.0474 18 40.1045 18 39C18 37.8954 18.3905 36.9526 19.1716 36.1715C19.9526 35.3905 20.8954 35 22 35H32.0629L32.1563 34.982C33.2187 34.7781 34.202 34.9731 35.1061 35.5669C36.0294 36.1733 36.603 37.0172 36.8271 38.0988L39.9143 53H94.3124C95.6483 53 96.7161 53.5349 97.516 54.6048C98.3159 55.6746 98.5269 56.8502 98.149 58.1315L92.0448 78.8288C91.4177 80.9549 90.2165 82.6816 88.4412 84.009C86.6659 85.3363 84.6699 86 82.4532 86H42C41.103 86 40.2983 85.7299 39.586 85.1898C38.8856 84.6587 38.4115 83.9746 38.1638 83.1376L38.1379 83.05L38.0965 82.9686C37.9352 82.6509 37.8184 82.3176 37.7461 81.9687L29.6727 43Z" fill="#1E293B"/>
<path d="M37 56L40.9398 77.2746C41.5542 80.5926 44.4483 83 47.8227 83H77.7408C82.6034 83 86.8891 79.8073 88.2807 75.1481L89.9677 69.5L92.0792 62.431C93.037 59.2242 90.6351 56 87.2883 56H37Z" fill="url(#paint1_linear_125_31171)"/>
<path fill-rule="evenodd" clip-rule="evenodd" d="M107.5 51C108.328 51 109 51.6716 109 52.5V69.5C109 70.3284 108.328 71 107.5 71C106.672 71 106 70.3284 106 69.5V52.5C106 51.6716 106.672 51 107.5 51Z" fill="#438DFB"/>
<g filter="url(#filter0_d_125_31171)">
<path fill-rule="evenodd" clip-rule="evenodd" d="M26.5 64C27.3284 64 28 64.6716 28 65.5V92.5C28 93.3284 27.3284 94 26.5 94C25.6716 94 25 93.3284 25 92.5V65.5C25 64.6716 25.6716 64 26.5 64Z" fill="#8FBCFF"/>
</g>
<g opacity="0.5" filter="url(#filter1_d_125_31171)">
<path fill-rule="evenodd" clip-rule="evenodd" d="M82.5 32C83.3284 32 84 32.6716 84 33.5V44.5C84 45.3284 83.3284 46 82.5 46C81.6716 46 81 45.3284 81 44.5V33.5C81 32.6716 81.6716 32 82.5 32Z" fill="#8FBCFF"/>
</g>
<path d="M72.5 105C88.7924 105 102 103.433 102 101.5C102 99.567 88.7924 98 72.5 98C56.2076 98 43 99.567 43 101.5C43 103.433 56.2076 105 72.5 105Z" fill="url(#paint2_linear_125_31171)"/>
<path d="M40.894 90.5422C38.1603 93.2759 38.1603 97.708 40.894 100.442C43.6276 103.175 48.0598 103.175 50.7934 100.442C53.5271 97.708 53.5271 93.2759 50.7934 90.5422C48.0598 87.8085 43.6276 87.8085 40.894 90.5422Z" fill="url(#paint3_radial_125_31171)"/>
<path d="M40.894 100.442C40.8129 100.361 40.734 100.278 40.657 100.193C40.5801 100.108 40.5053 100.021 40.4326 99.9327C40.36 99.8441 40.2895 99.7538 40.2213 99.6618C40.153 99.5698 40.0871 99.4762 40.0234 99.3809C39.9598 99.2857 39.8985 99.1889 39.8396 99.0907C39.7807 98.9924 39.7242 98.8928 39.6702 98.7917C39.6162 98.6907 39.5648 98.5884 39.5158 98.4848C39.4668 98.3813 39.4204 98.2766 39.3765 98.1708C39.3327 98.0649 39.2915 97.958 39.2529 97.8502C39.2143 97.7423 39.1784 97.6336 39.1451 97.5239C39.1119 97.4143 39.0814 97.3039 39.0535 97.1928C39.0256 97.0817 39.0005 96.97 38.9782 96.8576C38.9558 96.7452 38.9363 96.6324 38.9194 96.5191C38.9026 96.4058 38.8886 96.2921 38.8774 96.178C38.8661 96.0641 38.8577 95.9499 38.8521 95.8355C38.8465 95.721 38.8437 95.6065 38.8438 95.4919C38.8437 95.3773 38.8465 95.2628 38.8521 95.1484C38.8577 95.034 38.8661 94.9198 38.8774 94.8058C38.8886 94.6918 38.9026 94.5781 38.9194 94.4648C38.9363 94.3515 38.9558 94.2387 38.9782 94.1263C39.0005 94.0139 39.0256 93.9022 39.0535 93.7911C39.0814 93.68 39.1119 93.5696 39.1451 93.46C39.1784 93.3503 39.2143 93.2415 39.2529 93.1337C39.2915 93.0259 39.3327 92.919 39.3765 92.8131C39.4204 92.7073 39.4668 92.6026 39.5158 92.4991C39.5648 92.3955 39.6162 92.2932 39.6702 92.1922C39.7242 92.0911 39.7807 91.9915 39.8396 91.8932C39.8985 91.795 39.9598 91.6982 40.0234 91.6029C40.0871 91.5077 40.153 91.4141 40.2213 91.3221C40.2895 91.2301 40.36 91.1398 40.4326 91.0512C40.5053 90.9626 40.5801 90.8759 40.657 90.791C40.734 90.7061 40.8129 90.6232 40.894 90.5422C40.975 90.4612 41.0579 90.3822 41.1428 90.3053C41.2277 90.2284 41.3144 90.1536 41.4029 90.0809C41.4915 90.0082 41.5818 89.9378 41.6738 89.8695C41.7658 89.8013 41.8595 89.7353 41.9547 89.6717C42.0499 89.608 42.1467 89.5467 42.245 89.4879C42.3432 89.4289 42.4429 89.3725 42.5439 89.3185C42.6449 89.2645 42.7473 89.213 42.8508 89.164C42.9544 89.1151 43.0591 89.0686 43.1649 89.0248C43.2707 88.9809 43.3776 88.9397 43.4855 88.9011C43.5933 88.8625 43.7021 88.8266 43.8117 88.7934C43.9214 88.7601 44.0317 88.7296 44.1428 88.7017C44.2539 88.6739 44.3657 88.6488 44.4781 88.6264C44.5904 88.6041 44.7033 88.5845 44.8166 88.5677C44.9299 88.5509 45.0436 88.5369 45.1576 88.5256C45.2716 88.5144 45.3858 88.506 45.5002 88.5003C45.6146 88.4947 45.7291 88.4919 45.8437 88.492C45.9583 88.492 46.0728 88.4948 46.1872 88.5004C46.3016 88.506 46.4158 88.5144 46.5298 88.5256C46.6438 88.5369 46.7575 88.5509 46.8708 88.5677C46.9841 88.5845 47.097 88.6041 47.2093 88.6264C47.3217 88.6488 47.4334 88.6739 47.5446 88.7017C47.6557 88.7296 47.7661 88.7601 47.8757 88.7933C47.9853 88.8266 48.0941 88.8626 48.2019 88.9011C48.3098 88.9397 48.4166 88.981 48.5225 89.0248C48.6283 89.0686 48.733 89.115 48.8366 89.164C48.9402 89.213 49.0424 89.2645 49.1435 89.3185C49.2445 89.3725 49.3442 89.4289 49.4424 89.4878C49.5407 89.5467 49.6374 89.608 49.7327 89.6717C49.8279 89.7353 49.9216 89.8013 50.0136 89.8695C50.1056 89.9377 50.1959 90.0082 50.2845 90.0809C50.373 90.1535 50.4597 90.2284 50.5446 90.3053C50.6295 90.3822 50.7124 90.4612 50.7934 90.5422C50.8745 90.6232 50.9534 90.7061 51.0304 90.791C51.1073 90.8759 51.1821 90.9626 51.2548 91.0512C51.3274 91.1397 51.3979 91.23 51.4661 91.322C51.5344 91.4141 51.6003 91.5077 51.664 91.603C51.7276 91.6982 51.7889 91.795 51.8478 91.8932C51.9067 91.9915 51.9631 92.0911 52.0171 92.1922C52.0712 92.2932 52.1226 92.3955 52.1716 92.4991C52.2206 92.6026 52.267 92.7073 52.3109 92.8132C52.3547 92.919 52.3959 93.0258 52.4345 93.1337C52.4731 93.2416 52.509 93.3503 52.5423 93.46C52.5755 93.5696 52.6061 93.68 52.6339 93.7911C52.6618 93.9022 52.6868 94.014 52.7092 94.1263C52.7315 94.2387 52.7511 94.3515 52.7679 94.4648C52.7847 94.5781 52.7988 94.6918 52.81 94.8058C52.8212 94.9198 52.8297 95.034 52.8353 95.1485C52.8409 95.2629 52.8437 95.3774 52.8437 95.4919C52.8437 95.6065 52.8409 95.721 52.8353 95.8354C52.8297 95.9498 52.8212 96.0641 52.81 96.1781C52.7988 96.2921 52.7847 96.4057 52.7679 96.5191C52.7511 96.6324 52.7315 96.7452 52.7092 96.8576C52.6868 96.9699 52.6618 97.0817 52.6339 97.1928C52.6061 97.3039 52.5755 97.4143 52.5423 97.5239C52.509 97.6336 52.4731 97.7423 52.4345 97.8502C52.3959 97.958 52.3547 98.0649 52.3109 98.1707C52.267 98.2766 52.2206 98.3813 52.1716 98.4848C52.1226 98.5884 52.0712 98.6907 52.0171 98.7917C51.9631 98.8928 51.9067 98.9924 51.8478 99.0907C51.7889 99.1889 51.7276 99.2857 51.664 99.3809C51.6003 99.4762 51.5344 99.5698 51.4661 99.6618C51.3979 99.7539 51.3274 99.8441 51.2548 99.9327C51.1821 100.021 51.1073 100.108 51.0304 100.193C50.9534 100.278 50.8745 100.361 50.7934 100.442C50.7124 100.523 50.6295 100.602 50.5446 100.679C50.4597 100.756 50.373 100.83 50.2845 100.903C50.1959 100.976 50.1056 101.046 50.0136 101.114C49.9216 101.183 49.8279 101.249 49.7327 101.312C49.6374 101.376 49.5407 101.437 49.4424 101.496C49.3442 101.555 49.2445 101.611 49.1435 101.665C49.0424 101.719 48.9402 101.771 48.8366 101.82C48.733 101.869 48.6283 101.915 48.5225 101.959C48.4166 102.003 48.3098 102.044 48.2019 102.083C48.0941 102.121 47.9853 102.157 47.8757 102.191C47.7661 102.224 47.6557 102.254 47.5446 102.282C47.4334 102.31 47.3217 102.335 47.2093 102.357C47.097 102.38 46.9841 102.399 46.8708 102.416C46.7575 102.433 46.6438 102.447 46.5298 102.458C46.4158 102.469 46.3016 102.478 46.1872 102.484C46.0728 102.489 45.9583 102.492 45.8437 102.492C45.7291 102.492 45.6146 102.489 45.5002 102.484C45.3858 102.478 45.2716 102.469 45.1576 102.458C45.0436 102.447 44.9299 102.433 44.8166 102.416C44.7033 102.399 44.5904 102.38 44.4781 102.357C44.3657 102.335 44.2539 102.31 44.1428 102.282C44.0317 102.254 43.9214 102.224 43.8117 102.19C43.7021 102.157 43.5933 102.121 43.4855 102.083C43.3776 102.044 43.2707 102.003 43.1649 101.959C43.0591 101.915 42.9544 101.869 42.8508 101.82C42.7473 101.771 42.6449 101.719 42.5439 101.665C42.4429 101.611 42.3432 101.555 42.245 101.496C42.1467 101.437 42.0499 101.376 41.9547 101.312C41.8595 101.249 41.7658 101.183 41.6738 101.114C41.5818 101.046 41.4915 100.976 41.4029 100.903C41.3144 100.83 41.2277 100.756 41.1428 100.679C41.0579 100.602 40.975 100.523 40.894 100.442ZM41.6011 99.7346C41.6705 99.804 41.7416 99.8717 41.8143 99.9377C41.8871 100.004 41.9615 100.068 42.0373 100.13C42.1132 100.192 42.1906 100.253 42.2695 100.311C42.3484 100.37 42.4287 100.426 42.5103 100.481C42.5919 100.535 42.6748 100.588 42.7591 100.638C42.8433 100.689 42.9287 100.737 43.0153 100.783C43.1019 100.83 43.1896 100.874 43.2783 100.916C43.3671 100.958 43.4569 100.998 43.5476 101.035C43.6383 101.073 43.7299 101.108 43.8224 101.141C43.9148 101.174 44.008 101.205 44.102 101.234C44.196 101.262 44.2906 101.288 44.3858 101.312C44.4811 101.336 44.5769 101.357 44.6732 101.377C44.7695 101.396 44.8662 101.413 44.9634 101.427C45.0605 101.441 45.1579 101.453 45.2556 101.463C45.3533 101.473 45.4512 101.48 45.5493 101.485C45.6474 101.49 45.7455 101.492 45.8437 101.492C45.9419 101.492 46.04 101.49 46.1381 101.485C46.2362 101.48 46.3341 101.473 46.4318 101.463C46.5295 101.453 46.6269 101.441 46.7241 101.427C46.8212 101.413 46.9179 101.396 47.0143 101.377C47.1105 101.358 47.2063 101.336 47.3016 101.312C47.3968 101.288 47.4914 101.262 47.5854 101.234C47.6794 101.205 47.7726 101.174 47.865 101.141C47.9575 101.108 48.0491 101.073 48.1398 101.035C48.2305 100.998 48.3203 100.958 48.409 100.916C48.4978 100.874 48.5855 100.83 48.6721 100.783C48.7587 100.737 48.8441 100.689 48.9283 100.638C49.0125 100.588 49.0955 100.535 49.1771 100.481C49.2588 100.426 49.339 100.37 49.4179 100.311C49.4968 100.253 49.5742 100.192 49.6501 100.13C49.726 100.068 49.8003 100.004 49.873 99.9376C49.9458 99.8717 50.0169 99.804 50.0863 99.7346C50.1558 99.6652 50.2235 99.5941 50.2894 99.5213C50.3554 99.4485 50.4195 99.3742 50.4818 99.2983C50.5441 99.2224 50.6044 99.145 50.6629 99.0661C50.7214 98.9873 50.778 98.907 50.8325 98.8254C50.8871 98.7437 50.9396 98.6608 50.9901 98.5766C51.0406 98.4923 51.0889 98.4069 51.1352 98.3203C51.1815 98.2337 51.2257 98.146 51.2676 98.0573C51.3096 97.9685 51.3494 97.8788 51.387 97.788C51.4246 97.6973 51.4599 97.6057 51.493 97.5133C51.526 97.4208 51.5568 97.3276 51.5853 97.2337C51.6138 97.1397 51.64 97.0451 51.6639 96.9498C51.6877 96.8546 51.7093 96.7588 51.7284 96.6625C51.7476 96.5662 51.7644 96.4695 51.7788 96.3723C51.7932 96.2752 51.8052 96.1778 51.8148 96.08C51.8244 95.9823 51.8317 95.8844 51.8365 95.7864C51.8413 95.6883 51.8437 95.5901 51.8437 95.4919C51.8437 95.3937 51.8413 95.2956 51.8365 95.1975C51.8317 95.0995 51.8244 95.0016 51.8148 94.9038C51.8052 94.8061 51.7932 94.7087 51.7788 94.6116C51.7644 94.5144 51.7476 94.4177 51.7284 94.3214C51.7093 94.2251 51.6877 94.1293 51.6639 94.0341C51.64 93.9388 51.6138 93.8442 51.5853 93.7502C51.5568 93.6563 51.526 93.5631 51.493 93.4706C51.4599 93.3781 51.4246 93.2866 51.387 93.1958C51.3494 93.1051 51.3096 93.0154 51.2676 92.9266C51.2257 92.8378 51.1815 92.7502 51.1352 92.6636C51.0889 92.577 51.0406 92.4915 50.9901 92.4073C50.9396 92.3231 50.8871 92.2402 50.8325 92.1585C50.778 92.0769 50.7214 91.9966 50.6629 91.9177C50.6044 91.8389 50.5441 91.7615 50.4818 91.6856C50.4195 91.6097 50.3554 91.5353 50.2894 91.4626C50.2235 91.3898 50.1558 91.3187 50.0863 91.2493C50.0169 91.1799 49.9458 91.1122 49.873 91.0462C49.8003 90.9803 49.726 90.9162 49.6501 90.8539C49.5742 90.7916 49.4968 90.7312 49.4179 90.6727C49.339 90.6142 49.2588 90.5577 49.1771 90.5031C49.0955 90.4486 49.0125 90.3961 48.9283 90.3456C48.8441 90.2951 48.7587 90.2467 48.6721 90.2004C48.5855 90.1541 48.4978 90.11 48.409 90.068C48.3203 90.026 48.2305 89.9862 48.1398 89.9487C48.0491 89.9111 47.9575 89.8758 47.865 89.8427C47.7726 89.8096 47.6794 89.7788 47.5854 89.7503C47.4914 89.7218 47.3968 89.6956 47.3016 89.6718C47.2063 89.6479 47.1105 89.6264 47.0143 89.6072C46.9179 89.5881 46.8212 89.5713 46.7241 89.5569C46.6269 89.5425 46.5295 89.5305 46.4318 89.5208C46.3341 89.5112 46.2362 89.504 46.1381 89.4991C46.04 89.4943 45.9419 89.492 45.8437 89.492C45.7455 89.492 45.6474 89.4943 45.5493 89.4992C45.4512 89.504 45.3533 89.5112 45.2556 89.5208C45.1579 89.5305 45.0605 89.5425 44.9634 89.5569C44.8662 89.5713 44.7695 89.5881 44.6732 89.6072C44.5769 89.6264 44.4811 89.6479 44.3858 89.6717C44.2906 89.6956 44.196 89.7218 44.102 89.7503C44.008 89.7788 43.9148 89.8096 43.8224 89.8427C43.7299 89.8758 43.6383 89.9111 43.5476 89.9487C43.4569 89.9863 43.3671 90.026 43.2783 90.068C43.1896 90.11 43.1019 90.1541 43.0153 90.2004C42.9287 90.2467 42.8433 90.2951 42.7591 90.3456C42.6748 90.396 42.5919 90.4486 42.5103 90.5031C42.4287 90.5577 42.3484 90.6142 42.2695 90.6727C42.1906 90.7312 42.1132 90.7916 42.0373 90.8539C41.9615 90.9162 41.8871 90.9803 41.8143 91.0462C41.7416 91.1122 41.6705 91.1799 41.6011 91.2493C41.5316 91.3187 41.4639 91.3898 41.398 91.4626C41.3321 91.5354 41.268 91.6097 41.2056 91.6856C41.1433 91.7615 41.0829 91.8389 41.0244 91.9177C40.966 91.9966 40.9095 92.0769 40.8549 92.1585C40.8003 92.2402 40.7478 92.3231 40.6973 92.4073C40.6468 92.4915 40.5985 92.577 40.5522 92.6636C40.5059 92.7502 40.4617 92.8378 40.4197 92.9266C40.3778 93.0154 40.338 93.1051 40.3004 93.1958C40.2628 93.2866 40.2275 93.3782 40.1945 93.4706C40.1613 93.5631 40.1306 93.6563 40.1021 93.7503C40.0736 93.8442 40.0474 93.9388 40.0235 94.034C39.9996 94.1293 39.9782 94.2251 39.959 94.3214C39.9398 94.4177 39.923 94.5144 39.9087 94.6116C39.8942 94.7087 39.8822 94.8061 39.8725 94.9038C39.863 95.0016 39.8558 95.0995 39.8509 95.1976C39.8461 95.2956 39.8437 95.3937 39.8438 95.4919C39.8437 95.5901 39.8461 95.6883 39.8509 95.7863C39.8558 95.8844 39.863 95.9823 39.8725 96.08C39.8822 96.1778 39.8942 96.2752 39.9087 96.3723C39.923 96.4694 39.9398 96.5662 39.959 96.6625C39.9782 96.7588 39.9996 96.8545 40.0235 96.9499C40.0474 97.0451 40.0736 97.1397 40.1021 97.2336C40.1306 97.3276 40.1613 97.4208 40.1945 97.5133C40.2275 97.6057 40.2628 97.6973 40.3004 97.7881C40.338 97.8787 40.3778 97.9685 40.4197 98.0573C40.4617 98.1461 40.5059 98.2337 40.5522 98.3203C40.5985 98.4069 40.6468 98.4923 40.6973 98.5766C40.7478 98.6608 40.8003 98.7437 40.8549 98.8254C40.9095 98.907 40.966 98.9873 41.0244 99.0662C41.0829 99.145 41.1433 99.2224 41.2056 99.2983C41.268 99.3742 41.3321 99.4485 41.398 99.5213C41.4639 99.5941 41.5316 99.6652 41.6011 99.7346Z" fill="#1E293B"/>
<path fill-rule="evenodd" clip-rule="evenodd" d="M45.6465 96.3536L40.6465 91.3536L41.3536 90.6465L46.3536 95.6465L45.6465 96.3536Z" fill="#1E293B"/>
<path d="M72.9496 90.5422C70.216 93.2759 70.216 97.708 72.9496 100.442C75.6833 103.175 80.1155 103.175 82.8491 100.442C85.5828 97.708 85.5828 93.2759 82.8491 90.5422C80.1155 87.8085 75.6833 87.8085 72.9496 90.5422Z" fill="url(#paint4_radial_125_31171)"/>
<path d="M72.9496 100.442C72.8686 100.361 72.7897 100.278 72.7127 100.193C72.6358 100.108 72.561 100.021 72.4883 99.9327C72.4157 99.8441 72.3452 99.7538 72.277 99.6618C72.2087 99.5698 72.1428 99.4762 72.0791 99.3809C72.0154 99.2857 71.9542 99.1889 71.8953 99.0907C71.8364 98.9924 71.7799 98.8928 71.7259 98.7917C71.6719 98.6907 71.6205 98.5884 71.5715 98.4848C71.5225 98.3813 71.4761 98.2766 71.4322 98.1708C71.3884 98.0649 71.3472 97.958 71.3086 97.8502C71.27 97.7423 71.2341 97.6336 71.2008 97.5239C71.1676 97.4143 71.1371 97.3039 71.1092 97.1928C71.0813 97.0817 71.0562 96.97 71.0339 96.8576C71.0115 96.7452 70.992 96.6324 70.9751 96.5191C70.9583 96.4058 70.9443 96.2921 70.933 96.178C70.9218 96.0641 70.9134 95.9499 70.9078 95.8355C70.9022 95.721 70.8994 95.6065 70.8995 95.4919C70.8994 95.3773 70.9022 95.2628 70.9078 95.1484C70.9134 95.034 70.9218 94.9198 70.933 94.8058C70.9443 94.6918 70.9583 94.5781 70.9751 94.4648C70.992 94.3515 71.0115 94.2387 71.0339 94.1263C71.0562 94.0139 71.0813 93.9022 71.1092 93.7911C71.1371 93.68 71.1676 93.5696 71.2008 93.46C71.2341 93.3503 71.27 93.2415 71.3086 93.1337C71.3472 93.0259 71.3884 92.919 71.4322 92.8131C71.4761 92.7073 71.5225 92.6026 71.5715 92.4991C71.6205 92.3955 71.6719 92.2932 71.7259 92.1922C71.7799 92.0911 71.8364 91.9915 71.8953 91.8932C71.9542 91.795 72.0154 91.6982 72.0791 91.6029C72.1428 91.5077 72.2087 91.4141 72.277 91.3221C72.3452 91.2301 72.4157 91.1398 72.4883 91.0512C72.561 90.9626 72.6358 90.8759 72.7127 90.791C72.7897 90.7061 72.8686 90.6232 72.9496 90.5422C73.0307 90.4612 73.1136 90.3822 73.1985 90.3053C73.2834 90.2284 73.3701 90.1536 73.4586 90.0809C73.5472 90.0082 73.6375 89.9378 73.7295 89.8695C73.8215 89.8013 73.9152 89.7353 74.0104 89.6717C74.1056 89.608 74.2024 89.5467 74.3007 89.4879C74.3989 89.4289 74.4986 89.3725 74.5996 89.3185C74.7006 89.2645 74.803 89.213 74.9065 89.164C75.0101 89.1151 75.1148 89.0686 75.2206 89.0248C75.3264 88.9809 75.4333 88.9397 75.5412 88.9011C75.649 88.8625 75.7578 88.8266 75.8674 88.7934C75.9771 88.7601 76.0874 88.7296 76.1985 88.7017C76.3096 88.6739 76.4214 88.6488 76.5338 88.6264C76.6461 88.6041 76.759 88.5845 76.8723 88.5677C76.9856 88.5509 77.0993 88.5369 77.2133 88.5256C77.3273 88.5144 77.4415 88.506 77.5559 88.5003C77.6703 88.4947 77.7848 88.4919 77.8994 88.492C78.014 88.492 78.1285 88.4948 78.2429 88.5004C78.3573 88.506 78.4715 88.5144 78.5855 88.5256C78.6995 88.5369 78.8132 88.5509 78.9265 88.5677C79.0398 88.5845 79.1527 88.6041 79.265 88.6264C79.3774 88.6488 79.4891 88.6739 79.6003 88.7017C79.7114 88.7296 79.8218 88.7601 79.9314 88.7933C80.041 88.8266 80.1498 88.8626 80.2576 88.9011C80.3655 88.9397 80.4723 88.981 80.5782 89.0248C80.684 89.0686 80.7887 89.115 80.8923 89.164C80.9958 89.213 81.0981 89.2645 81.1992 89.3185C81.3002 89.3725 81.3999 89.4289 81.4981 89.4878C81.5964 89.5467 81.6931 89.608 81.7884 89.6717C81.8836 89.7353 81.9773 89.8013 82.0693 89.8695C82.1613 89.9377 82.2516 90.0082 82.3401 90.0809C82.4287 90.1535 82.5154 90.2284 82.6003 90.3053C82.6852 90.3822 82.7681 90.4612 82.8491 90.5422C82.9301 90.6232 83.0091 90.7061 83.086 90.791C83.163 90.8759 83.2378 90.9626 83.3105 91.0512C83.3831 91.1397 83.4536 91.23 83.5218 91.322C83.5901 91.4141 83.656 91.5077 83.7197 91.603C83.7833 91.6982 83.8446 91.795 83.9035 91.8932C83.9624 91.9915 84.0188 92.0911 84.0728 92.1922C84.1268 92.2932 84.1783 92.3955 84.2273 92.4991C84.2763 92.6026 84.3227 92.7073 84.3665 92.8132C84.4104 92.919 84.4516 93.0258 84.4902 93.1337C84.5288 93.2416 84.5647 93.3503 84.598 93.46C84.6312 93.5696 84.6618 93.68 84.6896 93.7911C84.7175 93.9022 84.7425 94.014 84.7649 94.1263C84.7872 94.2387 84.8068 94.3515 84.8236 94.4648C84.8404 94.5781 84.8545 94.6918 84.8657 94.8058C84.8769 94.9198 84.8853 95.034 84.891 95.1485C84.8966 95.2629 84.8994 95.3774 84.8994 95.4919C84.8994 95.6065 84.8966 95.721 84.891 95.8354C84.8853 95.9498 84.8769 96.0641 84.8657 96.1781C84.8545 96.2921 84.8404 96.4057 84.8236 96.5191C84.8068 96.6324 84.7872 96.7452 84.7649 96.8576C84.7425 96.9699 84.7174 97.0817 84.6896 97.1928C84.6618 97.3039 84.6312 97.4143 84.598 97.5239C84.5647 97.6336 84.5288 97.7423 84.4902 97.8502C84.4516 97.958 84.4104 98.0649 84.3665 98.1707C84.3227 98.2766 84.2763 98.3813 84.2273 98.4848C84.1783 98.5884 84.1268 98.6907 84.0728 98.7917C84.0188 98.8928 83.9624 98.9924 83.9035 99.0907C83.8446 99.1889 83.7833 99.2857 83.7197 99.3809C83.656 99.4762 83.5901 99.5698 83.5218 99.6618C83.4536 99.7539 83.3831 99.8441 83.3105 99.9327C83.2378 100.021 83.163 100.108 83.086 100.193C83.0091 100.278 82.9301 100.361 82.8491 100.442C82.7681 100.523 82.6852 100.602 82.6003 100.679C82.5154 100.756 82.4287 100.83 82.3401 100.903C82.2516 100.976 82.1613 101.046 82.0693 101.114C81.9773 101.183 81.8836 101.249 81.7884 101.312C81.6931 101.376 81.5964 101.437 81.4981 101.496C81.3999 101.555 81.3002 101.611 81.1992 101.665C81.0981 101.719 80.9958 101.771 80.8923 101.82C80.7887 101.869 80.684 101.915 80.5782 101.959C80.4723 102.003 80.3655 102.044 80.2576 102.083C80.1498 102.121 80.041 102.157 79.9314 102.191C79.8218 102.224 79.7114 102.254 79.6003 102.282C79.4891 102.31 79.3774 102.335 79.265 102.357C79.1527 102.38 79.0398 102.399 78.9265 102.416C78.8132 102.433 78.6995 102.447 78.5855 102.458C78.4715 102.469 78.3573 102.478 78.2429 102.484C78.1285 102.489 78.014 102.492 77.8994 102.492C77.7848 102.492 77.6703 102.489 77.5559 102.484C77.4415 102.478 77.3273 102.469 77.2133 102.458C77.0993 102.447 76.9856 102.433 76.8723 102.416C76.759 102.399 76.6461 102.38 76.5338 102.357C76.4214 102.335 76.3096 102.31 76.1985 102.282C76.0874 102.254 75.9771 102.224 75.8674 102.19C75.7578 102.157 75.649 102.121 75.5412 102.083C75.4333 102.044 75.3264 102.003 75.2206 101.959C75.1148 101.915 75.0101 101.869 74.9065 101.82C74.803 101.771 74.7006 101.719 74.5996 101.665C74.4986 101.611 74.3989 101.555 74.3007 101.496C74.2024 101.437 74.1056 101.376 74.0104 101.312C73.9152 101.249 73.8215 101.183 73.7295 101.114C73.6375 101.046 73.5472 100.976 73.4586 100.903C73.3701 100.83 73.2834 100.756 73.1985 100.679C73.1136 100.602 73.0307 100.523 72.9496 100.442ZM73.6568 99.7346C73.7262 99.804 73.7973 99.8717 73.87 99.9377C73.9428 100.004 74.0171 100.068 74.093 100.13C74.1689 100.192 74.2463 100.253 74.3252 100.311C74.4041 100.37 74.4844 100.426 74.566 100.481C74.6476 100.535 74.7305 100.588 74.8148 100.638C74.899 100.689 74.9844 100.737 75.071 100.783C75.1576 100.83 75.2453 100.874 75.334 100.916C75.4228 100.958 75.5126 100.998 75.6033 101.035C75.694 101.073 75.7856 101.108 75.8781 101.141C75.9705 101.174 76.0637 101.205 76.1577 101.234C76.2517 101.262 76.3463 101.288 76.4415 101.312C76.5368 101.336 76.6326 101.357 76.7289 101.377C76.8252 101.396 76.9219 101.413 77.019 101.427C77.1162 101.441 77.2136 101.453 77.3113 101.463C77.409 101.473 77.5069 101.48 77.605 101.485C77.7031 101.49 77.8012 101.492 77.8994 101.492C77.9976 101.492 78.0957 101.49 78.1938 101.485C78.2919 101.48 78.3898 101.473 78.4875 101.463C78.5852 101.453 78.6826 101.441 78.7798 101.427C78.8769 101.413 78.9736 101.396 79.07 101.377C79.1662 101.358 79.262 101.336 79.3573 101.312C79.4525 101.288 79.5471 101.262 79.6411 101.234C79.7351 101.205 79.8283 101.174 79.9207 101.141C80.0132 101.108 80.1048 101.073 80.1955 101.035C80.2862 100.998 80.376 100.958 80.4647 100.916C80.5535 100.874 80.6412 100.83 80.7278 100.783C80.8144 100.737 80.8998 100.689 80.984 100.638C81.0682 100.588 81.1512 100.535 81.2328 100.481C81.3145 100.426 81.3947 100.37 81.4736 100.311C81.5525 100.253 81.6299 100.192 81.7058 100.13C81.7817 100.068 81.856 100.004 81.9287 99.9376C82.0015 99.8717 82.0726 99.804 82.142 99.7346C82.2115 99.6652 82.2792 99.5941 82.3451 99.5213C82.411 99.4485 82.4752 99.3742 82.5375 99.2983C82.5997 99.2224 82.6601 99.145 82.7186 99.0661C82.7771 98.9873 82.8337 98.907 82.8882 98.8254C82.9428 98.7437 82.9953 98.6608 83.0458 98.5766C83.0962 98.4923 83.1446 98.4069 83.1909 98.3203C83.2372 98.2337 83.2813 98.146 83.3233 98.0573C83.3653 97.9685 83.4051 97.8788 83.4427 97.788C83.4802 97.6973 83.5156 97.6057 83.5487 97.5133C83.5817 97.4208 83.6125 97.3276 83.641 97.2337C83.6695 97.1397 83.6957 97.0451 83.7196 96.9498C83.7434 96.8546 83.765 96.7588 83.7841 96.6625C83.8033 96.5662 83.8201 96.4695 83.8345 96.3723C83.8489 96.2752 83.8609 96.1778 83.8705 96.08C83.8801 95.9823 83.8873 95.8844 83.8922 95.7864C83.897 95.6883 83.8994 95.5901 83.8994 95.4919C83.8994 95.3937 83.897 95.2956 83.8922 95.1975C83.8873 95.0995 83.8801 95.0016 83.8705 94.9038C83.8609 94.8061 83.8489 94.7087 83.8345 94.6116C83.8201 94.5144 83.8033 94.4177 83.7841 94.3214C83.765 94.2251 83.7434 94.1293 83.7196 94.0341C83.6957 93.9388 83.6695 93.8442 83.641 93.7502C83.6125 93.6563 83.5817 93.5631 83.5487 93.4706C83.5156 93.3781 83.4802 93.2866 83.4427 93.1958C83.4051 93.1051 83.3653 93.0154 83.3233 92.9266C83.2813 92.8378 83.2372 92.7502 83.1909 92.6636C83.1446 92.577 83.0962 92.4915 83.0458 92.4073C82.9953 92.3231 82.9428 92.2402 82.8882 92.1585C82.8337 92.0769 82.7771 91.9966 82.7186 91.9177C82.6601 91.8389 82.5997 91.7615 82.5375 91.6856C82.4752 91.6097 82.411 91.5353 82.3451 91.4626C82.2792 91.3898 82.2115 91.3187 82.142 91.2493C82.0726 91.1799 82.0015 91.1122 81.9287 91.0462C81.856 90.9803 81.7817 90.9162 81.7058 90.8539C81.6299 90.7916 81.5525 90.7312 81.4736 90.6727C81.3947 90.6142 81.3145 90.5577 81.2328 90.5031C81.1512 90.4486 81.0682 90.3961 80.984 90.3456C80.8998 90.2951 80.8144 90.2467 80.7278 90.2004C80.6412 90.1541 80.5535 90.11 80.4647 90.068C80.376 90.026 80.2862 89.9862 80.1955 89.9487C80.1048 89.9111 80.0132 89.8758 79.9207 89.8427C79.8283 89.8096 79.7351 89.7788 79.6411 89.7503C79.5471 89.7218 79.4525 89.6956 79.3573 89.6718C79.262 89.6479 79.1662 89.6264 79.07 89.6072C78.9736 89.5881 78.8769 89.5713 78.7798 89.5569C78.6826 89.5425 78.5852 89.5305 78.4875 89.5208C78.3898 89.5112 78.2919 89.504 78.1938 89.4991C78.0957 89.4943 77.9976 89.492 77.8994 89.492C77.8012 89.492 77.7031 89.4943 77.605 89.4992C77.5069 89.504 77.409 89.5112 77.3113 89.5208C77.2136 89.5305 77.1162 89.5425 77.019 89.5569C76.9219 89.5713 76.8252 89.5881 76.7289 89.6072C76.6326 89.6264 76.5368 89.6479 76.4415 89.6717C76.3463 89.6956 76.2517 89.7218 76.1577 89.7503C76.0637 89.7788 75.9705 89.8096 75.8781 89.8427C75.7856 89.8758 75.694 89.9111 75.6033 89.9487C75.5126 89.9863 75.4228 90.026 75.334 90.068C75.2453 90.11 75.1576 90.1541 75.071 90.2004C74.9844 90.2467 74.899 90.2951 74.8148 90.3456C74.7305 90.396 74.6476 90.4486 74.566 90.5031C74.4844 90.5577 74.4041 90.6142 74.3252 90.6727C74.2463 90.7312 74.1689 90.7916 74.093 90.8539C74.0171 90.9162 73.9428 90.9803 73.87 91.0462C73.7973 91.1122 73.7262 91.1799 73.6568 91.2493C73.5873 91.3187 73.5196 91.3898 73.4537 91.4626C73.3878 91.5354 73.3237 91.6097 73.2613 91.6856C73.199 91.7615 73.1386 91.8389 73.0801 91.9177C73.0217 91.9966 72.9652 92.0769 72.9106 92.1585C72.856 92.2402 72.8035 92.3231 72.753 92.4073C72.7025 92.4915 72.6542 92.577 72.6079 92.6636C72.5616 92.7502 72.5174 92.8378 72.4754 92.9266C72.4335 93.0154 72.3937 93.1051 72.3561 93.1958C72.3185 93.2866 72.2832 93.3782 72.2502 93.4706C72.217 93.5631 72.1863 93.6563 72.1578 93.7503C72.1293 93.8442 72.1031 93.9388 72.0792 94.034C72.0553 94.1293 72.0339 94.2251 72.0147 94.3214C71.9955 94.4177 71.9787 94.5144 71.9644 94.6116C71.9499 94.7087 71.9379 94.8061 71.9282 94.9038C71.9187 95.0016 71.9114 95.0995 71.9066 95.1976C71.9018 95.2956 71.8994 95.3937 71.8995 95.4919C71.8994 95.5901 71.9018 95.6883 71.9066 95.7863C71.9114 95.8844 71.9187 95.9823 71.9282 96.08C71.9379 96.1778 71.9499 96.2752 71.9644 96.3723C71.9787 96.4694 71.9955 96.5662 72.0147 96.6625C72.0339 96.7588 72.0553 96.8545 72.0792 96.9499C72.1031 97.0451 72.1293 97.1397 72.1578 97.2336C72.1863 97.3276 72.217 97.4208 72.2502 97.5133C72.2832 97.6057 72.3185 97.6973 72.3561 97.7881C72.3937 97.8787 72.4335 97.9685 72.4754 98.0573C72.5174 98.1461 72.5616 98.2337 72.6079 98.3203C72.6542 98.4069 72.7025 98.4923 72.753 98.5766C72.8035 98.6608 72.856 98.7437 72.9106 98.8254C72.9652 98.907 73.0217 98.9873 73.0801 99.0662C73.1386 99.145 73.199 99.2224 73.2613 99.2983C73.3237 99.3742 73.3878 99.4485 73.4537 99.5213C73.5196 99.5941 73.5873 99.6652 73.6568 99.7346Z" fill="#1E293B"/>
<path fill-rule="evenodd" clip-rule="evenodd" d="M77.7021 96.3536L72.7021 91.3536L73.4092 90.6465L78.4092 95.6465L77.7021 96.3536Z" fill="#1E293B"/>
<g opacity="0.8">
<path fill-rule="evenodd" clip-rule="evenodd" d="M52.7896 37.2106V36.2106H49.7105C49.6639 36.2106 49.6177 36.206 49.5719 36.1969C49.5262 36.1878 49.4817 36.1744 49.4386 36.1565C49.3955 36.1387 49.3546 36.1168 49.3158 36.0909C49.277 36.0649 49.2411 36.0355 49.2081 36.0025C49.1751 35.9695 49.1457 35.9336 49.1197 35.8948C49.0938 35.856 49.0719 35.8151 49.0541 35.772C49.0362 35.7289 49.0228 35.6845 49.0137 35.6387C49.0046 35.5929 49 35.5467 49 35.5001C49 35.4534 49.0046 35.4072 49.0137 35.3615C49.0228 35.3157 49.0362 35.2713 49.0541 35.2282C49.0719 35.1851 49.0938 35.1441 49.1197 35.1053C49.1457 35.0665 49.1751 35.0306 49.2081 34.9977C49.2411 34.9647 49.277 34.9352 49.3158 34.9093C49.3546 34.8834 49.3955 34.8615 49.4386 34.8436C49.4817 34.8258 49.5262 34.8123 49.5719 34.8032C49.6177 34.7941 49.6639 34.7896 49.7105 34.7896H52.7896V31.7105C52.7896 31.6639 52.7941 31.6177 52.8032 31.5719C52.8123 31.5262 52.8258 31.4817 52.8436 31.4386C52.8615 31.3955 52.8834 31.3546 52.9093 31.3158C52.9352 31.277 52.9647 31.2411 52.9977 31.2081C53.0306 31.1751 53.0665 31.1457 53.1053 31.1197C53.1441 31.0938 53.1851 31.0719 53.2282 31.0541C53.2713 31.0362 53.3157 31.0228 53.3615 31.0137C53.4072 31.0046 53.4534 31 53.5001 31C53.5467 31 53.5929 31.0046 53.6387 31.0137C53.6844 31.0228 53.7289 31.0362 53.772 31.0541C53.8151 31.0719 53.856 31.0938 53.8948 31.1197C53.9336 31.1457 53.9695 31.1751 54.0025 31.2081C54.0355 31.2411 54.0649 31.277 54.0909 31.3158C54.1168 31.3546 54.1387 31.3955 54.1565 31.4386C54.1744 31.4817 54.1879 31.5262 54.197 31.5719C54.2061 31.6177 54.2106 31.6639 54.2106 31.7105V34.7896H57.2895C57.3361 34.7896 57.3823 34.7941 57.4281 34.8032C57.4739 34.8123 57.5183 34.8258 57.5614 34.8436C57.6045 34.8615 57.6454 34.8834 57.6842 34.9093C57.723 34.9352 57.7589 34.9647 57.7919 34.9977C57.8249 35.0306 57.8543 35.0665 57.8802 35.1053C57.9062 35.1441 57.9281 35.1851 57.9459 35.2282C57.9638 35.2713 57.9772 35.3157 57.9864 35.3615C57.9955 35.4072 58 35.4534 58 35.5001C58 35.5467 57.9955 35.5929 57.9864 35.6387C57.9772 35.6845 57.9638 35.7289 57.9459 35.772C57.9281 35.8151 57.9062 35.856 57.8802 35.8948C57.8543 35.9336 57.8249 35.9695 57.7919 36.0025C57.7589 36.0355 57.723 36.0649 57.6842 36.0909C57.6454 36.1168 57.6045 36.1387 57.5614 36.1565C57.5183 36.1744 57.4739 36.1878 57.4281 36.1969C57.3823 36.206 57.3361 36.2106 57.2895 36.2106H54.2106V39.2895C54.2106 39.3361 54.2061 39.3823 54.197 39.4281C54.1879 39.4738 54.1744 39.5183 54.1565 39.5614C54.1387 39.6045 54.1168 39.6454 54.0909 39.6842C54.0649 39.723 54.0355 39.7589 54.0025 39.7919C53.9695 39.8249 53.9336 39.8543 53.8948 39.8802C53.856 39.9062 53.8151 39.9281 53.772 39.9459C53.7289 39.9638 53.6844 39.9772 53.6387 39.9864C53.5929 39.9955 53.5467 40 53.5001 40C53.4534 40 53.4072 39.9955 53.3615 39.9864C53.3157 39.9772 53.2713 39.9638 53.2282 39.9459C53.1851 39.9281 53.1441 39.9062 53.1053 39.8802C53.0665 39.8543 53.0306 39.8249 52.9977 39.7919C52.9647 39.7589 52.9352 39.723 52.9093 39.6842C52.8834 39.6454 52.8615 39.6045 52.8436 39.5614C52.8258 39.5183 52.8123 39.4738 52.8032 39.4281C52.7941 39.3823 52.7896 39.3361 52.7896 39.2895V37.2106ZM51.7896 37.2106H49.7105C49.2382 37.2106 48.835 37.0436 48.501 36.7096C48.167 36.3756 48 35.9724 48 35.5001C48 35.0277 48.167 34.6246 48.501 34.2906C48.835 33.9566 49.2382 33.7896 49.7105 33.7896H51.7896V31.7105C51.7896 31.2382 51.9566 30.835 52.2906 30.501C52.6246 30.167 53.0277 30 53.5001 30C53.9724 30 54.3756 30.167 54.7096 30.501C55.0436 30.835 55.2106 31.2382 55.2106 31.7105V33.7896H57.2895C57.7618 33.7896 58.165 33.9566 58.499 34.2906C58.833 34.6246 59 35.0277 59 35.5001C59 35.9724 58.833 36.3756 58.499 36.7096C58.165 37.0436 57.7618 37.2106 57.2895 37.2106H55.2106V39.2895C55.2106 39.7618 55.0436 40.165 54.7096 40.499C54.3756 40.833 53.9724 41 53.5001 41C53.0277 41 52.6246 40.833 52.2906 40.499C51.9566 40.165 51.7896 39.7618 51.7896 39.2895V37.2106Z" fill="#1E293B"/>
</g>
<path d="M9 94.2107C11.3333 95.5441 13 96.3774 14 96.7107C15.5 97.2107 19.5 98.2107 20 95.2107C20.1686 94.199 20.0387 93.4432 19.6102 92.9433C19.1917 92.4549 18.4883 92.2108 17.5 92.2108C18.5 90.2886 18.5 88.9941 17.5 88.3275C16 87.3275 13.5 88.7108 12.5 91.2108C11.8333 92.8774 10.6667 93.8774 9 94.2107Z" fill="url(#paint5_radial_125_31171)"/>
<path fill-rule="evenodd" clip-rule="evenodd" d="M17.5 88.3275C18.3185 88.8731 18.467 89.8393 17.9458 91.2259C17.8301 91.5335 17.6815 91.8618 17.5 92.2108C17.8993 92.2108 18.252 92.2506 18.5583 92.3303C19.0101 92.4479 19.3607 92.6522 19.6102 92.9433C20.0387 93.4432 20.1686 94.199 20 95.2107C19.5 98.2107 15.5 97.2107 14 96.7107C13.1844 96.4389 11.9254 95.8344 10.2229 94.8974C9.83794 94.6855 9.43031 94.4566 9 94.2107C9.46176 94.1184 9.88514 93.9748 10.2701 93.7801C11.2748 93.2721 12.018 92.4157 12.5 91.2108C13.5 88.7108 16 87.3275 17.5 88.3275ZM14.3162 95.762C13.649 95.5396 12.6427 95.0669 11.2972 94.3438C12.2322 93.7174 12.9426 92.7968 13.4285 91.5821C13.8385 90.5571 14.4647 89.805 15.307 89.3258C15.986 88.9395 16.5321 88.8841 16.9453 89.1595C17.4476 89.4944 17.3368 90.3576 16.6129 91.7492L15.8526 93.2107L17.5 93.2108C18.1816 93.2108 18.6319 93.3385 18.8509 93.594C19.0768 93.8576 19.1311 94.3417 19.0136 95.0463C18.8855 95.8152 18.3226 96.2246 17.3251 96.2744C16.472 96.3171 15.469 96.1463 14.3162 95.762Z" fill="#1E293B"/>
<path fill-rule="evenodd" clip-rule="evenodd" d="M52.2236 65.9472C53.4929 65.3126 54.5688 64.0685 55.4514 62.215L54.5486 61.785C53.7646 63.4315 52.8405 64.5207 51.7764 65.0528C50.7419 65.57 49.5435 65.5638 48.1812 65.034L47.8188 65.966C49.4565 66.6029 50.9248 66.5966 52.2236 65.9472Z" fill="#438DFB"/>
<path fill-rule="evenodd" clip-rule="evenodd" d="M73.7764 66.4472C72.5071 65.8126 71.4312 64.5685 70.5486 62.715L71.4514 62.285C72.2355 63.9315 73.1595 65.0207 74.2236 65.5528C75.2581 66.07 76.4565 66.0638 77.8188 65.534L78.1812 66.466C76.5435 67.1029 75.0752 67.0966 73.7764 66.4472Z" fill="#438DFB"/>
<path d="M55.5 69.5C56.3284 69.5 57 68.8284 57 68C57 67.1716 56.3284 66.5 55.5 66.5C54.6716 66.5 54 67.1716 54 68C54 68.8284 54.6716 69.5 55.5 69.5Z" fill="white"/>
<path d="M57 68C57 68.0491 56.9976 68.0981 56.9928 68.147C56.988 68.1959 56.9808 68.2445 56.9712 68.2926C56.9616 68.3408 56.9497 68.3884 56.9354 68.4354C56.9211 68.4824 56.9046 68.5286 56.8858 68.574C56.867 68.6194 56.846 68.6638 56.8229 68.7071C56.7997 68.7504 56.7745 68.7925 56.7472 68.8334C56.7199 68.8742 56.6907 68.9136 56.6595 68.9516C56.6284 68.9896 56.5954 69.0259 56.5607 69.0607C56.5259 69.0954 56.4896 69.1284 56.4516 69.1595C56.4136 69.1907 56.3742 69.2199 56.3334 69.2472C56.2925 69.2745 56.2504 69.2997 56.2071 69.3229C56.1638 69.346 56.1194 69.367 56.074 69.3858C56.0286 69.4046 55.9824 69.4211 55.9354 69.4354C55.8884 69.4497 55.8408 69.4616 55.7926 69.4712C55.7445 69.4808 55.6959 69.488 55.647 69.4928C55.5981 69.4976 55.5491 69.5 55.5 69.5C55.4509 69.5 55.4019 69.4976 55.353 69.4928C55.3041 69.488 55.2555 69.4808 55.2074 69.4712C55.1592 69.4616 55.1116 69.4497 55.0646 69.4354C55.0176 69.4211 54.9714 69.4046 54.926 69.3858C54.8806 69.367 54.8362 69.346 54.7929 69.3229C54.7496 69.2997 54.7075 69.2745 54.6666 69.2472C54.6258 69.2199 54.5864 69.1907 54.5484 69.1595C54.5104 69.1284 54.4741 69.0954 54.4393 69.0607C54.4046 69.0259 54.3717 68.9896 54.3405 68.9516C54.3093 68.9136 54.2801 68.8742 54.2528 68.8334C54.2255 68.7925 54.2003 68.7504 54.1771 68.7071C54.154 68.6638 54.133 68.6194 54.1142 68.574C54.0954 68.5286 54.0789 68.4824 54.0646 68.4354C54.0503 68.3884 54.0384 68.3408 54.0288 68.2926C54.0192 68.2445 54.012 68.1959 54.0072 68.147C54.0024 68.0981 54 68.0491 54 68C54 67.9509 54.0024 67.9019 54.0072 67.853C54.012 67.8041 54.0192 67.7555 54.0288 67.7074C54.0384 67.6592 54.0503 67.6116 54.0646 67.5646C54.0789 67.5176 54.0954 67.4714 54.1142 67.426C54.133 67.3806 54.154 67.3362 54.1771 67.2929C54.2003 67.2496 54.2255 67.2075 54.2528 67.1666C54.2801 67.1258 54.3093 67.0864 54.3405 67.0484C54.3717 67.0104 54.4046 66.9741 54.4393 66.9393C54.4741 66.9046 54.5104 66.8717 54.5484 66.8405C54.5864 66.8093 54.6258 66.7801 54.6666 66.7528C54.7075 66.7255 54.7496 66.7003 54.7929 66.6771C54.8362 66.654 54.8806 66.633 54.926 66.6142C54.9714 66.5954 55.0176 66.5789 55.0646 66.5646C55.1116 66.5503 55.1592 66.5384 55.2074 66.5288C55.2555 66.5192 55.3041 66.512 55.353 66.5072C55.4019 66.5024 55.4509 66.5 55.5 66.5C55.5491 66.5 55.5981 66.5024 55.647 66.5072C55.6959 66.512 55.7445 66.5192 55.7926 66.5288C55.8408 66.5384 55.8884 66.5503 55.9354 66.5646C55.9824 66.5789 56.0286 66.5954 56.074 66.6142C56.1194 66.633 56.1638 66.654 56.2071 66.6771C56.2504 66.7003 56.2925 66.7255 56.3334 66.7528C56.3742 66.7801 56.4136 66.8093 56.4516 66.8405C56.4896 66.8717 56.5259 66.9046 56.5607 66.9393C56.5954 66.9741 56.6284 67.0104 56.6595 67.0484C56.6907 67.0864 56.7199 67.1258 56.7472 67.1666C56.7745 67.2075 56.7997 67.2496 56.8229 67.2929C56.846 67.3362 56.867 67.3806 56.8858 67.426C56.9046 67.4714 56.9211 67.5176 56.9354 67.5646C56.9497 67.6116 56.9616 67.6592 56.9712 67.7074C56.9808 67.7555 56.988 67.8041 56.9928 67.853C56.9976 67.9019 57 67.9509 57 68ZM56 68C56 67.9672 55.9968 67.9347 55.9904 67.9025C55.984 67.8703 55.9745 67.839 55.9619 67.8087C55.9494 67.7783 55.934 67.7495 55.9157 67.7222C55.8975 67.6949 55.8768 67.6697 55.8536 67.6464C55.8303 67.6232 55.8051 67.6025 55.7778 67.5843C55.7505 67.566 55.7217 67.5506 55.6913 67.5381C55.661 67.5255 55.6297 67.516 55.5975 67.5096C55.5653 67.5032 55.5328 67.5 55.5 67.5C55.4672 67.5 55.4347 67.5032 55.4025 67.5096C55.3703 67.516 55.339 67.5255 55.3087 67.5381C55.2783 67.5506 55.2495 67.566 55.2222 67.5843C55.1949 67.6025 55.1697 67.6232 55.1464 67.6464C55.1232 67.6697 55.1025 67.6949 55.0843 67.7222C55.066 67.7495 55.0506 67.7783 55.0381 67.8087C55.0255 67.839 55.016 67.8703 55.0096 67.9025C55.0032 67.9347 55 67.9672 55 68C55 68.0328 55.0032 68.0653 55.0096 68.0975C55.016 68.1297 55.0255 68.161 55.0381 68.1913C55.0506 68.2217 55.066 68.2505 55.0843 68.2778C55.1025 68.3051 55.1232 68.3303 55.1464 68.3536C55.1697 68.3768 55.1949 68.3975 55.2222 68.4157C55.2495 68.434 55.2783 68.4494 55.3087 68.4619C55.339 68.4745 55.3703 68.484 55.4025 68.4904C55.4347 68.4968 55.4672 68.5 55.5 68.5C55.5328 68.5 55.5653 68.4968 55.5975 68.4904C55.6297 68.484 55.661 68.4745 55.6913 68.4619C55.7217 68.4494 55.7505 68.434 55.7778 68.4157C55.8051 68.3975 55.8303 68.3768 55.8536 68.3536C55.8768 68.3303 55.8975 68.3051 55.9157 68.2778C55.934 68.2505 55.9494 68.2217 55.9619 68.1913C55.9745 68.161 55.984 68.1297 55.9904 68.0975C55.9968 68.0653 56 68.0328 56 68Z" fill="#438DFB"/>
<path d="M70.5 69.5C71.3284 69.5 72 68.8284 72 68C72 67.1716 71.3284 66.5 70.5 66.5C69.6716 66.5 69 67.1716 69 68C69 68.8284 69.6716 69.5 70.5 69.5Z" fill="white"/>
<path d="M72 68C72 68.0491 71.9976 68.0981 71.9928 68.147C71.988 68.1959 71.9808 68.2445 71.9712 68.2926C71.9616 68.3408 71.9497 68.3884 71.9354 68.4354C71.9211 68.4824 71.9046 68.5286 71.8858 68.574C71.867 68.6194 71.846 68.6638 71.8229 68.7071C71.7997 68.7504 71.7745 68.7925 71.7472 68.8334C71.7199 68.8742 71.6907 68.9136 71.6595 68.9516C71.6284 68.9896 71.5954 69.0259 71.5607 69.0607C71.5259 69.0954 71.4896 69.1284 71.4516 69.1595C71.4136 69.1907 71.3742 69.2199 71.3334 69.2472C71.2925 69.2745 71.2504 69.2997 71.2071 69.3229C71.1638 69.346 71.1194 69.367 71.074 69.3858C71.0286 69.4046 70.9824 69.4211 70.9354 69.4354C70.8884 69.4497 70.8408 69.4616 70.7926 69.4712C70.7445 69.4808 70.6959 69.488 70.647 69.4928C70.5981 69.4976 70.5491 69.5 70.5 69.5C70.4509 69.5 70.4019 69.4976 70.353 69.4928C70.3041 69.488 70.2555 69.4808 70.2074 69.4712C70.1592 69.4616 70.1116 69.4497 70.0646 69.4354C70.0176 69.4211 69.9714 69.4046 69.926 69.3858C69.8806 69.367 69.8362 69.346 69.7929 69.3229C69.7496 69.2997 69.7075 69.2745 69.6666 69.2472C69.6258 69.2199 69.5864 69.1907 69.5484 69.1595C69.5104 69.1284 69.4741 69.0954 69.4393 69.0607C69.4046 69.0259 69.3717 68.9896 69.3405 68.9516C69.3093 68.9136 69.2801 68.8742 69.2528 68.8334C69.2255 68.7925 69.2003 68.7504 69.1771 68.7071C69.154 68.6638 69.133 68.6194 69.1142 68.574C69.0954 68.5286 69.0789 68.4824 69.0646 68.4354C69.0503 68.3884 69.0384 68.3408 69.0288 68.2926C69.0192 68.2445 69.012 68.1959 69.0072 68.147C69.0024 68.0981 69 68.0491 69 68C69 67.9509 69.0024 67.9019 69.0072 67.853C69.012 67.8041 69.0192 67.7555 69.0288 67.7074C69.0384 67.6592 69.0503 67.6116 69.0646 67.5646C69.0789 67.5176 69.0954 67.4714 69.1142 67.426C69.133 67.3806 69.154 67.3362 69.1771 67.2929C69.2003 67.2496 69.2255 67.2075 69.2528 67.1666C69.2801 67.1258 69.3093 67.0864 69.3405 67.0484C69.3717 67.0104 69.4046 66.9741 69.4393 66.9393C69.4741 66.9046 69.5104 66.8717 69.5484 66.8405C69.5864 66.8093 69.6258 66.7801 69.6666 66.7528C69.7075 66.7255 69.7496 66.7003 69.7929 66.6771C69.8362 66.654 69.8806 66.633 69.926 66.6142C69.9714 66.5954 70.0176 66.5789 70.0646 66.5646C70.1116 66.5503 70.1592 66.5384 70.2074 66.5288C70.2555 66.5192 70.3041 66.512 70.353 66.5072C70.4019 66.5024 70.4509 66.5 70.5 66.5C70.5491 66.5 70.5981 66.5024 70.647 66.5072C70.6959 66.512 70.7445 66.5192 70.7926 66.5288C70.8408 66.5384 70.8884 66.5503 70.9354 66.5646C70.9824 66.5789 71.0286 66.5954 71.074 66.6142C71.1194 66.633 71.1638 66.654 71.2071 66.6771C71.2504 66.7003 71.2925 66.7255 71.3334 66.7528C71.3742 66.7801 71.4136 66.8093 71.4516 66.8405C71.4896 66.8717 71.5259 66.9046 71.5607 66.9393C71.5954 66.9741 71.6284 67.0104 71.6595 67.0484C71.6907 67.0864 71.7199 67.1258 71.7472 67.1666C71.7745 67.2075 71.7997 67.2496 71.8229 67.2929C71.846 67.3362 71.867 67.3806 71.8858 67.426C71.9046 67.4714 71.9211 67.5176 71.9354 67.5646C71.9497 67.6116 71.9616 67.6592 71.9712 67.7074C71.9808 67.7555 71.988 67.8041 71.9928 67.853C71.9976 67.9019 72 67.9509 72 68ZM71 68C71 67.9672 70.9968 67.9347 70.9904 67.9025C70.984 67.8703 70.9745 67.839 70.9619 67.8087C70.9494 67.7783 70.934 67.7495 70.9157 67.7222C70.8975 67.6949 70.8768 67.6697 70.8536 67.6464C70.8303 67.6232 70.8051 67.6025 70.7778 67.5843C70.7505 67.566 70.7217 67.5506 70.6913 67.5381C70.661 67.5255 70.6297 67.516 70.5975 67.5096C70.5653 67.5032 70.5328 67.5 70.5 67.5C70.4672 67.5 70.4347 67.5032 70.4025 67.5096C70.3703 67.516 70.339 67.5255 70.3087 67.5381C70.2783 67.5506 70.2495 67.566 70.2222 67.5843C70.1949 67.6025 70.1697 67.6232 70.1464 67.6464C70.1232 67.6697 70.1025 67.6949 70.0843 67.7222C70.066 67.7495 70.0506 67.7783 70.0381 67.8087C70.0255 67.839 70.016 67.8703 70.0096 67.9025C70.0032 67.9347 70 67.9672 70 68C70 68.0328 70.0032 68.0653 70.0096 68.0975C70.016 68.1297 70.0255 68.161 70.0381 68.1913C70.0506 68.2217 70.066 68.2505 70.0843 68.2778C70.1025 68.3051 70.1232 68.3303 70.1464 68.3536C70.1697 68.3768 70.1949 68.3975 70.2222 68.4157C70.2495 68.434 70.2783 68.4494 70.3087 68.4619C70.339 68.4745 70.3703 68.484 70.4025 68.4904C70.4347 68.4968 70.4672 68.5 70.5 68.5C70.5328 68.5 70.5653 68.4968 70.5975 68.4904C70.6297 68.484 70.661 68.4745 70.6913 68.4619C70.7217 68.4494 70.7505 68.434 70.7778 68.4157C70.8051 68.3975 70.8303 68.3768 70.8536 68.3536C70.8768 68.3303 70.8975 68.3051 70.9157 68.2778C70.934 68.2505 70.9494 68.2217 70.9619 68.1913C70.9745 68.161 70.984 68.1297 70.9904 68.0975C70.9968 68.0653 71 68.0328 71 68Z" fill="#438DFB"/>
<path fill-rule="evenodd" clip-rule="evenodd" d="M64 75.5C65.1731 75.5 66.3763 76.2708 67.6096 77.8123L68.3904 77.1877C66.957 75.3959 65.4935 74.5 64 74.5C62.4779 74.5 61.1684 75.4143 60.0713 77.2428L60.9288 77.7572C61.8317 76.2524 62.8554 75.5 64 75.5Z" fill="#438DFB"/>
</g>
<defs>
<filter id="filter0_d_125_31171" x="1" y="40" width="51" height="78" filterUnits="userSpaceOnUse" color-interpolation-filters="sRGB">
<feFlood flood-opacity="0" result="BackgroundImageFix"/>
<feColorMatrix in="SourceAlpha" type="matrix" values="0 0 0 0 0 0 0 0 0 0 0 0 0 0 0 0 0 0 127 0" result="hardAlpha"/>
<feOffset/>
<feGaussianBlur stdDeviation="12"/>
<feColorMatrix type="matrix" values="0 0 0 0 0.850089 0 0 0 0 0.910047 0 0 0 0 0.9702 0 0 0 0.704805 0"/>
<feBlend mode="normal" in2="BackgroundImageFix" result="effect1_dropShadow_125_31171"/>
<feBlend mode="normal" in="SourceGraphic" in2="effect1_dropShadow_125_31171" result="shape"/>
</filter>
<filter id="filter1_d_125_31171" x="57" y="8" width="51" height="62" filterUnits="userSpaceOnUse" color-interpolation-filters="sRGB">
<feFlood flood-opacity="0" result="BackgroundImageFix"/>
<feColorMatrix in="SourceAlpha" type="matrix" values="0 0 0 0 0 0 0 0 0 0 0 0 0 0 0 0 0 0 127 0" result="hardAlpha"/>
<feOffset/>
<feGaussianBlur stdDeviation="12"/>
<feColorMatrix type="matrix" values="0 0 0 0 0.850089 0 0 0 0 0.910047 0 0 0 0 0.9702 0 0 0 0.704805 0"/>
<feBlend mode="normal" in2="BackgroundImageFix" result="effect1_dropShadow_125_31171"/>
<feBlend mode="normal" in="SourceGraphic" in2="effect1_dropShadow_125_31171" result="shape"/>
</filter>
<linearGradient id="paint0_linear_125_31171" x1="99.1111" y1="22.0012" x2="40.7778" y2="105.334" gradientUnits="userSpaceOnUse">
<stop offset="0.0571429" stop-color="#D8ECFF"/>
<stop offset="1" stop-color="#E2F7FF" stop-opacity="0.31"/>
</linearGradient>
<linearGradient id="paint1_linear_125_31171" x1="79.3719" y1="56" x2="46.2632" y2="82.0143" gradientUnits="userSpaceOnUse">
<stop stop-color="#C8DCFF"/>
<stop offset="0.992857" stop-color="#EBF6FF"/>
</linearGradient>
<linearGradient id="paint2_linear_125_31171" x1="72.5" y1="105" x2="72.5" y2="95.1631" gradientUnits="userSpaceOnUse">
<stop offset="0.0285715" stop-color="#BFDCFF"/>
<stop offset="1" stop-color="#EDF8FF"/>
</linearGradient>
<radialGradient id="paint3_radial_125_31171" cx="0" cy="0" r="1" gradientUnits="userSpaceOnUse" gradientTransform="translate(45.8437 95.4919) rotate(-135) scale(7)">
<stop stop-color="white"/>
<stop offset="1" stop-color="#59BFFF" stop-opacity="0.33"/>
</radialGradient>
<radialGradient id="paint4_radial_125_31171" cx="0" cy="0" r="1" gradientUnits="userSpaceOnUse" gradientTransform="translate(77.8994 95.4919) rotate(-135) scale(7)">
<stop stop-color="white"/>
<stop offset="1" stop-color="#59BFFF" stop-opacity="0.33"/>
</radialGradient>
<radialGradient id="paint5_radial_125_31171" cx="0" cy="0" r="1" gradientUnits="userSpaceOnUse" gradientTransform="translate(16.4136 92.9283) rotate(113.341) scale(4.73965 5.65454)">
<stop offset="0.136135" stop-color="white"/>
<stop offset="1" stop-color="#59BFFF" stop-opacity="0.33"/>
</radialGradient>
</defs>
</svg>
