<svg width="130" height="95" viewBox="0 0 130 95" fill="none" xmlns="http://www.w3.org/2000/svg">
<path d="M62.9792 94.3548C89.0346 94.3548 110.157 73.2328 110.157 47.1774C110.157 21.1221 89.0346 0 62.9792 0C36.9238 0 15.8018 21.1221 15.8018 47.1774C15.8018 73.2328 36.9238 94.3548 62.9792 94.3548Z" fill="url(#paint0_linear_2758_37533)"/>
<path d="M62.5191 87.6493C81.3721 87.6493 96.6556 85.8325 96.6556 83.5913C96.6556 81.3501 81.3721 79.5332 62.5191 79.5332C43.666 79.5332 28.3826 81.3501 28.3826 83.5913C28.3826 85.8325 43.666 87.6493 62.5191 87.6493Z" fill="#D3DFFA"/>
<path d="M24.7131 68.1453C26.7357 68.1453 28.3824 66.5022 28.3824 64.476C28.3824 62.4489 26.7357 60.8066 24.7131 60.8066C22.6815 60.8066 21.0437 62.4489 21.0437 64.476C21.0437 66.5022 22.6815 68.1453 24.7131 68.1453Z" fill="#6290FF"/>
<path d="M39.0614 29.8132C40.3219 29.8132 41.3533 28.7717 41.3533 27.4876C41.3533 26.2028 40.3219 25.1621 39.0614 25.1621C37.7927 25.1621 36.7695 26.2028 36.7695 27.4876C36.7695 28.7717 37.7927 29.8132 39.0614 29.8132Z" fill="#A4D7F7"/>
<path d="M73.6583 4.65109C74.9188 4.65109 75.9502 3.60958 75.9502 2.32554C75.9502 1.04068 74.9188 0 73.6583 0C72.3896 0 71.3665 1.04068 71.3665 2.32554C71.3665 3.60958 72.3896 4.65109 73.6583 4.65109Z" fill="#A4D7F7"/>
<path d="M105.305 43.2123C105.305 43.2884 105.301 43.3644 105.294 43.4402C105.287 43.516 105.276 43.5912 105.261 43.6659C105.246 43.7407 105.228 43.8144 105.206 43.8873C105.184 43.9602 105.159 44.0318 105.13 44.1022C105.102 44.1726 105.07 44.2413 105.034 44.3085C104.999 44.3757 104.96 44.4409 104.919 44.5043C104.877 44.5676 104.832 44.6287 104.785 44.6876C104.737 44.7465 104.687 44.8028 104.634 44.8567C104.581 44.9105 104.525 44.9616 104.467 45.0099C104.409 45.0582 104.349 45.1036 104.286 45.1459C104.224 45.1882 104.16 45.2273 104.093 45.2632C104.027 45.2991 103.959 45.3316 103.89 45.3608C103.821 45.3899 103.75 45.4156 103.678 45.4377C103.607 45.4598 103.534 45.4783 103.46 45.4931C103.387 45.508 103.312 45.5191 103.238 45.5266C103.163 45.5341 103.088 45.5378 103.013 45.5378C102.938 45.5378 102.863 45.5341 102.788 45.5266C102.714 45.5191 102.64 45.508 102.566 45.4931C102.492 45.4783 102.42 45.4598 102.348 45.4377C102.276 45.4156 102.205 45.3899 102.136 45.3608C102.067 45.3316 101.999 45.2991 101.933 45.2632C101.866 45.2273 101.802 45.1882 101.74 45.1459C101.677 45.1036 101.617 45.0582 101.559 45.0099C101.501 44.9616 101.446 44.9105 101.392 44.8567C101.339 44.8028 101.289 44.7465 101.241 44.6876C101.194 44.6287 101.149 44.5676 101.107 44.5043C101.066 44.4409 101.027 44.3757 100.992 44.3085C100.956 44.2413 100.924 44.1726 100.896 44.1022C100.867 44.0318 100.842 43.9602 100.82 43.8873C100.798 43.8144 100.78 43.7407 100.765 43.6659C100.751 43.5912 100.74 43.516 100.732 43.4402C100.725 43.3644 100.721 43.2884 100.721 43.2123C100.721 43.1361 100.725 43.0601 100.732 42.9843C100.74 42.9085 100.751 42.8333 100.765 42.7586C100.78 42.6839 100.798 42.6101 100.82 42.5372C100.842 42.4643 100.867 42.3927 100.896 42.3223C100.924 42.2519 100.956 42.1832 100.992 42.116C101.027 42.0488 101.066 41.9836 101.107 41.9203C101.149 41.8569 101.194 41.7958 101.241 41.737C101.289 41.6781 101.339 41.6217 101.392 41.5679C101.446 41.514 101.501 41.4629 101.559 41.4146C101.617 41.3663 101.677 41.321 101.74 41.2786C101.802 41.2363 101.866 41.1972 101.933 41.1613C101.999 41.1254 102.067 41.0929 102.136 41.0637C102.205 41.0346 102.276 41.009 102.348 40.9869C102.42 40.9647 102.492 40.9463 102.566 40.9314C102.64 40.9165 102.714 40.9054 102.788 40.8979C102.863 40.8905 102.938 40.8867 103.013 40.8867C103.088 40.8867 103.163 40.8905 103.238 40.8979C103.312 40.9054 103.387 40.9165 103.46 40.9314C103.534 40.9463 103.607 40.9647 103.678 40.9869C103.75 41.009 103.821 41.0346 103.89 41.0637C103.959 41.0929 104.027 41.1254 104.093 41.1613C104.16 41.1972 104.224 41.2363 104.286 41.2786C104.349 41.321 104.409 41.3663 104.467 41.4146C104.525 41.4629 104.581 41.514 104.634 41.5679C104.687 41.6217 104.737 41.6781 104.785 41.737C104.832 41.7958 104.877 41.8569 104.919 41.9203C104.96 41.9836 104.999 42.0488 105.034 42.116C105.07 42.1832 105.102 42.2519 105.13 42.3223C105.159 42.3927 105.184 42.4643 105.206 42.5372C105.228 42.6101 105.246 42.6839 105.261 42.7586C105.276 42.8333 105.287 42.9085 105.294 42.9843C105.301 43.0601 105.305 43.1361 105.305 43.2123Z" fill="#59BFFF"/>
<g opacity="0.8">
<path fill-rule="evenodd" clip-rule="evenodd" d="M31.8038 12.5249L31.802 11.4766H27.2906C27.2254 11.4766 27.1608 11.4702 27.0968 11.4575C27.0329 11.4447 26.9707 11.4259 26.9104 11.401C26.8501 11.376 26.7929 11.3454 26.7386 11.3092C26.6843 11.2729 26.634 11.2318 26.5878 11.1857C26.5417 11.1395 26.5004 11.0894 26.4641 11.0351C26.4277 10.9809 26.3971 10.9237 26.372 10.8634C26.3469 10.8032 26.328 10.7411 26.3152 10.6771C26.3023 10.6132 26.2959 10.5486 26.2957 10.4833C26.2956 10.4181 26.3019 10.3535 26.3145 10.2896C26.3271 10.2256 26.3458 10.1635 26.3707 10.1033C26.3956 10.043 26.4261 9.98577 26.4622 9.93155C26.4983 9.87733 26.5394 9.82716 26.5855 9.78104C26.6315 9.73493 26.6816 9.69375 26.7358 9.65752C26.7899 9.6213 26.8471 9.5907 26.9073 9.56574C26.9675 9.54079 27.0296 9.52195 27.0935 9.50923C27.1575 9.4965 27.222 9.49014 27.2873 9.49014H31.7987L31.7915 5.28082C31.7914 5.24519 31.7931 5.20965 31.7966 5.17419C31.8 5.13873 31.8051 5.10353 31.812 5.06858C31.8189 5.03364 31.8275 4.99911 31.8378 4.96502C31.8481 4.93092 31.86 4.89742 31.8736 4.8645C31.8872 4.83158 31.9023 4.79941 31.9191 4.76799C31.9358 4.73656 31.9541 4.70604 31.9738 4.67642C31.9936 4.64679 32.0147 4.61821 32.0373 4.59066C32.0598 4.56312 32.0837 4.53675 32.1088 4.51156C32.134 4.48636 32.1603 4.46246 32.1878 4.43986C32.2153 4.41726 32.2439 4.39606 32.2735 4.37626C32.303 4.35647 32.3335 4.33817 32.3649 4.32138C32.3963 4.30458 32.4285 4.28936 32.4614 4.27573C32.4943 4.26209 32.5277 4.25011 32.5618 4.23976C32.5959 4.22942 32.6304 4.22077 32.6653 4.21382C32.7003 4.20687 32.7355 4.20165 32.7709 4.19816C32.8064 4.19467 32.8419 4.19292 32.8775 4.19292C32.9132 4.19292 32.9487 4.19467 32.9842 4.19816C33.0197 4.20165 33.0549 4.20687 33.0898 4.21382C33.1248 4.22077 33.1593 4.22942 33.1934 4.23976C33.2275 4.25011 33.2611 4.26209 33.294 4.27573C33.327 4.28936 33.3591 4.30458 33.3906 4.32138C33.4221 4.33817 33.4526 4.35647 33.4823 4.37626C33.5119 4.39606 33.5405 4.41726 33.5681 4.43986C33.5957 4.46246 33.6221 4.48636 33.6474 4.51156C33.6726 4.53675 33.6965 4.56312 33.7192 4.59066C33.7418 4.61821 33.7631 4.64679 33.7829 4.67642C33.8028 4.70604 33.8211 4.73656 33.838 4.76799C33.8548 4.79941 33.8701 4.83158 33.8838 4.8645C33.8975 4.89742 33.9095 4.93092 33.9199 4.96502C33.9303 4.99911 33.939 5.03364 33.946 5.06858C33.953 5.10353 33.9583 5.13873 33.9619 5.17419C33.9654 5.20965 33.9672 5.24519 33.9673 5.28082L33.9745 9.49014H38.3769C38.4421 9.49014 38.5067 9.4965 38.5706 9.50923C38.6346 9.52195 38.6968 9.54079 38.757 9.56574C38.8173 9.5907 38.8746 9.6213 38.9289 9.65752C38.9832 9.69375 39.0334 9.73493 39.0796 9.78104C39.1258 9.82716 39.1671 9.87733 39.2034 9.93155C39.2397 9.98577 39.2704 10.043 39.2955 10.1033C39.3205 10.1635 39.3395 10.2256 39.3523 10.2896C39.3651 10.3535 39.3716 10.4181 39.3717 10.4833C39.3718 10.5486 39.3656 10.6132 39.353 10.6771C39.3403 10.7411 39.3216 10.8032 39.2968 10.8634C39.2719 10.9237 39.2414 10.9809 39.2053 11.0351C39.1691 11.0894 39.128 11.1395 39.082 11.1857C39.036 11.2318 38.9859 11.2729 38.9317 11.3092C38.8776 11.3454 38.8204 11.376 38.7602 11.401C38.7 11.4259 38.6379 11.4447 38.574 11.4575C38.51 11.4702 38.4455 11.4766 38.3803 11.4766H33.9778L33.985 15.6857C33.9851 15.7213 33.9834 15.7568 33.98 15.7923C33.9765 15.8278 33.9714 15.863 33.9645 15.8979C33.9576 15.9329 33.949 15.9674 33.9387 16.0014C33.9284 16.0355 33.9165 16.069 33.9029 16.102C33.8893 16.1349 33.8742 16.1671 33.8574 16.1985C33.8407 16.2299 33.8224 16.2604 33.8027 16.29C33.783 16.3197 33.7618 16.3483 33.7393 16.3758C33.7167 16.4033 33.6928 16.4297 33.6677 16.455C33.6425 16.4801 33.6162 16.504 33.5887 16.5267C33.5612 16.5492 33.5327 16.5704 33.5031 16.5902C33.4735 16.61 33.443 16.6283 33.4116 16.6451C33.3802 16.6619 33.348 16.6771 33.3152 16.6907C33.2823 16.7044 33.2488 16.7164 33.2147 16.7267C33.1806 16.737 33.1461 16.7457 33.1112 16.7527C33.0762 16.7596 33.0411 16.7648 33.0056 16.7683C32.9701 16.7718 32.9346 16.7736 32.899 16.7736C32.8633 16.7736 32.8278 16.7718 32.7923 16.7683C32.7569 16.7648 32.7217 16.7596 32.6867 16.7527C32.6517 16.7457 32.6172 16.737 32.5831 16.7267C32.549 16.7164 32.5154 16.7044 32.4825 16.6907C32.4496 16.6771 32.4174 16.6619 32.3859 16.6451C32.3545 16.6283 32.3239 16.61 32.2943 16.5902C32.2646 16.5704 32.236 16.5492 32.2084 16.5267C32.1808 16.504 32.1544 16.4801 32.1292 16.455C32.1039 16.4297 32.08 16.4033 32.0573 16.3758C32.0347 16.3483 32.0134 16.3197 31.9936 16.29C31.9737 16.2604 31.9554 16.2299 31.9385 16.1985C31.9217 16.1671 31.9064 16.1349 31.8927 16.102C31.879 16.069 31.867 16.0355 31.8566 16.0014C31.8462 15.9674 31.8375 15.9329 31.8305 15.8979C31.8235 15.863 31.8182 15.8278 31.8146 15.7923C31.8111 15.7568 31.8093 15.7213 31.8092 15.6857L31.8038 12.5249ZM30.7554 12.5249H27.2924C26.7287 12.5249 26.2471 12.3256 25.8478 11.927C25.4485 11.5283 25.2483 11.0471 25.2474 10.4833C25.2464 9.91958 25.4449 9.43837 25.8429 9.03973C26.2408 8.64107 26.7217 8.44175 27.2855 8.44175H30.7485L30.7431 5.28082C30.7421 4.6909 30.9498 4.18737 31.3662 3.77024C31.7827 3.3531 32.2858 3.14453 32.8758 3.14453C33.4657 3.14453 33.9696 3.3531 34.3874 3.77024C34.8053 4.18737 35.0147 4.6909 35.0157 5.28082L35.0211 8.44175H38.3751C38.9388 8.44175 39.4204 8.64107 39.8197 9.03973C40.219 9.43837 40.4191 9.91958 40.4201 10.4833C40.4211 11.0471 40.2226 11.5283 39.8247 11.927C39.4267 12.3256 38.9458 12.5249 38.382 12.5249H35.028L35.0334 15.6857C35.0344 16.2755 34.8267 16.7791 34.4103 17.1963C33.9939 17.6134 33.4907 17.822 32.9008 17.822C32.3108 17.822 31.807 17.6134 31.3891 17.1963C30.9713 16.7791 30.7618 16.2755 30.7608 15.6857L30.7554 12.5249Z" fill="#475F7D"/>
</g>
<path fill-rule="evenodd" clip-rule="evenodd" d="M43.303 38.7904V29.3549C43.303 18.3537 52.2212 9.43555 63.2223 9.43555C74.2235 9.43555 83.1417 18.3537 83.1417 29.3549V38.7904H43.303ZM50.6417 37.742V29.3549C50.6417 22.4068 56.2743 16.7743 63.2223 16.7743C70.1704 16.7743 75.803 22.4068 75.803 29.3549V37.742H50.6417Z" fill="url(#paint1_linear_2758_37533)"/>
<path fill-rule="evenodd" clip-rule="evenodd" d="M43.303 37.742V38.7904H83.1417V29.3549C83.1417 18.3537 74.2235 9.43555 63.2223 9.43555C52.2212 9.43555 43.303 18.3537 43.303 29.3549V37.742ZM44.3514 37.742H49.5933V29.3549C49.5933 25.5913 50.9239 22.3789 53.5852 19.7177C56.2464 17.0565 59.4588 15.7259 63.2223 15.7259C66.9859 15.7259 70.1983 17.0565 72.8595 19.7177C75.5208 22.3789 76.8514 25.5913 76.8514 29.3549V37.742H82.0933V29.3549C82.0933 24.1439 80.2509 19.6959 76.5661 16.0111C72.8813 12.3263 68.4334 10.4839 63.2223 10.4839C58.0113 10.4839 53.5634 12.3263 49.8785 16.0111C46.1938 19.6959 44.3514 24.1439 44.3514 29.3549V37.742ZM75.803 37.742V29.3549C75.803 22.4068 70.1704 16.7743 63.2223 16.7743C56.2743 16.7743 50.6417 22.4068 50.6417 29.3549V37.742H75.803Z" fill="#1E293B"/>
<path d="M87.3735 37.4355H38.8664C36.5504 37.4355 34.6729 39.3131 34.6729 41.6291V79.7164C34.6729 82.0325 36.5504 83.91 38.8664 83.91H87.3735C89.6895 83.91 91.567 82.0325 91.567 79.7164V41.6291C91.567 39.3131 89.6895 37.4355 87.3735 37.4355Z" fill="#D8D8D8"/>
<path d="M87.3735 37.4355H38.8664C36.5504 37.4355 34.6729 39.3131 34.6729 41.6291V79.7164C34.6729 82.0325 36.5504 83.91 38.8664 83.91H87.3735C89.6895 83.91 91.567 82.0325 91.567 79.7164V41.6291C91.567 39.3131 89.6895 37.4355 87.3735 37.4355Z" fill="white"/>
<path d="M87.3735 37.959H38.8664C36.8398 37.959 35.197 39.6018 35.197 41.6283V79.7157C35.197 81.7422 36.8398 83.385 38.8664 83.385H87.3735C89.4 83.385 91.0428 81.7422 91.0428 79.7157V41.6283C91.0428 39.6018 89.4 37.959 87.3735 37.959Z" stroke="#1E293B"/>
<path d="M87.8462 41.9355H38.572V80.7259H87.8462V41.9355Z" fill="url(#paint2_linear_2758_37533)"/>
<path fill-rule="evenodd" clip-rule="evenodd" d="M65.2425 61.2216C65.3734 61.1581 65.502 61.0901 65.6282 61.0175C65.7544 60.9448 65.8779 60.8677 65.9988 60.7863C66.1196 60.7048 66.2375 60.6191 66.3524 60.5292C66.4673 60.4393 66.579 60.3454 66.6874 60.2475C66.7958 60.1497 66.9007 60.0481 67.0021 59.9427C67.1035 59.8373 67.2011 59.7284 67.2949 59.6161C67.3887 59.5037 67.4785 59.3882 67.5644 59.2694C67.6502 59.1506 67.7318 59.0289 67.8093 58.9043C67.8866 58.7797 67.9596 58.6525 68.0282 58.5227C68.0967 58.3929 68.1607 58.2608 68.2201 58.1264C68.2796 57.992 68.3343 57.8557 68.3843 57.7174C68.4343 57.5791 68.4794 57.4392 68.5196 57.2976C68.5599 57.1561 68.5952 57.0133 68.6256 56.8693C68.6561 56.7252 68.6814 56.5803 68.7018 56.4344C68.7221 56.2885 68.7374 56.1421 68.7476 55.9952C68.7578 55.8482 68.7629 55.7011 68.7629 55.5538C68.7629 55.451 68.7604 55.3483 68.7553 55.2456C68.7504 55.143 68.7429 55.0405 68.733 54.9382C68.7231 54.8359 68.7108 54.7339 68.6959 54.6322C68.6811 54.5306 68.6638 54.4293 68.644 54.3285C68.6243 54.2277 68.6021 54.1275 68.5775 54.0278C68.5529 53.9281 68.5259 53.829 68.4966 53.7307C68.4672 53.6323 68.4354 53.5348 68.4013 53.438C68.3672 53.3412 68.3308 53.2454 68.292 53.1504C68.2533 53.0554 68.2123 52.9615 68.1691 52.8686C68.1258 52.7757 68.0803 52.6839 68.0326 52.5932C67.9849 52.5026 67.935 52.4132 67.883 52.325C67.831 52.2369 67.7768 52.1501 67.7206 52.0646C67.6644 51.9791 67.6061 51.8951 67.5458 51.8126C67.4856 51.73 67.4233 51.649 67.3591 51.5696C67.2949 51.4901 67.2288 51.4123 67.1608 51.3361C67.0928 51.26 67.0231 51.1856 66.9516 51.1129C66.88 51.0402 66.8067 50.9694 66.7317 50.9003C66.6567 50.8313 66.5801 50.7642 66.5019 50.699C66.4236 50.6338 66.3439 50.5706 66.2626 50.5094C66.1813 50.4481 66.0986 50.389 66.0144 50.3319C65.9303 50.2748 65.8448 50.2198 65.758 50.1669C65.6712 50.1141 65.5831 50.0635 65.4939 50.015C65.4046 49.9666 65.3142 49.9204 65.2227 49.8764C65.1313 49.8325 65.0388 49.7908 64.9453 49.7515C64.8517 49.7122 64.7573 49.6752 64.6621 49.6406C64.5668 49.6059 64.4707 49.5737 64.3738 49.5439C64.277 49.514 64.1795 49.4866 64.0813 49.4617C63.9831 49.4367 63.8844 49.4142 63.7851 49.3941C63.6859 49.3741 63.5862 49.3565 63.4861 49.3414C63.386 49.3263 63.2855 49.3138 63.1848 49.3037C63.0841 49.2936 62.9832 49.286 62.8821 49.281C62.781 49.276 62.6799 49.2734 62.5787 49.2734C62.4775 49.2734 62.3763 49.276 62.2752 49.281C62.1742 49.286 62.0732 49.2936 61.9725 49.3037C61.8718 49.3138 61.7714 49.3263 61.6713 49.3414C61.5712 49.3565 61.4715 49.3741 61.3722 49.3941C61.2729 49.4142 61.1742 49.4367 61.0761 49.4617C60.9779 49.4866 60.8804 49.514 60.7835 49.5439C60.6867 49.5737 60.5906 49.6059 60.4953 49.6406C60.4 49.6752 60.3056 49.7122 60.2121 49.7515C60.1186 49.7908 60.0261 49.8325 59.9346 49.8764C59.8431 49.9204 59.7528 49.9666 59.6635 50.015C59.5742 50.0635 59.4862 50.1141 59.3994 50.1669C59.3126 50.2198 59.2271 50.2748 59.143 50.3319C59.0588 50.389 58.9761 50.4481 58.8948 50.5094C58.8135 50.5706 58.7337 50.6338 58.6555 50.699C58.5773 50.7642 58.5007 50.8313 58.4257 50.9003C58.3507 50.9694 58.2774 51.0402 58.2058 51.1129C58.1343 51.1856 58.0645 51.26 57.9965 51.3361C57.9286 51.4123 57.8625 51.4901 57.7983 51.5696C57.7341 51.649 57.6718 51.73 57.6115 51.8126C57.5512 51.8951 57.493 51.9791 57.4367 52.0646C57.3805 52.1501 57.3264 52.2369 57.2744 52.325C57.2223 52.4132 57.1725 52.5026 57.1247 52.5932C57.077 52.6839 57.0315 52.7757 56.9883 52.8686C56.945 52.9615 56.904 53.0554 56.8653 53.1504C56.8265 53.2454 56.7901 53.3412 56.756 53.438C56.7219 53.5348 56.6902 53.6323 56.6608 53.7307C56.6314 53.829 56.6045 53.9281 56.5799 54.0278C56.5553 54.1275 56.5331 54.2277 56.5134 54.3285C56.4936 54.4293 56.4763 54.5306 56.4615 54.6322C56.4466 54.7339 56.4342 54.8359 56.4243 54.9382C56.4144 55.0405 56.4069 55.143 56.402 55.2456C56.397 55.3483 56.3945 55.451 56.3945 55.5538C56.3945 55.7011 56.3996 55.8482 56.4098 55.9952C56.42 56.1421 56.4353 56.2885 56.4556 56.4344C56.476 56.5803 56.5013 56.7252 56.5317 56.8693C56.5621 57.0133 56.5974 57.1561 56.6377 57.2976C56.678 57.4391 56.7231 57.5791 56.7731 57.7174C56.8231 57.8557 56.8778 57.992 56.9372 58.1264C56.9966 58.2608 57.0606 58.3929 57.1292 58.5227C57.1978 58.6525 57.2707 58.7797 57.3481 58.9043C57.4255 59.0289 57.5071 59.1506 57.593 59.2694C57.6788 59.3882 57.7686 59.5037 57.8624 59.6161C57.9563 59.7284 58.0539 59.8373 58.1552 59.9427C58.2566 60.0481 58.3615 60.1497 58.4699 60.2475C58.5784 60.3454 58.69 60.4393 58.8049 60.5292C58.9199 60.6191 59.0378 60.7048 59.1586 60.7863C59.2795 60.8677 59.403 60.9448 59.5292 61.0175C59.6554 61.0901 59.784 61.1581 59.9149 61.2216L57.1894 70.4478C56.7925 71.7912 57.7994 73.1386 59.2003 73.1386H62.6682H65.9571C67.3579 73.1386 68.3648 71.7912 67.968 70.4478L65.2425 61.2216Z" fill="white"/>
<path fill-rule="evenodd" clip-rule="evenodd" d="M65.2425 61.2216C65.3734 61.1581 65.502 61.0901 65.6282 61.0175C65.7544 60.9448 65.8779 60.8677 65.9988 60.7863C66.1196 60.7048 66.2375 60.6191 66.3524 60.5292C66.4673 60.4393 66.579 60.3454 66.6874 60.2475C66.7958 60.1497 66.9007 60.0481 67.0021 59.9427C67.1035 59.8373 67.2011 59.7284 67.2949 59.6161C67.3887 59.5037 67.4785 59.3882 67.5644 59.2694C67.6502 59.1506 67.7318 59.0289 67.8093 58.9043C67.8866 58.7797 67.9596 58.6525 68.0282 58.5227C68.0967 58.3929 68.1607 58.2608 68.2201 58.1264C68.2796 57.992 68.3343 57.8557 68.3843 57.7174C68.4343 57.5791 68.4794 57.4392 68.5196 57.2976C68.5599 57.1561 68.5952 57.0133 68.6256 56.8693C68.6561 56.7252 68.6814 56.5803 68.7018 56.4344C68.7221 56.2885 68.7374 56.1421 68.7476 55.9952C68.7578 55.8482 68.7629 55.7011 68.7629 55.5538C68.7629 55.451 68.7604 55.3483 68.7553 55.2456C68.7504 55.143 68.7429 55.0405 68.733 54.9382C68.7231 54.8359 68.7108 54.7339 68.6959 54.6322C68.6811 54.5306 68.6638 54.4293 68.644 54.3285C68.6243 54.2277 68.6021 54.1275 68.5775 54.0278C68.5529 53.9281 68.5259 53.829 68.4966 53.7307C68.4672 53.6323 68.4354 53.5348 68.4013 53.438C68.3672 53.3412 68.3308 53.2454 68.292 53.1504C68.2533 53.0554 68.2123 52.9615 68.1691 52.8686C68.1258 52.7757 68.0803 52.6839 68.0326 52.5932C67.9849 52.5026 67.935 52.4132 67.883 52.325C67.831 52.2369 67.7768 52.1501 67.7206 52.0646C67.6644 51.9791 67.6061 51.8951 67.5458 51.8126C67.4856 51.73 67.4233 51.649 67.3591 51.5696C67.2949 51.4901 67.2288 51.4123 67.1608 51.3361C67.0928 51.26 67.0231 51.1856 66.9516 51.1129C66.88 51.0402 66.8067 50.9694 66.7317 50.9003C66.6567 50.8313 66.5801 50.7642 66.5019 50.699C66.4236 50.6338 66.3439 50.5706 66.2626 50.5094C66.1813 50.4481 66.0986 50.389 66.0144 50.3319C65.9303 50.2748 65.8448 50.2198 65.758 50.1669C65.6712 50.1141 65.5831 50.0635 65.4939 50.015C65.4046 49.9666 65.3142 49.9204 65.2227 49.8764C65.1313 49.8325 65.0388 49.7908 64.9453 49.7515C64.8517 49.7122 64.7573 49.6752 64.6621 49.6406C64.5668 49.6059 64.4707 49.5737 64.3738 49.5439C64.277 49.514 64.1795 49.4866 64.0813 49.4617C63.9831 49.4367 63.8844 49.4142 63.7851 49.3941C63.6859 49.3741 63.5862 49.3565 63.4861 49.3414C63.386 49.3263 63.2855 49.3138 63.1848 49.3037C63.0841 49.2936 62.9832 49.286 62.8821 49.281C62.781 49.276 62.6799 49.2734 62.5787 49.2734C62.4775 49.2734 62.3763 49.276 62.2752 49.281C62.1742 49.286 62.0732 49.2936 61.9725 49.3037C61.8718 49.3138 61.7714 49.3263 61.6713 49.3414C61.5712 49.3565 61.4715 49.3741 61.3722 49.3941C61.2729 49.4142 61.1742 49.4367 61.0761 49.4617C60.9779 49.4866 60.8804 49.514 60.7835 49.5439C60.6867 49.5737 60.5906 49.6059 60.4953 49.6406C60.4 49.6752 60.3056 49.7122 60.2121 49.7515C60.1186 49.7908 60.0261 49.8325 59.9346 49.8764C59.8431 49.9204 59.7528 49.9666 59.6635 50.015C59.5742 50.0635 59.4862 50.1141 59.3994 50.1669C59.3126 50.2198 59.2271 50.2748 59.143 50.3319C59.0588 50.389 58.9761 50.4481 58.8948 50.5094C58.8135 50.5706 58.7337 50.6338 58.6555 50.699C58.5773 50.7642 58.5007 50.8313 58.4257 50.9003C58.3507 50.9694 58.2774 51.0402 58.2058 51.1129C58.1343 51.1856 58.0645 51.26 57.9965 51.3361C57.9286 51.4123 57.8625 51.4901 57.7983 51.5696C57.7341 51.649 57.6718 51.73 57.6115 51.8126C57.5512 51.8951 57.493 51.9791 57.4367 52.0646C57.3805 52.1501 57.3264 52.2369 57.2744 52.325C57.2223 52.4132 57.1725 52.5026 57.1247 52.5932C57.077 52.6839 57.0315 52.7757 56.9883 52.8686C56.945 52.9615 56.904 53.0554 56.8653 53.1504C56.8265 53.2454 56.7901 53.3412 56.756 53.438C56.7219 53.5348 56.6902 53.6323 56.6608 53.7307C56.6314 53.829 56.6045 53.9281 56.5799 54.0278C56.5553 54.1275 56.5331 54.2277 56.5134 54.3285C56.4936 54.4293 56.4763 54.5306 56.4615 54.6322C56.4466 54.7339 56.4342 54.8359 56.4243 54.9382C56.4144 55.0405 56.4069 55.143 56.402 55.2456C56.397 55.3483 56.3945 55.451 56.3945 55.5538C56.3945 55.7011 56.3996 55.8482 56.4098 55.9952C56.42 56.1421 56.4353 56.2885 56.4556 56.4344C56.476 56.5803 56.5013 56.7252 56.5317 56.8693C56.5621 57.0133 56.5974 57.1561 56.6377 57.2976C56.678 57.4392 56.7231 57.5791 56.7731 57.7174C56.8231 57.8557 56.8778 57.992 56.9372 58.1264C56.9966 58.2608 57.0606 58.3929 57.1292 58.5227C57.1978 58.6525 57.2707 58.7797 57.3481 58.9043C57.4255 59.0289 57.5071 59.1506 57.593 59.2694C57.6788 59.3882 57.7686 59.5037 57.8624 59.6161C57.9563 59.7284 58.0539 59.8373 58.1552 59.9427C58.2566 60.0481 58.3615 60.1497 58.4699 60.2475C58.5784 60.3454 58.69 60.4393 58.8049 60.5292C58.9199 60.6191 59.0378 60.7048 59.1586 60.7863C59.2795 60.8677 59.403 60.9448 59.5292 61.0175C59.6554 61.0901 59.784 61.1581 59.9149 61.2216L57.1894 70.4478C56.7925 71.7912 57.7994 73.1386 59.2003 73.1386H62.6682H65.9571C67.3579 73.1386 68.3648 71.7912 67.968 70.4478L65.2425 61.2216ZM66.9187 58.3512C66.3897 59.2028 65.6785 59.8452 64.7852 60.2782L63.9852 60.6659L66.9625 70.7448C67.0617 71.0807 67.0065 71.3888 66.7969 71.6694C66.5872 71.9499 66.3073 72.0902 65.9571 72.0902H62.6682H59.2003C58.8501 72.0902 58.5701 71.9499 58.3605 71.6694C58.1508 71.3888 58.0956 71.0807 58.1948 70.7448L61.1722 60.6659L60.3722 60.2782C59.4788 59.8452 58.7677 59.2028 58.2387 58.3512C57.7082 57.497 57.4429 56.5645 57.4429 55.5538C57.4429 54.1058 57.9462 52.8708 58.9528 51.8485C59.955 50.8307 61.1636 50.3218 62.5787 50.3218C63.9937 50.3218 65.2023 50.8307 66.2045 51.8485C67.2112 52.8708 67.7145 54.1058 67.7145 55.5538C67.7145 56.5645 67.4492 57.497 66.9187 58.3512Z" fill="#1E293B"/>
<path fill-rule="evenodd" clip-rule="evenodd" d="M63.3591 59.7037C63.4807 59.6838 63.6012 59.6587 63.7206 59.6283C63.84 59.5979 63.9578 59.5623 64.0741 59.5214C64.1903 59.4806 64.3046 59.4348 64.4168 59.3839C64.529 59.333 64.6387 59.2773 64.746 59.2168C64.8533 59.1562 64.9578 59.091 65.0593 59.0213C65.1609 58.9515 65.2592 58.8774 65.3542 58.799C65.4492 58.7206 65.5406 58.6381 65.6284 58.5517C65.7161 58.4652 65.7999 58.375 65.8797 58.2812C65.9596 58.1873 66.0351 58.0901 66.1063 57.9896C66.1776 57.8891 66.2443 57.7856 66.3064 57.6792C66.3685 57.5728 66.4259 57.4639 66.4784 57.3524C66.5309 57.241 66.5784 57.1274 66.6209 57.0118C66.6635 56.8962 66.7008 56.7789 66.733 56.6599C66.7652 56.541 66.7921 56.4209 66.8136 56.2996C66.8352 56.1783 66.8515 56.0563 66.8623 55.9336C66.8731 55.8108 66.8786 55.6878 66.8786 55.5646C66.8786 55.4273 66.8718 55.2903 66.8584 55.1536C66.8449 55.0169 66.8248 54.8812 66.798 54.7465C66.7712 54.6118 66.7378 54.4787 66.698 54.3473C66.6581 54.2159 66.6119 54.0867 66.5593 53.9598C66.5068 53.833 66.4481 53.7089 66.3834 53.5878C66.3186 53.4667 66.2481 53.349 66.1718 53.2348C66.0955 53.1206 66.0138 53.0105 65.9267 52.9043C65.8395 52.7981 65.7474 52.6965 65.6503 52.5994C65.5532 52.5022 65.4515 52.4101 65.3454 52.323C65.2392 52.2359 65.129 52.1541 65.0148 52.0778C64.9006 52.0015 64.783 51.931 64.6618 51.8663C64.5407 51.8015 64.4167 51.7429 64.2898 51.6903C64.1629 51.6377 64.0338 51.5915 63.9023 51.5517C63.7709 51.5118 63.6378 51.4785 63.5031 51.4517C63.3684 51.4249 63.2327 51.4048 63.096 51.3913C62.9594 51.3778 62.8223 51.3711 62.685 51.3711C62.5477 51.3711 62.4106 51.3778 62.274 51.3913C62.1373 51.4048 62.0016 51.4249 61.8669 51.4517C61.7322 51.4785 61.5991 51.5118 61.4677 51.5517C61.3363 51.5915 61.2071 51.6377 61.0802 51.6903C60.9533 51.7429 60.8293 51.8015 60.7082 51.8663C60.5871 51.931 60.4694 52.0015 60.3552 52.0778C60.241 52.1541 60.1308 52.2359 60.0246 52.323C59.9185 52.4101 59.8168 52.5022 59.7197 52.5994C59.6226 52.6965 59.5305 52.7981 59.4433 52.9043C59.3562 53.0105 59.2745 53.1206 59.1982 53.2348C59.1219 53.349 59.0514 53.4667 58.9866 53.5878C58.9219 53.7089 58.8632 53.833 58.8107 53.9598C58.7581 54.0867 58.7119 54.2159 58.672 54.3473C58.6322 54.4787 58.5988 54.6118 58.572 54.7465C58.5452 54.8812 58.5251 55.0169 58.5116 55.1536C58.4982 55.2903 58.4915 55.4273 58.4915 55.5646C58.4915 55.6821 58.4964 55.7994 58.5062 55.9164C58.5161 56.0335 58.5308 56.1499 58.5505 56.2657C58.5701 56.3815 58.5946 56.4963 58.6239 56.6101C58.6531 56.7238 58.6871 56.8362 58.7259 56.9471C58.7646 57.058 58.8079 57.1671 58.8558 57.2743C58.9037 57.3816 58.956 57.4867 59.0127 57.5895C59.0694 57.6924 59.1304 57.7927 59.1955 57.8904C59.2607 57.9882 59.3298 58.083 59.4029 58.175C59.476 58.2669 59.5529 58.3556 59.6335 58.4411C59.714 58.5266 59.7981 58.6085 59.8855 58.6869C59.973 58.7654 60.0636 58.84 60.1573 58.9108C60.251 58.9816 60.3476 59.0483 60.4469 59.111C60.5463 59.1737 60.6481 59.2321 60.7523 59.2863C60.8565 59.3404 60.9629 59.3901 61.0713 59.4353C61.1797 59.4805 61.2899 59.5211 61.4017 59.557C61.5135 59.5929 61.6267 59.6241 61.7411 59.6506L61.7411 60.3716C61.7411 60.4643 61.7289 60.5565 61.7046 60.6459L59.3685 69.2662C59.1878 69.9328 59.6898 70.5889 60.3803 70.5889H64.7199C65.4105 70.5889 65.9124 69.9328 65.7318 69.2662L63.3956 60.6459C63.3714 60.5565 63.3591 60.4643 63.3591 60.3716L63.3591 59.7037Z" fill="url(#paint3_linear_2758_37533)"/>
<path fill-rule="evenodd" clip-rule="evenodd" d="M82.4174 31.185L83.4792 31.0087L83.3933 30.4916L82.3315 30.6679L82.4174 31.185ZM86.6229 30.5456L88.6962 30.2885L88.6316 29.7683L86.5584 30.0254L86.6229 30.5456ZM33.6282 44.9612L34.62 44.5522L34.4201 44.0676L33.4284 44.4766L33.6282 44.9612ZM28.7948 47.0463L30.7424 46.1866L30.5306 45.707L28.5831 46.5668L28.7948 47.0463ZM91.8093 29.9753C92.5066 29.9151 93.2008 29.8619 93.892 29.8156L93.8569 29.2926C93.1623 29.3391 92.4647 29.3926 91.7641 29.4531L91.8093 29.9753ZM24.0596 49.2701L25.9344 48.3646L25.7064 47.8926L23.8316 48.798L24.0596 49.2701ZM97.0466 29.6526C97.7548 29.627 98.4571 29.6092 99.1534 29.5991L99.1458 29.0749C98.4459 29.0851 97.7398 29.103 97.0275 29.1288L97.0466 29.6526ZM19.3829 51.7091C19.9858 51.3748 20.6067 51.0393 21.2455 50.7027L21.0012 50.239C20.3591 50.5773 19.7349 50.9145 19.1288 51.2506L19.3829 51.7091ZM102.302 29.6073C103.007 29.6216 103.702 29.6443 104.388 29.6755L104.412 29.152C103.722 29.1205 103.022 29.0976 102.313 29.0832L102.302 29.6073ZM14.8855 54.3971C15.4533 54.0285 16.0441 53.6582 16.658 53.2864L16.3865 52.838C15.7679 53.2127 15.1724 53.5858 14.6 53.9574L14.8855 54.3971ZM107.53 29.8845C108.246 29.9481 108.947 30.0216 109.633 30.1051L109.696 29.5848C109.006 29.5005 108.299 29.4264 107.575 29.3624L107.53 29.8845ZM10.6466 57.4653C11.1635 57.0411 11.7128 56.6145 12.2947 56.1854L11.9835 55.7635C11.3944 56.198 10.8379 56.6302 10.3141 57.0601L10.6466 57.4653ZM112.738 30.5739C113.45 30.7042 114.136 30.8466 114.794 31.0009L114.913 30.4906C114.247 30.3343 113.553 30.1902 112.832 30.0583L112.738 30.5739ZM6.94964 61.1209C7.35747 60.6085 7.81719 60.0917 8.32878 59.5703L7.95463 59.2032C7.43034 59.7375 6.95864 60.2679 6.53951 60.7944L6.94964 61.1209ZM117.791 31.8538C118.488 32.0933 119.132 32.3488 119.723 32.6204L119.942 32.1442C119.335 31.8653 118.675 31.6033 117.961 31.3581L117.791 31.8538ZM4.67648 65.6601C4.79475 65.0267 5.00348 64.3844 5.30267 63.7331L4.82633 63.5143C4.50911 64.2049 4.2874 64.888 4.16119 65.5638L4.67648 65.6601ZM122.365 34.228C122.936 34.7069 123.37 35.2092 123.666 35.7349L124.123 35.4775C123.795 34.8965 123.321 34.3461 122.702 33.8263L122.365 34.228ZM5.7067 70.4581C5.29542 69.8946 4.99752 69.2973 4.81301 68.6661L4.30987 68.8132C4.51153 69.503 4.836 70.1543 5.28329 70.7672L5.7067 70.4581ZM124.182 38.6388C124.121 39.2752 123.963 39.933 123.708 40.6125L124.199 40.7967C124.47 40.074 124.639 39.3712 124.704 38.6885L124.182 38.6388ZM9.75901 73.5235C9.0935 73.2125 8.49054 72.8789 7.95014 72.5227L7.66163 72.9603C8.22331 73.3306 8.84846 73.6766 9.53709 73.9985L9.75901 73.5235ZM122.244 43.3291C121.873 43.8646 121.452 44.4077 120.98 44.9585L121.379 45.2995C121.862 44.7351 122.294 44.1777 122.675 43.6275L122.244 43.3291ZM14.6762 75.1522C13.9617 74.9867 13.2824 74.8059 12.6382 74.6099L12.4856 75.1114C13.1411 75.3109 13.8319 75.4947 14.5579 75.6629L14.6762 75.1522ZM118.81 47.2123C118.322 47.67 117.803 48.1306 117.252 48.5941L117.59 48.995C118.147 48.5256 118.673 48.0588 119.168 47.5946L118.81 47.2123ZM19.8215 76.011C19.1178 75.9316 18.4353 75.8413 17.7741 75.7403L17.6949 76.2585C18.3629 76.3605 19.0521 76.4517 19.7627 76.5319L19.8215 76.011ZM114.792 50.5333C114.239 50.943 113.663 51.3536 113.066 51.765L113.364 52.1964C113.966 51.7819 114.546 51.3679 115.104 50.9543L114.792 50.5333ZM25.0805 76.3895C24.3568 76.3637 23.6487 76.3288 22.9562 76.2847L22.9229 76.8078C23.6203 76.8522 24.3333 76.8874 25.0619 76.9134L25.0805 76.3895ZM110.432 53.4945C109.856 53.856 109.264 54.2168 108.658 54.5771L108.926 55.0277C109.536 54.6653 110.13 54.3023 110.71 53.9386L110.432 53.4945ZM30.3354 76.4215C29.6139 76.4367 28.9035 76.4442 28.2043 76.4441L28.2041 76.9683C28.907 76.9684 29.6211 76.9609 30.3464 76.9456L30.3354 76.4215ZM105.895 56.1561C105.3 56.484 104.692 56.8107 104.074 57.1362L104.318 57.6001C104.939 57.2731 105.549 56.9448 106.148 56.6152L105.895 56.1561ZM35.5774 76.1884L33.4595 76.311L33.4898 76.8343L35.6078 76.7116L35.5774 76.1884ZM101.245 58.5761L99.3677 59.4825L99.5957 59.9546L101.473 59.0482L101.245 58.5761ZM40.8129 75.7369L38.705 75.9429L38.7559 76.4646L40.8638 76.2587L40.8129 75.7369ZM96.4863 60.8059L94.5744 61.6427L94.7846 62.1228L96.6964 61.2862L96.4863 60.8059ZM46.0347 75.0977L43.9307 75.3767L43.9994 75.8963L46.1036 75.6174L46.0347 75.0977ZM91.6452 62.8659L89.7087 63.6384L89.9028 64.1252L91.8393 63.3528L91.6452 62.8659ZM51.2378 74.2912L49.1341 74.6367L49.219 75.154L51.3228 74.8084L51.2378 74.2912ZM86.7367 64.7714L84.7814 65.484L84.9608 65.9765L86.9162 65.2639L86.7367 64.7714ZM56.3985 73.3358L54.3146 73.7396L54.4144 74.2543L56.4982 73.8504L56.3985 73.3358ZM81.7925 66.5257L79.8003 67.1896L79.966 67.6869L81.9582 67.0231L81.7925 66.5257ZM61.5325 72.2392L59.4711 72.6967L59.5846 73.2084L61.646 72.7509L61.5325 72.2392ZM76.7982 68.1454L74.772 68.7614L74.9245 69.2629L76.9507 68.6469L76.7982 68.1454ZM66.6414 71.0076L64.6017 71.5159L64.7285 72.0245L66.7681 71.5162L66.6414 71.0076ZM71.7581 69.6355L69.7153 70.1999L69.855 70.7051L71.8977 70.1408L71.7581 69.6355Z" fill="#475F7D"/>
<defs>
<linearGradient id="paint0_linear_2758_37533" x1="95.1647" y1="9.43664" x2="40.1243" y2="88.0656" gradientUnits="userSpaceOnUse">
<stop offset="0.0571429" stop-color="#D8ECFF"/>
<stop offset="1" stop-color="#E2F7FF" stop-opacity="0.31"/>
</linearGradient>
<linearGradient id="paint1_linear_2758_37533" x1="63.2223" y1="9.43555" x2="63.2223" y2="38.7904" gradientUnits="userSpaceOnUse">
<stop stop-color="#3284FF"/>
<stop offset="1" stop-color="#34A4FF"/>
</linearGradient>
<linearGradient id="paint2_linear_2758_37533" x1="76.3326" y1="41.9355" x2="47.5173" y2="80.7259" gradientUnits="userSpaceOnUse">
<stop stop-color="#C8DCFF"/>
<stop offset="0.992857" stop-color="#EBF6FF"/>
</linearGradient>
<linearGradient id="paint3_linear_2758_37533" x1="62.685" y1="45.7247" x2="62.685" y2="70.5889" gradientUnits="userSpaceOnUse">
<stop stop-color="white"/>
<stop offset="1" stop-color="#59BFFF" stop-opacity="0.33"/>
</linearGradient>
</defs>
</svg>
