<svg xmlns="http://www.w3.org/2000/svg" xmlns:xlink="http://www.w3.org/1999/xlink" fill="none" version="1.1" width="16" height="16" viewBox="0 0 16 16"><defs><clipPath id="master_svg0_327_81483"><rect x="16" y="0" width="16" height="16" rx="0"/></clipPath></defs><g transform="matrix(-1,0,0,1,32,0)" clip-path="url(#master_svg0_327_81483)"><g><path d="M23.067283317184447,4.15017390625C23.114213317184447,4.038483906250001,23.20263331718445,3.94934390625,23.31394331718445,3.90150390625L23.314283317184447,3.90150390625L24.25428331718445,3.49717390625C24.28886331718445,3.4821539062499998,24.31124331718445,3.4480439062499997,24.31124331718445,3.41034390625C24.31124331718445,3.37263390625,24.28886331718445,3.33852390625,24.25428331718445,3.32350390625L23.31394331718445,2.91917390625C23.20228331718445,2.87117390625,23.11461331718445,2.78284390625,23.06694331718445,2.67050390625L22.665283317184446,1.72383930625C22.65066331718445,1.68909760625,22.616643317184447,1.66650390625,22.578943317184446,1.66650390625C22.54125331718445,1.66650390625,22.507233317184447,1.68909740625,22.49261331718445,1.72383930625L22.090943317184447,2.67050390625C22.043283317184446,2.78250390625,21.955613317184447,2.87117390625,21.843943317184447,2.91917390625L20.903613317184448,3.32350390625C20.85582331718445,3.34437390625,20.833913317184447,3.39997390625,20.854613317184448,3.44784390625C20.863543317184448,3.47027390625,20.88124331718445,3.48808390625,20.903613317184448,3.49717390625L21.84428331718445,3.90150390625C21.95558331718445,3.94934390625,22.044013317184447,4.038483906250001,22.090943317184447,4.15017390625L22.49261331718445,5.09684390625C22.507233317184447,5.13158390625,22.54125331718445,5.15417390625,22.578943317184446,5.15417390625C22.616643317184447,5.15417390625,22.65066331718445,5.13158390625,22.665283317184446,5.09684390625L23.067283317184447,4.15017390625ZM28.44843331718445,2.28785390625L26.751383317184448,3.98490390625C26.595173317184447,4.14111390625,26.595173317184447,4.39438390625,26.751383317184448,4.5505939062500005L28.308633317184448,6.10787390625C28.46483331718445,6.26408390625,28.718133317184446,6.26408390625,28.874333317184448,6.10787390625L30.57143331718445,4.4108139062500005C30.883833317184447,4.09839390625,30.883833317184447,3.59186390625,30.57143331718445,3.27944390625L29.57983331718445,2.28785290625C29.267433317184448,1.97543390625,28.76083331718445,1.97543390625,28.44843331718445,2.28785390625ZM18.09428031718445,6.56484390625L17.377279817184448,6.87317390625L17.377279717184447,6.87350390625C17.351230817184447,6.88504390625,17.33443331718445,6.91085390625,17.33443331718445,6.93934390625C17.33443331718445,6.96782390625,17.35123091718445,6.99363390625,17.377279717184447,7.00517390625L18.094279317184448,7.31384390625C18.17870631718445,7.35023390625,18.245818317184447,7.41782390625,18.281613317184448,7.50250390625L18.588283317184448,8.22450390625C18.60412331718445,8.260563906249999,18.646013317184448,8.27720390625,18.68228331718445,8.26183390625C18.698673317184447,8.254213906250001,18.711803317184447,8.24097390625,18.71928331718445,8.22450390625L19.02594331718445,7.50250390625C19.061743317184447,7.41782390625,19.128853317184447,7.35023390625,19.213283317184448,7.31384390625L19.93061331718445,7.00517390625C19.966313317184447,6.98880390625,19.982663317184446,6.94711390625,19.967613317184448,6.91084390625C19.960283317184448,6.89417390625,19.94694331718445,6.88084390625,19.93061331718445,6.87317390625L19.213283317184448,6.56450390625C19.12994331718445,6.52717390625,19.06161331718445,6.45984390625,19.02594331718445,6.37450390625L18.71928331718445,5.652503906250001C18.703433317184448,5.61662390625,18.661793317184447,5.60002390625,18.62561331718445,5.61517390625C18.609213317184448,5.62279390625,18.596093317184447,5.63604390625,18.58861331718445,5.652503906250001L18.28194631718445,6.37484390625C18.24627931718445,6.45984390625,18.17928031718445,6.52884390625,18.09428031718445,6.56484390625ZM25.64418331718445,5.74152390625L18.855963317184447,12.52970390625C18.777853317184448,12.60780390625,18.777853317184448,12.73450390625,18.855963317184447,12.81260390625L19.987333317184447,13.94390390625C20.06543331718445,14.02210390625,20.192073317184448,14.02210390625,20.270173317184447,13.94390390625L27.058393317184446,7.15573390625C27.13650331718445,7.07762390625,27.13650331718445,6.95099390625,27.058393317184446,6.87289390625L25.92702331718445,5.74152390625C25.84892331718445,5.66341390625,25.722293317184448,5.66341390625,25.64418331718445,5.74152390625ZM27.54123331718445,11.16750390625C27.47423331718445,11.32650390625,27.34923331718445,11.45217390625,27.191613317184448,11.51984390625L27.191613317184448,11.51950390625L25.870283317184448,12.08880390625C25.821673317184448,12.11040390625,25.790333317184448,12.15850390625,25.790333317184448,12.21170390625C25.790333317184448,12.26480390625,25.821673317184448,12.31300390625,25.870283317184448,12.33450390625L27.19128331718445,12.90350390625C27.34923331718445,12.97090390625,27.474733317184448,13.09720390625,27.54123331718445,13.25550390625L28.106633317184446,14.58550390625C28.135333317184447,14.65280390625,28.213033317184447,14.68440390625,28.280633317184446,14.65620390625C28.312133317184447,14.64240390625,28.33713331718445,14.61710390625,28.350633317184446,14.58550390625L28.915933317184447,13.25550390625C28.982933317184447,13.09680390625,29.107933317184447,12.97080390625,29.26563331718445,12.90350390625L30.586933317184446,12.33450390625C30.635533317184446,12.31300390625,30.666933317184448,12.26480390625,30.666933317184448,12.21170390625C30.666933317184448,12.15850390625,30.635533317184446,12.11040390625,30.586933317184446,12.08880390625L29.265933317184448,11.51950390625C29.107933317184447,11.45217390625,28.982933317184447,11.32650390625,28.915933317184447,11.16750390625L28.350633317184446,9.83750390625C28.321733317184446,9.77030390625,28.24413331718445,9.73891390625,28.176633317184447,9.76717390625C28.14513331718445,9.78082390625,28.120133317184447,9.80598390625,28.106633317184446,9.83750390625L27.54123331718445,11.16750390625Z" fill-rule="evenodd" fill="#FFFFFF" fill-opacity="1"/></g></g></svg>