<svg width="15" height="14" viewBox="0 0 15 14" fill="none" xmlns="http://www.w3.org/2000/svg">
<path d="M9.55078 0.583252L13.0508 4.08325V12.2502C13.0506 12.8944 12.528 13.4163 11.8838 13.4163H3.71777C3.07355 13.4163 2.55096 12.8944 2.55078 12.2502V1.75024C2.55078 1.10591 3.07344 0.583252 3.71777 0.583252H9.55078Z" fill="#F25788"/>
<mask id="mask0_622_18355" style="mask-type:luminance" maskUnits="userSpaceOnUse" x="2" y="0" width="12" height="14">
<path d="M9.55078 0.583252L13.0508 4.08325V12.2502C13.0506 12.8944 12.528 13.4163 11.8838 13.4163H3.71777C3.07355 13.4163 2.55096 12.8944 2.55078 12.2502V1.75024C2.55078 1.10591 3.07344 0.583252 3.71777 0.583252H9.55078Z" fill="white"/>
</mask>
<g mask="url(#mask0_622_18355)">
<path fill-rule="evenodd" clip-rule="evenodd" d="M9.55078 0.583252L13.0508 4.08325H10.7174C10.0731 4.08325 9.55078 3.56092 9.55078 2.91659V0.583252Z" fill="#FFADC5"/>
</g>
<g filter="url(#filter0_d_622_18355)">
<path d="M7.48926 5.25234C7.64952 5.25234 7.81375 5.33072 7.91211 5.45938C8.12338 5.74533 8.10519 6.34965 7.83203 7.23965C8.09067 7.71508 8.42963 8.14456 8.83398 8.50918C9.17265 8.44487 9.51486 8.39786 9.85352 8.39785C10.6184 8.41215 10.7313 8.76244 10.7168 8.96621C10.7168 9.50599 10.1814 9.50625 9.9082 9.50625C9.47112 9.47408 9.05236 9.31657 8.70996 9.03066C8.04697 9.17365 7.41608 9.38136 6.78223 9.63516C6.27962 10.5071 5.80955 10.9535 5.40527 10.9535C5.32521 10.9535 5.22659 10.939 5.16113 10.8891C4.983 10.8103 4.88477 10.6353 4.88477 10.4604C4.88479 10.3172 4.91848 9.92022 6.45508 9.26992C6.81199 8.63373 7.08473 7.98285 7.31055 7.3002C7.11742 6.91753 6.69536 5.9816 6.98633 5.50625C7.08467 5.33113 7.27802 5.23452 7.48926 5.25234ZM5.95605 10.0355C5.71572 10.1285 5.51874 10.2854 5.37305 10.4926L5.4209 10.4789C5.6465 10.4002 5.825 10.2391 5.95605 10.0355ZM7.62402 8.06191L7.60938 8.04824C7.46372 8.41267 7.3034 8.77721 7.125 9.12734L7.1582 9.1127V9.14492C7.51496 9.01634 7.90105 8.90615 8.25781 8.82754L8.24414 8.81289H8.29102C8.04339 8.5699 7.81714 8.30127 7.63867 8.02969L7.62402 8.06191ZM9.84277 8.87344C9.69712 8.87344 9.56557 8.87352 9.41992 8.90566C9.57998 8.98414 9.74424 9.0167 9.9043 9.03457C10.017 9.0488 10.1303 9.0344 10.2285 9.00234C10.2285 8.95231 10.1668 8.87347 9.84277 8.87344ZM7.47852 5.72793C7.46387 5.72793 7.43124 5.72833 7.41309 5.74258C7.34772 6.01409 7.39887 6.30047 7.51172 6.5541C7.60638 6.28257 7.60639 5.99591 7.52637 5.72793H7.47852Z" fill="white"/>
</g>
<defs>
<filter id="filter0_d_622_18355" x="4.88477" y="5.25024" width="5.83398" height="6.2867" filterUnits="userSpaceOnUse" color-interpolation-filters="sRGB">
<feFlood flood-opacity="0" result="BackgroundImageFix"/>
<feColorMatrix in="SourceAlpha" type="matrix" values="0 0 0 0 0 0 0 0 0 0 0 0 0 0 0 0 0 0 127 0" result="hardAlpha"/>
<feOffset dy="0.583333"/>
<feColorMatrix type="matrix" values="0 0 0 0 0.6 0 0 0 0 0.0588235 0 0 0 0 0.27451 0 0 0 0.3 0"/>
<feBlend mode="normal" in2="BackgroundImageFix" result="effect1_dropShadow_622_18355"/>
<feBlend mode="normal" in="SourceGraphic" in2="effect1_dropShadow_622_18355" result="shape"/>
</filter>
</defs>
</svg>
