<svg xmlns="http://www.w3.org/2000/svg" xmlns:xlink="http://www.w3.org/1999/xlink" fill="none" version="1.1" width="20" height="20" viewBox="0 0 20 20"><defs><clipPath id="master_svg0_314_10114"><rect x="2.7272727489471436" y="2.7272727489471436" width="14.545454978942871" height="14.545454978942871" rx="0"/></clipPath></defs><g><g><rect x="0" y="0" width="20" height="20" rx="4" fill="#F6E7FF" fill-opacity="1"/></g><g><g clip-path="url(#master_svg0_314_10114)"><g><path d="M12.428522612228393,11.692974467697145Q12.428522612228393,11.854054467697143,12.412732612228393,12.014344467697143Q12.396942612228393,12.174644467697144,12.365522612228393,12.332614467697145Q12.334092612228392,12.490594467697143,12.287342612228393,12.644734467697145Q12.240582612228394,12.798864467697143,12.178942612228393,12.947674467697144Q12.117302612228393,13.096494467697145,12.041372612228393,13.238544467697142Q11.965442612228394,13.380594467697144,11.875962612228394,13.514524467697143Q11.786472612228394,13.648444467697143,11.684292612228393,13.772954467697144Q11.582102612228393,13.897464467697144,11.468212612228394,14.011364467697144Q11.354312612228394,14.125264467697143,11.229802612228394,14.227444467697143Q11.105292612228393,14.329624467697144,10.971372612228393,14.419114467697144Q10.837442612228394,14.508594467697144,10.695392612228392,14.584524467697143Q10.553342612228395,14.660454467697143,10.404522612228394,14.722094467697143Q10.255712612228393,14.783734467697144,10.101582612228395,14.830494467697143Q9.947442612228393,14.877244467697142,9.789462612228395,14.908674467697143Q9.631492612228394,14.940094467697143,9.471192612228393,14.955884467697143Q9.310902612228393,14.971674467697143,9.149822612228395,14.971674467697143Q8.988752612228394,14.971674467697143,8.828462612228392,14.955884467697143Q8.668162612228393,14.940094467697143,8.510182612228395,14.908674467697143Q8.352212612228394,14.877244467697142,8.198072612228394,14.830494467697143Q8.043932612228394,14.783734467697144,7.895122612228393,14.722094467697143Q7.746312612228394,14.660454467697143,7.604262612228394,14.584524467697143Q7.462212612228393,14.508594467697144,7.328282612228394,14.419114467697144Q7.194352612228394,14.329624467697144,7.069842612228394,14.227444467697143Q6.945332612228394,14.125264467697143,6.831439612228394,14.011364467697144Q6.7175446122283935,13.897464467697144,6.615361612228393,13.772964467697143Q6.513178612228393,13.648444467697143,6.423691612228394,13.514524467697143Q6.334205612228393,13.380594467697144,6.258276612228394,13.238544467697142Q6.182347612228393,13.096494467697145,6.120708612228394,12.947674467697144Q6.059068612228393,12.798864467697143,6.012311612228394,12.644734467697145Q5.9655553122283935,12.490594467697143,5.934131812228394,12.332614467697145Q5.902708212228394,12.174644467697144,5.886920412228394,12.014344467697143Q5.8711326122283936,11.854054467697143,5.8711326122283936,11.692974467697145Q5.8711326122283936,11.531904467697144,5.886920412228394,11.371614467697142Q5.902708212228394,11.211314467697143,5.934131812228394,11.053334467697145Q5.9655553122283935,10.895364467697144,6.012311612228394,10.741224467697144Q6.059068612228393,10.587084467697144,6.120708612228394,10.438274467697143Q6.182347612228393,10.289464467697144,6.258276612228394,10.147414467697143Q6.334205612228393,10.005364467697143,6.423691612228394,9.871434467697144Q6.513178612228393,9.737504467697143,6.615361612228393,9.612994467697144Q6.7175446122283935,9.488484467697143,6.831439612228394,9.374591467697144Q6.945332612228394,9.260696467697144,7.069842612228394,9.158513467697144Q7.194352612228394,9.056330467697144,7.328282612228394,8.966843467697144Q7.462212612228393,8.877357467697143,7.604262612228394,8.801428467697143Q7.746312612228394,8.725499467697144,7.895122612228393,8.663860467697143Q8.043932612228394,8.602220467697144,8.198072612228394,8.555463467697143Q8.352212612228394,8.508707167697144,8.510182612228395,8.477283667697144Q8.668162612228393,8.445860067697144,8.828462612228392,8.430072267697144Q8.988752612228394,8.414284467697144,9.149822612228395,8.414284467697144Q9.310902612228393,8.414284467697144,9.471192612228393,8.430072267697144Q9.631492612228394,8.445860067697144,9.789462612228395,8.477283667697144Q9.947442612228393,8.508707167697144,10.101582612228395,8.555463467697143Q10.255712612228393,8.602220467697144,10.404522612228394,8.663860467697143Q10.553342612228395,8.725499467697144,10.695392612228392,8.801428467697143Q10.837442612228394,8.877357467697143,10.971372612228393,8.966843467697144Q11.105292612228393,9.056330467697144,11.229802612228394,9.158513467697144Q11.354312612228394,9.260696467697144,11.468212612228394,9.374591467697144Q11.582102612228393,9.488484467697143,11.684292612228393,9.612994467697144Q11.786472612228394,9.737504467697143,11.875962612228394,9.871434467697144Q11.965442612228394,10.005364467697143,12.041372612228393,10.147414467697143Q12.117302612228393,10.289464467697144,12.178942612228393,10.438274467697143Q12.240582612228394,10.587084467697144,12.287342612228393,10.741224467697144Q12.334092612228392,10.895364467697144,12.365522612228393,11.053334467697145Q12.396942612228393,11.211314467697143,12.412732612228393,11.371614467697142Q12.428522612228393,11.531904467697144,12.428522612228393,11.692974467697145Z" fill="#854AFF" fill-opacity="1"/></g><g><path d="M11.591017866134644,5.0282981395721436Q12.428517866134644,5.0282981395721436,12.428517866134644,5.865798139572144L12.428517866134644,11.657138139572144Q12.428517866134644,12.494638139572142,11.591017866134644,12.494638139572142Q10.753517866134644,12.494638139572142,10.753517866134644,11.657138139572144L10.753517866134644,5.865798139572144Q10.753517866134644,5.0282981395721436,11.591017866134644,5.0282981395721436Z" fill="#E0AAFF" fill-opacity="1"/></g><g><path d="M10.753517866134644,8.832497358322144L10.753517866134644,11.657067358322143C10.753517866134644,12.119927358322144,11.128733866134644,12.495137358322143,11.591585866134643,12.495137358322143C12.049597866134643,12.494797358322144,12.422497866134643,12.126827358322144,12.428947866134644,11.668857358322143C12.420717866134643,10.491037358322144,11.781097866134644,9.408201358322144,10.753517866134644,8.832497358322144Z" fill="#6D38DE" fill-opacity="1"/></g><g><path d="M11.000545600509643,5.273862030197144Q11.592747600509643,4.681660030197143,12.184945600509643,5.273862030197144L13.983355600509643,7.072261030197144Q14.575555600509643,7.664461030197144,13.983355600509643,8.256671030197143Q13.391145600509644,8.848871030197143,12.798945600509644,8.256671030197143L11.000546600509644,6.458261030197144Q10.408344600509643,5.866064030197143,11.000545600509643,5.273862030197144Z" fill="#E0AAFF" fill-opacity="1"/></g></g></g></g></svg>