<svg xmlns="http://www.w3.org/2000/svg" xmlns:xlink="http://www.w3.org/1999/xlink" fill="none" version="1.1" width="20" height="20" viewBox="0 0 20 20"><defs><clipPath id="master_svg0_314_10135"><rect x="2.7272727489471436" y="2.7272727489471436" width="14.545454978942871" height="14.545454978942871" rx="0"/></clipPath></defs><g><g><rect x="0" y="0" width="20" height="20" rx="4" fill="#EEF6FF" fill-opacity="1"/></g><g clip-path="url(#master_svg0_314_10135)"><g><path d="M8.529588686447143,7.443851264572143L4.784697486447143,13.793996264572144C4.7181374864471435,13.906856264572143,4.717197186447144,14.046746264572143,4.7822340864471435,14.160486264572143C4.8472706864471435,14.274236264572144,4.968299686447144,14.344386264572144,5.099328686447143,14.344276264572144L12.588818686447144,14.344276264572144C12.719798686447144,14.344286264572144,12.840728686447143,14.274096264572144,12.905698686447144,14.160366264572144C12.970668686447144,14.046636264572143,12.969698686447144,13.906816264572143,12.903158686447144,13.793996264572144L9.158278686447144,7.444562264572143C9.017378686447143,7.204962164572144,8.671028686447144,7.204570964572143,8.529588686447143,7.443851264572143Z" fill="#1C95FF" fill-opacity="1"/></g><g><path d="M12.632515873947144,10.481917373947143L10.716178773947144,13.799108373947144C10.575689673947144,14.042438373947144,10.751251773947143,14.346618373947145,11.032229873947143,14.346688373947144L14.864895873947145,14.346688373947144C14.995315873947144,14.346688373947144,15.115825873947143,14.277098373947144,15.180995873947143,14.164128373947143C15.246165873947144,14.051158373947143,15.246095873947144,13.912008373947144,15.180805873947143,13.799108373947144L13.264475873947143,10.481917373947143C13.123995873947143,10.238745173947143,12.772985873947142,10.238745173947143,12.632515873947144,10.481917373947143Z" fill="#3BDBFF" fill-opacity="1"/></g><g><path d="M12.903330014572143,13.796290795822143L11.800060014572143,11.925270795822144L10.716252614572143,13.801260795822143C10.584306814572143,14.029770795822143,10.731020814572144,14.318460795822144,10.993383014572144,14.346580795822144L12.588980014572144,14.346580795822144C12.719960014572143,14.346580795822144,12.840890014572143,14.276400795822143,12.905860014572143,14.162670795822144C12.970830014572144,14.048940795822144,12.969860014572143,13.909110795822144,12.903330014572143,13.796290795822143Z" fill="#0F6AFF" fill-opacity="1"/></g><g><path d="M13.735777827072143,7.528520358322144Q13.735777827072143,7.612461358322143,13.719397827072143,7.694787358322143Q13.703017827072143,7.777117358322144,13.670897827072144,7.854667358322144Q13.638777827072143,7.932227358322144,13.592137827072143,8.002017358322144Q13.545507827072143,8.071807358322143,13.486147827072143,8.131167358322143Q13.426787827072143,8.190527358322143,13.356997827072144,8.237157358322143Q13.287207827072145,8.283797358322143,13.209647827072143,8.315917358322144Q13.132097827072144,8.348037358322143,13.049767827072143,8.364417358322143Q12.967441827072143,8.380797358322143,12.883500827072144,8.380797358322143Q12.799558827072143,8.380797358322143,12.717230827072143,8.364417358322143Q12.634901827072143,8.348037358322143,12.557349827072144,8.315917358322144Q12.479797827072144,8.283797358322143,12.410002827072143,8.237157358322143Q12.340208827072143,8.190527358322143,12.280852827072144,8.131167358322143Q12.221496827072144,8.071807358322143,12.174861827072144,8.002017358322144Q12.128226227072144,7.932227358322144,12.096103227072144,7.854667358322144Q12.063980227072143,7.777117358322144,12.047604027072143,7.694787358322143Q12.031227827072144,7.612461358322143,12.031227827072144,7.528520358322144Q12.031227827072144,7.444578358322143,12.047604027072143,7.362250358322144Q12.063980227072143,7.279921358322143,12.096103227072144,7.2023693583221435Q12.128226227072144,7.124817358322144,12.174861827072144,7.055022358322144Q12.221496827072144,6.985228358322144,12.280852827072144,6.9258723583221435Q12.340208827072143,6.866516358322143,12.410002827072143,6.819881358322143Q12.479797827072144,6.773245758322144,12.557349827072144,6.741122758322144Q12.634901827072143,6.708999758322143,12.717230827072143,6.692623558322143Q12.799558827072143,6.6762473583221436,12.883500827072144,6.6762473583221436Q12.967441827072143,6.6762473583221436,13.049767827072143,6.692623558322143Q13.132097827072144,6.708999758322143,13.209647827072143,6.741122758322144Q13.287207827072145,6.773245758322144,13.356997827072144,6.819881358322143Q13.426787827072143,6.866516358322143,13.486147827072143,6.9258723583221435Q13.545507827072143,6.985228358322144,13.592137827072143,7.055022358322144Q13.638777827072143,7.124817358322144,13.670897827072144,7.2023693583221435Q13.703017827072143,7.279921358322143,13.719397827072143,7.362250358322144Q13.735777827072143,7.444578358322143,13.735777827072143,7.528520358322144Z" fill="#3BDBFF" fill-opacity="1"/></g></g></g></svg>