<svg width="16px" height="16px" viewBox="0 0 16 16" version="1.1" xmlns="http://www.w3.org/2000/svg" xmlns:xlink="http://www.w3.org/1999/xlink">
    <title>模版</title>
    <g id="Appforge-MVP-智能体&amp;知识库-0423" stroke="none" stroke-width="1" fill="none" fill-rule="evenodd">
        <g id="智能体" transform="translate(-458.000000, -4640.000000)" fill="#007DFA" fill-rule="nonzero">
            <g id="智能体列表页备份-3" transform="translate(40.000000, 4360.000000)">
                <g id="左侧" transform="translate(0.000000, 108.000000)">
                    <g id="编组-2" transform="translate(0.000000, 24.000000)">
                        <g id="编组-39" transform="translate(0.000000, 135.000000)">
                            <g id="编组-8" transform="translate(416.000000, 11.000000)">
                                <g id="模版" transform="translate(2.000000, 2.000000)">
                                    <path d="M6.60387812,13.099809 C6.71362617,12.946673 6.81176626,12.7862942 6.89829838,12.6186724 C6.9848305,12.4510506 7.05764411,12.2782553 7.11673922,12.1002865 L13.9928769,12.1002865 C14.3052368,12.1002865 14.5479488,12.0175103 14.7210131,11.851958 C14.8940773,11.6864056 14.9806094,11.4422159 14.9806094,11.1193887 L14.9806094,4.85530086 C14.9806094,4.53247373 14.8940773,4.28828399 14.7210131,4.12273161 C14.5479488,3.95717924 14.3052368,3.87440306 13.9928769,3.87440306 L4.73605065,3.87440306 C4.41946973,3.87440306 4.17675768,3.95717924 4.00791452,4.12273161 C3.83907136,4.28828399 3.75464978,4.53247373 3.75464978,4.85530086 L3.75464978,6.86676218 C3.6702282,6.85848456 3.58475135,6.85124164 3.49821923,6.84503343 C3.41168711,6.83882521 3.32621026,6.83572111 3.24178868,6.83572111 C3.1573671,6.83572111 3.07294552,6.83882521 2.98852394,6.84503343 C2.90410236,6.85124164 2.81968078,6.85848456 2.7352592,6.86676218 L2.7352592,4.79942693 C2.7352592,4.15791149 2.90093655,3.67677491 3.23229125,3.35601719 C3.56364596,3.03525947 4.06067801,2.87488061 4.72338742,2.87488061 L14.0118718,2.87488061 C14.6703601,2.87488061 15.1663369,3.03629417 15.4998021,3.3591213 C15.8332674,3.68194842 16,4.1620503 16,4.79942693 L16,11.1752627 C16,11.8126393 15.8332674,12.2927412 15.4998021,12.6155683 C15.1663369,12.9383954 14.6703601,13.099809 14.0118718,13.099809 L6.60387812,13.099809 Z M4.07123071,1.87535817 C4.11766258,1.59391913 4.21685793,1.37766635 4.36881678,1.22659981 C4.52077562,1.07553327 4.75504551,1 5.07162643,1 L13.6699644,1 C13.9865453,1 14.2197599,1.07553327 14.3696082,1.22659981 C14.5194565,1.37766635 14.6197072,1.59391913 14.6703601,1.87535817 L4.07123071,1.87535817 Z M3.21646221,14 C2.77746999,14 2.36380425,13.9182585 1.97546498,13.7547755 C1.58712571,13.5912926 1.24521831,13.3646928 0.949742778,13.0749761 C0.654267247,12.7852595 0.422107901,12.4500159 0.253264741,12.0692455 C0.0844215803,11.688475 0,11.2808023 0,10.8462273 C0,10.4116523 0.0844215803,10.0050143 0.253264741,9.62631328 C0.422107901,9.24761223 0.654267247,8.91236867 0.949742778,8.62058262 C1.24521831,8.32879656 1.58712571,8.10116205 1.97546498,7.93767908 C2.36380425,7.77419612 2.77746999,7.69245463 3.21646221,7.69245463 C3.6596755,7.69245463 4.07545179,7.77419612 4.46379106,7.93767908 C4.85213033,8.10116205 5.19403773,8.32776186 5.48951326,8.61747851 C5.78498879,8.90719516 6.01609286,9.24243871 6.18282548,9.62320917 C6.34955811,10.0039796 6.43292442,10.4116523 6.43292442,10.8462273 C6.43292442,11.2766635 6.34850284,11.6822668 6.17965968,12.0630372 C6.01081651,12.4438077 5.7776019,12.7790513 5.48001583,13.0687679 C5.18242976,13.3584846 4.83946709,13.5861191 4.45112782,13.7516714 C4.06278855,13.9172238 3.65123335,14 3.21646221,14 Z M3.21646221,12.8204394 C3.33465242,12.8204394 3.42857143,12.7852595 3.49821923,12.7148997 C3.56786704,12.64454 3.60269094,12.5534862 3.60269094,12.4417383 L3.60269094,11.2249284 L4.84368817,11.2249284 C4.9576573,11.2249284 5.05052104,11.1907832 5.12227938,11.1224928 C5.19403773,11.0542025 5.2299169,10.962114 5.2299169,10.8462273 C5.2299169,10.7303407 5.19403773,10.6382521 5.12227938,10.5699618 C5.05052104,10.5016714 4.9576573,10.4675263 4.84368817,10.4675263 L3.60269094,10.4675263 L3.60269094,9.25071633 C3.60269094,9.13896848 3.56786704,9.04791468 3.49821923,8.97755492 C3.42857143,8.90719516 3.33465242,8.87201528 3.21646221,8.87201528 C3.098272,8.87201528 3.00435299,8.90719516 2.93470518,8.97755492 C2.86505738,9.04791468 2.83023348,9.13896848 2.83023348,9.25071633 L2.83023348,10.4675263 L1.58923625,10.4675263 C1.47526712,10.4675263 1.38240338,10.5016714 1.31064503,10.5699618 C1.23888669,10.6382521 1.20300752,10.7303407 1.20300752,10.8462273 C1.20300752,10.962114 1.23888669,11.0542025 1.31064503,11.1224928 C1.38240338,11.1907832 1.47526712,11.2249284 1.58923625,11.2249284 L2.83023348,11.2249284 L2.83023348,12.4417383 C2.83023348,12.5534862 2.86505738,12.64454 2.93470518,12.7148997 C3.00435299,12.7852595 3.098272,12.8204394 3.21646221,12.8204394 Z" id="形状"></path>
                                </g>
                            </g>
                        </g>
                    </g>
                </g>
            </g>
        </g>
    </g>
</svg>