<svg xmlns="http://www.w3.org/2000/svg" class="arco-icon" style="stroke:none;fill:currentColor;"
    xmlns:xlink="http://www.w3.org/1999/xlink" fill="none" version="1.1" width="1em" height="1em"
    viewBox="0 0 22 22.30078125">
    <g>
        <g>
            <rect x="0" y="0" width="48" height="48" rx="0" fill-opacity="0" />
        </g>
        <g>
            <g>
                <path
                    d="M2.75,18.11871220703125L2.75,6.96876220703125C2.75,6.19901520703125,3.365608,5.57501220703125,4.125,5.57501220703125L15.125,5.57501220703125C15.8844,5.57501220703125,16.5,6.19901520703125,16.5,6.96876220703125L16.5,18.11871220703125C16.5,18.888512207031248,15.8844,19.51251220703125,15.125,19.51251220703125L4.125,19.51251220703125C3.365608,19.51251220703125,2.75,18.888512207031248,2.75,18.11871220703125ZM4.125,18.11871220703125L15.125,18.11871220703125L15.125,6.96876220703125L4.125,6.96876220703125L4.125,18.11871220703125Z"
                    fill-rule="evenodd" fill-opacity="1" />
            </g>
            <g>
                <path
                    d="M5.5,5.575006103515625L5.5,4.181256103515625C5.5,3.411509103515625,6.115608,2.787506103515625,6.875,2.787506103515625L17.875,2.787506103515625C18.6344,2.787506103515625,19.25,3.411509103515625,19.25,4.181256103515625L19.25,15.331206103515624C19.25,16.101006103515623,18.6344,16.725006103515625,17.875,16.725006103515625L16.5,16.725006103515625L16.5,15.331206103515624L17.875,15.331206103515624L17.875,4.181256103515625L6.875,4.181256103515625L6.875,5.575006103515625L5.5,5.575006103515625Z"
                    fill-rule="evenodd" fill-opacity="1" />
            </g>
            <g>
                <path
                    d="M16.5,15.331206103515624L17.875,15.331206103515624L17.875,4.181256103515625L6.875,4.181256103515625L6.875,5.575006103515625L5.5,5.575006103515625L5.5,4.181256103515625C5.5,3.411509103515625,6.115608,2.787506103515625,6.875,2.787506103515625L17.875,2.787506103515625C18.6344,2.787506103515625,19.25,3.411509103515625,19.25,4.181256103515625L19.25,15.331206103515624C19.25,16.101006103515623,18.6344,16.725006103515625,17.875,16.725006103515625L16.5,16.725006103515625L16.5,15.331206103515624ZM6.416667,3.716673103515625L6.416667,5.110426103515625L5.958333,5.110426103515625L5.958333,4.181256103515625Q5.958333,3.796386103515625,6.226819,3.524236103515625Q6.495304,3.252089103515625,6.875,3.252089103515625L17.875,3.252089103515625Q18.2547,3.252089103515625,18.5232,3.524236103515625Q18.7917,3.796386103515625,18.7917,4.181256103515625L18.7917,15.331206103515624Q18.7917,15.716106103515624,18.5232,15.988306103515624Q18.2547,16.260406103515624,17.875,16.260406103515624L16.9583,16.260406103515624L16.9583,15.795806103515625L18.3333,15.795806103515625L18.3333,3.716673103515625L6.416667,3.716673103515625Z"
                    fill-rule="evenodd" fill-opacity="1" />
            </g>
            <g>
                <path
                    d="M6.4166259765625,9.291668701171876C6.4166259765625,10.831158701171875,7.6478459765625,12.079168701171875,9.1666259765625,12.079168701171875L10.0832959765625,12.079168701171875C11.6020759765625,12.079168701171875,12.8332959765625,10.831158701171875,12.8332959765625,9.291668701171876L12.8332959765625,7.897918701171875L11.4582959765625,7.897918701171875Q11.6052659765625,9.728248701171875,10.809615976562501,10.384698701171875Q10.3646759765625,10.751798701171875,9.6249559765625,10.751798701171875Q8.8852359765625,10.751798701171875,8.4403059765625,10.384698701171875Q7.6446459765625,9.728248701171875,7.7916259765625,7.897918701171875L6.4166259765625,7.897918701171875L6.4166259765625,9.291668701171876Z"
                    fill-opacity="1" />
            </g>
        </g>
    </g>
</svg>