<svg width="40" height="40" viewBox="0 0 40 40" fill="none" xmlns="http://www.w3.org/2000/svg">
<path d="M26.001 7.90039C26.6081 7.90039 27.1016 8.39662 27.1016 9.00098C27.1015 9.60807 26.6053 10.1016 26.001 10.1016H21.1006V11.9639C26.1594 12.5107 30.0996 16.7946 30.0996 22.001C30.0994 27.5782 25.5776 32.0996 20 32.0996C14.4224 32.0996 9.90059 27.5782 9.90039 22.001C9.90039 16.7946 13.8383 12.5131 18.8994 11.9639V10.1016H13.999C13.3919 10.1016 12.8985 9.60531 12.8984 9.00098C12.8984 8.39386 13.3946 7.90039 13.999 7.90039H26.001ZM20 14.1006C15.6436 14.1006 12.0996 17.6449 12.0996 22.001C12.0998 26.3569 15.6437 29.9004 20 29.9004C24.3563 29.9004 27.9002 26.3569 27.9004 22.001C27.9004 17.6449 24.3564 14.1006 20 14.1006Z" fill="#4073F5" stroke="#4073F5" stroke-width="0.2"/>
<path d="M19.8809 16.9004C20.4218 16.9004 20.8613 17.3424 20.8613 17.8809V21.876L24.3066 25.3213C24.687 25.7019 24.6869 26.3254 24.3066 26.7061C23.926 27.0867 23.3016 27.0867 22.9209 26.7061L19.1875 22.9727V22.9717C19.1041 22.8903 19.0455 22.7971 19 22.7031C18.9944 22.6938 18.9832 22.6763 18.9756 22.6572L18.9766 22.6562C18.9593 22.6139 18.9465 22.5646 18.9385 22.5371L18.9395 22.5361C18.9343 22.521 18.9252 22.4984 18.9199 22.4746L18.918 22.4688L18.9189 22.4678L18.9033 22.3105C18.9024 22.3063 18.9004 22.2952 18.9004 22.2812V17.8809C18.9004 17.3401 19.3401 16.9004 19.8809 16.9004Z" fill="#4073F5" stroke="#4073F5" stroke-width="0.2"/>
</svg>
