<svg xmlns="http://www.w3.org/2000/svg" xmlns:xlink="http://www.w3.org/1999/xlink" fill="none" version="1.1" width="16" height="16" viewBox="0 0 16 16"><defs><clipPath id="master_svg0_327_007597/314_25401"><rect x="0" y="0" width="16" height="16" rx="0"/></clipPath></defs><g><g clip-path="url(#master_svg0_327_007597/314_25401)"><g><path d="M8.000003373069763,1.3333333730697632C4.318103373069763,1.3333333730697632,1.3333333730697632,4.318103373069763,1.3333333730697632,8.000003373069763C1.3333333730697632,11.681933373069763,4.318103373069763,14.666633373069763,8.000003373069763,14.666633373069763C11.681933373069763,14.666633373069763,14.666633373069763,11.681933373069763,14.666633373069763,8.000003373069763C14.666633373069763,4.318103373069763,11.681933373069763,1.3333333730697632,8.000003373069763,1.3333333730697632ZM2.6666633730697633,8.000003373069763C2.6666633730697633,5.054463373069764,5.054463373069764,2.6666633730697633,8.000003373069763,2.6666633730697633C10.945533373069763,2.6666633730697633,13.333333373069763,5.054463373069764,13.333333373069763,8.000003373069763C13.333333373069763,10.945533373069763,10.945533373069763,13.333333373069763,8.000003373069763,13.333333373069763C5.054463373069764,13.333333373069763,2.6666633730697633,10.945533373069763,2.6666633730697633,8.000003373069763ZM7.512203373069763,4.511633373069763L5.138183373069763,6.885663373069764C5.013163373069763,7.010683373069763,4.942873373069763,7.180203373069763,4.942873373069763,7.357013373069763C4.942873373069763,7.5338233730697635,5.013163373069763,7.703423373069763,5.138183373069763,7.828453373069763C5.263203373069763,7.953473373069763,5.432723373069763,8.023683373069762,5.609533373069763,8.023683373069762C5.786353373069764,8.023683373069762,5.955863373069763,7.953473373069763,6.080893373069763,7.828453373069763L7.333333373069763,6.576013373069763L7.333333373069763,11.000003373069763C7.333333373069763,11.368233373069764,7.631813373069763,11.666633373069763,8.000003373069763,11.666633373069763C8.368193373069763,11.666633373069763,8.666663373069763,11.368233373069764,8.666663373069763,11.000003373069763L8.666663373069763,6.609453373069763L9.885583373069764,7.8283733730697636C10.145913373069764,8.088693373069763,10.567963373069762,8.088693373069763,10.828293373069764,7.8283733730697636C10.953303373069764,7.703353373069763,11.023603373069763,7.533813373069763,11.023603373069763,7.357013373069763C11.023603373069763,7.180213373069763,10.953303373069764,7.010673373069763,10.828293373069764,6.885663373069764L8.472163373069762,4.529463373069763C8.466553373069763,4.523403373069764,8.460753373069764,4.517473373069763,8.454913373069763,4.511633373069763C8.329893373069762,4.386613373069763,8.160373373069763,4.316323373069763,7.983563373069763,4.316323373069763C7.806753373069763,4.316323373069763,7.637233373069763,4.386613373069763,7.512203373069763,4.511633373069763Z" fill-rule="evenodd" fill="#007DFA" fill-opacity="1"/></g></g></g></svg>