<svg xmlns="http://www.w3.org/2000/svg" class="arco-icon" style="stroke:none;fill:currentColor;"
    xmlns:xlink="http://www.w3.org/1999/xlink" version="1.1" viewBox="0 0 22 22" width="1em" height="1em">
    <defs>
        <clipPath id="master_svg0_1242_83571">
            <rect x="0" y="0" width="22" height="22" rx="0" />
        </clipPath>
    </defs>
    <g clip-path="url(#master_svg0_1242_83571)">
        <g>
            <path
                d="M2.0625,13.749971752929687L2.0625,3.6666717529296875Q2.0625,2.8123517529296875,2.666592,2.2082637529296876Q3.27068,1.6041717529296875,4.125,1.6041717529296875L18.3333,1.6041717529296875Q19.1876,1.6041717529296875,19.7917,2.2082637529296876Q20.3958,2.8123517529296875,20.3958,3.6666717529296875L20.3958,13.749971752929687Q20.3958,14.604271752929687,19.7917,15.208371752929688Q19.1876,15.812471752929687,18.3333,15.812471752929687L4.125,15.812471752929687Q3.27069,15.812471752929687,2.666592,15.208371752929688Q2.0625,14.604271752929687,2.0625,13.749971752929687ZM3.4375,13.749971752929687Q3.4375,14.034771752929688,3.63886,14.236171752929687Q3.84023,14.437471752929687,4.125,14.437471752929687L18.3333,14.437471752929687Q18.6181,14.437471752929687,18.8195,14.236171752929687Q19.0208,14.034771752929688,19.0208,13.749971752929687L19.0208,3.6666717529296875Q19.0208,3.3819017529296875,18.8195,3.1805317529296877Q18.6181,2.9791717529296875,18.3333,2.9791717529296875L4.125,2.9791717529296875Q3.84023,2.9791717529296875,3.63886,3.1805317529296877Q3.4375,3.3819017529296875,3.4375,3.6666717529296875L3.4375,13.749971752929687ZM6.41602,5.955731752929688L6.41602,7.101571752929687L5.04102,7.101571752929687L5.04102,5.039071752929687C5.04102,4.9749017529296875,5.05475,4.915321752929687,5.07766,4.860321752929687C5.10058,4.805321752929688,5.1327,4.754901752929687,5.17395,4.713651752929687C5.215199999999999,4.672401752929687,5.2655899999999995,4.640321752929688,5.32059,4.617401752929688C5.37559,4.5944817529296875,5.43518,4.580731752929688,5.49935,4.580731752929688L8.70768,4.580731752929688L8.70768,5.955731752929688L6.41602,5.955731752929688ZM16.124299999999998,7.101571752929687L16.124299999999998,5.955731752929688L13.8327,5.955731752929688L13.8327,4.580731752929688L17.041,4.580731752929688C17.1051,4.580731752929688,17.1648,4.5944817529296875,17.2198,4.617401752929688C17.2748,4.640321752929688,17.325200000000002,4.672401752929687,17.3664,4.713651752929687C17.4077,4.754901752929687,17.439799999999998,4.805321752929688,17.462699999999998,4.860321752929687C17.485599999999998,4.915321752929687,17.499299999999998,4.9749017529296875,17.499299999999998,5.039071752929687L17.499299999999998,7.101571752929687L16.124299999999998,7.101571752929687ZM6.41607,11.455731752929687L8.70763,11.455731752929687L8.70763,12.830771752929687L5.4994,12.830771752929687C5.43524,12.830771752929687,5.37554,12.816971752929687,5.320539999999999,12.794071752929687C5.26554,12.771171752929687,5.215199999999999,12.739071752929688,5.17395,12.697771752929688C5.1327,12.656571752929688,5.10058,12.606171752929688,5.07766,12.551171752929687C5.05475,12.496171752929687,5.04102,12.436571752929687,5.04102,12.372371752929688L5.04102,10.309901752929688L6.41607,10.309901752929688L6.41607,11.455731752929687ZM16.124299999999998,11.455731752929687L16.124299999999998,10.309901752929688L17.499299999999998,10.309901752929688L17.499299999999998,12.372371752929688C17.499299999999998,12.436571752929687,17.485599999999998,12.496171752929687,17.462699999999998,12.551171752929687C17.439799999999998,12.606171752929688,17.407600000000002,12.656571752929688,17.3664,12.697771752929688C17.3251,12.739071752929688,17.2748,12.771171752929687,17.2198,12.794071752929687C17.1648,12.816971752929687,17.1052,12.830771752929687,17.041,12.830771752929687L13.8327,12.830771752929687L13.8327,11.455731752929687L16.124299999999998,11.455731752929687ZM4.8125,19.24867175292969C4.4328,19.24867175292969,4.125,18.940871752929688,4.125,18.56117175292969C4.125,18.18147175292969,4.4328,17.87367175292969,4.8125,17.87367175292969L17.1875,17.87367175292969C17.5672,17.87367175292969,17.875,18.18147175292969,17.875,18.56117175292969C17.875,18.940871752929688,17.5672,19.24867175292969,17.1875,19.24867175292969L4.8125,19.24867175292969Z"
                fill-rule="evenodd" fill-opacity="1" />
        </g>
    </g>
</svg>