<svg width="14" height="14" viewBox="0 0 14 14" fill="none" xmlns="http://www.w3.org/2000/svg">
<path fill-rule="evenodd" clip-rule="evenodd" d="M6.99935 2.33341C4.42202 2.33341 2.33268 4.42275 2.33268 7.00008C2.33268 9.57741 4.42202 11.6667 6.99935 11.6667C9.57668 11.6667 11.666 9.57741 11.666 7.00008C11.666 4.42275 9.57668 2.33341 6.99935 2.33341ZM1.16602 7.00008C1.16602 3.77842 3.77769 1.16675 6.99935 1.16675C10.221 1.16675 12.8327 3.77842 12.8327 7.00008C12.8327 10.2217 10.221 12.8334 6.99935 12.8334C3.77769 12.8334 1.16602 10.2217 1.16602 7.00008ZM6.41602 4.08341H7.58268V6.41675H9.77018V7.58341H6.41602V4.08341Z" fill="#94A3B8"/>
</svg>
