<svg width="14" height="14" viewBox="0 0 14 14" fill="none" xmlns="http://www.w3.org/2000/svg">
<path fill-rule="evenodd" clip-rule="evenodd" d="M6.99935 2.33335C4.42202 2.33335 2.33268 4.42269 2.33268 7.00002C2.33268 9.57735 4.42202 11.6667 6.99935 11.6667C9.57668 11.6667 11.666 9.57735 11.666 7.00002C11.666 4.42269 9.57668 2.33335 6.99935 2.33335ZM1.16602 7.00002C1.16602 3.77836 3.77769 1.16669 6.99935 1.16669C10.221 1.16669 12.8327 3.77836 12.8327 7.00002C12.8327 10.2217 10.221 12.8334 6.99935 12.8334C3.77769 12.8334 1.16602 10.2217 1.16602 7.00002ZM6.41602 4.08335H7.58268V6.41669H9.77018V7.58335H6.41602V4.08335Z" fill="#007DFA"/>
</svg>
