<svg width="24" height="24" viewBox="0 0 24 24" fill="none" xmlns="http://www.w3.org/2000/svg">
    <path
        d="M12 4.7168C13.7046 4.7168 15.2735 4.946 16.4375 5.33398C17.0163 5.52692 17.5293 5.77049 17.9102 6.07064C18.2841 6.3653 18.6166 6.78728 18.6166 7.33333V17.3333H18.5729C18.4716 17.7207 18.204 18.0311 17.9102 18.2627C17.5293 18.5628 17.0163 18.8064 16.4375 18.9993C15.2735 19.3873 13.7046 19.6165 12 19.6165C10.2954 19.6165 8.72656 19.3873 7.56252 18.9993C6.98372 18.8064 6.47072 18.5628 6.08986 18.2627C5.79601 18.0311 5.52849 17.7207 5.4271 17.3333H5.38348V7.33333C5.38348 6.78728 5.71598 6.3653 6.08986 6.07064C6.47072 5.77049 6.98372 5.52692 7.56252 5.33398C8.72656 4.946 10.2954 4.7168 12 4.7168ZM17.3835 13.6006C17.1004 13.7518 16.7807 13.8849 16.4375 13.9993C15.2735 14.3873 13.7046 14.6165 12 14.6165C10.2954 14.6165 8.72656 14.3873 7.56252 13.9993C7.21929 13.8849 6.89967 13.7518 6.61656 13.6006V17C6.61656 17.0062 6.61988 17.1104 6.85321 17.2943C7.0796 17.4727 7.44555 17.6601 7.95249 17.8291C8.96001 18.1649 10.391 18.3835 12 18.3835C13.609 18.3835 15.04 18.1649 16.0475 17.8291C16.5545 17.6601 16.9204 17.4727 17.1468 17.2943C17.3802 17.1104 17.3835 17.0062 17.3835 17V13.6006ZM8.66994 15.6667C9.03995 15.6667 9.33982 15.9666 9.33986 16.3366C9.33986 16.7066 9.03997 17.0068 8.66994 17.0068C8.29995 17.0068 8.00002 16.7066 8.00002 16.3366C8.00007 15.9666 8.29998 15.6667 8.66994 15.6667ZM17.3835 9.26725C17.1004 9.41851 16.7807 9.55161 16.4375 9.66602C15.2735 10.054 13.7046 10.2832 12 10.2832C10.2954 10.2832 8.72656 10.054 7.56252 9.66602C7.21929 9.55161 6.89967 9.41851 6.61656 9.26725V12C6.61656 12.0062 6.61988 12.1104 6.85321 12.2943C7.0796 12.4727 7.44555 12.6601 7.95249 12.8291C8.96001 13.1649 10.391 13.3835 12 13.3835C13.609 13.3835 15.04 13.1649 16.0475 12.8291C16.5545 12.6601 16.9204 12.4727 17.1468 12.2943C17.3802 12.1104 17.3835 12.0062 17.3835 12V9.26725ZM8.66994 10.6667C9.03995 10.6667 9.33982 10.9666 9.33986 11.3366C9.33986 11.7066 9.03997 12.0065 8.66994 12.0065C8.29995 12.0065 8.00002 11.7066 8.00002 11.3366C8.00006 10.9666 8.29997 10.6667 8.66994 10.6667ZM12 5.94987C10.391 5.94987 8.96001 6.16841 7.95249 6.50423C7.44555 6.67321 7.0796 6.86066 6.85321 7.03906C6.61988 7.22295 6.61656 7.32712 6.61656 7.33333V7.66667C6.61656 7.67288 6.61988 7.77705 6.85321 7.96094C7.0796 8.13934 7.44555 8.32679 7.95249 8.49577C8.96001 8.83159 10.391 9.05013 12 9.05013C13.609 9.05013 15.04 8.83159 16.0475 8.49577C16.5545 8.32679 16.9204 8.13934 17.1468 7.96094C17.3802 7.77705 17.3835 7.67288 17.3835 7.66667V7.33333C17.3835 7.32712 17.3802 7.22295 17.1468 7.03906C16.9204 6.86066 16.5545 6.67321 16.0475 6.50423C15.04 6.16841 13.609 5.94987 12 5.94987Z"
        fill="currentColor" />
</svg>