<svg width="14" height="14" viewBox="0 0 14 14" fill="none" xmlns="http://www.w3.org/2000/svg">
<path d="M12.251 8.16699C12.5731 8.16699 12.834 8.42783 12.834 8.75V11.375C12.834 12.1804 12.1814 12.833 11.376 12.833H2.62598C1.82057 12.833 1.16797 12.1804 1.16797 11.375V8.75C1.16797 8.42783 1.42881 8.16699 1.75098 8.16699C2.07314 8.16699 2.33398 8.42783 2.33398 8.75V11.375C2.33398 11.5361 2.46489 11.667 2.62598 11.667H11.376C11.5371 11.667 11.668 11.5361 11.668 11.375V8.75C11.668 8.42783 11.9288 8.16699 12.251 8.16699ZM4.66699 5.95996C4.98916 5.95996 5.25 6.2208 5.25 6.54297V9.04297C5.25 9.36514 4.98916 9.62598 4.66699 9.62598C4.34483 9.62598 4.08398 9.36514 4.08398 9.04297V6.54297C4.08398 6.2208 4.34483 5.95996 4.66699 5.95996ZM7.00098 4.79199C7.32314 4.79199 7.58398 5.05283 7.58398 5.375V9.04199C7.58381 9.36401 7.32303 9.625 7.00098 9.625C6.67892 9.625 6.41814 9.36401 6.41797 9.04199V5.375C6.41797 5.05283 6.67881 4.79199 7.00098 4.79199ZM9.33496 7.41699C9.65713 7.41699 9.91797 7.67783 9.91797 8V9.04199C9.91779 9.36401 9.65702 9.625 9.33496 9.625C9.0129 9.625 8.75213 9.36401 8.75195 9.04199V8C8.75195 7.67783 9.01279 7.41699 9.33496 7.41699ZM6.00098 1.16699C6.32314 1.16699 6.58398 1.42783 6.58398 1.75C6.58398 2.07217 6.32314 2.33301 6.00098 2.33301H2.62598C2.46489 2.33301 2.33398 2.46392 2.33398 2.625V5.25C2.33398 5.57217 2.07314 5.83301 1.75098 5.83301C1.42881 5.83301 1.16797 5.57217 1.16797 5.25V2.625C1.16797 1.81959 1.82056 1.16699 2.62598 1.16699H6.00098Z" fill="url(#paint0_linear_1164_132566)"/>
<path d="M13.0249 0.0793219C13.0688 -0.0264604 13.2187 -0.0264345 13.2625 0.0793628L13.3197 0.217414C13.4067 0.427366 13.5735 0.594183 13.7835 0.68119L13.9206 0.73801C14.0265 0.781864 14.0264 0.931764 13.9206 0.975582L13.7825 1.03273C13.5723 1.11975 13.4054 1.28672 13.3184 1.49689L13.2619 1.63324C13.2181 1.73913 13.0681 1.73911 13.0243 1.6332L12.9674 1.49578C12.8804 1.28543 12.7134 1.11832 12.503 1.03129L12.3662 0.974696C12.2604 0.930888 12.2603 0.780951 12.3662 0.737107L12.5043 0.679912C12.7142 0.592961 12.8811 0.426226 12.9681 0.21635L13.0249 0.0793219Z" fill="url(#paint1_linear_1164_132566)"/>
<path d="M10.4771 0.634877C10.5911 0.359867 10.9807 0.359933 11.0946 0.634982L11.3182 1.17488C11.6008 1.85705 12.1427 2.39911 12.8248 2.6819L13.3652 2.90591C13.6402 3.01992 13.6401 3.40944 13.3651 3.52336L12.825 3.74702C12.1422 4.02983 11.5997 4.57241 11.3172 5.25528L11.0945 5.79357C10.9806 6.06886 10.5905 6.06879 10.4767 5.79346L10.2532 5.25268C9.97067 4.56925 9.42789 4.02622 8.74452 3.74335L8.20638 3.52058C7.93126 3.4067 7.93119 3.01707 8.20628 2.90309L8.7475 2.67884C9.42955 2.39623 9.97147 1.85443 10.2542 1.17251L10.4771 0.634877Z" fill="url(#paint2_linear_1164_132566)"/>
<defs>
<linearGradient id="paint0_linear_1164_132566" x1="1.16797" y1="7" x2="12.834" y2="7" gradientUnits="userSpaceOnUse">
<stop offset="0.35" stop-color="#3370FF"/>
<stop offset="1" stop-color="#9A52FF"/>
</linearGradient>
<linearGradient id="paint1_linear_1164_132566" x1="8" y1="3" x2="14" y2="3" gradientUnits="userSpaceOnUse">
<stop offset="0.35" stop-color="#3370FF"/>
<stop offset="1" stop-color="#9A52FF"/>
</linearGradient>
<linearGradient id="paint2_linear_1164_132566" x1="8" y1="3" x2="14" y2="3" gradientUnits="userSpaceOnUse">
<stop offset="0.35" stop-color="#3370FF"/>
<stop offset="1" stop-color="#9A52FF"/>
</linearGradient>
</defs>
</svg>
