<svg xmlns="http://www.w3.org/2000/svg" xmlns:xlink="http://www.w3.org/1999/xlink" fill="none" version="1.1" width="22" height="22" viewBox="0 0 22 22"><defs><clipPath id="master_svg0_31_8525"><rect x="0" y="0" width="22" height="22" rx="0"/></clipPath></defs><g clip-path="url(#master_svg0_31_8525)"><g><path d="M6.9966859765625,6.114948046875Q6.9913359765625,6.220538046874999,6.9913359765625,6.327318046875L6.9913359765625,7.601718046875C6.9913359765625,7.953628046875,7.2754759765625,8.238908046875,7.6259859765625,8.238908046875C7.9764859765625,8.238908046875,8.260625976562501,7.953628046875,8.260625976562501,7.601718046875L8.260625976562501,6.327318046875Q8.260625976562501,6.219648046875,8.267765976562501,6.114948046875L13.7537259765625,6.114948046875Q13.7609259765625,6.219648046875,13.7609259765625,6.327318046875L13.7609259765625,7.601718046875C13.7609259765625,7.953628046875,14.0450259765625,8.238908046875,14.3955259765625,8.238908046875C14.7460259765625,8.238908046875,15.0302259765625,7.953628046875,15.0302259765625,7.601718046875L15.0302259765625,6.327318046875Q15.0302259765625,6.220538046874999,15.0248259765625,6.114948046875L15.7412259765625,6.114948046875Q15.9926259765625,6.114948046875,16.1758259765625,6.287738046875Q16.3589259765625,6.460528046875,16.3746259765625,6.712398046875L16.879525976562498,14.823248046875L5.0743859765625,14.823248046875L5.4526059765625,6.722308046875Q5.4645059765625,6.467348046875,5.6484259765625,6.291148046875Q5.8323459765625,6.114948046875,6.0865559765625,6.114948046875L6.9966859765625,6.114948046875ZM7.2730459765625,4.840558046875L6.0865559765625,4.840558046875Q5.3239159765625,4.840558046875,4.7721659765624995,5.369158046875Q4.2204109765624995,5.897768046875,4.1847009765625,6.662638046875L3.6690495365625,17.707348046874998Q3.6308935765625,18.524648046875,4.1934549765625,19.116548046875Q4.7560159765625,19.708448046875,5.5709059765625,19.708448046875L16.4287259765625,19.708448046875Q17.2524259765625,19.708448046875,17.8164259765625,19.105748046875Q18.3804259765625,18.503048046875,18.329025976562498,17.677648046875L17.641425976562502,6.632898046875Q17.594425976562498,5.877298046875,17.0448259765625,5.3589280468750005Q16.495325976562498,4.840558046875,15.7412259765625,4.840558046875L14.7485259765625,4.840558046875Q14.7318259765625,4.798308046875,14.7141259765625,4.756298046875Q14.4089259765625,4.031968046875,13.8529259765625,3.473738046875Q13.2969459765625,2.915510046875,12.5755159765625,2.609145046875Q11.8281059765625,2.291748046875,11.010775976562499,2.291748046875Q10.193435976562501,2.291748046875,9.446025976562499,2.609145046875Q8.724595976562501,2.915510046875,8.1685959765625,3.473738046875Q7.6126059765625005,4.031968046875,7.3074659765625,4.756298046875Q7.289765976562499,4.798318046875,7.2730459765625,4.840558046875ZM8.6869159765625,4.840558046875L13.3346259765625,4.840558046875Q13.1749359765625,4.595268046875,12.9554159765625,4.374868046875Q12.1499159765625,3.566138046875,11.010775976562499,3.566138046875Q9.8716259765625,3.566138046875,9.0661259765625,4.374868046875Q8.8466059765625,4.595278046875,8.6869159765625,4.840558046875ZM5.0148959765625,16.097648046875L4.9369559765624995,17.767048046875Q4.9242359765625,18.039448046875002,5.1117559765625,18.236748046875Q5.2992759765625,18.434048046875,5.5709059765625,18.434048046875L16.4287259765625,18.434048046875Q16.7033259765625,18.434048046875,16.8913259765625,18.233148046875Q17.0793259765625,18.032248046875,17.0622259765625,17.757148046875002L16.958925976562497,16.097648046875L5.0148959765625,16.097648046875Z" fill-rule="evenodd" fill="#6E7B8D" fill-opacity="1"/></g></g></svg>