<svg xmlns="http://www.w3.org/2000/svg" xmlns:xlink="http://www.w3.org/1999/xlink" fill="none" version="1.1" width="32" height="32" viewBox="0 0 32 32"><defs><clipPath id="master_svg0_39_06981"><rect x="0" y="0" width="32" height="32" rx="0"/></clipPath></defs><g><g clip-path="url(#master_svg0_39_06981)"><g><path d="" fill="#D8D8D8" fill-opacity="0"/></g><g><path d="M26.666914453125,9.5993375L26.666914453125,27.8850875C26.666914453125,29.1473875,25.643614453125,30.1707875,24.381214453125,30.1707875L6.095524453125,30.1707875C4.833164453125,30.1707875,3.809814453125,29.1473875,3.809814453125,27.8850875L3.809814453125,5.0278975C3.809814147949,3.7655374999999998,4.833164453125,2.742187194824,6.095524453125,2.7421875L19.821714453125,2.7421875" fill="#D0EAE0" fill-opacity="1"/></g><g><path d="M2.285644683838,12.6484375L28.19014453125,12.6484375L28.19014453125,24.5341375C28.19014453125,25.5440375,27.37144453125,26.3627375,26.36154453125,26.3627375L4.11421453125,26.3627375C3.10432353125,26.3627375,2.285644683838,25.5440375,2.28564453125,24.5341375L2.285644683838,12.6484375Z" fill="#34D399" fill-opacity="1"/></g><g><path d="M3.8097545312500003,10.953125L3.8097545312500003,12.667415L2.28564453125,12.667415L3.8097545312500003,10.953125ZM26.66694453125,10.953125L26.66694453125,12.667415L28.19014453125,12.667415L26.66694453125,10.953125Z" fill="#10B981" fill-opacity="1"/></g><g><path d="M19.809814453125,2.7421875L26.666954453125,9.599327500000001L21.638384453125,9.599327500000001C20.628493453125,9.599327500000001,19.809814453125,8.7806475,19.809814453125,7.7707575L19.809814453125,2.7421875Z" fill="#EEFFF8" fill-opacity="1"/></g><g><path d="M9.1168,16C8.10246,16,7.30943,16.349056,6.756148,17.06604C6.248975,17.70755,6,18.5283,6,19.5283C6,20.5283,6.239754,21.33962,6.737705,21.96226C7.28176,22.65094,8.065570000000001,23,9.08914,23C9.78996,23,10.39857,22.79245,10.90574,22.38679C11.44979,21.95283,11.790980000000001,21.33962,11.93852,20.5566L11.21004,20.5566C11.08094,21.14151,10.81352,21.58491,10.42623,21.88679C10.05738,22.16981,9.61475,22.311320000000002,9.08914,22.311320000000002C8.31455,22.311320000000002,7.7336100000000005,22.04717,7.32787,21.5283C6.940574,21.03774,6.756148,20.367919999999998,6.756148,19.5283C6.756148,18.68868,6.949795,18.01887,7.33709,17.509430000000002C7.7520500000000006,16.962264,8.34221,16.688679,9.10758,16.688679C9.62398,16.688679,10.05738,16.81132,10.417010000000001,17.06604C10.78586,17.33019,11.02561,17.70755,11.11783,18.19811L11.846309999999999,18.19811C11.754100000000001,17.5283,11.459019999999999,16.990566,10.96107,16.59434C10.46311,16.198113,9.84529,16,9.1168,16ZM15.20287,16C14.52049,16,13.957989999999999,16.150943,13.52459,16.45283C13.03586,16.773585,12.796109999999999,17.23585,12.796109999999999,17.82075C12.796109999999999,18.38679,13.045079999999999,18.82075,13.55225,19.12264C13.76434,19.23585,14.27152,19.42453,15.06455,19.66981C15.80225,19.88679,16.2725,20.04717,16.457,20.16038C16.8904,20.39623,17.1117,20.72641,17.1117,21.15094C17.1117,21.509430000000002,16.945700000000002,21.79245,16.6137,22C16.2818,22.20755,15.83914,22.311320000000002,15.3043,22.311320000000002C14.71414,22.311320000000002,14.27152,22.17925,13.96721,21.93396C13.63525,21.66038,13.43238,21.22642,13.36783,20.64151L12.620899999999999,20.64151C12.67623,21.4717,12.96209,22.08491,13.478480000000001,22.490569999999998C13.921109999999999,22.83019,14.52971,23,15.3043,23C16.0881,23,16.7059,22.83019,17.167,22.5C17.6281,22.16038,17.8586,21.688679999999998,17.8586,21.10377C17.8586,20.490569999999998,17.582,20.01887,17.0379,19.67924C16.7613,19.509430000000002,16.189500000000002,19.29245,15.32275,19.0283C14.68647,18.83962,14.28074,18.69811,14.11475,18.60377C13.73668,18.39623,13.55225,18.12264,13.55225,17.78302C13.55225,17.39623,13.709019999999999,17.11321,14.02254,16.924528C14.29918,16.754717,14.67725,16.679245,15.16598,16.679245C15.70082,16.679245,16.1158,16.792453,16.410899999999998,17.03774C16.6967,17.27358,16.8811,17.63208,16.964100000000002,18.12264L17.711100000000002,18.12264C17.6465,17.41509,17.3975,16.877358,16.954900000000002,16.518868C16.5307,16.169811,15.94057,16,15.20287,16ZM18.1998,16.132075L20.6342,22.867919999999998L21.5656,22.867919999999998L24,16.132075L23.1701,16.132075L21.1137,22.0283L21.086100000000002,22.0283L19.0297,16.132075L18.1998,16.132075Z" fill="#FFFFFF" fill-opacity="1"/></g></g></g></svg>