<svg xmlns="http://www.w3.org/2000/svg" xmlns:xlink="http://www.w3.org/1999/xlink" fill="none" version="1.1" width="44" height="44" viewBox="0 0 44 44"><defs><clipPath id="master_svg0_327_86914"><rect x="6" y="6" width="32" height="32" rx="0"/></clipPath></defs><g><g><g><rect x="0" y="0" width="44" height="44" rx="4" fill="#F4FAE5" fill-opacity="1"/><rect x="0.5" y="0.5" width="43" height="43" rx="3.5" fill-opacity="0" stroke-opacity="1" stroke="#CBD5E1" fill="none" stroke-width="1"/></g><g clip-path="url(#master_svg0_327_86914)"><g><path d="M23.060009375,31.406022656250002L31.235709375,21.19916265625C31.907809375,20.35978265625,31.310309375,19.11572265625,30.235709375,19.11572265625L13.883789375,19.11572265625C12.808477375,19.11572265625,12.210977375,20.35978265625,12.883789375,21.19916265625L21.059099375000002,31.406022656250002C21.572019375,32.04712265625,22.547119375,32.04712265625,23.060009375,31.406022656250002Z" fill="#12BD4E" fill-opacity="1"/></g><g><path d="M18.5661328125,11.76708984375L25.5533228125,11.76708984375Q27.3333328125,11.76708984375,27.3333328125,13.54708984375L27.3333328125,20.53427984375Q27.3333328125,22.31428984375,25.5533228125,22.31428984375L18.5661328125,22.31428984375Q16.7861328125,22.31428984375,16.7861328125,20.53427984375L16.7861328125,13.54708984375Q16.7861328125,11.76708984375,18.5661328125,11.76708984375Z" fill="#55E48B" fill-opacity="1"/></g><g><path d="M27.3333328125,20.53353265625L27.3333328125,19.11572265625L16.7861328125,19.11572265625L16.7861328125,20.53353265625C16.7861340332,21.51729265625,17.5836268125,22.31478265625,18.5673828125,22.31478265625L25.5530128125,22.31478265625C26.5364028125,22.31426265625,27.3333328125,21.51692265625,27.3333328125,20.53353265625Z" fill="#06A124" fill-opacity="1"/></g></g></g></g></svg>