<svg xmlns="http://www.w3.org/2000/svg" xmlns:xlink="http://www.w3.org/1999/xlink" fill="none" version="1.1" width="106.59912109375" height="92" viewBox="0 0 106.59912109375 92"><defs><linearGradient x1="0.841111421585083" y1="0.10001220554113388" x2="0.2606916255065602" y2="0.9353693504811471" id="master_svg0_46_3565"><stop offset="5.714285746216774%" stop-color="#D8ECFF" stop-opacity="1"/><stop offset="100%" stop-color="#E2F7FF" stop-opacity="0.3100000023841858"/></linearGradient><linearGradient x1="0.5" y1="1" x2="0.5" y2="-0.4052707254886627" id="master_svg1_46_3562"><stop offset="2.8571464121341705%" stop-color="#BFDCFF" stop-opacity="1"/><stop offset="100%" stop-color="#EDF8FF" stop-opacity="1"/></linearGradient><linearGradient x1="0.7663360238075256" y1="0" x2="-0.022361592573451092" y2="0.7986350655569294" id="master_svg2_46_3554"><stop offset="0%" stop-color="#C8DCFF" stop-opacity="1"/><stop offset="99.28571581840515%" stop-color="#EBF6FF" stop-opacity="1"/></linearGradient><linearGradient x1="0.5" y1="0" x2="0.5" y2="1" id="master_svg3_46_3558"><stop offset="0%" stop-color="#3284FF" stop-opacity="1"/><stop offset="100%" stop-color="#34A4FF" stop-opacity="1"/></linearGradient><linearGradient x1="0.5" y1="0" x2="0.5" y2="1" id="master_svg4_46_3558"><stop offset="0%" stop-color="#3284FF" stop-opacity="1"/><stop offset="100%" stop-color="#34A4FF" stop-opacity="1"/></linearGradient><linearGradient x1="0.8392615914344788" y1="0.2038218230009079" x2="-0.03340789340603396" y2="0.3546406492026977" id="master_svg5_46_3569"><stop offset="0%" stop-color="#FFFFFF" stop-opacity="1"/><stop offset="100%" stop-color="#59BFFF" stop-opacity="0.33000001311302185"/></linearGradient></defs><g><g><g><g><ellipse cx="54.4969482421875" cy="38" rx="37.8590087890625" ry="38" fill="url(#master_svg0_46_3565)" fill-opacity="1"/></g><g><ellipse cx="54.99503707885742" cy="86.49993896484375" rx="29.390544891357422" ry="5.5" fill="url(#master_svg1_46_3562)" fill-opacity="1"/></g><g><path d="M18.63037109375,76.99993896484375C18.63037109375,80.31363896484375,21.31666109375,82.99993896484375,24.63037109375,82.99993896484375L84.36327109375,82.99993896484375C87.67697109375,82.99993896484375,90.36327109375,80.31363896484375,90.36327109375,76.99993896484375L90.36327109375,56.58813896484375C90.36327109375,55.54723896484375,90.09247109375,54.52423896484375,89.57747109375,53.61973896484375L76.14847109375,30.03143896484375C75.08147109375,28.15729896484375,73.09077109374999,26.99993896484375,70.93427109375,26.99993896484375L38.05937109375,26.99993896484375C35.902771093750005,26.99993896484375,33.91207109375,28.15729896484375,32.84517109375,30.03143896484375L19.41615709375,53.61973896484375C18.90116809375,54.52423896484375,18.63037109375,55.54723896484375,18.63037109375,56.58813896484375L18.63037109375,76.99993896484375Z" fill="#FFFFFF" fill-opacity="1"/><path d="M18.63037109375,76.99993896484375C18.63037109375,80.31363896484375,21.31666109375,82.99993896484375,24.63037109375,82.99993896484375L84.36327109375,82.99993896484375C87.67697109375,82.99993896484375,90.36327109375,80.31363896484375,90.36327109375,76.99993896484375L90.36327109375,56.58813896484375C90.36327109375,55.54723896484375,90.09247109375,54.52423896484375,89.57747109375,53.61973896484375L76.14847109375,30.03143896484375C75.08147109375,28.15729896484375,73.09077109374999,26.99993896484375,70.93427109375,26.99993896484375L38.05937109375,26.99993896484375C35.902771093750005,26.99993896484375,33.91207109375,28.15729896484375,32.84517109375,30.03143896484375L19.41615709375,53.61973896484375C18.90116809375,54.52423896484375,18.63037109375,55.54723896484375,18.63037109375,56.58813896484375L18.63037109375,76.99993896484375ZM19.63037109375,76.99993896484375Q19.63037109375,79.07103896484375,21.09484109375,80.53543896484375Q22.55930109375,81.99993896484375,24.63037109375,81.99993896484375L84.36327109375,81.99993896484375Q86.43427109375,81.99993896484375,87.89877109375,80.53543896484375Q89.36327109375,79.07103896484375,89.36327109375,76.99993896484375L89.36327109375,56.58813896484375Q89.36327109375,55.264638964843755,88.70837109375,54.11443896484375L75.27937109375,30.52618896484375Q73.84117109375,27.99993896484375,70.93427109375,27.99993896484375L38.05937109375,27.99993896484375Q35.15237109375,27.99993896484375,33.71417109375,30.52618896484375L20.28519109375,54.11443896484375Q19.63037109375,55.264638964843755,19.63037109375,56.58813896484375L19.63037109375,76.99993896484375Z" fill-rule="evenodd" fill="#49617F" fill-opacity="1"/></g><g><path d="M24.608154296875,71.99993896484375C24.608154296875,75.31363896484375,27.294444296875,77.99993896484375,30.608154296875,77.99993896484375L78.385554296875,77.99993896484375C81.699254296875,77.99993896484375,84.385554296875,75.31363896484375,84.385554296875,71.99993896484375L84.385554296875,56.60813896484375C84.385554296875,55.55463896484375,84.108154296875,54.51963896484375,83.581254296875,53.60733896484375L72.833854296875,34.99911896484375C71.76195429687499,33.14317896484375,69.781454296875,31.99993896484375,67.638154296875,31.99993896484375L41.355454296874996,31.99993896484375C39.212254296875,31.99993896484375,37.231754296874996,33.14317896484375,36.159854296875,34.99912896484375L25.412472296875,53.60733896484375C24.885559296875,54.51963896484375,24.608154296875,55.55463896484375,24.608154296875,56.60813896484375L24.608154296875,71.99993896484375Z" fill="url(#master_svg2_46_3554)" fill-opacity="1"/></g><g><rect x="38.55615234375" y="23.99993896484375" width="5.977737903594971" height="46" rx="0" fill="#FFFFFF" fill-opacity="1"/><rect x="39.05615234375" y="24.49993896484375" width="4.977737903594971" height="45" rx="0" fill-opacity="0" stroke-opacity="1" stroke="#1E293B" fill="none" stroke-width="1"/></g><g><rect x="65.4560546875" y="19.99993896484375" width="5.977737903594971" height="50" rx="0" fill="#FFFFFF" fill-opacity="1"/><rect x="65.9560546875" y="20.49993896484375" width="4.977737903594971" height="49" rx="0" fill-opacity="0" stroke-opacity="1" stroke="#1E293B" fill="none" stroke-width="1"/></g><g><rect x="47.52294921875" y="30.99993896484375" width="5.977737903594971" height="46" rx="0" fill="#FFFFFF" fill-opacity="1"/><rect x="48.02294921875" y="31.49993896484375" width="4.977737903594971" height="45" rx="0" fill-opacity="0" stroke-opacity="1" stroke="#1E293B" fill="none" stroke-width="1"/></g><g><path d="M56.489501953125,73.99993896484375L62.467241953125,73.99993896484375L62.467241953125,23.99993896484375L61.470951953125,24.99993896484375L60.474661953125,23.99993896484375L59.478371953125,22.99993896484375L58.482081953125,23.99993896484375L57.485791953125,24.99993896484375L56.489501953125,23.99993896484375L56.489501953125,73.99993896484375Z" fill="url(#master_svg3_46_3558)" fill-opacity="1"/></g><g transform="matrix(0.8652186989784241,0.5013946294784546,-0.49860671162605286,0.8668283820152283,10.493423394536876,-33.257643387685675)"><path d="M67.102294921875,22.88817724609375L68.099513921875,23.88717724609375L69.096734921875,22.88817724609375L70.093954921875,21.88907724609375L71.091164921875,22.88817724609375L72.088384921875,23.88717724609375L73.085604921875,22.88817724609375L73.085604921875,2.90667724609375L67.102294921875,2.90667724609375L67.102294921875,22.88817724609375Z" fill="url(#master_svg4_46_3558)" fill-opacity="1"/></g><g><path d="M42.54102477416993,52.99993896484375L42.54102477416993,57.99993896484375C42.54102477416993,59.10450896484375,43.436524774169925,59.99993896484375,44.54102477416993,59.99993896484375L64.45202477416993,59.99993896484375C65.55662477416992,59.99993896484375,66.45202477416993,59.10450896484375,66.45202477416993,57.99993896484375L66.45202477416993,52.99993896484375L84.36282477416992,52.99993896484375C87.67652477416992,52.99993896484375,90.36282477416992,55.68622896484375,90.36282477416992,58.99993896484375L90.36282477416992,76.99993896484375C90.36282477416992,80.31363896484375,87.67652477416992,82.99993896484375,84.36282477416992,82.99993896484375L24.629924774169922,82.99993896484375C21.31621477416992,82.99993896484375,18.629924774169922,80.31363896484375,18.629924774169922,76.99993896484375L18.629924774169922,58.99993896484375C18.629924774169922,55.68622896484375,21.31621477416992,52.99993896484375,24.629924774169922,52.99993896484375L42.54102477416993,52.99993896484375Z" fill-rule="evenodd" fill="#FFFFFF" fill-opacity="1"/><path d="M42.54102477416993,57.99993896484375L42.54102477416993,52.99993896484375L24.629924774169922,52.99993896484375C21.31621477416992,52.99993896484375,18.629924774169922,55.68622896484375,18.629924774169922,58.99993896484375L18.629924774169922,76.99993896484375C18.629924774169922,80.31363896484375,21.31621477416992,82.99993896484375,24.629924774169922,82.99993896484375L84.36282477416992,82.99993896484375C87.67652477416992,82.99993896484375,90.36282477416992,80.31363896484375,90.36282477416992,76.99993896484375L90.36282477416992,58.99993896484375C90.36282477416992,55.68622896484375,87.67652477416992,52.99993896484375,84.36282477416992,52.99993896484375L66.45202477416993,52.99993896484375L66.45202477416993,57.99993896484375C66.45202477416993,59.10450896484375,65.55662477416992,59.99993896484375,64.45202477416993,59.99993896484375L44.54102477416993,59.99993896484375C43.436524774169925,59.99993896484375,42.54102477416993,59.10450896484375,42.54102477416993,57.99993896484375ZM67.45202477416993,53.99993896484375L67.45202477416993,57.99993896484375Q67.45202477416993,59.24257896484375,66.57332477416992,60.12125896484375Q65.69462477416992,60.99993896484375,64.45202477416993,60.99993896484375L44.54102477416993,60.99993896484375Q43.29842477416992,60.99993896484375,42.41972477416992,60.12125896484375Q41.54102477416993,59.24257896484375,41.54102477416993,57.99993896484375L41.54102477416993,53.99993896484375L24.629924774169922,53.99993796484375Q22.558854774169923,53.99993896484375,21.09439477416992,55.46440896484375Q19.629924774169922,56.92886896484375,19.629924774169922,58.99993896484375L19.62992377416992,76.99993896484375Q19.629924774169922,79.07103896484375,21.09439477416992,80.53543896484375Q22.558854774169923,81.99993896484375,24.629924774169922,81.99993896484375L84.36282477416992,81.99993896484375Q86.43382477416992,81.99993896484375,87.89832477416992,80.53543896484375Q89.36282477416992,79.07103896484375,89.36282477416992,76.99993896484375L89.36282477416992,58.99993896484375Q89.36282477416992,56.92886896484375,87.89832477416992,55.46440896484375Q86.43382477416992,53.99993896484375,84.36282477416992,53.99993896484375L67.45202477416993,53.99993896484375Z" fill-rule="evenodd" fill="#49617F" fill-opacity="1"/></g><g><path d="M39.552973046874996,55.99993896484375L39.552973046874996,60.99993896484375C39.552973046874996,62.10450896484375,40.448373046875,62.99993896484375,41.552973046874996,62.99993896484375L67.441673046875,62.99993896484375C68.546273046875,62.99993896484375,69.441673046875,62.10450896484375,69.441673046875,60.99993896484375L69.441673046875,55.99993896484375L80.37867304687501,55.99993896484375C83.69237304687499,55.99993896484375,86.378673046875,58.68622896484375,86.378673046875,61.99993896484375L86.378673046875,73.99993896484375C86.378673046875,77.31363896484375,83.69237304687499,79.99993896484375,80.37867304687501,79.99993896484375L27.619873046875,79.99993896484375C24.306163046875,79.99993896484375,21.619873046875,77.31363896484375,21.619873046875,73.99993896484375L21.619873046875,61.99993896484375C21.619873046875,58.68622896484375,24.306163046875,55.99993896484375,27.619873046875,55.99993896484375L39.552973046874996,55.99993896484375L39.552973046874996,55.99993896484375Z" fill-rule="evenodd" fill="url(#master_svg5_46_3569)" fill-opacity="1"/></g><g transform="matrix(0.9655434489250183,-0.26024192571640015,0.25740283727645874,0.9663042426109314,-15.007003787115536,2.0450549332636)"><path d="M19.88309921875,58.79957619140625L20.88469921875,58.58689419140625L20.78079921875,58.09779819140625L19.77919921875,58.31048109140625L19.88309921875,58.79957619140625ZM83.84169921875,59.14171119140625L84.85389921875,59.34314619140625L84.95139921875,58.85276419140625L83.93929921875,58.65132919140625L83.84169921875,59.14171119140625ZM15.00699921875,60.01187619140625Q15.95049921875,59.74417619140625,16.94959921875,59.49008619140625L16.82629921875,59.00551419140625Q15.82059921875,59.26128719140625,14.87049921875,59.53086619140625L15.00699921875,60.01187619140625ZM87.79789921875,59.99044619140625Q88.81149921875,60.23130619140625,89.74719921875,60.481326191406254L89.87629921875,59.99826619140625Q88.93389921875,59.74649619140625,87.91349921875,59.50398619140625L87.79789921875,59.99044619140625ZM10.25701921875,61.58157619140625Q11.16139921875,61.23186619140625,12.14429921875,60.89890619140625L11.98389921875,60.42533619140625Q10.99099921875,60.76169619140625,10.07669921875,61.11522619140625L10.25701921875,61.58157619140625ZM92.61449921875,61.32791619140625Q93.61519921875,61.65575619140625,94.50709921875,62.00016619140625L94.68719921875,61.53373619140625Q93.78319921875,61.18463619140625,92.77009921875,60.852766191406246L92.61449921875,61.32791619140625ZM5.74012921875,63.71412619140625Q6.55450921875,63.23573619140625,7.49131921875,62.77916619140625L7.27226921875,62.32970619140625Q6.31798921875,62.79479619140625,5.48687921875,63.28300619140625L5.74012921875,63.71412619140625ZM97.23529921875,63.22307619140625Q98.17929921875,63.71941619140625,98.94889921875,64.25190619140625L99.23339921875,63.840746191406254Q98.43889921875,63.29095619140625,97.46799921875,62.78051619140625L97.23529921875,63.22307619140625ZM1.92766921875,66.83617619140625Q2.49655921875,66.11726619140624,3.29758921875,65.42929619140625L2.97181921875,65.04998619140625Q2.13430921875,65.76928619140625,1.53557921875,66.52590619140625L1.92766921875,66.83617619140625ZM101.11519921875,66.22556619140624Q101.74219921875,67.01703619140625,102.09619921875,67.89640619140624L102.56019921875,67.70960619140625Q102.17919921875,66.76322619140625,101.50719921875,65.91512619140624L101.11519921875,66.22556619140624ZM0.55419921875,70.45684619140624Q0.55419921875,69.93494619140625,0.65972521875,69.42404619140625L0.17006321875,69.32294619140625Q0.05419921875,69.88384619140625,0.05419921875,70.45684619140624Q0.05419921875,70.94294619140625,0.15214821875,71.42594619140625L0.64217421875,71.32664619140625Q0.55419921875,70.89274619140625,0.55419921875,70.45684619140624ZM102.56119921875,70.75414619140625Q102.49719921875,71.67604619140624,102.03919921875,72.58684619140625L102.48619921875,72.81134619140624Q102.98919921875,71.81074619140625,103.05919921875,70.78854619140625L102.56119921875,70.75414619140625ZM3.31977921875,75.26024619140625Q2.50746921875,74.57324619140624,1.93063921875,73.86834619140625L1.54367921875,74.18494619140625Q2.14956921875,74.92544619140625,2.99691921875,75.64204619140625L3.31977921875,75.26024619140625ZM100.23709921875,74.87854619140626Q99.55559921875,75.50974619140625,98.68259921875,76.12224619140625L98.96979921875,76.53154619140625Q99.87059921875,75.89954619140624,100.57719921875,75.24534619140624L100.23709921875,74.87854619140626ZM7.51529921875,77.92564619140626Q6.57769921875,77.45704619140625,5.75928921875,76.97064619140625L5.50379921875,77.40044619140625Q6.33788921875,77.89624619140625,7.29177921875,78.37294619140624L7.51529921875,77.92564619140626ZM96.13589921875,77.65654619140625Q95.28509921875,78.10254619140625,94.33189921875,78.53114619140625L94.53689921875,78.98714619140625Q95.50379921875,78.55244619140625,96.36799921875,78.09934619140626L96.13589921875,77.65654619140625ZM12.16579921875,79.87814619140624Q11.17429921875,79.52484619140625,10.25793921875,79.15484619140625L10.07072921875,79.61844619140625Q10.99669921875,79.99234619140626,11.99799921875,80.34914619140625L12.16579921875,79.87814619140624ZM91.54879921875,79.66424619140625Q90.63999921875,80.00024619140625,89.66719921875,80.32094619140625L89.82369921875,80.79584619140624Q90.80509921875,80.47234619140625,91.72229921875,80.13314619140625L91.54879921875,79.66424619140625ZM16.93109921875,81.36024619140625Q15.95089921875,81.09384619140624,15.01849921875,80.81274619140625L14.87419921875,81.29144619140625Q15.81309921875,81.57454619140626,16.79999921875,81.84274619140625L16.93109921875,81.36024619140625ZM86.77549921875,81.19974619140625Q85.82329921875,81.46664619140626,84.82649921875,81.71884619140624L84.94909921875,82.20354619140625Q85.95219921875,81.94984619140625,86.91039921875,81.68124619140625L86.77549921875,81.19974619140625ZM21.82759921875,82.53544619140625Q20.82959921875,82.32464619140625,19.86719921875,82.10004619140625L19.75359921875,82.58694619140624Q20.72129921875,82.81274619140625,21.72419921875,83.02464619140625L21.82759921875,82.53544619140625ZM81.89989921875,82.40624619140625Q80.91929921875,82.61984619140625,79.90589921875,82.81934619140625L80.00249921875,83.30994619140625Q81.02079921875,83.10944619140625,82.00629921875,82.89484619140624L81.89989921875,82.40624619140625ZM26.79069921875,83.46184619140625L24.78319921875,83.11534619140625L24.69819921875,83.60804619140625L26.70559921875,83.95454619140625L26.79069921875,83.46184619140625ZM76.95229921875,83.35904619140625L74.95939921875,83.67884619140625L75.03869921875,84.17254619140625L77.03159921875,83.85264619140625L76.95229921875,83.35904619140625ZM31.77789921875,84.17654619140625L29.75469921875,83.91034619140625L29.68949921875,84.40604619140625L31.71269921875,84.67224619140624L31.77789921875,84.17654619140625ZM71.96389921875,84.09864619140625L69.97359921875,84.33984619140625L70.03379921875,84.83614619140624L72.02399921875,84.59504619140625L71.96389921875,84.09864619140625ZM36.77809921875,84.70714619140625L34.75599921875,84.51344619140625L34.70829921875,85.01124619140626L36.73039921875,85.20484619140625L36.77809921875,84.70714619140625ZM66.95449921875,84.65184619140625L64.96289921875,84.82404619140625L65.00599921875,85.32214619140625L66.99749921875,85.15004619140625L66.95449921875,84.65184619140625ZM41.79799921875,85.07264619140625L39.77459921875,84.94454619140625L39.74299921875,85.44354619140626L41.76639921875,85.57164619140624L41.79799921875,85.07264619140625ZM61.93309921875,85.03694619140626L59.93719921875,85.14604619140624L59.96439921875,85.64534619140625L61.96039921875,85.53614619140625L61.93309921875,85.03694619140626ZM46.82939921875,85.28364619140625L44.80349921875,85.21674619140626L44.78699921875,85.71644619140625L46.81289921875,85.78334619140625L46.82939921875,85.28364619140625ZM56.90479921875,85.26604619140625L54.90299921875,85.31574619140625L54.91539921875,85.81554619140624L56.91719921875,85.76594619140624L56.90479921875,85.26604619140625ZM51.56389921875,85.34744619140625L49.83809921875,85.33894619140625L49.83569921875,85.83894619140625L51.56139921875,85.84744619140625L51.87229921875,85.84714619140625L51.87179921875,85.34714619140625L51.56389921875,85.34744619140625Z" fill-rule="evenodd" fill="#1E293B" fill-opacity="1"/></g></g><g transform="matrix(0.7071067690849304,0.7071067690849304,-0.7071067690849304,0.7071067690849304,25.752721632993314,-1.8781971660512795)" style="opacity:0.800000011920929;"><path d="M17.929476104431153,36.345586279296874L15.852150104431152,36.34172627929688Q15.145262034431152,36.340416279296875,14.645029104431153,35.84018627929687Q14.144797104431152,35.339946279296875,14.143486104431153,34.63306627929688Q14.142166104431153,33.92399627929687,14.643166104431153,33.422996279296875Q15.144165508431152,32.92199627929688,15.853231104431153,32.92331627929688L17.92312610443115,32.927156279296874L17.91927610443115,30.857033279296875Q17.91796610443115,30.147967341296876,18.418966104431153,29.646967279296874Q18.919966104431154,29.145966279296875,19.62902610443115,29.147285279296874Q20.335916104431153,29.148599279296874,20.83614610443115,29.648831279296875Q21.336386104431153,30.149064419296874,21.337696104431153,30.855952279296876L21.341556104431152,32.933516279296875L23.418126104431153,32.93737627929688Q24.125016104431154,32.938686279296874,24.625246104431152,33.438916279296876Q25.125486104431154,33.939156279296874,25.12679610443115,34.646046279296876Q25.12811610443115,35.355106279296876,24.627116104431153,35.856106279296874Q24.126116104431155,36.35710627929687,23.41704610443115,36.35578627929687L21.347906104431154,36.351946279296875L21.351756104431153,38.42085627929687Q21.353076104431153,39.12991627929688,20.852076104431152,39.630916279296876Q20.35107610443115,40.131916279296874,19.642006104431154,40.130596279296874Q18.935116104431152,40.12928627929688,18.43488610443115,39.62904627929687Q17.934656104431152,39.12881627929687,17.933336104431152,38.42193627929687L17.929476104431153,36.345586279296874ZM20.347906104431154,36.350086279296875L20.346046104431153,35.35007627929687L21.346056104431153,35.35193627929687L23.41890610443115,35.35578627929687Q23.55997610443115,35.35605627929687,23.69020610443115,35.30230627929687Q23.820436104431153,35.248566279296874,23.920006104431152,35.148996279296874Q24.019576104431152,35.04943627929688,24.07331610443115,34.91920627929687Q24.127056104431155,34.78896627929687,24.12679610443115,34.64789627929687Q24.126666104431152,34.57804627929688,24.11291610443115,34.509516279296875Q24.099156104431152,34.440976279296876,24.072306104431153,34.37639627929688Q24.045456104431153,34.31181627929688,24.006546104431152,34.25365627929688Q23.967626104431154,34.19550627929688,23.918146104431152,34.146026279296876Q23.868656104431153,34.096546279296874,23.810506104431152,34.057626279296876Q23.75235610443115,34.018716279296875,23.68777610443115,33.99186627929687Q23.623186104431152,33.96500627929687,23.554656104431153,33.95125627929688Q23.486116104431154,33.937506279296876,23.416266104431152,33.93737627929688L20.343406104431153,33.931656279296874L20.337696104431153,30.857811279296875Q20.337566104431154,30.787960279296875,20.323816104431152,30.719426279296876Q20.31005610443115,30.650891279296875,20.28320610443115,30.586308279296876Q20.256356104431152,30.521724279296876,20.21743610443115,30.463573279296874Q20.178526104431153,30.405422279296875,20.129046104431154,30.355938279296875Q20.079556104431152,30.306454279296876,20.02140610443115,30.267539279296876Q19.963256104431153,30.228624179296876,19.898676104431154,30.201773479296875Q19.83408610443115,30.174922679296873,19.765556104431152,30.161168079296875Q19.697016104431153,30.147413531296873,19.627166104431154,30.147283706696875Q19.48609610443115,30.147021514296874,19.35586610443115,30.200764679296874Q19.225636104431153,30.254508279296875,19.126066104431153,30.354074279296874Q19.026506104431153,30.453641279296875,18.972756104431152,30.583872279296877Q18.91901610443115,30.714104279296876,18.91927610443115,30.855175279296876L18.92313610443115,32.929016279296874L18.924996104431152,33.92902627929688L17.924986104431152,33.92716627929688L15.851373104431152,33.92331627929688Q15.710302104431152,33.92304627929688,15.580070104431153,33.97679627929688Q15.449838104431151,34.030536279296875,15.350272104431152,34.130106279296875Q15.250705104431152,34.22966627929688,15.196962204431152,34.359896279296876Q15.143219092431153,34.49013627929688,15.143481254531153,34.631206279296876Q15.143611064031152,34.70105627929688,15.157365604431153,34.769586279296874Q15.171120204431153,34.83812627929687,15.197971004431153,34.90270627929687Q15.224821704431152,34.96728627929687,15.263737104431153,35.025436279296876Q15.302652104431152,35.08359627929688,15.352136104431152,35.13307627929687Q15.401620104431153,35.182556279296875,15.459771104431152,35.22147627929687Q15.517922104431152,35.260386279296874,15.582505104431153,35.28723627929688Q15.647089104431153,35.31408627929687,15.715623104431153,35.32784627929688Q15.784158104431153,35.34159627929687,15.854009104431153,35.34172627929688L18.927626104431152,35.347446279296875L18.933336104431152,38.42007627929688Q18.93346610443115,38.489926279296874,18.947226104431152,38.55845627929688Q18.960976104431154,38.626996279296876,18.987826104431154,38.691576279296875Q19.014676104431153,38.756156279296874,19.05359610443115,38.81430627929687Q19.092506104431152,38.87246627929687,19.14199610443115,38.921946279296876Q19.191476104431153,38.97142627929688,19.24962610443115,39.010346279296876Q19.307776104431152,39.04925627929688,19.37236610443115,39.07610627929687Q19.43694610443115,39.10296627929688,19.505476104431153,39.116716279296874Q19.574016104431152,39.130466279296876,19.643866104431154,39.130596279296874Q19.784936104431154,39.130866279296875,19.91516610443115,39.077116279296874Q20.045396104431152,39.023376279296876,20.144966104431152,38.923806279296876Q20.244536104431152,38.82424627929687,20.298276104431153,38.694016279296875Q20.35201610443115,38.563776279296874,20.351756104431153,38.422706279296875L20.347906104431154,36.350086279296875Z" fill-rule="evenodd" fill="#1E293B" fill-opacity="1"/></g><g transform="matrix(0.7071067690849304,0.7071067690849304,-0.7071067690849304,0.7071067690849304,41.61029170876975,-62.16381813789724)" style="opacity:0.800000011920929;"><path d="M98.62847348876953,25.343824403686522L96.55162948876954,25.339964403686523Q95.84474136876953,25.338654403686522,95.34450848876953,24.838414403686524Q94.84427548876953,24.338184403686522,94.84296348876953,23.631294403686525Q94.84164348876953,22.922234403686524,95.34264448876954,22.421234403686523Q95.84364400276954,21.920234403686525,96.55271048876953,21.921544403686525L98.62211348876953,21.925394403686525L98.61827348876953,19.856246403686523Q98.61695348876952,19.147180163686524,99.11795348876953,18.64618040368652Q99.61895348876953,18.145184403686525,100.32802348876953,18.146497403686524Q101.03490348876953,18.147811403686525,101.53514348876953,18.648043403686522Q102.03537348876954,19.148276303686522,102.03668348876953,19.855165403686524L102.04054348876953,21.931744403686523L104.11760348876953,21.935604403686522Q104.82449348876953,21.936924403686525,105.32473348876954,22.437154403686524Q105.82496348876953,22.937384403686522,105.82627348876953,23.644284403686523Q105.82759348876954,24.353344403686524,105.32659348876953,24.854344403686525Q104.82559348876953,25.355344403686523,104.11652348876953,25.354024403686523L102.04690348876953,25.350174403686523L102.05074348876953,27.420064403686524Q102.05206348876953,28.129124403686525,101.55106348876953,28.630134403686526Q101.05006348876952,29.131124403686524,100.34099348876953,29.129814403686524Q99.63411348876953,29.128494403686524,99.13387348876954,28.628264403686522Q98.63364348876954,28.128034403686524,98.63233348876953,27.421144403686526L98.62847348876953,25.343824403686522ZM101.04689348876953,25.348324403686522L101.04503348876953,24.348314403686523L102.04504348876954,24.350174403686523L104.11838348876952,24.354024403686523Q104.25945348876954,24.354284403686524,104.38969348876952,24.300544403686523Q104.51992348876954,24.246804403686525,104.61948348876953,24.147234403686525Q104.71905348876953,24.04767440368652,104.77279348876954,23.917434403686524Q104.82653348876953,23.787204403686523,104.82627348876953,23.646134403686524Q104.82614348876953,23.576284403686522,104.81239348876953,23.507754403686523Q104.79863348876953,23.439214403686524,104.77178348876953,23.374634403686525Q104.74493348876953,23.310044403686526,104.70602348876953,23.251894403686524Q104.66710348876953,23.193744403686523,104.61762348876954,23.144264403686524Q104.56813348876953,23.09477440368652,104.50998348876954,23.055864403686524Q104.45183348876954,23.016944403686523,104.38725348876953,22.990094403686523Q104.32266348876954,22.963244403686524,104.25413348876953,22.949494403686522Q104.18560348876953,22.935734403686524,104.11575348876953,22.935604403686522L101.04239348876953,22.929894403686525L101.03668348876953,19.857023403686522Q101.03655348876953,19.787172403686522,101.02280348876953,19.718638403686523Q101.00904348876954,19.650104403686523,100.98219348876952,19.585520403686523Q100.95534348876953,19.520936403686523,100.91643348876953,19.462785403686524Q100.87751348876954,19.404634403686522,100.82803348876953,19.355150403686523Q100.77854348876953,19.305666403686523,100.72039348876953,19.266751403686524Q100.66224348876953,19.22783650368652,100.59766348876953,19.200985703686523Q100.53308348876953,19.174135003686523,100.46454348876954,19.160380403686524Q100.39601348876953,19.146625796686525,100.32616348876954,19.146495971686523Q100.18509348876952,19.146233779186524,100.05485348876954,19.199976903686522Q99.92462348876953,19.253720403686522,99.82506348876953,19.353286403686525Q99.72549348876953,19.45285340368652,99.67175348876953,19.583084403686524Q99.61800348876953,19.713316403686523,99.61827348876953,19.854387403686523L99.62212348876953,21.927254403686522L99.62398348876953,22.92726440368652L98.62397348876954,22.925404403686525L96.55085148876952,22.921544403686525Q96.40978148876953,22.921284403686524,96.27954948876953,22.975024403686525Q96.14931748876953,23.028774403686523,96.04975048876953,23.128334403686523Q95.95018448876954,23.227904403686523,95.89644128876954,23.358134403686524Q95.84269819576953,23.488364403686525,95.84296035776953,23.629434403686524Q95.84309016676953,23.699294403686523,95.85684478876954,23.767824403686525Q95.87059928876953,23.836354403686524,95.89745008876953,23.900944403686523Q95.92430078876953,23.965524403686523,95.96321548876953,24.023674403686524Q96.00213148876954,24.081824403686525,96.05161448876953,24.131314403686524Q96.10109848876954,24.180794403686523,96.15925048876953,24.219714403686524Q96.21740148876953,24.258624403686525,96.28198448876954,24.28547440368652Q96.34656848876953,24.312324403686524,96.41510248876953,24.326084403686522Q96.48363648876953,24.339834403686524,96.55348748876953,24.339964403686523L99.62661348876954,24.345674403686523L99.63233348876953,27.419284403686525Q99.63246348876953,27.489134403686524,99.64621348876953,27.557674403686523Q99.65996348876953,27.626204403686522,99.68681348876953,27.69078440368652Q99.71367348876953,27.755374403686524,99.75258348876953,27.81352440368652Q99.79150348876954,27.871674403686523,99.84098348876952,27.921154403686522Q99.89046348876953,27.970644403686524,99.94861348876952,28.009554403686522Q100.00677348876953,28.048474403686523,100.07135348876953,28.075324403686523Q100.13593348876952,28.102174403686526,100.20447348876954,28.115924403686524Q100.27300348876953,28.129684403686525,100.34285348876953,28.129814403686524Q100.48392348876953,28.13007440368652,100.61416348876953,28.076334403686523Q100.74439348876953,28.022584403686523,100.84395348876953,27.923024403686526Q100.94352348876953,27.823454403686526,100.99726348876953,27.69322440368652Q101.05101348876953,27.562994403686524,101.05074348876953,27.421924403686525L101.04689348876953,25.348324403686522Z" fill-rule="evenodd" fill="#1E293B" fill-opacity="1"/></g><g><path d="M86.77865265625,4.07947C87.88232265625,4.07947,88.78532265625,3.16596,88.78532265625,2.03974C88.78532265625,0.912781,87.88232265625,0,86.77865265625,0C85.66781065625,0,84.77197265625,0.912781,84.77197265625,2.03974C84.77197265625,3.16596,85.66781065625,4.07947,86.77865265625,4.07947Z" fill="#BFDCFF" fill-opacity="1"/></g><g><path d="M6.14860390625,13.6227478125Q6.14860390625,13.7229478125,6.13894390625,13.8226678125Q6.12928390625,13.9223978125,6.1100439062500005,14.0206778125Q6.09081390625,14.1189578125,6.06220390625,14.2148478125Q6.03358390625,14.310737812500001,5.99585390625,14.4033178125Q5.95813390625,14.4958978125,5.91166390625,14.5842678125Q5.86519390625,14.6726378125,5.81042390625,14.7559578125Q5.75565390625,14.8392778125,5.69311390625,14.9167378125Q5.6305739062499995,14.9941978125,5.56086390625,15.065057812500001Q5.49115390625,15.135907812500001,5.41495390625,15.1994778125Q5.33874390625,15.2630478125,5.25678390625,15.318717812500001Q5.17481390625,15.3743878125,5.08787390625,15.4216278125Q5.00092390625,15.468867812500001,4.9098539062499995,15.507207812499999Q4.81877390625,15.5455578125,4.72443390625,15.5746478125Q4.63010390625,15.6037378125,4.53341390625,15.6232878125Q4.43672390625,15.6428378125,4.33861390625,15.6526578125Q4.2405139062499995,15.6624778125,4.141933906249999,15.6624778125Q4.04334390625,15.6624778125,3.94524390625,15.6526578125Q3.84713390625,15.6428378125,3.75044390625,15.6232878125Q3.65376390625,15.6037378125,3.55942390625,15.5746478125Q3.4650839062500003,15.5455578125,3.37400390625,15.507207812499999Q3.2829339062500003,15.468867812500001,3.19599390625,15.4216278125Q3.10904790625,15.3743878125,3.02708090625,15.318717812500001Q2.94511290625,15.2630478125,2.86890790625,15.1994778125Q2.79270390625,15.135907812500001,2.72299590625,15.065057812500001Q2.65328790625,14.9941978125,2.59074890625,14.9167378125Q2.52820890625,14.8392778125,2.47343990625,14.7559578125Q2.41867090625,14.6726378125,2.37219990625,14.5842678125Q2.32572890625,14.4958978125,2.28800290625,14.4033178125Q2.25027790625,14.310737812500001,2.22166070625,14.2148478125Q2.19304390625,14.1189578125,2.17381160625,14.0206778125Q2.15457930625,13.9223978125,2.14491659625,13.8226678125Q2.13525390625,13.7229478125,2.13525390625,13.6227478125Q2.13525390625,13.5225378125,2.14491659625,13.4228178125Q2.15457930625,13.3230878125,2.17381160625,13.2248078125Q2.19304390625,13.126527812500001,2.22166070625,13.0306378125Q2.25027790625,12.9347478125,2.28800290625,12.8421678125Q2.32572890625,12.7495878125,2.37219990625,12.6612178125Q2.41867090625,12.5728448125,2.47343990625,12.4895268125Q2.52820890625,12.4062088125,2.59074790625,12.3287488125Q2.65328790625,12.2512888125,2.72299590625,12.1804328125Q2.79270390625,12.1095758125,2.86890790625,12.0460068125Q2.94511290625,11.9824368125,3.02708090625,11.9267648125Q3.10904790625,11.8710938125,3.19599390625,11.8238568125Q3.2829339062500003,11.7766208125,3.37400390625,11.7382738125Q3.4650839062500003,11.6999258125,3.55942390625,11.6708381125Q3.65376390625,11.6417499125,3.75044390625,11.6222007125Q3.84713390625,11.6026516125,3.94524390625,11.5928296925Q4.04334390625,11.5830078125,4.141933906249999,11.5830078125Q4.2405139062499995,11.5830078125,4.33861390625,11.5928296925Q4.43672390625,11.6026516125,4.53341390625,11.6222007125Q4.63010390625,11.6417499125,4.72443390625,11.6708381125Q4.81877390625,11.6999258125,4.9098539062499995,11.7382738125Q5.00092390625,11.7766208125,5.08787390625,11.8238568125Q5.17481390625,11.8710938125,5.25678390625,11.9267648125Q5.33874390625,11.9824368125,5.41495390625,12.0460068125Q5.49115390625,12.1095758125,5.56086390625,12.1804328125Q5.6305739062499995,12.2512888125,5.69311390625,12.3287488125Q5.75565390625,12.4062088125,5.81042390625,12.4895268125Q5.86519390625,12.5728448125,5.91166390625,12.6612178125Q5.95813390625,12.7495878125,5.99585390625,12.8421678125Q6.03358390625,12.9347478125,6.06220390625,13.0306378125Q6.09081390625,13.126527812500001,6.1100439062500005,13.2248078125Q6.12928390625,13.3230878125,6.13894390625,13.4228178125Q6.14860390625,13.5225378125,6.14860390625,13.6227478125Z" fill="#438DFB" fill-opacity="1"/></g></g></g></svg>