<svg xmlns="http://www.w3.org/2000/svg" xmlns:xlink="http://www.w3.org/1999/xlink" fill="none" version="1.1" width="44" height="44" viewBox="0 0 44 44"><defs><clipPath id="master_svg0_33_4409"><rect x="6" y="6" width="32" height="32" rx="0"/></clipPath><clipPath id="master_svg1_33_4399"><rect x="6" y="6" width="32" height="32" rx="0"/></clipPath><clipPath id="master_svg2_33_4422"><rect x="6" y="6" width="32" height="32" rx="0"/></clipPath><clipPath id="master_svg3_33_4437"><rect x="6.000000476837158" y="6.000000476837158" width="32" height="32" rx="0"/></clipPath><clipPath id="master_svg4_33_4432"><rect x="7.000000476837158" y="6.000000476837158" width="32" height="32" rx="0"/></clipPath></defs><g><g><g><g><rect x="0" y="0" width="44" height="44" rx="4" fill="#EEF6FF" fill-opacity="1"/></g><g clip-path="url(#master_svg0_33_4409)"><g><path d="M15.38906,12L28.267200000000003,12Q30.6562,12,30.6562,14.38906L30.6562,30.1734Q30.6562,32.5625,28.267200000000003,32.5625L15.38906,32.5625Q13,32.5625,13,30.1734L13,14.38906Q13,12,15.38906,12Z" fill="#0770FF" fill-opacity="1"/></g><g><path d="M17.29524,21.5L26.7048,21.5Q28,21.5,28,22.5Q28,23.5,26.7048,23.5L17.29524,23.5Q16.00000417233,23.5,16,22.5Q16,21.5,17.29524,21.5Z" fill="#3BDBFF" fill-opacity="1"/></g><g transform="matrix(0,-1,1,0,-13,45)"><path d="M17.40317,29L27.5968,29Q29,29,29,30Q29,31,27.5968,31L17.40317,31Q16,31,16,30Q16,29,17.40317,29Z" fill="#1C95FF" fill-opacity="1"/></g><g transform="matrix(0,-1,1,0,-3,55)"><path d="M27.40317,29L37.5968,29Q39,29,39,30Q39,31,37.5968,31L27.40317,31Q26,31,26,30Q26,29,27.40317,29Z" fill="#1C95FF" fill-opacity="1"/></g><g transform="matrix(0,-1,1,0,-8,50)"><path d="M22.40317,29L32.5968,29Q34,29,34,30Q34,31,32.5968,31L22.40317,31Q21,31,21,30Q21,29,22.40317,29Z" fill="#3BDBFF" fill-opacity="1"/></g><g><path d="M17.29524,27L26.7048,27Q28,27,28,28Q28,29,26.7048,29L17.29524,29Q16,29,16,28Q16,27,17.29524,27Z" fill="#1C95FF" fill-opacity="1"/></g><g><path d="M17.29524,16L26.7048,16Q28,16,28,17Q28,18,26.7048,18L17.29524,18Q16,18,16,17Q16,16,17.29524,16Z" fill="#1C95FF" fill-opacity="1"/></g></g></g><g><rect x="0.5" y="0.5" width="43" height="43" rx="3.5" fill-opacity="0" stroke-opacity="1" stroke="#CBD5E1" fill="none" stroke-width="1"/></g></g><g><g><g clip-path="url(#master_svg1_33_4399)"><g><path d="M29.9856,31.7056L12.48344,31.7056C11.664158,31.7056,11,31.0414,11,30.222160000000002L11,22.48684C11.0000598145,21.455912,12.02574,20.739384,12.99375,21.0940308L20.72406,23.92434C21.0536,24.04498,21.4152,24.04498,21.7447,23.92434L29.475,21.0918433C30.4439,20.736877,31.4702,21.454985,31.4688,22.48684L31.4688,30.222160000000002C31.4689,31.0414,30.8049,31.7056,29.9856,31.7056Z" fill="#1C95FF" fill-opacity="1"/></g><g><path d="M14.81313,12L28.0931,12Q29.9062,12,29.9062,13.81313L29.9062,25.7181Q29.9062,27.5312,28.0931,27.5312L14.81313,27.5312Q13,27.5312,13,25.7181L13,13.81313Q13,12,14.81313,12Z" fill="#1C95FF" fill-opacity="1"/></g><g><path d="M29.6938,21.0603125L21.96344,23.89219C21.63392,24.01282,21.27233,24.01282,20.94281,23.89219L13.2125,21.0603125C13.143253,21.0349902,13.0722253,21.0148303,13,21L13,25.57969C13,26.5807,13.811484,27.39219,14.8125,27.39219L28.0938,27.39219C29.0948,27.39219,29.9062,26.5807,29.9062,25.57969L29.9062,21C29.834,21.0149109,29.763,21.0350684,29.6938,21.0603125Z" fill="#3BDBFF" fill-opacity="1"/></g><g><path d="M17.1873,15L25.8127,15Q27,15,27,16Q27,17,25.8127,17L17.1873,17Q16,17,16,16Q16,15,17.1873,15Z" fill="#3BDBFF" fill-opacity="1"/></g><g><path d="M19.29348,19L23.70652,19Q25,19,25,20Q25,21,23.70652,21L19.29348,21Q18,21,18,20Q18,19,19.29348,19Z" fill="#3BDBFF" fill-opacity="1"/></g></g></g><g></g></g><g><g><g><rect x="0" y="0" width="44" height="44" rx="4" fill="#FFF5DA" fill-opacity="1"/></g><g clip-path="url(#master_svg2_33_4422)"><g><path d="M18.7650890625,16.376717875L10.5263340625,30.347021875C10.3799023625,30.595321875,10.3778338625,30.903121875,10.5209150625,31.153321875C10.6639960625,31.403521875,10.9302590625,31.557921874999998,11.2185220625,31.557621875000002L27.6954390625,31.557621875000002C27.9835390625,31.557621875000002,28.2496390625,31.403221875,28.3925390625,31.153021875C28.5354390625,30.902821875,28.5333390625,30.595221875,28.3869390625,30.347021875L20.1482090625,16.378279875C19.838229062499998,15.851160875,19.0762590625,15.850299875,18.7650890625,16.376717875Z" fill="#FCBA26" fill-opacity="1"/></g><g><path d="M27.791526875,23.0604126875L23.575592875,30.3582296875C23.266516875,30.8935596875,23.652753875,31.562749687500002,24.270905875,31.5629096875L32.702776875,31.5629096875C32.989696875,31.5629196875,33.254806875,31.409799687499998,33.398186875,31.1612796875C33.541596874999996,30.9127496875,33.541396875000004,30.6065996875,33.397776875,30.3582296875L29.181846874999998,23.0604126875C28.872796875,22.5254346875,28.100576875,22.5254346875,27.791526875,23.0604126875Z" fill="#FFDE09" fill-opacity="1"/></g><g><path d="M28.38726515625,30.3516015625L25.96008515625,26.2353515625L23.57570715625,30.3625415625C23.28542615625,30.8652515625,23.60819715625,31.5003715625,24.18539415625,31.5622215625L27.69570515625,31.5622215625C27.98385515625,31.5622415625,28.24991515625,31.4078315625,28.39284515625,31.1576215625C28.53576515625,30.907421562499998,28.53364515625,30.599801562499998,28.38726515625,30.3516015625Z" fill="#FB8B06" fill-opacity="1"/></g><g><path d="M30.21875,16.5625Q30.21875,16.654609999999998,30.20972,16.74628Q30.20069,16.83795,30.18272,16.92829Q30.16475,17.01864,30.13801,17.10678Q30.11127,17.19493,30.07602,17.28003Q30.040770000000002,17.36513,29.99735,17.44637Q29.95393,17.5276,29.90276,17.60419Q29.85158,17.68078,29.79314,17.75199Q29.73471,17.82319,29.66957,17.88832Q29.60444,17.95346,29.53324,18.01189Q29.46203,18.07033,29.38544,18.12151Q29.30885,18.17268,29.22762,18.2161Q29.14638,18.259520000000002,29.06128,18.29477Q28.97618,18.33002,28.88803,18.35676Q28.79989,18.3835,28.70954,18.40147Q28.6192,18.41944,28.52753,18.42847Q28.435859999999998,18.4375,28.34375,18.4375Q28.251640000000002,18.4375,28.15997,18.42847Q28.0683,18.41944,27.97796,18.40147Q27.88761,18.3835,27.79947,18.35676Q27.71132,18.33002,27.62622,18.29477Q27.54112,18.259520000000002,27.459881,18.2161Q27.378645,18.17268,27.302056,18.12151Q27.225467,18.07033,27.154263,18.01189Q27.083058,17.95346,27.017924999999998,17.88832Q26.952791,17.82319,26.894355,17.75199Q26.83592,17.68078,26.784744,17.60419Q26.733569,17.5276,26.690148,17.44637Q26.646726,17.36513,26.611476,17.28003Q26.576226,17.19493,26.5494869,17.10678Q26.5227479,17.01864,26.5047776,16.92829Q26.4868073,16.83795,26.47777864,16.74628Q26.46875,16.654609999999998,26.46875,16.5625Q26.46875,16.470390000000002,26.47777864,16.37872Q26.4868073,16.28705,26.5047776,16.19671Q26.5227479,16.10636,26.5494869,16.01822Q26.576226,15.93007,26.611476,15.84497Q26.646726,15.75987,26.690148,15.678631Q26.733569,15.597395,26.784744,15.520806Q26.83592,15.444217,26.894355,15.373013Q26.952791,15.301808,27.017924999999998,15.236675Q27.083058,15.171541,27.154262,15.113105000000001Q27.225467,15.05467,27.302056,15.003494Q27.378645,14.952319,27.459881,14.908898Q27.54112,14.865476,27.62622,14.830226Q27.71132,14.794976,27.79947,14.7682369Q27.88761,14.7414979,27.97796,14.7235276Q28.0683,14.7055573,28.15997,14.69652864Q28.251640000000002,14.6875,28.34375,14.6875Q28.435859999999998,14.6875,28.52753,14.69652864Q28.6192,14.7055573,28.70954,14.7235276Q28.79989,14.7414979,28.88803,14.7682369Q28.97618,14.794976,29.06128,14.830226Q29.14638,14.865476,29.22762,14.908898Q29.30885,14.952319,29.38544,15.003494Q29.46203,15.05467,29.53324,15.113105000000001Q29.60444,15.171541,29.66957,15.236675Q29.73471,15.301808,29.79314,15.373012Q29.85158,15.444217,29.90276,15.520806Q29.95393,15.597395,29.99735,15.678631Q30.040770000000002,15.75987,30.07602,15.84497Q30.11127,15.93007,30.13801,16.01822Q30.16475,16.10636,30.18272,16.19671Q30.20069,16.28705,30.20972,16.37872Q30.21875,16.470390000000002,30.21875,16.5625Z" fill="#FB8B06" fill-opacity="1"/></g></g></g><g><rect x="0.5" y="0.5" width="43" height="43" rx="3.5" fill-opacity="0" stroke-opacity="1" stroke="#CBD5E1" fill="none" stroke-width="1"/></g><g><g><rect x="0" y="0" width="44" height="44" rx="4" fill="#D9EAFF" fill-opacity="1"/></g><g clip-path="url(#master_svg3_33_4437)"><g><path d="M32.28278582839966,25.90462258621216Q32.28278582839966,26.04718258621216,32.27578582839966,26.18956258621216Q32.26878582839966,26.331952586212157,32.25488582839966,26.473822586212158Q32.240885828399655,26.61570258621216,32.21998582839966,26.75671258621216Q32.19908582839966,26.897732586212157,32.17128582839966,27.037552586212158Q32.14348582839966,27.177372586212158,32.10878582839966,27.31566258621216Q32.074185828399656,27.453942586212158,32.03278582839966,27.59036258621216Q31.991385828399657,27.72678258621216,31.943385828399656,27.86101258621216Q31.895385828399657,27.995232586212158,31.840885828399657,28.12694258621216Q31.786285828399656,28.258652586212158,31.72538582839966,28.387522586212157Q31.66438582839966,28.516392586212156,31.597285828399656,28.64212258621216Q31.530085828399656,28.767842586212158,31.45678582839966,28.890122586212158Q31.383485828399657,29.012402586212158,31.304285828399657,29.130932586212158Q31.22518582839966,29.249462586212157,31.14028582839966,29.363972586212157Q31.055285828399658,29.478472586212156,30.96488582839966,29.58867258621216Q30.874485828399656,29.698872586212158,30.778785828399656,29.80450258621216Q30.68308582839966,29.910132586212157,30.58228582839966,30.010932586212157Q30.48150582839966,30.111712586212157,30.375895828399656,30.207512586212157Q30.270285828399658,30.303212586212158,30.160115828399658,30.393612586212157Q30.049935828399658,30.484112586212156,29.935455828399657,30.56901258621216Q29.82097582839966,30.653912586212158,29.702475828399656,30.733112586212158Q29.583965828399656,30.81231258621216,29.461715828399658,30.885612586212158Q29.33946582839966,30.958912586212158,29.21376582839966,31.026112586212157Q29.088065828399657,31.093312586212157,28.95922582839966,31.154312586212157Q28.83037582839966,31.21521258621216,28.69870582839966,31.269812586212158Q28.567025828399657,31.32431258621216,28.432825828399658,31.372412586212157Q28.298625828399658,31.42041258621216,28.16223582839966,31.461812586212158Q28.02584582839966,31.503112586212158,27.887595828399657,31.53781258621216Q27.74933582839966,31.57241258621216,27.609545828399657,31.60021258621216Q27.46975582839966,31.628012586212158,27.328775828399657,31.64901258621216Q27.187785828399658,31.669912586212156,27.04594582839966,31.68391258621216Q26.904105828399658,31.69781258621216,26.761745828399658,31.704812586212157Q26.619395828399657,31.711812586212158,26.47686582839966,31.711812586212158Q26.33433582839966,31.711812586212158,26.19197582839966,31.704812586212157Q26.04962582839966,31.69781258621216,25.907785828399657,31.68391258621216Q25.76593582839966,31.669912586212156,25.624955828399656,31.64901258621216Q25.483965828399658,31.628012586212158,25.34418582839966,31.60021258621216Q25.204395828399658,31.57241258621216,25.06613582839966,31.53781258621216Q24.927875828399657,31.503112586212158,24.791485828399658,31.461812586212158Q24.65509582839966,31.42041258621216,24.52090582839966,31.372412586212157Q24.38670582839966,31.32431258621216,24.25502582839966,31.269812586212158Q24.123345828399657,31.21521258621216,23.99450582839966,31.154312586212157Q23.865655828399657,31.093312586212157,23.739965828399658,31.026112586212157Q23.61426582839966,30.958912586212158,23.49201582839966,30.885612586212158Q23.369765828399657,30.81231258621216,23.251255828399657,30.733112586212158Q23.132745828399656,30.653912586212158,23.01826582839966,30.56901258621216Q22.90378582839966,30.484112586212156,22.79361582839966,30.393612586212157Q22.68343582839966,30.303212586212158,22.577835828399657,30.207512586212157Q22.472225828399658,30.111712586212157,22.371445828399658,30.010932586212157Q22.270655828399658,29.910132586212157,22.174945828399657,29.80450258621216Q22.079225828399657,29.698872586212158,21.98880582839966,29.58867258621216Q21.898395828399657,29.478472586212156,21.813485828399656,29.363972586212157Q21.72858582839966,29.249462586212157,21.64939982839966,29.130932586212158Q21.570215828399657,29.012402586212158,21.49694182839966,28.890122586212158Q21.423667828399658,28.767842586212158,21.356480828399658,28.64212258621216Q21.28929282839966,28.516392586212156,21.22835482839966,28.387522586212157Q21.16741582839966,28.258652586212158,21.11287282839966,28.12694258621216Q21.058329828399657,27.995232586212158,21.01031382839966,27.86101258621216Q20.96229782839966,27.72678258621216,20.92092382839966,27.59036258621216Q20.87955082839966,27.453942586212158,20.84491882839966,27.31566258621216Q20.81028782839966,27.177372586212158,20.782481828399657,27.037552586212158Q20.75467582839966,26.897732586212157,20.73376262839966,26.75671258621216Q20.712849428399657,26.61570258621216,20.69887932839966,26.473832586212158Q20.684909128399656,26.331952586212157,20.67791561839966,26.18956258621216Q20.670922108399658,26.04718258621216,20.670922108399658,25.90462258621216Q20.670922108399658,25.76206258621216,20.67791561839966,25.619672586212157Q20.684909128399656,25.477292586212158,20.69887932839966,25.335412586212158Q20.712849428399657,25.193542586212157,20.73376262839966,25.05252258621216Q20.75467582839966,24.911512586212158,20.782481828399657,24.771692586212158Q20.81028782839966,24.631872586212157,20.84491882839966,24.493582586212156Q20.87955082839966,24.35529258621216,20.92092382839966,24.218872586212157Q20.96229782839966,24.08245258621216,21.01031382839966,23.948232586212157Q21.058329828399657,23.81400258621216,21.11287282839966,23.68230258621216Q21.16741582839966,23.550592586212158,21.22835482839966,23.42172258621216Q21.28929282839966,23.29285258621216,21.356480828399658,23.16712258621216Q21.423667828399658,23.041392586212158,21.49694182839966,22.919122586212158Q21.570215828399657,22.796842586212158,21.64939982839966,22.678312586212158Q21.72858582839966,22.55977258621216,21.813485828399656,22.44527258621216Q21.898395828399657,22.33076258621216,21.98880582839966,22.220562586212157Q22.079225828399657,22.110362586212158,22.174945828399657,22.00474258621216Q22.270655828399658,21.89911258621216,22.371445828399658,21.79830258621216Q22.472225828399658,21.69750258621216,22.577835828399657,21.601762586212157Q22.68343582839966,21.506022586212158,22.79361582839966,21.415592586212156Q22.90378582839966,21.32515258621216,23.01826582839966,21.24022258621216Q23.132745828399656,21.15530258621216,23.251255828399657,21.07610358621216Q23.369765828399657,20.996901586212157,23.49201582839966,20.92361258621216Q23.61426582839966,20.850322586212158,23.739965828399658,20.783120586212156Q23.865655828399657,20.715918586212158,23.99450582839966,20.654966586212158Q24.123345828399657,20.594014586212158,24.25502582839966,20.539459586212157Q24.38670582839966,20.48490458621216,24.52090582839966,20.43687858621216Q24.65509582839966,20.38885158621216,24.791485828399658,20.34746858621216Q24.927875828399657,20.306086586212157,25.06613582839966,20.271447586212158Q25.204395828399658,20.23680858621216,25.34418582839966,20.20899658621216Q25.483965828399658,20.181184586212158,25.624955828399656,20.16026688621216Q25.76593582839966,20.139349086212157,25.907785828399657,20.125375886212158Q26.04962582839966,20.11140268621216,26.19197582839966,20.104407626212158Q26.33433582839966,20.097412586212158,26.47686582839966,20.097412586212158Q26.619395828399657,20.097412586212158,26.761745828399658,20.104407626212158Q26.904105828399658,20.11140268621216,27.04594582839966,20.125375886212158Q27.187785828399658,20.139349086212157,27.328775828399657,20.16026688621216Q27.46975582839966,20.181184586212158,27.609545828399657,20.20899658621216Q27.74933582839966,20.23680858621216,27.887595828399657,20.271447586212158Q28.02584582839966,20.306086586212157,28.16223582839966,20.34746858621216Q28.298625828399658,20.38885158621216,28.432825828399658,20.43687858621216Q28.567025828399657,20.48490458621216,28.69870582839966,20.539459586212157Q28.83037582839966,20.594014586212158,28.95922582839966,20.654966586212158Q29.088065828399657,20.715918586212158,29.21376582839966,20.783120586212156Q29.33946582839966,20.850322586212158,29.461715828399658,20.92361258621216Q29.583965828399656,20.996901586212157,29.702475828399656,21.07610358621216Q29.82097582839966,21.15530258621216,29.935455828399657,21.24022258621216Q30.049935828399658,21.32515258621216,30.160115828399658,21.415592586212156Q30.270285828399658,21.506022586212158,30.375895828399656,21.601762586212157Q30.48150582839966,21.69750258621216,30.58228582839966,21.79830258621216Q30.68308582839966,21.89911258621216,30.778785828399656,22.00474258621216Q30.874485828399656,22.110362586212158,30.96488582839966,22.220562586212157Q31.055385828399658,22.33076258621216,31.14028582839966,22.44527258621216Q31.22518582839966,22.55977258621216,31.304285828399657,22.678312586212158Q31.383485828399657,22.796842586212158,31.45678582839966,22.919122586212158Q31.530085828399656,23.041392586212158,31.597285828399656,23.16712258621216Q31.66438582839966,23.29285258621216,31.72538582839966,23.42172258621216Q31.786285828399656,23.550592586212158,31.840885828399657,23.68230258621216Q31.895385828399657,23.81400258621216,31.943385828399656,23.948232586212157Q31.991385828399657,24.08245258621216,32.03278582839966,24.218872586212157Q32.074185828399656,24.35529258621216,32.10878582839966,24.493582586212156Q32.14348582839966,24.631872586212157,32.17128582839966,24.771692586212158Q32.19908582839966,24.911512586212158,32.21998582839966,25.05252258621216Q32.240885828399655,25.193542586212157,32.25488582839966,25.335412586212158Q32.26878582839966,25.477292586212158,32.27578582839966,25.619672586212157Q32.28278582839966,25.76206258621216,32.28278582839966,25.90462258621216Z" fill="#3BDBFF" fill-opacity="1"/></g><g><path d="M32.28278582839966,18.13069680496216Q32.28278582839966,18.27325680496216,32.27578582839966,18.41563680496216Q32.26878582839966,18.558026804962157,32.25488582839966,18.699896804962158Q32.240885828399655,18.84177680496216,32.21998582839966,18.98278680496216Q32.19908582839966,19.123806804962157,32.17128582839966,19.263626804962158Q32.14348582839966,19.403446804962158,32.10878582839966,19.54173680496216Q32.074185828399656,19.680016804962158,32.03278582839966,19.81643680496216Q31.991385828399657,19.95285680496216,31.943385828399656,20.08708680496216Q31.895385828399657,20.221306804962158,31.840885828399657,20.35301680496216Q31.786285828399656,20.484726804962158,31.72538582839966,20.613596804962157Q31.66438582839966,20.742466804962156,31.597285828399656,20.86819680496216Q31.530085828399656,20.993916804962158,31.45678582839966,21.116196804962158Q31.383485828399657,21.238476804962158,31.304285828399657,21.357006804962158Q31.22518582839966,21.475536804962157,31.14028582839966,21.590046804962157Q31.055285828399658,21.704546804962156,30.96488582839966,21.81474680496216Q30.874485828399656,21.924946804962158,30.778785828399656,22.03057680496216Q30.68308582839966,22.136206804962157,30.58228582839966,22.237006804962157Q30.48150582839966,22.337786804962157,30.375895828399656,22.433586804962157Q30.270285828399658,22.529286804962158,30.160115828399658,22.619686804962157Q30.049935828399658,22.710186804962156,29.935455828399657,22.79508680496216Q29.82097582839966,22.879986804962158,29.702475828399656,22.959186804962158Q29.583965828399656,23.03838680496216,29.461715828399658,23.111686804962158Q29.33946582839966,23.184986804962158,29.21376582839966,23.252186804962157Q29.088065828399657,23.319386804962157,28.95922582839966,23.380386804962157Q28.83037582839966,23.44128680496216,28.69870582839966,23.495886804962158Q28.567025828399657,23.55038680496216,28.432825828399658,23.598486804962157Q28.298625828399658,23.64648680496216,28.16223582839966,23.687886804962158Q28.02584582839966,23.729186804962158,27.887595828399657,23.76388680496216Q27.74933582839966,23.79848680496216,27.609545828399657,23.82628680496216Q27.46975582839966,23.854086804962158,27.328775828399657,23.87508680496216Q27.187785828399658,23.895986804962156,27.04594582839966,23.90998680496216Q26.904105828399658,23.92388680496216,26.761745828399658,23.930886804962157Q26.619395828399657,23.937886804962158,26.47686582839966,23.937886804962158Q26.33433582839966,23.937886804962158,26.19197582839966,23.930886804962157Q26.04962582839966,23.92388680496216,25.907785828399657,23.90998680496216Q25.76593582839966,23.895986804962156,25.624955828399656,23.87508680496216Q25.483965828399658,23.854086804962158,25.34418582839966,23.82628680496216Q25.204395828399658,23.79848680496216,25.06613582839966,23.76388680496216Q24.927875828399657,23.729186804962158,24.791485828399658,23.687886804962158Q24.65509582839966,23.64648680496216,24.52090582839966,23.598486804962157Q24.38670582839966,23.55038680496216,24.25502582839966,23.495886804962158Q24.123345828399657,23.44128680496216,23.99450582839966,23.380386804962157Q23.865655828399657,23.319386804962157,23.739965828399658,23.252186804962157Q23.61426582839966,23.184986804962158,23.49201582839966,23.111686804962158Q23.369765828399657,23.03838680496216,23.251255828399657,22.959186804962158Q23.132745828399656,22.879986804962158,23.01826582839966,22.79508680496216Q22.90378582839966,22.710186804962156,22.79361582839966,22.619686804962157Q22.68343582839966,22.529286804962158,22.577835828399657,22.433586804962157Q22.472225828399658,22.337786804962157,22.371445828399658,22.237006804962157Q22.270655828399658,22.136206804962157,22.174945828399657,22.03057680496216Q22.079225828399657,21.924946804962158,21.98880582839966,21.81474680496216Q21.898395828399657,21.704546804962156,21.813485828399656,21.590046804962157Q21.72858582839966,21.475536804962157,21.64939982839966,21.357006804962158Q21.570215828399657,21.238476804962158,21.49694182839966,21.116196804962158Q21.423667828399658,20.993916804962158,21.356480828399658,20.86819680496216Q21.28929282839966,20.742466804962156,21.22835482839966,20.613596804962157Q21.16741582839966,20.484726804962158,21.11287282839966,20.35301680496216Q21.058329828399657,20.221306804962158,21.01031382839966,20.08708680496216Q20.96229782839966,19.95285680496216,20.92092382839966,19.81643680496216Q20.87955082839966,19.680016804962158,20.84491882839966,19.54173680496216Q20.81028782839966,19.403446804962158,20.782481828399657,19.263626804962158Q20.75467582839966,19.123806804962157,20.73376262839966,18.98278680496216Q20.712849428399657,18.84177680496216,20.69887932839966,18.699906804962158Q20.684909128399656,18.558026804962157,20.67791561839966,18.41563680496216Q20.670922108399658,18.27325680496216,20.670922108399658,18.13069680496216Q20.670922108399658,17.98813680496216,20.67791561839966,17.845746804962157Q20.684909128399656,17.703366804962158,20.69887932839966,17.561486804962158Q20.712849428399657,17.419616804962157,20.73376262839966,17.27859680496216Q20.75467582839966,17.137586804962158,20.782481828399657,16.997766804962158Q20.81028782839966,16.857946804962157,20.84491882839966,16.719656804962156Q20.87955082839966,16.58136680496216,20.92092382839966,16.444946804962157Q20.96229782839966,16.30852680496216,21.01031382839966,16.174306804962157Q21.058329828399657,16.04007680496216,21.11287282839966,15.908376804962158Q21.16741582839966,15.776666804962158,21.22835482839966,15.647796804962159Q21.28929282839966,15.518926804962158,21.356480828399658,15.393196804962159Q21.423667828399658,15.267466804962158,21.49694182839966,15.145196804962158Q21.570215828399657,15.022916804962158,21.64939982839966,14.904386804962158Q21.72858582839966,14.785846804962159,21.813485828399656,14.671346804962159Q21.898395828399657,14.556836804962158,21.98880582839966,14.446636804962157Q22.079225828399657,14.336436804962158,22.174945828399657,14.230816804962158Q22.270655828399658,14.125186804962159,22.371445828399658,14.024376804962158Q22.472225828399658,13.923576804962158,22.577835828399657,13.827836804962159Q22.68343582839966,13.732096804962158,22.79361582839966,13.641666804962158Q22.90378582839966,13.551226804962159,23.01826582839966,13.466296804962159Q23.132745828399656,13.381376804962159,23.251255828399657,13.302177804962158Q23.369765828399657,13.222975804962157,23.49201582839966,13.149686804962158Q23.61426582839966,13.076396804962158,23.739965828399658,13.009194804962158Q23.865655828399657,12.941992804962158,23.99450582839966,12.881040804962158Q24.123345828399657,12.820088804962158,24.25502582839966,12.765533804962159Q24.38670582839966,12.710978804962158,24.52090582839966,12.662952804962158Q24.65509582839966,12.614925804962159,24.791485828399658,12.573542804962159Q24.927875828399657,12.532160804962158,25.06613582839966,12.497521804962158Q25.204395828399658,12.462882804962158,25.34418582839966,12.435070804962159Q25.483965828399658,12.407258804962158,25.624955828399656,12.386341104962158Q25.76593582839966,12.365423304962158,25.907785828399657,12.351450104962158Q26.04962582839966,12.337476904962157,26.19197582839966,12.330481844962158Q26.33433582839966,12.323486804962158,26.47686582839966,12.323486804962158Q26.619395828399657,12.323486804962158,26.761745828399658,12.330481844962158Q26.904105828399658,12.337476904962157,27.04594582839966,12.351450104962158Q27.187785828399658,12.365423304962158,27.328775828399657,12.386341104962158Q27.46975582839966,12.407258804962158,27.609545828399657,12.435070804962159Q27.74933582839966,12.462882804962158,27.887595828399657,12.497521804962158Q28.02584582839966,12.532160804962158,28.16223582839966,12.573542804962159Q28.298625828399658,12.614925804962159,28.432825828399658,12.662952804962158Q28.567025828399657,12.710978804962158,28.69870582839966,12.765533804962159Q28.83037582839966,12.820088804962158,28.95922582839966,12.881040804962158Q29.088065828399657,12.941992804962158,29.21376582839966,13.009194804962158Q29.33946582839966,13.076396804962158,29.461715828399658,13.149686804962158Q29.583965828399656,13.222975804962157,29.702475828399656,13.302177804962158Q29.82097582839966,13.381376804962159,29.935455828399657,13.466296804962159Q30.049935828399658,13.551226804962159,30.160115828399658,13.641666804962158Q30.270285828399658,13.732096804962158,30.375895828399656,13.827836804962159Q30.48150582839966,13.923576804962158,30.58228582839966,14.024376804962158Q30.68308582839966,14.125186804962159,30.778785828399656,14.230816804962158Q30.874485828399656,14.336436804962158,30.96488582839966,14.446636804962157Q31.055385828399658,14.556836804962158,31.14028582839966,14.671346804962159Q31.22518582839966,14.785846804962159,31.304285828399657,14.904386804962158Q31.383485828399657,15.022916804962158,31.45678582839966,15.145196804962158Q31.530085828399656,15.267466804962158,31.597285828399656,15.393196804962159Q31.66438582839966,15.518926804962158,31.72538582839966,15.647796804962159Q31.786285828399656,15.776666804962158,31.840885828399657,15.908376804962158Q31.895385828399657,16.04007680496216,31.943385828399656,16.174306804962157Q31.991385828399657,16.30852680496216,32.03278582839966,16.444946804962157Q32.074185828399656,16.58136680496216,32.10878582839966,16.719656804962156Q32.14348582839966,16.857946804962157,32.17128582839966,16.997766804962158Q32.19908582839966,17.137586804962158,32.21998582839966,17.27859680496216Q32.240885828399655,17.419616804962157,32.25488582839966,17.561486804962158Q32.26878582839966,17.703366804962158,32.27578582839966,17.845746804962157Q32.28278582839966,17.98813680496216,32.28278582839966,18.13069680496216Z" fill="#1C95FF" fill-opacity="1"/></g><g><path d="M23.60865470046997,25.901782586212157Q23.60865470046997,26.04427258621216,23.60175470046997,26.186592586212157Q23.59475470046997,26.32891258621216,23.58075470046997,26.47071258621216Q23.56675470046997,26.612522586212158,23.54585470046997,26.75346258621216Q23.52495470046997,26.89441258621216,23.49715470046997,27.034162586212158Q23.46935470046997,27.173912586212158,23.43475470046997,27.312132586212158Q23.40015470046997,27.45035258621216,23.358754700469973,27.58671258621216Q23.317454700469973,27.72306258621216,23.269354700469968,27.85722258621216Q23.22135470046997,27.991382586212158,23.16685470046997,28.12302258621216Q23.11235470046997,28.254662586212156,23.05145470046997,28.383472586212157Q22.99045470046997,28.51228258621216,22.92335470046997,28.637952586212158Q22.856154700469972,28.763612586212158,22.782954700469972,28.88583258621216Q22.70965470046997,29.008042586212156,22.63045470046997,29.126522586212158Q22.55135470046997,29.244992586212156,22.46645470046997,29.359442586212158Q22.38155470046997,29.47389258621216,22.29115470046997,29.584042586212156Q22.20075470046997,29.694182586212158,22.10505470046997,29.799762586212157Q22.00935470046997,29.905342586212157,21.90864470046997,30.00609258621216Q21.80788470046997,30.106812586212158,21.70230470046997,30.20251258621216Q21.596734700469973,30.29821258621216,21.48658470046997,30.388612586212158Q21.37643470046997,30.479012586212157,21.26199470046997,30.563912586212158Q21.14754470046997,30.64881258621216,21.02906470046997,30.727912586212156Q20.91059470046997,30.807112586212156,20.788374700469973,30.880312586212156Q20.66615470046997,30.95361258621216,20.54049470046997,31.02081258621216Q20.41482470046997,31.08791258621216,20.28601470046997,31.14891258621216Q20.15720470046997,31.20981258621216,20.02556470046997,31.264312586212156Q19.89392470046997,31.318812586212157,19.759764700469972,31.366812586212156Q19.62560470046997,31.414812586212157,19.48925470046997,31.45621258621216Q19.35289470046997,31.497612586212156,19.21467470046997,31.532212586212157Q19.07645470046997,31.56681258621216,18.93670470046997,31.594612586212158Q18.79695470046997,31.622412586212157,18.65600470046997,31.643312586212158Q18.51506470046997,31.66421258621216,18.37325470046997,31.678212586212158Q18.23145470046997,31.692212586212158,18.08913470046997,31.69921258621216Q17.94681470046997,31.706112586212157,17.80432470046997,31.706112586212157Q17.66184470046997,31.706112586212157,17.519524700469972,31.69921258621216Q17.37720470046997,31.692212586212158,17.23540470046997,31.678212586212158Q17.09359470046997,31.66421258621216,16.95265470046997,31.643312586212158Q16.81170470046997,31.622412586212157,16.67195470046997,31.594612586212158Q16.532204700469972,31.56681258621216,16.39398470046997,31.532212586212157Q16.25576470046997,31.497612586212156,16.11940470046997,31.45621258621216Q15.983054700469971,31.414812586212157,15.84889470046997,31.366812586212156Q15.714734700469972,31.318812586212157,15.583094700469971,31.264312586212156Q15.45144470046997,31.20981258621216,15.32263470046997,31.14891258621216Q15.19383470046997,31.08791258621216,15.068164700469971,31.02081258621216Q14.942504700469971,30.95361258621216,14.820284700469971,30.880312586212156Q14.69806470046997,30.807112586212156,14.57959470046997,30.727912586212156Q14.46111470046997,30.64881258621216,14.34666470046997,30.563912586212158Q14.23221470046997,30.479012586212157,14.12207470046997,30.388612586212158Q14.01192470046997,30.29821258621216,13.90634470046997,30.20251258621216Q13.80077470046997,30.106812586212158,13.700014700469971,30.00609258621216Q13.59926470046997,29.905342586212157,13.50357470046997,29.799762586212157Q13.407884700469971,29.694182586212158,13.31748470046997,29.584042586212156Q13.227094700469971,29.47389258621216,13.142214700469971,29.359442586212158Q13.057334700469971,29.24500258621216,12.978167700469971,29.126522586212158Q12.899004700469971,29.008042586212156,12.825750700469971,28.88583258621216Q12.75249670046997,28.763612586212158,12.685327700469971,28.637952586212158Q12.618158700469971,28.51228258621216,12.557236700469971,28.383472586212157Q12.49631470046997,28.254662586212156,12.44178670046997,28.12302258621216Q12.38725770046997,27.991382586212158,12.33925470046997,27.85722258621216Q12.29125170046997,27.72306258621216,12.24988870046997,27.58670258621216Q12.208526700469971,27.45035258621216,12.17390470046997,27.312132586212158Q12.139282700469971,27.173912586212158,12.111483700469972,27.034162586212158Q12.08368580046997,26.89441258621216,12.06277830046997,26.75346258621216Q12.041870700469971,26.612522586212158,12.02790430046997,26.47071258621216Q12.013937900469971,26.32891258621216,12.006946320469972,26.186592586212157Q11.99995470046997,26.04427258621216,11.99995470046997,25.901782586212157Q11.99995470046997,25.75929258621216,12.006946320469972,25.61698258621216Q12.013937900469971,25.47466258621216,12.02790430046997,25.33286258621216Q12.041870700469971,25.19105258621216,12.06277830046997,25.05010258621216Q12.08368580046997,24.909162586212158,12.111483700469972,24.76941258621216Q12.139282700469971,24.62965258621216,12.17390470046997,24.49144258621216Q12.208526700469971,24.35322258621216,12.24988870046997,24.21686258621216Q12.29125170046997,24.08051258621216,12.33925470046997,23.946352586212157Q12.38725770046997,23.81219258621216,12.44178670046997,23.68055258621216Q12.49631470046997,23.548902586212158,12.557236700469971,23.420092586212157Q12.618158700469971,23.29129258621216,12.685327700469971,23.16562258621216Q12.75249670046997,23.03996258621216,12.825750700469971,22.917742586212157Q12.899004700469971,22.795522586212158,12.978167700469971,22.67705258621216Q13.057334700469971,22.558572586212158,13.142214700469971,22.44412258621216Q13.227094700469971,22.32967258621216,13.31748470046997,22.219532586212157Q13.407884700469971,22.109382586212156,13.50357470046997,22.00380258621216Q13.59926470046997,21.89823258621216,13.700014700469971,21.79747258621216Q13.80077470046997,21.696722586212157,13.90634470046997,21.60103258621216Q14.01192470046997,21.50534258621216,14.12207470046997,21.41494258621216Q14.23221470046997,21.324552586212157,14.34666470046997,21.23967258621216Q14.46111470046997,21.154792586212157,14.57959470046997,21.07562558621216Q14.69806470046997,20.996462586212157,14.820284700469971,20.92320858621216Q14.942504700469971,20.849954586212156,15.068164700469971,20.782785586212157Q15.19383470046997,20.715616586212157,15.32263470046997,20.65469458621216Q15.45144470046997,20.593772586212157,15.583094700469971,20.53924458621216Q15.714734700469972,20.484715586212157,15.84889470046997,20.43671258621216Q15.983054700469971,20.38870958621216,16.11940470046997,20.347346586212158Q16.25576470046997,20.30598458621216,16.39398470046997,20.27136258621216Q16.532204700469972,20.236740586212157,16.67195470046997,20.20894158621216Q16.81170470046997,20.18114368621216,16.95265470046997,20.16023618621216Q17.09359470046997,20.13932858621216,17.23540470046997,20.125362186212158Q17.37720470046997,20.111395786212157,17.519524700469972,20.10440420621216Q17.66184470046997,20.097412586212158,17.80432470046997,20.097412586212158Q17.94681470046997,20.097412586212158,18.08913470046997,20.10440420621216Q18.23145470046997,20.111395786212157,18.37325470046997,20.125362186212158Q18.51506470046997,20.13932858621216,18.65600470046997,20.16023618621216Q18.79695470046997,20.18114368621216,18.93670470046997,20.20894158621216Q19.07645470046997,20.236740586212157,19.21467470046997,20.27136258621216Q19.35289470046997,20.30598458621216,19.48925470046997,20.347346586212158Q19.62560470046997,20.38870958621216,19.759764700469972,20.43671258621216Q19.89392470046997,20.484715586212157,20.02556470046997,20.53924458621216Q20.15720470046997,20.593772586212157,20.28601470046997,20.65469458621216Q20.41482470046997,20.715616586212157,20.54049470046997,20.782785586212157Q20.66615470046997,20.849954586212156,20.788374700469973,20.92320858621216Q20.91059470046997,20.996462586212157,21.02906470046997,21.07562558621216Q21.14754470046997,21.154792586212157,21.26199470046997,21.23967258621216Q21.37643470046997,21.324552586212157,21.48658470046997,21.41494258621216Q21.596734700469973,21.50534258621216,21.70230470046997,21.60103258621216Q21.80788470046997,21.696722586212157,21.90864470046997,21.79747258621216Q22.00935470046997,21.89823258621216,22.10505470046997,22.00380258621216Q22.20075470046997,22.109382586212156,22.29115470046997,22.219532586212157Q22.38155470046997,22.32967258621216,22.46645470046997,22.44412258621216Q22.55135470046997,22.558572586212158,22.63045470046997,22.67705258621216Q22.70965470046997,22.795522586212158,22.782954700469972,22.917742586212157Q22.856154700469972,23.03996258621216,22.92335470046997,23.16562258621216Q22.99045470046997,23.29129258621216,23.05145470046997,23.420092586212157Q23.11235470046997,23.548902586212158,23.16685470046997,23.68055258621216Q23.22135470046997,23.81219258621216,23.269354700469968,23.946352586212157Q23.317454700469973,24.08051258621216,23.358754700469973,24.21686258621216Q23.40015470046997,24.35322258621216,23.43475470046997,24.49144258621216Q23.46935470046997,24.62965258621216,23.49715470046997,24.76941258621216Q23.52495470046997,24.909162586212158,23.54585470046997,25.05010258621216Q23.56675470046997,25.19105258621216,23.58075470046997,25.33286258621216Q23.59475470046997,25.47466258621216,23.60175470046997,25.61698258621216Q23.60865470046997,25.75929258621216,23.60865470046997,25.901782586212157Z" fill="#1C95FF" fill-opacity="1"/></g><g><path d="M23.60865470046997,18.127856804962157Q23.60865470046997,18.27034680496216,23.60175470046997,18.412666804962157Q23.59475470046997,18.55498680496216,23.58075470046997,18.69678680496216Q23.56675470046997,18.838596804962158,23.54585470046997,18.97953680496216Q23.52495470046997,19.12048680496216,23.49715470046997,19.260236804962158Q23.46935470046997,19.399986804962158,23.43475470046997,19.538206804962158Q23.40015470046997,19.67642680496216,23.358754700469973,19.81278680496216Q23.317454700469973,19.94913680496216,23.269354700469968,20.08329680496216Q23.22135470046997,20.217456804962158,23.16685470046997,20.34909680496216Q23.11235470046997,20.480736804962156,23.05145470046997,20.609546804962157Q22.99045470046997,20.73835680496216,22.92335470046997,20.864026804962158Q22.856154700469972,20.989686804962158,22.782954700469972,21.11190680496216Q22.70965470046997,21.234116804962156,22.63045470046997,21.352596804962158Q22.55135470046997,21.471066804962156,22.46645470046997,21.585516804962158Q22.38155470046997,21.69996680496216,22.29115470046997,21.810116804962156Q22.20075470046997,21.920256804962158,22.10505470046997,22.025836804962157Q22.00935470046997,22.131416804962157,21.90864470046997,22.23216680496216Q21.80788470046997,22.332886804962158,21.70230470046997,22.42858680496216Q21.596734700469973,22.52428680496216,21.48658470046997,22.614686804962158Q21.37643470046997,22.705086804962157,21.26199470046997,22.789986804962158Q21.14754470046997,22.87488680496216,21.02906470046997,22.953986804962156Q20.91059470046997,23.033186804962156,20.788374700469973,23.106386804962156Q20.66615470046997,23.17968680496216,20.54049470046997,23.24688680496216Q20.41482470046997,23.31398680496216,20.28601470046997,23.37498680496216Q20.15720470046997,23.43588680496216,20.02556470046997,23.490386804962156Q19.89392470046997,23.544886804962157,19.759764700469972,23.592886804962156Q19.62560470046997,23.640886804962157,19.48925470046997,23.68228680496216Q19.35289470046997,23.723686804962156,19.21467470046997,23.758286804962157Q19.07645470046997,23.79288680496216,18.93670470046997,23.820686804962158Q18.79695470046997,23.848486804962157,18.65600470046997,23.869386804962158Q18.51506470046997,23.89028680496216,18.37325470046997,23.904286804962158Q18.23145470046997,23.918286804962158,18.08913470046997,23.92528680496216Q17.94681470046997,23.932186804962157,17.80432470046997,23.932186804962157Q17.66184470046997,23.932186804962157,17.519524700469972,23.92528680496216Q17.37720470046997,23.918286804962158,17.23540470046997,23.904286804962158Q17.09359470046997,23.89028680496216,16.95265470046997,23.869386804962158Q16.81170470046997,23.848486804962157,16.67195470046997,23.820686804962158Q16.532204700469972,23.79288680496216,16.39398470046997,23.758286804962157Q16.25576470046997,23.723686804962156,16.11940470046997,23.68228680496216Q15.983054700469971,23.640886804962157,15.84889470046997,23.592886804962156Q15.714734700469972,23.544886804962157,15.583094700469971,23.490386804962156Q15.45144470046997,23.43588680496216,15.32263470046997,23.37498680496216Q15.19383470046997,23.31398680496216,15.068164700469971,23.24688680496216Q14.942504700469971,23.17968680496216,14.820284700469971,23.106386804962156Q14.69806470046997,23.033186804962156,14.57959470046997,22.953986804962156Q14.46111470046997,22.87488680496216,14.34666470046997,22.789986804962158Q14.23221470046997,22.705086804962157,14.12207470046997,22.614686804962158Q14.01192470046997,22.52428680496216,13.90634470046997,22.42858680496216Q13.80077470046997,22.332886804962158,13.700014700469971,22.23216680496216Q13.59926470046997,22.131416804962157,13.50357470046997,22.025836804962157Q13.407884700469971,21.920256804962158,13.31748470046997,21.810116804962156Q13.227094700469971,21.69996680496216,13.142214700469971,21.585516804962158Q13.057334700469971,21.47107680496216,12.978167700469971,21.352596804962158Q12.899004700469971,21.234116804962156,12.825750700469971,21.11190680496216Q12.75249670046997,20.989686804962158,12.685327700469971,20.864026804962158Q12.618158700469971,20.73835680496216,12.557236700469971,20.609546804962157Q12.49631470046997,20.480736804962156,12.44178670046997,20.34909680496216Q12.38725770046997,20.217456804962158,12.33925470046997,20.08329680496216Q12.29125170046997,19.94913680496216,12.24988870046997,19.81277680496216Q12.208526700469971,19.67642680496216,12.17390470046997,19.538206804962158Q12.139282700469971,19.399986804962158,12.111483700469972,19.260236804962158Q12.08368580046997,19.12048680496216,12.06277830046997,18.97953680496216Q12.041870700469971,18.838596804962158,12.02790430046997,18.69678680496216Q12.013937900469971,18.55498680496216,12.006946320469972,18.412666804962157Q11.99995470046997,18.27034680496216,11.99995470046997,18.127856804962157Q11.99995470046997,17.98536680496216,12.006946320469972,17.84305680496216Q12.013937900469971,17.70073680496216,12.02790430046997,17.55893680496216Q12.041870700469971,17.41712680496216,12.06277830046997,17.27617680496216Q12.08368580046997,17.135236804962158,12.111483700469972,16.99548680496216Q12.139282700469971,16.85572680496216,12.17390470046997,16.71751680496216Q12.208526700469971,16.57929680496216,12.24988870046997,16.44293680496216Q12.29125170046997,16.30658680496216,12.33925470046997,16.172426804962157Q12.38725770046997,16.03826680496216,12.44178670046997,15.906626804962158Q12.49631470046997,15.774976804962158,12.557236700469971,15.646166804962158Q12.618158700469971,15.517366804962158,12.685327700469971,15.391696804962159Q12.75249670046997,15.266036804962159,12.825750700469971,15.143816804962158Q12.899004700469971,15.021596804962158,12.978167700469971,14.903126804962158Q13.057334700469971,14.784646804962158,13.142214700469971,14.670196804962158Q13.227094700469971,14.555746804962158,13.31748470046997,14.445606804962157Q13.407884700469971,14.335456804962158,13.50357470046997,14.229876804962158Q13.59926470046997,14.124306804962158,13.700014700469971,14.023546804962159Q13.80077470046997,13.922796804962157,13.90634470046997,13.827106804962158Q14.01192470046997,13.731416804962159,14.12207470046997,13.641016804962158Q14.23221470046997,13.550626804962159,14.34666470046997,13.465746804962158Q14.46111470046997,13.380866804962158,14.57959470046997,13.301699804962158Q14.69806470046997,13.222536804962159,14.820284700469971,13.149282804962159Q14.942504700469971,13.076028804962158,15.068164700469971,13.008859804962158Q15.19383470046997,12.941690804962159,15.32263470046997,12.880768804962159Q15.45144470046997,12.819846804962157,15.583094700469971,12.765318804962158Q15.714734700469972,12.710789804962157,15.84889470046997,12.662786804962158Q15.983054700469971,12.614783804962158,16.11940470046997,12.573420804962158Q16.25576470046997,12.532058804962158,16.39398470046997,12.497436804962158Q16.532204700469972,12.462814804962159,16.67195470046997,12.435015804962159Q16.81170470046997,12.407217904962158,16.95265470046997,12.386310404962158Q17.09359470046997,12.365402804962159,17.23540470046997,12.351436404962158Q17.37720470046997,12.337470004962158,17.519524700469972,12.330478424962159Q17.66184470046997,12.323486804962158,17.80432470046997,12.323486804962158Q17.94681470046997,12.323486804962158,18.08913470046997,12.330478424962159Q18.23145470046997,12.337470004962158,18.37325470046997,12.351436404962158Q18.51506470046997,12.365402804962159,18.65600470046997,12.386310404962158Q18.79695470046997,12.407217904962158,18.93670470046997,12.435015804962159Q19.07645470046997,12.462814804962159,19.21467470046997,12.497436804962158Q19.35289470046997,12.532058804962158,19.48925470046997,12.573420804962158Q19.62560470046997,12.614783804962158,19.759764700469972,12.662786804962158Q19.89392470046997,12.710789804962157,20.02556470046997,12.765318804962158Q20.15720470046997,12.819846804962157,20.28601470046997,12.880768804962159Q20.41482470046997,12.941690804962159,20.54049470046997,13.008859804962158Q20.66615470046997,13.076028804962158,20.788374700469973,13.149282804962159Q20.91059470046997,13.222536804962159,21.02906470046997,13.301699804962158Q21.14754470046997,13.380866804962158,21.26199470046997,13.465746804962158Q21.37643470046997,13.550626804962159,21.48658470046997,13.641016804962158Q21.596734700469973,13.731416804962159,21.70230470046997,13.827106804962158Q21.80788470046997,13.922796804962157,21.90864470046997,14.023546804962159Q22.00935470046997,14.124306804962158,22.10505470046997,14.229876804962158Q22.20075470046997,14.335456804962158,22.29115470046997,14.445606804962157Q22.38155470046997,14.555746804962158,22.46645470046997,14.670196804962158Q22.55135470046997,14.784646804962158,22.63045470046997,14.903126804962158Q22.70965470046997,15.021596804962158,22.782954700469972,15.143816804962158Q22.856154700469972,15.266036804962159,22.92335470046997,15.391696804962159Q22.99045470046997,15.517366804962158,23.05145470046997,15.646166804962158Q23.11235470046997,15.774976804962158,23.16685470046997,15.906626804962158Q23.22135470046997,16.03826680496216,23.269354700469968,16.172426804962157Q23.317454700469973,16.30658680496216,23.358754700469973,16.44293680496216Q23.40015470046997,16.57929680496216,23.43475470046997,16.71751680496216Q23.46935470046997,16.85572680496216,23.49715470046997,16.99548680496216Q23.52495470046997,17.135236804962158,23.54585470046997,17.27617680496216Q23.56675470046997,17.41712680496216,23.58075470046997,17.55893680496216Q23.59475470046997,17.70073680496216,23.60175470046997,17.84305680496216Q23.60865470046997,17.98536680496216,23.60865470046997,18.127856804962157Z" fill="#3BDBFF" fill-opacity="1"/></g><g><path d="M30.817783679962158,22.01491258621216Q30.817783679962158,22.10911258621216,30.79702367996216,22.20286258621216Q30.77627367996216,22.29660258621216,30.73495367996216,22.389002586212158Q30.693643679962157,22.48139258621216,30.632173679962158,22.571532586212157Q30.570693679962158,22.66168258621216,30.48965367996216,22.748712586212157Q30.40861367996216,22.83574258621216,30.308793679962157,22.91881258621216Q30.20896367996216,23.001892586212158,30.09131367996216,23.08022258621216Q29.973663679962158,23.158542586212157,29.83931367996216,23.231362586212157Q29.70497367996216,23.304182586212157,29.555233679962157,23.370792586212158Q29.40548367996216,23.43740258621216,29.241793679962157,23.49716258621216Q29.07809367996216,23.55692258621216,28.90201367996216,23.609252586212158Q28.725933679962157,23.66159258621216,28.539173679962158,23.705992586212158Q28.352413679962158,23.750402586212157,28.156763679962157,23.786452586212157Q27.961113679962157,23.82250258621216,27.75846367996216,23.84984258621216Q27.555813679962156,23.877192586212157,27.348123679962157,23.895572586212158Q27.140423679962158,23.91394258621216,26.929673679962157,23.923182586212157Q26.71892367996216,23.93241258621216,26.50715367996216,23.93241258621216Q26.29539367996216,23.93241258621216,26.08464367996216,23.923182586212157Q25.87389367996216,23.91394258621216,25.66619367996216,23.895572586212158Q25.45849367996216,23.877192586212157,25.255853679962158,23.84984258621216Q25.05320367996216,23.82250258621216,24.85755367996216,23.786452586212157Q24.66190367996216,23.750402586212157,24.47514367996216,23.705992586212158Q24.28838367996216,23.66159258621216,24.112303679962157,23.609252586212158Q23.936223679962158,23.55692258621216,23.77252367996216,23.49716258621216Q23.608823679962157,23.43740258621216,23.45908367996216,23.370792586212158Q23.309343679962158,23.304182586212157,23.17499967996216,23.231362586212157Q23.040655679962157,23.158542586212157,22.923003679962157,23.08022258621216Q22.805351679962158,23.001892586212158,22.705525679962157,22.91881258621216Q22.60569867996216,22.83574258621216,22.52465967996216,22.748712586212157Q22.443619679962158,22.66168258621216,22.38214667996216,22.571532586212157Q22.32067367996216,22.48139258621216,22.279359879962158,22.389002586212158Q22.238046179962158,22.29660258621216,22.21728927996216,22.20286258621216Q22.19653245926216,22.10911258621216,22.19653245926216,22.01491258621216Q22.19653245926216,21.920712586212158,22.21728927996216,21.826962586212158Q22.238046179962158,21.733222586212158,22.279359879962158,21.64082258621216Q22.32067367996216,21.548432586212158,22.38214667996216,21.45829258621216Q22.443619679962158,21.36814258621216,22.52465967996216,21.28111258621216Q22.605699679962157,21.194082586212158,22.705525679962157,21.11101258621216Q22.80535267996216,21.02793158621216,22.923003679962157,20.94960658621216Q23.040655679962157,20.87128158621216,23.17499967996216,20.798463586212158Q23.309343679962158,20.72564558621216,23.45908367996216,20.65903558621216Q23.608823679962157,20.59242558621216,23.77252367996216,20.532664586212157Q23.936223679962158,20.47290458621216,24.112303679962157,20.420569586212157Q24.28838367996216,20.368234586212157,24.47514367996216,20.32382858621216Q24.66190367996216,20.279422586212156,24.85755367996216,20.243373586212158Q25.05320367996216,20.20732458621216,25.255853679962158,20.179979486212158Q25.458503679962156,20.152634486212158,25.66619367996216,20.13425678621216Q25.87389367996216,20.115879186212158,26.08464367996216,20.10664587621216Q26.29539367996216,20.097412586212158,26.50715367996216,20.097412586212158Q26.71892367996216,20.097412586212158,26.929673679962157,20.10664587621216Q27.140423679962158,20.115879186212158,27.348123679962157,20.13425678621216Q27.555813679962156,20.152634486212158,27.75846367996216,20.179979486212158Q27.961113679962157,20.20732458621216,28.156763679962157,20.243373586212158Q28.352413679962158,20.279422586212156,28.539173679962158,20.32382858621216Q28.725933679962157,20.368234586212157,28.90201367996216,20.420569586212157Q29.07809367996216,20.47290458621216,29.241793679962157,20.532664586212157Q29.40548367996216,20.59242558621216,29.555233679962157,20.65903558621216Q29.70497367996216,20.72564558621216,29.83931367996216,20.798463586212158Q29.973663679962158,20.87128158621216,30.09131367996216,20.94960658621216Q30.20896367996216,21.02793158621216,30.308793679962157,21.11101258621216Q30.40861367996216,21.194082586212158,30.48965367996216,21.28111258621216Q30.570693679962158,21.36814258621216,30.632173679962158,21.45829258621216Q30.693643679962157,21.548432586212158,30.73495367996216,21.64082258621216Q30.77627367996216,21.733222586212158,30.79702367996216,21.826962586212158Q30.817783679962158,21.920712586212158,30.817783679962158,22.01491258621216Z" fill="#0F6AFF" fill-opacity="1"/></g><g><path d="M22.146530315704346,22.01557258621216Q22.146530315704346,22.109812586212158,22.125770315704344,22.203582586212157Q22.105010315704348,22.29736258621216,22.063690315704346,22.38979258621216Q22.022370315704343,22.482212586212157,21.960880315704344,22.572392586212157Q21.899400315704348,22.662562586212157,21.818340315704347,22.74962258621216Q21.737290315704346,22.83668258621216,21.637440315704346,22.919792586212157Q21.537590315704346,23.00289258621216,21.419920315704346,23.08125258621216Q21.302250315704345,23.15960258621216,21.167880315704345,23.23244258621216Q21.033510315704348,23.305282586212158,20.883740315704344,23.371922586212158Q20.733970315704347,23.438552586212158,20.570240315704346,23.498332586212157Q20.406510315704345,23.558112586212157,20.230400315704344,23.610472586212158Q20.054280315704347,23.662822586212158,19.867490315704345,23.707242586212157Q19.680690315704346,23.75166258621216,19.485000315704347,23.78772258621216Q19.289320315704344,23.823782586212157,19.086630315704348,23.85114258621216Q18.883940315704344,23.878492586212158,18.676210315704346,23.896882586212158Q18.468470315704344,23.915262586212158,18.257680315704345,23.924502586212157Q18.046890315704346,23.93373258621216,17.835080315704346,23.93373258621216Q17.623280315704346,23.93373258621216,17.412490315704346,23.924502586212157Q17.201700315704347,23.915262586212158,16.993960315704346,23.896882586212158Q16.786220315704345,23.878492586212158,16.583540315704347,23.85114258621216Q16.380850315704347,23.823782586212157,16.185160315704344,23.78772258621216Q15.989480315704345,23.75166258621216,15.802680315704347,23.707242586212157Q15.615880315704345,23.662822586212158,15.439770315704346,23.610472586212158Q15.263660315704346,23.558112586212157,15.099930315704345,23.498332586212157Q14.936200315704346,23.438552586212158,14.786430315704346,23.371922586212158Q14.636660315704345,23.305282586212158,14.502291315704346,23.23244258621216Q14.367921315704345,23.15960258621216,14.250247315704346,23.08125258621216Q14.132573315704345,23.00289258621216,14.032727315704346,22.919792586212157Q13.932882315704346,22.83668258621216,13.851827315704346,22.74962258621216Q13.770771315704346,22.662562586212157,13.709287315704346,22.572392586212157Q13.647802315704345,22.482212586212157,13.606480815704346,22.38979258621216Q13.565159115704345,22.29736258621216,13.544398315704345,22.203582586212157Q13.523637561704346,22.109812586212158,13.523637561704346,22.01557258621216Q13.523637561704346,21.92134258621216,13.544398315704345,21.82756258621216Q13.565159115704345,21.733782586212158,13.606480815704346,21.641362586212157Q13.647802315704345,21.548932586212157,13.709287315704346,21.45876258621216Q13.770771315704346,21.36858258621216,13.851827315704346,21.28152258621216Q13.932882315704346,21.194462586212158,14.032727315704346,21.11136258621216Q14.132573315704345,21.02825358621216,14.250247315704346,20.94990058621216Q14.367921315704345,20.871548586212157,14.502290315704347,20.798705586212158Q14.636660315704345,20.72586258621216,14.786430315704346,20.65922958621216Q14.936200315704346,20.592596586212156,15.099930315704345,20.53281558621216Q15.263660315704346,20.473034586212158,15.439770315704346,20.420681586212158Q15.615880315704345,20.368327586212157,15.802680315704347,20.323906586212157Q15.989480315704345,20.279485586212157,16.185160315704344,20.24342358621216Q16.380850315704347,20.20736258621216,16.583540315704347,20.180007986212157Q16.786220315704345,20.15265348621216,16.993960315704346,20.13426948621216Q17.201700315704347,20.115885486212157,17.412490315704346,20.10664905621216Q17.623280315704346,20.097412586212158,17.835080315704346,20.097412586212158Q18.046890315704346,20.097412586212158,18.257680315704345,20.10664905621216Q18.468470315704344,20.115885486212157,18.676210315704346,20.13426948621216Q18.883940315704344,20.15265348621216,19.086630315704348,20.180007986212157Q19.289320315704344,20.20736258621216,19.485000315704347,20.24342358621216Q19.680690315704346,20.279485586212157,19.867490315704345,20.323906586212157Q20.054280315704347,20.368327586212157,20.230390315704348,20.420681586212158Q20.406510315704345,20.473034586212158,20.570240315704346,20.53281558621216Q20.733970315704347,20.592596586212156,20.883740315704344,20.65922958621216Q21.033510315704348,20.72586258621216,21.167880315704345,20.798705586212158Q21.302250315704345,20.871548586212157,21.419920315704346,20.94990058621216Q21.537590315704346,21.02825358621216,21.637440315704346,21.11136258621216Q21.737290315704346,21.194462586212158,21.818340315704347,21.28152258621216Q21.899400315704348,21.36858258621216,21.960880315704344,21.45876258621216Q22.022370315704343,21.548932586212157,22.063690315704346,21.641362586212157Q22.105010315704348,21.733782586212158,22.125770315704344,21.82756258621216Q22.146530315704346,21.92134258621216,22.146530315704346,22.01557258621216Z" fill="#0F6AFF" fill-opacity="1"/></g><g><path d="M23.63934934890747,25.90360649246216Q23.63934934890747,26.093156492462157,23.63226934890747,26.281796492462156Q23.625199348907472,26.47043649246216,23.611129348907472,26.65634649246216Q23.59705934890747,26.84225649246216,23.576109348907472,27.02364649246216Q23.55516934890747,27.205036492462156,23.52756934890747,27.38016649246216Q23.49995934890747,27.55528649246216,23.465949348907472,27.722456492462157Q23.43194934890747,27.889626492462156,23.39186934890747,28.047236492462158Q23.35178934890747,28.20484649246216,23.30601934890747,28.35136649246216Q23.26025934890747,28.497896492462157,23.20924934890747,28.631926492462156Q23.158239348907472,28.76596649246216,23.10246934890747,28.886216492462157Q23.04670934890747,29.00646649246216,22.98672934890747,29.11177649246216Q22.92674934890747,29.21708649246216,22.86311934890747,29.306436492462158Q22.79949934890747,29.395796492462157,22.73284934890747,29.468336492462157Q22.666209348907472,29.540876492462157,22.59716934890747,29.59589649246216Q22.52813934890747,29.65092649246216,22.45738934890747,29.687906492462158Q22.38662934890747,29.724886492462158,22.31483934890747,29.743466492462158Q22.24304934890747,29.762046492462158,22.170909348907472,29.762046492462158Q22.09876934890747,29.762046492462158,22.02697934890747,29.743466492462158Q21.95517934890747,29.724886492462158,21.88442934890747,29.687906492462158Q21.81367934890747,29.65092649246216,21.74463934890747,29.59589649246216Q21.67560834890747,29.540876492462157,21.60896034890747,29.468336492462157Q21.54231134890747,29.395796492462157,21.47869034890747,29.306436492462158Q21.41506834890747,29.21708649246216,21.35508634890747,29.11177649246216Q21.295104348907472,29.00646649246216,21.239340348907472,28.886216492462157Q21.18357534890747,28.76596649246216,21.132564348907472,28.631926492462156Q21.08155434890747,28.497896492462157,21.03578934890747,28.35136649246216Q20.990024348907472,28.20484649246216,20.94994534890747,28.047236492462158Q20.909867348907472,27.889626492462156,20.87586034890747,27.722456492462157Q20.84185434890747,27.55528649246216,20.81424734890747,27.38016649246216Q20.78664084890747,27.205036492462156,20.76569974890747,27.02364649246216Q20.744758748907472,26.84225649246216,20.73068494890747,26.65634649246216Q20.71661124890747,26.47043649246216,20.709540278907472,26.281796492462156Q20.70246934890747,26.093156492462157,20.70246934890747,25.90360649246216Q20.70246934890747,25.71404649246216,20.709540278907472,25.525406492462157Q20.71661124890747,25.336766492462157,20.73068494890747,25.150856492462157Q20.744758748907472,24.964946492462158,20.76569974890747,24.783556492462157Q20.78664084890747,24.602166492462157,20.81424734890747,24.427046492462157Q20.84185434890747,24.251916492462158,20.87586034890747,24.08474649246216Q20.909867348907472,23.917576492462157,20.94994534890747,23.75996649246216Q20.990024348907472,23.60236649246216,21.03578934890747,23.455836492462158Q21.08155434890747,23.30930649246216,21.132564348907472,23.175276492462157Q21.18357534890747,23.041242492462157,21.239340348907472,22.920991492462157Q21.295104348907472,22.800740492462158,21.35508634890747,22.695430492462158Q21.41506834890747,22.59012049246216,21.47869034890747,22.500765492462158Q21.54231134890747,22.411411492462157,21.60896034890747,22.33887249246216Q21.67560834890747,22.26633349246216,21.74463934890747,22.21130949246216Q21.81367934890747,22.156285492462157,21.88442934890747,22.11930529246216Q21.95517934890747,22.08232539246216,22.02697934890747,22.06374589246216Q22.09876934890747,22.045166492462158,22.170909348907472,22.045166492462158Q22.24304934890747,22.045166492462158,22.31483934890747,22.06374589246216Q22.38662934890747,22.08232539246216,22.45738934890747,22.11930529246216Q22.52813934890747,22.156285492462157,22.59716934890747,22.21130949246216Q22.666209348907472,22.26633349246216,22.73284934890747,22.33887249246216Q22.79949934890747,22.411411492462157,22.86311934890747,22.500765492462158Q22.92674934890747,22.59012049246216,22.98672934890747,22.695430492462158Q23.04670934890747,22.800740492462158,23.10246934890747,22.920991492462157Q23.158239348907472,23.041242492462157,23.20924934890747,23.175276492462157Q23.26025934890747,23.30930649246216,23.306029348907472,23.455836492462158Q23.35178934890747,23.60236649246216,23.39186934890747,23.75996649246216Q23.43194934890747,23.917576492462157,23.465949348907472,24.08474649246216Q23.49995934890747,24.251916492462158,23.52756934890747,24.427046492462157Q23.55516934890747,24.602166492462157,23.576109348907472,24.783556492462157Q23.59705934890747,24.964946492462158,23.611129348907472,25.150856492462157Q23.625199348907472,25.336766492462157,23.63226934890747,25.525406492462157Q23.63934934890747,25.71404649246216,23.63934934890747,25.90360649246216Z" fill="#0F6AFF" fill-opacity="1"/></g><g><path d="M23.63934934890747,18.12626274246216Q23.63934934890747,18.315812742462157,23.63226934890747,18.504452742462156Q23.625199348907472,18.69309274246216,23.611129348907472,18.87900274246216Q23.59705934890747,19.06491274246216,23.576109348907472,19.24630274246216Q23.55516934890747,19.427692742462156,23.52756934890747,19.60282274246216Q23.49995934890747,19.77794274246216,23.465949348907472,19.945112742462157Q23.43194934890747,20.112282742462156,23.39186934890747,20.269892742462158Q23.35178934890747,20.42750274246216,23.30601934890747,20.57402274246216Q23.26025934890747,20.720552742462157,23.20924934890747,20.854582742462156Q23.158239348907472,20.98862274246216,23.10246934890747,21.108872742462157Q23.04670934890747,21.22912274246216,22.98672934890747,21.33443274246216Q22.92674934890747,21.43974274246216,22.86311934890747,21.529092742462158Q22.79949934890747,21.618452742462157,22.73284934890747,21.690992742462157Q22.666209348907472,21.763532742462157,22.59716934890747,21.81855274246216Q22.52813934890747,21.87358274246216,22.45738934890747,21.910562742462158Q22.38662934890747,21.947542742462158,22.31483934890747,21.966122742462158Q22.24304934890747,21.984702742462158,22.170909348907472,21.984702742462158Q22.09876934890747,21.984702742462158,22.02697934890747,21.966122742462158Q21.95517934890747,21.947542742462158,21.88442934890747,21.910562742462158Q21.81367934890747,21.87358274246216,21.74463934890747,21.81855274246216Q21.67560834890747,21.763532742462157,21.60896034890747,21.690992742462157Q21.54231134890747,21.618452742462157,21.47869034890747,21.529092742462158Q21.41506834890747,21.43974274246216,21.35508634890747,21.33443274246216Q21.295104348907472,21.22912274246216,21.239340348907472,21.108872742462157Q21.18357534890747,20.98862274246216,21.132564348907472,20.854582742462156Q21.08155434890747,20.720552742462157,21.03578934890747,20.57402274246216Q20.990024348907472,20.42750274246216,20.94994534890747,20.269892742462158Q20.909867348907472,20.112282742462156,20.87586034890747,19.945112742462157Q20.84185434890747,19.77794274246216,20.81424734890747,19.60282274246216Q20.78664084890747,19.427692742462156,20.76569974890747,19.24630274246216Q20.744758748907472,19.06491274246216,20.73068494890747,18.87900274246216Q20.71661124890747,18.69309274246216,20.709540278907472,18.504452742462156Q20.70246934890747,18.315812742462157,20.70246934890747,18.12626274246216Q20.70246934890747,17.93670274246216,20.709540278907472,17.748062742462157Q20.71661124890747,17.559422742462157,20.73068494890747,17.373512742462157Q20.744758748907472,17.187602742462158,20.76569974890747,17.006212742462157Q20.78664084890747,16.824822742462157,20.81424734890747,16.649702742462157Q20.84185434890747,16.474572742462158,20.87586034890747,16.30740274246216Q20.909867348907472,16.140232742462157,20.94994534890747,15.982622742462159Q20.990024348907472,15.825022742462158,21.03578934890747,15.678492742462158Q21.08155434890747,15.531962742462158,21.132564348907472,15.397932742462158Q21.18357534890747,15.263898742462159,21.239340348907472,15.143647742462159Q21.295104348907472,15.023396742462158,21.35508634890747,14.918086742462158Q21.41506834890747,14.812776742462159,21.47869034890747,14.723421742462158Q21.54231134890747,14.634067742462157,21.60896034890747,14.561528742462158Q21.67560834890747,14.488989742462158,21.74463934890747,14.433965742462158Q21.81367934890747,14.378941742462159,21.88442934890747,14.341961542462158Q21.95517934890747,14.304981642462158,22.02697934890747,14.286402142462158Q22.09876934890747,14.267822742462158,22.170909348907472,14.267822742462158Q22.24304934890747,14.267822742462158,22.31483934890747,14.286402142462158Q22.38662934890747,14.304981642462158,22.45738934890747,14.341961542462158Q22.52813934890747,14.378941742462159,22.59716934890747,14.433965742462158Q22.666209348907472,14.488989742462158,22.73284934890747,14.561528742462158Q22.79949934890747,14.634067742462157,22.86311934890747,14.723421742462158Q22.92674934890747,14.812776742462159,22.98672934890747,14.918086742462158Q23.04670934890747,15.023396742462158,23.10246934890747,15.143647742462159Q23.158239348907472,15.263898742462159,23.20924934890747,15.397932742462158Q23.26025934890747,15.531962742462158,23.306029348907472,15.678492742462158Q23.35178934890747,15.825022742462158,23.39186934890747,15.982622742462159Q23.43194934890747,16.140232742462157,23.465949348907472,16.30740274246216Q23.49995934890747,16.474572742462158,23.52756934890747,16.649702742462157Q23.55516934890747,16.824822742462157,23.576109348907472,17.006212742462157Q23.59705934890747,17.187602742462158,23.611129348907472,17.373512742462157Q23.625199348907472,17.559422742462157,23.63226934890747,17.748062742462157Q23.63934934890747,17.93670274246216,23.63934934890747,18.12626274246216Z" fill="#0F6AFF" fill-opacity="1"/></g></g><g><g><rect x="0" y="0" width="44" height="44" rx="4" fill="#FFF5DA" fill-opacity="1"/></g><g clip-path="url(#master_svg4_33_4432)"><g><path d="M13.357485218048096,16.968750476837158L32.82993521804809,16.968750476837158Q34.531235218048096,16.968750476837158,34.531235218048096,18.67000047683716L34.531235218048096,29.673750476837156Q34.531235218048096,31.374950476837157,32.82993521804809,31.374950476837157L13.357485218048096,31.374950476837157Q11.656235218048096,31.374950476837157,11.656235218048096,29.673750476837156L11.656235218048096,18.67000047683716Q11.656235218048096,16.968750476837158,13.357485218048096,16.968750476837158Z" fill="#FFDE09" fill-opacity="1"/></g><g><path d="M21.75001573562622,14.955226648712157C20.45626573562622,14.432722648712158,18.29657573562622,13.793660648712159,15.19220573562622,13.609597648712159C14.22401373562622,13.553022938712159,13.407487655626221,14.322257648712158,13.40626573562622,15.292096648712159L13.40626573562622,26.576826648712156C13.406197986626221,27.471026648712158,14.10463273562622,28.209726648712156,14.997515735626221,28.259626648712157C18.19876573562622,28.437426648712158,20.450325735626222,29.124926648712158,21.78126573562622,29.672126648712158C22.70915573562622,30.055026648712158,23.751565735626222,30.05102664871216,24.67656573562622,29.66112664871216C26.006265735626222,29.09862664871216,28.26216573562622,28.39462664871216,31.47376573562622,28.21302664871216C32.365465735626216,28.16212664871216,33.06246573562622,27.424226648712157,33.06246573562622,26.53112664871216L33.06246573562622,15.245846648712158C33.06196573562622,14.274586648712159,32.24356573562622,13.504312648712158,31.27406573562622,13.562410148712159C28.161265735626223,13.751472648712157,25.99846573562622,14.406159648712158,24.70656573562622,14.942726648712158C23.760765735626222,15.334296648712158,22.69907573562622,15.338786648712158,21.75001573562622,14.955226648712157Z" fill="#FCBA26" fill-opacity="1"/></g><g><path d="M26.55750047683716,12.124878570587159C27.20156047683716,11.909253570587158,28.25844047683716,11.634878970587158,29.63344047683716,11.553629020587158C30.070060476837156,11.527507170587159,30.438280476837157,11.874979570587158,30.437500476837158,12.312378570587159L30.437500476837158,18.40612657058716C30.43776047683716,18.82279657058716,30.11341047683716,19.16755657058716,29.697500476837156,19.192686570587156C28.956560476837158,19.23737657058716,27.789370476837156,19.34050657058716,26.81625047683716,19.57425657058716C26.320482476837157,19.693806570587157,25.843496570837157,19.317976570587156,25.843750476837158,18.80800657058716L25.843750476837158,13.115506570587158C25.843668689737157,12.666096570587158,26.13117747683716,12.267058570587158,26.55750047683716,12.124878570587159Z" fill="#FFDE09" fill-opacity="1"/></g><g><path d="M26.81625047683716,19.574001883087156C27.789370476837156,19.34025188308716,28.956560476837158,19.23713188308716,29.697500476837156,19.19244188308716C30.113190476837158,19.167421883087158,30.437500476837158,18.822841883087158,30.437500476837158,18.406191883087157L30.437500476837158,13.627441883087158C28.50656047683716,13.804941883087158,26.98281047683716,14.160878883087157,25.843750476837158,14.528066883087158L25.843750476837158,18.809311883087158C25.844506091837157,19.318651883087156,26.32110747683716,19.69341188308716,26.81625047683716,19.574001883087156Z" fill="#FB8B06" fill-opacity="1"/></g></g></g></g></g></g></svg>