<svg xmlns="http://www.w3.org/2000/svg" xmlns:xlink="http://www.w3.org/1999/xlink" fill="none" version="1.1" width="22" height="22" viewBox="0 0 22 22"><defs><clipPath id="master_svg0_31_6825"><rect x="3" y="3.149993896484375" width="16" height="15.999999046325684" rx="0"/></clipPath></defs><g><g clip-path="url(#master_svg0_31_6825)"><g><path d="M17.6971,7.987413896484375L8.76704,7.987413896484375C8.048169999999999,7.987413896484375,7.46593,7.404273896484375,7.46503,6.685403896484376L7.46503,4.451993896484375C7.46503,3.733126896484375,8.048169999999999,3.150886923484375,8.76704,3.149993896484375L17.6971,3.149993896484375C18.416,3.149993896484375,18.9982,3.733126896484375,18.9991,4.451993896484375L18.9991,6.6845138964843756C18.9991,7.403383896484375,18.416,7.985623896484375,17.6971,7.986513896484375L17.6971,7.987413896484375ZM8.98404,4.521653896484375C8.886700000000001,4.520763896484375,8.807220000000001,4.588623896484375,8.806329999999999,4.673463896484375C8.806329999999999,4.674353896484375,8.806329999999999,4.6761438964843745,8.806329999999999,4.6770338964843745L8.806329999999999,6.540743896484376C8.80544,6.625573896484375,8.883130000000001,6.695233896484375,8.979569999999999,6.696123896484375C8.981359999999999,6.696123896484375,8.98225,6.696123896484375,8.98404,6.696123896484375L17.5096,6.696123896484375C17.6069,6.696123896484375,17.6864,6.628253896484376,17.6873,6.543423896484375Q17.6873,6.541633896484376,17.6873,6.540743896484376L17.6873,4.6770338964843745C17.6873,4.592203896484375,17.610500000000002,4.523433896484375,17.5131,4.522543896484375C17.5123,4.522543896484375,17.5105,4.522543896484375,17.5096,4.522543896484375L8.98404,4.522543896484375L8.98404,4.521653896484375ZM10.99955,19.149993896484375L7.2784,19.149993896484375C6.97209,19.146393896484376,6.72384,18.898193896484376,6.72027,18.591893896484375L6.72027,14.870693896484376C6.72384,14.564393896484376,6.97209,14.316193896484375,7.2784,14.312593896484374L10.99955,14.312593896484374C11.30585,14.316193896484375,11.55411,14.564393896484376,11.55768,14.870693896484376L11.55768,18.591893896484375C11.55411,18.898193896484376,11.30585,19.146393896484376,10.99955,19.149993896484375ZM8.06692,15.911093896484376L8.06692,17.551493896484374C8.06692,17.690793896484376,8.18033,17.804193896484374,8.31964,17.804193896484374L9.960090000000001,17.804193896484374C10.0994,17.804193896484374,10.212810000000001,17.690793896484376,10.212810000000001,17.551493896484374L10.212810000000001,15.911093896484376C10.212810000000001,15.771793896484375,10.0994,15.658293896484375,9.960090000000001,15.658293896484375L8.31964,15.658293896484375C8.18033,15.658293896484375,8.06692,15.771793896484375,8.06692,15.911093896484376ZM7.27929,13.568693896484374L3.558129,13.568693896484374C3.251828,13.565093896484376,3.00357202,13.316893896484375,3,13.010573896484376L3,9.289413896484376C3.00357203,8.983113896484376,3.251828,8.734853896484374,3.558129,8.731283896484374L7.27929,8.731283896484374C7.58559,8.734853896484374,7.83384,8.983113896484376,7.83742,9.289413896484376L7.83742,13.010573896484376C7.83384,13.316893896484375,7.58559,13.565093896484376,7.27929,13.568693896484374ZM4.33683,10.320833896484375L4.33683,11.980043896484375C4.33683,12.119353896484375,4.45024,12.232763896484375,4.58955,12.232763896484375L6.24876,12.232763896484375C6.38807,12.232763896484375,6.50148,12.119353896484375,6.50148,11.980043896484375L6.50148,10.320833896484375C6.50148,10.181523896484375,6.38807,10.068113896484375,6.24876,10.068113896484375L4.58955,10.068113896484375C4.45024,10.068113896484375,4.33683,10.181523896484375,4.33683,10.320833896484375ZM17.130000000000003,13.568693896484374L9.27248,13.568693896484374C8.96618,13.565093896484376,8.71792,13.316893896484375,8.71435,13.010573896484376L8.71435,9.289413896484376C8.71792,8.983113896484376,8.96618,8.734853896484374,9.27248,8.731283896484374L17.130000000000003,8.731283896484374C17.4363,8.734853896484374,17.6846,8.983113896484376,17.688200000000002,9.289413896484376L17.688200000000002,13.010573896484376C17.6846,13.316893896484375,17.4363,13.565093896484376,17.130000000000003,13.568693896484374ZM10.051179999999999,10.320833896484375L10.051179999999999,11.980043896484375C10.051179999999999,12.119353896484375,10.16459,12.232763896484375,10.303899999999999,12.232763896484375L16.0995,12.232763896484375C16.238799999999998,12.232763896484375,16.3522,12.119353896484375,16.3522,11.980043896484375L16.3522,10.320833896484375C16.3522,10.181523896484375,16.238799999999998,10.068113896484375,16.0995,10.068113896484375L10.303899999999999,10.068113896484375C10.16459,10.068113896484375,10.051179999999999,10.181523896484375,10.051179999999999,10.320833896484375Z" fill="#7F8C9F" fill-opacity="1"/></g></g></g></svg>