<svg xmlns="http://www.w3.org/2000/svg" xmlns:xlink="http://www.w3.org/1999/xlink" fill="none" version="1.1" width="23.2271728515625" height="24" viewBox="0 0 23.2271728515625 24"><defs><clipPath id="master_svg0_39_06077"><rect x="3.69523549079895" y="3.2727277278900146" width="16.89250373840332" height="17.454545974731445" rx="0"/></clipPath></defs><g><g><rect x="0" y="0" width="23.227191925048828" height="24" rx="4" fill="#FFF5DA" fill-opacity="1"/></g><g clip-path="url(#master_svg0_39_06077)"><g><path d="M7.0513173032989505,9.255698919296265L17.33064330329895,9.255698919296265Q18.22874330329895,9.255698919296265,18.22874330329895,10.183653919296265L18.22874330329895,16.185698919296264Q18.22874330329895,17.113648919296264,17.33064330329895,17.113648919296264L7.0513173032989505,17.113648919296264Q6.15324330329895,17.113648919296264,6.15324330329895,16.185698919296264L6.15324330329895,10.183653919296265Q6.15324330329895,9.255698919296265,7.0513173032989505,9.255698919296265Z" fill="#FFDE09" fill-opacity="1"/></g><g><path d="M11.481661428298949,8.157416743515014C10.798701428298951,7.872416743515014,9.65862142829895,7.523836743515014,8.01985142829895,7.4234392435150145C7.50875242829895,7.392580353515014,7.077716470298951,7.812162743515015,7.07707142829895,8.341166743515014L7.07707142829895,14.496448743515014C7.0770356641989505,14.984238743515014,7.4457324282989505,15.387128743515014,7.91707742829895,15.414348743515015C9.60699142829895,15.511338743515015,10.79557142829895,15.886338743515015,11.49815142829895,16.184798743515014C11.987981428298951,16.393658743515015,12.538281428298951,16.391518743515014,13.026561428298951,16.178838743515016C13.72849142829895,15.872018743515016,14.919381428298951,15.487988743515015,16.61474142829895,15.388948743515016C17.085471428298952,15.361188743515015,17.45347142829895,14.958698743515015,17.45347142829895,14.471568743515014L17.45347142829895,8.315939743515015C17.453071428298948,7.786160743515015,17.02112142829895,7.366011043515015,16.50932142829895,7.397700653515015C14.86610142829895,7.500825743515015,13.724371428298952,7.857927743515015,13.04240142829895,8.150598743515015C12.543131428298949,8.364184743515015,11.98266142829895,8.366633743515015,11.481661428298949,8.157416743515014Z" fill="#FCBA26" fill-opacity="1"/></g><g><path d="M14.01928311579895,6.613576145858764C14.35927811579895,6.495962145858765,14.91719111579895,6.3463033458587645,15.643041115798951,6.301985207858765C15.87353111579895,6.287736945858764,16.06791111579895,6.4772671458587645,16.06750111579895,6.715849145858765L16.06750111579895,10.039711145858764C16.06764111579895,10.266991145858764,15.89641111579895,10.455041145858765,15.67686111579895,10.468751145858764C15.28572111579895,10.493121145858765,14.66958111579895,10.549371145858764,14.15587511579895,10.676871145858765C13.89416311579895,10.742081145858766,13.64236708079895,10.537091145858763,13.64250111579895,10.258921145858764L13.64250111579895,7.153917145858765C13.64245794109895,6.908785145858765,13.79423111579895,6.691128145858765,14.01928311579895,6.613576145858764Z" fill="#FFDE09" fill-opacity="1"/></g><g><path d="M14.15587511579895,10.676708118515014C14.66958111579895,10.549208118515015,15.28572111579895,10.492958118515014,15.67686111579895,10.468578118515016C15.89630111579895,10.454938118515015,16.06750111579895,10.266978118515015,16.06750111579895,10.039718118515015L16.06750111579895,7.433128118515015C15.04817111579895,7.529946318515015,14.24380211579895,7.724094118515015,13.64250111579895,7.924378118515015L13.64250111579895,10.259608118515015C13.642899997798951,10.537428118515015,13.89449311579895,10.741838118515014,14.15587511579895,10.676708118515014Z" fill="#FB8B06" fill-opacity="1"/></g></g></g></svg>