<svg xmlns="http://www.w3.org/2000/svg" xmlns:xlink="http://www.w3.org/1999/xlink" fill="none" version="1.1" width="20" height="20" viewBox="0 0 20 20"><defs><clipPath id="master_svg0_31_6794"><rect x="2.7272729873657227" y="2.7272729873657227" width="14.545454978942871" height="14.545454978942871" rx="0"/></clipPath></defs><g><g><rect x="0" y="0" width="20" height="20" rx="4" fill="#FFF5DA" fill-opacity="1"/></g><g clip-path="url(#master_svg0_31_6794)"><g><path d="M9.664033104553223,9.011452674865723L10.357213104553223,9.011452674865723C12.887993104553223,9.011453229730723,14.939593104553223,11.063052674865723,14.939593104553223,13.593842674865723C14.939603104553223,14.398732674865723,14.287103104553223,15.051222674865723,13.482213104553223,15.051222674865723L6.539033104553223,15.051222674865723C5.734137104553223,15.051222674865723,5.081643104553223,14.398732674865723,5.081643104553223,13.593842674865723C5.0816428271202225,11.063052674865723,7.133243104553223,9.011452674865723,9.664033104553223,9.011452674865723Z" fill="#FCBA26" fill-opacity="1"/></g><g><path d="M12.404156600646973,7.521377752990723Q12.404156600646973,7.638957752990723,12.392636600646973,7.755977752990723Q12.381106600646973,7.872987752990722,12.358166600646973,7.9883177529907226Q12.335226600646973,8.103637752990723,12.301096600646972,8.216157752990723Q12.266966600646974,8.328677752990723,12.221966600646972,8.437317752990722Q12.176966600646972,8.545947752990722,12.121536600646973,8.649647752990722Q12.066116600646971,8.753347752990724,12.000786600646972,8.851107752990723Q11.935456600646972,8.948877752990722,11.860866600646972,9.039767752990723Q11.786276600646973,9.130667752990723,11.703126600646971,9.213807752990721Q11.619986600646973,9.296957752990723,11.529086600646973,9.371547752990722Q11.438196600646972,9.446137752990722,11.340426600646973,9.511467752990722Q11.242666600646974,9.576797752990721,11.138966600646972,9.632217752990723Q11.035266600646972,9.687647752990722,10.926636600646972,9.732647752990722Q10.817996600646973,9.777647752990724,10.705476600646973,9.811777752990722Q10.592956600646973,9.845907752990723,10.477636600646973,9.868847752990723Q10.362306600646972,9.891787752990723,10.245296600646974,9.903317752990723Q10.128276600646974,9.914837752990723,10.010696600646973,9.914837752990723Q9.893106600646973,9.914837752990723,9.776096600646973,9.903317752990723Q9.659076600646973,9.891787752990723,9.543746600646973,9.868847752990723Q9.428426600646972,9.845907752990723,9.315906600646972,9.811777752990722Q9.203386600646972,9.777647752990724,9.094756600646972,9.732647752990722Q8.986116600646973,9.687647752990722,8.882416600646973,9.632217752990723Q8.778716600646973,9.576797752990721,8.680956600646972,9.511467752990722Q8.583186600646973,9.446137752990722,8.492293600646972,9.371547752990722Q8.401400600646973,9.296957752990723,8.318256600646972,9.213807752990721Q8.235112600646973,9.130667752990723,8.160518600646972,9.039767752990723Q8.085924600646972,8.948877752990722,8.020598600646972,8.851107752990723Q7.955272600646973,8.753347752990724,7.899843600646973,8.649647752990722Q7.844415600646973,8.545947752990722,7.799418600646972,8.437317752990722Q7.754420600646973,8.328677752990723,7.720288600646973,8.216157752990723Q7.686155800646973,8.103637752990723,7.663216400646973,7.9883177529907226Q7.6402770006469725,7.872987752990722,7.628751800646973,7.755977752990723Q7.617226600646973,7.638957752990723,7.617226600646973,7.521377752990723Q7.617226600646973,7.403787752990723,7.628751800646973,7.286777752990723Q7.6402770006469725,7.169757752990723,7.663216400646973,7.054427752990723Q7.686155800646973,6.939107752990722,7.720288600646973,6.826587752990722Q7.754420600646973,6.714067752990722,7.799418600646972,6.6054377529907224Q7.844415600646973,6.496797752990723,7.899843600646973,6.393097752990723Q7.955272600646973,6.289397752990722,8.020598600646972,6.191637752990722Q8.085924600646972,6.093867752990723,8.160518600646972,6.002974752990722Q8.235112600646973,5.912081752990723,8.318256600646972,5.828937752990723Q8.401400600646973,5.745793752990723,8.492293600646972,5.671199752990723Q8.583186600646973,5.5966057529907225,8.680956600646972,5.531279752990723Q8.778716600646973,5.465953752990723,8.882416600646973,5.410524752990723Q8.986116600646973,5.355096752990723,9.094756600646972,5.310099752990722Q9.203386600646972,5.265101752990723,9.315906600646972,5.230969752990723Q9.428426600646972,5.196836952990723,9.543746600646973,5.173897552990723Q9.659076600646973,5.1509581529907225,9.776096600646973,5.139432952990723Q9.893106600646973,5.127907752990723,10.010696600646973,5.127907752990723Q10.128276600646974,5.127907752990723,10.245296600646974,5.139432952990723Q10.362306600646972,5.1509581529907225,10.477636600646973,5.173897552990723Q10.592956600646973,5.196836952990723,10.705476600646973,5.230969752990723Q10.817996600646973,5.265101752990723,10.926636600646972,5.310099752990722Q11.035266600646972,5.355096752990723,11.138966600646972,5.410524752990723Q11.242666600646974,5.465953752990723,11.340426600646973,5.531279752990723Q11.438196600646972,5.5966057529907225,11.529086600646973,5.671199752990723Q11.619986600646973,5.745793752990723,11.703126600646971,5.828937752990723Q11.786276600646973,5.912081752990723,11.860866600646972,6.002974752990722Q11.935456600646972,6.093867752990723,12.000786600646972,6.191637752990722Q12.066116600646971,6.289397752990722,12.121536600646973,6.393097752990723Q12.176966600646972,6.496797752990723,12.221966600646972,6.6054377529907224Q12.266966600646974,6.714067752990722,12.301096600646972,6.826587752990722Q12.335226600646973,6.939107752990722,12.358166600646973,7.054427752990723Q12.381106600646973,7.169757752990723,12.392636600646973,7.286777752990723Q12.404156600646973,7.403787752990723,12.404156600646973,7.521377752990723Z" fill="#FFDE09" fill-opacity="1"/></g><g><path d="M10.343016581115723,9.005594409595723L9.649836581115723,9.005594409595723C9.193356581115722,9.005253722865723,8.739389581115722,9.073094899865723,8.302956581115723,9.206873299865723C9.237865581115722,10.143033299865722,10.754976581115724,10.143033299865722,11.689886581115722,9.206873299865723C11.253456581115723,9.073094899865723,10.799486581115723,9.005253167865723,10.343016581115723,9.005594409595723ZM10.328386581115723,13.394803299865723L10.793016581115722,13.057303299865723C10.968496581115723,12.929763299865723,11.056556581115723,12.713793299865722,11.020286581115723,12.499913299865723L10.774976581115723,11.057303299865723C10.728336581115723,10.783243299865722,10.491036581115722,10.582653299865722,10.213046581115723,10.582303299865723L9.774116581115722,10.582303299865723C9.495856581115723,10.582303299865723,9.258156581115722,10.782973299865724,9.211479581115723,11.057303299865723L8.965598581115723,12.499913299865723C8.929327581115723,12.713793299865722,9.017386581115723,12.929763299865723,9.192871581115723,13.057303299865723L9.657356581115723,13.394803299865723C9.857426581115723,13.540123299865723,10.128316581115723,13.540123299865723,10.328386581115723,13.394803299865723Z" fill="#FB8B06" fill-opacity="1"/></g></g></g></svg>