<svg xmlns="http://www.w3.org/2000/svg" xmlns:xlink="http://www.w3.org/1999/xlink" fill="none" version="1.1" width="23.2271728515625" height="24" viewBox="0 0 23.2271728515625 24"><defs><clipPath id="master_svg0_39_05875"><rect x="4" y="4" width="16" height="16" rx="0"/></clipPath></defs><g><g><rect x="0" y="0" width="23.227191925048828" height="24" rx="4" fill="#FFFFFF" fill-opacity="1"/></g><g><g clip-path="url(#master_svg0_39_05875)"><g><path d="M6.333343505859375,6.166656494140625L9.000003505859375,6.166656494140625L9.000003505859375,7.499996494140625L6.666683505859375,7.499996494140625L6.666683505859375,9.833316494140625L5.333343505859375,9.833316494140625L5.333343505859375,7.166656494140625C5.333343505859375,6.614373494140625,5.781044505859375,6.166656494140625,6.333343505859375,6.166656494140625ZM15.000003505859375,7.499996494140625L17.333343505859375,7.499996494140625L17.333343505859375,9.833316494140625L18.666643505859376,9.833316494140625L18.666643505859376,7.166656494140625C18.666643505859376,6.614373494140625,18.218943505859375,6.166656494140625,17.666643505859376,6.166656494140625L15.000003505859375,6.166656494140625L15.000003505859375,7.499996494140625ZM9.549893505859375,9.755526494140625L9.136473505859374,9.166656494140625L10.795353505859374,9.166656494140625L11.995633505859374,10.918486494140625L13.202143505859375,9.166656494140625L14.863833505859375,9.166656494140625L12.812923505859375,12.064146494140626L15.000033505859374,15.166656494140625L13.339753505859376,15.166656494140625L11.995573505859376,13.210026494140624L10.657713505859375,15.166656494140625L9.000033505859374,15.166656494140625L11.170653505859375,12.064086494140625L9.549893505859375,9.755526494140625ZM6.666683505859375,14.499996494140625L6.666683505859375,16.833356494140624L9.000003505859375,16.833356494140624L9.000003505859375,18.166656494140625L6.333343505859375,18.166656494140625C5.781044505859375,18.166656494140625,5.333343505859375,17.718956494140627,5.333343505859375,17.166656494140625L5.333343505859375,14.499996494140625L6.666683505859375,14.499996494140625ZM18.666643505859376,14.499996494140625L18.666643505859376,17.166656494140625C18.666643505859376,17.718956494140627,18.218943505859375,18.166656494140625,17.666643505859376,18.166656494140625L15.000003505859375,18.166656494140625L15.000003505859375,16.833356494140624L17.333343505859375,16.833356494140624L17.333343505859375,14.499996494140625L18.666643505859376,14.499996494140625Z" fill-rule="evenodd" fill="#06A124" fill-opacity="1"/></g></g></g></g></svg>