<svg xmlns="http://www.w3.org/2000/svg" xmlns:xlink="http://www.w3.org/1999/xlink" fill="none" version="1.1" width="24" height="24" viewBox="0 0 24 24"><defs><clipPath id="master_svg0_31_6007"><rect x="20.72727394104004" y="20.72727394104004" width="17.454545974731445" height="17.454545974731445" rx="0"/></clipPath><clipPath id="master_svg1_31_5990"><rect x="16.25" y="15.75" width="8.5" height="7.5" rx="0"/></clipPath></defs><g><g><rect x="0" y="0" width="24" height="24" rx="4" fill="#FFF5DA" fill-opacity="1"/></g><g transform="matrix(-1,0,0,-1,41.45454788208008,41.45454788208008)" clip-path="url(#master_svg0_31_6007)"><g><path d="M31.558280845336913,27.08529870666504L27.481522845336915,27.08529870666504C27.069199845336914,27.085258706665037,26.753151445336915,26.718968706665038,26.813511625336915,26.31108870666504L26.954306845336912,25.36046570666504C27.003459845336913,25.029401706665038,27.287625845336915,24.78424593146504,27.622318845336913,24.78415870666504L31.417320845336913,24.78415870666504C31.752040845336914,24.78417335506504,32.03624084533691,25.02936470666504,32.08533084533691,25.36046570666504L32.226120845336915,26.31108870666504C32.28659084533692,26.71895870666504,31.970580845336915,27.08529870666504,31.558280845336913,27.08529870666504Z" fill="#FFDE09" fill-opacity="1"/></g><g><g><path d="M24.839220776977537,26.12375831604004L34.20093077697754,26.12375831604004Q35.53713077697754,26.12375831604004,35.53713077697754,27.459948316040037L35.53713077697754,32.83097831604004Q35.53713077697754,34.16716831604004,34.20093077697754,34.16716831604004L24.839220776977537,34.16716831604004Q23.50303077697754,34.16716831604004,23.50303077697754,32.83097831604004L23.50303077697754,27.459948316040037Q23.50303077697754,26.12375831604004,24.839220776977537,26.12375831604004Z" fill="#FCBA26" fill-opacity="1"/></g><g transform="matrix(-1,0,0,-1,66.54542922973633,65.45503997802734)"><path d="M39.10718461486816,33.63325898901367L40.909064614868164,35.26961998901367L39.10718461486816,36.90598998901367L38.72724461486816,36.56094998901367L40.14920461486817,35.26961998901367L38.72724461486816,33.978289989013675L39.10718461486816,33.63325898901367ZM38.18175461486816,32.72762203201367L35.45447461486816,37.45139998901367L35.92685461486816,37.72411998901367L38.65412461486817,33.00034898901367L38.18175461486816,32.72762203201367ZM33.272714614868164,35.34947998901367L35.074604614868164,36.98583998901367L35.454534614868166,36.640809989013675L34.032580614868166,35.34947998901367L35.454534614868166,34.05814998901367L35.074604614868164,33.71311598901367L33.272714614868164,35.34947998901367Z" fill-rule="evenodd" fill="#FB8B06" fill-opacity="1"/></g></g><g><path d="M26.813504965336914,26.31101417541504C26.753173345336915,26.71892817541504,27.069221845336916,27.085219175415038,27.481516845336913,27.085219175415038L31.558280845336913,27.085219175415038C31.970590845336915,27.085202175415038,32.28659084533692,26.71886517541504,32.226120845336915,26.31101417541504L32.198500845336916,26.12351417541504L26.841289045336914,26.12351417541504L26.813504965336914,26.31101417541504Z" fill="#FB8B06" fill-opacity="1"/></g></g><g><g><path d="M0,21L0,3C0,1.34315,1.34315,0,3,0L21,0C22.6569,0,24,1.34315,24,3L24,21C24,22.6569,22.6569,24,21,24L3,24C1.34315,24,0,22.6569,0,21Z" fill="#F4FAE5" fill-opacity="1"/></g><g><g><path d="M6,15L6,9C6,7.34315,7.34315,6,9,6L15,6C16.6569,6,18,7.34315,18,9L18,15C18,16.6569,16.6569,18,15,18L9,18C7.34315,18,6,16.6569,6,15Z" fill="#10B981" fill-opacity="1"/></g><g transform="matrix(-1,0,0,-1,32.5,31.5)"><g><g clip-path="url(#master_svg1_31_5990)"><g transform="matrix(-1,0,0,-1,45.52734375,45.39404296875)"><path d="M22.775047775,25.476281484375Q22.656050875,24.038081484375,23.781811875,23.827691484375Q24.231941875,23.743561484375,25.031311875,23.870811484375Q25.461831875,23.939351484375,25.663311875,23.942201484375Q25.974011875,23.946601484375,26.215291875,23.843531484375Q26.498891874999998,23.722381484375,26.552191875,23.523128484375Q26.612821875,23.296461484375,26.427621875,22.915744484375L26.877241875,22.697021484375Q27.144041875,23.245474484375,27.035211875,23.652332484375002Q26.919041874999998,24.086601484375,26.411711875,24.303331484375Q26.072941875,24.448051484375,25.656231875,24.442151484375Q25.418761875,24.438791484375,24.952701875,24.364601484375Q24.238771875,24.250941484375,23.873661875,24.319181484375Q23.191564875,24.446661484375,23.273344875,25.435051484375002L22.775047775,25.476281484375Z" fill-rule="evenodd" fill="#FFFFFF" fill-opacity="1"/></g><g transform="matrix(1,0,0,-1,0,37.94140625)"><path d="M18.868543203125,21.577973125Q18.356219203125,20.003123125,19.242759203125,19.595602125Q19.577368203125,19.441789125,20.026458203125,19.486643125Q20.276278203125,19.511594125,20.785088203125,19.643345125Q21.438148203125,19.812447125,21.756078203125,19.812449125Q22.060668203125,19.812451125,22.175188203125,19.651193125Q22.309918203125,19.461482125,22.264458203125,19.022160625L22.761808203125,18.970703125Q22.826648203125,19.597403125,22.582848203125,19.940702125Q22.318838203125,20.312453125,21.756068203125,20.312453125Q21.374468203125,20.312443125,20.659748203124998,20.127383125Q20.188238203125,20.005293125,19.976768203125,19.984163125Q19.662808203125,19.952810125,19.451592203125,20.049903125Q18.969344203125,20.271583125,19.344015203125,21.423293125L18.868543203125,21.577973125Z" fill-rule="evenodd" fill="#FFFFFF" fill-opacity="1"/></g><g transform="matrix(-1,0,0,-1,41.89453125,46.5)"><path d="M20.947265625,23.909168C20.947265625,23.545119,21.242384625,23.25,21.606433625,23.25L24.985465625,23.25C25.349515625000002,23.25,25.644635625,23.545119,25.644635625,23.909168C25.644635625,24.27322,25.349515625000002,24.56834,24.985465625,24.56834L21.606433625,24.56834C21.242384625,24.56834,20.947265625,24.27322,20.947265625,23.909168Z" fill="#73FF94" fill-opacity="1"/></g><g transform="matrix(-1,0,0,-1,49.5,40.318359375)"><path d="M24.75,20.8183476875C24.75,20.4542986875,25.045119,20.1591796875,25.409168,20.1591796875L28.7882,20.1591796875C29.152250000000002,20.1591796875,29.44737,20.4542986875,29.44737,20.8183476875C29.44737,21.1823996875,29.152250000000002,21.4775196875,28.7882,21.4775196875L25.409168,21.4775196875C25.045119,21.4775196875,24.75,21.1823996875,24.75,20.8183476875Z" fill="#73FF94" fill-opacity="1"/></g><g transform="matrix(-1,0,0,-1,42.78955078125,34.13671875)"><path d="M21.394775390625,17.727527375C21.394775390625,17.363478375,21.689894390625,17.068359375,22.053943390625,17.068359375L25.432975390625,17.068359375C25.797025390625002,17.068359375,26.092145390625,17.363478375,26.092145390625,17.727527375C26.092145390625,18.091579375,25.797025390625002,18.386699375,25.432975390625,18.386699375L22.053943390625,18.386699375C21.689894390625,18.386699375,21.394775390625,18.091579375,21.394775390625,17.727527375Z" fill="#FFD650" fill-opacity="1"/></g></g></g></g></g></g></g></svg>